<svg width="70" height="70" viewBox="0 0 70 70" fill="none" xmlns="http://www.w3.org/2000/svg">
<path d="M53.3128 7.61067C39.8669 7.8615 30.5005 1.06761 24.0216 1.19011C17.5428 1.31261 4.00165 5.29095 4.5597 35.1012C5.11776 64.9115 23.5064 68.9423 30.6347 68.8101C64.0072 68.186 77.1283 7.16539 53.3128 7.61067Z" fill="#EFEFEF"/>
<path d="M18.2266 54.9307H22.1155V56.8751H18.2266V54.9307Z" fill="#A4AFC1"/>
<path d="M7.04688 54.9307H10.9358V56.8751H7.04688V54.9307Z" fill="#A4AFC1"/>
<path d="M13.8516 48.125H15.796V52.0139H13.8516V48.125Z" fill="#A4AFC1"/>
<path d="M13.8516 59.3057H15.796V63.1946H13.8516V59.3057Z" fill="#A4AFC1"/>
<path d="M31.7139 41.3194H17.0139C14.875 41.3194 13.125 39.5694 13.125 37.4306V17.0139C13.125 14.875 14.875 13.125 17.0139 13.125H52.9861C55.125 13.125 56.875 14.875 56.875 17.0139V30.1389V37.4306C56.875 39.5792 55.1347 41.3194 52.9861 41.3194H31.7139Z" fill="#FEB46D"/>
<path d="M17.5 37.4306V17.0139C17.5 14.875 19.25 13.125 21.3889 13.125H17.0139C14.875 13.125 13.125 14.875 13.125 17.0139V37.4306C13.125 39.5694 14.875 41.3194 17.0139 41.3194H21.3889C19.25 41.3194 17.5 39.5694 17.5 37.4306Z" fill="#FF6600"/>
<path d="M35 31.5972C37.4162 31.5972 39.375 29.6384 39.375 27.2222C39.375 24.8059 37.4162 22.8472 35 22.8472C32.5838 22.8472 30.625 24.8059 30.625 27.2222C30.625 29.6384 32.5838 31.5972 35 31.5972Z" fill="#F3F3F1"/>
<path d="M45.6923 56.8748C51.8671 56.8748 56.8728 51.8691 56.8728 45.6942C56.8728 39.5194 51.8671 34.5137 45.6923 34.5137C39.5174 34.5137 34.5117 39.5194 34.5117 45.6942C34.5117 51.8691 39.5174 56.8748 45.6923 56.8748Z" fill="#F3F3F1"/>
<path d="M38.8867 45.6942C38.8867 40.2692 42.7523 35.7484 47.8798 34.7314C47.172 34.5914 46.4409 34.5137 45.6923 34.5137C39.5167 34.5137 34.5117 39.5187 34.5117 45.6942C34.5117 51.8698 39.5167 56.8748 45.6923 56.8748C46.4409 56.8748 47.172 56.799 47.8798 56.657C42.7523 55.6401 38.8867 51.1192 38.8867 45.6942Z" fill="#D5DBE1"/>
<path d="M45.6975 58.333C38.7286 58.333 33.0586 52.663 33.0586 45.6941C33.0586 38.7252 38.7286 33.0552 45.6975 33.0552C52.6664 33.0552 58.3364 38.7252 58.3364 45.6941C58.3364 52.663 52.6664 58.333 45.6975 58.333ZM45.6975 35.9718C40.3366 35.9718 35.9753 40.3332 35.9753 45.6941C35.9753 51.0549 40.3366 55.4163 45.6975 55.4163C51.0583 55.4163 55.4197 51.0549 55.4197 45.6941C55.4197 40.3332 51.0583 35.9718 45.6975 35.9718Z" fill="black"/>
<path d="M44.2383 40.3472H47.1549V51.0416H44.2383V40.3472Z" fill="black"/>
<path d="M40.3477 44.2358H51.0421V47.1525H40.3477V44.2358Z" fill="black"/>
<path d="M29.7707 42.7776H17.0152C14.0655 42.7776 11.668 40.3782 11.668 37.4304V17.0137C11.668 14.064 14.0655 11.6665 17.0152 11.6665H52.9874C55.9371 11.6665 58.3346 14.064 58.3346 17.0137V33.5415H55.418V17.0137C55.418 15.674 54.3271 14.5832 52.9874 14.5832H17.0152C15.6755 14.5832 14.5846 15.6721 14.5846 17.0137V37.4304C14.5846 38.7701 15.6755 39.8609 17.0152 39.8609H29.7707V42.7776Z" fill="black"/>
<path d="M35.0013 33.0553C31.7852 33.0553 29.168 30.4381 29.168 27.222C29.168 24.0059 31.7852 21.3887 35.0013 21.3887C38.2174 21.3887 40.8346 24.0059 40.8346 27.222C40.8346 30.4381 38.2174 33.0553 35.0013 33.0553ZM35.0013 24.3053C33.3932 24.3053 32.0846 25.6139 32.0846 27.222C32.0846 28.8301 33.3932 30.1387 35.0013 30.1387C36.6094 30.1387 37.918 28.8301 37.918 27.222C37.918 25.6139 36.6094 24.3053 35.0013 24.3053Z" fill="black"/>
<path d="M18.9609 17.5H23.822V20.4167H18.9609V17.5Z" fill="black"/>
</svg>
