<svg width="70" height="70" viewBox="0 0 70 70" fill="none" xmlns="http://www.w3.org/2000/svg">
<path d="M16.2889 61.8977C29.7386 61.8977 38.9747 68.8646 45.4555 68.8646C51.9364 68.8646 65.5475 65.1391 65.5475 35.3249C65.5475 5.51073 47.2367 1.13379 40.1083 1.13379C6.72805 1.13379 -7.53057 61.8977 16.2889 61.8977Z" fill="#EFEFEF"/>
<path d="M29.446 66.8343C27.8379 66.8343 26.5293 65.5257 26.5293 63.9176C26.5293 62.3096 27.8379 61.001 29.446 61.001C31.054 61.001 32.3626 62.3096 32.3626 63.9176C32.3626 65.5257 31.054 66.8343 29.446 66.8343ZM29.446 62.9454C28.9093 62.9454 28.4737 63.3829 28.4737 63.9176C28.4737 64.4524 28.9093 64.8899 29.446 64.8899C29.9826 64.8899 30.4182 64.4524 30.4182 63.9176C30.4182 63.3829 29.9807 62.9454 29.446 62.9454Z" fill="#A4AFC1"/>
<path d="M11.1816 7.42432L12.5566 6.04939L15.3064 8.79925L13.9315 10.1742L11.1816 7.42432Z" fill="#A4AFC1"/>
<path d="M19.0879 15.3306L20.4628 13.9556L23.2127 16.7055L21.8378 18.0804L19.0879 15.3306Z" fill="#A4AFC1"/>
<path d="M10.8398 16.7051L13.5897 13.9552L14.9646 15.3301L12.2148 18.08L10.8398 16.7051Z" fill="#A4AFC1"/>
<path d="M18.7461 8.80225L21.496 6.05239L22.8709 7.42732L20.121 10.1772L18.7461 8.80225Z" fill="#A4AFC1"/>
<path d="M35.0009 17.9861C36.3432 17.9861 37.4314 16.8979 37.4314 15.5556C37.4314 14.2132 36.3432 13.125 35.0009 13.125C33.6585 13.125 32.5703 14.2132 32.5703 15.5556C32.5703 16.8979 33.6585 17.9861 35.0009 17.9861Z" fill="#F3F3F1"/>
<path d="M28.6797 27.7083V26.7361C28.6797 24.5874 30.42 22.8472 32.5686 22.8472H37.4297C39.5783 22.8472 41.3186 24.5874 41.3186 26.7361V27.7083H28.6797Z" fill="#FEB46D"/>
<path d="M36.4575 22.8472H32.5686C30.42 22.8472 28.6797 24.5874 28.6797 26.7361V27.7083H32.5686V26.7361C32.5686 24.5874 34.3089 22.8472 36.4575 22.8472Z" fill="#FF6600"/>
<path d="M35.0002 19.4443C32.8555 19.4443 31.1113 17.7001 31.1113 15.5554C31.1113 13.4107 32.8555 11.6665 35.0002 11.6665C37.1449 11.6665 38.8891 13.4107 38.8891 15.5554C38.8891 17.7001 37.1449 19.4443 35.0002 19.4443ZM35.0002 14.5832C34.4636 14.5832 34.028 15.0187 34.028 15.5554C34.028 16.0921 34.4636 16.5276 35.0002 16.5276C35.5369 16.5276 35.9724 16.0921 35.9724 15.5554C35.9724 15.0187 35.5369 14.5832 35.0002 14.5832Z" fill="black"/>
<path d="M42.7782 27.7081H39.8615V26.7359C39.8615 25.3962 38.7707 24.3053 37.431 24.3053H32.5699C31.2302 24.3053 30.1393 25.3962 30.1393 26.7359V27.7081H27.2227V26.7359C27.2227 23.7862 29.6202 21.3887 32.5699 21.3887H37.431C40.3807 21.3887 42.7782 23.7862 42.7782 26.7359V27.7081Z" fill="black"/>
<path d="M55.9032 39.375H52.9865V37.9167H17.0143V39.375H14.0977V36.4583C14.0977 35.6533 14.751 35 15.556 35H54.4449C55.2499 35 55.9032 35.6533 55.9032 36.4583V39.375Z" fill="black"/>
<path d="M33.541 30.625H36.4577V39.375H33.541V30.625Z" fill="black"/>
<path d="M52.9863 53.9585H55.903V58.3335H52.9863V53.9585Z" fill="black"/>
<path d="M52.9863 42.7778H55.903V47.1528H52.9863V42.7778Z" fill="black"/>
<path d="M54.6866 56.3888H50.5547V53.4722H54.6866C55.0891 53.4722 55.4158 53.1455 55.4158 52.743C55.4158 52.3405 55.0891 52.0138 54.6866 52.0138H54.2005C52.19 52.0138 50.5547 50.3786 50.5547 48.368C50.5547 46.3574 52.19 44.7222 54.2005 44.7222H58.3325V47.6388H54.2005C53.798 47.6388 53.4714 47.9655 53.4714 48.368C53.4714 48.7705 53.798 49.0972 54.2005 49.0972H54.6866C56.6972 49.0972 58.3325 50.7324 58.3325 52.743C58.3325 54.7536 56.6972 56.3888 54.6866 56.3888Z" fill="black"/>
<path d="M33.541 53.9585H36.4577V58.3335H33.541V53.9585Z" fill="black"/>
<path d="M33.541 42.7778H36.4577V47.1528H33.541V42.7778Z" fill="black"/>
<path d="M35.2433 56.3888H31.1113V53.4722H35.2433C35.6458 53.4722 35.9724 53.1455 35.9724 52.743C35.9724 52.3405 35.6458 52.0138 35.2433 52.0138H34.7572C32.7466 52.0138 31.1113 50.3786 31.1113 48.368C31.1113 46.3574 32.7466 44.7222 34.7572 44.7222H38.8891V47.6388H34.7572C34.3547 47.6388 34.028 47.9655 34.028 48.368C34.028 48.7705 34.3547 49.0972 34.7572 49.0972H35.2433C37.2538 49.0972 38.8891 50.7324 38.8891 52.743C38.8891 54.7536 37.2538 56.3888 35.2433 56.3888Z" fill="black"/>
<path d="M33.541 53.9585H36.4577V58.3335H33.541V53.9585Z" fill="black"/>
<path d="M33.541 42.7778H36.4577V47.1528H33.541V42.7778Z" fill="black"/>
<path d="M35.2433 56.3888H31.1113V53.4722H35.2433C35.6458 53.4722 35.9724 53.1455 35.9724 52.743C35.9724 52.3405 35.6458 52.0138 35.2433 52.0138H34.7572C32.7466 52.0138 31.1113 50.3786 31.1113 48.368C31.1113 46.3574 32.7466 44.7222 34.7572 44.7222H38.8891V47.6388H34.7572C34.3547 47.6388 34.028 47.9655 34.028 48.368C34.028 48.7705 34.3547 49.0972 34.7572 49.0972H35.2433C37.2538 49.0972 38.8891 50.7324 38.8891 52.743C38.8891 54.7536 37.2538 56.3888 35.2433 56.3888Z" fill="black"/>
<path d="M14.0977 53.9585H17.0143V58.3335H14.0977V53.9585Z" fill="black"/>
<path d="M14.0977 42.7778H17.0143V47.1528H14.0977V42.7778Z" fill="black"/>
<path d="M15.798 56.3888H11.666V53.4722H15.798C16.2005 53.4722 16.5271 53.1455 16.5271 52.743C16.5271 52.3405 16.2005 52.0138 15.798 52.0138H15.3118C13.3013 52.0138 11.666 50.3786 11.666 48.368C11.666 46.3574 13.3013 44.7222 15.3118 44.7222H19.4438V47.6388H15.3118C14.9093 47.6388 14.5827 47.9655 14.5827 48.368C14.5827 48.7705 14.9093 49.0972 15.3118 49.0972H15.798C17.8085 49.0972 19.4438 50.7324 19.4438 52.743C19.4438 54.7536 17.8085 56.3888 15.798 56.3888Z" fill="black"/>
</svg>
