<svg width="65" height="66" viewBox="0 0 65 66" fill="none" xmlns="http://www.w3.org/2000/svg">
<g clip-path="url(#clip0_4252_4568)">
<path d="M57.4763 50.3749C57.4763 37.8859 63.9457 29.3095 63.9457 23.2916C63.9457 17.2737 60.4862 4.63477 32.8016 4.63477C5.11704 4.63477 1.05273 21.6377 1.05273 28.2568C1.05273 59.2528 57.4763 72.493 57.4763 50.3749Z" fill="#EFEFEF"/>
<path d="M62.2918 18.5556C60.7986 18.5556 59.5835 17.3404 59.5835 15.8472C59.5835 14.3541 60.7986 13.1389 62.2918 13.1389C63.785 13.1389 65.0002 14.3541 65.0002 15.8472C65.0002 17.3404 63.785 18.5556 62.2918 18.5556ZM62.2918 14.9445C61.7953 14.9445 61.3891 15.3507 61.3891 15.8472C61.3891 16.3438 61.7953 16.75 62.2918 16.75C62.7884 16.75 63.1946 16.3438 63.1946 15.8472C63.1946 15.3507 62.7884 14.9445 62.2918 14.9445Z" fill="#A4AFC1"/>
<path d="M49.2014 51.5069H15.7986C13.8035 51.5069 12.1875 49.891 12.1875 47.8958V20.8125H52.8125V47.8958C52.8125 49.891 51.1965 51.5069 49.2014 51.5069Z" fill="white"/>
<path d="M12.1875 20.8126H52.8125V18.1043C52.8125 16.1091 51.1965 14.4932 49.2014 14.4932H15.7986C13.8035 14.4932 12.1875 16.1091 12.1875 18.1043V20.8126Z" fill="#FEB46D"/>
<path d="M19.8611 14.4932H15.7986C13.8035 14.4932 12.1875 16.1091 12.1875 18.1043V20.8126H16.25V18.1043C16.25 16.1091 17.866 14.4932 19.8611 14.4932Z" fill="#FF6600"/>
<path d="M16.25 47.8958V20.8125H12.1875V47.8958C12.1875 49.891 13.8035 51.5069 15.7986 51.5069H19.8611C17.866 51.5069 16.25 49.891 16.25 47.8958Z" fill="#D5DBE1"/>
<path d="M27.0836 42.0277H24.3752V34.8054C24.3752 34.3089 23.969 33.9027 23.4724 33.9027C22.9759 33.9027 22.5697 34.3089 22.5697 34.8054V42.0277H19.8613V34.8054C19.8613 32.8139 21.4809 31.1943 23.4724 31.1943C25.464 31.1943 27.0836 32.8139 27.0836 34.8054V42.0277Z" fill="black"/>
<path d="M21.2153 35.7083H25.7292V38.4166H21.2153V35.7083Z" fill="black"/>
<path d="M41.5278 31.1943H44.2362V42.0277H41.5278V31.1943Z" fill="black"/>
<path d="M33.4027 42.0277H30.6943V32.5485C30.6943 31.801 31.301 31.1943 32.0485 31.1943H34.3054C36.297 31.1943 37.9166 32.8139 37.9166 34.8054C37.9166 36.797 36.297 38.4166 34.3054 38.4166H33.4027V42.0277ZM33.4027 35.7082H34.3054C34.802 35.7082 35.2082 35.302 35.2082 34.8054C35.2082 34.3089 34.802 33.9027 34.3054 33.9027H33.4027V35.7082Z" fill="black"/>
<path d="M49.2016 52.8611H15.7988C13.0597 52.8611 10.8335 50.6349 10.8335 47.8959V18.1042C10.8335 15.3652 13.0597 13.1389 15.7988 13.1389H49.2016C51.9406 13.1389 54.1668 15.3652 54.1668 18.1042V47.8959C54.1668 50.6349 51.9406 52.8611 49.2016 52.8611ZM15.7988 15.8472C14.5547 15.8472 13.5418 16.8602 13.5418 18.1042V47.8959C13.5418 49.1399 14.5547 50.1528 15.7988 50.1528H49.2016C50.4456 50.1528 51.4585 49.1399 51.4585 47.8959V18.1042C51.4585 16.8602 50.4456 15.8472 49.2016 15.8472H15.7988Z" fill="black"/>
<path d="M12.1875 19.4583H52.8125V22.1666H12.1875V19.4583Z" fill="black"/>
</g>
<defs>
<clipPath id="clip0_4252_4568">
<rect width="65" height="65" fill="white" transform="translate(0 0.5)"/>
</clipPath>
</defs>
</svg>
