<svg width="44" height="44" viewBox="0 0 44 44" fill="none" xmlns="http://www.w3.org/2000/svg">
<g clip-path="url(#clip0_3903_39127)">
<path d="M4.20706 29.1904C11.6149 33.2641 14.5923 39.8983 18.1612 41.8612C21.7313 43.8241 30.3565 45.8933 39.3863 29.4715C48.4161 13.0498 39.6564 5.09432 35.7294 2.93465C17.3447 -7.17313 -8.91228 21.9769 4.20706 29.1904Z" fill="#F5F8FB"/>
<path d="M39.2952 6.62687C38.2845 6.62687 37.4619 5.80432 37.4619 4.79354C37.4619 3.78276 38.2845 2.96021 39.2952 2.96021C40.306 2.96021 41.1286 3.78276 41.1286 4.79354C41.1286 5.80432 40.3072 6.62687 39.2952 6.62687ZM39.2952 4.18243C38.9579 4.18243 38.6841 4.45743 38.6841 4.79354C38.6841 5.12965 38.9579 5.40465 39.2952 5.40465C39.6326 5.40465 39.9064 5.12965 39.9064 4.79354C39.9064 4.45743 39.6326 4.18243 39.2952 4.18243Z" fill="#A4AFC1"/>
<path d="M33 35.75C34.5188 35.75 35.75 34.5188 35.75 33C35.75 31.4812 34.5188 30.25 33 30.25C31.4812 30.25 30.25 31.4812 30.25 33C30.25 34.5188 31.4812 35.75 33 35.75Z" fill="#FEB46D"/>
<path d="M16.1948 29.6387H14.3614C13.0109 29.6387 11.917 28.5448 11.917 27.1943V14.3609C11.917 13.0104 13.0109 11.9165 14.3614 11.9165H27.1948C28.5453 11.9165 29.6392 13.0104 29.6392 14.3609V29.6387H16.1948Z" fill="white"/>
<path d="M19.8608 25.9724H16.8052C16.1306 25.9724 15.583 25.4248 15.583 24.7502V16.8057C15.583 16.1311 16.1306 15.5835 16.8052 15.5835H20.577C20.9009 15.5835 21.2126 15.7118 21.4411 15.9416L25.6138 20.1143C25.8436 20.3441 25.9719 20.6545 25.9719 20.9784V24.7502C25.9719 25.4248 25.4243 25.9724 24.7497 25.9724H19.8608Z" fill="#FEB46D"/>
<path d="M16.8059 29.6387H14.3614C13.017 29.6387 11.917 28.5387 11.917 27.1943V14.3609C11.917 13.0165 13.017 11.9165 14.3614 11.9165H16.8059C15.4614 11.9165 14.3614 13.0165 14.3614 14.3609V27.1943C14.3614 28.5387 15.4614 29.6387 16.8059 29.6387Z" fill="#D5DBE1"/>
<path d="M19.2497 25.9724H16.8052C16.133 25.9724 15.583 25.4224 15.583 24.7502V16.8057C15.583 16.1335 16.133 15.5835 16.8052 15.5835H19.2497C18.5775 15.5835 18.0275 16.1335 18.0275 16.8057V24.7502C18.0275 25.4224 18.5775 25.9724 19.2497 25.9724Z" fill="#FF6600"/>
<path d="M34.0633 35.53C33.7333 35.6767 33.3789 35.75 33 35.75C31.4844 35.75 30.25 34.5156 30.25 33C30.25 31.4844 31.4844 30.25 33 30.25C33.3789 30.25 33.7333 30.3233 34.0633 30.47C33.0733 30.8978 32.3889 31.8633 32.3889 33C32.3889 34.1367 33.0733 35.1022 34.0633 35.53Z" fill="#FF6600"/>
<path d="M32.9997 36.6668C30.9781 36.6668 29.333 35.0217 29.333 33.0002C29.333 30.9786 30.9781 29.3335 32.9997 29.3335C35.0212 29.3335 36.6663 30.9786 36.6663 33.0002C36.6663 35.0217 35.0212 36.6668 32.9997 36.6668ZM32.9997 31.1668C31.9889 31.1668 31.1663 31.9894 31.1663 33.0002C31.1663 34.0109 31.9889 34.8335 32.9997 34.8335C34.0105 34.8335 34.833 34.0109 34.833 33.0002C34.833 31.9894 34.0105 31.1668 32.9997 31.1668Z" fill="black"/>
<path d="M22.6107 35.7502H20.7773V33.6113C20.7773 32.7692 21.463 32.0835 22.3051 32.0835H30.8607V33.9168H22.6107V35.7502Z" fill="black"/>
<path d="M23.2227 32.0835H25.056V35.7502H23.2227V32.0835Z" fill="black"/>
<path d="M18.6389 30.5556H14.3611C12.507 30.5556 11 29.0486 11 27.1944V14.3611C11 12.507 12.507 11 14.3611 11H27.1944C29.0486 11 30.5556 12.507 30.5556 14.3611V25.9734H28.7222V14.3611C28.7222 13.519 28.0366 12.8333 27.1944 12.8333H14.3611C13.519 12.8333 12.8333 13.519 12.8333 14.3611V27.1944C12.8333 28.0366 13.519 28.7222 14.3611 28.7222H18.6389V30.5556Z" fill="black"/>
<path d="M24.7503 26.8887H16.8059C15.6264 26.8887 14.667 25.9293 14.667 24.7498V16.8054C14.667 15.6259 15.6264 14.6665 16.8059 14.6665H20.5777C21.1484 14.6665 21.6862 14.8889 22.0895 15.2935L26.2622 19.4662C26.6607 19.8646 26.8892 20.4146 26.8892 20.9781V24.7498C26.8892 25.9293 25.9298 26.8887 24.7503 26.8887ZM16.8059 16.4998C16.6372 16.4998 16.5003 16.6367 16.5003 16.8054V24.7498C16.5003 24.9185 16.6372 25.0554 16.8059 25.0554H24.7503C24.919 25.0554 25.0559 24.9185 25.0559 24.7498V20.9781C25.0559 20.8986 25.0229 20.8192 24.9667 20.7617L20.794 16.5891C20.7365 16.5316 20.6583 16.4998 20.5777 16.4998H16.8059Z" fill="black"/>
<path d="M14.667 29.9443H16.5003V33.3054H14.667V29.9443Z" fill="black"/>
<path d="M19.8613 8.25H21.6947V11.6111H19.8613V8.25Z" fill="black"/>
<path d="M14.667 8.25H16.5003V11.6111H14.667V8.25Z" fill="black"/>
<path d="M25.0557 8.25H26.889V11.6111H25.0557V8.25Z" fill="black"/>
<path d="M8.25 19.8611H11.6111V21.6944H8.25V19.8611Z" fill="black"/>
<path d="M8.25 14.6667H11.6111V16.5001H8.25V14.6667Z" fill="black"/>
<path d="M8.25 25.0557H11.6111V26.889H8.25V25.0557Z" fill="black"/>
<path d="M29.9443 19.8611H33.3054V21.6944H29.9443V19.8611Z" fill="black"/>
<path d="M29.9443 14.6667H33.3054V16.5001H29.9443V14.6667Z" fill="black"/>
</g>
<defs>
<clipPath id="clip0_3903_39127">
<rect width="44" height="44" fill="white"/>
</clipPath>
</defs>
</svg>
