<svg width="70" height="70" viewBox="0 0 70 70" fill="none" xmlns="http://www.w3.org/2000/svg">
<path d="M52.4631 7.61067C39.0154 7.8615 29.6509 1.06761 23.1701 1.19011C16.6893 1.31261 3.15009 5.29095 3.70814 35.1012C4.2662 64.9115 22.6548 68.9423 29.7831 68.8101C63.1576 68.186 76.2767 7.16539 52.4631 7.61067Z" fill="#EFEFEF"/>
<path d="M45.7917 66.0838C44.1836 66.0838 42.875 64.7752 42.875 63.1672C42.875 61.5591 44.1836 60.2505 45.7917 60.2505C47.3997 60.2505 48.7083 61.5591 48.7083 63.1672C48.7083 64.7752 47.3997 66.0838 45.7917 66.0838ZM45.7917 62.1949C45.2569 62.1949 44.8194 62.6305 44.8194 63.1672C44.8194 63.7038 45.2569 64.1394 45.7917 64.1394C46.3264 64.1394 46.7639 63.7038 46.7639 63.1672C46.7639 62.6305 46.3264 62.1949 45.7917 62.1949Z" fill="#A4AFC1"/>
<path d="M10.4961 3.71387H12.4405V7.60276H10.4961V3.71387Z" fill="#A4AFC1"/>
<path d="M10.4961 14.8945H12.4405V18.7834H10.4961V14.8945Z" fill="#A4AFC1"/>
<path d="M3.69141 10.0332H7.58029V11.9776H3.69141V10.0332Z" fill="#A4AFC1"/>
<path d="M14.8711 10.0332H18.76V11.9776H14.8711V10.0332Z" fill="#A4AFC1"/>
<path d="M31.5985 35.4863H27.4666C25.9907 35.4863 24.793 36.6841 24.793 38.1599C24.793 39.6358 25.9907 40.8336 27.4666 40.8336H28.9249C30.4007 40.8336 31.5985 42.0313 31.5985 43.5072C31.5985 44.983 30.4007 46.1808 28.9249 46.1808H24.793L31.5985 35.4863Z" fill="#FEB46D"/>
<path d="M47.6406 25.7637C50.0569 25.7637 52.0156 23.8049 52.0156 21.3887C52.0156 18.9724 50.0569 17.0137 47.6406 17.0137C45.2244 17.0137 43.2656 18.9724 43.2656 21.3887C43.2656 23.8049 45.2244 25.7637 47.6406 25.7637Z" fill="#F3F3F1"/>
<path d="M39.2897 43.1159L42.852 45.8946C43.2234 46.1843 43.3245 46.7034 43.0892 47.1098L41.0767 50.5962C40.8414 51.0026 40.3436 51.1757 39.9081 51.0007L35.6847 49.3051C34.5706 50.3046 33.2309 51.0979 31.7784 51.5704L31.1386 56.0621C31.0725 56.5268 30.6739 56.8729 30.2053 56.8729H26.1803C25.7097 56.8729 25.3131 56.5268 25.247 56.0621L24.6072 51.5704C23.1353 51.0979 21.815 50.3065 20.6814 49.3051L16.4775 50.9987C16.042 51.1737 15.5422 51.0026 15.307 50.5943L13.2945 47.1059C13.0592 46.6996 13.1603 46.1823 13.5297 45.8926L17.0939 43.0946C16.9442 42.3615 16.8684 41.6071 16.8684 40.8332C16.8684 40.0593 16.9442 39.3048 17.0939 38.5679V38.5484L13.5317 35.7698C13.1603 35.4801 13.0592 34.9609 13.2945 34.5546L15.307 31.0682C15.5422 30.6618 16.04 30.4887 16.4756 30.6637L20.6989 32.3593C21.8131 31.3598 23.1528 30.5665 24.6053 30.094L25.245 25.6023C25.3111 25.1376 25.7097 24.7915 26.1784 24.7915H30.2034C30.6739 24.7915 31.0706 25.1376 31.1367 25.6023L31.7764 30.094C33.2484 30.5665 34.5686 31.3579 35.7022 32.3593L39.9061 30.6657C40.3417 30.4907 40.8414 30.6618 41.0767 31.0701L43.0892 34.5584C43.3245 34.9648 43.2234 35.4821 42.8539 35.7718L39.2897 38.5698C39.4414 39.3068 39.5153 40.0612 39.5153 40.8351C39.5153 41.609 39.4395 42.3634 39.2897 43.1004V43.1159Z" fill="#FEB46D"/>
<path d="M24.5902 32.3593C25.7044 31.3598 27.0441 30.5665 28.4966 30.094L29.1363 25.6023C29.2024 25.1376 29.6011 24.7915 30.0697 24.7915H26.1808C25.7102 24.7915 25.3136 25.1376 25.2474 25.6023L24.6077 30.094C23.6997 30.3896 22.8441 30.8212 22.0508 31.3384L24.5902 32.3593Z" fill="#FF6600"/>
<path d="M39.5955 32.3597L41.4038 31.6305L41.0791 31.0686C40.8438 30.6622 40.3441 30.4891 39.9085 30.6641L38.2344 31.3389C38.7127 31.65 39.1716 31.9844 39.5955 32.3597Z" fill="#FF6600"/>
<path d="M17.1872 47.1102C16.9519 46.7039 17.053 46.1866 17.4224 45.8969L20.9866 43.0989C20.8349 42.3619 20.7611 41.6075 20.7611 40.8336C20.7611 40.0597 20.8369 39.3052 20.9866 38.5683V38.5489L17.4244 35.7702C17.053 35.4805 16.9519 34.9614 17.1872 34.555L18.8769 31.6266L16.4794 30.6641C16.0438 30.4891 15.5461 30.6622 15.3108 31.0686L13.2983 34.555C13.063 34.9633 13.1641 35.4805 13.5355 35.7702L17.0977 38.5489V38.5683C16.9461 39.3052 16.8702 40.0597 16.8702 40.8336C16.8702 41.6075 16.9461 42.3619 17.0958 43.0989L13.5336 45.895C13.1641 46.1847 13.0649 46.7019 13.2983 47.1083L15.3108 50.5966C15.5461 51.003 16.0458 51.1761 16.4813 51.0011L18.8769 50.0366L17.1872 47.1102Z" fill="#FF6600"/>
<path d="M39.576 49.3071C39.158 49.6824 38.701 50.0169 38.2266 50.326L39.9104 51.0027C40.346 51.1777 40.8438 51.0046 41.0791 50.5982L41.4018 50.0402L39.576 49.3071Z" fill="#FF6600"/>
<path d="M29.1382 56.0641L28.4985 51.5724C27.0266 51.0999 25.7063 50.3085 24.5727 49.3071L22.043 50.326C22.8363 50.8432 23.6899 51.2769 24.6096 51.5705L25.2494 56.0621C25.3155 56.5269 25.7141 56.873 26.1827 56.873H30.0716C29.603 56.8749 29.2044 56.5288 29.1382 56.0641Z" fill="#FF6600"/>
<path d="M47.1545 21.3887C47.1545 19.6756 48.1501 18.2056 49.5851 17.4881C48.9978 17.1945 48.3426 17.0137 47.6406 17.0137C45.2237 17.0137 43.2656 18.9717 43.2656 21.3887C43.2656 23.8056 45.2237 25.7637 47.6406 25.7637C48.3426 25.7637 48.9978 25.5828 49.5851 25.2892C48.1501 24.5717 47.1545 23.1017 47.1545 21.3887Z" fill="#D5DBE1"/>
<path d="M28.9223 47.6389H23.332V44.7223H28.9223C29.5931 44.7223 30.1376 44.1778 30.1376 43.507C30.1376 42.8362 29.5931 42.2917 28.9223 42.2917H27.464C25.1851 42.2917 23.332 40.4387 23.332 38.1598C23.332 35.8809 25.1851 34.0278 27.464 34.0278H33.0543V36.9445H27.464C26.7931 36.9445 26.2487 37.4889 26.2487 38.1598C26.2487 38.8306 26.7931 39.3751 27.464 39.3751H28.9223C31.2012 39.3751 33.0543 41.2281 33.0543 43.507C33.0543 45.7859 31.2012 47.6389 28.9223 47.6389Z" fill="black"/>
<path d="M26.7344 44.7222H29.651V50.5555H26.7344V44.7222Z" fill="black"/>
<path d="M26.7344 31.1113H29.651V36.9447H26.7344V31.1113Z" fill="black"/>
<path d="M47.638 27.2223C44.4219 27.2223 41.8047 24.6051 41.8047 21.389C41.8047 18.1729 44.4219 15.5557 47.638 15.5557C50.8541 15.5557 53.4714 18.1729 53.4714 21.389C53.4714 24.6051 50.8541 27.2223 47.638 27.2223ZM47.638 18.4723C46.03 18.4723 44.7214 19.7809 44.7214 21.389C44.7214 22.9971 46.03 24.3057 47.638 24.3057C49.2461 24.3057 50.5547 22.9971 50.5547 21.389C50.5547 19.7809 49.2461 18.4723 47.638 18.4723Z" fill="black"/>
<path d="M46.1797 24.3057H49.0964V31.1112H46.1797V24.3057Z" fill="black"/>
<path d="M46.1797 11.6665H49.0964V18.4721H46.1797V11.6665Z" fill="black"/>
<path d="M49.4453 18.7104L55.3339 15.3106L56.7922 17.8364L50.9036 21.2363L49.4453 18.7104Z" fill="black"/>
<path d="M38.4883 25.0063L44.3768 21.6065L45.8352 24.1323L39.9466 27.5322L38.4883 25.0063Z" fill="black"/>
<path d="M38.5078 17.7886L39.9691 15.2627L45.8576 18.6694L44.3964 21.1952L38.5078 17.7886Z" fill="black"/>
<path d="M49.4648 24.0859L50.9261 21.5601L56.8147 24.9668L55.3534 27.4926L49.4648 24.0859Z" fill="black"/>
<path d="M30.2079 58.3335H26.1829C24.9967 58.3335 23.972 57.4468 23.8048 56.2704L23.2876 52.6402C22.2784 52.2279 21.3217 51.6718 20.4234 50.9835L17.0245 52.3543C15.9142 52.8015 14.6367 52.3543 14.0456 51.3238L12.0351 47.8393C11.4381 46.8107 11.6967 45.4827 12.6359 44.7477L15.5176 42.4843C15.4476 41.9438 15.4145 41.3916 15.4145 40.8335C15.4145 40.2696 15.4515 39.7135 15.5215 39.169L12.6398 36.9213C11.7026 36.1882 11.444 34.8563 12.037 33.8277L14.0476 30.3413C14.6426 29.3127 15.922 28.8713 17.0206 29.3107L20.437 30.6835C21.314 30.0068 22.2784 29.4488 23.2876 29.0307L23.8048 25.3985C23.972 24.2202 24.9948 23.3335 26.1829 23.3335H30.2079C31.394 23.3335 32.4187 24.2202 32.5859 25.3966L33.1031 29.0249C34.1123 29.4391 35.0709 29.9932 35.9673 30.6835L37.3498 30.1254L38.4406 32.8321L36.2551 33.7129C35.7398 33.9152 35.1604 33.8199 34.7462 33.4543C33.7098 32.5404 32.5645 31.8774 31.3395 31.4846C30.8067 31.3135 30.4179 30.8546 30.3401 30.3004L29.7626 26.2502H26.6301L26.0545 30.3004C25.9767 30.8527 25.5917 31.3116 25.0609 31.4827C23.834 31.8813 22.6654 32.5599 21.6776 33.4446C21.2654 33.8179 20.6704 33.9229 20.1609 33.7129L16.3537 32.1846L14.7884 34.8991L17.9948 37.4016C18.3506 37.6777 18.5567 38.1016 18.5567 38.5507C18.5567 38.6499 18.547 38.7666 18.5256 38.8657C18.3973 39.4938 18.3312 40.1549 18.3312 40.8335C18.3312 41.5121 18.3973 42.1732 18.5276 42.8032C18.6404 43.3457 18.4342 43.9038 18.0006 44.246L14.7884 46.7679L16.3537 49.4824L20.1415 47.956C20.6529 47.7518 21.2342 47.8491 21.6504 48.2146C22.6867 49.1304 23.834 49.7935 25.057 50.1843C25.5898 50.3554 25.9787 50.8143 26.0565 51.3685L26.632 55.4188H29.7645L30.3401 51.3685C30.4179 50.8163 30.8029 50.3574 31.3337 50.1863C32.5587 49.7877 33.7292 49.1091 34.717 48.2243C35.1331 47.8529 35.7262 47.7499 36.2337 47.956L40.0409 49.4843L41.6062 46.7699L38.3998 44.2674C38.044 43.9913 37.8379 43.5674 37.8379 43.1182C37.8379 43.0191 37.8476 42.9024 37.869 42.8032C37.9973 42.1732 38.0654 41.5121 38.0654 40.8335C38.0654 40.1549 37.9992 39.4938 37.869 38.8638C37.7562 38.3213 37.9623 37.7632 38.3959 37.421L41.6081 34.8991L40.0429 32.1846L39.7045 32.3207L38.6137 29.6141L39.3662 29.3107C40.4765 28.8654 41.754 29.3088 42.3451 30.3413L44.3556 33.8257C44.9526 34.8543 44.694 36.1824 43.7548 36.9174L40.8731 39.1807C40.9431 39.7213 40.9781 40.2735 40.9781 40.8316C40.9781 41.3954 40.9412 41.9516 40.8712 42.496L43.7509 44.7438C44.6881 45.4768 44.9467 46.8088 44.3537 47.8374L42.3431 51.3238C41.7481 52.3524 40.4687 52.7938 39.3701 52.3543L35.9517 50.9816C35.0767 51.6582 34.1123 52.2163 33.1031 52.6343L32.5859 56.2666C32.4187 57.4468 31.3959 58.3335 30.2079 58.3335Z" fill="black"/>
</svg>
