<svg width="70" height="70" viewBox="0 0 70 70" fill="none" xmlns="http://www.w3.org/2000/svg">
<path d="M8.10366 53.7113C8.10366 40.2615 1.13672 31.0254 1.13672 24.5446C1.13672 18.0637 4.86227 4.45264 34.6764 4.45264C64.4906 4.45264 68.8656 22.7635 68.8656 29.8918C68.8676 63.2721 8.10366 77.5307 8.10366 53.7113Z" fill="#EFEFEF"/>
<path d="M32.5709 15.0693H37.432C38.5015 15.0693 39.3765 15.9443 39.3765 17.0138V27.436L48.3987 22.2249C49.3126 21.6804 50.5181 21.9916 51.0431 22.9249L53.4737 27.1443C54.0181 28.0777 53.6876 29.2638 52.7737 29.7888L43.7515 34.9999L52.7737 40.211C53.6876 40.736 54.0181 41.9221 53.4737 42.8555L51.0431 47.0749C50.5181 48.0082 49.3126 48.3193 48.3987 47.7749L39.3765 42.5638V52.986C39.3765 54.0555 38.5015 54.9305 37.432 54.9305H32.5709C31.5015 54.9305 30.6265 54.0555 30.6265 52.986V42.5638L21.6042 47.7749C20.6904 48.3193 19.4848 48.0082 18.9598 47.0749L16.5292 42.8555C15.9848 41.9221 16.3154 40.736 17.2292 40.211L26.2515 34.9999L17.2292 29.7888C16.3154 29.2638 15.9848 28.0777 16.5292 27.1443L18.9598 22.9249C19.4848 21.9916 20.6904 21.6804 21.6042 22.2249L30.6265 27.436V17.0138C30.6265 15.9443 31.5015 15.0693 32.5709 15.0693Z" fill="#FEB46D"/>
<path d="M35 27.436V17.0138C35 15.9443 35.875 15.0693 36.9444 15.0693H32.5694C31.5 15.0693 30.625 15.9443 30.625 17.0138V24.9082L35 27.436Z" fill="#FF6600"/>
<path d="M43.75 27.436L51.1719 23.1505L51.0417 22.9249C50.5167 21.9916 49.3111 21.6805 48.3972 22.2249L43.75 24.9083V27.436Z" fill="#FF6600"/>
<path d="M43.75 42.564V45.0917L48.3972 47.7751C49.3111 48.3195 50.5167 48.0084 51.0417 47.0751L51.1719 46.8495L43.75 42.564Z" fill="#FF6600"/>
<path d="M20.9042 42.8555C20.3598 41.9222 20.6904 40.736 21.6042 40.211L30.6265 34.9999L21.6042 29.7888C20.6904 29.2638 20.3598 28.0777 20.9042 27.1444L23.2045 23.1505L21.6042 22.2249C20.6904 21.6805 19.4848 21.9916 18.9598 22.9249L16.5292 27.1444C15.9848 28.0777 16.3154 29.2638 17.2292 29.7888L26.2515 34.9999L17.2292 40.211C16.3154 40.736 15.9848 41.9222 16.5292 42.8555L18.9598 47.0749C19.4848 48.0083 20.6904 48.3194 21.6042 47.7749L23.2045 46.8494L20.9042 42.8555Z" fill="#FF6600"/>
<path d="M35 52.9862V42.564L30.625 45.0917V52.9862C30.625 54.0556 31.5 54.9306 32.5694 54.9306H36.9444C35.875 54.9306 35 54.0556 35 52.9862Z" fill="#FF6600"/>
<path d="M52.4805 53.5215L53.8554 52.1466L56.6053 54.8964L55.2303 56.2713L52.4805 53.5215Z" fill="#A4AFC1"/>
<path d="M60.3789 61.4253L61.7538 60.0504L64.5037 62.8002L63.1288 64.1752L60.3789 61.4253Z" fill="#A4AFC1"/>
<path d="M52.1328 62.8003L54.8827 60.0504L56.2576 61.4254L53.5077 64.1752L52.1328 62.8003Z" fill="#A4AFC1"/>
<path d="M60.0391 54.8984L62.7889 52.1486L64.1639 53.5235L61.414 56.2734L60.0391 54.8984Z" fill="#A4AFC1"/>
<path d="M9.72135 14.097C8.1133 14.097 6.80469 12.7884 6.80469 11.1803C6.80469 9.57228 8.1133 8.26367 9.72135 8.26367C11.3294 8.26367 12.638 9.57228 12.638 11.1803C12.638 12.7884 11.3294 14.097 9.72135 14.097ZM9.72135 10.2081C9.18663 10.2081 8.74913 10.6456 8.74913 11.1803C8.74913 11.7151 9.18663 12.1526 9.72135 12.1526C10.2561 12.1526 10.6936 11.7151 10.6936 11.1803C10.6936 10.6456 10.2561 10.2081 9.72135 10.2081Z" fill="#A4AFC1"/>
<path d="M37.4287 56.3891H32.5675C30.6912 56.3891 29.1648 54.8627 29.1648 52.9863V45.0899L22.33 49.0372C21.5678 49.4883 20.6209 49.6166 19.7439 49.3852C18.8612 49.148 18.1281 48.5802 17.6828 47.7888L15.262 43.583C14.807 42.8052 14.6825 41.8874 14.9159 41.0086C15.1512 40.1316 15.7131 39.3986 16.4967 38.9455L23.3314 35.0002L16.4967 31.053C15.715 30.6038 15.1531 29.8708 14.9178 28.9919C14.6845 28.113 14.807 27.1952 15.2678 26.4097L17.6945 22.198C18.13 21.4202 18.8631 20.8524 19.7459 20.6152C20.6189 20.3819 21.5698 20.5083 22.3475 20.973L29.1648 24.9105V17.0141C29.1648 15.1377 30.6912 13.6113 32.5675 13.6113H37.4287C39.305 13.6113 40.8314 15.1377 40.8314 17.0141V24.9105L47.6662 20.9633C48.4245 20.5141 49.3734 20.3838 50.2484 20.6152C51.1331 20.8505 51.8642 21.4183 52.3114 22.2097L54.7342 26.4174C55.1892 27.1952 55.3137 28.113 55.0803 28.9919C54.845 29.8688 54.2831 30.6019 53.4995 31.0549L46.6648 35.0002L53.4995 38.9474C54.2812 39.3966 54.8431 40.1297 55.0784 41.0086C55.3117 41.8874 55.1892 42.8052 54.7284 43.5908L52.3017 47.8024C51.8623 48.5822 51.1312 49.1499 50.2464 49.3852C49.3734 49.6166 48.4225 49.4902 47.6487 49.0274L40.8314 45.0899V52.9863C40.8314 54.8627 39.305 56.3891 37.4287 56.3891ZM30.6231 41.1058C30.8759 41.1058 31.1267 41.1699 31.3523 41.3022C31.8034 41.5627 32.0814 42.0449 32.0814 42.5641V52.9863C32.0814 53.2508 32.3031 53.4724 32.5675 53.4724H37.4287C37.6931 53.4724 37.9148 53.2508 37.9148 52.9863V42.5641C37.9148 42.043 38.1928 41.5608 38.6439 41.3022C39.095 41.0397 39.6512 41.0397 40.1023 41.3022L49.1245 46.5152C49.282 46.6086 49.422 46.5872 49.4959 46.5697C49.5795 46.5463 49.6962 46.4938 49.77 46.3616L52.2084 42.1305C52.2939 41.9827 52.2842 41.8486 52.2589 41.763C52.2395 41.693 52.187 41.5608 52.0431 41.4791L43.0189 36.2661C42.5678 36.0035 42.2898 35.5213 42.2898 35.0002C42.2898 34.4791 42.5678 33.9969 43.0189 33.7383L52.0412 28.5272C52.187 28.4416 52.2414 28.3113 52.2589 28.2413C52.2842 28.1538 52.2939 28.0216 52.2123 27.8797L49.7778 23.6524C49.6962 23.5085 49.5795 23.4541 49.4959 23.4327C49.42 23.4152 49.28 23.3977 49.1381 23.4774L40.1023 28.7002C39.6512 28.9627 39.095 28.9627 38.6439 28.7002C38.1928 28.4397 37.9148 27.9574 37.9148 27.4383V17.0141C37.9148 16.7497 37.6931 16.528 37.4287 16.528H32.5675C32.3031 16.528 32.0814 16.7497 32.0814 17.0141V27.4363C32.0814 27.9574 31.8034 28.4397 31.3523 28.6983C30.9012 28.9608 30.345 28.9608 29.8939 28.6983L20.8717 23.4852C20.7103 23.3899 20.5684 23.4133 20.5003 23.4308C20.4167 23.4541 20.3 23.5066 20.2281 23.6369L17.7878 27.8699C17.7023 28.0177 17.712 28.1519 17.7373 28.2374C17.7567 28.3074 17.8092 28.4397 17.9531 28.5213L26.9773 33.7344C27.4284 33.9949 27.7064 34.4772 27.7064 34.9963C27.7064 35.5155 27.4284 35.9997 26.9773 36.2583L17.955 41.4694C17.8092 41.5549 17.7548 41.6852 17.7373 41.7552C17.712 41.8427 17.7023 41.9749 17.7839 42.1169L20.2184 46.3441C20.3 46.488 20.4167 46.5424 20.5003 46.5638C20.5684 46.5794 20.7123 46.6027 20.8581 46.5191L29.8939 41.2963C30.1195 41.1699 30.3703 41.1058 30.6231 41.1058Z" fill="black"/>
</svg>
