<svg width="65" height="66" viewBox="0 0 65 66" fill="none" xmlns="http://www.w3.org/2000/svg">
<path d="M7.52399 15.6251C7.52399 28.1141 1.05469 36.6905 1.05469 42.7084C1.05469 48.7264 4.51413 61.3652 32.1987 61.3652C59.8833 61.3652 63.9458 44.3623 63.9458 37.7432C63.9476 6.74719 7.52399 -6.49295 7.52399 15.6251Z" fill="#EFEFEF"/>
<path d="M58.6805 11.3334C57.1873 11.3334 55.9722 10.1183 55.9722 8.62508C55.9722 7.13189 57.1873 5.91675 58.6805 5.91675C60.1737 5.91675 61.3888 7.13189 61.3888 8.62508C61.3888 10.1183 60.1737 11.3334 58.6805 11.3334ZM58.6805 7.7223C58.184 7.7223 57.7777 8.12855 57.7777 8.62508C57.7777 9.12161 58.184 9.52786 58.6805 9.52786C59.177 9.52786 59.5833 9.12161 59.5833 8.62508C59.5833 8.12855 59.177 7.7223 58.6805 7.7223Z" fill="#A4AFC1"/>
<path d="M34.7569 12.6875H15.7986C13.8125 12.6875 12.1875 14.3125 12.1875 16.2986V44.2847C12.1875 46.2708 13.8125 47.8958 15.7986 47.8958H34.7569C36.7431 47.8958 38.3681 46.2708 38.3681 44.2847V16.2986C38.3681 14.3035 36.7521 12.6875 34.7569 12.6875Z" fill="white"/>
<path d="M17.604 43.3818H32.9512V53.3124H17.604V43.3818Z" fill="#FEB46D"/>
<path d="M42.4303 33.4514C48.1641 33.4514 52.8122 28.8032 52.8122 23.0694C52.8122 17.3357 48.1641 12.6875 42.4303 12.6875C36.6965 12.6875 32.0483 17.3357 32.0483 23.0694C32.0483 28.8032 36.6965 33.4514 42.4303 33.4514Z" fill="#FEB46D"/>
<path d="M43.9762 24.084H39.9414C39.4077 24.084 38.9746 23.6509 38.9746 23.1172V19.5723C38.9746 19.0386 39.4077 18.6055 39.9414 18.6055H43.9762C45.4831 18.6055 46.709 19.8314 46.709 21.3383C46.709 22.8581 45.4831 24.084 43.9762 24.084ZM40.9082 22.1504H43.9762C44.417 22.1504 44.7754 21.792 44.7754 21.3512C44.7754 20.8974 44.417 20.5391 43.9762 20.5391H40.9082V22.1504Z" fill="black"/>
<path d="M44.6207 27.6289H39.9414C39.4077 27.6289 38.9746 27.1958 38.9746 26.6621V23.1172C38.9746 22.5835 39.4077 22.1504 39.9414 22.1504H44.6207C46.1276 22.1504 47.3535 23.3763 47.3535 24.8832C47.3535 26.403 46.1276 27.6289 44.6207 27.6289ZM40.9082 25.6953H44.6207C45.0616 25.6953 45.4199 25.337 45.4199 24.8961C45.4199 24.4423 45.0616 24.084 44.6207 24.084H40.9082V25.6953Z" fill="black"/>
<path d="M40.2637 17.6387H42.1973V19.5723H40.2637V17.6387Z" fill="black"/>
<path d="M42.8418 17.6387H44.7754V19.5723H42.8418V17.6387Z" fill="black"/>
<path d="M42.8418 26.6621H44.7754V28.5957H42.8418V26.6621Z" fill="black"/>
<path d="M40.2637 26.6621H42.1973V28.5957H40.2637V26.6621Z" fill="black"/>
<path d="M31.0265 24.4237H19.4096C18.4129 24.4237 17.604 23.6148 17.604 22.6181V19.9098C17.604 18.9131 18.4129 18.1042 19.4096 18.1042H30.9633C31.9437 18.1042 32.7454 18.8861 32.7689 19.8665L32.8339 22.5748C32.8555 23.5895 32.0412 24.4237 31.0265 24.4237Z" fill="#FEB46D"/>
<path d="M16.25 44.2847V16.2986C16.25 14.3125 17.875 12.6875 19.8611 12.6875H15.7986C13.8125 12.6875 12.1875 14.3125 12.1875 16.2986V44.2847C12.1875 46.2708 13.8125 47.8958 15.7986 47.8958H19.8611C17.875 47.8958 16.25 46.2708 16.25 44.2847Z" fill="#D5DBE1"/>
<path d="M17.604 43.3818H21.6665V53.3124H17.604V43.3818Z" fill="#FF6600"/>
<path d="M36.1113 23.0694C36.1113 18.0319 39.7008 13.834 44.462 12.8897C43.8048 12.7579 43.1259 12.6875 42.4308 12.6875C36.6963 12.6875 32.0488 17.335 32.0488 23.0694C32.0488 28.8039 36.6963 33.4514 42.4308 33.4514C43.1259 33.4514 43.8048 33.381 44.462 33.2492C39.7008 32.3049 36.1113 28.1069 36.1113 23.0694Z" fill="#FF6600"/>
<path d="M21.6665 22.6181V19.9098C21.6665 18.9131 22.4754 18.1042 23.4721 18.1042H19.4096C18.4129 18.1042 17.604 18.9131 17.604 19.9098V22.6181C17.604 23.6148 18.4129 24.4237 19.4096 24.4237H23.4721C22.4754 24.4237 21.6665 23.6148 21.6665 22.6181Z" fill="#FF6600"/>
<path d="M42.4304 34.8055C35.9593 34.8055 30.6943 29.5405 30.6943 23.0694C30.6943 16.5983 35.9593 11.3333 42.4304 11.3333C48.9016 11.3333 54.1666 16.5983 54.1666 23.0694C54.1666 29.5405 48.9016 34.8055 42.4304 34.8055ZM42.4304 14.0416C37.4525 14.0416 33.4027 18.0914 33.4027 23.0694C33.4027 28.0473 37.4525 32.0971 42.4304 32.0971C47.4084 32.0971 51.4582 28.0473 51.4582 23.0694C51.4582 18.0914 47.4084 14.0416 42.4304 14.0416Z" fill="black"/>
<path d="M34.7567 49.25H32.9512V46.5417H34.7567C36.0008 46.5417 37.0137 45.5288 37.0137 44.2848V39.8828H39.722V44.2848C39.722 47.0238 37.4958 49.25 34.7567 49.25Z" fill="black"/>
<path d="M17.6043 49.2499H15.7988C13.0597 49.2499 10.8335 47.0237 10.8335 44.2846V16.2985C10.8335 13.5595 13.0597 11.3333 15.7988 11.3333H29.3404V14.0416H15.7988C14.5547 14.0416 13.5418 15.0545 13.5418 16.2985V44.2846C13.5418 45.5287 14.5547 46.5416 15.7988 46.5416H17.6043V49.2499Z" fill="black"/>
<path d="M26.5561 25.7778H19.4097C17.6674 25.7778 16.25 24.3604 16.25 22.6181V19.9097C16.25 18.1674 17.6674 16.75 19.4097 16.75H28.2118V19.4583H19.4097C19.1606 19.4583 18.9583 19.6606 18.9583 19.9097V22.6181C18.9583 22.8672 19.1606 23.0694 19.4097 23.0694H26.5561V25.7778Z" fill="black"/>
<path d="M18.0556 33C19.0527 33 19.8611 32.1917 19.8611 31.1945C19.8611 30.1973 19.0527 29.3889 18.0556 29.3889C17.0584 29.3889 16.25 30.1973 16.25 31.1945C16.25 32.1917 17.0584 33 18.0556 33Z" fill="black"/>
<path d="M25.2777 33C26.2749 33 27.0833 32.1917 27.0833 31.1945C27.0833 30.1973 26.2749 29.3889 25.2777 29.3889C24.2805 29.3889 23.4722 30.1973 23.4722 31.1945C23.4722 32.1917 24.2805 33 25.2777 33Z" fill="black"/>
<path d="M18.0556 40.2222C19.0527 40.2222 19.8611 39.4138 19.8611 38.4166C19.8611 37.4195 19.0527 36.6111 18.0556 36.6111C17.0584 36.6111 16.25 37.4195 16.25 38.4166C16.25 39.4138 17.0584 40.2222 18.0556 40.2222Z" fill="black"/>
<path d="M25.2777 40.2222C26.2749 40.2222 27.0833 39.4138 27.0833 38.4166C27.0833 37.4195 26.2749 36.6111 25.2777 36.6111C24.2805 36.6111 23.4722 37.4195 23.4722 38.4166C23.4722 39.4138 24.2805 40.2222 25.2777 40.2222Z" fill="black"/>
<path d="M32.4999 40.2222C33.4971 40.2222 34.3054 39.4138 34.3054 38.4166C34.3054 37.4195 33.4971 36.6111 32.4999 36.6111C31.5027 36.6111 30.6943 37.4195 30.6943 38.4166C30.6943 39.4138 31.5027 40.2222 32.4999 40.2222Z" fill="black"/>
<path d="M32.9514 54.6667H17.6042C16.8567 54.6667 16.25 54.0601 16.25 53.3126V43.382C16.25 42.6345 16.8567 42.0278 17.6042 42.0278H32.9514C33.6989 42.0278 34.3056 42.6345 34.3056 43.382V53.3126C34.3056 54.0601 33.6989 54.6667 32.9514 54.6667ZM18.9583 51.9584H31.5972V44.7362H18.9583V51.9584Z" fill="black"/>
<path d="M14.4443 42.0278H36.111V44.7362H14.4443V42.0278Z" fill="black"/>
<path d="M10.8896 55.5693H14.5008V57.3749H10.8896V55.5693Z" fill="#A4AFC1"/>
<path d="M0.507812 55.5693H4.11892V57.3749H0.507812V55.5693Z" fill="#A4AFC1"/>
<path d="M6.82715 49.25H8.6327V52.8611H6.82715V49.25Z" fill="#A4AFC1"/>
<path d="M6.82715 59.6318H8.6327V63.2429H6.82715V59.6318Z" fill="#A4AFC1"/>
</svg>
