<svg width="70" height="70" viewBox="0 0 70 70" fill="none" xmlns="http://www.w3.org/2000/svg">
<path d="M67.8692 39.5791C60.5154 28.3189 61.297 16.7766 57.7523 11.3497C54.2076 5.92275 43.6434 -3.43391 18.6826 12.8703C-6.27826 29.1744 0.0703488 46.898 3.9709 52.8655C22.2253 80.8111 80.8951 59.5214 67.8692 39.5791Z" fill="#EFEFEF"/>
<path d="M16.3457 18.1968L19.0956 15.4469L20.4705 16.8218L17.7206 19.5717L16.3457 18.1968Z" fill="#A4AFC1"/>
<path d="M8.43945 26.1016L11.1893 23.3517L12.5642 24.7266L9.81438 27.4765L8.43945 26.1016Z" fill="#A4AFC1"/>
<path d="M8.43945 16.4771L9.81438 15.1021L12.5642 17.852L11.1893 19.2269L8.43945 16.4771Z" fill="#A4AFC1"/>
<path d="M58.3327 63.6805C56.7246 63.6805 55.416 62.3719 55.416 60.7638C55.416 59.1558 56.7246 57.8472 58.3327 57.8472C59.9407 57.8472 61.2493 59.1558 61.2493 60.7638C61.2493 62.3719 59.9407 63.6805 58.3327 63.6805ZM58.3327 59.7916C57.796 59.7916 57.3605 60.2291 57.3605 60.7638C57.3605 61.2986 57.796 61.7361 58.3327 61.7361C58.8693 61.7361 59.3049 61.2986 59.3049 60.7638C59.3049 60.2291 58.8693 59.7916 58.3327 59.7916Z" fill="#A4AFC1"/>
<path d="M35 45.2085L30.625 52.9863H39.375L35 45.2085Z" fill="#F3F3F1"/>
<path d="M19.4442 29.6526C20.7866 29.6526 21.8748 28.5644 21.8748 27.2221C21.8748 25.8797 20.7866 24.7915 19.4442 24.7915C18.1019 24.7915 17.0137 25.8797 17.0137 27.2221C17.0137 28.5644 18.1019 29.6526 19.4442 29.6526Z" fill="#FEB46D"/>
<path d="M13.125 39.3748V38.4026C13.125 36.2539 14.8653 34.5137 17.0139 34.5137H21.875C24.0236 34.5137 25.7639 36.2539 25.7639 38.4026V39.3748H13.125Z" fill="#FEB46D"/>
<path d="M20.9028 34.5137H17.0139C14.8653 34.5137 13.125 36.2539 13.125 38.4026V39.3748H17.0139V38.4026C17.0139 36.2539 18.7542 34.5137 20.9028 34.5137Z" fill="#FF6600"/>
<path d="M39.3751 54.4442H30.6251C30.106 54.4442 29.6276 54.1681 29.3671 53.7228C29.1065 53.2756 29.1007 52.7214 29.3554 52.2703L33.7304 44.4925C34.2476 43.5767 35.7565 43.5767 36.2738 44.4925L40.6488 52.2703C40.9015 52.7214 40.8976 53.2756 40.6371 53.7228C40.3726 54.1681 39.8943 54.4442 39.3751 54.4442ZM33.1179 51.5275H36.8824L35.0001 48.1831L33.1179 51.5275Z" fill="black"/>
<path d="M13.125 42.7778H56.875V45.6945H13.125V42.7778Z" fill="black"/>
<path d="M19.4436 31.1113C17.2989 31.1113 15.5547 29.3671 15.5547 27.2224C15.5547 25.0777 17.2989 23.3335 19.4436 23.3335C21.5883 23.3335 23.3325 25.0777 23.3325 27.2224C23.3325 29.3671 21.5883 31.1113 19.4436 31.1113ZM19.4436 26.2502C18.9069 26.2502 18.4714 26.6877 18.4714 27.2224C18.4714 27.7571 18.9069 28.1946 19.4436 28.1946C19.9802 28.1946 20.4158 27.7571 20.4158 27.2224C20.4158 26.6877 19.9802 26.2502 19.4436 26.2502Z" fill="black"/>
<path d="M27.2216 39.3751H24.3049V38.4029C24.3049 37.0632 23.2141 35.9723 21.8743 35.9723H17.0132C15.6735 35.9723 14.5827 37.0632 14.5827 38.4029V39.3751H11.666V38.4029C11.666 35.4532 14.0635 33.0557 17.0132 33.0557H21.8743C24.8241 33.0557 27.2216 35.4532 27.2216 38.4029V39.3751Z" fill="black"/>
<path d="M50.0703 37.4307H52.987V40.3473H50.0703V37.4307Z" fill="black"/>
<path d="M52.2563 38.8889H48.1243V35.9723H52.2563C52.9271 35.9723 53.4716 35.4278 53.4716 34.757C53.4716 34.0862 52.9271 33.5417 52.2563 33.5417H50.798C48.5191 33.5417 46.666 31.6887 46.666 29.4098C46.666 27.1309 48.5191 25.2778 50.798 25.2778H54.9299V28.1945H50.798C50.1271 28.1945 49.5827 28.7389 49.5827 29.4098C49.5827 30.0806 50.1271 30.6251 50.798 30.6251H52.2563C54.5352 30.6251 56.3882 32.4781 56.3882 34.757C56.3882 37.0359 54.5352 38.8889 52.2563 38.8889Z" fill="black"/>
<path d="M50.0703 23.8193H52.987V26.736H50.0703V23.8193Z" fill="black"/>
</svg>
