<svg width="70" height="70" viewBox="0 0 70 70" fill="none" xmlns="http://www.w3.org/2000/svg">
<path d="M61.8967 53.7113C61.8967 40.2615 68.8636 31.0254 68.8636 24.5446C68.8636 18.0637 65.1381 4.45264 35.3239 4.45264C5.50976 4.45264 1.13281 22.7635 1.13281 29.8918C1.13281 63.2721 61.8967 77.5307 61.8967 53.7113Z" fill="#EFEFEF"/>
<path d="M54.2539 5.08789L55.6288 3.71296L58.3787 6.46282L57.0038 7.83775L54.2539 5.08789Z" fill="#A4AFC1"/>
<path d="M62.1602 12.9937L63.5351 11.6187L66.2849 14.3686L64.91 15.7435L62.1602 12.9937Z" fill="#A4AFC1"/>
<path d="M61.8203 6.46191L64.5702 3.71206L65.9451 5.08699L63.1952 7.83684L61.8203 6.46191Z" fill="#A4AFC1"/>
<path d="M52.9861 54.9306H17.0139C14.8653 54.9306 13.125 53.1903 13.125 51.0417V21.875H56.875V51.0417C56.875 53.1903 55.1347 54.9306 52.9861 54.9306Z" fill="#F3F3F1"/>
<path d="M56.875 21.8749H13.125V18.9582C13.125 16.8096 14.8653 15.0693 17.0139 15.0693H52.9861C55.1347 15.0693 56.875 16.8096 56.875 18.9582V21.8749Z" fill="#FEB46D"/>
<path d="M28.6797 38.889L34.9991 28.6807L41.3186 38.889L34.9991 49.1673L28.6797 38.889Z" fill="#FEB46D"/>
<path d="M33.0547 38.889L37.1866 32.2137L34.9991 28.6807L28.6797 38.889L34.9991 49.1673L37.1866 45.609L33.0547 38.889Z" fill="#FF6600"/>
<path d="M17.9861 51.0417V21.875H13.125V51.0417C13.125 53.1903 14.8653 54.9306 17.0139 54.9306H21.875C19.7264 54.9306 17.9861 53.1903 17.9861 51.0417Z" fill="#D5DBE1"/>
<path d="M21.3889 15.0693H17.0139C14.8653 15.0693 13.125 16.8096 13.125 18.9582V21.8749H17.5V18.9582C17.5 16.8096 19.2403 15.0693 21.3889 15.0693Z" fill="#FF6600"/>
<path d="M35.0009 42.8479C34.8181 42.8479 34.6353 42.8129 34.4642 42.7449L28.1448 40.2443C27.7442 40.0849 27.4331 39.7563 27.297 39.346C27.1609 38.9377 27.2134 38.4885 27.4409 38.121L33.7603 27.9127C34.2911 27.0552 35.7086 27.0552 36.2395 27.9127L42.5589 38.121C42.7864 38.4865 42.8409 38.9377 42.7028 39.346C42.5686 39.7563 42.2575 40.0849 41.855 40.2443L35.5356 42.7449C35.3645 42.8149 35.1836 42.8479 35.0009 42.8479ZM30.8378 38.1754L35.0009 39.8204L39.1639 38.1735L35.0009 31.4515L30.8378 38.1754Z" fill="black"/>
<path d="M35.0014 50.5553C34.4959 50.5553 34.0272 50.2928 33.7608 49.8651L27.4414 39.6567L29.9206 38.1226L35.0014 46.3262L40.0803 38.1206L42.5595 39.6548L36.24 49.8631C35.9756 50.2928 35.507 50.5553 35.0014 50.5553Z" fill="black"/>
<path d="M52.9874 56.3891H17.0152C14.0655 56.3891 11.668 53.9916 11.668 51.0419V18.9586C11.668 16.0088 14.0655 13.6113 17.0152 13.6113H52.9874C55.9371 13.6113 58.3346 16.0088 58.3346 18.9586V51.0419C58.3346 53.9916 55.9371 56.3891 52.9874 56.3891ZM17.0152 16.528C15.6755 16.528 14.5846 17.6188 14.5846 18.9586V51.0419C14.5846 52.3816 15.6755 53.4724 17.0152 53.4724H52.9874C54.3271 53.4724 55.418 52.3816 55.418 51.0419V18.9586C55.418 17.6188 54.3271 16.528 52.9874 16.528H17.0152Z" fill="black"/>
<path d="M13.125 20.4165H56.875V23.3332H13.125V20.4165Z" fill="black"/>
<path d="M3.89062 53.4722H66.1128V56.3888H3.89062V53.4722Z" fill="black"/>
</svg>
