<svg width="70" height="70" viewBox="0 0 70 70" fill="none" xmlns="http://www.w3.org/2000/svg">
<path d="M53.7117 61.8977C40.262 61.8977 31.0259 68.8646 24.5451 68.8646C18.0642 68.8646 4.45312 65.1391 4.45312 35.3249C4.45312 5.51073 22.764 1.13379 29.8923 1.13379C63.2726 1.13379 77.5312 61.8977 53.7117 61.8977Z" fill="#EFEFEF"/>
<path d="M34.028 7.77767C32.4199 7.77767 31.1113 6.46906 31.1113 4.861C31.1113 3.25295 32.4199 1.94434 34.028 1.94434C35.6361 1.94434 36.9447 3.25295 36.9447 4.861C36.9447 6.46906 35.6361 7.77767 34.028 7.77767ZM34.028 3.88878C33.4913 3.88878 33.0558 4.32628 33.0558 4.861C33.0558 5.39573 33.4913 5.83323 34.028 5.83323C34.5647 5.83323 35.0002 5.39573 35.0002 4.861C35.0002 4.32628 34.5647 3.88878 34.028 3.88878Z" fill="#A4AFC1"/>
<path d="M52.9861 54.9306H17.0139C14.8653 54.9306 13.125 53.1903 13.125 51.0417V21.875H56.875V51.0417C56.875 53.1903 55.1347 54.9306 52.9861 54.9306Z" fill="white"/>
<path d="M56.875 21.8749H13.125V18.9582C13.125 16.8096 14.8653 15.0693 17.0139 15.0693H52.9861C55.1347 15.0693 56.875 16.8096 56.875 18.9582V21.8749Z" fill="#FEB46D"/>
<path d="M43.2641 49.0973L38.8891 47.1529L35.0002 49.0973L31.1113 47.1529L26.7363 49.0973V30.6251C26.7363 29.5518 27.6074 28.6807 28.6808 28.6807H41.3197C42.393 28.6807 43.2641 29.5518 43.2641 30.6251V49.0973Z" fill="#FEB46D"/>
<path d="M17.0139 51.0417V21.875H13.125V51.0417C13.125 53.1903 14.8653 54.9306 17.0139 54.9306H20.9028C18.7542 54.9306 17.0139 53.1903 17.0139 51.0417Z" fill="#D5DBE1"/>
<path d="M20.9028 15.0693H17.0139C14.8653 15.0693 13.125 16.8096 13.125 18.9582V21.8749H17.0139V18.9582C17.0139 16.8096 18.7542 15.0693 20.9028 15.0693Z" fill="#FF6600"/>
<path d="M30.6252 30.6251C30.6252 29.5518 31.4963 28.6807 32.5697 28.6807H28.6808C27.6074 28.6807 26.7363 29.5518 26.7363 30.6251V49.0973L30.6252 47.3687V30.6251Z" fill="#FF6600"/>
<path d="M42.777 47.1528L40.9473 48.0687L43.2631 49.0973V47.3687L42.777 47.1528Z" fill="#FF6600"/>
<path d="M35.0006 47.1528L32.9414 48.0687L35.0006 49.0973L36.945 48.1251L35.0006 47.1528Z" fill="#FF6600"/>
<path d="M5.34766 53.4722H64.6532V56.3888H5.34766V53.4722Z" fill="black"/>
<path d="M26.7357 50.5555C26.4576 50.5555 26.1815 50.4758 25.9404 50.3202C25.5262 50.0499 25.2773 49.5911 25.2773 49.0972V30.6249C25.2773 28.7486 26.8037 27.2222 28.6801 27.2222H41.319C43.1954 27.2222 44.7218 28.7486 44.7218 30.6249V49.0972C44.7218 49.5911 44.4729 50.0499 44.0587 50.3202C43.6446 50.5886 43.1235 50.6274 42.6723 50.4311L38.9273 48.7666L35.6529 50.4038C35.2426 50.608 34.7585 50.608 34.3482 50.4038L31.0737 48.7666L27.3287 50.4311C27.1401 50.5147 26.9379 50.5555 26.7357 50.5555ZM31.1107 45.6944C31.3343 45.6944 31.5579 45.7449 31.7621 45.848L34.9996 47.4658L38.2371 45.848C38.626 45.6516 39.0829 45.6438 39.4815 45.8188L41.8051 46.8513V30.6249C41.8051 30.3566 41.5873 30.1388 41.319 30.1388H28.6801C28.4118 30.1388 28.194 30.3566 28.194 30.6249V46.8533L30.5176 45.8208C30.7062 45.7352 30.9085 45.6944 31.1107 45.6944Z" fill="black"/>
<path d="M32.084 33.0557H37.9173V35.9723H32.084V33.0557Z" fill="black"/>
<path d="M32.084 38.8887H37.9173V41.8053H32.084V38.8887Z" fill="black"/>
<path d="M52.9855 56.3891H17.0132C14.0635 56.3891 11.666 53.9916 11.666 51.0419V18.9586C11.666 16.0088 14.0635 13.6113 17.0132 13.6113H52.9855C55.9352 13.6113 58.3327 16.0088 58.3327 18.9586V51.0419C58.3327 53.9916 55.9352 56.3891 52.9855 56.3891ZM17.0132 16.528C15.6735 16.528 14.5827 17.6188 14.5827 18.9586V51.0419C14.5827 52.3816 15.6735 53.4724 17.0132 53.4724H52.9855C54.3252 53.4724 55.416 52.3816 55.416 51.0419V18.9586C55.416 17.6188 54.3252 16.528 52.9855 16.528H17.0132Z" fill="black"/>
<path d="M13.125 20.4165H56.875V23.3332H13.125V20.4165Z" fill="black"/>
</svg>
