<svg width="70" height="70" viewBox="0 0 70 70" fill="none" xmlns="http://www.w3.org/2000/svg">
<path d="M8.10269 16.2884C8.10269 29.7381 1.13574 38.9742 1.13574 45.4551C1.13574 51.9359 4.8613 65.547 34.6755 65.547C64.4896 65.547 68.8646 47.2362 68.8646 40.1078C68.8666 6.72756 8.10269 -7.53105 8.10269 16.2884Z" fill="#EFEFEF"/>
<path d="M61.8164 6.46338L64.5663 3.71352L65.9412 5.08845L63.1913 7.83831L61.8164 6.46338Z" fill="#A4AFC1"/>
<path d="M62.1553 12.9844L63.5302 11.6094L66.2801 14.3593L64.9051 15.7342L62.1553 12.9844Z" fill="#A4AFC1"/>
<path d="M54.25 5.08008L55.6249 3.70515L58.3748 6.45501L56.9999 7.82994L54.25 5.08008Z" fill="#A4AFC1"/>
<path d="M52.9861 56.875H17.0139C14.8653 56.875 13.125 55.1347 13.125 52.9861V17.0139C13.125 14.8653 14.8653 13.125 17.0139 13.125H52.9861C55.1347 13.125 56.875 14.8653 56.875 17.0139V52.9861C56.875 55.1347 55.1347 56.875 52.9861 56.875Z" fill="#F3F3F1"/>
<path d="M28.1948 29.6527C30.0741 29.6527 31.5975 28.1292 31.5975 26.2499C31.5975 24.3706 30.0741 22.8472 28.1948 22.8472C26.3155 22.8472 24.792 24.3706 24.792 26.2499C24.792 28.1292 26.3155 29.6527 28.1948 29.6527Z" fill="#FEB46D"/>
<path d="M41.8051 47.1527C43.6844 47.1527 45.2079 45.6292 45.2079 43.7499C45.2079 41.8706 43.6844 40.3472 41.8051 40.3472C39.9258 40.3472 38.4023 41.8706 38.4023 43.7499C38.4023 45.6292 39.9258 47.1527 41.8051 47.1527Z" fill="#FEB46D"/>
<path d="M17.5 52.9861V17.0139C17.5 14.8653 19.2403 13.125 21.3889 13.125H17.0139C14.8653 13.125 13.125 14.8653 13.125 17.0139V52.9861C13.125 55.1347 14.8653 56.875 17.0139 56.875H21.3889C19.2403 56.875 17.5 55.1347 17.5 52.9861Z" fill="#D5DBE1"/>
<path d="M29.167 26.2499C29.167 25.2077 29.6453 24.288 30.3823 23.6638C29.7892 23.1622 29.0328 22.8472 28.1948 22.8472C26.3164 22.8472 24.792 24.3716 24.792 26.2499C24.792 28.1283 26.3164 29.6527 28.1948 29.6527C29.0328 29.6527 29.7892 29.3377 30.3823 28.8361C29.6453 28.2119 29.167 27.2922 29.167 26.2499Z" fill="#FF6600"/>
<path d="M42.7773 43.7499C42.7773 42.7077 43.2557 41.788 43.9926 41.1638C43.3996 40.6622 42.6432 40.3472 41.8051 40.3472C39.9268 40.3472 38.4023 41.8716 38.4023 43.7499C38.4023 45.6283 39.9268 47.1527 41.8051 47.1527C42.6432 47.1527 43.3996 46.8377 43.9926 46.3361C43.2557 45.7119 42.7773 44.7922 42.7773 43.7499Z" fill="#FF6600"/>
<path d="M52.9864 58.3332H17.0142C14.0645 58.3332 11.667 55.9357 11.667 52.986V17.0137C11.667 14.064 14.0645 11.6665 17.0142 11.6665H52.9864C55.9362 11.6665 58.3337 14.064 58.3337 17.0137V52.986C58.3337 55.9357 55.9362 58.3332 52.9864 58.3332ZM17.0142 14.5832C15.6745 14.5832 14.5837 15.674 14.5837 17.0137V52.986C14.5837 54.3257 15.6745 55.4165 17.0142 55.4165H52.9864C54.3262 55.4165 55.417 54.3257 55.417 52.986V17.0137C55.417 15.674 54.3262 14.5832 52.9864 14.5832H17.0142Z" fill="black"/>
<path d="M28.1941 31.1109C25.5127 31.1109 23.333 28.9292 23.333 26.2498C23.333 23.5703 25.5127 21.3887 28.1941 21.3887C30.8755 21.3887 33.0552 23.5703 33.0552 26.2498C33.0552 28.9292 30.8755 31.1109 28.1941 31.1109ZM28.1941 24.3053C27.1208 24.3053 26.2497 25.1784 26.2497 26.2498C26.2497 27.3212 27.1208 28.1942 28.1941 28.1942C29.2675 28.1942 30.1386 27.3212 30.1386 26.2498C30.1386 25.1784 29.2675 24.3053 28.1941 24.3053Z" fill="black"/>
<path d="M41.8054 48.6109C39.1241 48.6109 36.9443 46.4292 36.9443 43.7498C36.9443 41.0703 39.1241 38.8887 41.8054 38.8887C44.4868 38.8887 46.6666 41.0703 46.6666 43.7498C46.6666 46.4292 44.4868 48.6109 41.8054 48.6109ZM41.8054 41.8053C40.7321 41.8053 39.861 42.6784 39.861 43.7498C39.861 44.8212 40.7321 45.6942 41.8054 45.6942C42.8788 45.6942 43.7499 44.8212 43.7499 43.7498C43.7499 42.6784 42.8788 41.8053 41.8054 41.8053Z" fill="black"/>
<path d="M27.4258 44.4487L40.0561 24.0386L42.5352 25.5727L29.9049 45.9829L27.4258 44.4487Z" fill="black"/>
</svg>
