<svg width="70" height="70" viewBox="0 0 70 70" fill="none" xmlns="http://www.w3.org/2000/svg">
<path d="M61.8967 16.2884C61.8967 29.7381 68.8636 38.9742 68.8636 45.4551C68.8636 51.9359 65.1381 65.547 35.3239 65.547C5.50976 65.547 1.13281 47.2362 1.13281 40.1078C1.13281 6.72756 61.8967 -7.53105 61.8967 16.2884Z" fill="#EFEFEF"/>
<path d="M57.6055 4.375H59.5499V8.26389H57.6055V4.375Z" fill="#A4AFC1"/>
<path d="M61.9805 10.2085H65.8694V12.1529H61.9805V10.2085Z" fill="#A4AFC1"/>
<path d="M52.9861 54.9306H17.0139C14.8653 54.9306 13.125 53.1903 13.125 51.0417V21.875H56.875V51.0417C56.875 53.1903 55.1347 54.9306 52.9861 54.9306Z" fill="#F3F3F1"/>
<path d="M56.875 21.8749H13.125V18.9582C13.125 16.8096 14.8653 15.0693 17.0139 15.0693H52.9861C55.1347 15.0693 56.875 16.8096 56.875 18.9582V21.8749Z" fill="#FEB46D"/>
<path d="M44.4355 41.5879C44.7369 41.8718 44.8088 42.3248 44.6047 42.6884L43.0938 45.2979C42.8897 45.6615 42.4541 45.8209 42.0536 45.6965L40.0547 45.0665C39.3974 45.6071 38.6508 46.0523 37.8322 46.3537L37.3694 48.4051C37.2799 48.8037 36.9241 49.0973 36.508 49.0973H33.4863C33.0683 49.0973 32.7124 48.8037 32.6249 48.4051L32.1622 46.3537C31.3455 46.0523 30.5988 45.609 29.9397 45.0665L27.9408 45.6965C27.5402 45.8209 27.1047 45.6615 26.9005 45.2979L25.3897 42.6884C25.1855 42.3248 25.2555 41.8718 25.5588 41.5879L27.0969 40.1762C27.0347 39.7582 26.9997 39.3246 26.9997 38.889C26.9997 38.4534 27.0347 38.0198 27.0969 37.6018L25.5588 36.1901C25.2574 35.9062 25.1855 35.4532 25.3897 35.0896L26.9005 32.4801C27.1047 32.1165 27.5402 31.9571 27.9408 32.0815L29.9397 32.7115C30.5969 32.1709 31.3436 31.7257 32.1622 31.4243L32.6249 29.3729C32.7144 28.9743 33.0702 28.6807 33.4863 28.6807H36.508C36.9261 28.6807 37.2819 28.9743 37.3694 29.3729L37.8322 31.4243C38.6488 31.7257 39.3955 32.169 40.0547 32.7115L42.0536 32.0815C42.4541 31.9571 42.8897 32.1165 43.0938 32.4801L44.6047 35.0896C44.8088 35.4532 44.7388 35.9062 44.4355 36.1901L42.8974 37.6018C42.9597 38.0198 42.9947 38.4534 42.9947 38.889C42.9947 39.3246 42.9597 39.7582 42.8974 40.1762L44.4355 41.5879Z" fill="#FEB46D"/>
<path d="M35.0004 42.2919C36.8797 42.2919 38.4032 40.7684 38.4032 38.8891C38.4032 37.0098 36.8797 35.4863 35.0004 35.4863C33.1211 35.4863 31.5977 37.0098 31.5977 38.8891C31.5977 40.7684 33.1211 42.2919 35.0004 42.2919Z" fill="#F3F3F1"/>
<path d="M17.9861 51.0417V21.875H13.125V51.0417C13.125 53.1903 14.8653 54.9306 17.0139 54.9306H21.875C19.7264 54.9306 17.9861 53.1903 17.9861 51.0417Z" fill="#D5DBE1"/>
<path d="M21.3889 15.0693H17.0139C14.8653 15.0693 13.125 16.8096 13.125 18.9582V21.8749H17.5V18.9582C17.5 16.8096 19.2403 15.0693 21.3889 15.0693Z" fill="#FF6600"/>
<path d="M37.0039 48.4051L36.5411 46.3537C35.7244 46.0523 34.9777 45.609 34.3186 45.0665L32.3197 45.6965C31.9191 45.8209 31.4836 45.6615 31.2794 45.2979L29.7686 42.6884C29.5644 42.3248 29.6344 41.8718 29.9377 41.5879L31.4758 40.1762C31.4136 39.7582 31.3786 39.3245 31.3786 38.889C31.3786 38.4534 31.4136 38.0198 31.4758 37.6018L29.9377 36.1901C29.6364 35.9062 29.5644 35.4532 29.7686 35.0895L31.2794 32.4801C31.4836 32.1165 31.9191 31.957 32.3197 32.0815L34.3186 32.7115C34.9758 32.1709 35.7225 31.7257 36.5411 31.4243L37.0039 29.3729C37.0311 29.2523 37.1205 29.1707 37.1886 29.0734C37.0272 28.8498 36.8036 28.6787 36.5119 28.6787H33.4902C33.0722 28.6787 32.7164 28.9723 32.6289 29.3709L32.1661 31.4223C31.3494 31.7237 30.6027 32.167 29.9436 32.7095L27.9447 32.0795C27.5441 31.9551 27.1086 32.1145 26.9044 32.4782L25.3936 35.0876C25.1894 35.4512 25.2594 35.9043 25.5627 36.1882L27.1008 37.5998C27.0386 38.0179 27.0036 38.4515 27.0036 38.887C27.0036 39.3226 27.0386 39.7562 27.1008 40.1743L25.5627 41.5859C25.2614 41.8698 25.1894 42.3229 25.3936 42.6865L26.9044 45.2959C27.1086 45.6595 27.5441 45.819 27.9447 45.6945L29.9436 45.0645C30.6008 45.607 31.3475 46.0504 32.1661 46.3518L32.6289 48.4032C32.7183 48.8018 33.0741 49.0954 33.4902 49.0954H36.5119C36.8036 49.0954 37.0272 48.9243 37.1886 48.7007C37.1186 48.6073 37.0311 48.5257 37.0039 48.4051Z" fill="#FF6600"/>
<path d="M35.9727 38.8891C35.9727 37.8469 36.451 36.9272 37.1879 36.303C36.5949 35.8013 35.8385 35.4863 35.0004 35.4863C33.1221 35.4863 31.5977 37.0108 31.5977 38.8891C31.5977 40.7674 33.1221 42.2919 35.0004 42.2919C35.8385 42.2919 36.5949 41.9769 37.1879 41.4752C36.451 40.8511 35.9727 39.9313 35.9727 38.8891Z" fill="#D5DBE1"/>
<path d="M52.9874 56.3891H17.0152C14.0655 56.3891 11.668 53.9916 11.668 51.0419V18.9586C11.668 16.0088 14.0655 13.6113 17.0152 13.6113H52.9874C55.9371 13.6113 58.3346 16.0088 58.3346 18.9586V51.0419C58.3346 53.9916 55.9371 56.3891 52.9874 56.3891ZM17.0152 16.528C15.6755 16.528 14.5846 17.6188 14.5846 18.9586V51.0419C14.5846 52.3816 15.6755 53.4724 17.0152 53.4724H52.9874C54.3271 53.4724 55.418 52.3816 55.418 51.0419V18.9586C55.418 17.6188 54.3271 16.528 52.9874 16.528H17.0152Z" fill="black"/>
<path d="M13.125 20.4165H56.875V23.3332H13.125V20.4165Z" fill="black"/>
<path d="M35.0017 43.7501C32.3223 43.7501 30.1406 41.5684 30.1406 38.8889C30.1406 36.2095 32.3223 34.0278 35.0017 34.0278C37.6812 34.0278 39.8628 36.2095 39.8628 38.8889C39.8628 41.5684 37.6812 43.7501 35.0017 43.7501ZM35.0017 36.9445C33.9303 36.9445 33.0573 37.8176 33.0573 38.8889C33.0573 39.9603 33.9303 40.8334 35.0017 40.8334C36.0731 40.8334 36.9462 39.9603 36.9462 38.8889C36.9462 37.8176 36.0731 36.9445 35.0017 36.9445Z" fill="black"/>
<path d="M36.51 50.5555H33.4884C32.4014 50.5555 31.4409 49.7855 31.2036 48.7238L30.9061 47.4036C30.4764 47.1994 30.0623 46.9583 29.6656 46.6841L28.3823 47.0886C27.3206 47.4172 26.1695 46.9661 25.6328 46.0133L24.1317 43.4213C23.5892 42.453 23.772 41.2708 24.5634 40.5261L25.5706 39.6024C25.5531 39.3652 25.5434 39.128 25.5434 38.8908C25.5434 38.6536 25.5531 38.4144 25.5706 38.1791L24.577 37.2672C23.772 36.5108 23.5911 35.3266 24.122 34.3797L25.6425 31.7508C26.1695 30.8136 27.3245 30.3605 28.3764 30.6891L29.6656 31.0955C30.0642 30.8213 30.4764 30.5802 30.9061 30.3761L31.2036 29.0538C31.4448 27.9766 32.3839 27.2222 33.4884 27.2222H36.51C37.6145 27.2222 38.5536 27.9766 38.7948 29.0538L39.0923 30.3741C39.522 30.5783 39.9361 30.8194 40.3328 31.0936L41.6161 30.6891C42.6739 30.3605 43.8289 30.8116 44.3656 31.7644L45.8667 34.3563C46.4092 35.3247 46.2264 36.5069 45.435 37.2516L44.4278 38.1752C44.4453 38.4124 44.455 38.6497 44.455 38.8869C44.455 39.1241 44.4453 39.3633 44.4278 39.5986L45.4214 40.5105L45.4331 40.5222C46.2245 41.2669 46.4073 42.4491 45.8764 43.398L44.3559 46.0269C43.8289 46.9622 42.672 47.4094 41.622 47.0886L40.3328 46.6822C39.9342 46.9563 39.522 47.1974 39.0923 47.4016L38.7948 48.7238C38.5575 49.7855 37.595 50.5555 36.51 50.5555ZM33.9492 47.6388H36.0492L36.4128 46.0327C36.5217 45.5505 36.8659 45.1558 37.3306 44.9847C37.9703 44.7494 38.575 44.3974 39.1292 43.9405C39.5103 43.6236 40.0236 43.5224 40.4961 43.6741L42.0653 44.168L43.1173 42.3499L41.9156 41.2474C41.5598 40.9208 41.3886 40.4366 41.4586 39.9602C41.5111 39.6102 41.5403 39.2486 41.5403 38.8849C41.5403 38.5213 41.5092 38.1597 41.4586 37.8097C41.3886 37.3313 41.5598 36.8491 41.9156 36.5224L43.1173 35.4199L42.0634 33.6019L40.4961 34.0958C40.0256 34.2436 39.5103 34.1444 39.1292 33.8294C38.575 33.3724 37.9684 33.0205 37.3306 32.7852C36.8678 32.6141 36.5217 32.2194 36.4128 31.7372L36.0492 30.1388H33.9492L33.5856 31.7449C33.4767 32.2272 33.1325 32.6219 32.6678 32.793C32.0281 33.0283 31.4234 33.3802 30.8692 33.8372C30.4861 34.1502 29.9748 34.2494 29.5023 34.1036L27.9331 33.6097L26.8811 35.4277L28.0828 36.5302C28.4386 36.8569 28.6098 37.3411 28.5398 37.8174C28.4873 38.1674 28.4581 38.5291 28.4581 38.8927C28.4581 39.2563 28.4892 39.618 28.5398 39.968C28.6098 40.4463 28.4386 40.9286 28.0828 41.2552L26.8811 42.3577L27.935 44.1758L29.5023 43.6819C29.9767 43.5322 30.4881 43.6333 30.8692 43.9483C31.4234 44.4052 32.03 44.7572 32.6678 44.9924C33.1306 45.1636 33.4767 45.5583 33.5856 46.0405L33.9492 47.6388ZM41.832 44.5686C41.83 44.5724 41.8281 44.5763 41.8242 44.5822L41.832 44.5686ZM28.1586 44.5549L28.1645 44.5666C28.1625 44.5627 28.1606 44.5588 28.1586 44.5549ZM41.8339 33.2111C41.8359 33.2149 41.8378 33.2188 41.8398 33.2227L41.8339 33.2111ZM28.1742 33.1955L28.1664 33.2091C28.1703 33.2033 28.1723 33.1994 28.1742 33.1955Z" fill="black"/>
<path d="M3.89062 53.4722H66.1128V56.3888H3.89062V53.4722Z" fill="black"/>
</svg>
