<svg width="70" height="70" viewBox="0 0 70 70" fill="none" xmlns="http://www.w3.org/2000/svg">
<path d="M53.7117 61.8977C40.262 61.8977 31.0259 68.8646 24.5451 68.8646C18.0642 68.8646 4.45312 65.1391 4.45312 35.3249C4.45312 5.51073 22.764 1.13379 29.8923 1.13379C63.2726 1.13379 77.5312 61.8977 53.7117 61.8977Z" fill="#EFEFEF"/>
<path d="M50.3672 8.97461L51.7421 7.59968L54.492 10.3495L53.117 11.7245L50.3672 8.97461Z" fill="#A4AFC1"/>
<path d="M58.2715 16.8828L59.6464 15.5079L62.3963 18.2577L61.0213 19.6327L58.2715 16.8828Z" fill="#A4AFC1"/>
<path d="M57.9316 10.3511L60.6815 7.60121L62.0564 8.97614L59.3066 11.726L57.9316 10.3511Z" fill="#A4AFC1"/>
<path d="M49.5825 47.1527C51.4618 47.1527 52.9852 45.6292 52.9852 43.7499C52.9852 41.8706 51.4618 40.3472 49.5825 40.3472C47.7032 40.3472 46.1797 41.8706 46.1797 43.7499C46.1797 45.6292 47.7032 47.1527 49.5825 47.1527Z" fill="#F3F3F1"/>
<path d="M56.8743 58.3331V55.9026C56.8743 53.7539 55.1341 52.0137 52.9855 52.0137H46.1799C44.0313 52.0137 42.291 53.7539 42.291 55.9026V58.3331H56.8743Z" fill="#F3F3F1"/>
<path d="M20.4164 47.1527C22.2958 47.1527 23.8192 45.6292 23.8192 43.7499C23.8192 41.8706 22.2958 40.3472 20.4164 40.3472C18.5371 40.3472 17.0137 41.8706 17.0137 43.7499C17.0137 45.6292 18.5371 47.1527 20.4164 47.1527Z" fill="#F3F3F1"/>
<path d="M27.7083 58.3331V55.9026C27.7083 53.7539 25.9681 52.0137 23.8194 52.0137H17.0139C14.8653 52.0137 13.125 53.7539 13.125 55.9026V58.3331H27.7083Z" fill="#F3F3F1"/>
<path d="M42.9526 47.2502C40.5609 48.4363 37.8581 49.0974 34.9998 49.0974C25.0637 49.0974 17.0137 41.0474 17.0137 31.1113H34.9998L42.9526 47.2502Z" fill="#F3F3F1"/>
<path d="M52.9861 31.1111C52.9861 38.1889 48.9028 44.3139 42.9528 47.25L35 31.1111V13.125C44.9361 13.125 52.9861 21.175 52.9861 31.1111Z" fill="#FEB46D"/>
<path d="M34.9998 13.125V31.1111H17.0137C17.0137 21.175 25.0637 13.125 34.9998 13.125Z" fill="#FEB46D"/>
<path d="M50.5547 43.7499C50.5547 42.7077 51.033 41.788 51.77 41.1638C51.1769 40.6622 50.4205 40.3472 49.5825 40.3472C47.7041 40.3472 46.1797 41.8716 46.1797 43.7499C46.1797 45.6283 47.7041 47.1527 49.5825 47.1527C50.4205 47.1527 51.1769 46.8377 51.77 46.3361C51.033 45.7119 50.5547 44.7922 50.5547 43.7499Z" fill="#D5DBE1"/>
<path d="M50.5549 52.0137H46.1799C44.0313 52.0137 42.291 53.7539 42.291 55.9026V58.3331H46.666V55.9026C46.666 53.7539 48.4063 52.0137 50.5549 52.0137Z" fill="#D5DBE1"/>
<path d="M21.3887 43.7499C21.3887 42.7077 21.867 41.788 22.6039 41.1638C22.0109 40.6622 21.2545 40.3472 20.4164 40.3472C18.5381 40.3472 17.0137 41.8716 17.0137 43.7499C17.0137 45.6283 18.5381 47.1527 20.4164 47.1527C21.2545 47.1527 22.0109 46.8377 22.6039 46.3361C21.867 45.7119 21.3887 44.7922 21.3887 43.7499Z" fill="#D5DBE1"/>
<path d="M21.3889 52.0137H17.0139C14.8653 52.0137 13.125 53.7539 13.125 55.9026V58.3331H17.5V55.9026C17.5 53.7539 19.2403 52.0137 21.3889 52.0137Z" fill="#D5DBE1"/>
<path d="M21.3887 31.1113H17.0137C17.0137 41.0474 25.0637 49.0974 34.9998 49.0974C35.7523 49.0974 36.4931 49.0449 37.2203 48.9574C28.3031 47.8899 21.3887 40.3163 21.3887 31.1113Z" fill="#D5DBE1"/>
<path d="M39.375 31.1111V13.6831C37.9731 13.3311 36.5128 13.125 35 13.125V31.1111L42.9528 47.25C44.1447 46.6608 45.2375 45.9142 46.2622 45.0878L39.375 31.1111Z" fill="#FF6600"/>
<path d="M34.9998 13.6831V13.125C25.0637 13.125 17.0137 21.175 17.0137 31.1111H21.3887C21.3887 22.6878 27.1831 15.6392 34.9998 13.6831Z" fill="#FF6600"/>
<path d="M34.9998 32.5694H17.0137V29.6528H33.5414V13.125H36.4581V31.1111C36.4581 31.9161 35.8048 32.5694 34.9998 32.5694Z" fill="black"/>
<path d="M33.7129 31.7412L36.3379 30.4666L41.8067 41.7296L39.1817 43.0042L33.7129 31.7412Z" fill="black"/>
<path d="M53.5958 36.7693L50.7666 36.0596L51.1225 34.644C51.3908 33.5746 51.5269 32.3846 51.5269 31.1109C51.5269 21.9973 44.1127 14.5832 34.9991 14.5832C25.8855 14.5832 18.4714 21.9973 18.4714 31.1109C18.4714 32.3846 18.6075 33.5746 18.8758 34.644L19.2316 36.0596L16.4025 36.7693L16.0466 35.3537C15.72 34.0509 15.5547 32.6218 15.5547 31.1109C15.5547 20.3893 24.2775 11.6665 34.9991 11.6665C45.7208 11.6665 54.4436 20.3893 54.4436 31.1109C54.4436 32.6218 54.2783 34.0509 53.9516 35.3557L53.5958 36.7693Z" fill="black"/>
<path d="M35.0003 50.5557C32.6281 50.5557 30.3181 50.1376 28.1306 49.3151L26.7656 48.7998L27.7923 46.0718L29.1553 46.5851C32.8731 47.9832 37.1276 47.9832 40.8453 46.5851L42.2084 46.0718L43.2351 48.7998L41.8701 49.3151C39.6826 50.1376 37.3726 50.5557 35.0003 50.5557Z" fill="black"/>
<path d="M20.4158 48.6109C17.7344 48.6109 15.5547 46.4312 15.5547 43.7498C15.5547 41.0684 17.7344 38.8887 20.4158 38.8887C23.0972 38.8887 25.2769 41.0684 25.2769 43.7498C25.2769 46.4312 23.0972 48.6109 20.4158 48.6109ZM20.4158 41.8053C19.3425 41.8053 18.4714 42.6764 18.4714 43.7498C18.4714 44.8231 19.3425 45.6942 20.4158 45.6942C21.4891 45.6942 22.3602 44.8231 22.3602 43.7498C22.3602 42.6764 21.4891 41.8053 20.4158 41.8053Z" fill="black"/>
<path d="M29.166 58.3334H26.2493V55.9029C26.2493 54.5632 25.1585 53.4723 23.8188 53.4723H17.0132C15.6735 53.4723 14.5827 54.5632 14.5827 55.9029V58.3334H11.666V55.9029C11.666 52.9532 14.0635 50.5557 17.0132 50.5557H23.8188C26.7685 50.5557 29.166 52.9532 29.166 55.9029V58.3334Z" fill="black"/>
<path d="M49.5838 48.6109C46.9024 48.6109 44.7227 46.4312 44.7227 43.7498C44.7227 41.0684 46.9024 38.8887 49.5838 38.8887C52.2652 38.8887 54.4449 41.0684 54.4449 43.7498C54.4449 46.4312 52.2652 48.6109 49.5838 48.6109ZM49.5838 41.8053C48.5104 41.8053 47.6393 42.6764 47.6393 43.7498C47.6393 44.8231 48.5104 45.6942 49.5838 45.6942C50.6571 45.6942 51.5282 44.8231 51.5282 43.7498C51.5282 42.6764 50.6571 41.8053 49.5838 41.8053Z" fill="black"/>
<path d="M58.334 58.3334H55.4173V55.9029C55.4173 54.5632 54.3265 53.4723 52.9868 53.4723H46.1812C44.8415 53.4723 43.7507 54.5632 43.7507 55.9029V58.3334H40.834V55.9029C40.834 52.9532 43.2315 50.5557 46.1812 50.5557H52.9868C55.9365 50.5557 58.334 52.9532 58.334 55.9029V58.3334Z" fill="black"/>
<path d="M3.88867 55.4165H66.1109V58.3332H3.88867V55.4165Z" fill="black"/>
</svg>
