<svg width="70" height="70" viewBox="0 0 70 70" fill="none" xmlns="http://www.w3.org/2000/svg">
<path d="M8.10171 16.2884C8.10171 29.7381 1.13477 38.9742 1.13477 45.4551C1.13477 51.9359 4.86032 65.547 34.6745 65.547C64.4887 65.547 68.8637 47.2362 68.8637 40.1078C68.8656 6.72756 8.10171 -7.53105 8.10171 16.2884Z" fill="#EFEFEF"/>
<path d="M58.0898 3.88867H60.0343V7.77756H58.0898V3.88867Z" fill="#A4AFC1"/>
<path d="M62.4648 9.72217H66.3537V11.6666H62.4648V9.72217Z" fill="#A4AFC1"/>
<path d="M40.3477 13.125H49.0977C50.031 13.125 50.8282 13.7861 51.0032 14.6806L56.8365 42.875C56.856 43.0111 56.8754 43.1278 56.8754 43.2639C56.8754 44.3333 56.0004 45.2083 54.931 45.2083H46.181L40.3477 13.125Z" fill="#FEB46D"/>
<path d="M49.0972 43.2639C49.0972 44.3333 48.2222 45.2083 47.1528 45.2083H15.0694C14 45.2083 13.125 44.3333 13.125 43.2639C13.125 43.1278 13.1444 43.0111 13.1639 42.875L18.9972 14.6806C19.1722 13.7861 19.9694 13.125 20.9028 13.125H41.3194C42.2528 13.125 43.05 13.7861 43.225 14.6806L49.0583 42.875C49.0778 43.0111 49.0972 43.1278 49.0972 43.2639Z" fill="white"/>
<path d="M54.9576 43.0964C54.9498 43.0887 54.9498 43.0887 54.9401 43.0789L50.1917 38.3306C49.4742 37.6131 48.3173 37.6151 47.5998 38.3326C46.8823 39.0501 46.8823 40.207 47.5979 40.9245L45.8712 39.1978C45.1556 38.4803 43.9967 38.4823 43.2792 39.1998C42.5617 39.9173 42.5617 41.0742 43.2773 41.7917L42.414 40.9284C41.6984 40.2109 40.5395 40.2128 39.822 40.9303C39.1045 41.6478 39.1045 42.8048 39.8201 43.5223L34.6401 38.3423C33.9245 37.6267 32.7656 37.6267 32.0481 38.3442C31.3306 39.0617 31.3306 40.2187 32.0462 40.9362L40.8779 49.7678C39.5381 49.5695 37.302 49.4937 35.9273 50.8664C34.6304 52.1634 34.6654 53.0617 35.062 53.4584C36.149 54.5453 36.9967 52.8187 41.9706 55.1831C46.9445 57.5476 50.1412 57.3376 52.3365 55.1773L54.0651 53.4487L54.0729 53.4409C57.1567 50.3609 58.0395 46.1784 54.9576 43.0964Z" fill="#FEB46D"/>
<path d="M17.5 43.2639C17.5 43.1278 17.5194 43.0111 17.5389 42.875L23.3722 14.6806C23.5472 13.7861 24.3444 13.125 25.2778 13.125H20.9028C19.9694 13.125 19.1722 13.7861 18.9972 14.6806L13.1639 42.875C13.1444 43.0111 13.125 43.1278 13.125 43.2639C13.125 44.3333 14 45.2083 15.0694 45.2083H19.4444C18.375 45.2083 17.5 44.3333 17.5 43.2639Z" fill="#D5DBE1"/>
<path d="M46.3515 55.1795C41.3776 52.8151 40.5298 54.5437 39.4429 53.4548C39.0462 53.0581 39.0112 52.1598 40.3082 50.8628C41.6829 49.4881 43.919 49.5659 45.2587 49.7642L36.427 40.9326C36.0576 40.5631 35.8865 40.077 35.8982 39.5928L34.644 38.3387C33.9284 37.6231 32.7695 37.6231 32.052 38.3406C31.3345 39.0581 31.3345 40.2151 32.0501 40.9326L40.8818 49.7642C39.542 49.5659 37.3059 49.4901 35.9312 50.8628C34.6343 52.1598 34.6693 53.0581 35.0659 53.4548C36.1529 54.5417 37.0007 52.8151 41.9745 55.1795C45.4668 56.8381 48.0684 57.2076 50.0751 56.5464C48.957 56.2723 47.7301 55.8348 46.3515 55.1795Z" fill="#FF6600"/>
<path d="M50.1917 38.3328L52.0778 40.2189L47.1526 13.125H43.2637L47.8214 38.1869C48.5389 37.6522 49.5403 37.6794 50.1917 38.3328Z" fill="#FF6600"/>
<path d="M48.0974 58.3254C46.153 58.3254 43.9149 57.7168 41.3483 56.4977C38.6824 55.2318 37.4185 55.2785 36.5883 55.3096C35.8494 55.3368 34.9219 55.3718 34.0352 54.4871C33.1622 53.614 32.8627 51.8718 34.8986 49.834C35.6452 49.0874 36.5435 48.6518 37.473 48.4204L31.0174 41.9649C29.7361 40.6815 29.7361 38.5932 31.0194 37.3099C32.3027 36.0265 34.3891 36.0285 35.6744 37.3079L38.5424 40.176C38.6202 40.0788 38.7038 39.9854 38.7933 39.896C39.4155 39.2738 40.2419 38.9315 41.1188 38.9296H41.1208C41.3016 38.9296 41.4805 38.9432 41.6536 38.9724C41.8072 38.6788 42.0074 38.4065 42.2486 38.1674C43.3316 37.0804 44.9922 36.9113 46.256 37.6618C46.3513 37.5354 46.4563 37.4149 46.5691 37.3002C47.8505 36.0207 49.9388 36.0168 51.2222 37.2982L55.9705 42.0485C59.4335 45.5135 59.0816 50.4971 55.111 54.4677L53.3727 56.206C51.9377 57.6196 50.1897 58.3254 48.0974 58.3254ZM37.0822 52.3793C38.1769 52.3793 39.8569 52.5563 42.6024 53.8629C48.041 56.4452 50.178 55.2532 51.3174 54.1352L53.0383 52.4143C55.1597 50.2949 56.6549 46.859 53.9249 44.129L49.1611 39.3632C49.0133 39.2174 48.7799 39.2154 48.6322 39.3652C48.4844 39.5129 48.4824 39.7443 48.6283 39.8921L49.9252 41.189C50.2091 41.4729 50.353 41.8463 50.353 42.2196C50.353 42.5929 50.2111 42.9663 49.9252 43.2502C49.3555 43.8199 48.4319 43.8199 47.8622 43.2502L44.8405 40.2285C44.6927 40.0807 44.4594 40.0807 44.3116 40.2304C44.1891 40.3529 44.1872 40.631 44.3077 40.7574L44.3116 40.7593L46.468 42.9196L44.4049 44.9827L42.2486 42.8243C42.2447 42.8224 42.2427 42.8185 42.2388 42.8165L41.3852 41.9629C41.2608 41.8385 40.9808 41.8385 40.8563 41.9629C40.7319 42.0854 40.7319 42.3674 40.8563 42.4899L43.0127 44.6482C43.2966 44.9321 43.4405 45.3054 43.4405 45.6788C43.4405 46.0521 43.2986 46.4254 43.0127 46.7093C42.4411 47.281 41.5174 47.2771 40.9497 46.7093L33.6133 39.371C33.4655 39.2252 33.2322 39.2232 33.0844 39.3729C32.9366 39.5207 32.9347 39.754 33.0824 39.9018L41.9141 48.7335C42.3594 49.1788 42.4683 49.8593 42.1863 50.4213C41.9024 50.9813 41.2958 51.304 40.6697 51.2068C39.6936 51.061 37.9027 50.9599 36.9655 51.8952C36.7691 52.0915 36.6291 52.2588 36.5299 52.3929C36.6933 52.3871 36.8799 52.3793 37.0822 52.3793Z" fill="black"/>
<path d="M27.3966 46.6665H15.0688C13.1924 46.6665 11.666 45.1401 11.666 43.2637C11.666 43.0712 11.6855 42.904 11.7107 42.7173L17.5674 14.3848C17.8766 12.8157 19.2805 11.6665 20.9021 11.6665H41.3188C42.9405 11.6665 44.3444 12.8157 44.6555 14.3965L48.1905 31.4959L45.3341 32.0871L41.7971 14.9759C41.7524 14.7426 41.5502 14.5832 41.3188 14.5832H20.9021C20.6707 14.5832 20.4685 14.7426 20.4257 14.9623L14.5905 43.1704C14.5827 43.5282 14.8043 43.7498 15.0688 43.7498H27.3966V46.6665Z" fill="black"/>
<path d="M53.6185 34.5371L49.576 14.9759C49.5313 14.7426 49.329 14.5832 49.0977 14.5832H40.3477V11.6665H49.0977C50.7193 11.6665 52.1232 12.8157 52.4343 14.3965L56.4749 33.9459L53.6185 34.5371Z" fill="black"/>
<path d="M31.1118 29.1665C26.8223 29.1665 23.334 25.6781 23.334 21.3887V17.0137H26.2507V21.3887C26.2507 24.0681 28.4304 26.2498 31.1118 26.2498C33.7932 26.2498 35.9729 24.0681 35.9729 21.3887V17.0137H38.8895V21.3887C38.8895 25.6781 35.4012 29.1665 31.1118 29.1665Z" fill="black"/>
</svg>
