<svg width="22" height="22" viewBox="0 0 22 22" fill="none" xmlns="http://www.w3.org/2000/svg">
<g clip-path="url(#clip0_0_3)">
<path d="M13.5 8.50002L8.5 13.5M8.49998 8.5L13.5 13.5" stroke="#9FA8B1" stroke-width="1.5" stroke-linecap="round"/>
<path d="M21 11C21 15.714 21 18.0711 19.5355 19.5355C18.0711 21 15.714 21 11 21C6.28595 21 3.92893 21 2.46447 19.5355C1 18.0711 1 15.714 1 11C1 6.28595 1 3.92893 2.46447 2.46447C3.92893 1 6.28595 1 11 1C15.714 1 18.0711 1 19.5355 2.46447C20.5093 3.43821 20.8356 4.80655 20.9449 7" stroke="#9FA8B1" stroke-width="1.5" stroke-linecap="round"/>
</g>
<defs>
<clipPath id="clip0_0_3">
<rect width="22" height="22" fill="white"/>
</clipPath>
</defs>
</svg>
