<svg width="70" height="70" viewBox="0 0 70 70" fill="none" xmlns="http://www.w3.org/2000/svg">
<path d="M2.06691 29.8628C9.17386 41.2805 8.13941 52.8033 11.5655 58.3061C14.9916 63.8089 25.3477 73.395 50.6586 57.6392C75.9694 41.8833 70.0077 24.0275 66.2414 17.9744C48.6014 -10.3639 -10.5195 9.64054 2.06691 29.8628Z" fill="#EFEFEF"/>
<path d="M41.8058 45.2083C50.1284 45.2083 56.8752 38.4615 56.8752 30.1389C56.8752 21.8163 50.1284 15.0695 41.8058 15.0695C33.4831 15.0695 26.7363 21.8163 26.7363 30.1389C26.7363 38.4615 33.4831 45.2083 41.8058 45.2083Z" fill="white"/>
<path d="M32.1613 30.1389C32.1613 22.7442 37.493 16.6056 44.5183 15.3261C43.6374 15.1647 42.7333 15.0695 41.8058 15.0695C33.4836 15.0695 26.7363 21.8167 26.7363 30.1389C26.7363 38.4611 33.4836 45.2083 41.8058 45.2083C42.7333 45.2083 43.6374 45.1131 44.5183 44.9517C37.493 43.6722 32.1613 37.5336 32.1613 30.1389Z" fill="#D5DBE1"/>
<path d="M13.3828 16.3895L14.7577 15.0146L17.5076 17.7645L16.1327 19.1394L13.3828 16.3895Z" fill="#A4AFC1"/>
<path d="M5.47656 8.4873L6.85149 7.11237L9.60135 9.86223L8.22642 11.2372L5.47656 8.4873Z" fill="#A4AFC1"/>
<path d="M13.7266 9.85864L16.4764 7.10878L17.8514 8.48371L15.1015 11.2336L13.7266 9.85864Z" fill="#A4AFC1"/>
<path d="M5.82031 17.7648L8.57017 15.0149L9.9451 16.3898L7.19524 19.1397L5.82031 17.7648Z" fill="#A4AFC1"/>
<path d="M59.7643 55.3525C58.1563 55.3525 56.8477 54.0439 56.8477 52.4358C56.8477 50.8278 58.1563 49.5192 59.7643 49.5192C61.3724 49.5192 62.681 50.8278 62.681 52.4358C62.681 54.0439 61.3724 55.3525 59.7643 55.3525ZM59.7643 51.4636C59.2296 51.4636 58.7921 51.9011 58.7921 52.4358C58.7921 52.9706 59.2296 53.4081 59.7643 53.4081C60.299 53.4081 60.7365 52.9706 60.7365 52.4358C60.7365 51.9011 60.299 51.4636 59.7643 51.4636Z" fill="#A4AFC1"/>
<path d="M28.1938 54.4445C37.3218 54.4445 44.7216 47.0447 44.7216 37.9167C44.7216 28.7887 37.3218 21.3889 28.1938 21.3889C19.0658 21.3889 11.666 28.7887 11.666 37.9167C11.666 47.0447 19.0658 54.4445 28.1938 54.4445Z" fill="#FEB46D"/>
<path d="M17.616 37.9167C17.616 29.8064 23.463 23.0728 31.1688 21.6709C30.2024 21.4939 29.2107 21.3889 28.1938 21.3889C19.0666 21.3889 11.666 28.7895 11.666 37.9167C11.666 47.0439 19.0666 54.4445 28.1938 54.4445C29.2107 54.4445 30.2024 54.3395 31.1688 54.1625C23.463 52.7606 17.616 46.027 17.616 37.9167Z" fill="#FF6600"/>
<path d="M28.1938 54.4445C19.0821 54.4445 11.666 47.0303 11.666 37.9167C11.666 28.8031 19.0821 21.3889 28.1938 21.3889C37.3055 21.3889 44.7216 28.8031 44.7216 37.9167C44.7216 47.0303 37.3074 54.4445 28.1938 54.4445ZM28.1938 24.3056C20.6902 24.3056 14.5827 30.4131 14.5827 37.9167C14.5827 45.4203 20.6902 51.5278 28.1938 51.5278C35.6974 51.5278 41.8049 45.4203 41.8049 37.9167C41.8049 30.4131 35.6994 24.3056 28.1938 24.3056Z" fill="black"/>
<path d="M48.2476 45.3639L47.1081 42.6786C52.1559 40.5358 55.4168 35.6144 55.4168 30.1389C55.4168 22.6353 49.3093 16.5278 41.8056 16.5278C38.8656 16.5278 36.0598 17.4514 33.6856 19.1975L31.957 16.8505C34.8329 14.7311 38.2395 13.6111 41.8056 13.6111C50.9193 13.6111 58.3334 21.0253 58.3334 30.1389C58.3334 36.7889 54.3745 42.7641 48.2476 45.3639Z" fill="black"/>
<path d="M28.932 44.7222H24.7904V41.8055H28.932C29.597 41.8055 30.1376 41.265 30.1376 40.6C30.1376 39.9155 29.597 39.375 28.932 39.375H27.4543C25.1812 39.375 23.332 37.5258 23.332 35.2527C23.332 32.9602 25.1812 31.1111 27.4543 31.1111H31.5959V34.0278H27.4543C26.7893 34.0278 26.2487 34.5683 26.2487 35.2333C26.2487 35.9178 26.7893 36.4583 27.4543 36.4583H28.932C31.2051 36.4583 33.0543 38.3075 33.0543 40.5805C33.0543 42.873 31.2051 44.7222 28.932 44.7222Z" fill="black"/>
<path d="M26.7344 29.6527H29.651V32.5694H26.7344V29.6527Z" fill="black"/>
<path d="M26.7344 43.2638H29.651V46.1805H26.7344V43.2638Z" fill="black"/>
</svg>
