<svg width="70" height="70" viewBox="0 0 70 70" fill="none" xmlns="http://www.w3.org/2000/svg">
<path d="M16.2889 61.8974C29.7386 61.8974 38.9747 68.8644 45.4555 68.8644C51.9364 68.8644 65.5475 65.1388 65.5475 35.3247C65.5475 5.51049 47.2367 1.13354 40.1083 1.13354C6.72805 1.13354 -7.53057 61.8974 16.2889 61.8974Z" fill="#EFEFEF"/>
<path d="M62.1602 14.9382L63.5351 13.5633L66.2849 16.3132L64.91 17.6881L62.1602 14.9382Z" fill="#A4AFC1"/>
<path d="M54.2559 7.03223L55.6308 5.6573L58.3806 8.40716L57.0057 9.78209L54.2559 7.03223Z" fill="#A4AFC1"/>
<path d="M62.1621 8.75171L64.912 6.00185L66.2869 7.37678L63.537 10.1266L62.1621 8.75171Z" fill="#A4AFC1"/>
<path d="M52.9861 54.9306H17.0139C14.8653 54.9306 13.125 53.1903 13.125 51.0417V21.875H56.875V51.0417C56.875 53.1903 55.1347 54.9306 52.9861 54.9306Z" fill="white"/>
<path d="M56.875 21.8749H13.125V18.9582C13.125 16.8096 14.8653 15.0693 17.0139 15.0693H52.9861C55.1347 15.0693 56.875 16.8096 56.875 18.9582V21.8749Z" fill="#FEB46D"/>
<path d="M17.9861 51.0417V21.875H13.125V51.0417C13.125 53.1903 14.8653 54.9306 17.0139 54.9306H21.875C19.7264 54.9306 17.9861 53.1903 17.9861 51.0417Z" fill="#D5DBE1"/>
<path d="M21.3889 15.0693H17.0139C14.8653 15.0693 13.125 16.8096 13.125 18.9582V21.8749H17.5V18.9582C17.5 16.8096 19.2403 15.0693 21.3889 15.0693Z" fill="#FF6600"/>
<path d="M36.2157 40.3472H28.681C27.876 40.3472 27.2227 39.6939 27.2227 38.8889V32.5694C27.2227 31.7644 27.876 31.1111 28.681 31.1111H36.2157C38.7629 31.1111 40.8338 33.1819 40.8338 35.7291C40.8338 38.2764 38.7629 40.3472 36.2157 40.3472ZM30.1393 37.4305H36.2157C37.1529 37.4305 37.9171 36.6664 37.9171 35.7291C37.9171 34.7919 37.1529 34.0278 36.2157 34.0278H30.1393V37.4305Z" fill="black"/>
<path d="M38.1602 46.6668H28.681C27.876 46.6668 27.2227 46.0134 27.2227 45.2084V38.889C27.2227 38.084 27.876 37.4307 28.681 37.4307H38.1602C40.7074 37.4307 42.7782 39.5015 42.7782 42.0487C42.7782 44.5959 40.7074 46.6668 38.1602 46.6668ZM30.1393 43.7501H38.1602C39.0974 43.7501 39.8615 42.9859 39.8615 42.0487C39.8615 41.1115 39.0974 40.3473 38.1602 40.3473H30.1393V43.7501Z" fill="black"/>
<path d="M30.1387 27.2222H33.0553V34.0277H30.1387V27.2222Z" fill="black"/>
<path d="M35 27.2222H37.9167V34.0277H35V27.2222Z" fill="black"/>
<path d="M35 43.75H37.9167V50.5556H35V43.75Z" fill="black"/>
<path d="M30.1387 43.75H33.0553V50.5556H30.1387V43.75Z" fill="black"/>
<path d="M52.9855 56.3889H17.0132C14.0635 56.3889 11.666 53.9914 11.666 51.0416V18.9583C11.666 16.0086 14.0635 13.6111 17.0132 13.6111H52.9855C55.9352 13.6111 58.3327 16.0086 58.3327 18.9583V51.0416C58.3327 53.9914 55.9352 56.3889 52.9855 56.3889ZM17.0132 16.5278C15.6735 16.5278 14.5827 17.6186 14.5827 18.9583V51.0416C14.5827 52.3814 15.6735 53.4722 17.0132 53.4722H52.9855C54.3252 53.4722 55.416 52.3814 55.416 51.0416V18.9583C55.416 17.6186 54.3252 16.5278 52.9855 16.5278H17.0132Z" fill="black"/>
<path d="M13.125 20.4167H56.875V23.3334H13.125V20.4167Z" fill="black"/>
<path d="M3.88867 53.4722H66.1109V56.3888H3.88867V53.4722Z" fill="black"/>
</svg>
