<svg width="70" height="70" viewBox="0 0 70 70" fill="none" xmlns="http://www.w3.org/2000/svg">
<path d="M61.8889 53.7113C61.8889 40.2615 68.8558 31.0254 68.8558 24.5446C68.8558 18.0637 65.1303 4.45264 35.3161 4.45264C5.50194 4.45264 1.125 22.7635 1.125 29.8918C1.125 63.2721 61.8889 77.5307 61.8889 53.7113Z" fill="#EFEFEF"/>
<path d="M54.2461 5.08789L55.621 3.71296L58.3709 6.46282L56.996 7.83775L54.2461 5.08789Z" fill="#A4AFC1"/>
<path d="M62.1523 12.9941L63.5273 11.6192L66.2771 14.3691L64.9022 15.744L62.1523 12.9941Z" fill="#A4AFC1"/>
<path d="M61.8086 6.46338L64.5585 3.71352L65.9334 5.08845L63.1835 7.83831L61.8086 6.46338Z" fill="#A4AFC1"/>
<path d="M24.7834 51.0417C22.6445 51.0417 20.8945 49.2917 20.8945 47.1528V17.0139C20.8945 14.875 22.6445 13.125 24.7834 13.125H45.2001C47.339 13.125 49.089 14.875 49.089 17.0139V47.1528C49.089 49.2917 47.339 51.0417 45.2001 51.0417H24.7834Z" fill="#F3F3F1"/>
<path d="M41.3099 25.7641H28.671C27.5977 25.7641 26.7266 24.8929 26.7266 23.8196V20.9029C26.7266 19.8296 27.5977 18.9585 28.671 18.9585H41.3099C42.3832 18.9585 43.2543 19.8296 43.2543 20.9029V23.8196C43.2543 24.8929 42.3832 25.7641 41.3099 25.7641Z" fill="#FEB46D"/>
<path d="M26.7266 46.1807H43.2543V56.8751H26.7266V46.1807Z" fill="#FEB46D"/>
<path d="M25.2695 47.1528V17.0139C25.2695 14.875 27.0195 13.125 29.1584 13.125H24.7834C22.6445 13.125 20.8945 14.875 20.8945 17.0139V47.1528C20.8945 49.2917 22.6445 51.0417 24.7834 51.0417H29.1584C27.0195 51.0417 25.2695 49.2917 25.2695 47.1528Z" fill="#D5DBE1"/>
<path d="M31.1016 23.8196V20.9029C31.1016 19.8296 31.9727 18.9585 33.046 18.9585H28.671C27.5977 18.9585 26.7266 19.8296 26.7266 20.9029V23.8196C26.7266 24.8929 27.5977 25.7641 28.671 25.7641H33.046C31.9727 25.7641 31.1016 24.8929 31.1016 23.8196Z" fill="#FF6600"/>
<path d="M26.7266 46.1807H31.1016V56.8751H26.7266V46.1807Z" fill="#FF6600"/>
<path d="M45.2014 52.4998H43.2569V49.5832H45.2014C46.5411 49.5832 47.6319 48.4923 47.6319 47.1526V17.0137C47.6319 15.674 46.5411 14.5832 45.2014 14.5832H24.7847C23.445 14.5832 22.3542 15.674 22.3542 17.0137V47.1526C22.3542 48.4923 23.445 49.5832 24.7847 49.5832H26.7292V52.4998H24.7847C21.835 52.4998 19.4375 50.1023 19.4375 47.1526V17.0137C19.4375 14.064 21.835 11.6665 24.7847 11.6665H45.2014C48.1511 11.6665 50.5486 14.064 50.5486 17.0137V47.1526C50.5486 50.1023 48.1511 52.4998 45.2014 52.4998Z" fill="black"/>
<path d="M41.3112 27.2222H28.6723C26.7959 27.2222 25.2695 25.6958 25.2695 23.8194V20.9028C25.2695 19.0264 26.7959 17.5 28.6723 17.5H41.3112C43.1876 17.5 44.714 19.0264 44.714 20.9028V23.8194C44.714 25.6958 43.1876 27.2222 41.3112 27.2222ZM28.6723 20.4167C28.404 20.4167 28.1862 20.6344 28.1862 20.9028V23.8194C28.1862 24.0878 28.404 24.3056 28.6723 24.3056H41.3112C41.5795 24.3056 41.7973 24.0878 41.7973 23.8194V20.9028C41.7973 20.6344 41.5795 20.4167 41.3112 20.4167H28.6723Z" fill="black"/>
<path d="M27.214 35.0002C28.2879 35.0002 29.1584 34.1297 29.1584 33.0558C29.1584 31.9819 28.2879 31.1113 27.214 31.1113C26.1401 31.1113 25.2695 31.9819 25.2695 33.0558C25.2695 34.1297 26.1401 35.0002 27.214 35.0002Z" fill="black"/>
<path d="M34.9913 35.0002C36.0652 35.0002 36.9358 34.1297 36.9358 33.0558C36.9358 31.9819 36.0652 31.1113 34.9913 31.1113C33.9174 31.1113 33.0469 31.9819 33.0469 33.0558C33.0469 34.1297 33.9174 35.0002 34.9913 35.0002Z" fill="black"/>
<path d="M42.7687 35.0002C43.8426 35.0002 44.7131 34.1297 44.7131 33.0558C44.7131 31.9819 43.8426 31.1113 42.7687 31.1113C41.6948 31.1113 40.8242 31.9819 40.8242 33.0558C40.8242 34.1297 41.6948 35.0002 42.7687 35.0002Z" fill="black"/>
<path d="M27.214 42.7776C28.2879 42.7776 29.1584 41.907 29.1584 40.8331C29.1584 39.7592 28.2879 38.8887 27.214 38.8887C26.1401 38.8887 25.2695 39.7592 25.2695 40.8331C25.2695 41.907 26.1401 42.7776 27.214 42.7776Z" fill="black"/>
<path d="M34.9913 42.7776C36.0652 42.7776 36.9358 41.907 36.9358 40.8331C36.9358 39.7592 36.0652 38.8887 34.9913 38.8887C33.9174 38.8887 33.0469 39.7592 33.0469 40.8331C33.0469 41.907 33.9174 42.7776 34.9913 42.7776Z" fill="black"/>
<path d="M42.7687 42.7776C43.8426 42.7776 44.7131 41.907 44.7131 40.8331C44.7131 39.7592 43.8426 38.8887 42.7687 38.8887C41.6948 38.8887 40.8242 39.7592 40.8242 40.8331C40.8242 41.907 41.6948 42.7776 42.7687 42.7776Z" fill="black"/>
<path d="M43.2556 58.3333H26.7279C25.9229 58.3333 25.2695 57.6799 25.2695 56.8749V46.1805C25.2695 45.3755 25.9229 44.7222 26.7279 44.7222H43.2556C44.0606 44.7222 44.714 45.3755 44.714 46.1805V56.8749C44.714 57.6799 44.0606 58.3333 43.2556 58.3333ZM28.1862 55.4166H41.7973V47.6388H28.1862V55.4166Z" fill="black"/>
<path d="M23.3242 44.7222H46.6576V47.6388H23.3242V44.7222Z" fill="black"/>
</svg>
