<svg width="100" height="100" viewBox="0 0 100 100" fill="none" xmlns="http://www.w3.org/2000/svg">
<path d="M74.5303 25.4695C68.0264 18.9656 59.2023 15.3135 50.0033 15.3135C40.8041 15.3135 31.9833 18.9697 25.4763 25.4735C18.9724 31.9774 15.3203 40.8015 15.3203 50.0005C15.3203 59.1995 18.9726 68.0235 25.4763 74.5275C31.9841 81.0314 40.8043 84.6875 50.0033 84.6875C59.2025 84.6875 68.0263 81.0352 74.5303 74.5315C81.0303 68.0237 84.6783 59.1995 84.6783 50.0005C84.6783 40.8015 81.0299 31.9775 74.5303 25.4695ZM71.2178 28.782C76.5459 34.1297 79.6631 41.286 79.9561 48.829C80.2452 56.372 77.6827 63.747 72.7803 69.485L30.5143 27.204C36.2565 22.3017 43.6313 19.7431 51.1743 20.036C58.7173 20.3289 65.8733 23.4501 71.2173 28.7821L71.2178 28.782ZM28.7798 71.22C23.4751 65.8762 20.3696 58.736 20.0806 51.212C19.7916 43.6886 22.3384 36.329 27.2173 30.595L69.4833 72.798C63.7411 77.7003 56.3663 80.2589 48.8233 79.966C41.2803 79.673 34.1243 76.5519 28.7803 71.2199L28.7798 71.22Z" fill="#FF3B2E"/>
</svg>
