<svg width="70" height="70" viewBox="0 0 70 70" fill="none" xmlns="http://www.w3.org/2000/svg">
<g clip-path="url(#clip0_6845_30319)">
<path d="M6.69327 46.4392C18.4785 52.92 23.2152 63.4744 28.893 66.5972C34.5727 69.72 48.2947 73.012 62.6602 46.8864C77.0258 20.7608 63.0899 8.10445 56.8424 4.66862C27.5941 -11.4119 -14.1784 34.9631 6.69327 46.4392Z" fill="#EFEFEF"/>
<path d="M56.8754 21.5094C56.8754 28.4142 48.6115 35.4861 48.6115 35.4861C48.6115 35.4861 40.3477 28.4161 40.3477 21.5094C40.3477 16.8778 44.0479 13.125 48.6115 13.125C53.1752 13.125 56.8754 16.8797 56.8754 21.5094Z" fill="#FEB46D"/>
<path d="M21.875 47.0323C21.875 50.9348 17.5 54.9306 17.5 54.9306C17.5 54.9306 13.125 50.9348 13.125 47.0323C13.125 44.4151 15.0831 42.2917 17.5 42.2917C19.9169 42.2917 21.875 44.4131 21.875 47.0323Z" fill="white"/>
<path d="M44.7227 21.5094C44.7227 17.6517 47.3049 14.4375 50.799 13.4594C50.0971 13.2631 49.3738 13.125 48.6115 13.125C44.0479 13.125 40.3477 16.8797 40.3477 21.5094C40.3477 28.4142 48.6115 35.4861 48.6115 35.4861C48.6115 35.4861 49.5565 34.6714 50.799 33.3433C48.351 30.73 44.7227 26.0906 44.7227 21.5094Z" fill="#FF6600"/>
<path d="M19.6875 42.949C19.0419 42.5426 18.3011 42.2917 17.5 42.2917C15.0831 42.2917 13.125 44.4131 13.125 47.0323C13.125 50.9348 17.5 54.9306 17.5 54.9306C17.5 54.9306 18.5928 53.9312 19.6875 52.4437C18.5928 50.9581 17.5 48.9826 17.5 47.0323C17.5 45.2823 18.3847 43.7695 19.6875 42.949Z" fill="#D5DBE1"/>
<path d="M48.6999 48.1251C47.0918 48.1251 45.7832 46.8165 45.7832 45.2084C45.7832 43.6004 47.0918 42.2917 48.6999 42.2917C50.3079 42.2917 51.6165 43.6004 51.6165 45.2084C51.6165 46.8165 50.3099 48.1251 48.6999 48.1251ZM48.6999 44.2362C48.1632 44.2362 47.7276 44.6737 47.7276 45.2084C47.7276 45.7431 48.1632 46.1806 48.6999 46.1806C49.2365 46.1806 49.6721 45.7431 49.6721 45.2084C49.6721 44.6737 49.2365 44.2362 48.6999 44.2362Z" fill="#A4AFC1"/>
<path d="M58.1289 1.15601L59.5478 -0.173492L62.2068 2.66432L60.7879 3.99382L58.1289 1.15601Z" fill="#A4AFC1"/>
<path d="M65.7598 9.37402L67.1796 8.04556L69.8366 10.8853L68.4167 12.2138L65.7598 9.37402Z" fill="#A4AFC1"/>
<path d="M57.4629 10.4634L60.3026 7.80646L61.6311 9.22633L58.7914 11.8833L57.4629 10.4634Z" fill="#A4AFC1"/>
<path d="M65.627 2.82812L68.4667 0.171202L69.7952 1.59108L66.9554 4.248L65.627 2.82812Z" fill="#A4AFC1"/>
<path d="M48.6109 36.9445C48.2726 36.9445 47.9362 36.8279 47.664 36.5945C47.3042 36.2873 38.8887 29.0015 38.8887 21.5095C38.8887 16.0826 43.2501 11.6667 48.6109 11.6667C53.9717 11.6667 58.3331 16.0826 58.3331 21.5095C58.3331 29.0015 49.9176 36.2873 49.5578 36.5945C49.2856 36.8279 48.9492 36.9445 48.6109 36.9445ZM48.6109 14.5834C44.8581 14.5834 41.8053 17.6906 41.8053 21.5095C41.8053 26.3356 46.542 31.4787 48.6109 33.4951C50.6798 31.4787 55.4164 26.3356 55.4164 21.5095C55.4164 17.6906 52.3637 14.5834 48.6109 14.5834Z" fill="black"/>
<path d="M48.6115 25.2778C46.4668 25.2778 44.7227 23.5336 44.7227 21.3889C44.7227 19.2442 46.4668 17.5 48.6115 17.5C50.7563 17.5 52.5004 19.2442 52.5004 21.3889C52.5004 23.5336 50.7563 25.2778 48.6115 25.2778ZM48.6115 20.4167C48.0749 20.4167 47.6393 20.8542 47.6393 21.3889C47.6393 21.9236 48.0749 22.3611 48.6115 22.3611C49.1482 22.3611 49.5838 21.9236 49.5838 21.3889C49.5838 20.8542 49.1482 20.4167 48.6115 20.4167Z" fill="black"/>
<path d="M17.4993 56.3888C17.1474 56.3888 16.7955 56.2624 16.5155 56.0077C16.3191 55.8269 11.666 51.5258 11.666 47.0321C11.666 43.6138 14.2832 40.8333 17.4993 40.8333C20.7155 40.8333 23.3327 43.6138 23.3327 47.0321C23.3327 51.5277 18.6796 55.8269 18.4832 56.0077C18.2032 56.2624 17.8513 56.3888 17.4993 56.3888ZM17.4993 43.7499C15.8913 43.7499 14.5827 45.2219 14.5827 47.0321C14.5827 49.0835 16.2374 51.4169 17.4974 52.8402C18.7593 51.411 20.416 49.0719 20.416 47.0321C20.416 45.2219 19.1074 43.7499 17.4993 43.7499Z" fill="black"/>
<path d="M42.105 58.3332H17.5V55.4166H42.105C42.3811 55.4166 42.5036 55.2474 42.5581 55.1054C42.6125 54.9635 42.6358 54.7554 42.4317 54.5727L29.4992 42.8691C28.4472 41.9202 28.0972 40.4502 28.6067 39.126C29.1181 37.7999 30.3644 36.9443 31.7839 36.9443H48.6111V39.861H31.7839C31.5078 39.861 31.3853 40.0302 31.3308 40.1721C31.2764 40.3141 31.2531 40.5221 31.4572 40.7049L44.3897 52.4085C45.4417 53.3574 45.7917 54.8274 45.2822 56.1516C44.7708 57.4777 43.5244 58.3332 42.105 58.3332Z" fill="black"/>
</g>
<defs>
<clipPath id="clip0_6845_30319">
<rect width="70" height="70" fill="white"/>
</clipPath>
</defs>
</svg>
