<svg width="70" height="70" viewBox="0 0 70 70" fill="none" xmlns="http://www.w3.org/2000/svg">
<path d="M61.8967 16.2884C61.8967 29.7381 68.8636 38.9742 68.8636 45.4551C68.8636 51.9359 65.1381 65.547 35.3239 65.547C5.50976 65.547 1.13281 47.2362 1.13281 40.1078C1.13281 6.72756 61.8967 -7.53105 61.8967 16.2884Z" fill="#EFEFEF"/>
<path d="M61.2507 11.6668C59.6426 11.6668 58.334 10.3582 58.334 8.75016C58.334 7.14211 59.6426 5.8335 61.2507 5.8335C62.8587 5.8335 64.1673 7.14211 64.1673 8.75016C64.1673 10.3582 62.8587 11.6668 61.2507 11.6668ZM61.2507 7.77794C60.714 7.77794 60.2784 8.21544 60.2784 8.75016C60.2784 9.28489 60.714 9.72239 61.2507 9.72239C61.7873 9.72239 62.2229 9.28489 62.2229 8.75016C62.2229 8.21544 61.7873 7.77794 61.2507 7.77794Z" fill="#A4AFC1"/>
<path d="M56.875 22.8473V44.2362H13.125V22.8473C13.125 21.7778 14 20.9028 15.0694 20.9028H54.9306C56 20.9028 56.875 21.7778 56.875 22.8473Z" fill="white"/>
<path d="M29.1669 17.9861C30.5092 17.9861 31.5974 16.8979 31.5974 15.5556C31.5974 14.2132 30.5092 13.125 29.1669 13.125C27.8245 13.125 26.7363 14.2132 26.7363 15.5556C26.7363 16.8979 27.8245 17.9861 29.1669 17.9861Z" fill="#FEB46D"/>
<path d="M40.8329 29.6526C42.1753 29.6526 43.2635 28.5644 43.2635 27.2221C43.2635 25.8797 42.1753 24.7915 40.8329 24.7915C39.4905 24.7915 38.4023 25.8797 38.4023 27.2221C38.4023 28.5644 39.4905 29.6526 40.8329 29.6526Z" fill="#FEB46D"/>
<path d="M38.4019 51.0415C38.4019 51.0415 38.8783 54.4734 41.2797 56.8748H41.3186H28.6797C31.1102 54.4443 31.5575 51.0415 31.5575 51.0415H38.4019Z" fill="#FEB46D"/>
<path d="M56.875 44.2363V49.0974C56.875 50.1669 56 51.0419 54.9306 51.0419H15.0694C14 51.0419 13.125 50.1669 13.125 49.0974V44.2363H56.875Z" fill="#FEB46D"/>
<path d="M19.4444 20.9028H15.0694C14 20.9028 13.125 21.7778 13.125 22.8473V44.2362H17.5V22.8473C17.5 21.7778 18.375 20.9028 19.4444 20.9028Z" fill="#D5DBE1"/>
<path d="M31.1113 15.5556C31.1113 15.1861 31.2066 14.8458 31.3544 14.5328C30.9655 13.7064 30.1391 13.125 29.1669 13.125C27.8252 13.125 26.7363 14.2139 26.7363 15.5556C26.7363 16.8972 27.8252 17.9861 29.1669 17.9861C30.1391 17.9861 30.9655 17.4047 31.3544 16.5783C31.2066 16.2653 31.1113 15.925 31.1113 15.5556Z" fill="#FF6600"/>
<path d="M42.7773 27.2221C42.7773 26.8526 42.8726 26.5123 43.0204 26.1993C42.6315 25.3729 41.8051 24.7915 40.8329 24.7915C39.4912 24.7915 38.4023 25.8804 38.4023 27.2221C38.4023 28.5637 39.4912 29.6526 40.8329 29.6526C41.8051 29.6526 42.6315 29.0712 43.0204 28.2448C42.8726 27.9318 42.7773 27.5915 42.7773 27.2221Z" fill="#FF6600"/>
<path d="M31.5575 51.0415C31.5575 51.0415 31.1102 54.4443 28.6797 56.8748H33.0547C35.4852 54.4443 35.9325 51.0415 35.9325 51.0415H31.5575Z" fill="#FF6600"/>
<path d="M17.5 49.0974V44.2363H13.125V49.0974C13.125 50.1669 14 51.0419 15.0694 51.0419H19.4444C18.375 51.0419 17.5 50.1669 17.5 49.0974Z" fill="#FF6600"/>
<path d="M29.1662 19.4443C27.0215 19.4443 25.2773 17.7001 25.2773 15.5554C25.2773 13.4107 27.0215 11.6665 29.1662 11.6665C31.311 11.6665 33.0551 13.4107 33.0551 15.5554C33.0551 17.7001 31.311 19.4443 29.1662 19.4443ZM29.1662 14.5832C28.6296 14.5832 28.194 15.0207 28.194 15.5554C28.194 16.0901 28.6296 16.5276 29.1662 16.5276C29.7029 16.5276 30.1385 16.0901 30.1385 15.5554C30.1385 15.0207 29.7029 14.5832 29.1662 14.5832Z" fill="black"/>
<path d="M40.8342 31.1113C38.6895 31.1113 36.9453 29.3671 36.9453 27.2224C36.9453 25.0777 38.6895 23.3335 40.8342 23.3335C42.9789 23.3335 44.7231 25.0777 44.7231 27.2224C44.7231 29.3671 42.9789 31.1113 40.8342 31.1113ZM40.8342 26.2502C40.2975 26.2502 39.862 26.6877 39.862 27.2224C39.862 27.7571 40.2975 28.1946 40.8342 28.1946C41.3709 28.1946 41.8064 27.7571 41.8064 27.2224C41.8064 26.6877 41.3709 26.2502 40.8342 26.2502Z" fill="black"/>
<path d="M27.5215 28.7661L40.1713 12.2465L42.4871 14.0198L29.8373 30.5394L27.5215 28.7661Z" fill="black"/>
<path d="M54.9299 52.4999H15.0688C13.1924 52.4999 11.666 50.9735 11.666 49.0971V22.8471C11.666 20.9707 13.1924 19.4443 15.0688 19.4443H19.9299V22.361H15.0688C14.8005 22.361 14.5827 22.5788 14.5827 22.8471V49.0971C14.5827 49.3654 14.8005 49.5832 15.0688 49.5832H54.9299C55.1982 49.5832 55.416 49.3654 55.416 49.0971V22.8471C55.416 22.5788 55.1982 22.361 54.9299 22.361H50.0688V19.4443H54.9299C56.8063 19.4443 58.3327 20.9707 58.3327 22.8471V49.0971C58.3327 50.9735 56.8063 52.4999 54.9299 52.4999Z" fill="black"/>
<path d="M13.125 42.7778H56.875V45.6945H13.125V42.7778Z" fill="black"/>
<path d="M41.32 58.3332H28.6811C28.092 58.3332 27.5592 57.9774 27.3336 57.433C27.1081 56.8885 27.2325 56.2605 27.6506 55.8443C29.6748 53.8202 30.1103 50.8802 30.1142 50.853L33.0056 51.2321C32.99 51.3468 32.7197 53.3049 31.5589 55.4166H38.4092C37.26 53.3166 36.9742 51.3566 36.9586 51.2418L39.8461 50.8374C39.85 50.8666 40.2759 53.6724 42.1484 55.6752C42.5295 55.9396 42.7784 56.3771 42.7784 56.8749C42.7784 57.6799 42.125 58.3332 41.32 58.3332Z" fill="black"/>
</svg>
