<svg width="70" height="70" viewBox="0 0 70 70" fill="none" xmlns="http://www.w3.org/2000/svg">
<path d="M16.2889 61.8974C29.7386 61.8974 38.9747 68.8644 45.4555 68.8644C51.9364 68.8644 65.5475 65.1388 65.5475 35.3247C65.5475 5.51049 47.2367 1.13354 40.1083 1.13354C6.72805 1.13354 -7.53057 61.8974 16.2889 61.8974Z" fill="#EFEFEF"/>
<path d="M55.4167 13.6112C53.8086 13.6112 52.5 12.3026 52.5 10.6945C52.5 9.08644 53.8086 7.77783 55.4167 7.77783C57.0247 7.77783 58.3333 9.08644 58.3333 10.6945C58.3333 12.3026 57.0247 13.6112 55.4167 13.6112ZM55.4167 9.72228C54.88 9.72228 54.4444 10.1598 54.4444 10.6945C54.4444 11.2292 54.88 11.6667 55.4167 11.6667C55.9533 11.6667 56.3889 11.2292 56.3889 10.6945C56.3889 10.1598 55.9533 9.72228 55.4167 9.72228Z" fill="#A4AFC1"/>
<path d="M54.9306 20.9028C56 20.9028 56.875 21.7778 56.875 22.8473V44.2362H13.125V22.8473C13.125 21.7778 14 20.9028 15.0694 20.9028H54.9306Z" fill="white"/>
<path d="M13.125 44.2361H56.875V49.0972C56.875 50.1705 56.0039 51.0416 54.9306 51.0416H15.0694C13.9961 51.0416 13.125 50.1705 13.125 49.0972V44.2361Z" fill="#FEB46D"/>
<path d="M38.4029 51.0417C38.4029 51.0417 38.8793 54.4737 41.2807 56.8751H41.3196H28.6807C31.1112 54.4445 31.5584 51.0417 31.5584 51.0417H38.4029Z" fill="#FEB46D"/>
<path d="M44.7225 29.6529C46.0649 29.6529 47.1531 28.5647 47.1531 27.2223C47.1531 25.8799 46.0649 24.7917 44.7225 24.7917C43.3802 24.7917 42.292 25.8799 42.292 27.2223C42.292 28.5647 43.3802 29.6529 44.7225 29.6529Z" fill="#FEB46D"/>
<path d="M36.9442 39.375C38.2866 39.375 39.3748 38.2868 39.3748 36.9445C39.3748 35.6021 38.2866 34.5139 36.9442 34.5139C35.6019 34.5139 34.5137 35.6021 34.5137 36.9445C34.5137 38.2868 35.6019 39.375 36.9442 39.375Z" fill="#FEB46D"/>
<path d="M25.2782 33.5418C26.6206 33.5418 27.7088 32.4536 27.7088 31.1112C27.7088 29.7689 26.6206 28.6807 25.2782 28.6807C23.9359 28.6807 22.8477 29.7689 22.8477 31.1112C22.8477 32.4536 23.9359 33.5418 25.2782 33.5418Z" fill="#FEB46D"/>
<path d="M19.4444 20.9028H15.0694C14 20.9028 13.125 21.7778 13.125 22.8473V44.2362H17.5V22.8473C17.5 21.7778 18.375 20.9028 19.4444 20.9028Z" fill="#D5DBE1"/>
<path d="M17.5 49.0972V44.2361H13.125V49.0972C13.125 50.1705 13.9961 51.0416 15.0694 51.0416H19.4444C18.3711 51.0416 17.5 50.1705 17.5 49.0972Z" fill="#FF6600"/>
<path d="M31.5584 51.0417C31.5584 51.0417 31.1112 54.4445 28.6807 56.8751H33.0557C35.4862 54.4445 35.9334 51.0417 35.9334 51.0417H31.5584Z" fill="#FF6600"/>
<path d="M46.667 27.2223C46.667 26.8529 46.7623 26.5126 46.91 26.1995C46.5212 25.3731 45.6948 24.7917 44.7225 24.7917C43.3809 24.7917 42.292 25.8806 42.292 27.2223C42.292 28.564 43.3809 29.6529 44.7225 29.6529C45.6948 29.6529 46.5212 29.0715 46.91 28.2451C46.7623 27.932 46.667 27.5917 46.667 27.2223Z" fill="#FF6600"/>
<path d="M38.8887 36.9445C38.8887 36.575 38.9839 36.2348 39.1317 35.9217C38.7428 35.0953 37.9164 34.5139 36.9442 34.5139C35.6026 34.5139 34.5137 35.6028 34.5137 36.9445C34.5137 38.2861 35.6026 39.375 36.9442 39.375C37.9164 39.375 38.7428 38.7936 39.1317 37.9672C38.9839 37.6542 38.8887 37.3139 38.8887 36.9445Z" fill="#FF6600"/>
<path d="M27.2227 31.1112C27.2227 30.7418 27.3179 30.4015 27.4657 30.0884C27.0768 29.2621 26.2504 28.6807 25.2782 28.6807C23.9365 28.6807 22.8477 29.7696 22.8477 31.1112C22.8477 32.4529 23.9365 33.5418 25.2782 33.5418C26.2504 33.5418 27.0768 32.9604 27.4657 32.134C27.3179 31.8209 27.2227 31.4807 27.2227 31.1112Z" fill="#FF6600"/>
<path d="M44.7219 31.111C42.5772 31.111 40.833 29.3669 40.833 27.2221C40.833 25.0774 42.5772 23.3333 44.7219 23.3333C46.8666 23.3333 48.6108 25.0774 48.6108 27.2221C48.6108 29.3669 46.8666 31.111 44.7219 31.111ZM44.7219 26.2499C44.1852 26.2499 43.7497 26.6874 43.7497 27.2221C43.7497 27.7569 44.1852 28.1944 44.7219 28.1944C45.2586 28.1944 45.6941 27.7569 45.6941 27.2221C45.6941 26.6874 45.2586 26.2499 44.7219 26.2499Z" fill="black"/>
<path d="M36.9446 40.8334C34.7998 40.8334 33.0557 39.0893 33.0557 36.9446C33.0557 34.7998 34.7998 33.0557 36.9446 33.0557C39.0893 33.0557 40.8334 34.7998 40.8334 36.9446C40.8334 39.0893 39.0893 40.8334 36.9446 40.8334ZM36.9446 35.9723C36.4079 35.9723 35.9723 36.4098 35.9723 36.9446C35.9723 37.4793 36.4079 37.9168 36.9446 37.9168C37.4812 37.9168 37.9168 37.4793 37.9168 36.9446C37.9168 36.4098 37.4812 35.9723 36.9446 35.9723Z" fill="black"/>
<path d="M25.2776 34.9999C23.1328 34.9999 21.3887 33.2558 21.3887 31.1111C21.3887 28.9663 23.1328 27.2222 25.2776 27.2222C27.4223 27.2222 29.1664 28.9663 29.1664 31.1111C29.1664 33.2558 27.4223 34.9999 25.2776 34.9999ZM25.2776 30.1388C24.7409 30.1388 24.3053 30.5763 24.3053 31.1111C24.3053 31.6458 24.7409 32.0833 25.2776 32.0833C25.8142 32.0833 26.2498 31.6458 26.2498 31.1111C26.2498 30.5763 25.8142 30.1388 25.2776 30.1388Z" fill="black"/>
<path d="M37.6318 33.7637L41.7924 28.5497L44.0732 30.3697L39.9127 35.5837L37.6318 33.7637Z" fill="black"/>
<path d="M27.2266 33.7002L28.5253 31.0851L35.0238 34.3126L33.7251 36.9277L27.2266 33.7002Z" fill="black"/>
<path d="M54.9309 52.4999H15.0698C13.1934 52.4999 11.667 50.9735 11.667 49.0971V22.8471C11.667 20.9707 13.1934 19.4443 15.0698 19.4443H54.9309C56.8073 19.4443 58.3337 20.9707 58.3337 22.8471V49.0971C58.3337 50.9735 56.8073 52.4999 54.9309 52.4999ZM15.0698 22.361C14.8053 22.361 14.5837 22.5827 14.5837 22.8471V49.0971C14.5837 49.3616 14.8053 49.5832 15.0698 49.5832H54.9309C55.1953 49.5832 55.417 49.3616 55.417 49.0971V22.8471C55.417 22.5827 55.1953 22.361 54.9309 22.361H15.0698Z" fill="black"/>
<path d="M13.125 42.7778H56.875V45.6945H13.125V42.7778Z" fill="black"/>
<path d="M41.3191 58.3332H28.6802C28.091 58.3332 27.5582 57.9774 27.3327 57.433C27.1071 56.8885 27.2316 56.2605 27.6496 55.8443C29.6738 53.8202 30.1093 50.8802 30.1132 50.853L33.0046 51.2321C32.9891 51.3468 32.7188 53.3049 31.5579 55.4166H38.4082C37.2591 53.3166 36.9732 51.3566 36.9577 51.2418L39.8452 50.8374C39.8491 50.8666 40.2749 53.6724 42.1474 55.6752C42.5285 55.9396 42.7774 56.3771 42.7774 56.8749C42.7774 57.6799 42.1241 58.3332 41.3191 58.3332Z" fill="black"/>
</svg>
