<svg width="70" height="71" viewBox="0 0 70 71" fill="none" xmlns="http://www.w3.org/2000/svg">
<path d="M53.7117 62.667C40.262 62.667 31.0259 69.6339 24.5451 69.6339C18.0642 69.6339 4.45312 65.9084 4.45312 36.0942C4.45312 6.28002 22.764 1.90308 29.8923 1.90308C63.2726 1.90308 77.5312 62.667 53.7117 62.667Z" fill="#EFEFEF"/>
<path d="M61.4727 7.57739L64.2225 4.82753L65.5974 6.20246L62.8476 8.95232L61.4727 7.57739Z" fill="#A4AFC1"/>
<path d="M62.1641 13.7729L63.539 12.398L66.2889 15.1479L64.9139 16.5228L62.1641 13.7729Z" fill="#A4AFC1"/>
<path d="M54.2617 5.86499L55.6366 4.49006L58.3865 7.23992L57.0116 8.61485L54.2617 5.86499Z" fill="#A4AFC1"/>
<path d="M56.875 47.9222V23.6167C56.875 21.4681 55.1347 19.7278 52.9861 19.7278H17.0139C14.8653 19.7278 13.125 21.4681 13.125 23.6167V47.9222C13.125 50.0708 14.8653 51.8111 17.0139 51.8111H52.9861C55.1347 51.8111 56.875 50.0708 56.875 47.9222Z" fill="#F3F3F1"/>
<path d="M13.125 42.0891H25.7639C27.9125 42.0891 29.6528 40.3488 29.6528 38.2002V33.3391C29.6528 31.1905 27.9125 29.4502 25.7639 29.4502H13.125V42.0891Z" fill="#FEB46D"/>
<path d="M45.6962 57.6446C51.871 57.6446 56.8767 52.6389 56.8767 46.464C56.8767 40.2892 51.871 35.2834 45.6962 35.2834C39.5213 35.2834 34.5156 40.2892 34.5156 46.464C34.5156 52.6389 39.5213 57.6446 45.6962 57.6446Z" fill="#FEB46D"/>
<path d="M17.5 47.9222V23.6167C17.5 21.4681 19.2403 19.7278 21.3889 19.7278H17.0139C14.8653 19.7278 13.125 21.4681 13.125 23.6167V47.9222C13.125 50.0708 14.8653 51.8111 17.0139 51.8111H21.3889C19.2403 51.8111 17.5 50.0708 17.5 47.9222Z" fill="#D5DBE1"/>
<path d="M13.125 29.4502H17.5V42.0891H13.125V29.4502Z" fill="#FF6600"/>
<path d="M38.8906 46.464C38.8906 41.039 42.7562 36.5182 47.8837 35.5012C47.1759 35.3612 46.4448 35.2834 45.6962 35.2834C39.5206 35.2834 34.5156 40.2884 34.5156 46.464C34.5156 52.6396 39.5206 57.6446 45.6962 57.6446C46.4448 57.6446 47.1759 57.5687 47.8837 57.4268C42.7562 56.4098 38.8906 51.889 38.8906 46.464Z" fill="#FF6600"/>
<path d="M27.7096 53.2695H17.0152C14.0655 53.2695 11.668 50.872 11.668 47.9223V23.6168C11.668 20.667 14.0655 18.2695 17.0152 18.2695H52.9874C55.9371 18.2695 58.3346 20.667 58.3346 23.6168V32.3668H55.418V23.6168C55.418 22.277 54.3271 21.1862 52.9874 21.1862H17.0152C15.6755 21.1862 14.5846 22.277 14.5846 23.6168V47.9223C14.5846 49.262 15.6755 50.3529 17.0152 50.3529H27.7096V53.2695Z" fill="black"/>
<path d="M25.7652 43.5473H13.1263C12.3213 43.5473 11.668 42.8939 11.668 42.0889V29.45C11.668 28.645 12.3213 27.9917 13.1263 27.9917H25.7652C28.7149 27.9917 31.1124 30.3892 31.1124 33.3389V38.2C31.1124 41.1498 28.7149 43.5473 25.7652 43.5473ZM14.5846 40.6306H25.7652C27.1049 40.6306 28.1957 39.5398 28.1957 38.2V33.3389C28.1957 31.9992 27.1049 30.9084 25.7652 30.9084H14.5846V40.6306Z" fill="black"/>
<path d="M21.3898 37.7141C22.4636 37.7141 23.3342 36.8435 23.3342 35.7696C23.3342 34.6958 22.4636 33.8252 21.3898 33.8252C20.3159 33.8252 19.4453 34.6958 19.4453 35.7696C19.4453 36.8435 20.3159 37.7141 21.3898 37.7141Z" fill="black"/>
<path d="M44.2344 49.5188H47.151V54.2419H44.2344V49.5188Z" fill="black"/>
<path d="M46.1 52.4355H41.8066V49.5188H46.1C46.3683 49.5188 46.6677 49.1921 46.6677 48.7216C46.6677 48.251 46.3683 47.9224 46.1 47.9224H45.2891C43.368 47.9224 41.8047 46.256 41.8047 44.2066C41.8047 42.1571 43.368 40.4927 45.2891 40.4927H49.5844V43.4093H45.2911C45.0227 43.4093 44.7233 43.736 44.7233 44.2066C44.7233 44.6771 45.0227 45.0057 45.2911 45.0057H46.1019C48.023 45.0057 49.5864 46.6721 49.5864 48.7216C49.5864 50.771 48.0211 52.4355 46.1 52.4355Z" fill="black"/>
<path d="M44.2344 38.6863H47.151V43.4093H44.2344V38.6863Z" fill="black"/>
<path d="M45.6936 59.103C38.7247 59.103 33.0547 53.433 33.0547 46.4641C33.0547 39.4952 38.7247 33.8252 45.6936 33.8252C52.6625 33.8252 58.3325 39.4952 58.3325 46.4641C58.3325 53.433 52.6625 59.103 45.6936 59.103ZM45.6936 36.7419C40.3327 36.7419 35.9714 41.1033 35.9714 46.4641C35.9714 51.8249 40.3327 56.1863 45.6936 56.1863C51.0544 56.1863 55.4158 51.8249 55.4158 46.4641C55.4158 41.1033 51.0544 36.7419 45.6936 36.7419Z" fill="black"/>
</svg>
