<svg width="70" height="70" viewBox="0 0 70 70" fill="none" xmlns="http://www.w3.org/2000/svg">
<path d="M22.4243 67.6704C35.3451 63.9391 46.1524 68.071 52.3785 66.2724C58.6046 64.4738 70.6485 57.118 62.3768 28.4724C54.1051 -0.173156 35.3024 0.705734 28.4521 2.68323C-3.61763 11.9446 -0.459855 74.2796 22.4243 67.6704Z" fill="#EFEFEF"/>
<path d="M61.2695 56.1953L64.0194 53.4455L65.3943 54.8204L62.6445 57.5702L61.2695 56.1953Z" fill="#A4AFC1"/>
<path d="M53.3633 64.0967L56.1131 61.3468L57.4881 62.7217L54.7382 65.4716L53.3633 64.0967Z" fill="#A4AFC1"/>
<path d="M61.6113 62.7241L62.9863 61.3492L65.7361 64.0991L64.3612 65.474L61.6113 62.7241Z" fill="#A4AFC1"/>
<path d="M9.10417 63.8963C7.49611 63.8963 6.1875 62.5877 6.1875 60.9797C6.1875 59.3716 7.49611 58.063 9.10417 58.063C10.7122 58.063 12.0208 59.3716 12.0208 60.9797C12.0208 62.5877 10.7122 63.8963 9.10417 63.8963ZM9.10417 60.0074C8.56944 60.0074 8.13195 60.4449 8.13195 60.9797C8.13195 61.5144 8.56944 61.9519 9.10417 61.9519C9.63889 61.9519 10.0764 61.5144 10.0764 60.9797C10.0764 60.4449 9.63889 60.0074 9.10417 60.0074Z" fill="#A4AFC1"/>
<path d="M51.5297 19.9306C53.409 19.9306 54.9325 18.4071 54.9325 16.5278C54.9325 14.6485 53.409 13.125 51.5297 13.125C49.6504 13.125 48.127 14.6485 48.127 16.5278C48.127 18.4071 49.6504 19.9306 51.5297 19.9306Z" fill="#F3F3F1"/>
<path d="M54.9316 56.875H30.6261C29.5528 56.875 28.6816 56.0039 28.6816 54.9306V32.5694C28.6816 31.4961 29.5528 30.625 30.6261 30.625H54.9316C56.005 30.625 56.8761 31.4961 56.8761 32.5694V54.9306C56.8761 56.0039 56.005 56.875 54.9316 56.875Z" fill="#FEB46D"/>
<path d="M17.502 39.375C15.085 39.375 13.127 37.4169 13.127 35C13.127 32.5831 15.085 30.625 17.502 30.625C19.9189 30.625 21.877 32.5831 21.877 35C21.877 37.4169 19.9189 39.375 17.502 39.375Z" fill="#FEB46D"/>
<path d="M17.502 56.875C15.085 56.875 13.127 54.9169 13.127 52.5C13.127 50.0831 15.085 48.125 17.502 48.125C19.9189 48.125 21.877 50.0831 21.877 52.5C21.877 54.9169 19.9189 56.875 17.502 56.875Z" fill="#FEB46D"/>
<path d="M39.377 21.875H15.0714C13.9981 21.875 13.127 21.0039 13.127 19.9306V15.0694C13.127 13.9961 13.9981 13.125 15.0714 13.125H39.377C40.4503 13.125 41.3214 13.9961 41.3214 15.0694V19.9306C41.3214 21.0039 40.4503 21.875 39.377 21.875Z" fill="white"/>
<path d="M33.0566 54.9306V32.5694C33.0566 31.4961 33.9278 30.625 35.0011 30.625H30.6261C29.5528 30.625 28.6816 31.4961 28.6816 32.5694V54.9306C28.6816 56.0039 29.5528 56.875 30.6261 56.875H35.0011C33.9278 56.875 33.0566 56.0039 33.0566 54.9306Z" fill="#FF6600"/>
<path d="M17.502 35C17.502 33.3842 18.3867 31.99 19.6895 31.2317C19.0439 30.8564 18.3031 30.625 17.502 30.625C15.085 30.625 13.127 32.5831 13.127 35C13.127 37.4169 15.085 39.375 17.502 39.375C18.3031 39.375 19.0439 39.1436 19.6895 38.7683C18.3867 38.01 17.502 36.6158 17.502 35Z" fill="#FF6600"/>
<path d="M17.502 52.5C17.502 50.8842 18.3867 49.49 19.6895 48.7317C19.0439 48.3564 18.3031 48.125 17.502 48.125C15.085 48.125 13.127 50.0831 13.127 52.5C13.127 54.9169 15.085 56.875 17.502 56.875C18.3031 56.875 19.0439 56.6436 19.6895 56.2683C18.3867 55.51 17.502 54.1158 17.502 52.5Z" fill="#FF6600"/>
<path d="M17.502 19.9306V15.0694C17.502 13.9961 18.3731 13.125 19.4464 13.125H15.0714C13.9981 13.125 13.127 13.9961 13.127 15.0694V19.9306C13.127 21.0039 13.9981 21.875 15.0714 21.875H19.4464C18.3731 21.875 17.502 21.0039 17.502 19.9306Z" fill="#D5DBE1"/>
<path d="M51.5291 21.3887C48.8477 21.3887 46.668 19.209 46.668 16.5276C46.668 13.8462 48.8477 11.6665 51.5291 11.6665C54.2105 11.6665 56.3902 13.8462 56.3902 16.5276C56.3902 19.209 54.2105 21.3887 51.5291 21.3887ZM51.5291 14.5832C50.4557 14.5832 49.5846 15.4543 49.5846 16.5276C49.5846 17.6009 50.4557 18.4721 51.5291 18.4721C52.6024 18.4721 53.4735 17.6009 53.4735 16.5276C53.4735 15.4543 52.6024 14.5832 51.5291 14.5832Z" fill="black"/>
<path d="M53.2129 20.2856L55.2753 18.2232L57.9 20.848L55.8376 22.9104L53.2129 20.2856Z" fill="black"/>
<path d="M54.931 58.3332H30.6254C28.749 58.3332 27.2227 56.8068 27.2227 54.9304V32.5693C27.2227 30.6929 28.749 29.1665 30.6254 29.1665H54.931C56.8074 29.1665 58.3338 30.6929 58.3338 32.5693V54.9304C58.3338 56.8068 56.8074 58.3332 54.931 58.3332ZM30.6254 32.0832C30.3571 32.0832 30.1393 32.3009 30.1393 32.5693V54.9304C30.1393 55.1987 30.3571 55.4165 30.6254 55.4165H54.931C55.1993 55.4165 55.4171 55.1987 55.4171 54.9304V32.5693C55.4171 32.3009 55.1993 32.0832 54.931 32.0832H30.6254Z" fill="black"/>
<path d="M17.5013 40.8332C14.2852 40.8332 11.668 38.2159 11.668 34.9998C11.668 31.7837 14.2852 29.1665 17.5013 29.1665C20.7174 29.1665 23.3346 31.7837 23.3346 34.9998C23.3346 38.2159 20.7174 40.8332 17.5013 40.8332ZM17.5013 32.0832C15.8932 32.0832 14.5846 33.3918 14.5846 34.9998C14.5846 36.6079 15.8932 37.9165 17.5013 37.9165C19.1094 37.9165 20.418 36.6079 20.418 34.9998C20.418 33.3918 19.1094 32.0832 17.5013 32.0832Z" fill="black"/>
<path d="M17.5013 58.3332C14.2852 58.3332 11.668 55.7159 11.668 52.4998C11.668 49.2837 14.2852 46.6665 17.5013 46.6665C20.7174 46.6665 23.3346 49.2837 23.3346 52.4998C23.3346 55.7159 20.7174 58.3332 17.5013 58.3332ZM17.5013 49.5832C15.8932 49.5832 14.5846 50.8918 14.5846 52.4998C14.5846 54.1079 15.8932 55.4165 17.5013 55.4165C19.1094 55.4165 20.418 54.1079 20.418 52.4998C20.418 50.8918 19.1094 49.5832 17.5013 49.5832Z" fill="black"/>
<path d="M39.3763 23.3332H15.0707C13.1944 23.3332 11.668 21.8068 11.668 19.9304V15.0693C11.668 13.1929 13.1944 11.6665 15.0707 11.6665H39.3763C41.2527 11.6665 42.7791 13.1929 42.7791 15.0693V19.9304C42.7791 21.8068 41.2527 23.3332 39.3763 23.3332ZM15.0707 14.5832C14.8024 14.5832 14.5846 14.8009 14.5846 15.0693V19.9304C14.5846 20.1987 14.8024 20.4165 15.0707 20.4165H39.3763C39.6446 20.4165 39.8624 20.1987 39.8624 19.9304V15.0693C39.8624 14.8009 39.6446 14.5832 39.3763 14.5832H15.0707Z" fill="black"/>
</svg>
