<svg width="70" height="70" viewBox="0 0 70 70" fill="none" xmlns="http://www.w3.org/2000/svg">
<path d="M8.10366 53.7113C8.10366 40.2615 1.13672 31.0254 1.13672 24.5446C1.13672 18.0637 4.86227 4.45264 34.6764 4.45264C64.4906 4.45264 68.8656 22.7635 68.8656 29.8918C68.8676 63.2721 8.10366 77.5307 8.10366 53.7113Z" fill="#EFEFEF"/>
<path d="M10.694 11.6668C9.08595 11.6668 7.77734 10.3582 7.77734 8.75016C7.77734 7.14211 9.08595 5.8335 10.694 5.8335C12.3021 5.8335 13.6107 7.14211 13.6107 8.75016C13.6107 10.3582 12.3021 11.6668 10.694 11.6668ZM10.694 7.77794C10.1573 7.77794 9.72179 8.2135 9.72179 8.75016C9.72179 9.28683 10.1573 9.72239 10.694 9.72239C11.2307 9.72239 11.6662 9.28683 11.6662 8.75016C11.6662 8.2135 11.2307 7.77794 10.694 7.77794Z" fill="#A4AFC1"/>
<path d="M54.9306 20.9028C56.0039 20.9028 56.875 21.7739 56.875 22.8473V43.2639C56.875 44.3334 56 45.2084 54.9306 45.2084H15.0694C14 45.2084 13.125 44.3334 13.125 43.2639V22.8473C13.125 21.7739 13.9961 20.9028 15.0694 20.9028H54.9306Z" fill="#F3F3F1"/>
<path d="M13.125 45.2085H56.875V49.0974C56.875 50.1668 56 51.0418 54.9306 51.0418H15.0694C14 51.0418 13.125 50.1668 13.125 49.0974V45.2085Z" fill="#FEB46D"/>
<path d="M38.8898 51.0415C38.8898 51.0415 38.8898 53.9582 41.8064 56.8748H28.1953C31.112 53.9582 31.0731 51.0415 31.0731 51.0415H38.8898Z" fill="#FEB46D"/>
<path d="M17.5 43.2639V22.8473C17.5 21.7739 18.3711 20.9028 19.4444 20.9028H15.0694C13.9961 20.9028 13.125 21.7739 13.125 22.8473V43.2639C13.125 44.3334 14 45.2084 15.0694 45.2084H19.4444C18.375 45.2084 17.5 44.3334 17.5 43.2639Z" fill="#D5DBE1"/>
<path d="M17.5 49.0974V45.2085H13.125V49.0974C13.125 50.1668 14 51.0418 15.0694 51.0418H19.4444C18.375 51.0418 17.5 50.1668 17.5 49.0974Z" fill="#FF6600"/>
<path d="M31.0731 51.0415C31.0731 51.0415 31.112 53.9582 28.1953 56.8748H32.5703C35.487 53.9582 35.4481 51.0415 35.4481 51.0415H31.0731Z" fill="#FF6600"/>
<path d="M33.543 11.6665H36.4596V27.7101H33.543V11.6665Z" fill="black"/>
<path d="M35.0006 29.1669C34.6272 29.1669 34.2539 29.025 33.97 28.7391L28.5625 23.3336L30.6256 21.2705L35.0006 25.6455L39.3756 21.2705L41.4386 23.3336L36.0331 28.7391C35.7472 29.025 35.3739 29.1669 35.0006 29.1669Z" fill="black"/>
<path d="M41.319 34.9999H28.6801C26.8037 34.9999 25.2773 33.4736 25.2773 31.5972V27.2222H28.194V31.5972C28.194 31.8655 28.4118 32.0833 28.6801 32.0833H41.319C41.5873 32.0833 41.8051 31.8655 41.8051 31.5972V27.2222H44.7218V31.5972C44.7218 33.4736 43.1954 34.9999 41.319 34.9999Z" fill="black"/>
<path d="M54.9319 52.4999H15.0707C13.1944 52.4999 11.668 50.9735 11.668 49.0971V22.8471C11.668 20.9707 13.1944 19.4443 15.0707 19.4443H23.8207V22.361H15.0707C14.8024 22.361 14.5846 22.5788 14.5846 22.8471V49.0971C14.5846 49.3654 14.8024 49.5832 15.0707 49.5832H54.9319C55.2002 49.5832 55.418 49.3654 55.418 49.0971V22.8471C55.418 22.5788 55.2002 22.361 54.9319 22.361H46.1819V19.4443H54.9319C56.8083 19.4443 58.3346 20.9707 58.3346 22.8471V49.0971C58.3346 50.9735 56.8083 52.4999 54.9319 52.4999Z" fill="black"/>
<path d="M13.125 42.7778H56.875V45.6945H13.125V42.7778Z" fill="black"/>
<path d="M41.32 58.3332H28.6811C28.092 58.3332 27.5592 57.9774 27.3336 57.433C27.1081 56.8885 27.2325 56.2605 27.6506 55.8443C29.6748 53.8202 30.1103 50.8821 30.1142 50.853L33.0056 51.2321C32.99 51.3468 32.7197 53.3049 31.5589 55.4166H38.4092C37.26 53.3146 36.9742 51.3566 36.9586 51.2418L39.8461 50.8374C39.85 50.8666 40.2759 53.6724 42.1484 55.6771C42.5295 55.9396 42.7784 56.3771 42.7784 56.8749C42.7784 57.6799 42.125 58.3332 41.32 58.3332Z" fill="black"/>
</svg>
