<svg width="33" height="33" viewBox="0 0 33 33" fill="none" xmlns="http://www.w3.org/2000/svg">
<path d="M7.67932 3.81957C14.0199 3.81957 18.3741 0.535156 21.4293 0.535156C24.4846 0.535156 30.9012 2.29149 30.9012 16.3467C30.9012 30.402 22.269 32.4645 18.9085 32.4645C3.17207 32.4654 -3.54985 3.81957 7.67932 3.81957Z" fill="white"/>
<path d="M5.47363 3.96094L6.77 2.66458L7.41818 3.31276L6.12181 4.60912L5.47363 3.96094Z" fill="#A4AFC1"/>
<path d="M1.74707 7.68701L3.04343 6.39065L3.69161 7.03883L2.39525 8.33519L1.74707 7.68701Z" fill="#A4AFC1"/>
<path d="M1.90918 3.31201L2.55736 2.66383L3.85372 3.96019L3.20554 4.60837L1.90918 3.31201Z" fill="#A4AFC1"/>
<path d="M24.9792 25.8958H8.02083C7.00792 25.8958 6.1875 25.0754 6.1875 24.0625V10.3125H26.8125V24.0625C26.8125 25.0754 25.9921 25.8958 24.9792 25.8958Z" fill="white"/>
<path d="M26.8125 10.3123H6.1875V8.93734C6.1875 7.92442 7.00792 7.104 8.02083 7.104H24.9792C25.9921 7.104 26.8125 7.92442 26.8125 8.93734V10.3123Z" fill="#FEB46D"/>
<path d="M8.47917 24.0625V10.3125H6.1875V24.0625C6.1875 25.0754 7.00792 25.8958 8.02083 25.8958H10.3125C9.29958 25.8958 8.47917 25.0754 8.47917 24.0625Z" fill="#D5DBE1"/>
<path d="M10.0833 7.104H8.02083C7.00792 7.104 6.1875 7.92442 6.1875 8.93734V10.3123H8.25V8.93734C8.25 7.92442 9.07042 7.104 10.0833 7.104Z" fill="#FF6600"/>
<path d="M18.3337 21.083H16.9587V17.4163C16.9587 17.1643 16.7524 16.958 16.5003 16.958C16.2482 16.958 16.042 17.1643 16.042 17.4163V21.083H14.667V17.4163C14.667 16.4053 15.4892 15.583 16.5003 15.583C17.5114 15.583 18.3337 16.4053 18.3337 17.4163V21.083Z" fill="black"/>
<path d="M14.667 17.875H18.3337V19.25H14.667V17.875Z" fill="black"/>
<path d="M10.542 21.083H9.16699V17.1872C9.16699 16.3026 9.88658 15.583 10.7712 15.583H12.8337V16.958H10.7712C10.6447 16.958 10.542 17.0607 10.542 17.1872V21.083Z" fill="black"/>
<path d="M9.16699 17.875H12.8337V19.25H9.16699V17.875Z" fill="black"/>
<path d="M22.2295 21.083H21.7712C20.8866 21.083 20.167 20.3634 20.167 19.4788V17.1872C20.167 16.3026 20.8866 15.583 21.7712 15.583H22.2295C23.1141 15.583 23.8337 16.3026 23.8337 17.1872V19.4788C23.8337 20.3634 23.1141 21.083 22.2295 21.083ZM21.7712 16.958C21.6447 16.958 21.542 17.0607 21.542 17.1872V19.4788C21.542 19.6053 21.6447 19.708 21.7712 19.708H22.2295C22.356 19.708 22.4587 19.6053 22.4587 19.4788V17.1872C22.4587 17.0607 22.356 16.958 22.2295 16.958H21.7712Z" fill="black"/>
<path d="M21.7109 19.938L22.6832 18.9657L24.1137 20.3963L23.1415 21.3685L21.7109 19.938Z" fill="black"/>
<path d="M24.9792 26.5832H8.02083C6.63025 26.5832 5.5 25.4529 5.5 24.0623V8.93734C5.5 7.54675 6.63025 6.4165 8.02083 6.4165H24.9792C26.3698 6.4165 27.5 7.54675 27.5 8.93734V24.0623C27.5 25.4529 26.3698 26.5832 24.9792 26.5832ZM8.02083 7.7915C7.38925 7.7915 6.875 8.30575 6.875 8.93734V24.0623C6.875 24.6939 7.38925 25.2082 8.02083 25.2082H24.9792C25.6108 25.2082 26.125 24.6939 26.125 24.0623V8.93734C26.125 8.30575 25.6108 7.7915 24.9792 7.7915H8.02083Z" fill="black"/>
<path d="M6.1875 9.625H26.8125V11H6.1875V9.625Z" fill="black"/>
<path d="M1.83301 25.208H31.1663V26.583H1.83301V25.208Z" fill="black"/>
</svg>
