<svg width="70" height="70" viewBox="0 0 70 70" fill="none" xmlns="http://www.w3.org/2000/svg">
<path d="M8.10366 16.2884C8.10366 29.7381 1.13672 38.9742 1.13672 45.4551C1.13672 51.9359 4.86227 65.547 34.6764 65.547C64.4906 65.547 68.8656 47.2362 68.8656 40.1078C68.8676 6.72756 8.10366 -7.53105 8.10366 16.2884Z" fill="#EFEFEF"/>
<path d="M43.7487 7.77767C42.1406 7.77767 40.832 6.46906 40.832 4.861C40.832 3.25295 42.1406 1.94434 43.7487 1.94434C45.3568 1.94434 46.6654 3.25295 46.6654 4.861C46.6654 6.46906 45.3568 7.77767 43.7487 7.77767ZM43.7487 3.88878C43.214 3.88878 42.7765 4.32628 42.7765 4.861C42.7765 5.39573 43.214 5.83323 43.7487 5.83323C44.2834 5.83323 44.7209 5.39573 44.7209 4.861C44.7209 4.32628 44.2834 3.88878 43.7487 3.88878Z" fill="#A4AFC1"/>
<path d="M52.9861 54.9306H17.0139C14.8653 54.9306 13.125 53.1903 13.125 51.0417V21.875H56.875V51.0417C56.875 53.1903 55.1347 54.9306 52.9861 54.9306Z" fill="#F3F3F1"/>
<path d="M56.875 21.8749H13.125V18.9582C13.125 16.8096 14.8653 15.0693 17.0139 15.0693H52.9861C55.1347 15.0693 56.875 16.8096 56.875 18.9582V21.8749Z" fill="#FEB46D"/>
<path d="M17.9861 51.0417V21.875H13.125V51.0417C13.125 53.1903 14.8653 54.9306 17.0139 54.9306H21.875C19.7264 54.9306 17.9861 53.1903 17.9861 51.0417Z" fill="#D5DBE1"/>
<path d="M21.3889 15.0693H17.0139C14.8653 15.0693 13.125 16.8096 13.125 18.9582V21.8749H17.5V18.9582C17.5 16.8096 19.2403 15.0693 21.3889 15.0693Z" fill="#FF6600"/>
<path d="M26.7348 49.0583L27.707 49.0583C28.7765 49.0583 29.6515 48.1833 29.6515 47.1138L29.7059 47.1761C30.7229 47.7847 34.4193 49.0972 39.2862 49.0972L40.6668 49.0972C42.374 49.0972 43.9179 47.8041 44.1901 46.0522C44.2076 46.0522 45.207 39.9252 45.207 39.4119C45.207 37.4519 43.6806 35.7777 41.7381 35.7777L36.7448 35.7777C36.7448 35.7777 37.5984 34.4458 37.5984 32.2194C37.5984 29.5555 36.3267 28.6805 35.4731 28.6805C34.637 28.6805 34.2015 29.118 34.2015 31.3444C34.2015 33.6291 30.8512 36.6333 29.5056 37.6366C29.2179 36.9249 28.5237 36.4194 27.709 36.4194L26.7368 36.4194C25.6634 36.4194 24.7923 37.2905 24.7923 38.3638L24.7923 47.1138C24.7904 48.1872 25.6615 49.0583 26.7348 49.0583Z" fill="#FEB46D"/>
<path d="M40.832 39.4119C40.832 39.9252 39.8326 46.0522 39.8151 46.0522C39.5856 47.5299 38.4462 48.6733 37.0695 48.9961C37.7793 49.0544 38.5123 49.0972 39.2862 49.0972L40.6668 49.0972C42.374 49.0972 43.9179 47.8041 44.1901 46.0522C44.2076 46.0522 45.207 39.9252 45.207 39.4119C45.207 37.4519 43.6806 35.7777 41.7381 35.7777L37.3631 35.7777C39.3056 35.7777 40.832 37.4519 40.832 39.4119Z" fill="#FF6600"/>
<path d="M26.7383 34.961L27.7105 34.961C29.5869 34.961 31.1133 36.4874 31.1133 38.3638L31.1133 47.1138C31.1133 48.9902 29.5869 50.5166 27.7105 50.5166L26.7383 50.5166C24.8619 50.5166 23.3355 48.9902 23.3355 47.1138L23.3355 38.3638C23.3355 36.4894 24.8619 34.961 26.7383 34.961ZM27.7105 47.5999C27.9749 47.5999 28.1966 47.3783 28.1966 47.1138L28.1966 38.3638C28.1966 38.0955 27.9788 37.8777 27.7105 37.8777L26.7383 37.8777C26.4699 37.8777 26.2522 38.0955 26.2522 38.3638L26.2522 47.1138C26.2522 47.3822 26.4699 47.5999 26.7383 47.5999L27.7105 47.5999Z" fill="black"/>
<path d="M35.4757 27.2223C37.2024 27.2223 39.0594 28.7876 39.0594 32.2196C39.0594 33.0187 38.966 33.7226 38.8338 34.3196L41.7407 34.3196C44.4571 34.3196 46.668 36.6043 46.668 39.414C46.668 39.5715 46.668 39.8632 46.1469 43.1551C45.9116 44.6465 45.758 45.6265 45.6024 46.274L45.6335 46.2779C45.2563 48.7162 43.1213 50.5557 40.6694 50.5557L39.2888 50.5557C34.348 50.5557 30.3307 49.249 28.9599 48.4265L30.4591 45.924C31.0269 46.2662 34.3791 47.639 39.2888 47.639L40.6694 47.639C41.6805 47.639 42.5924 46.8457 42.7499 45.8287C42.7557 45.7898 42.7635 45.7509 42.7732 45.7121C42.888 45.1093 43.7163 39.9584 43.7532 39.3693C43.7513 38.2104 42.8491 37.2343 41.7407 37.2343L36.7474 37.2343C36.2146 37.2343 35.7246 36.9446 35.468 36.474C35.2113 36.0073 35.2327 35.4376 35.5185 34.9884C35.8044 34.5393 36.1427 33.9365 36.1427 32.2157C36.1427 31.1696 35.9094 30.6134 35.7071 30.3451C35.6819 30.5668 35.6624 30.8876 35.6624 31.3407C35.6624 34.9398 31.4216 37.8118 30.9374 38.1268L29.343 35.6846C30.4532 34.9593 32.7457 32.9448 32.7457 31.3407C32.7457 30.1098 32.7457 27.2223 35.4757 27.2223Z" fill="black"/>
<path d="M52.9874 56.3891H17.0152C14.0655 56.3891 11.668 53.9916 11.668 51.0419V18.9586C11.668 16.0088 14.0655 13.6113 17.0152 13.6113H52.9874C55.9371 13.6113 58.3346 16.0088 58.3346 18.9586V51.0419C58.3346 53.9916 55.9371 56.3891 52.9874 56.3891ZM17.0152 16.528C15.6755 16.528 14.5846 17.6188 14.5846 18.9586V51.0419C14.5846 52.3816 15.6755 53.4724 17.0152 53.4724H52.9874C54.3271 53.4724 55.418 52.3816 55.418 51.0419V18.9586C55.418 17.6188 54.3271 16.528 52.9874 16.528H17.0152Z" fill="black"/>
<path d="M13.125 20.4165H56.875V23.3332H13.125V20.4165Z" fill="black"/>
<path d="M3.89062 53.4722H66.1128V56.3888H3.89062V53.4722Z" fill="black"/>
</svg>
