<svg width="30" height="30" viewBox="0 0 30 30" fill="none" xmlns="http://www.w3.org/2000/svg">
<g clip-path="url(#clip0_3903_39721)">
<path d="M13.459 6.77217C13.459 5.89902 14.1692 5.18732 15.0423 5.18732C15.9155 5.18732 16.6257 5.89753 16.6257 6.77217C16.6257 7.64532 15.9155 8.35702 15.0423 8.35702C14.1692 8.35702 13.459 7.64532 13.459 6.77217ZM23.6725 12.8695L14.316 21.0269C14.0409 21.2676 13.6402 21.2945 13.3337 21.0942L5.98928 16.2902L0.155273 21.5607V22.9273C0.155273 26.7414 3.25772 29.8438 7.07172 29.8438H22.9279C26.742 29.8438 29.8443 26.7413 29.8443 22.9258L29.8458 17.4416L23.6725 12.8695ZM5.36286 14.6592L0.155426 19.3629V7.07295C0.155426 3.25883 3.25788 0.156494 7.07187 0.156494H22.9265C26.7406 0.156494 29.843 3.25894 29.843 7.07295V15.4129L24.1165 11.1681C23.8085 10.9393 23.3839 10.9573 23.0953 11.2085L13.7101 19.3899L6.35535 14.5817C6.04586 14.3784 5.63768 14.4113 5.36255 14.6594L5.36286 14.6592ZM11.828 6.77248C11.828 8.54423 13.2708 9.98704 15.0426 9.98704C16.8158 9.98704 18.2572 8.54423 18.2572 6.77248C18.2572 4.99923 16.8143 3.55792 15.0426 3.55792C13.2708 3.55792 11.828 4.99923 11.828 6.77248Z" fill="#9FA8B1"/>
</g>
<defs>
<clipPath id="clip0_3903_39721">
<rect width="30" height="30" fill="white"/>
</clipPath>
</defs>
</svg>
