<svg width="70" height="70" viewBox="0 0 70 70" fill="none" xmlns="http://www.w3.org/2000/svg">
<path d="M2.3343 40.561C9.68818 29.3026 8.90652 17.7585 12.4512 12.3335C15.996 6.90848 26.5601 -2.45013 51.521 13.854C76.4818 30.1582 70.1332 47.8818 66.2326 53.8493C47.9782 81.7949 -10.6915 60.5032 2.3343 40.561Z" fill="#EFEFEF"/>
<path d="M59.0221 12.6058C57.4141 12.6058 56.1055 11.2972 56.1055 9.68913C56.1055 8.08107 57.4141 6.77246 59.0221 6.77246C60.6302 6.77246 61.9388 8.08107 61.9388 9.68913C61.9388 11.2972 60.6302 12.6058 59.0221 12.6058ZM59.0221 8.7169C58.4855 8.7169 58.0499 9.15246 58.0499 9.68913C58.0499 10.2258 58.4855 10.6613 59.0221 10.6613C59.5588 10.6613 59.9944 10.2258 59.9944 9.68913C59.9944 9.15246 59.5588 8.7169 59.0221 8.7169Z" fill="#A4AFC1"/>
<path d="M18.474 41.8057V55.4168C18.474 56.4901 19.3451 57.3612 20.4184 57.3612H23.3351C24.4084 57.3612 25.2795 56.4901 25.2795 55.4168C25.2795 56.4862 26.1545 57.3612 27.224 57.3612H30.1406C31.2101 57.3612 32.0851 56.4862 32.0851 55.4168V32.0834C32.0851 31.0101 32.9562 30.139 34.0295 30.139H39.8628V24.3057H18.474C15.2462 24.3057 12.6406 26.9112 12.6406 30.139V37.9168C12.6406 40.0557 14.3906 41.8057 16.5295 41.8057H18.474Z" fill="#F3F3F1"/>
<path d="M20.5532 24.3053C19.2699 23.0803 18.4727 21.3498 18.4727 19.4442C18.4727 15.6914 21.5254 12.6387 25.2782 12.6387C29.031 12.6387 32.0838 15.6914 32.0838 19.4442C32.0838 21.3498 31.2865 23.0803 30.0032 24.3053H20.5532Z" fill="#F3F3F1"/>
<path d="M18.4727 32.0835H32.0838V39.8613H18.4727V32.0835Z" fill="#FEB46D"/>
<path d="M39.8594 20.4165H53.4705C55.6191 20.4165 57.3594 22.1568 57.3594 24.3054V28.1943C57.3594 30.3429 55.6191 32.0832 53.4705 32.0832H39.8594V20.4165Z" fill="#FEB46D"/>
<path d="M22.3628 55.4168V41.8057H20.4184C18.2795 41.8057 16.5295 40.0557 16.5295 37.9168V30.139C16.5295 26.9112 19.1351 24.3057 22.3628 24.3057H18.474C15.2462 24.3057 12.6406 26.9112 12.6406 30.139V37.9168C12.6406 40.0557 14.3906 41.8057 16.5295 41.8057H18.474V55.4168C18.474 56.4901 19.3451 57.3612 20.4184 57.3612H23.3351C23.5081 57.3612 23.6617 57.3048 23.8212 57.264C22.989 57.0423 22.3628 56.319 22.3628 55.4168Z" fill="#D5DBE1"/>
<path d="M27.2227 12.9556C26.6024 12.7689 25.9588 12.6387 25.2782 12.6387C21.5254 12.6387 18.4727 15.6914 18.4727 19.4442C18.4727 21.3498 19.2699 23.0803 20.5532 24.3053H24.4421C23.1588 23.0803 22.3615 21.3498 22.3615 19.4442C22.3615 16.372 24.4207 13.7995 27.2227 12.9556Z" fill="#D5DBE1"/>
<path d="M18.4727 32.0835H22.3615V39.8613H18.4727V32.0835Z" fill="#FF6600"/>
<path d="M39.8594 20.4165H53.4705C55.6191 20.4165 57.3594 22.1568 57.3594 24.3054V28.1943C57.3594 30.3429 55.6191 32.0832 53.4705 32.0832H39.8594V20.4165Z" fill="#FEB46D"/>
<path d="M39.8594 20.4165H43.7483V32.0832H39.8594V20.4165Z" fill="#FF6600"/>
<path d="M18.9596 42.7779H17.0152C14.0655 42.7779 11.668 40.3804 11.668 37.4307V30.6252C11.668 26.6041 14.9385 23.3335 18.9596 23.3335H39.8624C40.6674 23.3335 41.3207 23.9868 41.3207 24.7918C41.3207 25.5968 40.6674 26.2502 39.8624 26.2502H18.9596C16.5466 26.2502 14.5846 28.2121 14.5846 30.6252V37.4307C14.5846 38.7704 15.6755 39.8613 17.0152 39.8613H17.5013V38.4029C17.5013 37.5979 18.1546 36.9446 18.9596 36.9446C19.7646 36.9446 20.418 37.5979 20.418 38.4029V41.3196C20.418 42.1246 19.7646 42.7779 18.9596 42.7779Z" fill="black"/>
<path d="M29.6536 58.3332H27.2231C25.3467 58.3332 23.8203 56.8068 23.8203 54.9304V51.5276C23.8203 50.7226 24.4736 50.0693 25.2786 50.0693C26.0836 50.0693 26.737 50.7226 26.737 51.5276V54.9304C26.737 55.1948 26.9586 55.4165 27.2231 55.4165H29.6536C29.9181 55.4165 30.1398 55.1948 30.1398 54.9304V32.5693C30.1398 30.6929 31.6661 29.1665 33.5425 29.1665H39.862C40.667 29.1665 41.3203 29.8198 41.3203 30.6248C41.3203 31.4298 40.667 32.0832 39.862 32.0832H33.5425C33.2742 32.0832 33.0564 32.3009 33.0564 32.5693V54.9304C33.0564 56.8068 31.53 58.3332 29.6536 58.3332Z" fill="black"/>
<path d="M23.3333 58.3332H20.9028C19.0264 58.3332 17.5 56.8068 17.5 54.9304V29.1665H20.4167V54.9304C20.4167 55.1987 20.6344 55.4165 20.9028 55.4165H23.3333C23.6017 55.4165 23.8194 55.1987 23.8194 54.9304V44.7221H26.7361V54.9304C26.7361 56.8068 25.2097 58.3332 23.3333 58.3332Z" fill="black"/>
<path d="M31.1094 52.986H19.4427C18.6377 52.986 17.9844 52.3327 17.9844 51.5277C17.9844 50.7227 18.6377 50.0693 19.4427 50.0693H31.1094C31.9144 50.0693 32.5677 50.7227 32.5677 51.5277C32.5677 52.3327 31.9144 52.986 31.1094 52.986Z" fill="black"/>
<path d="M31.5955 34.028H19.4427C18.6377 34.028 17.9844 33.3747 17.9844 32.5697C17.9844 31.7647 18.6377 31.1113 19.4427 31.1113H31.5955C32.4005 31.1113 33.0538 31.7647 33.0538 32.5697C33.0538 33.3747 32.4005 34.028 31.5955 34.028Z" fill="black"/>
<path d="M31.5972 40.8332H18.9583C18.1533 40.8332 17.5 40.1798 17.5 39.3748C17.5 38.5698 18.1533 37.9165 18.9583 37.9165H31.5972C32.4022 37.9165 33.0556 38.5698 33.0556 39.3748C33.0556 40.1798 32.4022 40.8332 31.5972 40.8332Z" fill="black"/>
<path d="M41.8073 58.3332H38.8906V20.9027C38.8906 20.0977 39.544 19.4443 40.349 19.4443H52.9878C55.9376 19.4443 58.3351 21.8418 58.3351 24.7916V27.7082C58.3351 30.6579 55.9376 33.0554 52.9878 33.0554H41.8073V58.3332ZM41.8073 30.1388H52.9878C54.3276 30.1388 55.4184 29.0479 55.4184 27.7082V24.7916C55.4184 23.4518 54.3276 22.361 52.9878 22.361H41.8073V30.1388Z" fill="black"/>
<path d="M28.6242 26.2498C28.1361 26.2498 27.6597 26.0048 27.3836 25.5596C26.9597 24.8751 27.1717 23.9768 27.8561 23.5509C29.2853 22.6662 30.1389 21.1301 30.1389 19.4443C30.1389 16.7648 27.9572 14.5832 25.2778 14.5832C22.5983 14.5832 20.4167 16.7648 20.4167 19.4443C20.4167 21.1301 21.2703 22.6662 22.7014 23.5509C23.3858 23.9748 23.5978 24.8751 23.1739 25.5596C22.75 26.244 21.8497 26.4521 21.1653 26.0321C18.8708 24.6107 17.5 22.1471 17.5 19.4443C17.5 15.1548 20.9883 11.6665 25.2778 11.6665C29.5672 11.6665 33.0556 15.1548 33.0556 19.4443C33.0556 22.1471 31.6847 24.6107 29.3903 26.0321C29.1511 26.1798 28.8847 26.2498 28.6242 26.2498Z" fill="black"/>
</svg>
