<svg width="341" height="373" viewBox="0 0 341 373" fill="none" xmlns="http://www.w3.org/2000/svg">
<path d="M142.191 219.354L244.107 219.354" stroke="#0C38B7" stroke-width="0.461158"/>
<path d="M142.191 221.199L244.107 221.199" stroke="#1844BF" stroke-width="0.461158" stroke-dasharray="3.84 3.84"/>
<path d="M179.724 219.367L174.484 214.127L169.244 219.367L174.484 224.607L179.724 219.367Z" fill="#0C38B7"/>
<path d="M187.383 219.367L184.924 216.908L182.464 219.367L184.924 221.827L187.383 219.367Z" fill="#0C38B7"/>
<path d="M44.3125 330.354L44.3125 227.669" stroke="#0C38B7" stroke-width="0.461158"/>
<path d="M46.1582 330.354L46.1582 227.669" stroke="#1844BF" stroke-width="0.461158" stroke-dasharray="3.84 3.84"/>
<path d="M44.3279 265.611L39.0879 270.851L44.3279 276.091L49.5679 270.851L44.3279 265.611Z" fill="#0C38B7"/>
<path d="M47.0858 255.697C45.585 254.196 43.1518 254.196 41.651 255.697C40.1502 257.198 40.1502 259.631 41.651 261.132C43.1518 262.633 45.585 262.633 47.0858 261.132C48.5866 259.631 48.5866 257.198 47.0858 255.697Z" fill="white" stroke="#0C38B7" stroke-width="0.461158"/>
<path d="M46.1635 246.063C45.2004 245.1 43.6388 245.1 42.6756 246.063C41.7124 247.026 41.7124 248.587 42.6756 249.551C43.6388 250.514 45.2004 250.514 46.1635 249.551C47.1267 248.587 47.1267 247.026 46.1635 246.063Z" fill="white" stroke="#0C38B7" stroke-width="0.461158"/>
<path d="M149.807 31.46H228.357" stroke="#0C38B7" stroke-width="0.461158"/>
<path d="M149.807 33.3052H228.357" stroke="#1844BF" stroke-width="0.461158" stroke-dasharray="3.84 3.84"/>
<path d="M180.424 31.4739L175.184 26.2339L169.944 31.4739L175.184 36.7139L180.424 31.4739Z" fill="#0C38B7"/>
<path d="M189.146 31.5308L186.002 28.3862L182.857 31.5308L186.002 34.6753L189.146 31.5308Z" fill="#0C38B7"/>
<path d="M313.566 82.9404L313.566 164.412" stroke="#0C38B7" stroke-width="0.461158"/>
<path d="M311.723 82.9404L311.723 164.412" stroke="#1844BF" stroke-width="0.461158" stroke-dasharray="3.84 3.84"/>
<path d="M310.795 120.146C312.296 121.646 314.729 121.646 316.23 120.146C317.731 118.645 317.731 116.212 316.23 114.711C314.729 113.21 312.296 113.21 310.795 114.711C309.294 116.212 309.294 118.645 310.795 120.146Z" fill="#0C38B7"/>
<path d="M311.904 129.957C312.804 130.858 314.264 130.858 315.164 129.957C316.065 129.057 316.065 127.597 315.164 126.696C314.264 125.796 312.804 125.796 311.904 126.696C311.003 127.597 311.003 129.057 311.904 129.957Z" fill="#0C38B7"/>
<path d="M312.658 137.905C313.108 138.355 313.838 138.355 314.288 137.905C314.739 137.455 314.739 136.725 314.288 136.275C313.838 135.824 313.108 135.824 312.658 136.275C312.208 136.725 312.208 137.455 312.658 137.905Z" fill="#0C38B7"/>
<path d="M264.676 144.104H228.245C227.948 144.104 227.707 144.345 227.707 144.643V220.734C227.707 221.031 227.948 221.272 228.245 221.272H264.676C264.974 221.272 265.214 221.031 265.214 220.734V144.643C265.214 144.345 264.974 144.104 264.676 144.104Z" stroke="#FF952F" stroke-width="0.461158"/>
<path d="M332.775 143.874H271.287C270.693 143.874 270.211 144.355 270.211 144.95V220.426C270.211 221.02 270.693 221.502 271.287 221.502H332.775C333.369 221.502 333.851 221.02 333.851 220.426V144.95C333.851 144.355 333.369 143.874 332.775 143.874Z" fill="#E2EBF4"/>
<path d="M323.09 151.252H197.655C197.231 151.252 196.887 151.596 196.887 152.021V233.338C196.887 233.763 197.231 234.107 197.655 234.107H323.09C323.515 234.107 323.859 233.763 323.859 233.338V152.021C323.859 151.596 323.515 151.252 323.09 151.252Z" fill="white" stroke="#0C38B7" stroke-width="0.461158"/>
<path d="M222.406 194.601H242.235C242.66 194.601 243.004 194.257 243.004 193.832V166.009C243.004 165.585 242.66 165.241 242.235 165.241H222.406C221.981 165.241 221.637 165.585 221.637 166.009V193.832C221.637 194.257 221.981 194.601 222.406 194.601Z" fill="white" stroke="#0C38B7" stroke-width="0.461158"/>
<path d="M222.406 227.036H242.235C242.66 227.036 243.004 226.692 243.004 226.268V198.444C243.004 198.02 242.66 197.676 242.235 197.676H222.406C221.981 197.676 221.637 198.02 221.637 198.444V226.268C221.637 226.692 221.981 227.036 222.406 227.036Z" fill="#E2EBF4"/>
<path d="M247.46 194.601H267.29C267.714 194.601 268.059 194.257 268.059 193.832V166.009C268.059 165.585 267.714 165.241 267.29 165.241H247.46C247.036 165.241 246.692 165.585 246.692 166.009V193.832C246.692 194.257 247.036 194.601 247.46 194.601Z" fill="#E2EBF4"/>
<path d="M247.46 227.036H267.29C267.714 227.036 268.059 226.692 268.059 226.268V198.444C268.059 198.02 267.714 197.676 267.29 197.676H247.46C247.036 197.676 246.692 198.02 246.692 198.444V226.268C246.692 226.692 247.036 227.036 247.46 227.036Z" fill="#E2EBF4"/>
<path d="M272.208 194.601H292.038C292.463 194.601 292.807 194.257 292.807 193.832V166.009C292.807 165.585 292.463 165.241 292.038 165.241H272.208C271.784 165.241 271.44 165.585 271.44 166.009V193.832C271.44 194.257 271.784 194.601 272.208 194.601Z" fill="#E2EBF4"/>
<path d="M272.208 227.036H292.038C292.463 227.036 292.807 226.692 292.807 226.268V198.444C292.807 198.02 292.463 197.676 292.038 197.676H272.208C271.784 197.676 271.44 198.02 271.44 198.444V226.268C271.44 226.692 271.784 227.036 272.208 227.036Z" fill="#E2EBF4"/>
<path d="M297.265 194.601H317.095C317.519 194.601 317.863 194.257 317.863 193.832V166.009C317.863 165.585 317.519 165.241 317.095 165.241H297.265C296.84 165.241 296.496 165.585 296.496 166.009V193.832C296.496 194.257 296.84 194.601 297.265 194.601Z" fill="#E2EBF4"/>
<path d="M297.265 227.036H317.095C317.519 227.036 317.863 226.692 317.863 226.268V198.444C317.863 198.02 317.519 197.676 317.095 197.676H297.265C296.84 197.676 296.496 198.02 296.496 198.444V226.268C296.496 226.692 296.84 227.036 297.265 227.036Z" fill="#E2EBF4"/>
<path d="M205.187 169.853H216.409C217.088 169.853 217.639 169.302 217.639 168.623V166.624C217.639 165.945 217.088 165.395 216.409 165.395H205.187C204.508 165.395 203.958 165.945 203.958 166.624V168.623C203.958 169.302 204.508 169.853 205.187 169.853Z" stroke="#E2EBF4" stroke-width="0.461158" stroke-linecap="round" stroke-linejoin="round"/>
<path d="M205.187 177.846H216.409C217.088 177.846 217.639 177.295 217.639 176.616V174.771C217.639 174.092 217.088 173.542 216.409 173.542H205.187C204.508 173.542 203.958 174.092 203.958 174.771V176.616C203.958 177.295 204.508 177.846 205.187 177.846Z" stroke="#E2EBF4" stroke-width="0.461158" stroke-linecap="round" stroke-linejoin="round"/>
<path d="M205.187 186.146H216.409C217.088 186.146 217.639 185.595 217.639 184.916V183.072C217.639 182.392 217.088 181.842 216.409 181.842H205.187C204.508 181.842 203.958 182.392 203.958 183.072V184.916C203.958 185.595 204.508 186.146 205.187 186.146Z" stroke="#E2EBF4" stroke-width="0.461158" stroke-linecap="round" stroke-linejoin="round"/>
<path d="M205.187 194.294H216.409C217.088 194.294 217.639 193.743 217.639 193.064V191.066C217.639 190.387 217.088 189.836 216.409 189.836H205.187C204.508 189.836 203.958 190.387 203.958 191.066V193.064C203.958 193.743 204.508 194.294 205.187 194.294Z" stroke="#E2EBF4" stroke-width="0.461158" stroke-linecap="round" stroke-linejoin="round"/>
<path d="M205.187 202.595H216.409C217.088 202.595 217.639 202.044 217.639 201.365V199.367C217.639 198.687 217.088 198.137 216.409 198.137H205.187C204.508 198.137 203.958 198.687 203.958 199.367V201.365C203.958 202.044 204.508 202.595 205.187 202.595Z" stroke="#E2EBF4" stroke-width="0.461158" stroke-linecap="round" stroke-linejoin="round"/>
<path d="M205.187 210.588H216.409C217.088 210.588 217.639 210.038 217.639 209.359V207.514C217.639 206.835 217.088 206.284 216.409 206.284H205.187C204.508 206.284 203.958 206.835 203.958 207.514V209.359C203.958 210.038 204.508 210.588 205.187 210.588Z" stroke="#E2EBF4" stroke-width="0.461158" stroke-linecap="round" stroke-linejoin="round"/>
<path d="M205.187 218.889H216.409C217.088 218.889 217.639 218.339 217.639 217.659V215.815C217.639 215.136 217.088 214.585 216.409 214.585H205.187C204.508 214.585 203.958 215.136 203.958 215.815V217.659C203.958 218.339 204.508 218.889 205.187 218.889Z" stroke="#E2EBF4" stroke-width="0.461158" stroke-linecap="round" stroke-linejoin="round"/>
<path d="M205.187 227.036H216.409C217.088 227.036 217.639 226.486 217.639 225.806V223.808C217.639 223.129 217.088 222.578 216.409 222.578H205.187C204.508 222.578 203.958 223.129 203.958 223.808V225.806C203.958 226.486 204.508 227.036 205.187 227.036Z" stroke="#E2EBF4" stroke-width="0.461158" stroke-linecap="round" stroke-linejoin="round"/>
<path d="M233.013 228.958H287.122C288.268 228.958 289.197 228.029 289.197 226.883V162.936C289.197 161.789 288.268 160.86 287.122 160.86H233.013C231.867 160.86 230.938 161.789 230.938 162.936V226.883C230.938 228.029 231.867 228.958 233.013 228.958Z" fill="white" stroke="#E2EBF4" stroke-width="0.461158" stroke-linecap="round" stroke-linejoin="round"/>
<path d="M242.617 156.787H308.255C308.892 156.787 309.408 156.27 309.408 155.634V155.634C309.408 154.997 308.892 154.481 308.255 154.481H242.617C241.981 154.481 241.464 154.997 241.464 155.634C241.464 156.27 241.981 156.787 242.617 156.787Z" fill="#E2EBF4"/>
<path d="M244.465 167.7H276.285C276.921 167.7 277.438 167.184 277.438 166.547C277.438 165.911 276.921 165.394 276.285 165.394H244.465C243.828 165.394 243.312 165.911 243.312 166.547C243.312 167.184 243.828 167.7 244.465 167.7Z" fill="#E2EBF4"/>
<path d="M200.96 156.786C201.596 156.786 202.112 156.27 202.112 155.633C202.112 154.997 201.596 154.48 200.96 154.48C200.323 154.48 199.807 154.997 199.807 155.633C199.807 156.27 200.323 156.786 200.96 156.786Z" fill="#E2EBF4"/>
<path d="M205.112 156.786C205.749 156.786 206.265 156.27 206.265 155.633C206.265 154.997 205.749 154.48 205.112 154.48C204.475 154.48 203.959 154.997 203.959 155.633C203.959 156.27 204.475 156.786 205.112 156.786Z" fill="#E2EBF4"/>
<path d="M209.108 156.786C209.745 156.786 210.261 156.27 210.261 155.633C210.261 154.997 209.745 154.48 209.108 154.48C208.471 154.48 207.955 154.997 207.955 155.633C207.955 156.27 208.471 156.786 209.108 156.786Z" fill="#E2EBF4"/>
<path d="M295.803 210.28C295.803 209.856 296.147 209.512 296.571 209.512H336.681C337.954 209.512 338.987 210.544 338.987 211.818V238.1C338.987 239.373 337.954 240.406 336.681 240.406H296.571C296.147 240.406 295.803 240.062 295.803 239.637V210.28Z" fill="#1844BF" stroke="#0C38B7" stroke-width="0.461158"/>
<path d="M334.475 210.865V239.166" stroke="white" stroke-width="0.461158" stroke-linecap="round"/>
<path d="M335.602 210.865V239.166" stroke="white" stroke-width="0.461158" stroke-linecap="round"/>
<path d="M336.73 210.865V239.166" stroke="white" stroke-width="0.461158" stroke-linecap="round"/>
<path d="M337.857 210.865V239.166" stroke="white" stroke-width="0.461158" stroke-linecap="round"/>
<path d="M292.191 210.28C292.191 209.856 292.536 209.512 292.96 209.512H331.153C332.426 209.512 333.459 210.544 333.459 211.818V238.1C333.459 239.373 332.426 240.406 331.153 240.406H292.96C292.536 240.406 292.191 240.062 292.191 239.637V210.28Z" fill="white" stroke="#0C38B7" stroke-width="0.461158"/>
<path d="M292.758 212.332H329.986C330.41 212.332 330.754 212.676 330.754 213.1V236.932C330.754 237.357 330.41 237.701 329.986 237.701H292.758" stroke="#E2EBF4" stroke-width="0.461158" stroke-linecap="round" stroke-linejoin="round" stroke-dasharray="2.77 2.77"/>
<path d="M340 229.698C340 230.008 339.749 230.259 339.439 230.259H324.836C322.375 230.259 320.381 228.265 320.381 225.805C320.381 223.346 322.375 221.352 324.836 221.352H339.439C339.749 221.352 340 221.603 340 221.912V229.698Z" fill="white" stroke="#0C38B7" stroke-width="0.461158" stroke-linecap="round" stroke-linejoin="round"/>
<path d="M334.249 229.863C334.249 230.082 334.073 230.259 333.853 230.259H324.836C322.375 230.259 320.381 228.265 320.381 225.805C320.381 223.346 322.375 221.352 324.836 221.352H333.853C334.073 221.352 334.249 221.529 334.249 221.748V229.863Z" fill="white" stroke="#0C38B7" stroke-width="0.461158" stroke-linecap="round" stroke-linejoin="round"/>
<path d="M325.116 223.494C323.871 223.494 322.861 224.528 322.861 225.805C322.861 227.082 323.871 228.116 325.116 228.116C326.362 228.116 327.371 227.082 327.371 225.805C327.371 224.528 326.362 223.494 325.116 223.494Z" fill="#FF952E"/>
<path d="M237.623 203.056H283.124C283.548 203.056 283.893 202.712 283.893 202.288V196.6C283.893 196.175 283.548 195.831 283.124 195.831H237.623C237.199 195.831 236.855 196.175 236.855 196.6V202.288C236.855 202.712 237.199 203.056 237.623 203.056Z" fill="white" stroke="#0C38B7" stroke-width="0.461158"/>
<path d="M240.236 217.045H280.511C282.378 217.045 283.893 215.531 283.893 213.663V213.202C283.893 211.334 282.378 209.82 280.511 209.82H240.236C238.369 209.82 236.855 211.334 236.855 213.202V213.663C236.855 215.531 238.369 217.045 240.236 217.045Z" fill="#FF952E"/>
<path d="M237.623 184.149H283.124C283.548 184.149 283.893 183.805 283.893 183.38V179.845C283.893 179.42 283.548 179.076 283.124 179.076H237.623C237.199 179.076 236.855 179.42 236.855 179.845V183.38C236.855 183.805 237.199 184.149 237.623 184.149Z" fill="white" stroke="#0C38B7" stroke-width="0.461158"/>
<path d="M238.987 199.059L239.674 199.291C239.814 199.338 239.923 199.41 240.001 199.509C240.08 199.607 240.12 199.72 240.12 199.848C240.12 200.015 240.061 200.157 239.946 200.272C239.831 200.386 239.686 200.442 239.511 200.442H239.485V200.844H239.028V200.442H238.478V199.97H239.511C239.551 199.97 239.582 199.959 239.603 199.937C239.628 199.915 239.64 199.888 239.64 199.856C239.64 199.801 239.609 199.762 239.548 199.738L238.844 199.494C238.705 199.445 238.596 199.372 238.515 199.276C238.436 199.18 238.396 199.07 238.396 198.944C238.396 198.777 238.453 198.638 238.567 198.527C238.682 198.414 238.828 198.358 239.005 198.358H239.028V197.97H239.485V198.358H240.006V198.83H239.013C238.973 198.83 238.942 198.841 238.921 198.863C238.901 198.883 238.891 198.907 238.891 198.937C238.891 198.996 238.924 199.037 238.987 199.059ZM241.352 197.97V200.442H240.83V198.479H240.261V197.97H241.352ZM243.186 199.254L242.493 199.933H243.471V200.442H241.706V200.033L242.847 198.907C242.908 198.846 242.939 198.777 242.939 198.701C242.939 198.639 242.916 198.588 242.868 198.546C242.822 198.502 242.762 198.479 242.688 198.479H241.729V197.97H242.688C242.917 197.97 243.102 198.037 243.245 198.17C243.388 198.302 243.458 198.466 243.458 198.66C243.458 198.879 243.368 199.077 243.186 199.254ZM245.209 199.372H245.604V199.848H245.209V200.442H244.682V199.848H243.438V199.472L244.453 197.97H245.209V199.372ZM244.682 198.457L244.089 199.372H244.682V198.457ZM245.835 199.889H246.37V200.442H245.835V199.889ZM246.542 199.49V198.922C246.542 198.625 246.637 198.382 246.826 198.195C247.016 198.008 247.255 197.915 247.543 197.915C247.83 197.915 248.07 198.008 248.262 198.195C248.454 198.382 248.55 198.623 248.55 198.919V199.49C248.55 199.785 248.453 200.028 248.258 200.217C248.064 200.404 247.823 200.498 247.535 200.498C247.249 200.498 247.012 200.404 246.823 200.217C246.636 200.028 246.542 199.785 246.542 199.49ZM247.066 198.922V199.49C247.066 199.64 247.109 199.758 247.195 199.845C247.285 199.931 247.397 199.974 247.535 199.974C247.678 199.974 247.795 199.931 247.886 199.845C247.976 199.756 248.022 199.638 248.022 199.49V198.919C248.022 198.771 247.976 198.654 247.886 198.568C247.796 198.479 247.683 198.435 247.543 198.435C247.403 198.435 247.288 198.479 247.2 198.568C247.111 198.654 247.066 198.772 247.066 198.922ZM248.842 199.49V198.922C248.842 198.625 248.935 198.382 249.125 198.195C249.315 198.008 249.553 197.915 249.841 197.915C250.128 197.915 250.368 198.008 250.56 198.195C250.752 198.382 250.848 198.623 250.848 198.919V199.49C250.848 199.785 250.751 200.028 250.557 200.217C250.362 200.404 250.121 200.498 249.833 200.498C249.549 200.498 249.311 200.404 249.121 200.217C248.934 200.028 248.842 199.785 248.842 199.49ZM249.364 198.922V199.49C249.364 199.64 249.407 199.758 249.493 199.845C249.583 199.931 249.696 199.974 249.833 199.974C249.976 199.974 250.093 199.931 250.184 199.845C250.274 199.756 250.32 199.638 250.32 199.49V198.919C250.32 198.771 250.274 198.654 250.184 198.568C250.096 198.479 249.981 198.435 249.841 198.435C249.701 198.435 249.586 198.479 249.498 198.568C249.409 198.654 249.364 198.772 249.364 198.922Z" fill="#1844BF"/>
<path d="M237.853 193.833H256.145C256.697 193.833 257.145 193.386 257.145 192.834C257.145 192.282 256.697 191.835 256.145 191.835H237.853C237.301 191.835 236.854 192.282 236.854 192.834C236.854 193.386 237.301 193.833 237.853 193.833Z" fill="#E2EBF4"/>
<path d="M237.852 177.078H247.229C247.781 177.078 248.229 176.63 248.229 176.078C248.229 175.527 247.781 175.079 247.229 175.079H237.852C237.301 175.079 236.853 175.527 236.853 176.078C236.853 176.63 237.301 177.078 237.852 177.078Z" fill="#E2EBF4"/>
<path d="M204.881 171.082C213.795 171.082 221.021 163.855 221.021 154.941C221.021 146.027 213.795 138.801 204.881 138.801C195.967 138.801 188.74 146.027 188.74 154.941C188.74 163.855 195.967 171.082 204.881 171.082Z" fill="#1844BF" stroke="#0C38B7" stroke-width="0.461158" stroke-miterlimit="10"/>
<path d="M204.806 155.468C207.127 155.468 209.01 153.585 209.01 151.264C209.01 148.942 207.127 147.06 204.806 147.06C202.484 147.06 200.602 148.942 200.602 151.264C200.602 153.585 202.484 155.468 204.806 155.468Z" stroke="white" stroke-width="0.461158" stroke-miterlimit="10"/>
<path d="M212.163 162.825C212.163 158.762 208.869 155.468 204.806 155.468C200.743 155.468 197.449 158.762 197.449 162.825" stroke="white" stroke-width="0.461158" stroke-miterlimit="10" stroke-linecap="round"/>
<path d="M257.524 211.338C257.89 211.338 258.196 211.46 258.444 211.704C258.691 211.943 258.814 212.246 258.814 212.611C258.814 212.984 258.688 213.29 258.438 213.53C258.19 213.766 257.886 213.884 257.524 213.884H256.452V215.046H255.666V211.338H257.524ZM256.452 213.137H257.465C257.623 213.137 257.754 213.089 257.857 212.993C257.964 212.897 258.018 212.77 258.018 212.611C258.018 212.464 257.964 212.342 257.857 212.246C257.75 212.15 257.618 212.102 257.465 212.102H256.452V213.137ZM261.186 212.644V212.29H261.929V215.046H261.186V214.681H261.158C261.071 214.814 260.949 214.921 260.794 215.002C260.639 215.083 260.464 215.125 260.268 215.129C259.892 215.129 259.578 214.994 259.328 214.725C259.08 214.452 258.957 214.102 258.957 213.674C258.957 213.246 259.079 212.893 259.321 212.617C259.569 212.34 259.886 212.204 260.273 212.207C260.465 212.207 260.639 212.248 260.794 212.329C260.949 212.41 261.071 212.515 261.158 212.644H261.186ZM259.913 214.21C260.055 214.351 260.233 214.421 260.451 214.421C260.668 214.421 260.845 214.349 260.982 214.205C261.118 214.057 261.186 213.878 261.186 213.668C261.186 213.454 261.117 213.275 260.977 213.131C260.84 212.987 260.665 212.916 260.451 212.916C260.233 212.916 260.055 212.987 259.913 213.131C259.778 213.272 259.709 213.45 259.709 213.668C259.709 213.886 259.778 214.067 259.913 214.21ZM263.862 214.382L264.537 212.29H265.295L264.199 215.494C264.125 215.705 264.013 215.867 263.862 215.981C263.71 216.096 263.529 216.153 263.314 216.153H262.528V215.422H263.292C263.366 215.422 263.429 215.406 263.48 215.373L262.213 212.29H263.032L263.862 214.382Z" fill="white"/>
<path fill-rule="evenodd" clip-rule="evenodd" d="M271.521 214.181C271.027 213.997 270.546 214.478 270.729 214.971L273.364 222.051C273.519 222.471 274.059 222.588 274.375 222.272L275.845 220.801L278.111 223.067C278.291 223.247 278.583 223.247 278.762 223.067L279.616 222.214C279.797 222.034 279.797 221.742 279.616 221.562L277.35 219.296L278.821 217.826C279.138 217.509 279.019 216.971 278.6 216.815L271.521 214.181Z" fill="white"/>
<path d="M275.845 220.802L276.008 220.638C275.919 220.548 275.773 220.548 275.682 220.638L275.845 220.802ZM277.35 219.296L277.187 219.133C277.098 219.223 277.098 219.369 277.187 219.459L277.35 219.296ZM270.946 214.891C270.831 214.583 271.132 214.282 271.44 214.397L271.601 213.965C270.923 213.712 270.261 214.373 270.514 215.052L270.946 214.891ZM273.579 221.971L270.946 214.891L270.514 215.052L273.148 222.132L273.579 221.971ZM274.213 222.109C274.015 222.307 273.678 222.233 273.579 221.971L273.148 222.132C273.363 222.709 274.102 222.87 274.539 222.435L274.213 222.109ZM275.682 220.638L274.213 222.109L274.539 222.435L276.008 220.965L275.682 220.638ZM278.274 222.904L276.008 220.638L275.682 220.965L277.948 223.23L278.274 222.904ZM278.6 222.904C278.511 222.994 278.365 222.994 278.274 222.904L277.948 223.23C278.219 223.501 278.657 223.501 278.926 223.23L278.6 222.904ZM279.453 222.051L278.6 222.904L278.926 223.23L279.779 222.377L279.453 222.051ZM279.453 221.725C279.544 221.815 279.544 221.961 279.453 222.051L279.779 222.377C280.05 222.107 280.05 221.669 279.779 221.399L279.453 221.725ZM277.187 219.459L279.453 221.725L279.779 221.399L277.513 219.133L277.187 219.459ZM278.658 217.663L277.187 219.133L277.513 219.459L278.984 217.989L278.658 217.663ZM278.52 217.031C278.783 217.129 278.855 217.465 278.658 217.663L278.984 217.989C279.419 217.554 279.258 216.814 278.681 216.599L278.52 217.031ZM271.44 214.397L278.52 217.031L278.681 216.599L271.601 213.965L271.44 214.397Z" fill="#0C38B7"/>
<path d="M98.7792 275.913H62.9626C62.4957 275.913 62.1172 276.291 62.1172 276.758V352.234C62.1172 352.701 62.4957 353.08 62.9626 353.08H98.7792C99.2461 353.08 99.6246 352.701 99.6246 352.234V276.758C99.6246 276.291 99.2461 275.913 98.7792 275.913Z" stroke="#E2EBF4" stroke-width="0.461158"/>
<path d="M167.183 275.913H105.695C105.228 275.913 104.85 276.291 104.85 276.758V352.234C104.85 352.701 105.228 353.08 105.695 353.08H167.183C167.65 353.08 168.028 352.701 168.028 352.234V276.758C168.028 276.291 167.65 275.913 167.183 275.913Z" stroke="#E2EBF4" stroke-width="0.461158" stroke-dasharray="2.15 2.15"/>
<path d="M154.115 285.213H28.6807C28.2562 285.213 27.9121 285.557 27.9121 285.981V367.299C27.9121 367.724 28.2562 368.068 28.6807 368.068H154.115C154.54 368.068 154.884 367.724 154.884 367.299V285.981C154.884 285.557 154.54 285.213 154.115 285.213Z" fill="white" stroke="#FF952F" stroke-width="0.461158"/>
<path d="M33.6027 308.731H56.5068C56.9313 308.731 57.2754 308.387 57.2754 307.963V297.356C57.2754 296.932 56.9313 296.588 56.5068 296.588H33.6027C33.1782 296.588 32.8341 296.932 32.8341 297.356V307.963C32.8341 308.387 33.1782 308.731 33.6027 308.731Z" fill="#1844BF"/>
<path d="M62.1928 292.438H72.6457C72.8155 292.438 72.9531 292.3 72.9531 292.13V291.208C72.9531 291.038 72.8155 290.9 72.6457 290.9H62.1928C62.023 290.9 61.8854 291.038 61.8854 291.208V292.13C61.8854 292.3 62.023 292.438 62.1928 292.438Z" fill="#E2EBF4"/>
<path d="M33.6019 293.359H52.663C53.0875 293.359 53.4316 293.015 53.4316 292.591V290.746C53.4316 290.322 53.0875 289.978 52.663 289.978H33.6019C33.1774 289.978 32.8333 290.322 32.8333 290.746V292.591C32.8333 293.015 33.1774 293.359 33.6019 293.359Z" fill="#E2EBF4"/>
<path d="M78.9479 292.438H89.7082C89.878 292.438 90.0156 292.3 90.0156 292.13V291.208C90.0156 291.038 89.878 290.9 89.7082 290.9H78.9479C78.7781 290.9 78.6404 291.038 78.6404 291.208V292.13C78.6404 292.3 78.7781 292.438 78.9479 292.438Z" fill="#E2EBF4"/>
<path d="M95.55 292.438H106.464C106.634 292.438 106.771 292.3 106.771 292.13V291.208C106.771 291.038 106.634 290.9 106.464 290.9H95.55C95.3802 290.9 95.2426 291.038 95.2426 291.208V292.13C95.2426 292.3 95.3802 292.438 95.55 292.438Z" fill="#E2EBF4"/>
<path d="M112.306 292.438H123.374C123.544 292.438 123.682 292.3 123.682 292.13V291.208C123.682 291.038 123.544 290.9 123.374 290.9H112.306C112.137 290.9 111.999 291.038 111.999 291.208V292.13C111.999 292.3 112.137 292.438 112.306 292.438Z" fill="#E2EBF4"/>
<path d="M132.595 293.052H144.278C144.617 293.052 144.893 292.777 144.893 292.437V291.054C144.893 290.714 144.617 290.439 144.278 290.439H132.595C132.255 290.439 131.98 290.714 131.98 291.054V292.437C131.98 292.777 132.255 293.052 132.595 293.052Z" fill="#E2EBF4"/>
<path d="M147.045 293.052H148.582C148.922 293.052 149.197 292.777 149.197 292.437V291.054C149.197 290.714 148.922 290.439 148.582 290.439H147.045C146.706 290.439 146.43 290.714 146.43 291.054V292.437C146.43 292.777 146.706 293.052 147.045 293.052Z" fill="#E2EBF4"/>
<path d="M146.123 300.277H148.429C148.853 300.277 149.197 299.933 149.197 299.508V297.202C149.197 296.778 148.853 296.434 148.429 296.434H146.123C145.698 296.434 145.354 296.778 145.354 297.202V299.508C145.354 299.933 145.698 300.277 146.123 300.277Z" fill="#E2EBF4"/>
<path d="M140.744 300.277H143.05C143.474 300.277 143.818 299.933 143.818 299.508V297.202C143.818 296.778 143.474 296.434 143.05 296.434H140.744C140.319 296.434 139.975 296.778 139.975 297.202V299.508C139.975 299.933 140.319 300.277 140.744 300.277Z" fill="#E2EBF4"/>
<path d="M33.6027 315.649H56.5068C56.9313 315.649 57.2754 315.305 57.2754 314.88V312.421C57.2754 311.996 56.9313 311.652 56.5068 311.652H33.6027C33.1782 311.652 32.8341 311.996 32.8341 312.421V314.88C32.8341 315.305 33.1782 315.649 33.6027 315.649Z" fill="#E2EBF4"/>
<path d="M33.6027 328.562H56.5068C56.9313 328.562 57.2754 328.217 57.2754 327.793V319.185C57.2754 318.76 56.9313 318.416 56.5068 318.416H33.6027C33.1782 318.416 32.8341 318.76 32.8341 319.185V327.793C32.8341 328.217 33.1782 328.562 33.6027 328.562Z" fill="#E2EBF4"/>
<path d="M33.6027 341.167H56.5068C56.9313 341.167 57.2754 340.823 57.2754 340.398V332.098C57.2754 331.673 56.9313 331.329 56.5068 331.329H33.6027C33.1782 331.329 32.8341 331.673 32.8341 332.098V340.398C32.8341 340.823 33.1782 341.167 33.6027 341.167Z" fill="#E2EBF4"/>
<path d="M33.6027 353.925H56.5068C56.9313 353.925 57.2754 353.581 57.2754 353.157V344.856C57.2754 344.431 56.9313 344.087 56.5068 344.087H33.6027C33.1782 344.087 32.8341 344.431 32.8341 344.856V353.157C32.8341 353.581 33.1782 353.925 33.6027 353.925Z" fill="#E2EBF4"/>
<path d="M33.6027 363.456H56.5068C56.9313 363.456 57.2754 363.112 57.2754 362.687V357.615C57.2754 357.19 56.9313 356.846 56.5068 356.846H33.6027C33.1782 356.846 32.8341 357.19 32.8341 357.615V362.687C32.8341 363.112 33.1782 363.456 33.6027 363.456Z" fill="#E2EBF4"/>
<path d="M21.7656 368.835C21.7656 368.411 22.11 368.067 22.5342 368.067H160.267C160.691 368.067 161.035 368.411 161.035 368.835V370.68C161.035 371.954 160.002 372.986 158.729 372.986H24.0714C22.7986 372.986 21.7656 371.954 21.7656 370.68V368.835Z" fill="#FF952F"/>
<path d="M35.2905 326.256H54.8129C55.1524 326.256 55.4277 325.981 55.4277 325.641C55.4277 325.302 55.1524 325.027 54.8129 325.027H35.2905C34.9509 325.027 34.6757 325.302 34.6757 325.641C34.6757 325.981 34.9509 326.256 35.2905 326.256Z" fill="white"/>
<path d="M35.2905 338.861H54.8129C55.1524 338.861 55.4277 338.586 55.4277 338.246C55.4277 337.907 55.1524 337.632 54.8129 337.632H35.2905C34.9509 337.632 34.6757 337.907 34.6757 338.246C34.6757 338.586 34.9509 338.861 35.2905 338.861Z" fill="white"/>
<path d="M35.2905 351.466H54.8129C55.1524 351.466 55.4277 351.191 55.4277 350.851C55.4277 350.511 55.1524 350.236 54.8129 350.236H35.2905C34.9509 350.236 34.6757 350.511 34.6757 350.851C34.6757 351.191 34.9509 351.466 35.2905 351.466Z" fill="white"/>
<path d="M34.582 299.347H35.947V299.665H35.4275V300.892H35.0986V299.665H34.582V299.347ZM36.851 300.754C36.7372 300.869 36.5881 300.927 36.4036 300.927C36.2192 300.927 36.07 300.869 35.9563 300.754C35.8425 300.638 35.7857 300.493 35.7857 300.318C35.7857 300.144 35.8425 300 35.9563 299.884C36.07 299.768 36.2192 299.709 36.4036 299.709C36.5881 299.709 36.7372 299.768 36.851 299.884C36.9647 300 37.0216 300.144 37.0216 300.318C37.0216 300.493 36.9647 300.638 36.851 300.754ZM36.4036 300.625C36.4928 300.625 36.5666 300.595 36.6235 300.537C36.6819 300.477 36.7111 300.404 36.7111 300.318C36.7111 300.23 36.6818 300.157 36.625 300.099C36.5681 300.039 36.4943 300.009 36.4036 300.009C36.3129 300.009 36.2391 300.039 36.1823 300.099C36.1254 300.157 36.0978 300.23 36.0978 300.318C36.0978 300.406 36.1254 300.479 36.1823 300.537C36.2391 300.595 36.3129 300.625 36.4036 300.625ZM38.0284 299.744V300.044H37.555V300.502C37.555 300.53 37.5642 300.552 37.5811 300.567C37.598 300.582 37.6195 300.59 37.6472 300.59H38.0284V300.892H37.5904C37.4843 300.892 37.3997 300.862 37.3367 300.802C37.2752 300.741 37.2445 300.658 37.2445 300.555V300.044H37.083V299.744H37.2445V299.347H37.555V299.744H38.0284ZM39.0522 299.891V299.744H39.3612V300.892H39.0522V300.74H39.0415C39.0046 300.795 38.9538 300.84 38.8892 300.874C38.8247 300.907 38.7509 300.925 38.6695 300.927C38.5127 300.927 38.382 300.871 38.2774 300.758C38.1745 300.645 38.1237 300.499 38.1237 300.32C38.1237 300.142 38.1745 299.995 38.2759 299.88C38.3789 299.765 38.5111 299.708 38.6726 299.709C38.7525 299.709 38.8247 299.726 38.8892 299.76C38.9538 299.794 39.0046 299.838 39.0415 299.891H39.0522ZM38.5218 300.544C38.5802 300.602 38.6556 300.632 38.7463 300.632C38.837 300.632 38.9108 300.602 38.9677 300.542C39.0246 300.48 39.0522 300.406 39.0522 300.318C39.0522 300.229 39.023 300.154 38.9646 300.094C38.9077 300.034 38.8355 300.004 38.7463 300.004C38.6556 300.004 38.5802 300.034 38.5218 300.094C38.465 300.153 38.4373 300.227 38.4373 300.318C38.4373 300.409 38.465 300.484 38.5218 300.544ZM39.5933 300.56V299.232H39.9038V300.505C39.9038 300.562 39.9346 300.59 39.9961 300.59H40.1513V300.892H39.9361C39.8269 300.892 39.7424 300.863 39.6825 300.804C39.6225 300.746 39.5933 300.665 39.5933 300.56ZM41.5456 299.709C41.7023 299.708 41.833 299.764 41.936 299.878C42.0405 299.99 42.0928 300.136 42.0928 300.316C42.0928 300.494 42.0405 300.641 41.9375 300.756C41.836 300.87 41.7054 300.927 41.544 300.927C41.464 300.925 41.3903 300.907 41.3242 300.874C41.2596 300.84 41.2089 300.796 41.172 300.742H41.1628V300.892H40.8538V299.232H41.1628V299.896H41.172C41.2104 299.841 41.2626 299.796 41.3272 299.762C41.3933 299.727 41.4656 299.709 41.5456 299.709ZM41.4702 300.632C41.5609 300.632 41.6347 300.602 41.6915 300.544C41.75 300.484 41.7792 300.409 41.7792 300.318C41.7792 300.227 41.75 300.153 41.6915 300.094C41.6347 300.034 41.5609 300.004 41.4702 300.004C41.3795 300.004 41.3057 300.035 41.2488 300.097C41.192 300.157 41.1628 300.23 41.1628 300.318C41.1628 300.407 41.192 300.482 41.2488 300.542C41.3073 300.602 41.381 300.632 41.4702 300.632ZM43.1365 299.891V299.744H43.4455V300.892H43.1365V300.74H43.1257C43.0889 300.795 43.0382 300.84 42.9736 300.874C42.909 300.907 42.8352 300.925 42.7538 300.927C42.597 300.927 42.4663 300.871 42.3618 300.758C42.2588 300.645 42.2081 300.499 42.2081 300.32C42.2081 300.142 42.2588 299.995 42.3602 299.88C42.4632 299.765 42.5954 299.708 42.7568 299.709C42.8368 299.709 42.909 299.726 42.9736 299.76C43.0382 299.794 43.0889 299.838 43.1257 299.891H43.1365ZM42.6062 300.544C42.6646 300.602 42.7399 300.632 42.8306 300.632C42.9213 300.632 42.9951 300.602 43.052 300.542C43.1088 300.48 43.1365 300.406 43.1365 300.318C43.1365 300.229 43.1073 300.154 43.0489 300.094C42.992 300.034 42.9198 300.004 42.8306 300.004C42.7399 300.004 42.6646 300.034 42.6062 300.094C42.5493 300.153 42.5216 300.227 42.5216 300.318C42.5216 300.409 42.5493 300.484 42.6062 300.544ZM43.6776 300.56V299.232H43.9881V300.505C43.9881 300.562 44.0189 300.59 44.0803 300.59H44.2356V300.892H44.0204C43.9112 300.892 43.8267 300.863 43.7667 300.804C43.7068 300.746 43.6776 300.665 43.6776 300.56ZM45.2271 299.891V299.744H45.5361V300.892H45.2271V300.74H45.2148C45.1779 300.795 45.1272 300.84 45.0626 300.874C44.9981 300.907 44.9258 300.925 44.8444 300.927C44.6876 300.927 44.5569 300.871 44.4523 300.758C44.3493 300.645 44.2971 300.499 44.2971 300.32C44.2971 300.142 44.3478 299.995 44.4493 299.88C44.5522 299.765 44.6845 299.708 44.8459 299.709C44.9258 299.709 44.9981 299.726 45.0626 299.76C45.1272 299.794 45.1779 299.838 45.2148 299.891H45.2271ZM44.6968 300.544C44.7552 300.602 44.8289 300.632 44.9196 300.632C45.0103 300.632 45.0841 300.602 45.141 300.542C45.1979 300.48 45.2271 300.406 45.2271 300.318C45.2271 300.229 45.1979 300.154 45.1395 300.094C45.0826 300.034 45.0088 300.004 44.9196 300.004C44.8289 300.004 44.7552 300.034 44.6968 300.094C44.6399 300.153 44.6107 300.227 44.6107 300.318C44.6107 300.409 44.6399 300.484 44.6968 300.544ZM46.443 299.712C46.5844 299.712 46.6951 299.757 46.7766 299.848C46.858 299.938 46.8995 300.065 46.8995 300.228V300.892H46.5875V300.274C46.5875 300.194 46.566 300.131 46.5214 300.085C46.4768 300.039 46.42 300.016 46.3523 300.016C46.2801 300.016 46.2186 300.042 46.1679 300.094C46.1171 300.145 46.0925 300.213 46.0925 300.297V300.892H45.7805V299.744H46.0833V299.882H46.0941C46.1755 299.768 46.2924 299.712 46.443 299.712ZM48.2385 300.18H47.9141C47.8956 300.129 47.8634 300.088 47.8173 300.057C47.7727 300.025 47.7189 300.009 47.6574 300.009C47.5682 300.009 47.4975 300.039 47.4437 300.099C47.3899 300.157 47.3623 300.23 47.3623 300.318C47.3623 300.404 47.3899 300.477 47.4437 300.537C47.4975 300.595 47.5682 300.625 47.6574 300.625C47.7173 300.625 47.7711 300.609 47.8173 300.579C47.8634 300.546 47.8956 300.505 47.9141 300.454H48.2385C48.2139 300.594 48.1493 300.708 48.0433 300.795C47.9387 300.883 47.8096 300.927 47.6559 300.927C47.4745 300.927 47.3284 300.869 47.2178 300.754C47.1071 300.638 47.0517 300.493 47.0517 300.318C47.0517 300.143 47.1071 299.997 47.2178 299.882C47.3284 299.767 47.4745 299.709 47.6559 299.709C47.8111 299.709 47.9402 299.753 48.0448 299.841C48.1508 299.927 48.2154 300.04 48.2385 300.18ZM48.9394 299.709C49.13 299.709 49.2807 299.777 49.3914 299.912C49.5021 300.047 49.5466 300.217 49.5251 300.422H48.6581C48.6674 300.483 48.6965 300.535 48.7457 300.579C48.7965 300.62 48.8594 300.642 48.9363 300.645C48.9901 300.648 49.0409 300.639 49.087 300.618C49.1347 300.595 49.1684 300.565 49.1884 300.528H49.5127C49.4759 300.654 49.4052 300.752 49.3006 300.823C49.1961 300.892 49.0746 300.927 48.9363 300.927C48.7503 300.927 48.6043 300.868 48.4983 300.751C48.3922 300.633 48.3399 300.489 48.3399 300.318C48.3399 300.146 48.3953 300.001 48.5075 299.884C48.6212 299.768 48.7657 299.709 48.9394 299.709ZM49.1101 300.039C49.0624 300.005 49.0039 299.988 48.9363 299.988C48.8687 299.988 48.8103 300.006 48.7595 300.041C48.7103 300.075 48.6765 300.121 48.6596 300.18H49.2084C49.1915 300.12 49.1593 300.073 49.1101 300.039Z" fill="white"/>
<path d="M35.272 303.967L35.9591 304.199C36.0989 304.246 36.2081 304.319 36.2865 304.417C36.3649 304.515 36.4049 304.629 36.4049 304.756C36.4049 304.924 36.3464 305.065 36.2311 305.181C36.1159 305.294 35.9713 305.35 35.7961 305.35H35.77V305.753H35.3135V305.35H34.7632V304.878H35.7961C35.8361 304.878 35.8668 304.867 35.8884 304.845C35.9129 304.823 35.9253 304.796 35.9253 304.764C35.9253 304.71 35.8945 304.67 35.833 304.646L35.129 304.402C34.9906 304.353 34.8815 304.281 34.8 304.185C34.7216 304.089 34.6816 303.978 34.6816 303.853C34.6816 303.685 34.7386 303.546 34.8523 303.436C34.9676 303.323 35.1137 303.266 35.2904 303.266H35.3135V302.879H35.77V303.266H36.2911V303.738H35.2981C35.2581 303.738 35.2274 303.749 35.2058 303.771C35.1859 303.791 35.1766 303.816 35.1766 303.845C35.1766 303.904 35.2089 303.945 35.272 303.967ZM38.1019 304.162L37.4087 304.841H38.3863V305.35H36.6232V304.941L37.7622 303.816C37.8237 303.754 37.8544 303.685 37.8544 303.609C37.8544 303.548 37.8314 303.496 37.7853 303.454C37.7376 303.41 37.6777 303.388 37.6039 303.388H36.6446V302.879H37.6039C37.8329 302.879 38.0189 302.945 38.1619 303.078C38.3033 303.211 38.3756 303.374 38.3756 303.568C38.3756 303.787 38.2848 303.985 38.1019 304.162ZM39.1872 303.841H39.7037C39.9297 303.841 40.1126 303.912 40.2525 304.052C40.3923 304.19 40.4631 304.364 40.4631 304.576C40.4631 304.797 40.3923 304.981 40.2494 305.129C40.1064 305.277 39.9251 305.35 39.7037 305.35H38.7137V304.841H39.6699C39.7513 304.841 39.8144 304.815 39.862 304.764C39.9081 304.712 39.9312 304.651 39.9312 304.579C39.9343 304.508 39.9127 304.448 39.8651 304.399C39.819 304.347 39.7529 304.321 39.6699 304.321H38.6814L38.8106 302.879H40.3001V303.388H39.2302L39.1872 303.841ZM41.2332 303.841H41.7496C41.9756 303.841 42.1586 303.912 42.2985 304.052C42.4399 304.19 42.5091 304.364 42.5091 304.576C42.5091 304.797 42.4383 304.981 42.2954 305.129C42.1524 305.277 41.971 305.35 41.7496 305.35H40.7613V304.841H41.7159C41.7973 304.841 41.8619 304.815 41.908 304.764C41.9541 304.712 41.9787 304.651 41.9787 304.579C41.9803 304.508 41.9587 304.448 41.9111 304.399C41.865 304.347 41.8004 304.321 41.7159 304.321H40.7274L40.8566 302.879H42.3476V303.388H41.2778L41.2332 303.841ZM44.0862 304.162L43.393 304.841H44.3706V305.35H42.6074V304.941L43.7465 303.816C43.808 303.754 43.8387 303.685 43.8387 303.609C43.8387 303.548 43.8156 303.496 43.7695 303.454C43.7219 303.41 43.662 303.388 43.5882 303.388H42.6289V302.879H43.5882C43.8172 302.879 44.0032 302.945 44.1462 303.078C44.2876 303.211 44.3599 303.374 44.3599 303.568C44.3599 303.787 44.2691 303.985 44.0862 304.162ZM46.1107 304.281H46.5042V304.756H46.1107V305.35H45.5819V304.756H44.3398V304.38L45.3544 302.879H46.1107V304.281ZM45.5819 303.366L44.9885 304.281H45.5819V303.366ZM46.7364 304.797H47.2713V305.35H46.7364V304.797ZM47.4434 304.399V303.83C47.4434 303.533 47.5372 303.291 47.7263 303.104C47.9169 302.917 48.1551 302.823 48.4426 302.823C48.73 302.823 48.9699 302.917 49.162 303.104C49.3542 303.291 49.4495 303.532 49.4495 303.827V304.399C49.4495 304.694 49.3526 304.936 49.1589 305.125C48.9637 305.312 48.7224 305.406 48.4349 305.406C48.1505 305.406 47.9123 305.312 47.7232 305.125C47.5357 304.936 47.4434 304.694 47.4434 304.399ZM47.9661 303.83V304.399C47.9661 304.549 48.0091 304.667 48.0952 304.753C48.1844 304.839 48.2981 304.882 48.4349 304.882C48.5779 304.882 48.6947 304.839 48.7854 304.753C48.8761 304.664 48.9222 304.546 48.9222 304.399V303.827C48.9222 303.679 48.8761 303.562 48.7854 303.476C48.6977 303.388 48.5825 303.343 48.4426 303.343C48.3027 303.343 48.1874 303.388 48.0998 303.476C48.0106 303.562 47.9661 303.68 47.9661 303.83ZM49.7415 304.399V303.83C49.7415 303.533 49.8369 303.291 50.0259 303.104C50.215 302.917 50.4532 302.823 50.7407 302.823C51.0297 302.823 51.2695 302.917 51.4601 303.104C51.6523 303.291 51.7491 303.532 51.7491 303.827V304.399C51.7491 304.694 51.6507 304.936 51.4571 305.125C51.2634 305.312 51.022 305.406 50.7346 305.406C50.4486 305.406 50.2119 305.312 50.0213 305.125C49.8353 304.936 49.7415 304.694 49.7415 304.399ZM50.2657 303.83V304.399C50.2657 304.549 50.3088 304.667 50.3948 304.753C50.4825 304.839 50.5962 304.882 50.7346 304.882C50.876 304.882 50.9928 304.839 51.0851 304.753C51.1758 304.664 51.2203 304.546 51.2203 304.399V303.827C51.2203 303.679 51.1758 303.562 51.0851 303.476C50.9959 303.388 50.8821 303.343 50.7407 303.343C50.6008 303.343 50.4871 303.388 50.3979 303.476C50.3103 303.562 50.2657 303.68 50.2657 303.83Z" fill="white"/>
<path d="M59.9766 299.816V297.344H61.0172C61.3846 297.344 61.6859 297.46 61.9257 297.691C62.1639 297.922 62.2823 298.216 62.2823 298.572V298.584C62.2823 298.94 62.1639 299.235 61.9257 299.469C61.6859 299.7 61.3846 299.816 61.0172 299.816H59.9766ZM61.0095 297.853H60.5008V299.303H61.0095C61.2293 299.303 61.4061 299.237 61.5414 299.104C61.6797 298.971 61.7474 298.797 61.7474 298.584V298.572C61.7474 298.358 61.6797 298.185 61.5414 298.052C61.4061 297.919 61.2293 297.853 61.0095 297.853ZM64.5174 299.816H62.6251V297.344H64.5174V297.853H63.1493V298.314H64.3591V298.801H63.1493V299.307H64.5174V299.816ZM66.156 297.344C66.3989 297.344 66.6033 297.425 66.7678 297.587C66.9338 297.747 67.0154 297.949 67.0154 298.192C67.0154 298.441 66.9324 298.645 66.7648 298.805C66.6003 298.962 66.3974 299.041 66.156 299.041H65.4397V299.816H64.9171V297.344H66.156ZM65.4397 298.543H66.1161C66.2206 298.543 66.3083 298.511 66.3774 298.447C66.4482 298.383 66.485 298.298 66.485 298.192C66.485 298.094 66.4482 298.013 66.3774 297.949C66.3067 297.885 66.2191 297.853 66.1161 297.853H65.4397V298.543ZM69.4595 299.498C69.2197 299.744 68.9061 299.867 68.5187 299.867C68.1298 299.867 67.8147 299.744 67.5733 299.498C67.3351 299.25 67.2152 298.945 67.2152 298.584C67.2152 298.222 67.3366 297.916 67.5779 297.665C67.8177 297.414 68.1313 297.289 68.5187 297.289C68.9045 297.289 69.2181 297.414 69.4595 297.665C69.6993 297.916 69.8207 298.222 69.8207 298.584C69.8207 298.945 69.6993 299.25 69.4595 299.498ZM67.9607 299.13C68.1006 299.28 68.2866 299.355 68.5187 299.355C68.7493 299.355 68.9353 299.28 69.0752 299.13C69.2151 298.979 69.2858 298.796 69.2858 298.58C69.2858 298.363 69.2151 298.18 69.0752 298.03C68.9353 297.88 68.7493 297.805 68.5187 297.805C68.2866 297.805 68.1006 297.88 67.9607 298.03C67.8208 298.18 67.7501 298.363 67.7501 298.58C67.7501 298.794 67.8208 298.977 67.9607 299.13ZM70.7599 297.344H72.0327V297.853H70.7969C70.7338 297.853 70.6846 297.87 70.6492 297.905C70.6154 297.939 70.5986 297.981 70.5986 298.03C70.5986 298.072 70.6108 298.11 70.6385 298.144C70.6662 298.179 70.7031 298.202 70.7523 298.215L71.6346 298.421C71.816 298.463 71.9559 298.548 72.0512 298.676C72.148 298.801 72.1957 298.943 72.1957 299.1C72.1957 299.294 72.1296 299.463 71.9958 299.605C71.8652 299.746 71.6838 299.816 71.4502 299.816H70.1251V299.303H71.4317C71.4932 299.303 71.5424 299.283 71.5793 299.244C71.6192 299.205 71.6377 299.159 71.6377 299.107C71.6377 299.007 71.5823 298.944 71.4716 298.919L70.5863 298.709C70.4079 298.665 70.2696 298.581 70.1743 298.458C70.0774 298.333 70.0298 298.194 70.0298 298.041C70.0298 297.852 70.0943 297.688 70.2219 297.551C70.3526 297.413 70.5309 297.344 70.7599 297.344ZM72.5369 299.816V297.344H73.0611V299.816H72.5369ZM73.3609 297.344H75.5452V297.853H74.7151V299.816H74.1878V297.853H73.3609V297.344Z" fill="#1844BF"/>
<path d="M26.1452 348.391C34.5076 348.391 41.2866 341.681 41.2866 333.403C41.2866 325.126 34.5076 318.416 26.1452 318.416C17.7829 318.416 11.0039 325.126 11.0039 333.403C11.0039 341.681 17.7829 348.391 26.1452 348.391Z" fill="#FF952F"/>
<path d="M32.678 339.783H19.7656" stroke="white" stroke-width="1.84463" stroke-linecap="round" stroke-linejoin="round"/>
<path d="M26.2227 325.641V335.325" stroke="white" stroke-width="1.84463" stroke-linecap="round" stroke-linejoin="round"/>
<path d="M21.4453 330.583L26.2014 335.339" stroke="white" stroke-width="1.84463" stroke-linecap="round" stroke-linejoin="round"/>
<path d="M30.9572 330.583L26.2012 335.339" stroke="white" stroke-width="1.84463" stroke-linecap="round" stroke-linejoin="round"/>
<path d="M120.605 303.198H61.2696C60.4206 303.198 59.7324 303.886 59.7324 304.735V343.011C59.7324 343.86 60.4206 344.548 61.2696 344.548H120.605C121.454 344.548 122.142 343.86 122.142 343.011V304.735C122.142 303.886 121.454 303.198 120.605 303.198Z" fill="white" stroke="#0C38B7" stroke-width="0.461158"/>
<path d="M147.661 303.198H126.141C125.292 303.198 124.604 303.886 124.604 304.735V343.011C124.604 343.86 125.292 344.548 126.141 344.548H147.661C148.51 344.548 149.199 343.86 149.199 343.011V304.735C149.199 303.886 148.51 303.198 147.661 303.198Z" stroke="#E2EBF4" stroke-width="0.461158"/>
<path d="M147.66 347.162H61.2696C60.4206 347.162 59.7324 347.85 59.7324 348.699V362.534C59.7324 363.383 60.4206 364.071 61.2696 364.071H147.66C148.509 364.071 149.197 363.383 149.197 362.534V348.699C149.197 347.85 148.509 347.162 147.66 347.162Z" stroke="#E2EBF4" stroke-width="0.461158"/>
<path d="M68.9574 308.962C68.9574 309.599 68.4409 310.115 67.8045 310.115H63.9615C63.3251 310.115 62.8086 309.599 62.8086 308.962C62.8086 308.325 63.3251 307.809 63.9615 307.809H67.8045C68.4409 307.809 68.9574 308.325 68.9574 308.962Z" stroke="#E2EBF4" stroke-width="0.461158"/>
<path d="M85.5595 308.962C85.5595 309.599 85.043 310.115 84.4067 310.115H72.4166C71.7802 310.115 71.2637 309.599 71.2637 308.962C71.2637 308.325 71.7802 307.809 72.4166 307.809H84.4067C85.043 307.809 85.5595 308.325 85.5595 308.962Z" stroke="#E2EBF4" stroke-width="0.461158"/>
<path d="M119.068 308.962C119.068 309.599 118.552 310.115 117.915 310.115H89.0162C88.3798 310.115 87.8633 309.599 87.8633 308.962C87.8633 308.325 88.3798 307.809 89.0162 307.809H117.915C118.552 307.809 119.068 308.325 119.068 308.962Z" stroke="#E2EBF4" stroke-width="0.461158"/>
<path d="M78.1805 314.958C78.1805 315.594 77.664 316.11 77.0276 316.11H63.9615C63.3251 316.11 62.8086 315.594 62.8086 314.958C62.8086 314.321 63.3251 313.805 63.9615 313.805H77.0276C77.664 313.805 78.1805 314.321 78.1805 314.958Z" stroke="#E2EBF4" stroke-width="0.461158"/>
<path d="M94.7802 314.958C94.7802 315.594 94.2638 316.11 93.6274 316.11H81.6373C81.0009 316.11 80.4844 315.594 80.4844 314.958C80.4844 314.321 81.0009 313.805 81.6373 313.805H93.6274C94.2638 313.805 94.7802 314.321 94.7802 314.958Z" stroke="#E2EBF4" stroke-width="0.461158"/>
<path d="M119.068 314.958C119.068 315.594 118.551 316.11 117.915 316.11H98.2388C97.6024 316.11 97.0859 315.594 97.0859 314.958C97.0859 314.321 97.6024 313.805 98.2388 313.805H117.915C118.551 313.805 119.068 314.321 119.068 314.958Z" stroke="#E2EBF4" stroke-width="0.461158"/>
<path d="M69.4185 338.938C69.4185 339.574 68.902 340.09 68.2656 340.09H63.9615C63.3251 340.09 62.8086 339.574 62.8086 338.938C62.8086 338.301 63.3251 337.785 63.9615 337.785H68.2656C68.902 337.785 69.4185 338.301 69.4185 338.938Z" stroke="#E2EBF4" stroke-width="0.461158"/>
<path d="M101.239 338.938C101.239 339.574 100.722 340.09 100.086 340.09H72.8775C72.2411 340.09 71.7246 339.574 71.7246 338.938C71.7246 338.301 72.2411 337.785 72.8775 337.785H100.086C100.722 337.785 101.239 338.301 101.239 338.938Z" stroke="#E2EBF4" stroke-width="0.461158"/>
<path d="M119.069 338.938C119.069 339.574 118.552 340.09 117.916 340.09H104.696C104.059 340.09 103.543 339.574 103.543 338.938C103.543 338.301 104.059 337.785 104.696 337.785H117.916C118.552 337.785 119.069 338.301 119.069 338.938Z" stroke="#E2EBF4" stroke-width="0.461158"/>
<path d="M78.1805 326.947C78.1805 327.584 77.664 328.1 77.0276 328.1H63.9615C63.3251 328.1 62.8086 327.584 62.8086 326.947C62.8086 326.31 63.3251 325.794 63.9615 325.794H77.0276C77.664 325.794 78.1805 326.31 78.1805 326.947Z" stroke="#E2EBF4" stroke-width="0.461158"/>
<path d="M100.16 326.947C100.16 327.584 99.6439 328.1 99.0075 328.1H81.6373C81.0009 328.1 80.4844 327.584 80.4844 326.947C80.4844 326.31 81.0009 325.794 81.6373 325.794H99.0075C99.6439 325.794 100.16 326.31 100.16 326.947Z" stroke="#E2EBF4" stroke-width="0.461158"/>
<path d="M119.068 326.947C119.068 327.584 118.552 328.1 117.916 328.1H103.62C102.983 328.1 102.467 327.584 102.467 326.947C102.467 326.31 102.983 325.794 103.62 325.794H117.916C118.552 325.794 119.068 326.31 119.068 326.947Z" stroke="#E2EBF4" stroke-width="0.461158"/>
<path d="M72.1855 320.953C72.1855 321.589 71.669 322.106 71.0326 322.106H63.9615C63.3251 322.106 62.8086 321.589 62.8086 320.953C62.8086 320.316 63.3251 319.8 63.9615 319.8H71.0326C71.669 319.8 72.1855 320.316 72.1855 320.953Z" stroke="#E2EBF4" stroke-width="0.461158"/>
<path d="M106.466 320.953C106.466 321.589 105.949 322.106 105.313 322.106H75.6451C75.0087 322.106 74.4922 321.589 74.4922 320.953C74.4922 320.316 75.0087 319.8 75.6451 319.8H105.313C105.949 319.8 106.466 320.316 106.466 320.953Z" stroke="#E2EBF4" stroke-width="0.461158"/>
<path d="M119.069 320.953C119.069 321.589 118.552 322.106 117.916 322.106H109.922C109.286 322.106 108.77 321.589 108.77 320.953C108.77 320.316 109.286 319.8 109.922 319.8H117.916C118.552 319.8 119.069 320.316 119.069 320.953Z" stroke="#E2EBF4" stroke-width="0.461158"/>
<path d="M89.2483 332.942C89.2483 333.579 88.7318 334.095 88.0954 334.095H63.9615C63.3251 334.095 62.8086 333.579 62.8086 332.942C62.8086 332.306 63.3251 331.79 63.9615 331.79H88.0954C88.7318 331.79 89.2483 332.306 89.2483 332.942Z" stroke="#E2EBF4" stroke-width="0.461158"/>
<path d="M106.465 332.942C106.465 333.579 105.949 334.095 105.313 334.095H92.7076C92.0712 334.095 91.5547 333.579 91.5547 332.942C91.5547 332.306 92.0712 331.79 92.7076 331.79H105.313C105.949 331.79 106.465 332.306 106.465 332.942Z" stroke="#E2EBF4" stroke-width="0.461158"/>
<path d="M119.069 332.942C119.069 333.579 118.552 334.095 117.916 334.095H109.922C109.286 334.095 108.77 333.579 108.77 332.942C108.77 332.306 109.286 331.79 109.922 331.79H117.916C118.552 331.79 119.069 332.306 119.069 332.942Z" stroke="#E2EBF4" stroke-width="0.461158"/>
<path d="M104.158 323.335C104.158 316.119 98.343 310.269 91.1689 310.269C83.9949 310.269 78.1797 316.119 78.1797 323.335C78.1797 330.551 83.9949 336.401 91.1689 336.401" stroke="#0C38B7" stroke-width="0.461158" stroke-linecap="round" stroke-linejoin="round"/>
<path d="M104.16 323.335C104.16 330.551 98.3093 336.401 91.0938 336.401" stroke="#0C38B7" stroke-width="0.461158" stroke-linecap="round" stroke-linejoin="round" stroke-dasharray="2.31 2.31"/>
<path d="M85.252 322.003L89.8635 326.41L96.7809 319.8" stroke="#1844C0" stroke-width="1.53719" stroke-linecap="round" stroke-linejoin="round"/>
<path d="M85.1758 314.573C86.7464 314.573 88.0196 313.335 88.0196 311.807C88.0196 310.278 86.7464 309.04 85.1758 309.04C83.6052 309.04 82.332 310.278 82.332 311.807C82.332 313.335 83.6052 314.573 85.1758 314.573Z" fill="#1844BF"/>
<path d="M79.0248 319.8C79.8313 319.8 80.4851 319.18 80.4851 318.416C80.4851 317.652 79.8313 317.033 79.0248 317.033C78.2183 317.033 77.5645 317.652 77.5645 318.416C77.5645 319.18 78.2183 319.8 79.0248 319.8Z" fill="#1844BF"/>
<path d="M113.689 328.407H170.258C171.956 328.407 173.332 327.031 173.332 325.333V313.189C173.332 311.491 171.956 310.115 170.258 310.115H113.689C111.991 310.115 110.615 311.491 110.615 313.189V325.333C110.615 327.031 111.991 328.407 113.689 328.407Z" fill="#1844BF"/>
<path fill-rule="evenodd" clip-rule="evenodd" d="M121.907 315.956C121.907 315.872 121.837 315.803 121.753 315.803H120.419C120.334 315.803 120.265 315.872 120.265 315.956V318.287C120.265 318.372 120.196 318.441 120.111 318.441H117.839C117.755 318.441 117.686 318.51 117.686 318.594V319.928C117.686 320.013 117.755 320.082 117.839 320.082H120.111C120.196 320.082 120.265 320.151 120.265 320.236V322.566C120.265 322.651 120.334 322.72 120.419 322.72H121.753C121.837 322.72 121.907 322.651 121.907 322.566V320.236C121.907 320.151 121.976 320.082 122.06 320.082H124.449C124.534 320.082 124.603 320.013 124.603 319.928V318.594C124.603 318.51 124.534 318.441 124.449 318.441H122.06C121.976 318.441 121.907 318.372 121.907 318.287V315.956Z" fill="white"/>
<path d="M133.824 318.877L135.655 319.497C136.028 319.621 136.32 319.815 136.53 320.077C136.74 320.34 136.845 320.641 136.845 320.982C136.845 321.428 136.691 321.805 136.382 322.114C136.075 322.415 135.687 322.566 135.221 322.566H135.152V323.639H133.933V322.566H132.467V321.307H135.221C135.326 321.307 135.409 321.277 135.467 321.218C135.533 321.159 135.566 321.087 135.566 321.002C135.566 320.858 135.484 320.753 135.32 320.687L133.441 320.038C133.074 319.907 132.782 319.713 132.565 319.457C132.354 319.202 132.25 318.906 132.25 318.572C132.25 318.126 132.401 317.755 132.704 317.46C133.011 317.159 133.401 317.008 133.873 317.008H133.933V315.975H135.152V317.008H136.54V318.267H133.893C133.789 318.267 133.706 318.296 133.647 318.356C133.595 318.408 133.569 318.474 133.569 318.552C133.569 318.71 133.653 318.818 133.824 318.877ZM140.134 315.975V322.566H138.737V317.332H137.223V315.975H140.134ZM145.022 319.398L143.173 321.209H145.78V322.566H141.077V321.474L144.117 318.474C144.282 318.31 144.363 318.126 144.363 317.923C144.363 317.759 144.3 317.621 144.176 317.509C144.051 317.391 143.891 317.332 143.694 317.332H141.137V315.975H143.694C144.305 315.975 144.8 316.152 145.179 316.506C145.561 316.86 145.75 317.296 145.75 317.814C145.75 318.398 145.507 318.926 145.022 319.398ZM150.418 319.713H151.471V320.982H150.418V322.566H149.012V320.982H145.696V319.979L148.401 315.975H150.418V319.713ZM149.012 317.273L147.427 319.713H149.012V317.273ZM152.086 321.091H153.512V322.566H152.086V321.091ZM153.972 320.028V318.513C153.972 317.719 154.224 317.073 154.73 316.575C155.234 316.076 155.87 315.827 156.639 315.827C157.406 315.827 158.046 316.076 158.558 316.575C159.068 317.073 159.325 317.716 159.325 318.503V320.028C159.325 320.815 159.065 321.461 158.547 321.966C158.029 322.465 157.386 322.714 156.619 322.714C155.858 322.714 155.225 322.465 154.721 321.966C154.221 321.461 153.972 320.815 153.972 320.028ZM155.369 318.513V320.028C155.369 320.428 155.485 320.743 155.714 320.972C155.95 321.202 156.252 321.317 156.619 321.317C156.999 321.317 157.311 321.202 157.554 320.972C157.797 320.736 157.918 320.422 157.918 320.028V318.503C157.918 318.11 157.797 317.798 157.554 317.568C157.317 317.332 157.013 317.214 156.639 317.214C156.264 317.214 155.96 317.332 155.723 317.568C155.488 317.798 155.369 318.113 155.369 318.513ZM160.102 320.028V318.513C160.102 317.719 160.354 317.073 160.859 316.575C161.364 316.076 162.001 315.827 162.768 315.827C163.535 315.827 164.174 316.076 164.686 316.575C165.198 317.073 165.453 317.716 165.453 318.503V320.028C165.453 320.815 165.195 321.461 164.677 321.966C164.159 322.465 163.515 322.714 162.748 322.714C161.987 322.714 161.355 322.465 160.849 321.966C160.351 321.461 160.102 320.815 160.102 320.028ZM161.498 318.513V320.028C161.498 320.428 161.613 320.743 161.842 320.972C162.079 321.202 162.38 321.317 162.748 321.317C163.129 321.317 163.44 321.202 163.682 320.972C163.925 320.736 164.047 320.422 164.047 320.028V318.503C164.047 318.11 163.925 317.798 163.682 317.568C163.447 317.332 163.141 317.214 162.768 317.214C162.394 317.214 162.088 317.332 161.853 317.568C161.617 317.798 161.498 318.113 161.498 318.513Z" fill="#E2EBF4"/>
<path d="M227.957 10.0132H214.43C213.835 10.0132 213.354 10.4949 213.354 11.0892V86.258C213.354 86.8523 213.835 87.334 214.43 87.334H227.957C228.551 87.334 229.033 86.8523 229.033 86.258V11.0892C229.033 10.4949 228.551 10.0132 227.957 10.0132Z" fill="#E2EBF4"/>
<path d="M337.097 10.3979H235.335C235.038 10.3979 234.797 10.6388 234.797 10.936V86.7196C234.797 87.0168 235.038 87.2577 235.335 87.2577H337.097C337.394 87.2577 337.635 87.0168 337.635 86.7196V10.936C337.635 10.6388 337.394 10.3979 337.097 10.3979Z" stroke="#FF952F" stroke-width="0.461158"/>
<path d="M330.18 17.5454H204.745C204.321 17.5454 203.977 17.8895 203.977 18.314V99.6316C203.977 100.056 204.321 100.4 204.745 100.4H330.18C330.604 100.4 330.949 100.056 330.949 99.6316V18.314C330.949 17.8895 330.604 17.5454 330.18 17.5454Z" fill="white" stroke="#0C38B7" stroke-width="0.461158"/>
<path d="M212.586 47.6748L278.07 47.6748C278.919 47.6748 279.607 46.9866 279.607 46.1376V28.6136C279.607 27.7646 278.919 27.0764 278.07 27.0764L212.586 27.0764C211.737 27.0764 211.049 27.7646 211.049 28.6136V46.1376C211.049 46.9866 211.737 47.6748 212.586 47.6748Z" stroke="#E2EBF4" stroke-width="0.461158" stroke-linecap="round" stroke-linejoin="round"/>
<path d="M210.74 72.5767L279.914 72.5767C280.763 72.5767 281.451 71.8884 281.451 71.0395V52.2857C281.451 51.4367 280.763 50.7485 279.914 50.7485L210.74 50.7485C209.891 50.7485 209.203 51.4367 209.203 52.2857V71.0395C209.203 71.8884 209.891 72.5767 210.74 72.5767Z" fill="white" stroke="#0C38B7" stroke-width="0.461158"/>
<path d="M212.586 96.0962L278.07 96.0962C278.919 96.0962 279.607 95.408 279.607 94.559V77.035C279.607 76.186 278.919 75.4978 278.07 75.4978H212.586C211.737 75.4978 211.049 76.186 211.049 77.035V94.559C211.049 95.408 211.737 96.0962 212.586 96.0962Z" stroke="#E2EBF4" stroke-width="0.461158" stroke-linecap="round" stroke-linejoin="round"/>
<path d="M249.707 23.0796L315.345 23.0796C315.982 23.0796 316.498 22.5634 316.498 21.9267V21.9267C316.498 21.29 315.982 20.7738 315.345 20.7738L249.707 20.7738C249.07 20.7738 248.554 21.29 248.554 21.9267C248.554 22.5634 249.07 23.0796 249.707 23.0796Z" fill="#E2EBF4"/>
<path d="M212.202 23.0792C212.838 23.0792 213.355 22.5631 213.355 21.9263C213.355 21.2896 212.838 20.7734 212.202 20.7734C211.565 20.7734 211.049 21.2896 211.049 21.9263C211.049 22.5631 211.565 23.0792 212.202 23.0792Z" fill="#E2EBF4"/>
<path d="M216.35 23.0792C216.987 23.0792 217.503 22.5631 217.503 21.9263C217.503 21.2896 216.987 20.7734 216.35 20.7734C215.713 20.7734 215.197 21.2896 215.197 21.9263C215.197 22.5631 215.713 23.0792 216.35 23.0792Z" fill="#E2EBF4"/>
<path d="M220.348 23.0792C220.985 23.0792 221.501 22.5631 221.501 21.9263C221.501 21.2896 220.985 20.7734 220.348 20.7734C219.711 20.7734 219.195 21.2896 219.195 21.9263C219.195 22.5631 219.711 23.0792 220.348 23.0792Z" fill="#E2EBF4"/>
<path d="M328.478 10.2373L324.564 6.32422L320.651 10.2373L324.564 14.1503L328.478 10.2373Z" fill="#FF952F"/>
<path d="M222.96 45.3687C227.332 45.3687 230.876 41.8244 230.876 37.4522C230.876 33.08 227.332 29.5356 222.96 29.5356C218.587 29.5356 215.043 33.08 215.043 37.4522C215.043 41.8244 218.587 45.3687 222.96 45.3687Z" fill="#FF952F"/>
<path d="M222.96 93.7906C227.332 93.7906 230.876 90.2463 230.876 85.8741C230.876 81.5019 227.332 77.9575 222.96 77.9575C218.587 77.9575 215.043 81.5019 215.043 85.8741C215.043 90.2463 218.587 93.7906 222.96 93.7906Z" fill="#E2EBF4"/>
<path d="M221.408 81.1553H224.125L223.251 84.4736L224.152 84.1437L223.782 85.5297L222.887 85.8574L222.431 87.5943H226.698L226.215 89.4132H219.235L219.88 86.9586L219.092 87.2476L219.462 85.8617L220.245 85.5749L221.408 81.1553Z" fill="#FF952F"/>
<path d="M222.96 69.6563C227.332 69.6563 230.876 66.112 230.876 61.7398C230.876 57.3676 227.332 53.8232 222.96 53.8232C218.587 53.8232 215.043 57.3676 215.043 61.7398C215.043 66.112 218.587 69.6563 222.96 69.6563Z" fill="#1844BF"/>
<path d="M222.876 55.8882L225.543 61.3566L222.876 62.9442L220.209 61.3566L222.876 55.8882Z" fill="white"/>
<path d="M222.876 67.0752L220.209 62.6006L222.876 64.0921L225.543 62.6006L222.876 67.0752Z" fill="white"/>
<path fill-rule="evenodd" clip-rule="evenodd" d="M223.936 36.1226L223.928 35.0427L226.427 35.0257L226.415 33.3784L219.612 33.4242L219.624 35.0715L222.123 35.0546L222.131 36.1329C220.102 36.2394 218.577 36.6465 218.58 37.1238C218.583 37.6009 220.114 37.9879 222.145 38.0658L222.172 41.5255L223.979 41.5142L223.953 38.0529C225.979 37.947 227.5 37.539 227.496 37.0634C227.491 36.5876 225.966 36.2001 223.937 36.1215L223.936 36.1226ZM223.948 37.7611C223.897 37.7642 223.637 37.7817 223.052 37.7851C222.586 37.7877 222.257 37.776 222.142 37.7725C220.346 37.7081 219.004 37.4085 219.001 37.038C218.998 36.6676 220.337 36.3504 222.129 36.2597L222.139 37.4657C222.257 37.4732 222.592 37.4906 223.056 37.4875C223.614 37.4832 223.893 37.4584 223.945 37.4543L223.936 36.2482C225.726 36.3149 227.065 36.6153 227.068 36.9841C227.072 37.3528 225.737 37.671 223.948 37.7611Z" fill="white"/>
<path d="M263.158 42.4478H235.642C235.048 42.4478 234.566 41.966 234.566 41.3717V40.2957C234.566 39.7014 235.048 39.2196 235.642 39.2196H263.158C263.752 39.2196 264.234 39.7014 264.234 40.2957V41.3717C264.234 41.966 263.752 42.4478 263.158 42.4478Z" fill="#E2EBF4"/>
<path d="M267.616 35.6846H235.642C235.048 35.6846 234.566 35.2028 234.566 34.6085V33.5325C234.566 32.9382 235.048 32.4565 235.642 32.4565H267.616C268.21 32.4565 268.692 32.9382 268.692 33.5325V34.6085C268.692 35.2028 268.21 35.6846 267.616 35.6846Z" fill="#E2EBF4"/>
<path d="M269.706 66.7358H235.642C235.048 66.7358 234.566 66.2541 234.566 65.6598V64.5838C234.566 63.9895 235.048 63.5077 235.642 63.5077H269.706C270.301 63.5077 270.782 63.9895 270.782 64.5838V65.6598C270.782 66.2541 270.301 66.7358 269.706 66.7358Z" fill="#E2EBF4"/>
<path d="M275.148 59.9722H235.642C235.048 59.9722 234.566 59.4904 234.566 58.8961V57.8201C234.566 57.2258 235.048 56.7441 235.642 56.7441H275.148C275.743 56.7441 276.224 57.2258 276.224 57.8201V58.8961C276.224 59.4904 275.743 59.9722 275.148 59.9722Z" fill="#E2EBF4"/>
<path d="M273.918 90.8701H235.642C235.048 90.8701 234.566 90.3884 234.566 89.7941V88.718C234.566 88.1238 235.048 87.642 235.642 87.642H273.918C274.513 87.642 274.995 88.1238 274.995 88.718V89.7941C274.995 90.3884 274.513 90.8701 273.918 90.8701Z" fill="#E2EBF4"/>
<path d="M267.616 84.106H235.642C235.048 84.106 234.566 83.6242 234.566 83.0299V81.9539C234.566 81.3596 235.048 80.8778 235.642 80.8778H267.616C268.21 80.8778 268.692 81.3596 268.692 81.9539V83.0299C268.692 83.6242 268.21 84.106 267.616 84.106Z" fill="#E2EBF4"/>
<path fill-rule="evenodd" clip-rule="evenodd" d="M263.739 63.9116C263.245 63.7279 262.764 64.2089 262.948 64.7022L268.361 79.2503C268.516 79.6701 269.056 79.7874 269.372 79.4708L272.577 76.2643L276.94 80.6258C277.12 80.806 277.412 80.806 277.592 80.6258L279.662 78.5554C279.842 78.3754 279.842 78.0833 279.662 77.9033L275.301 73.5416L278.506 70.3354C278.823 70.0187 278.706 69.4805 278.287 69.3244L263.739 63.9116Z" fill="white"/>
<path d="M272.576 76.2644L272.739 76.1013C272.65 76.0113 272.504 76.0113 272.413 76.1013L272.576 76.2644ZM275.3 73.5418L275.137 73.3788C275.093 73.422 275.07 73.4806 275.07 73.5418C275.07 73.6029 275.093 73.6617 275.137 73.7049L275.3 73.5418ZM263.163 64.6219C263.047 64.3135 263.349 64.013 263.658 64.1277L263.817 63.6956C263.14 63.4432 262.479 64.1043 262.731 64.7827L263.163 64.6219ZM268.575 79.17L263.163 64.6219L262.731 64.7827L268.143 79.3308L268.575 79.17ZM269.207 79.3078C269.01 79.5058 268.673 79.4324 268.575 79.17L268.143 79.3308C268.358 79.908 269.098 80.0693 269.534 79.6338L269.207 79.3078ZM272.413 76.1013L269.207 79.3078L269.534 79.6338L272.739 76.4274L272.413 76.1013ZM277.102 80.463L272.739 76.1013L272.413 76.4274L276.776 80.789L277.102 80.463ZM277.428 80.463C277.337 80.5529 277.191 80.5529 277.102 80.463L276.776 80.789C277.045 81.0591 277.483 81.0591 277.754 80.789L277.428 80.463ZM279.498 78.3925L277.428 80.463L277.754 80.789L279.824 78.7186L279.498 78.3925ZM279.498 78.0663C279.587 78.1564 279.587 78.3024 279.498 78.3925L279.824 78.7186C280.095 78.4485 280.095 78.0104 279.824 77.7403L279.498 78.0663ZM275.137 73.7049L279.498 78.0663L279.824 77.7403L275.463 73.3788L275.137 73.7049ZM278.342 70.1725L275.137 73.3788L275.463 73.7049L278.668 70.4986L278.342 70.1725ZM278.206 69.5406C278.467 69.6382 278.541 69.9745 278.342 70.1725L278.668 70.4986C279.105 70.0631 278.943 69.3231 278.365 69.1083L278.206 69.5406ZM263.658 64.1277L278.206 69.5406L278.365 69.1083L263.817 63.6956L263.658 64.1277Z" fill="#0C38B7"/>
<path d="M290.213 32.6094H314.347C314.857 32.6094 315.27 32.1964 315.27 31.6871C315.27 31.1777 314.857 30.7647 314.347 30.7647L290.213 30.7647C289.704 30.7647 289.291 31.1777 289.291 31.6871C289.291 32.1964 289.704 32.6094 290.213 32.6094Z" fill="#E2EBF4"/>
<path d="M290.213 37.375H307.429C307.939 37.375 308.352 36.9621 308.352 36.4527C308.352 35.9433 307.939 35.5304 307.429 35.5304H290.213C289.703 35.5304 289.29 35.9433 289.29 36.4527C289.29 36.9621 289.703 37.375 290.213 37.375Z" fill="#E2EBF4"/>
<path d="M290.213 45.2148H307.429C307.939 45.2148 308.352 44.8019 308.352 44.2925C308.352 43.7831 307.939 43.3702 307.429 43.3702H290.213C289.703 43.3702 289.29 43.7831 289.29 44.2925C289.29 44.8019 289.703 45.2148 290.213 45.2148Z" fill="#E2EBF4"/>
<path d="M290.213 49.98H311.273C311.782 49.98 312.195 49.567 312.195 49.0577C312.195 48.5483 311.782 48.1353 311.273 48.1353H290.213C289.704 48.1353 289.291 48.5483 289.291 49.0577C289.291 49.567 289.704 49.98 290.213 49.98Z" fill="#E2EBF4"/>
<path d="M322.493 45.2148H318.036C317.526 45.2148 317.113 44.8019 317.113 44.2925C317.113 43.7831 317.526 43.3702 318.036 43.3702H322.493C323.003 43.3702 323.416 43.7831 323.416 44.2925C323.416 44.8019 323.003 45.2148 322.493 45.2148Z" fill="#FF952F"/>
<path d="M322.493 32.6094H318.036C317.526 32.6094 317.113 32.1964 317.113 31.6871C317.113 31.1777 317.526 30.7647 318.036 30.7647H322.493C323.003 30.7647 323.416 31.1777 323.416 31.6871C323.416 32.1964 323.003 32.6094 322.493 32.6094Z" fill="#FF952F"/>
<path d="M305.586 90.87C313.906 90.87 320.65 84.2286 320.65 76.0361C320.65 67.8435 313.906 61.2021 305.586 61.2021C297.266 61.2021 290.521 67.8435 290.521 76.0361C290.521 84.2286 297.266 90.87 305.586 90.87Z" fill="#1844BF"/>
<path d="M299.177 66.1381L299.177 66.138C298.659 65.6195 297.818 65.6195 297.299 66.1381L297.299 66.1381C296.781 66.6566 296.781 67.4972 297.299 68.0157L297.299 68.0158C297.818 68.5343 298.659 68.5343 299.177 68.0157L299.177 68.0157C299.696 67.4972 299.696 66.6566 299.177 66.1381Z" fill="white"/>
<path d="M295.012 77.0684C295.776 76.3043 295.776 75.0655 295.012 74.3015C294.248 73.5374 293.01 73.5374 292.245 74.3014C291.481 75.0655 291.481 76.3043 292.245 77.0684C293.01 77.8325 294.248 77.8325 295.012 77.0684Z" fill="white"/>
<path d="M306.507 64.2758C306.507 63.7665 306.094 63.3535 305.584 63.3535C305.075 63.3535 304.662 63.7665 304.662 64.2758C304.662 64.7852 305.075 65.1981 305.584 65.1981C306.094 65.1981 306.507 64.7852 306.507 64.2758Z" fill="white"/>
<path d="M305.586 87.6417C312.208 87.6417 317.576 82.4112 317.576 75.959C317.576 69.5069 312.208 64.2764 305.586 64.2764C298.964 64.2764 293.596 69.5069 293.596 75.959C293.596 82.4112 298.964 87.6417 305.586 87.6417Z" stroke="white" stroke-width="0.307439"/>
<path d="M301.588 75.3438L304.785 78.4182L309.581 73.8066" stroke="white" stroke-width="1.53719" stroke-linecap="round" stroke-linejoin="round"/>
<path d="M43.8104 10.2441H7.99389C7.52696 10.2441 7.14844 10.6227 7.14844 11.0896V86.5658C7.14844 87.0328 7.52696 87.4113 7.99389 87.4113H43.8104C44.2774 87.4113 44.6559 87.0328 44.6559 86.5658V11.0896C44.6559 10.6227 44.2774 10.2441 43.8104 10.2441Z" stroke="#E2EBF4" stroke-width="0.461158"/>
<path d="M112.214 10.2441H50.7263C50.2594 10.2441 49.8809 10.6227 49.8809 11.0896V86.5658C49.8809 87.0328 50.2594 87.4113 50.7263 87.4113H112.214C112.681 87.4113 113.059 87.0328 113.059 86.5658V11.0896C113.059 10.6227 112.681 10.2441 112.214 10.2441Z" stroke="#E2EBF4" stroke-width="0.461158" stroke-dasharray="2.15 2.15"/>
<path d="M148.953 14.0103H23.5186C23.0941 14.0103 22.75 14.3544 22.75 14.7789V96.0964C22.75 96.5209 23.0941 96.865 23.5186 96.865H148.953C149.378 96.865 149.722 96.5209 149.722 96.0964V14.7789C149.722 14.3544 149.378 14.0103 148.953 14.0103Z" fill="white" stroke="#0C38B7" stroke-width="0.461158"/>
<path d="M53.1869 22.0039H63.6398C63.8096 22.0039 63.9473 21.8663 63.9473 21.6965V20.7742C63.9473 20.6044 63.8096 20.4667 63.6398 20.4667H53.1869C53.0171 20.4667 52.8795 20.6044 52.8795 20.7742V21.6965C52.8795 21.8663 53.0171 22.0039 53.1869 22.0039Z" fill="#E2EBF4"/>
<path d="M29.2073 22.9268L48.2685 22.9268C48.693 22.9268 49.0371 22.5826 49.0371 22.1582V20.3135C49.0371 19.889 48.693 19.5449 48.2685 19.5449L29.2073 19.5449C28.7829 19.5449 28.4388 19.889 28.4388 20.3135V22.1582C28.4388 22.5826 28.7829 22.9268 29.2073 22.9268Z" fill="#E2EBF4"/>
<path d="M59.1822 58.1279H77.7822C78.2067 58.1279 78.5508 57.7838 78.5508 57.3593V28.9212C78.5508 28.4968 78.2067 28.1526 77.7822 28.1526L59.1822 28.1526C58.7577 28.1526 58.4136 28.4968 58.4136 28.9212V57.3593C58.4136 57.7838 58.7577 58.1279 59.1822 58.1279Z" fill="white" stroke="#0C38B7" stroke-width="0.461158"/>
<path d="M78.5493 48.751H58.4121" stroke="#0C38B7" stroke-width="0.461158"/>
<path d="M103.607 58.1279H122.36C122.785 58.1279 123.129 57.7838 123.129 57.3593V28.9212C123.129 28.4968 122.785 28.1526 122.36 28.1526L103.607 28.1526C103.182 28.1526 102.838 28.4968 102.838 28.9212V57.3593C102.838 57.7838 103.182 58.1279 103.607 58.1279Z" fill="#E2EBF4"/>
<path d="M125.897 58.1279H144.497C144.922 58.1279 145.266 57.7838 145.266 57.3593V28.9212C145.266 28.4968 144.922 28.1526 144.497 28.1526L125.897 28.1526C125.473 28.1526 125.128 28.4968 125.128 28.9212V57.3593C125.128 57.7838 125.473 58.1279 125.897 58.1279Z" fill="#E2EBF4"/>
<path d="M69.942 22.0039H80.7023C80.8721 22.0039 81.0098 21.8663 81.0098 21.6965V20.7742C81.0098 20.6044 80.8721 20.4667 80.7023 20.4667H69.942C69.7722 20.4667 69.6346 20.6044 69.6346 20.7742V21.6965C69.6346 21.8663 69.7722 22.0039 69.942 22.0039Z" fill="#E2EBF4"/>
<path d="M63.1783 53.5166H73.9387C74.1084 53.5166 74.2461 53.379 74.2461 53.2092V52.2868C74.2461 52.1171 74.1084 51.9794 73.9387 51.9794H63.1783C63.0085 51.9794 62.8709 52.1171 62.8709 52.2868V53.2092C62.8709 53.379 63.0085 53.5166 63.1783 53.5166Z" fill="#E2EBF4"/>
<path d="M81.3175 58.1279H100.071C100.496 58.1279 100.84 57.7838 100.84 57.3593V28.9212C100.84 28.4968 100.496 28.1526 100.071 28.1526L81.3175 28.1526C80.893 28.1526 80.5489 28.4968 80.5489 28.9212V57.3593C80.5489 57.7838 80.893 58.1279 81.3175 58.1279Z" fill="#E2EBF4"/>
<path d="M100.07 48.751H81.3164" stroke="white" stroke-width="0.461158" stroke-linecap="round"/>
<path d="M85.3131 53.5166H96.0734C96.2432 53.5166 96.3809 53.379 96.3809 53.2092V52.2868C96.3809 52.1171 96.2432 51.9794 96.0734 51.9794H85.3131C85.1433 51.9794 85.0056 52.1171 85.0056 52.2868V53.2092C85.0056 53.379 85.1433 53.5166 85.3131 53.5166Z" fill="white"/>
<path d="M59.1808 91.0239H77.9345C78.359 91.0239 78.7031 90.6798 78.7031 90.2553V61.8172C78.7031 61.3928 78.359 61.0486 77.9345 61.0486H59.1808C58.7563 61.0486 58.4122 61.3928 58.4122 61.8172V90.2553C58.4122 90.6798 58.7563 91.0239 59.1808 91.0239Z" fill="#E2EBF4"/>
<path d="M77.9354 81.647H59.1816" stroke="white" stroke-width="0.461158" stroke-linecap="round"/>
<path d="M63.1783 86.4121H73.9387C74.1084 86.4121 74.2461 86.2745 74.2461 86.1047V85.1824C74.2461 85.0126 74.1084 84.8749 73.9387 84.8749H63.1783C63.0085 84.8749 62.8709 85.0126 62.8709 85.1824V86.1047C62.8709 86.2745 63.0085 86.4121 63.1783 86.4121Z" fill="white"/>
<path d="M81.3175 91.0239H100.071C100.496 91.0239 100.84 90.6798 100.84 90.2553V61.8172C100.84 61.3928 100.496 61.0486 100.071 61.0486H81.3175C80.893 61.0486 80.5489 61.3928 80.5489 61.8172V90.2553C80.5489 90.6798 80.893 91.0239 81.3175 91.0239Z" fill="#E2EBF4"/>
<path d="M100.07 81.647H81.3164" stroke="white" stroke-width="0.461158" stroke-linecap="round"/>
<path d="M85.3131 86.4121H96.0734C96.2432 86.4121 96.3809 86.2745 96.3809 86.1047V85.1824C96.3809 85.0126 96.2432 84.8749 96.0734 84.8749H85.3131C85.1433 84.8749 85.0056 85.0126 85.0056 85.1824V86.1047C85.0056 86.2745 85.1433 86.4121 85.3131 86.4121Z" fill="white"/>
<path d="M103.452 91.0239H122.206C122.63 91.0239 122.975 90.6798 122.975 90.2553V61.8172C122.975 61.3928 122.63 61.0486 122.206 61.0486H103.452C103.028 61.0486 102.684 61.3928 102.684 61.8172V90.2553C102.684 90.6798 103.028 91.0239 103.452 91.0239Z" fill="#E2EBF4"/>
<path d="M122.205 81.647H103.451" stroke="white" stroke-width="0.461158" stroke-linecap="round"/>
<path d="M107.45 86.4121H118.21C118.38 86.4121 118.518 86.2745 118.518 86.1047V85.1824C118.518 85.0126 118.38 84.8749 118.21 84.8749H107.45C107.28 84.8749 107.142 85.0126 107.142 85.1824V86.1047C107.142 86.2745 107.28 86.4121 107.45 86.4121Z" fill="white"/>
<path d="M125.587 91.0239H144.341C144.765 91.0239 145.109 90.6798 145.109 90.2553V61.8172C145.109 61.3928 144.765 61.0486 144.341 61.0486H125.587C125.163 61.0486 124.818 61.3928 124.818 61.8172V90.2553C124.818 90.6798 125.163 91.0239 125.587 91.0239Z" fill="#E2EBF4"/>
<path d="M144.344 81.647H125.59" stroke="white" stroke-width="0.461158" stroke-linecap="round"/>
<path d="M129.585 86.4121H140.345C140.515 86.4121 140.652 86.2745 140.652 86.1047V85.1824C140.652 85.0126 140.515 84.8749 140.345 84.8749H129.585C129.415 84.8749 129.277 85.0126 129.277 85.1824V86.1047C129.277 86.2745 129.415 86.4121 129.585 86.4121Z" fill="white"/>
<path d="M107.911 53.5166H118.671C118.841 53.5166 118.979 53.379 118.979 53.2092V52.2868C118.979 52.1171 118.841 51.9794 118.671 51.9794H107.911C107.741 51.9794 107.603 52.1171 107.603 52.2868V53.2092C107.603 53.379 107.741 53.5166 107.911 53.5166Z" fill="white"/>
<path d="M130.2 53.5166H140.96C141.13 53.5166 141.268 53.379 141.268 53.2092V52.2868C141.268 52.1171 141.13 51.9794 140.96 51.9794H130.2C130.03 51.9794 129.892 52.1171 129.892 52.2868V53.2092C129.892 53.379 130.03 53.5166 130.2 53.5166Z" fill="white"/>
<path d="M86.5441 22.0039H97.4582C97.628 22.0039 97.7656 21.8663 97.7656 21.6965V20.7742C97.7656 20.6044 97.628 20.4667 97.4582 20.4667H86.5441C86.3743 20.4667 86.2367 20.6044 86.2367 20.7742V21.6965C86.2367 21.8663 86.3743 22.0039 86.5441 22.0039Z" fill="#E2EBF4"/>
<path d="M103.299 22.0039H114.366C114.536 22.0039 114.674 21.8663 114.674 21.6965V20.7742C114.674 20.6044 114.536 20.4667 114.366 20.4667H103.299C103.129 20.4667 102.991 20.6044 102.991 20.7742V21.6965C102.991 21.8663 103.129 22.0039 103.299 22.0039Z" fill="#E2EBF4"/>
<path d="M128.661 22.6182H140.344C140.684 22.6182 140.959 22.3429 140.959 22.0033V20.6198C140.959 20.2802 140.684 20.0049 140.344 20.0049H128.661C128.322 20.0049 128.047 20.2802 128.047 20.6198V22.0033C128.047 22.3429 128.322 22.6182 128.661 22.6182Z" fill="#E2EBF4"/>
<path d="M143.114 22.6182H144.651C144.99 22.6182 145.266 22.3429 145.266 22.0033V20.6198C145.266 20.2802 144.99 20.0049 144.651 20.0049H143.114C142.774 20.0049 142.499 20.2802 142.499 20.6198V22.0033C142.499 22.3429 142.774 22.6182 143.114 22.6182Z" fill="#E2EBF4"/>
<path d="M29.6691 37.5288H54.7253C55.4045 37.5288 55.9551 36.9782 55.9551 36.2991V29.3817C55.9551 28.7025 55.4045 28.1519 54.7253 28.1519L29.6691 28.1519C28.9899 28.1519 28.4394 28.7025 28.4394 29.3817V36.2991C28.4394 36.9782 28.9899 37.5288 29.6691 37.5288Z" stroke="#E2EBF4" stroke-width="0.461158" stroke-linecap="round" stroke-linejoin="round"/>
<path d="M29.6691 59.0498H54.7253C55.4045 59.0498 55.9551 58.4992 55.9551 57.82V50.9027C55.9551 50.2235 55.4045 49.6729 54.7253 49.6729H29.6691C28.9899 49.6729 28.4394 50.2235 28.4394 50.9027V57.82C28.4394 58.4992 28.9899 59.0498 29.6691 59.0498Z" stroke="#E2EBF4" stroke-width="0.461158" stroke-linecap="round" stroke-linejoin="round"/>
<path d="M29.6691 80.7241H54.7253C55.4045 80.7241 55.9551 80.1735 55.9551 79.4944V72.577C55.9551 71.8978 55.4045 71.3472 54.7253 71.3472H29.6691C28.9899 71.3472 28.4394 71.8978 28.4394 72.577V79.4944C28.4394 80.1735 28.9899 80.7241 29.6691 80.7241Z" stroke="#E2EBF4" stroke-width="0.461158" stroke-linecap="round" stroke-linejoin="round"/>
<path d="M29.6691 69.9639H54.7253C55.4045 69.9639 55.9551 69.4133 55.9551 68.7341V61.8167C55.9551 61.1376 55.4045 60.587 54.7253 60.587H29.6691C28.9899 60.587 28.4394 61.1376 28.4394 61.8167V68.7341C28.4394 69.4133 28.9899 69.9639 29.6691 69.9639Z" stroke="#E2EBF4" stroke-width="0.461158" stroke-linecap="round" stroke-linejoin="round"/>
<path d="M29.6691 91.4844H54.7253C55.4045 91.4844 55.9551 90.9338 55.9551 90.2546V83.3372C55.9551 82.6581 55.4045 82.1075 54.7253 82.1075H29.6691C28.9899 82.1075 28.4394 82.6581 28.4394 83.3372V90.2546C28.4394 90.9338 28.9899 91.4844 29.6691 91.4844Z" stroke="#E2EBF4" stroke-width="0.461158" stroke-linecap="round" stroke-linejoin="round"/>
<path fill-rule="evenodd" clip-rule="evenodd" d="M74.3639 51.7675C73.8706 51.5838 73.3896 52.0648 73.5731 52.5581L78.9861 67.1063C79.1422 67.5261 79.6804 67.6434 79.9971 67.3267L83.2035 64.1203L87.5651 68.4818C87.7451 68.6619 88.0372 68.6619 88.2172 68.4818L90.2876 66.4113C90.4678 66.2313 90.4678 65.9392 90.2876 65.7592L85.9262 61.3976L89.1323 58.1913C89.4491 57.8747 89.3318 57.3365 88.912 57.1803L74.3639 51.7675Z" fill="white"/>
<path d="M83.2041 64.1204L83.3672 63.9573C83.2772 63.8672 83.1311 63.8672 83.0412 63.9573L83.2041 64.1204ZM85.9268 61.3977L85.7637 61.2348C85.6736 61.3247 85.6736 61.4707 85.7637 61.5608L85.9268 61.3977ZM73.7899 52.4778C73.6753 52.1695 73.9758 51.869 74.2841 51.9836L74.4449 51.5515C73.7666 51.2991 73.1053 51.9603 73.3577 52.6386L73.7899 52.4778ZM79.2028 67.026L73.7899 52.4778L73.3577 52.6386L78.7706 67.1868L79.2028 67.026ZM79.8348 67.1637C79.6368 67.3617 79.3005 67.2884 79.2028 67.026L78.7706 67.1868C78.9853 67.764 79.7253 67.9253 80.1608 67.4898L79.8348 67.1637ZM83.0412 63.9573L79.8348 67.1637L80.1608 67.4898L83.3672 64.2833L83.0412 63.9573ZM87.7287 68.3189L83.3672 63.9573L83.0412 64.2833L87.4027 68.645L87.7287 68.3189ZM88.0549 68.3189C87.9648 68.4089 87.8188 68.4089 87.7287 68.3189L87.4027 68.645C87.6728 68.9151 88.1109 68.9151 88.3809 68.645L88.0549 68.3189ZM90.1254 66.2485L88.0549 68.3189L88.3809 68.645L90.4514 66.5745L90.1254 66.2485ZM90.1254 65.9223C90.2153 66.0124 90.2153 66.1584 90.1254 66.2485L90.4514 66.5745C90.7215 66.3044 90.7215 65.8663 90.4514 65.5963L90.1254 65.9223ZM85.7637 61.5608L90.1254 65.9223L90.4514 65.5963L86.0898 61.2348L85.7637 61.5608ZM88.97 58.0285L85.7637 61.2348L86.0898 61.5608L89.296 58.3545L88.97 58.0285ZM88.8323 57.3966C89.0945 57.4942 89.1678 57.8305 88.97 58.0285L89.296 58.3545C89.7315 57.9191 89.5703 57.179 88.9931 56.9643L88.8323 57.3966ZM74.2841 51.9836L88.8323 57.3966L88.9931 56.9643L74.4449 51.5515L74.2841 51.9836Z" fill="#0C38B7"/>
<path d="M5.68719 35.6851L27.9765 35.6851C31.1176 35.6851 33.6641 38.2315 33.6641 41.3727L33.6641 63.662C33.6641 66.8032 31.1176 69.3496 27.9765 69.3496L5.68719 69.3496C2.54601 69.3496 -0.000416482 66.8032 -0.000416413 63.662L-0.000415926 41.3727C-0.000415858 38.2315 2.54601 35.6851 5.68719 35.6851Z" fill="#1844BF"/>
<path d="M22.8118 60.9634H9.40599L10.0644 58.7068C10.2041 58.2278 10.6055 57.8715 11.0971 57.7901L19.1619 56.4544M8.10983 44.9084H25.3485C26.0215 44.9084 26.5341 45.5122 26.4259 46.1772L25.2483 53.4169C25.1588 53.9664 24.7293 54.3978 24.1807 54.4888L10.9948 56.6759C10.3663 56.7803 9.77138 56.3572 9.66255 55.7285L7.43347 42.8536C7.33155 42.2644 6.8209 41.834 6.22355 41.834H5.38086M8.41681 48.4269L26.1889 47.4361M8.96251 51.3987L25.7795 49.7591M9.44012 54.4049L25.5067 51.9795M9.64472 44.9766L11.3163 56.5569M12.0326 44.9766L13.2607 56.2495M14.7616 44.9766L15.4096 55.8736M17.354 44.9766L17.4904 55.5662M19.8783 44.9766V55.1905M22.4025 44.9766L21.9249 54.8489M24.7562 44.9766L24.0399 54.5072M14.6933 62.1591C14.6933 62.8194 14.1588 63.3547 13.4994 63.3547C12.8401 63.3547 12.3054 62.8194 12.3054 62.1591C12.3054 61.4988 12.8401 60.9634 13.4994 60.9634C14.1588 60.9634 14.6933 61.4988 14.6933 62.1591ZM21.9249 62.1591C21.9249 62.8194 21.3904 63.3547 20.7309 63.3547C20.0716 63.3547 19.5372 62.8194 19.5372 62.1591C19.5372 61.4988 20.0716 60.9634 20.7309 60.9634C21.3904 60.9634 21.9249 61.4988 21.9249 62.1591Z" stroke="white" stroke-width="0.461158" stroke-linecap="round"/>
<path d="M33.5875 77.8979C38.3841 77.8979 42.2726 74.0571 42.2726 69.3193C42.2726 64.5815 38.3841 60.7407 33.5875 60.7407C28.7908 60.7407 24.9023 64.5815 24.9023 69.3193C24.9023 74.0571 28.7908 77.8979 33.5875 77.8979Z" fill="#FF952F"/>
<path d="M33.5352 65.5361V72.9958" stroke="white" stroke-width="1.84463" stroke-linecap="round" stroke-linejoin="round"/>
<path d="M37.3709 69.2671H29.8047" stroke="white" stroke-width="1.84463" stroke-linecap="round" stroke-linejoin="round"/>
<path d="M17.3711 97.6338C17.3711 97.2094 17.7153 96.8652 18.1397 96.8652H155.872C156.296 96.8652 156.641 97.2094 156.641 97.6338V99.4785C156.641 100.752 155.608 101.784 154.335 101.784H19.6769C18.4035 101.784 17.3711 100.752 17.3711 99.4785V97.6338Z" fill="#1844BF"/>
<path d="M129.645 71.0405H141.517H153.702C159.567 71.0405 164.792 74.7553 166.735 80.306L174.902 103.636C176.591 108.462 174.158 113.762 169.403 115.611C165.228 117.236 160.492 116.266 157.286 113.13L150.906 106.89C150.321 106.317 149.534 105.996 148.716 105.996H141.517H134.632C133.813 105.996 133.026 106.317 132.44 106.89L126.061 113.13C122.854 116.266 118.118 117.236 113.943 115.611C109.19 113.762 106.757 108.462 108.446 103.636L116.612 80.306C118.555 74.7553 123.781 71.0405 129.645 71.0405Z" fill="white" stroke="#0C38B7" stroke-width="0.461158"/>
<path d="M154.491 87.0598C156.26 87.0598 157.695 85.6805 157.695 83.9791C157.695 82.2777 156.26 80.8984 154.491 80.8984C152.722 80.8984 151.287 82.2777 151.287 83.9791C151.287 85.6805 152.722 87.0598 154.491 87.0598Z" fill="#1844BF"/>
<path d="M160.034 94.6998C161.735 94.6998 163.114 93.2653 163.114 91.4959C163.114 89.7264 161.735 88.292 160.034 88.292C158.332 88.292 156.953 89.7264 156.953 91.4959C156.953 93.2653 158.332 94.6998 160.034 94.6998Z" fill="#1844BF"/>
<path d="M133.131 81.3596C133.131 81.1049 132.924 80.8984 132.67 80.8984H128.553C128.298 80.8984 128.092 81.1049 128.092 81.3596V84.8461C128.092 85.1008 127.886 85.3073 127.631 85.3073H124.145C123.89 85.3073 123.684 85.5139 123.684 85.7684V89.8847C123.684 90.1394 123.89 90.3459 124.145 90.3459H127.631C127.886 90.3459 128.092 90.5523 128.092 90.807V94.2934C128.092 94.5481 128.298 94.7546 128.553 94.7546H132.67C132.924 94.7546 133.131 94.5481 133.131 94.2934V90.807C133.131 90.5523 133.337 90.3459 133.592 90.3459H137.079C137.332 90.3459 137.54 90.1394 137.54 89.8847V85.7686C137.54 85.5139 137.332 85.3074 137.079 85.3074H133.592C133.337 85.3074 133.131 85.1008 133.131 84.8463V81.3596Z" fill="#1844BF"/>
<path d="M130.528 82.1848C130.588 82.0823 130.736 82.0823 130.796 82.1848L131.593 83.5683C131.653 83.6708 131.58 83.7989 131.461 83.7989H129.862C129.744 83.7989 129.67 83.6708 129.73 83.5683L130.528 82.1848Z" fill="white"/>
<path d="M130.796 93.0984C130.736 93.201 130.588 93.201 130.528 93.0984L129.73 91.715C129.67 91.6124 129.744 91.4844 129.862 91.4844H131.461C131.58 91.4844 131.653 91.6124 131.593 91.715L130.796 93.0984Z" fill="white"/>
<path d="M125.05 87.9286C124.947 87.8694 124.947 87.7215 125.05 87.6623L126.433 86.8636C126.536 86.8044 126.664 86.8784 126.664 86.9967V88.5942C126.664 88.7125 126.536 88.7865 126.433 88.7273L125.05 87.9286Z" fill="white"/>
<path d="M136.272 88.2362C136.375 88.177 136.375 88.0291 136.272 87.9699L134.889 87.1712C134.786 87.112 134.658 87.186 134.658 87.3044V88.9018C134.658 89.0202 134.786 89.0941 134.889 89.0349L136.272 88.2362Z" fill="white"/>
<path d="M84.3701 18.2365C83.0409 20.5387 80.9545 22.3089 78.4664 23.2454C75.9783 24.1819 73.2425 24.2266 70.7251 23.3721C68.2076 22.5175 66.0645 20.8166 64.6605 18.559C63.2566 16.3014 62.6791 13.6269 63.026 10.991C63.373 8.35537 64.6232 5.92138 66.5636 4.10411C68.5038 2.28684 71.0144 1.1985 73.6671 1.02465C76.32 0.850638 78.951 1.60202 81.1119 3.15059C83.2729 4.699 84.83 6.94899 85.5181 9.51688L74.4186 12.4909L84.3701 18.2365Z" fill="white" stroke="#1844BF" stroke-width="0.461158" stroke-linejoin="round"/>
<path d="M74.7834 8.78808C75.7597 8.78808 76.5512 8.03103 76.5512 7.09716C76.5512 6.1633 75.7597 5.40625 74.7834 5.40625C73.8071 5.40625 73.0156 6.1633 73.0156 7.09716C73.0156 8.03103 73.8071 8.78808 74.7834 8.78808Z" fill="white" stroke="#1844BF" stroke-width="0.461158" stroke-linejoin="round"/>
<path d="M91.771 14.7832C92.7049 14.7832 93.4619 14.0261 93.4619 13.0923C93.4619 12.1584 92.7049 11.4014 91.771 11.4014C90.8371 11.4014 90.0801 12.1584 90.0801 13.0923C90.0801 14.0261 90.8371 14.7832 91.771 14.7832Z" fill="white" stroke="#FF952F" stroke-width="0.461158" stroke-linejoin="round"/>
<path d="M99.7632 14.7832C100.697 14.7832 101.454 14.0261 101.454 13.0923C101.454 12.1584 100.697 11.4014 99.7632 11.4014C98.8293 11.4014 98.0723 12.1584 98.0723 13.0923C98.0723 14.0261 98.8293 14.7832 99.7632 14.7832Z" fill="white" stroke="#FF952F" stroke-width="0.461158" stroke-linejoin="round"/>
<path d="M107.757 14.7832C108.691 14.7832 109.448 14.0261 109.448 13.0923C109.448 12.1584 108.691 11.4014 107.757 11.4014C106.823 11.4014 106.066 12.1584 106.066 13.0923C106.066 14.0261 106.823 14.7832 107.757 14.7832Z" fill="white" stroke="#FF952F" stroke-width="0.461158" stroke-linejoin="round"/>
<path d="M115.75 14.7832C116.683 14.7832 117.44 14.0261 117.44 13.0923C117.44 12.1584 116.683 11.4014 115.75 11.4014C114.816 11.4014 114.059 12.1584 114.059 13.0923C114.059 14.0261 114.816 14.7832 115.75 14.7832Z" fill="white" stroke="#FF952F" stroke-width="0.461158" stroke-linejoin="round"/>
<path d="M122.359 48.751H103.605" stroke="white" stroke-width="0.461158" stroke-linecap="round"/>
<path d="M144.65 48.751H125.896" stroke="white" stroke-width="0.461158" stroke-linecap="round"/>
<path d="M47.6659 147.265H11.8494C11.3824 147.265 11.0039 147.643 11.0039 148.11V223.586C11.0039 224.053 11.3824 224.432 11.8494 224.432H47.6659C48.1328 224.432 48.5114 224.053 48.5114 223.586V148.11C48.5114 147.643 48.1328 147.265 47.6659 147.265Z" stroke="#E2EBF4" stroke-width="0.461158"/>
<path d="M116.069 147.265H54.5818C54.1149 147.265 53.7363 147.643 53.7363 148.11V223.586C53.7363 224.053 54.1149 224.432 54.5818 224.432H116.069C116.536 224.432 116.915 224.053 116.915 223.586V148.11C116.915 147.643 116.536 147.265 116.069 147.265Z" stroke="#E2EBF4" stroke-width="0.461158" stroke-dasharray="2.15 2.15"/>
<path d="M153.578 154.412H28.1436C27.7191 154.412 27.375 154.756 27.375 155.181V236.498C27.375 236.923 27.7191 237.267 28.1436 237.267H153.578C154.003 237.267 154.347 236.923 154.347 236.498V155.181C154.347 154.756 154.003 154.412 153.578 154.412Z" fill="white" stroke="#0C38B7" stroke-width="0.461158"/>
<path d="M31.2174 179.161H55.0439C55.4684 179.161 55.8125 178.817 55.8125 178.393V167.325C55.8125 166.9 55.4684 166.556 55.0439 166.556H31.2174C30.793 166.556 30.4489 166.9 30.4489 167.325V178.393C30.4489 178.817 30.793 179.161 31.2174 179.161Z" fill="#E2EBF4"/>
<path d="M60.884 160.869H71.798C71.9678 160.869 72.1055 160.731 72.1055 160.561V159.639C72.1055 159.469 71.9678 159.331 71.798 159.331H60.884C60.7142 159.331 60.5765 159.469 60.5765 159.639V160.561C60.5765 160.731 60.7142 160.869 60.884 160.869Z" fill="#E2EBF4"/>
<path d="M31.2161 161.944H51.0459C51.4703 161.944 51.8145 161.6 51.8145 161.176V159.177C51.8145 158.753 51.4703 158.409 51.0459 158.409H31.2161C30.7916 158.409 30.4475 158.753 30.4475 159.177V161.176C30.4475 161.6 30.7916 161.944 31.2161 161.944Z" fill="#E2EBF4"/>
<path d="M78.2543 160.869H89.4758C89.6456 160.869 89.7832 160.731 89.7832 160.561V159.639C89.7832 159.469 89.6456 159.331 89.4758 159.331H78.2543C78.0845 159.331 77.9468 159.469 77.9468 159.639V160.561C77.9468 160.731 78.0845 160.869 78.2543 160.869Z" fill="#E2EBF4"/>
<path d="M61.8091 176.241H74.1066C74.2764 176.241 74.4141 176.103 74.4141 175.933V175.011C74.4141 174.841 74.2764 174.704 74.1066 174.704H61.8091C61.6393 174.704 61.5017 174.841 61.5017 175.011V175.933C61.5017 176.103 61.6393 176.241 61.8091 176.241Z" fill="#E2EBF4"/>
<path d="M76.718 172.858H86.0949C86.2647 172.858 86.4023 172.721 86.4023 172.551V171.629C86.4023 171.459 86.2647 171.321 86.0949 171.321H76.718C76.5482 171.321 76.4106 171.459 76.4106 171.629V172.551C76.4106 172.721 76.5482 172.858 76.718 172.858Z" fill="#E2EBF4"/>
<path d="M95.4716 160.869H106.847C107.017 160.869 107.154 160.731 107.154 160.561V159.639C107.154 159.469 107.017 159.331 106.847 159.331H95.4716C95.3019 159.331 95.1642 159.469 95.1642 159.639V160.561C95.1642 160.731 95.3019 160.869 95.4716 160.869Z" fill="#E2EBF4"/>
<path d="M112.841 160.869H124.37C124.54 160.869 124.678 160.731 124.678 160.561V159.639C124.678 159.469 124.54 159.331 124.37 159.331H112.841C112.672 159.331 112.534 159.469 112.534 159.639V160.561C112.534 160.731 112.672 160.869 112.841 160.869Z" fill="#E2EBF4"/>
<path d="M133.9 161.483H146.043C146.383 161.483 146.658 161.208 146.658 160.869V159.331C146.658 158.992 146.383 158.716 146.043 158.716H133.9C133.56 158.716 133.285 158.992 133.285 159.331V160.869C133.285 161.208 133.56 161.483 133.9 161.483Z" fill="#E2EBF4"/>
<path d="M148.811 161.483H150.502C150.842 161.483 151.117 161.208 151.117 160.869V159.331C151.117 158.992 150.842 158.716 150.502 158.716H148.811C148.472 158.716 148.197 158.992 148.197 159.331V160.869C148.197 161.208 148.472 161.483 148.811 161.483Z" fill="#E2EBF4"/>
<path d="M31.2174 205.908H55.0439C55.4684 205.908 55.8125 205.564 55.8125 205.14V196.07C55.8125 195.646 55.4684 195.302 55.0439 195.302H31.2174C30.793 195.302 30.4489 195.646 30.4489 196.07V205.14C30.4489 205.564 30.793 205.908 31.2174 205.908Z" fill="#E2EBF4"/>
<path d="M31.2174 192.535H55.0439C55.4684 192.535 55.8125 192.191 55.8125 191.767V182.697C55.8125 182.273 55.4684 181.929 55.0439 181.929H31.2174C30.793 181.929 30.4489 182.273 30.4489 182.697V191.767C30.4489 192.191 30.793 192.535 31.2174 192.535Z" fill="#E2EBF4"/>
<path d="M59.347 231.964H150.041C150.508 231.964 150.887 231.586 150.887 231.119V167.633C150.887 167.166 150.508 166.787 150.041 166.787H59.347C58.8801 166.787 58.5016 167.166 58.5016 167.633L58.5016 231.119C58.5016 231.586 58.8801 231.964 59.347 231.964Z" stroke="#E2EBF4" stroke-width="0.461158"/>
<path d="M31.2174 218.975H55.0439C55.4684 218.975 55.8125 218.63 55.8125 218.206V209.444C55.8125 209.02 55.4684 208.675 55.0439 208.675H31.2174C30.793 208.675 30.4489 209.02 30.4489 209.444V218.206C30.4489 218.63 30.793 218.975 31.2174 218.975Z" fill="#E2EBF4"/>
<path d="M31.2174 232.195H55.0439C55.4684 232.195 55.8125 231.851 55.8125 231.426V222.664C55.8125 222.24 55.4684 221.896 55.0439 221.896H31.2174C30.793 221.896 30.4489 222.24 30.4489 222.664V231.426C30.4489 231.851 30.793 232.195 31.2174 232.195Z" fill="#E2EBF4"/>
<path d="M73.334 177.471V227.122" stroke="#E2EBF4" stroke-width="0.461158" stroke-linecap="round"/>
<path d="M89.3223 177.471V227.122" stroke="#E2EBF4" stroke-width="0.461158" stroke-linecap="round"/>
<path d="M105.156 177.471V227.122" stroke="#E2EBF4" stroke-width="0.461158" stroke-linecap="round"/>
<path d="M121.143 177.471V227.122" stroke="#E2EBF4" stroke-width="0.461158" stroke-linecap="round"/>
<path d="M137.131 177.471V227.122" stroke="#E2EBF4" stroke-width="0.461158" stroke-linecap="round"/>
<path d="M32.9067 203.449H53.1976C53.5372 203.449 53.8125 203.173 53.8125 202.834C53.8125 202.494 53.5372 202.219 53.1976 202.219H32.9067C32.5671 202.219 32.2918 202.494 32.2918 202.834C32.2918 203.173 32.5671 203.449 32.9067 203.449Z" fill="white"/>
<path d="M32.9067 190.075H53.1976C53.5372 190.075 53.8125 189.8 53.8125 189.46C53.8125 189.121 53.5372 188.845 53.1976 188.845H32.9067C32.5671 188.845 32.2918 189.121 32.2918 189.46C32.2918 189.8 32.5671 190.075 32.9067 190.075Z" fill="white"/>
<path d="M32.9067 216.515H53.1976C53.5372 216.515 53.8125 216.239 53.8125 215.9C53.8125 215.56 53.5372 215.285 53.1976 215.285H32.9067C32.5671 215.285 32.2918 215.56 32.2918 215.9C32.2918 216.239 32.5671 216.515 32.9067 216.515Z" fill="white"/>
<path d="M32.9067 229.582H53.1976C53.5372 229.582 53.8125 229.306 53.8125 228.967C53.8125 228.627 53.5372 228.352 53.1976 228.352H32.9067C32.5671 228.352 32.2918 228.627 32.2918 228.967C32.2918 229.306 32.5671 229.582 32.9067 229.582Z" fill="white"/>
<path d="M22.7617 206.217C25.913 194.893 32.8303 172.245 53.0444 172.245C73.2584 172.245 91.0899 227.046 118.99 227.046C139.281 227.046 148.888 209.419 151.117 200.606" stroke="#FF952F" stroke-width="1.22975" stroke-linecap="round" stroke-dasharray="2.46 2.46"/>
<path d="M39.9785 170.169L48.2025 178.47L81.0984 165.02L39.9785 170.169Z" fill="white" stroke="#0C38B7" stroke-width="0.461158" stroke-linejoin="round"/>
<path d="M50.5858 189.461L48.2031 178.47L81.099 165.02L50.5858 189.461Z" fill="white" stroke="#0C38B7" stroke-width="0.461158" stroke-linejoin="round"/>
<path d="M50.584 189.461L53.9658 180.238L81.0972 165.02L50.584 189.461Z" fill="white" stroke="#0C38B7" stroke-width="0.461158" stroke-linejoin="round"/>
<path d="M67.8784 186.156L53.9668 180.161L81.0982 165.02L67.8784 186.156Z" fill="white" stroke="#0C38B7" stroke-width="0.461158" stroke-linejoin="round"/>
<path fill-rule="evenodd" clip-rule="evenodd" d="M105.816 218.024C106.618 218.794 106.618 220.076 105.816 220.847L93.6245 232.566C92.3794 233.762 90.3103 232.88 90.3103 231.155V225.847H55.2501C54.7966 225.847 54.4277 225.478 54.4277 225.024V213.832C54.4277 213.378 54.7966 213.01 55.2501 213.01H90.3103V207.716C90.3103 205.99 92.3794 205.109 93.6245 206.305L105.816 218.024Z" fill="#1843BF"/>
<path d="M51.2668 212.93H48.9405C48.516 212.93 48.1719 213.274 48.1719 213.699V225.04C48.1719 225.464 48.516 225.809 48.9405 225.809H51.2668C51.6913 225.809 52.0354 225.464 52.0354 225.04V213.699C52.0354 213.274 51.6913 212.93 51.2668 212.93Z" fill="#1843BF"/>
<path d="M45.38 212.93H43.0538C42.6293 212.93 42.2852 213.274 42.2852 213.699V225.04C42.2852 225.464 42.6293 225.809 43.0538 225.809H45.38C45.8045 225.809 46.1486 225.464 46.1486 225.04V213.699C46.1486 213.274 45.8045 212.93 45.38 212.93Z" fill="#1843BF"/>
<path fill-rule="evenodd" clip-rule="evenodd" d="M103.002 188.908C103.002 196.525 107.016 202.7 111.967 202.7C112.034 202.7 112.101 202.699 112.167 202.697V202.7H117.745V199.455C119.694 196.925 120.933 193.139 120.933 188.908C120.933 184.677 119.694 180.891 117.745 178.361V175.115H112.167V175.118C112.101 175.116 112.034 175.115 111.967 175.115C107.016 175.115 103.002 181.29 103.002 188.908Z" fill="#0C39AC"/>
<path d="M108.583 188.908C108.583 196.525 112.597 202.7 117.548 202.7C122.5 202.7 126.514 196.525 126.514 188.908C126.514 181.29 122.5 175.115 117.548 175.115C112.597 175.115 108.583 181.29 108.583 188.908Z" fill="#1844BF"/>
<path fill-rule="evenodd" clip-rule="evenodd" d="M119.309 188.908C119.309 196.525 123.322 202.7 128.275 202.7C128.341 202.7 128.407 202.699 128.473 202.697V202.7H134.052V199.455C136.001 196.925 137.24 193.139 137.24 188.908C137.24 184.677 136.001 180.891 134.052 178.361V175.115H128.473V175.118C128.407 175.116 128.341 175.115 128.275 175.115C123.322 175.115 119.309 181.29 119.309 188.908Z" fill="#F18721"/>
<path d="M124.887 188.908C124.887 196.525 128.901 202.7 133.853 202.7C138.804 202.7 142.818 196.525 142.818 188.908C142.818 181.29 138.804 175.115 133.853 175.115C128.901 175.115 124.887 181.29 124.887 188.908Z" fill="#FF952F"/>
<path fill-rule="evenodd" clip-rule="evenodd" d="M135.615 188.908C135.615 196.525 139.63 202.7 144.582 202.7C144.648 202.7 144.714 202.699 144.781 202.697V202.7H150.36V199.455C152.309 196.925 153.547 193.139 153.547 188.908C153.547 184.677 152.309 180.891 150.36 178.361V175.115H144.781V175.118C144.714 175.116 144.648 175.115 144.582 175.115C139.63 175.115 135.615 181.29 135.615 188.908Z" fill="#CAD8E5"/>
<path d="M141.194 188.908C141.194 196.525 145.208 202.7 150.159 202.7C155.111 202.7 159.125 196.525 159.125 188.908C159.125 181.29 155.111 175.115 150.159 175.115C145.208 175.115 141.194 181.29 141.194 188.908Z" fill="#E2EBF4"/>
</svg>
