<svg width="1200" height="139" viewBox="0 0 1200 139" fill="none" xmlns="http://www.w3.org/2000/svg">
<g clip-path="url(#clip0_6261_22884)">
<path d="M52.6666 12.1074H10.3485C9.79684 12.1074 9.34961 12.5547 9.34961 13.1063V102.283C9.34961 102.835 9.79684 103.282 10.3485 103.282H52.6666C53.2183 103.282 53.6655 102.835 53.6655 102.283V13.1063C53.6655 12.5547 53.2183 12.1074 52.6666 12.1074Z" stroke="#E2EBF4" stroke-width="0.544868"/>
<path d="M597.716 12.2891H554.672C554.321 12.2891 554.036 12.5737 554.036 12.9247V102.828C554.036 103.179 554.321 103.464 554.672 103.464H597.716C598.067 103.464 598.352 103.179 598.352 102.828V12.9247C598.352 12.5737 598.067 12.2891 597.716 12.2891Z" stroke="#FF952F" stroke-width="0.544868"/>
<path d="M133.49 12.1074H60.8407C60.289 12.1074 59.8418 12.5547 59.8418 13.1063V102.283C59.8418 102.835 60.289 103.282 60.8407 103.282H133.49C134.041 103.282 134.489 102.835 134.489 102.283V13.1063C134.489 12.5547 134.041 12.1074 133.49 12.1074Z" stroke="#E2EBF4" stroke-width="0.544868" stroke-dasharray="2.54 2.54"/>
<path d="M678.175 12.0161H605.526C604.824 12.0161 604.255 12.5853 604.255 13.2875V102.464C604.255 103.166 604.824 103.735 605.526 103.735H678.175C678.877 103.735 679.447 103.166 679.447 102.464V13.2875C679.447 12.5853 678.877 12.0161 678.175 12.0161Z" fill="#E2EBF4"/>
<path d="M176.896 16.5571H28.6923C28.1908 16.5571 27.7842 16.9637 27.7842 17.4652V113.544C27.7842 114.045 28.1908 114.452 28.6923 114.452H176.896C177.398 114.452 177.804 114.045 177.804 113.544V17.4652C177.804 16.9637 177.398 16.5571 176.896 16.5571Z" fill="white" stroke="#0C38B7" stroke-width="0.544868"/>
<path d="M812.032 12.2891H769.714C769.162 12.2891 768.715 12.7363 768.715 13.288V102.465C768.715 103.016 769.162 103.464 769.714 103.464H812.032C812.584 103.464 813.031 103.016 813.031 102.465V13.288C813.031 12.7363 812.584 12.2891 812.032 12.2891Z" stroke="#E2EBF4" stroke-width="0.544868"/>
<path d="M892.853 12.2891H820.204C819.652 12.2891 819.205 12.7363 819.205 13.288V102.465C819.205 103.016 819.652 103.464 820.204 103.464H892.853C893.405 103.464 893.852 103.016 893.852 102.465V13.288C893.852 12.7363 893.405 12.2891 892.853 12.2891Z" stroke="#E2EBF4" stroke-width="0.544868" stroke-dasharray="2.54 2.54"/>
<path d="M666.733 20.7339H518.529C518.028 20.7339 517.621 21.1405 517.621 21.642V117.72C517.621 118.222 518.028 118.628 518.529 118.628H666.733C667.235 118.628 667.641 118.222 667.641 117.72V21.642C667.641 21.1405 667.235 20.7339 666.733 20.7339Z" fill="white" stroke="#0C38B7" stroke-width="0.544868"/>
<path d="M547.772 71.9517H571.201C571.703 71.9517 572.109 71.5451 572.109 71.0435V38.1699C572.109 37.6683 571.703 37.2618 571.201 37.2618H547.772C547.27 37.2618 546.864 37.6683 546.864 38.1699V71.0435C546.864 71.5451 547.27 71.9517 547.772 71.9517Z" fill="white" stroke="#0C38B7" stroke-width="0.544868"/>
<path d="M547.772 110.274H571.201C571.703 110.274 572.109 109.868 572.109 109.366V76.4926C572.109 75.9911 571.703 75.5845 571.201 75.5845H547.772C547.27 75.5845 546.864 75.9911 546.864 76.4926V109.366C546.864 109.868 547.27 110.274 547.772 110.274Z" fill="#E2EBF4"/>
<path d="M577.374 71.9517H600.804C601.305 71.9517 601.712 71.5451 601.712 71.0435V38.1699C601.712 37.6683 601.305 37.2618 600.804 37.2618H577.374C576.873 37.2618 576.466 37.6683 576.466 38.1699V71.0435C576.466 71.5451 576.873 71.9517 577.374 71.9517Z" fill="#E2EBF4"/>
<path d="M577.374 110.274H600.804C601.305 110.274 601.712 109.868 601.712 109.366V76.4926C601.712 75.9911 601.305 75.5845 600.804 75.5845H577.374C576.873 75.5845 576.466 75.9911 576.466 76.4926V109.366C576.466 109.868 576.873 110.274 577.374 110.274Z" fill="#E2EBF4"/>
<path d="M606.614 71.9517H630.043C630.545 71.9517 630.951 71.5451 630.951 71.0435V38.1699C630.951 37.6683 630.545 37.2618 630.043 37.2618H606.614C606.112 37.2618 605.706 37.6683 605.706 38.1699V71.0435C605.706 71.5451 606.112 71.9517 606.614 71.9517Z" fill="#E2EBF4"/>
<path d="M606.614 110.274H630.043C630.545 110.274 630.951 109.868 630.951 109.366V76.4926C630.951 75.9911 630.545 75.5845 630.043 75.5845H606.614C606.112 75.5845 605.706 75.9911 605.706 76.4926V109.366C605.706 109.868 606.112 110.274 606.614 110.274Z" fill="#E2EBF4"/>
<path d="M636.221 71.9517H659.65C660.152 71.9517 660.559 71.5451 660.559 71.0435V38.1699C660.559 37.6683 660.152 37.2618 659.65 37.2618H636.221C635.72 37.2618 635.313 37.6683 635.313 38.1699V71.0435C635.313 71.5451 635.72 71.9517 636.221 71.9517Z" fill="#E2EBF4"/>
<path d="M636.221 110.274H659.65C660.152 110.274 660.559 109.868 660.559 109.366V76.4926C660.559 75.9911 660.152 75.5845 659.65 75.5845H636.221C635.72 75.5845 635.313 75.9911 635.313 76.4926V109.366C635.313 109.868 635.72 110.274 636.221 110.274Z" fill="#E2EBF4"/>
<path d="M63.7454 26.0015H76.0957C76.2964 26.0015 76.459 25.8388 76.459 25.6382V24.5485C76.459 24.3479 76.2964 24.1852 76.0957 24.1852H63.7454C63.5448 24.1852 63.3822 24.3479 63.3822 24.5485V25.6382C63.3822 25.8388 63.5448 26.0015 63.7454 26.0015Z" fill="#E2EBF4"/>
<path d="M35.4135 27.0918L57.9347 27.0918C58.4362 27.0918 58.8428 26.6852 58.8428 26.1837V24.0042C58.8428 23.5027 58.4362 23.0961 57.9347 23.0961L35.4135 23.0961C34.9119 23.0961 34.5054 23.5027 34.5054 24.0042V26.1837C34.5054 26.6852 34.9119 27.0918 35.4135 27.0918Z" fill="#E2EBF4"/>
<path d="M70.8304 68.6826H92.8067C93.3083 68.6826 93.7148 68.276 93.7148 67.7745V34.1743C93.7148 33.6728 93.3083 33.2662 92.8067 33.2662H70.8304C70.3289 33.2662 69.9223 33.6728 69.9223 34.1743V67.7745C69.9223 68.276 70.3289 68.6826 70.8304 68.6826Z" fill="white" stroke="#0C38B7" stroke-width="0.544868"/>
<path d="M93.7134 57.604H69.9209" stroke="#0C38B7" stroke-width="0.544868"/>
<path d="M123.318 68.6826H145.476C145.977 68.6826 146.384 68.276 146.384 67.7745V34.1743C146.384 33.6728 145.977 33.2662 145.476 33.2662H123.318C122.816 33.2662 122.41 33.6728 122.41 34.1743V67.7745C122.41 68.276 122.816 68.6826 123.318 68.6826Z" fill="#E2EBF4"/>
<path d="M149.655 68.6826H171.631C172.132 68.6826 172.539 68.276 172.539 67.7745V34.1743C172.539 33.6728 172.132 33.2662 171.631 33.2662H149.655C149.153 33.2662 148.747 33.6728 148.747 34.1743V67.7745C148.747 68.276 149.153 68.6826 149.655 68.6826Z" fill="#E2EBF4"/>
<path d="M83.5423 26.0015H96.2559C96.4565 26.0015 96.6191 25.8388 96.6191 25.6382V24.5485C96.6191 24.3479 96.4565 24.1852 96.2559 24.1852H83.5423C83.3417 24.1852 83.1791 24.3479 83.1791 24.5485V25.6382C83.1791 25.8388 83.3417 26.0015 83.5423 26.0015Z" fill="#E2EBF4"/>
<path d="M75.5501 63.2344H88.2637C88.4643 63.2344 88.627 63.0717 88.627 62.8711V61.7814C88.627 61.5808 88.4643 61.4181 88.2637 61.4181H75.5501C75.3495 61.4181 75.1869 61.5808 75.1869 61.7814V62.8711C75.1869 63.0717 75.3495 63.2344 75.5501 63.2344Z" fill="#E2EBF4"/>
<path d="M96.9828 68.6826H119.141C119.642 68.6826 120.049 68.276 120.049 67.7745V34.1743C120.049 33.6728 119.642 33.2662 119.141 33.2662H96.9828C96.4812 33.2662 96.0747 33.6728 96.0747 34.1743V67.7745C96.0747 68.276 96.4812 68.6826 96.9828 68.6826Z" fill="#E2EBF4"/>
<path d="M119.14 57.604H96.9824" stroke="white" stroke-width="0.544868" stroke-linecap="round"/>
<path d="M101.705 63.2344H114.419C114.62 63.2344 114.782 63.0717 114.782 62.8711V61.7814C114.782 61.5808 114.62 61.4181 114.419 61.4181H101.705C101.505 61.4181 101.342 61.5808 101.342 61.7814V62.8711C101.342 63.0717 101.505 63.2344 101.705 63.2344Z" fill="white"/>
<path d="M70.8304 107.55H92.9884C93.4899 107.55 93.8965 107.144 93.8965 106.642V73.042C93.8965 72.5405 93.4899 72.1339 92.9884 72.1339H70.8304C70.3289 72.1339 69.9223 72.5405 69.9223 73.042V106.642C69.9223 107.144 70.3289 107.55 70.8304 107.55Z" fill="#E2EBF4"/>
<path d="M92.988 96.4712H70.8301" stroke="white" stroke-width="0.544868" stroke-linecap="round"/>
<path d="M75.5501 102.101H88.2637C88.4643 102.101 88.627 101.938 88.627 101.738V100.648C88.627 100.447 88.4643 100.285 88.2637 100.285H75.5501C75.3495 100.285 75.1869 100.447 75.1869 100.648V101.738C75.1869 101.938 75.3495 102.101 75.5501 102.101Z" fill="white"/>
<path d="M96.9828 107.55H119.141C119.642 107.55 120.049 107.144 120.049 106.642V73.042C120.049 72.5405 119.642 72.1339 119.141 72.1339H96.9828C96.4812 72.1339 96.0747 72.5405 96.0747 73.042V106.642C96.0747 107.144 96.4812 107.55 96.9828 107.55Z" fill="#E2EBF4"/>
<path d="M119.14 96.4712H96.9824" stroke="white" stroke-width="0.544868" stroke-linecap="round"/>
<path d="M101.705 102.101H114.419C114.62 102.101 114.782 101.938 114.782 101.738V100.648C114.782 100.447 114.62 100.285 114.419 100.285H101.705C101.505 100.285 101.342 100.447 101.342 100.648V101.738C101.342 101.938 101.505 102.101 101.705 102.101Z" fill="white"/>
<path d="M123.137 107.55H145.295C145.797 107.55 146.203 107.144 146.203 106.642V73.042C146.203 72.5405 145.797 72.1339 145.295 72.1339H123.137C122.636 72.1339 122.229 72.5405 122.229 73.042V106.642C122.229 107.144 122.636 107.55 123.137 107.55Z" fill="#E2EBF4"/>
<path d="M145.295 96.4712H123.137" stroke="white" stroke-width="0.544868" stroke-linecap="round"/>
<path d="M127.86 102.101H140.573C140.774 102.101 140.937 101.938 140.937 101.738V100.648C140.937 100.447 140.774 100.285 140.573 100.285H127.86C127.659 100.285 127.496 100.447 127.496 100.648V101.738C127.496 101.938 127.659 102.101 127.86 102.101Z" fill="white"/>
<path d="M149.29 107.55H171.448C171.95 107.55 172.356 107.144 172.356 106.642V73.042C172.356 72.5405 171.95 72.1339 171.448 72.1339H149.29C148.789 72.1339 148.382 72.5405 148.382 73.042V106.642C148.382 107.144 148.789 107.55 149.29 107.55Z" fill="#E2EBF4"/>
<path d="M171.45 96.4712H149.292" stroke="white" stroke-width="0.544868" stroke-linecap="round"/>
<path d="M154.012 102.101H166.726C166.926 102.101 167.089 101.938 167.089 101.738V100.648C167.089 100.447 166.926 100.285 166.726 100.285H154.012C153.811 100.285 153.649 100.447 153.649 100.648V101.738C153.649 101.938 153.811 102.101 154.012 102.101Z" fill="white"/>
<path d="M128.404 63.2344H141.117C141.318 63.2344 141.48 63.0717 141.48 62.8711V61.7814C141.48 61.5808 141.318 61.4181 141.117 61.4181H128.404C128.203 61.4181 128.04 61.5808 128.04 61.7814V62.8711C128.04 63.0717 128.203 63.2344 128.404 63.2344Z" fill="white"/>
<path d="M154.74 63.2344H167.453C167.654 63.2344 167.816 63.0717 167.816 62.8711V61.7814C167.816 61.5808 167.654 61.4181 167.453 61.4181H154.74C154.539 61.4181 154.376 61.5808 154.376 61.7814V62.8711C154.376 63.0717 154.539 63.2344 154.74 63.2344Z" fill="white"/>
<path d="M103.159 26.0015H116.054C116.254 26.0015 116.417 25.8388 116.417 25.6382V24.5485C116.417 24.3479 116.254 24.1852 116.054 24.1852H103.159C102.958 24.1852 102.795 24.3479 102.795 24.5485V25.6382C102.795 25.8388 102.958 26.0015 103.159 26.0015Z" fill="#E2EBF4"/>
<path d="M122.956 26.0015H136.033C136.234 26.0015 136.396 25.8388 136.396 25.6382V24.5485C136.396 24.3479 136.234 24.1852 136.033 24.1852H122.956C122.756 24.1852 122.593 24.3479 122.593 24.5485V25.6382C122.593 25.8388 122.756 26.0015 122.956 26.0015Z" fill="#E2EBF4"/>
<path d="M152.922 26.7275L166.726 26.7275C167.127 26.7275 167.452 26.4023 167.452 26.001V24.3664C167.452 23.9652 167.127 23.64 166.726 23.64H152.922C152.521 23.64 152.196 23.9652 152.196 24.3664V26.001C152.196 26.4023 152.521 26.7275 152.922 26.7275Z" fill="#E2EBF4"/>
<path d="M169.996 26.7275H171.813C172.214 26.7275 172.539 26.4023 172.539 26.001V24.3664C172.539 23.9652 172.214 23.64 171.813 23.64H169.996C169.595 23.64 169.27 23.9652 169.27 24.3664V26.001C169.27 26.4023 169.595 26.7275 169.996 26.7275Z" fill="#E2EBF4"/>
<path d="M178.713 33.811H271.522" stroke="#0C38B7" stroke-width="0.544868"/>
<path d="M178.713 35.9912H271.522" stroke="#1844BF" stroke-width="0.544868" stroke-dasharray="4.54 4.54"/>
<path d="M300.037 11.8345H284.055C283.352 11.8345 282.783 12.4037 282.783 13.1058V101.919C282.783 102.621 283.352 103.191 284.055 103.191H300.037C300.739 103.191 301.309 102.621 301.309 101.919V13.1058C301.309 12.4037 300.739 11.8345 300.037 11.8345Z" fill="#E2EBF4"/>
<path d="M428.99 12.2891H308.756C308.405 12.2891 308.12 12.5737 308.12 12.9247V102.465C308.12 102.816 308.405 103.1 308.756 103.1H428.99C429.341 103.1 429.626 102.816 429.626 102.465V12.9247C429.626 12.5737 429.341 12.2891 428.99 12.2891Z" stroke="#FF952F" stroke-width="0.544868"/>
<path d="M420.817 20.7339H272.613C272.112 20.7339 271.705 21.1405 271.705 21.642V117.72C271.705 118.222 272.112 118.628 272.613 118.628H420.817C421.319 118.628 421.725 118.222 421.725 117.72V21.642C421.725 21.1405 421.319 20.7339 420.817 20.7339Z" fill="white" stroke="#0C38B7" stroke-width="0.544868"/>
<path d="M281.876 56.3325L359.247 56.3325C360.25 56.3325 361.063 55.5194 361.063 54.5163V33.8113C361.063 32.8083 360.25 31.9951 359.247 31.9951L281.876 31.9951C280.873 31.9951 280.06 32.8083 280.06 33.8113V54.5163C280.06 55.5194 280.873 56.3325 281.876 56.3325Z" stroke="#E2EBF4" stroke-width="0.544868" stroke-linecap="round" stroke-linejoin="round"/>
<path d="M35.9592 44.3447L65.5636 44.3447C66.3661 44.3447 67.0166 43.6942 67.0166 42.8917V34.7187C67.0166 33.9163 66.3661 33.2658 65.5636 33.2658H35.9592C35.1567 33.2658 34.5062 33.9163 34.5062 34.7187V42.8917C34.5062 43.6942 35.1567 44.3447 35.9592 44.3447Z" stroke="#E2EBF4" stroke-width="0.544868" stroke-linecap="round" stroke-linejoin="round"/>
<path d="M35.9592 69.772H65.5636C66.3661 69.772 67.0166 69.1215 67.0166 68.319V60.146C67.0166 59.3435 66.3661 58.693 65.5636 58.693H35.9592C35.1567 58.693 34.5062 59.3435 34.5062 60.146V68.319C34.5062 69.1215 35.1567 69.772 35.9592 69.772Z" stroke="#E2EBF4" stroke-width="0.544868" stroke-linecap="round" stroke-linejoin="round"/>
<path d="M35.9592 95.3809H65.5636C66.3661 95.3809 67.0166 94.7303 67.0166 93.9279V85.7549C67.0166 84.9524 66.3661 84.3019 65.5636 84.3019H35.9592C35.1567 84.3019 34.5062 84.9524 34.5062 85.7549V93.9279C34.5062 94.7303 35.1567 95.3809 35.9592 95.3809Z" stroke="#E2EBF4" stroke-width="0.544868" stroke-linecap="round" stroke-linejoin="round"/>
<path d="M527.429 42.7109H540.688C541.49 42.7109 542.141 42.0604 542.141 41.258V38.8969C542.141 38.0944 541.49 37.4439 540.688 37.4439H527.429C526.627 37.4439 525.976 38.0944 525.976 38.8969V41.258C525.976 42.0604 526.627 42.7109 527.429 42.7109Z" stroke="#E2EBF4" stroke-width="0.544868" stroke-linecap="round" stroke-linejoin="round"/>
<path d="M527.429 52.1548H540.688C541.49 52.1548 542.141 51.5043 542.141 50.7018V48.5223C542.141 47.7199 541.49 47.0694 540.688 47.0694H527.429C526.627 47.0694 525.976 47.7199 525.976 48.5223V50.7018C525.976 51.5043 526.627 52.1548 527.429 52.1548Z" stroke="#E2EBF4" stroke-width="0.544868" stroke-linecap="round" stroke-linejoin="round"/>
<path d="M527.429 61.9619H540.688C541.49 61.9619 542.141 61.3114 542.141 60.5089V58.3295C542.141 57.527 541.49 56.8765 540.688 56.8765H527.429C526.627 56.8765 525.976 57.527 525.976 58.3295V60.5089C525.976 61.3114 526.627 61.9619 527.429 61.9619Z" stroke="#E2EBF4" stroke-width="0.544868" stroke-linecap="round" stroke-linejoin="round"/>
<path d="M527.429 71.5889H540.688C541.49 71.5889 542.141 70.9383 542.141 70.1359V67.7748C542.141 66.9723 541.49 66.3218 540.688 66.3218H527.429C526.627 66.3218 525.976 66.9723 525.976 67.7748V70.1359C525.976 70.9383 526.627 71.5889 527.429 71.5889Z" stroke="#E2EBF4" stroke-width="0.544868" stroke-linecap="round" stroke-linejoin="round"/>
<path d="M527.429 81.396H540.688C541.49 81.396 542.141 80.7455 542.141 79.943V77.5819C542.141 76.7795 541.49 76.1289 540.688 76.1289H527.429C526.627 76.1289 525.976 76.7795 525.976 77.5819V79.943C525.976 80.7455 526.627 81.396 527.429 81.396Z" stroke="#E2EBF4" stroke-width="0.544868" stroke-linecap="round" stroke-linejoin="round"/>
<path d="M527.429 90.8408H540.688C541.49 90.8408 542.141 90.1903 542.141 89.3878V87.2084C542.141 86.4059 541.49 85.7554 540.688 85.7554H527.429C526.627 85.7554 525.976 86.4059 525.976 87.2084V89.3878C525.976 90.1903 526.627 90.8408 527.429 90.8408Z" stroke="#E2EBF4" stroke-width="0.544868" stroke-linecap="round" stroke-linejoin="round"/>
<path d="M527.429 100.648H540.688C541.49 100.648 542.141 99.9979 542.141 99.1955V97.016C542.141 96.2135 541.49 95.563 540.688 95.563H527.429C526.627 95.563 525.976 96.2135 525.976 97.016V99.1955C525.976 99.9979 526.627 100.648 527.429 100.648Z" stroke="#E2EBF4" stroke-width="0.544868" stroke-linecap="round" stroke-linejoin="round"/>
<path d="M527.429 110.274H540.688C541.49 110.274 542.141 109.624 542.141 108.821V106.46C542.141 105.658 541.49 105.007 540.688 105.007H527.429C526.627 105.007 525.976 105.658 525.976 106.46V108.821C525.976 109.624 526.627 110.274 527.429 110.274Z" stroke="#E2EBF4" stroke-width="0.544868" stroke-linecap="round" stroke-linejoin="round"/>
<path d="M35.9592 82.6675H65.5636C66.3661 82.6675 67.0166 82.017 67.0166 81.2145V73.0415C67.0166 72.239 66.3661 71.5885 65.5636 71.5885H35.9592C35.1567 71.5885 34.5062 72.239 34.5062 73.0415V81.2145C34.5062 82.017 35.1567 82.6675 35.9592 82.6675Z" stroke="#E2EBF4" stroke-width="0.544868" stroke-linecap="round" stroke-linejoin="round"/>
<path d="M35.9592 108.094H65.5636C66.3661 108.094 67.0166 107.444 67.0166 106.641V98.4682C67.0166 97.6658 66.3661 97.0153 65.5636 97.0153H35.9592C35.1567 97.0153 34.5062 97.6658 34.5062 98.4682V106.641C34.5062 107.444 35.1567 108.094 35.9592 108.094Z" stroke="#E2EBF4" stroke-width="0.544868" stroke-linecap="round" stroke-linejoin="round"/>
<path d="M560.303 112.545L624.234 112.545C625.588 112.545 626.686 111.447 626.686 110.093V34.538C626.686 33.1839 625.588 32.0861 624.234 32.0861L560.303 32.0861C558.948 32.0861 557.851 33.1839 557.851 34.538V110.093C557.851 111.447 558.948 112.545 560.303 112.545Z" fill="white" stroke="#E2EBF4" stroke-width="0.544868" stroke-linecap="round" stroke-linejoin="round"/>
<path d="M279.696 85.7549L361.426 85.7549C362.429 85.7549 363.242 84.9417 363.242 83.9387V61.7807C363.242 60.7776 362.429 59.9645 361.426 59.9645L279.696 59.9645C278.693 59.9645 277.88 60.7776 277.88 61.7807V83.9387C277.88 84.9417 278.693 85.7549 279.696 85.7549Z" fill="white" stroke="#0C38B7" stroke-width="0.544868"/>
<path d="M281.876 113.543L359.247 113.543C360.25 113.543 361.063 112.73 361.063 111.727V91.0223C361.063 90.0192 360.25 89.206 359.247 89.206L281.876 89.206C280.873 89.206 280.06 90.0192 280.06 91.0223V111.727C280.06 112.73 280.873 113.543 281.876 113.543Z" stroke="#E2EBF4" stroke-width="0.544868" stroke-linecap="round" stroke-linejoin="round"/>
<path d="M325.736 27.2729L403.289 27.2729C404.042 27.2729 404.651 26.6631 404.651 25.9108V25.9108C404.651 25.1585 404.042 24.5486 403.289 24.5486L325.736 24.5486C324.984 24.5486 324.374 25.1585 324.374 25.9108C324.374 26.6631 324.984 27.2729 325.736 27.2729Z" fill="#E2EBF4"/>
<path d="M571.653 27.2729L649.206 27.2729C649.958 27.2729 650.568 26.6631 650.568 25.9108V25.9108C650.568 25.1585 649.958 24.5486 649.206 24.5486L571.653 24.5486C570.901 24.5486 570.291 25.1585 570.291 25.9108C570.291 26.6631 570.901 27.2729 571.653 27.2729Z" fill="#E2EBF4"/>
<path d="M573.834 40.168L611.43 40.168C612.182 40.168 612.792 39.5581 612.792 38.8058C612.792 38.0535 612.182 37.4436 611.43 37.4436L573.834 37.4436C573.082 37.4436 572.472 38.0535 572.472 38.8058C572.472 39.5581 573.082 40.168 573.834 40.168Z" fill="#E2EBF4"/>
<path d="M281.422 27.2727C282.174 27.2727 282.784 26.6628 282.784 25.9105C282.784 25.1582 282.174 24.5483 281.422 24.5483C280.669 24.5483 280.06 25.1582 280.06 25.9105C280.06 26.6628 280.669 27.2727 281.422 27.2727Z" fill="#E2EBF4"/>
<path d="M522.433 27.2727C523.186 27.2727 523.796 26.6628 523.796 25.9105C523.796 25.1582 523.186 24.5483 522.433 24.5483C521.681 24.5483 521.071 25.1582 521.071 25.9105C521.071 26.6628 521.681 27.2727 522.433 27.2727Z" fill="#E2EBF4"/>
<path d="M286.324 27.2727C287.076 27.2727 287.686 26.6628 287.686 25.9105C287.686 25.1582 287.076 24.5483 286.324 24.5483C285.572 24.5483 284.962 25.1582 284.962 25.9105C284.962 26.6628 285.572 27.2727 286.324 27.2727Z" fill="#E2EBF4"/>
<path d="M527.339 27.2727C528.091 27.2727 528.701 26.6628 528.701 25.9105C528.701 25.1582 528.091 24.5483 527.339 24.5483C526.586 24.5483 525.977 25.1582 525.977 25.9105C525.977 26.6628 526.586 27.2727 527.339 27.2727Z" fill="#E2EBF4"/>
<path d="M291.048 27.2727C291.8 27.2727 292.41 26.6628 292.41 25.9105C292.41 25.1582 291.8 24.5483 291.048 24.5483C290.295 24.5483 289.686 25.1582 289.686 25.9105C289.686 26.6628 290.295 27.2727 291.048 27.2727Z" fill="#E2EBF4"/>
<path d="M532.06 27.2727C532.813 27.2727 533.423 26.6628 533.423 25.9105C533.423 25.1582 532.813 24.5483 532.06 24.5483C531.308 24.5483 530.698 25.1582 530.698 25.9105C530.698 26.6628 531.308 27.2727 532.06 27.2727Z" fill="#E2EBF4"/>
<path d="M418.803 12.0994L414.18 7.47607L409.556 12.0994L414.18 16.7228L418.803 12.0994Z" fill="#FF952F"/>
<path d="M421.543 33.811H517.803" stroke="#0C38B7" stroke-width="0.544868"/>
<path d="M421.543 35.9912H517.803" stroke="#1844BF" stroke-width="0.544868" stroke-dasharray="4.54 4.54"/>
<path d="M667.643 33.811H788.058" stroke="#0C38B7" stroke-width="0.544868"/>
<path d="M904.66 33.811H1025.98" stroke="#0C38B7" stroke-width="0.544868"/>
<path d="M667.643 35.9912H788.058" stroke="#1844BF" stroke-width="0.544868" stroke-dasharray="4.54 4.54"/>
<path d="M904.66 35.9912H1025.98" stroke="#1844BF" stroke-width="0.544868" stroke-dasharray="4.54 4.54"/>
<path d="M294.134 53.608C299.3 53.608 303.487 49.4203 303.487 44.2544C303.487 39.0886 299.3 34.9009 294.134 34.9009C288.968 34.9009 284.78 39.0886 284.78 44.2544C284.78 49.4203 288.968 53.608 294.134 53.608Z" fill="#FF952F"/>
<path d="M294.134 110.819C299.3 110.819 303.487 106.632 303.487 101.466C303.487 96.3 299.3 92.1123 294.134 92.1123C288.968 92.1123 284.78 96.3 284.78 101.466C284.78 106.632 288.968 110.819 294.134 110.819Z" fill="#E2EBF4"/>
<path d="M292.301 95.8906H295.51L294.478 99.8113L295.542 99.4216L295.105 101.059L294.048 101.446L293.508 103.498H298.55L297.98 105.648H289.732L290.495 102.747L289.563 103.089L290.001 101.451L290.926 101.112L292.301 95.8906Z" fill="#FF952F"/>
<path fill-rule="evenodd" clip-rule="evenodd" d="M88.7676 61.1679C88.1848 60.9508 87.6165 61.5191 87.8333 62.102L94.2288 79.2909C94.4133 79.7869 95.0492 79.9255 95.4233 79.5513L99.2118 75.7629L104.365 80.916C104.578 81.1289 104.923 81.1289 105.136 80.916L107.582 78.4698C107.795 78.2571 107.795 77.912 107.582 77.6993L102.429 72.546L106.217 68.7577C106.591 68.3835 106.453 67.7477 105.957 67.5632L88.7676 61.1679Z" fill="white"/>
<path d="M99.2134 75.7629L99.4061 75.5702C99.2997 75.4638 99.1271 75.4638 99.0209 75.5702L99.2134 75.7629ZM102.43 72.546L102.238 72.3535C102.131 72.4598 102.131 72.6323 102.238 72.7387L102.43 72.546ZM88.0903 62.007C87.9548 61.6427 88.3099 61.2876 88.6742 61.4231L88.8642 60.9126C88.0627 60.6144 87.2813 61.3955 87.5796 62.197L88.0903 62.007ZM94.4858 79.196L88.0903 62.007L87.5796 62.197L93.975 79.3859L94.4858 79.196ZM95.2324 79.3587C94.9985 79.5926 94.6011 79.506 94.4858 79.196L93.975 79.3859C94.2288 80.0679 95.1031 80.2585 95.6176 79.7439L95.2324 79.3587ZM99.0209 75.5702L95.2324 79.3587L95.6176 79.7439L99.4061 75.9555L99.0209 75.5702ZM104.559 80.7236L99.4061 75.5702L99.0209 75.9555L104.174 81.1088L104.559 80.7236ZM104.945 80.7236C104.838 80.8298 104.666 80.8298 104.559 80.7236L104.174 81.1088C104.493 81.4279 105.011 81.4279 105.33 81.1088L104.945 80.7236ZM107.391 78.2773L104.945 80.7236L105.33 81.1088L107.776 78.6625L107.391 78.2773ZM107.391 77.8919C107.497 77.9983 107.497 78.1709 107.391 78.2773L107.776 78.6625C108.095 78.3434 108.095 77.8258 107.776 77.5067L107.391 77.8919ZM102.238 72.7387L107.391 77.8919L107.776 77.5067L102.623 72.3535L102.238 72.7387ZM106.026 68.5652L102.238 72.3535L102.623 72.7387L106.411 68.9505L106.026 68.5652ZM105.863 67.8186C106.173 67.9339 106.26 68.3313 106.026 68.5652L106.411 68.9505C106.926 68.4359 106.735 67.5616 106.053 67.3079L105.863 67.8186ZM88.6742 61.4231L105.863 67.8186L106.053 67.3079L88.8642 60.9126L88.6742 61.4231Z" fill="#0C38B7"/>
<path d="M294.134 82.3043C299.3 82.3043 303.487 78.1166 303.487 72.9507C303.487 67.7849 299.3 63.5972 294.134 63.5972C288.968 63.5972 284.78 67.7849 284.78 72.9507C284.78 78.1166 288.968 82.3043 294.134 82.3043Z" fill="#1844BF"/>
<path d="M294.034 66.0371L297.185 72.4982L294.034 74.374L290.883 72.4982L294.034 66.0371Z" fill="white"/>
<path d="M294.034 79.2546L290.883 73.9678L294.034 75.7301L297.185 73.9678L294.034 79.2546Z" fill="white"/>
<path fill-rule="evenodd" clip-rule="evenodd" d="M295.286 42.6837L295.277 41.4078L298.23 41.3877L298.215 39.4414L290.177 39.4955L290.191 41.4418L293.144 41.4218L293.153 42.6959C290.756 42.8218 288.954 43.3027 288.958 43.8666C288.962 44.4304 290.771 44.8875 293.17 44.9796L293.203 49.0674L295.337 49.054L295.306 44.9644C297.699 44.8392 299.498 44.3572 299.492 43.7953C299.487 43.2331 297.685 42.7753 295.288 42.6825L295.286 42.6837ZM295.3 44.6196C295.24 44.6233 294.933 44.644 294.241 44.648C293.691 44.6511 293.302 44.6373 293.166 44.6331C291.045 44.557 289.459 44.203 289.456 43.7653C289.452 43.3276 291.034 42.9529 293.152 42.8457L293.163 44.2706C293.302 44.2795 293.698 44.3 294.247 44.2964C294.906 44.2913 295.235 44.262 295.297 44.2571L295.286 42.8321C297.402 42.9109 298.984 43.2658 298.987 43.7015C298.991 44.1373 297.414 44.5132 295.3 44.6196Z" fill="white"/>
<path d="M937.169 20.7339H788.965C788.463 20.7339 788.057 21.1405 788.057 21.642V117.72C788.057 118.222 788.463 118.628 788.965 118.628H937.169C937.67 118.628 938.077 118.222 938.077 117.72V21.642C938.077 21.1405 937.67 20.7339 937.169 20.7339Z" fill="white" stroke="#0C38B7" stroke-width="0.544868"/>
<path d="M634.49 90.477C634.49 89.9755 634.897 89.5688 635.398 89.5688H682.789C684.293 89.5688 685.513 90.7886 685.513 92.2932V123.346C685.513 124.851 684.293 126.071 682.789 126.071H635.398C634.897 126.071 634.49 125.664 634.49 125.163V90.477Z" fill="#1844BF" stroke="#0C38B7" stroke-width="0.544868"/>
<path d="M680.184 91.168V124.606" stroke="white" stroke-width="0.544868" stroke-linecap="round"/>
<path d="M681.514 91.168V124.606" stroke="white" stroke-width="0.544868" stroke-linecap="round"/>
<path d="M682.848 91.168V124.606" stroke="white" stroke-width="0.544868" stroke-linecap="round"/>
<path d="M684.182 91.168V124.606" stroke="white" stroke-width="0.544868" stroke-linecap="round"/>
<path d="M630.227 90.477C630.227 89.9755 630.633 89.5688 631.135 89.5688H676.261C677.764 89.5688 678.985 90.7886 678.985 92.2932V123.346C678.985 124.851 677.764 126.071 676.261 126.071H631.135C630.633 126.071 630.227 125.664 630.227 125.163V90.477Z" fill="white" stroke="#0C38B7" stroke-width="0.544868"/>
<path d="M630.895 92.9004H674.88C675.381 92.9004 675.788 93.3069 675.788 93.8085V121.966C675.788 122.468 675.381 122.874 674.88 122.874H630.895" stroke="#E2EBF4" stroke-width="0.544868" stroke-linecap="round" stroke-linejoin="round" stroke-dasharray="3.27 3.27"/>
<path d="M686.712 113.42C686.712 113.785 686.416 114.082 686.049 114.082H668.795C665.887 114.082 663.531 111.726 663.531 108.82C663.531 105.914 665.887 103.558 668.795 103.558H686.049C686.416 103.558 686.712 103.854 686.712 104.22V113.42Z" fill="white" stroke="#0C38B7" stroke-width="0.544868" stroke-linecap="round" stroke-linejoin="round"/>
<path d="M679.917 113.614C679.917 113.872 679.708 114.082 679.449 114.082H668.795C665.887 114.082 663.531 111.726 663.531 108.82C663.531 105.914 665.887 103.558 668.795 103.558H679.449C679.708 103.558 679.917 103.767 679.917 104.026V113.614Z" fill="white" stroke="#0C38B7" stroke-width="0.544868" stroke-linecap="round" stroke-linejoin="round"/>
<path d="M669.127 106.089C667.656 106.089 666.463 107.312 666.463 108.82C666.463 110.328 667.656 111.551 669.127 111.551C670.598 111.551 671.792 110.328 671.792 108.82C671.792 107.312 670.598 106.089 669.127 106.089Z" fill="#FF952E"/>
<path d="M565.752 81.9414H619.512C620.013 81.9414 620.42 81.5348 620.42 81.0333V74.3133C620.42 73.8117 620.013 73.4051 619.512 73.4051H565.752C565.25 73.4051 564.843 73.8117 564.843 74.3133V81.0333C564.843 81.5348 565.25 81.9414 565.752 81.9414Z" fill="white" stroke="#0C38B7" stroke-width="0.544868"/>
<path d="M568.839 98.4692H616.424C618.631 98.4692 620.42 96.6803 620.42 94.4735V93.9287C620.42 91.7219 618.631 89.933 616.424 89.933H568.839C566.632 89.933 564.843 91.7219 564.843 93.9287V94.4735C564.843 96.6803 566.632 98.4692 568.839 98.4692Z" fill="#FF952E"/>
<path d="M565.752 59.6021L619.512 59.6021C620.013 59.6021 620.42 59.1955 620.42 58.6939V54.5166C620.42 54.0151 620.013 53.6085 619.512 53.6085L565.752 53.6085C565.25 53.6085 564.843 54.0151 564.843 54.5166V58.6939C564.843 59.1955 565.25 59.6021 565.752 59.6021Z" fill="white" stroke="#0C38B7" stroke-width="0.544868"/>
<path d="M567.362 77.2185L568.173 77.4931C568.339 77.5483 568.468 77.634 568.56 77.7502C568.653 77.8665 568.7 78.0002 568.7 78.1513C568.7 78.3489 568.631 78.516 568.495 78.6526C568.359 78.7862 568.188 78.8531 567.981 78.8531H567.95V79.3282H567.411V78.8531H566.76V78.2951H567.981C568.028 78.2951 568.064 78.282 568.09 78.2559C568.119 78.2297 568.133 78.1978 568.133 78.16C568.133 78.0961 568.097 78.0496 568.024 78.0205L567.193 77.7328C567.029 77.6747 566.9 77.589 566.804 77.4756C566.711 77.3623 566.664 77.2315 566.664 77.0833C566.664 76.8857 566.731 76.7215 566.866 76.5908C567.002 76.4571 567.174 76.3903 567.383 76.3903H567.411V75.9326H567.95V76.3903H568.566V76.9482H567.392C567.345 76.9482 567.309 76.9613 567.283 76.9874C567.26 77.0107 567.249 77.0397 567.249 77.0746C567.249 77.1444 567.287 77.1923 567.362 77.2185ZM570.157 75.9326V78.8531H569.539V76.5341H568.867V75.9326H570.157ZM572.323 77.4495L571.504 78.2515H572.659V78.8531H570.574V78.3692L571.922 77.0397C571.995 76.9671 572.031 76.8857 572.031 76.7956C572.031 76.723 572.004 76.662 571.947 76.6126C571.893 76.5603 571.822 76.5341 571.735 76.5341H570.602V75.9326H571.735C572.006 75.9326 572.224 76.011 572.392 76.168C572.561 76.3249 572.645 76.5181 572.645 76.7477C572.645 77.0063 572.538 77.2402 572.323 77.4495ZM574.714 77.589H575.18V78.1513H574.714V78.8531H574.091V78.1513H572.621V77.7067L573.82 75.9326H574.714V77.589ZM574.091 76.508L573.39 77.589H574.091V76.508ZM575.453 78.1992H576.085V78.8531H575.453V78.1992ZM576.288 77.7285V77.0572C576.288 76.7056 576.401 76.4193 576.624 76.1985C576.848 75.9776 577.131 75.8672 577.471 75.8672C577.81 75.8672 578.094 75.9776 578.321 76.1985C578.548 76.4193 578.66 76.7041 578.66 77.0528V77.7285C578.66 78.0772 578.546 78.3634 578.315 78.5872C578.086 78.808 577.801 78.9184 577.462 78.9184C577.124 78.9184 576.844 78.808 576.621 78.5872C576.399 78.3634 576.288 78.0772 576.288 77.7285ZM576.908 77.0572V77.7285C576.908 77.9057 576.958 78.0452 577.06 78.1469C577.165 78.2486 577.298 78.2995 577.462 78.2995C577.63 78.2995 577.768 78.2486 577.876 78.1469C577.983 78.0423 578.037 77.9028 578.037 77.7285V77.0528C578.037 76.8785 577.983 76.7404 577.876 76.6387C577.77 76.5341 577.636 76.4818 577.471 76.4818C577.305 76.4818 577.169 76.5341 577.066 76.6387C576.96 76.7404 576.908 76.8799 576.908 77.0572ZM579.005 77.7285V77.0572C579.005 76.7056 579.116 76.4193 579.34 76.1985C579.565 75.9776 579.846 75.8672 580.186 75.8672C580.525 75.8672 580.809 75.9776 581.036 76.1985C581.263 76.4193 581.375 76.7041 581.375 77.0528V77.7285C581.375 78.0772 581.261 78.3634 581.032 78.5872C580.802 78.808 580.516 78.9184 580.177 78.9184C579.841 78.9184 579.559 78.808 579.336 78.5872C579.114 78.3634 579.005 78.0772 579.005 77.7285ZM579.623 77.0572V77.7285C579.623 77.9057 579.674 78.0452 579.775 78.1469C579.881 78.2486 580.015 78.2995 580.177 78.2995C580.346 78.2995 580.484 78.2486 580.591 78.1469C580.698 78.0423 580.753 77.9028 580.753 77.7285V77.0528C580.753 76.8785 580.698 76.7404 580.591 76.6387C580.487 76.5341 580.351 76.4818 580.186 76.4818C580.021 76.4818 579.884 76.5341 579.781 76.6387C579.675 76.7404 579.623 76.8799 579.623 77.0572Z" fill="#1844BF"/>
<path d="M214.888 33.8274L208.697 27.6362L202.506 33.8274L208.697 40.0186L214.888 33.8274Z" fill="#0C38B7"/>
<path d="M981.154 33.8274L974.963 27.6362L968.772 33.8274L974.963 40.0186L981.154 33.8274Z" fill="#0C38B7"/>
<path d="M711.99 33.8274L705.799 27.6362L699.608 33.8274L705.799 40.0186L711.99 33.8274Z" fill="#0C38B7"/>
<path d="M721.039 33.8274L718.133 30.9214L715.227 33.8274L718.133 36.7334L721.039 33.8274Z" fill="#0C38B7"/>
<path d="M465.503 37.0866C467.276 35.3134 467.276 32.4385 465.503 30.6653C463.729 28.8921 460.855 28.8921 459.081 30.6653C457.308 32.4385 457.308 35.3134 459.081 37.0866C460.855 38.8598 463.729 38.8598 465.503 37.0866Z" fill="#0C38B7"/>
<path d="M992.869 37.0866C994.642 35.3134 994.642 32.4385 992.869 30.6653C991.096 28.8921 988.221 28.8921 986.448 30.6653C984.674 32.4385 984.674 35.3134 986.448 37.0866C988.221 38.8598 991.096 38.8598 992.869 37.0866Z" fill="white" stroke="#0C38B7" stroke-width="0.544868"/>
<path d="M1004.25 35.997C1005.39 34.859 1005.39 33.014 1004.25 31.876C1003.11 30.738 1001.27 30.738 1000.13 31.876C998.991 33.014 998.991 34.859 1000.13 35.997C1001.27 37.135 1003.11 37.135 1004.25 35.997Z" fill="white" stroke="#0C38B7" stroke-width="0.544868"/>
<path d="M225.194 33.8945L221.479 30.1792L217.763 33.8945L221.479 37.6098L225.194 33.8945Z" fill="#0C38B7"/>
<path d="M477.096 35.7768C478.16 34.7128 478.16 32.9879 477.096 31.924C476.032 30.86 474.307 30.86 473.244 31.924C472.18 32.9879 472.18 34.7128 473.244 35.7768C474.307 36.8407 476.032 36.8407 477.096 35.7768Z" fill="#0C38B7"/>
<path d="M486.486 34.8847C487.018 34.3528 487.018 33.4903 486.486 32.9583C485.954 32.4264 485.091 32.4264 484.559 32.9583C484.027 33.4903 484.027 34.3528 484.559 34.8847C485.091 35.4167 485.954 35.4167 486.486 34.8847Z" fill="#0C38B7"/>
<path d="M7.62439 42.166L33.9597 42.166C37.671 42.166 40.6797 45.1747 40.6797 48.886L40.6797 75.2213C40.6797 78.9327 37.671 81.9413 33.9597 81.9413L7.62439 81.9413C3.91302 81.9413 0.904353 78.9327 0.904353 75.2213L0.904354 48.886C0.904354 45.1747 3.91302 42.166 7.62439 42.166Z" fill="#1844BF"/>
<path d="M27.8578 72.033H12.0185L12.7964 69.3668C12.9615 68.8008 13.4357 68.3798 14.0165 68.2836L23.5453 66.7055M10.487 53.0636H30.8549C31.6501 53.0636 32.2558 53.777 32.1279 54.5627L30.7365 63.1166C30.6308 63.7659 30.1233 64.2755 29.4751 64.383L13.8957 66.9672C13.1531 67.0905 12.4502 66.5907 12.3216 65.8478L9.6879 50.6359C9.56748 49.9397 8.96413 49.4312 8.25835 49.4312H7.2627M10.8497 57.2208L31.8478 56.0502M11.4945 60.7321L31.3642 58.7949M12.0588 64.2839L31.0418 61.4182M12.3005 53.1442L14.2755 66.8266M15.1219 53.1442L16.5728 66.4634M18.3462 53.1442L19.1119 66.0193M21.4093 53.1442L21.5704 65.656M24.3917 53.1442V65.2121M27.3741 53.1442L26.8098 64.8086M30.1551 53.1442L29.3088 64.4048M18.2656 73.4456C18.2656 74.2259 17.6341 74.8583 16.8549 74.8583C16.0759 74.8583 15.4442 74.2259 15.4442 73.4456C15.4442 72.6656 16.0759 72.033 16.8549 72.033C17.6341 72.033 18.2656 72.6656 18.2656 73.4456ZM26.8098 73.4456C26.8098 74.2259 26.1783 74.8583 25.3992 74.8583C24.6202 74.8583 23.9887 74.2259 23.9887 73.4456C23.9887 72.6656 24.6202 72.033 25.3992 72.033C26.1783 72.033 26.8098 72.6656 26.8098 73.4456Z" stroke="white" stroke-width="0.544868" stroke-linecap="round"/>
<path d="M40.5908 92.0415C46.2581 92.0415 50.8524 87.5036 50.8524 81.9058C50.8524 76.308 46.2581 71.77 40.5908 71.77C34.9234 71.77 30.3291 76.308 30.3291 81.9058C30.3291 87.5036 34.9234 92.0415 40.5908 92.0415Z" fill="#FF952F"/>
<path d="M40.5273 77.436V86.2498" stroke="white" stroke-width="2.17947" stroke-linecap="round" stroke-linejoin="round"/>
<path d="M45.0598 81.8438H36.1201" stroke="white" stroke-width="2.17947" stroke-linecap="round" stroke-linejoin="round"/>
<path d="M341.628 50.1567H309.118C308.416 50.1567 307.847 49.5875 307.847 48.8854V47.614C307.847 46.9119 308.416 46.3427 309.118 46.3427H341.628C342.331 46.3427 342.9 46.9119 342.9 47.614V48.8854C342.9 49.5875 342.331 50.1567 341.628 50.1567Z" fill="#E2EBF4"/>
<path d="M346.896 42.166H309.118C308.416 42.166 307.847 41.5968 307.847 40.8947V39.6233C307.847 38.9211 308.416 38.3519 309.118 38.3519H346.896C347.598 38.3519 348.167 38.9211 348.167 39.6233V40.8947C348.167 41.5968 347.598 42.166 346.896 42.166Z" fill="#E2EBF4"/>
<path d="M349.365 78.8535H309.118C308.416 78.8535 307.847 78.2843 307.847 77.5822V76.3108C307.847 75.6086 308.416 75.0394 309.118 75.0394H349.365C350.068 75.0394 350.637 75.6086 350.637 76.3108V77.5822C350.637 78.2843 350.068 78.8535 349.365 78.8535Z" fill="#E2EBF4"/>
<path d="M355.795 70.8623H309.118C308.416 70.8623 307.847 70.2931 307.847 69.5909V68.3196C307.847 67.6174 308.416 67.0482 309.118 67.0482H355.795C356.497 67.0482 357.066 67.6174 357.066 68.3196V69.5909C357.066 70.2931 356.497 70.8623 355.795 70.8623Z" fill="#E2EBF4"/>
<path d="M354.342 107.369H309.118C308.416 107.369 307.847 106.799 307.847 106.097V104.826C307.847 104.124 308.416 103.555 309.118 103.555H354.342C355.044 103.555 355.613 104.124 355.613 104.826V106.097C355.613 106.799 355.044 107.369 354.342 107.369Z" fill="#E2EBF4"/>
<path d="M346.896 99.377H309.118C308.416 99.377 307.847 98.8077 307.847 98.1056V96.8342C307.847 96.1321 308.416 95.5629 309.118 95.5629H346.896C347.598 95.5629 348.167 96.1321 348.167 96.8342V98.1056C348.167 98.8077 347.598 99.377 346.896 99.377Z" fill="#E2EBF4"/>
<path fill-rule="evenodd" clip-rule="evenodd" d="M342.313 75.5165C341.73 75.2995 341.162 75.8678 341.38 76.4506L347.775 93.6395C347.958 94.1355 348.595 94.2741 348.97 93.9L352.756 90.1115L357.911 95.2647C358.123 95.4775 358.468 95.4775 358.681 95.2647L361.127 92.8184C361.34 92.6057 361.34 92.2606 361.127 92.048L355.975 86.8946L359.762 83.1063C360.136 82.7322 359.998 82.0963 359.502 81.9118L342.313 75.5165Z" fill="white"/>
<path d="M352.757 90.1116L352.95 89.9189C352.844 89.8124 352.672 89.8124 352.565 89.9189L352.757 90.1116ZM355.976 86.8947L355.783 86.7022C355.73 86.7532 355.703 86.8224 355.703 86.8947C355.703 86.967 355.73 87.0363 355.783 87.0874L355.976 86.8947ZM341.635 76.3557C341.499 75.9913 341.854 75.6363 342.22 75.7718L342.408 75.2612C341.607 74.963 340.827 75.7441 341.124 76.5456L341.635 76.3557ZM348.03 93.5446L341.635 76.3557L341.124 76.5456L347.519 93.7346L348.03 93.5446ZM348.776 93.7073C348.544 93.9413 348.146 93.8546 348.03 93.5446L347.519 93.7346C347.774 94.4166 348.647 94.6071 349.163 94.0926L348.776 93.7073ZM352.565 89.9189L348.776 93.7073L349.163 94.0926L352.95 90.3041L352.565 89.9189ZM358.104 95.0722L352.95 89.9189L352.565 90.3041L357.719 95.4575L358.104 95.0722ZM358.489 95.0722C358.382 95.1785 358.21 95.1785 358.104 95.0722L357.719 95.4575C358.037 95.7766 358.555 95.7766 358.874 95.4575L358.489 95.0722ZM360.936 92.626L358.489 95.0722L358.874 95.4575L361.321 93.0112L360.936 92.626ZM360.936 92.2406C361.041 92.347 361.041 92.5195 360.936 92.626L361.321 93.0112C361.64 92.6921 361.64 92.1744 361.321 91.8553L360.936 92.2406ZM355.783 87.0874L360.936 92.2406L361.321 91.8553L356.168 86.7022L355.783 87.0874ZM359.57 82.9139L355.783 86.7022L356.168 87.0874L359.955 83.2991L359.57 82.9139ZM359.408 82.1672C359.717 82.2826 359.804 82.6799 359.57 82.9139L359.955 83.2991C360.471 82.7846 360.28 81.9102 359.597 81.6565L359.408 82.1672ZM342.22 75.7718L359.408 82.1672L359.597 81.6565L342.408 75.2612L342.22 75.7718Z" fill="#0C38B7"/>
<path d="M373.595 38.5327L402.109 38.5327C402.711 38.5327 403.199 38.0448 403.199 37.443C403.199 36.8411 402.711 36.3532 402.109 36.3532H373.595C372.993 36.3532 372.505 36.8411 372.505 37.443C372.505 38.0448 372.993 38.5327 373.595 38.5327Z" fill="#E2EBF4"/>
<path d="M373.594 44.1631H393.936C394.537 44.1631 395.025 43.6752 395.025 43.0734C395.025 42.4715 394.537 41.9836 393.936 41.9836H373.594C372.992 41.9836 372.504 42.4715 372.504 43.0734C372.504 43.6752 372.992 44.1631 373.594 44.1631Z" fill="#E2EBF4"/>
<path d="M373.594 53.4263H393.936C394.537 53.4263 395.025 52.9384 395.025 52.3365C395.025 51.7347 394.537 51.2468 393.936 51.2468H373.594C372.992 51.2468 372.504 51.7347 372.504 52.3365C372.504 52.9384 372.992 53.4263 373.594 53.4263Z" fill="#E2EBF4"/>
<path d="M373.595 59.0562H398.478C399.079 59.0562 399.567 58.5683 399.567 57.9664C399.567 57.3646 399.079 56.8767 398.478 56.8767H373.595C372.994 56.8767 372.506 57.3646 372.506 57.9664C372.506 58.5683 372.994 59.0562 373.595 59.0562Z" fill="#E2EBF4"/>
<path d="M566.023 71.0439H587.636C588.288 71.0439 588.816 70.5154 588.816 69.8634C588.816 69.2114 588.288 68.6829 587.636 68.6829H566.023C565.371 68.6829 564.842 69.2114 564.842 69.8634C564.842 70.5154 565.371 71.0439 566.023 71.0439Z" fill="#E2EBF4"/>
<path d="M566.023 51.2471H577.102C577.754 51.2471 578.282 50.7185 578.282 50.0665C578.282 49.4145 577.754 48.886 577.102 48.886H566.023C565.371 48.886 564.842 49.4145 564.842 50.0665C564.842 50.7185 565.371 51.2471 566.023 51.2471Z" fill="#E2EBF4"/>
<path d="M21.4277 115.36C21.4277 114.858 21.8344 114.452 22.3358 114.452H185.07C185.571 114.452 185.978 114.858 185.978 115.36V117.539C185.978 119.044 184.757 120.264 183.253 120.264H24.1521C22.6475 120.264 21.4277 119.044 21.4277 117.539V115.36Z" fill="#1844BF"/>
<path d="M527.065 44.1632C537.597 44.1632 546.135 35.6251 546.135 25.0928C546.135 14.5606 537.597 6.02246 527.065 6.02246C516.532 6.02246 507.994 14.5606 507.994 25.0928C507.994 35.6251 516.532 44.1632 527.065 44.1632Z" fill="#1844BF" stroke="#0C38B7" stroke-width="0.544868" stroke-miterlimit="10"/>
<path d="M526.976 25.7146C529.719 25.7146 531.943 23.4907 531.943 20.7474C531.943 18.0041 529.719 15.7803 526.976 15.7803C524.233 15.7803 522.009 18.0041 522.009 20.7474C522.009 23.4907 524.233 25.7146 526.976 25.7146Z" stroke="white" stroke-width="0.544868" stroke-miterlimit="10"/>
<path d="M535.668 34.4073C535.668 29.6067 531.776 25.7148 526.976 25.7148C522.175 25.7148 518.283 29.6067 518.283 34.4073" stroke="white" stroke-width="0.544868" stroke-miterlimit="10" stroke-linecap="round"/>
<path d="M589.266 91.7271C589.698 91.7271 590.06 91.8709 590.352 92.1586C590.645 92.4419 590.79 92.7993 590.79 93.2309C590.79 93.6711 590.641 94.0329 590.345 94.3163C590.053 94.5952 589.693 94.7347 589.266 94.7347H587.998V96.1078H587.07V91.7271H589.266ZM587.998 93.852H589.195C589.382 93.852 589.537 93.7954 589.658 93.682C589.786 93.5687 589.849 93.4183 589.849 93.2309C589.849 93.0565 589.786 92.9127 589.658 92.7993C589.533 92.686 589.377 92.6294 589.195 92.6294H587.998V93.852ZM593.592 93.2701V92.8517H594.47V96.1078H593.592V95.6763H593.56C593.456 95.8332 593.313 95.9596 593.129 96.0555C592.946 96.1514 592.739 96.2015 592.508 96.2059C592.063 96.2059 591.693 96.0468 591.397 95.7286C591.104 95.406 590.959 94.9919 590.959 94.4863C590.959 93.9806 591.102 93.5643 591.389 93.2374C591.682 92.9105 592.056 92.7492 592.514 92.7536C592.741 92.7536 592.946 92.8015 593.129 92.8974C593.313 92.9933 593.456 93.1175 593.56 93.2701H593.592ZM592.089 95.1205C592.256 95.2861 592.466 95.3689 592.724 95.3689C592.98 95.3689 593.189 95.2839 593.351 95.1139C593.512 94.9396 593.592 94.7282 593.592 94.4797C593.592 94.2269 593.511 94.0155 593.345 93.8455C593.184 93.6755 592.977 93.5905 592.724 93.5905C592.466 93.5905 592.256 93.6755 592.089 93.8455C591.929 94.0111 591.847 94.2225 591.847 94.4797C591.847 94.7369 591.929 94.9505 592.089 95.1205ZM596.754 95.3232L597.552 92.8517H598.447L597.152 96.6374C597.065 96.8859 596.932 97.0776 596.754 97.2128C596.575 97.3479 596.36 97.4155 596.106 97.4155H595.178V96.5524H596.081C596.168 96.5524 596.242 96.5328 596.302 96.4936L594.806 92.8517H595.774L596.754 95.3232Z" fill="white"/>
<path fill-rule="evenodd" clip-rule="evenodd" d="M605.803 95.0853C605.22 94.8684 604.651 95.4366 604.867 96.0196L607.98 104.385C608.164 104.881 608.801 105.019 609.175 104.645L610.912 102.908L613.589 105.585C613.801 105.798 614.146 105.798 614.359 105.585L615.367 104.577C615.581 104.364 615.581 104.019 615.367 103.806L612.69 101.129L614.428 99.3923C614.802 99.0182 614.662 98.3823 614.166 98.1978L605.803 95.0853Z" fill="white"/>
<path d="M610.911 102.908L611.103 102.715C610.998 102.609 610.826 102.609 610.718 102.715L610.911 102.908ZM612.689 101.129L612.496 100.937C612.391 101.043 612.391 101.216 612.496 101.322L612.689 101.129ZM605.123 95.9247C604.986 95.5603 605.342 95.2053 605.706 95.3408L605.896 94.83C605.095 94.5318 604.313 95.3132 604.612 96.1147L605.123 95.9247ZM608.234 104.29L605.123 95.9247L604.612 96.1147L607.723 104.48L608.234 104.29ZM608.982 104.453C608.748 104.686 608.35 104.6 608.234 104.29L607.723 104.48C607.978 105.162 608.851 105.352 609.367 104.838L608.982 104.453ZM610.718 102.715L608.982 104.453L609.367 104.838L611.103 103.101L610.718 102.715ZM613.781 105.392L611.103 102.715L610.718 103.101L613.396 105.778L613.781 105.392ZM614.166 105.392C614.06 105.499 613.888 105.499 613.781 105.392L613.396 105.778C613.715 106.097 614.233 106.097 614.551 105.778L614.166 105.392ZM615.174 104.384L614.166 105.392L614.551 105.778L615.559 104.77L615.174 104.384ZM615.174 103.999C615.281 104.105 615.281 104.278 615.174 104.384L615.559 104.77C615.878 104.45 615.878 103.933 615.559 103.614L615.174 103.999ZM612.496 101.322L615.174 103.999L615.559 103.614L612.882 100.937L612.496 101.322ZM614.235 99.1997L612.496 100.937L612.882 101.322L614.62 99.5851L614.235 99.1997ZM614.071 98.4532C614.382 98.5686 614.467 98.9659 614.235 99.1997L614.62 99.5851C615.134 99.0706 614.943 98.1962 614.262 97.9425L614.071 98.4532ZM605.706 95.3408L614.071 98.4532L614.262 97.9425L605.896 94.83L605.706 95.3408Z" fill="#0C38B7"/>
<path d="M1111.71 5.75049H1069.39C1068.84 5.75049 1068.39 6.19772 1068.39 6.74941V95.9261C1068.39 96.4778 1068.84 96.925 1069.39 96.925H1111.71C1112.26 96.925 1112.71 96.4778 1112.71 95.9261V6.74941C1112.71 6.19772 1112.26 5.75049 1111.71 5.75049Z" stroke="#E2EBF4" stroke-width="0.544868"/>
<path d="M1192.53 5.75049H1119.88C1119.33 5.75049 1118.88 6.19772 1118.88 6.74941V95.9261C1118.88 96.4778 1119.33 96.925 1119.88 96.925H1192.53C1193.08 96.925 1193.53 96.4778 1193.53 95.9261V6.74941C1193.53 6.19772 1193.08 5.75049 1192.53 5.75049Z" stroke="#E2EBF4" stroke-width="0.544868" stroke-dasharray="2.54 2.54"/>
<path d="M1177.09 16.7388H1028.89C1028.39 16.7388 1027.98 17.1453 1027.98 17.6469V113.725C1027.98 114.227 1028.39 114.633 1028.89 114.633H1177.09C1177.59 114.633 1178 114.227 1178 113.725V17.6469C1178 17.1453 1177.59 16.7388 1177.09 16.7388Z" fill="white" stroke="#FF952F" stroke-width="0.544868"/>
<path d="M1034.7 44.5269H1061.76C1062.26 44.5269 1062.67 44.1203 1062.67 43.6187V31.0868C1062.67 30.5853 1062.26 30.1787 1061.76 30.1787L1034.7 30.1787C1034.2 30.1787 1033.79 30.5853 1033.79 31.0868V43.6187C1033.79 44.1203 1034.2 44.5269 1034.7 44.5269Z" fill="#1844BF"/>
<path d="M1068.48 25.2749H1080.83C1081.03 25.2749 1081.2 25.1123 1081.2 24.9117V23.8219C1081.2 23.6213 1081.03 23.4587 1080.83 23.4587H1068.48C1068.28 23.4587 1068.12 23.6213 1068.12 23.8219V24.9117C1068.12 25.1123 1068.28 25.2749 1068.48 25.2749Z" fill="#E2EBF4"/>
<path d="M1034.7 26.3643L1057.22 26.3643C1057.72 26.3643 1058.13 25.9577 1058.13 25.4561V23.2767C1058.13 22.7751 1057.72 22.3686 1057.22 22.3686L1034.7 22.3686C1034.2 22.3686 1033.79 22.7751 1033.79 23.2767V25.4561C1033.79 25.9577 1034.2 26.3643 1034.7 26.3643Z" fill="#E2EBF4"/>
<path d="M1088.28 25.2749H1100.99C1101.19 25.2749 1101.36 25.1123 1101.36 24.9117V23.8219C1101.36 23.6213 1101.19 23.4587 1100.99 23.4587H1088.28C1088.08 23.4587 1087.92 23.6213 1087.92 23.8219V24.9117C1087.92 25.1123 1088.08 25.2749 1088.28 25.2749Z" fill="#E2EBF4"/>
<path d="M1107.89 25.2749H1120.79C1120.99 25.2749 1121.15 25.1123 1121.15 24.9117V23.8219C1121.15 23.6213 1120.99 23.4587 1120.79 23.4587H1107.89C1107.69 23.4587 1107.53 23.6213 1107.53 23.8219V24.9117C1107.53 25.1123 1107.69 25.2749 1107.89 25.2749Z" fill="#E2EBF4"/>
<path d="M1127.69 25.2749H1140.77C1140.97 25.2749 1141.13 25.1123 1141.13 24.9117V23.8219C1141.13 23.6213 1140.97 23.4587 1140.77 23.4587H1127.69C1127.49 23.4587 1127.33 23.6213 1127.33 23.8219V24.9117C1127.33 25.1123 1127.49 25.2749 1127.69 25.2749Z" fill="#E2EBF4"/>
<path d="M1151.67 26.0015L1165.47 26.0015C1165.87 26.0015 1166.2 25.6762 1166.2 25.275V23.6404C1166.2 23.2391 1165.87 22.9139 1165.47 22.9139H1151.67C1151.26 22.9139 1150.94 23.2391 1150.94 23.6404V25.275C1150.94 25.6762 1151.26 26.0015 1151.67 26.0015Z" fill="#E2EBF4"/>
<path d="M1168.74 26.0015H1170.55C1170.95 26.0015 1171.28 25.6762 1171.28 25.275V23.6404C1171.28 23.2391 1170.95 22.9139 1170.55 22.9139H1168.74C1168.34 22.9139 1168.01 23.2391 1168.01 23.6404V25.275C1168.01 25.6762 1168.34 26.0015 1168.74 26.0015Z" fill="#E2EBF4"/>
<path d="M1167.65 34.5376H1170.37C1170.87 34.5376 1171.28 34.131 1171.28 33.6295V30.9051C1171.28 30.4036 1170.87 29.997 1170.37 29.997H1167.65C1167.15 29.997 1166.74 30.4036 1166.74 30.9051V33.6295C1166.74 34.131 1167.15 34.5376 1167.65 34.5376Z" fill="#E2EBF4"/>
<path d="M1161.29 34.5376H1164.02C1164.52 34.5376 1164.92 34.131 1164.92 33.6295V30.9051C1164.92 30.4036 1164.52 29.997 1164.02 29.997H1161.29C1160.79 29.997 1160.38 30.4036 1160.38 30.9051V33.6295C1160.38 34.131 1160.79 34.5376 1161.29 34.5376Z" fill="#E2EBF4"/>
<path d="M1034.7 52.6997H1061.76C1062.26 52.6997 1062.67 52.2931 1062.67 51.7916V48.8856C1062.67 48.3841 1062.26 47.9775 1061.76 47.9775H1034.7C1034.2 47.9775 1033.79 48.3841 1033.79 48.8856V51.7916C1033.79 52.2931 1034.2 52.6997 1034.7 52.6997Z" fill="#E2EBF4"/>
<path d="M1034.7 67.9561H1061.76C1062.26 67.9561 1062.67 67.5495 1062.67 67.0479V56.8771C1062.67 56.3755 1062.26 55.969 1061.76 55.969H1034.7C1034.2 55.969 1033.79 56.3755 1033.79 56.8771V67.0479C1033.79 67.5495 1034.2 67.9561 1034.7 67.9561Z" fill="#E2EBF4"/>
<path d="M1034.7 82.8496H1061.76C1062.26 82.8496 1062.67 82.443 1062.67 81.9415V72.1339C1062.67 71.6323 1062.26 71.2258 1061.76 71.2258H1034.7C1034.2 71.2258 1033.79 71.6323 1033.79 72.1339V81.9415C1033.79 82.443 1034.2 82.8496 1034.7 82.8496Z" fill="#E2EBF4"/>
<path d="M1034.7 97.9243H1061.76C1062.26 97.9243 1062.67 97.5177 1062.67 97.0162V87.2086C1062.67 86.7071 1062.26 86.3005 1061.76 86.3005H1034.7C1034.2 86.3005 1033.79 86.7071 1033.79 87.2086V97.0162C1033.79 97.5177 1034.2 97.9243 1034.7 97.9243Z" fill="#E2EBF4"/>
<path d="M1034.7 109.185H1061.76C1062.26 109.185 1062.67 108.778 1062.67 108.276V102.283C1062.67 101.781 1062.26 101.375 1061.76 101.375H1034.7C1034.2 101.375 1033.79 101.781 1033.79 102.283V108.276C1033.79 108.778 1034.2 109.185 1034.7 109.185Z" fill="#E2EBF4"/>
<path d="M1020.72 115.541C1020.72 115.039 1021.12 114.633 1021.62 114.633H1184.36C1184.86 114.633 1185.27 115.039 1185.27 115.541V117.72C1185.27 119.225 1184.05 120.445 1182.54 120.445H1023.44C1021.94 120.445 1020.72 119.225 1020.72 117.72V115.541Z" fill="#FF952F"/>
<path d="M1036.7 65.2324H1059.76C1060.16 65.2324 1060.49 64.9072 1060.49 64.5059C1060.49 64.1047 1060.16 63.7794 1059.76 63.7794H1036.7C1036.3 63.7794 1035.97 64.1047 1035.97 64.5059C1035.97 64.9072 1036.3 65.2324 1036.7 65.2324Z" fill="white"/>
<path d="M1036.7 80.1255H1059.76C1060.16 80.1255 1060.49 79.8002 1060.49 79.399C1060.49 78.9978 1060.16 78.6725 1059.76 78.6725H1036.7C1036.3 78.6725 1035.97 78.9978 1035.97 79.399C1035.97 79.8002 1036.3 80.1255 1036.7 80.1255Z" fill="white"/>
<path d="M1036.7 95.0181H1059.76C1060.16 95.0181 1060.49 94.6928 1060.49 94.2916C1060.49 93.8903 1060.16 93.5651 1059.76 93.5651H1036.7C1036.3 93.5651 1035.97 93.8903 1035.97 94.2916C1035.97 94.6928 1036.3 95.0181 1036.7 95.0181Z" fill="white"/>
<path d="M1035.86 33.439H1037.47V33.8149H1036.86V35.2643H1036.47V33.8149H1035.86V33.439ZM1038.54 35.1008C1038.41 35.237 1038.23 35.3051 1038.01 35.3051C1037.79 35.3051 1037.62 35.237 1037.48 35.1008C1037.35 34.9646 1037.28 34.7929 1037.28 34.5859C1037.28 34.3807 1037.35 34.2099 1037.48 34.0737C1037.62 33.9357 1037.79 33.8667 1038.01 33.8667C1038.23 33.8667 1038.41 33.9357 1038.54 34.0737C1038.67 34.2099 1038.74 34.3807 1038.74 34.5859C1038.74 34.7929 1038.67 34.9646 1038.54 35.1008ZM1038.01 34.9482C1038.12 34.9482 1038.2 34.9137 1038.27 34.8447C1038.34 34.7739 1038.37 34.6876 1038.37 34.5859C1038.37 34.4824 1038.34 34.3961 1038.27 34.3271C1038.21 34.2562 1038.12 34.2208 1038.01 34.2208C1037.9 34.2208 1037.82 34.2562 1037.75 34.3271C1037.68 34.3961 1037.65 34.4824 1037.65 34.5859C1037.65 34.6894 1037.68 34.7757 1037.75 34.8447C1037.82 34.9137 1037.9 34.9482 1038.01 34.9482ZM1039.93 33.9075V34.2617H1039.37V34.8038C1039.37 34.8365 1039.38 34.862 1039.4 34.8801C1039.42 34.8983 1039.45 34.9074 1039.48 34.9074H1039.93V35.2643H1039.41C1039.29 35.2643 1039.19 35.2288 1039.11 35.158C1039.04 35.0854 1039.01 34.9882 1039.01 34.8665V34.2617H1038.81V33.9075H1039.01V33.439H1039.37V33.9075H1039.93ZM1041.14 34.0819V33.9075H1041.51V35.2643H1041.14V35.0845H1041.13C1041.08 35.1498 1041.02 35.2025 1040.95 35.2425C1040.87 35.2824 1040.79 35.3033 1040.69 35.3051C1040.5 35.3051 1040.35 35.2388 1040.23 35.1062C1040.1 34.9718 1040.04 34.7993 1040.04 34.5886C1040.04 34.3779 1040.1 34.2045 1040.22 34.0683C1040.35 33.9321 1040.5 33.8649 1040.69 33.8667C1040.79 33.8667 1040.87 33.8867 1040.95 33.9266C1041.02 33.9666 1041.08 34.0183 1041.13 34.0819H1041.14ZM1040.51 34.8529C1040.58 34.9219 1040.67 34.9564 1040.78 34.9564C1040.89 34.9564 1040.97 34.921 1041.04 34.8502C1041.11 34.7775 1041.14 34.6894 1041.14 34.5859C1041.14 34.4806 1041.11 34.3925 1041.04 34.3216C1040.97 34.2508 1040.88 34.2154 1040.78 34.2154C1040.67 34.2154 1040.58 34.2508 1040.51 34.3216C1040.45 34.3907 1040.41 34.4787 1040.41 34.5859C1040.41 34.6931 1040.45 34.782 1040.51 34.8529ZM1041.78 34.8719V33.3027H1042.15V34.8066C1042.15 34.8738 1042.18 34.9074 1042.26 34.9074H1042.44V35.2643H1042.19C1042.06 35.2643 1041.96 35.2297 1041.89 35.1607C1041.81 35.0917 1041.78 34.9955 1041.78 34.8719ZM1044.09 33.8667C1044.27 33.8649 1044.43 33.9311 1044.55 34.0655C1044.67 34.1981 1044.73 34.3707 1044.73 34.5832C1044.73 34.7939 1044.67 34.9673 1044.55 35.1035C1044.43 35.2379 1044.28 35.3051 1044.09 35.3051C1043.99 35.3033 1043.9 35.2824 1043.83 35.2425C1043.75 35.2025 1043.69 35.1507 1043.65 35.0872H1043.63V35.2643H1043.27V33.3027H1043.63V34.0873H1043.65C1043.69 34.022 1043.75 33.9693 1043.83 33.9293C1043.91 33.8876 1043.99 33.8667 1044.09 33.8667ZM1044 34.9564C1044.11 34.9564 1044.19 34.9219 1044.26 34.8529C1044.33 34.782 1044.36 34.6931 1044.36 34.5859C1044.36 34.4787 1044.33 34.3907 1044.26 34.3216C1044.19 34.2508 1044.11 34.2154 1044 34.2154C1043.89 34.2154 1043.8 34.2517 1043.74 34.3244C1043.67 34.3952 1043.63 34.4824 1043.63 34.5859C1043.63 34.6912 1043.67 34.7793 1043.74 34.8502C1043.81 34.921 1043.89 34.9564 1044 34.9564ZM1045.97 34.0819V33.9075H1046.33V35.2643H1045.97V35.0845H1045.95C1045.91 35.1498 1045.85 35.2025 1045.77 35.2425C1045.7 35.2824 1045.61 35.3033 1045.51 35.3051C1045.33 35.3051 1045.17 35.2388 1045.05 35.1062C1044.93 34.9718 1044.87 34.7993 1044.87 34.5886C1044.87 34.3779 1044.93 34.2045 1045.05 34.0683C1045.17 33.9321 1045.33 33.8649 1045.52 33.8667C1045.61 33.8667 1045.7 33.8867 1045.77 33.9266C1045.85 33.9666 1045.91 34.0183 1045.95 34.0819H1045.97ZM1045.34 34.8529C1045.41 34.9219 1045.5 34.9564 1045.61 34.9564C1045.71 34.9564 1045.8 34.921 1045.87 34.8502C1045.93 34.7775 1045.97 34.6894 1045.97 34.5859C1045.97 34.4806 1045.93 34.3925 1045.86 34.3216C1045.8 34.2508 1045.71 34.2154 1045.61 34.2154C1045.5 34.2154 1045.41 34.2508 1045.34 34.3216C1045.27 34.3907 1045.24 34.4787 1045.24 34.5859C1045.24 34.6931 1045.27 34.782 1045.34 34.8529ZM1046.61 34.8719V33.3027H1046.97V34.8066C1046.97 34.8738 1047.01 34.9074 1047.08 34.9074H1047.27V35.2643H1047.01C1046.88 35.2643 1046.78 35.2297 1046.71 35.1607C1046.64 35.0917 1046.61 34.9955 1046.61 34.8719ZM1048.44 34.0819V33.9075H1048.8V35.2643H1048.44V35.0845H1048.42C1048.38 35.1498 1048.32 35.2025 1048.24 35.2425C1048.17 35.2824 1048.08 35.3033 1047.98 35.3051C1047.8 35.3051 1047.64 35.2388 1047.52 35.1062C1047.4 34.9718 1047.34 34.7993 1047.34 34.5886C1047.34 34.3779 1047.4 34.2045 1047.52 34.0683C1047.64 33.9321 1047.8 33.8649 1047.99 33.8667C1048.08 33.8667 1048.17 33.8867 1048.24 33.9266C1048.32 33.9666 1048.38 34.0183 1048.42 34.0819H1048.44ZM1047.81 34.8529C1047.88 34.9219 1047.97 34.9564 1048.07 34.9564C1048.18 34.9564 1048.27 34.921 1048.34 34.8502C1048.4 34.7775 1048.44 34.6894 1048.44 34.5859C1048.44 34.4806 1048.4 34.3925 1048.33 34.3216C1048.27 34.2508 1048.18 34.2154 1048.07 34.2154C1047.97 34.2154 1047.88 34.2508 1047.81 34.3216C1047.74 34.3907 1047.71 34.4787 1047.71 34.5859C1047.71 34.6931 1047.74 34.782 1047.81 34.8529ZM1049.87 33.8694C1050.04 33.8694 1050.17 33.923 1050.27 34.0301C1050.36 34.1373 1050.41 34.2871 1050.41 34.4796V35.2643H1050.04V34.5341C1050.04 34.4397 1050.02 34.3652 1049.97 34.3107C1049.91 34.2563 1049.85 34.229 1049.77 34.229C1049.68 34.229 1049.61 34.2599 1049.55 34.3216C1049.49 34.3816 1049.46 34.4615 1049.46 34.5614V35.2643H1049.09V33.9075H1049.45V34.071H1049.46C1049.56 33.9366 1049.7 33.8694 1049.87 33.8694ZM1051.99 34.4224H1051.61C1051.59 34.3625 1051.55 34.3144 1051.5 34.278C1051.44 34.2399 1051.38 34.2208 1051.31 34.2208C1051.2 34.2208 1051.12 34.2562 1051.06 34.3271C1050.99 34.3961 1050.96 34.4824 1050.96 34.5859C1050.96 34.6876 1050.99 34.7739 1051.06 34.8447C1051.12 34.9137 1051.2 34.9482 1051.31 34.9482C1051.38 34.9482 1051.44 34.9301 1051.5 34.8937C1051.55 34.8556 1051.59 34.8066 1051.61 34.7466H1051.99C1051.97 34.9119 1051.89 35.0463 1051.76 35.1498C1051.64 35.2534 1051.49 35.3051 1051.31 35.3051C1051.09 35.3051 1050.92 35.237 1050.79 35.1008C1050.66 34.9646 1050.59 34.7929 1050.59 34.5859C1050.59 34.3788 1050.66 34.2072 1050.79 34.071C1050.92 33.9348 1051.09 33.8667 1051.31 33.8667C1051.49 33.8667 1051.64 33.9184 1051.77 34.022C1051.89 34.1237 1051.97 34.2572 1051.99 34.4224ZM1052.82 33.8667C1053.05 33.8667 1053.23 33.9466 1053.36 34.1064C1053.49 34.2662 1053.54 34.4669 1053.51 34.7085H1052.49C1052.5 34.7811 1052.54 34.8429 1052.59 34.8937C1052.65 34.9428 1052.73 34.9691 1052.82 34.9727C1052.88 34.9764 1052.94 34.9655 1053 34.9401C1053.05 34.9128 1053.09 34.8774 1053.12 34.8338H1053.5C1053.46 34.9827 1053.37 35.099 1053.25 35.1825C1053.13 35.2643 1052.98 35.3051 1052.82 35.3051C1052.6 35.3051 1052.43 35.2361 1052.3 35.0981C1052.18 34.9582 1052.11 34.7875 1052.11 34.5859C1052.11 34.3825 1052.18 34.2118 1052.31 34.0737C1052.45 33.9357 1052.62 33.8667 1052.82 33.8667ZM1053.02 34.2563C1052.97 34.2163 1052.9 34.1963 1052.82 34.1963C1052.74 34.1963 1052.67 34.2172 1052.61 34.259C1052.55 34.2989 1052.51 34.3534 1052.49 34.4224H1053.14C1053.12 34.3516 1053.08 34.2962 1053.02 34.2563Z" fill="white"/>
<path d="M1036.67 38.8972L1037.49 39.1718C1037.65 39.227 1037.78 39.3127 1037.87 39.429C1037.97 39.5452 1038.01 39.6789 1038.01 39.83C1038.01 40.0276 1037.94 40.1947 1037.81 40.3313C1037.67 40.4649 1037.5 40.5318 1037.29 40.5318H1037.26V41.0069H1036.72V40.5318H1036.07V39.9738H1037.29C1037.34 39.9738 1037.38 39.9608 1037.4 39.9346C1037.43 39.9084 1037.45 39.8765 1037.45 39.8387C1037.45 39.7748 1037.41 39.7283 1037.34 39.6992L1036.51 39.4115C1036.34 39.3534 1036.21 39.2677 1036.12 39.1543C1036.02 39.041 1035.98 38.9102 1035.98 38.762C1035.98 38.5644 1036.04 38.4003 1036.18 38.2695C1036.31 38.1358 1036.49 38.069 1036.7 38.069H1036.72V37.6113H1037.26V38.069H1037.88V38.6269H1036.7C1036.66 38.6269 1036.62 38.64 1036.6 38.6661C1036.57 38.6894 1036.56 38.7185 1036.56 38.7533C1036.56 38.8231 1036.6 38.871 1036.67 38.8972ZM1040.02 39.1282L1039.2 39.9302H1040.35V40.5318H1038.27V40.0479L1039.62 38.7185C1039.69 38.6458 1039.73 38.5644 1039.73 38.4744C1039.73 38.4017 1039.7 38.3407 1039.64 38.2913C1039.59 38.239 1039.52 38.2128 1039.43 38.2128H1038.3V37.6113H1039.43C1039.7 37.6113 1039.92 37.6897 1040.09 37.8467C1040.26 38.0036 1040.34 38.1968 1040.34 38.4264C1040.34 38.685 1040.23 38.919 1040.02 39.1282ZM1041.3 38.749H1041.91C1042.18 38.749 1042.39 38.8318 1042.56 38.9974C1042.72 39.1602 1042.81 39.3665 1042.81 39.6164C1042.81 39.8779 1042.72 40.0959 1042.55 40.2702C1042.39 40.4446 1042.17 40.5318 1041.91 40.5318H1040.74V39.9302H1041.87C1041.97 39.9302 1042.04 39.8997 1042.1 39.8387C1042.15 39.7777 1042.18 39.705 1042.18 39.6208C1042.18 39.5365 1042.16 39.4653 1042.1 39.4072C1042.05 39.3461 1041.97 39.3156 1041.87 39.3156H1040.7L1040.86 37.6113H1042.61V38.2128H1041.35L1041.3 38.749ZM1043.72 38.749H1044.33C1044.59 38.749 1044.81 38.8318 1044.98 38.9974C1045.14 39.1602 1045.22 39.3665 1045.22 39.6164C1045.22 39.8779 1045.14 40.0959 1044.97 40.2702C1044.8 40.4446 1044.59 40.5318 1044.33 40.5318H1043.16V39.9302H1044.29C1044.38 39.9302 1044.46 39.8997 1044.51 39.8387C1044.57 39.7777 1044.6 39.705 1044.6 39.6208C1044.6 39.5365 1044.57 39.4653 1044.52 39.4072C1044.46 39.3461 1044.39 39.3156 1044.29 39.3156H1043.12L1043.27 37.6113H1045.03V38.2128H1043.77L1043.72 38.749ZM1047.09 39.1282L1046.27 39.9302H1047.42V40.5318H1045.34V40.0479L1046.69 38.7185C1046.76 38.6458 1046.8 38.5644 1046.8 38.4744C1046.8 38.4017 1046.77 38.3407 1046.71 38.2913C1046.66 38.239 1046.59 38.2128 1046.5 38.2128H1045.37V37.6113H1046.5C1046.77 37.6113 1046.99 37.6897 1047.16 37.8467C1047.33 38.0036 1047.41 38.1968 1047.41 38.4264C1047.41 38.685 1047.3 38.919 1047.09 39.1282ZM1049.48 39.2677H1049.95V39.83H1049.48V40.5318H1048.86V39.83H1047.39V39.3854L1048.59 37.6113H1049.48V39.2677ZM1048.86 38.1867L1048.15 39.2677H1048.86V38.1867ZM1050.22 39.8779H1050.85V40.5318H1050.22V39.8779ZM1051.05 39.4072V38.7359C1051.05 38.3843 1051.17 38.098 1051.39 37.8772C1051.61 37.6563 1051.9 37.5459 1052.24 37.5459C1052.58 37.5459 1052.86 37.6563 1053.09 37.8772C1053.31 38.098 1053.43 38.3828 1053.43 38.7315V39.4072C1053.43 39.7559 1053.31 40.0421 1053.08 40.2659C1052.85 40.4867 1052.57 40.5972 1052.23 40.5972C1051.89 40.5972 1051.61 40.4867 1051.39 40.2659C1051.16 40.0421 1051.05 39.7559 1051.05 39.4072ZM1051.67 38.7359V39.4072C1051.67 39.5844 1051.72 39.7239 1051.82 39.8256C1051.93 39.9273 1052.06 39.9782 1052.23 39.9782C1052.4 39.9782 1052.53 39.9273 1052.64 39.8256C1052.75 39.721 1052.8 39.5815 1052.8 39.4072V38.7315C1052.8 38.5572 1052.75 38.4191 1052.64 38.3174C1052.54 38.2128 1052.4 38.1605 1052.24 38.1605C1052.07 38.1605 1051.93 38.2128 1051.83 38.3174C1051.73 38.4191 1051.67 38.5586 1051.67 38.7359ZM1053.77 39.4072V38.7359C1053.77 38.3843 1053.88 38.098 1054.11 37.8772C1054.33 37.6563 1054.61 37.5459 1054.95 37.5459C1055.29 37.5459 1055.58 37.6563 1055.8 37.8772C1056.03 38.098 1056.14 38.3828 1056.14 38.7315V39.4072C1056.14 39.7559 1056.03 40.0421 1055.8 40.2659C1055.57 40.4867 1055.28 40.5972 1054.94 40.5972C1054.61 40.5972 1054.33 40.4867 1054.1 40.2659C1053.88 40.0421 1053.77 39.7559 1053.77 39.4072ZM1054.39 38.7359V39.4072C1054.39 39.5844 1054.44 39.7239 1054.54 39.8256C1054.65 39.9273 1054.78 39.9782 1054.94 39.9782C1055.11 39.9782 1055.25 39.9273 1055.36 39.8256C1055.46 39.721 1055.52 39.5815 1055.52 39.4072V38.7315C1055.52 38.5572 1055.46 38.4191 1055.36 38.3174C1055.25 38.2128 1055.12 38.1605 1054.95 38.1605C1054.79 38.1605 1054.65 38.2128 1054.55 38.3174C1054.44 38.4191 1054.39 38.5586 1054.39 38.7359Z" fill="white"/>
<path d="M1065.86 33.9927V31.0722H1067.09C1067.53 31.0722 1067.88 31.2088 1068.17 31.482C1068.45 31.7551 1068.59 32.1024 1068.59 32.5237V32.5368C1068.59 32.9582 1068.45 33.3069 1068.17 33.583C1067.88 33.8561 1067.53 33.9927 1067.09 33.9927H1065.86ZM1067.08 31.6738H1066.48V33.3868H1067.08C1067.34 33.3868 1067.55 33.3084 1067.71 33.1514C1067.88 32.9945 1067.96 32.7896 1067.96 32.5368V32.5237C1067.96 32.2709 1067.88 32.0661 1067.71 31.9091C1067.55 31.7522 1067.34 31.6738 1067.08 31.6738ZM1071.23 33.9927H1068.99V31.0722H1071.23V31.6738H1069.61V32.2186H1071.04V32.794H1069.61V33.3912H1071.23V33.9927ZM1073.16 31.0722C1073.45 31.0722 1073.69 31.1681 1073.89 31.3599C1074.08 31.5488 1074.18 31.7871 1074.18 32.0748C1074.18 32.3683 1074.08 32.6095 1073.88 32.7984C1073.69 32.9843 1073.45 33.0773 1073.16 33.0773H1072.32V33.9927H1071.7V31.0722H1073.16ZM1072.32 32.4889H1073.12C1073.24 32.4889 1073.34 32.4511 1073.43 32.3755C1073.51 32.3 1073.55 32.1997 1073.55 32.0748C1073.55 31.9585 1073.51 31.8626 1073.43 31.7871C1073.34 31.7115 1073.24 31.6738 1073.12 31.6738H1072.32V32.4889ZM1077.07 33.6178C1076.78 33.9084 1076.41 34.0537 1075.96 34.0537C1075.5 34.0537 1075.12 33.9084 1074.84 33.6178C1074.56 33.3243 1074.42 32.964 1074.42 32.5368C1074.42 32.1096 1074.56 31.7479 1074.84 31.4514C1075.13 31.155 1075.5 31.0068 1075.96 31.0068C1076.41 31.0068 1076.78 31.155 1077.07 31.4514C1077.35 31.7479 1077.49 32.1096 1077.49 32.5368C1077.49 32.964 1077.35 33.3243 1077.07 33.6178ZM1075.3 33.1819C1075.46 33.3592 1075.68 33.4478 1075.96 33.4478C1076.23 33.4478 1076.45 33.3592 1076.61 33.1819C1076.78 33.0047 1076.86 32.7882 1076.86 32.5325C1076.86 32.2767 1076.78 32.0602 1076.61 31.883C1076.45 31.7057 1076.23 31.6171 1075.96 31.6171C1075.68 31.6171 1075.46 31.7057 1075.3 31.883C1075.13 32.0602 1075.05 32.2767 1075.05 32.5325C1075.05 32.7853 1075.13 33.0018 1075.3 33.1819ZM1078.6 31.0722H1080.11V31.6738H1078.65C1078.57 31.6738 1078.52 31.6941 1078.47 31.7348C1078.43 31.7755 1078.41 31.8249 1078.41 31.883C1078.41 31.9324 1078.43 31.9774 1078.46 32.0181C1078.49 32.0588 1078.54 32.0864 1078.6 32.1009L1079.64 32.345C1079.85 32.3944 1080.02 32.4947 1080.13 32.6458C1080.24 32.794 1080.3 32.9611 1080.3 33.1471C1080.3 33.3766 1080.22 33.5757 1080.06 33.7442C1079.91 33.9099 1079.7 33.9927 1079.42 33.9927H1077.85V33.3868H1079.4C1079.47 33.3868 1079.53 33.3636 1079.57 33.3171C1079.62 33.2706 1079.64 33.2168 1079.64 33.1558C1079.64 33.0366 1079.58 32.9625 1079.44 32.9335L1078.4 32.685C1078.19 32.6327 1078.02 32.5339 1077.91 32.3886C1077.8 32.2404 1077.74 32.0762 1077.74 31.8961C1077.74 31.6723 1077.82 31.4791 1077.97 31.3163C1078.12 31.1536 1078.33 31.0722 1078.6 31.0722ZM1080.7 33.9927V31.0722H1081.32V33.9927H1080.7ZM1081.68 31.0722H1084.26V31.6738H1083.28V33.9927H1082.65V31.6738H1081.68V31.0722Z" fill="#1844BF"/>
<path d="M1025.89 91.3851C1035.77 91.3851 1043.78 83.4569 1043.78 73.6769C1043.78 63.897 1035.77 55.9688 1025.89 55.9688C1016.01 55.9688 1008 63.897 1008 73.6769C1008 83.4569 1016.01 91.3851 1025.89 91.3851Z" fill="#FF952F"/>
<path d="M1033.61 81.2148H1018.35" stroke="white" stroke-width="2.17947" stroke-linecap="round" stroke-linejoin="round"/>
<path d="M1025.98 64.5054V75.9476" stroke="white" stroke-width="2.17947" stroke-linecap="round" stroke-linejoin="round"/>
<path d="M1020.34 70.3442L1025.96 75.9638" stroke="white" stroke-width="2.17947" stroke-linecap="round" stroke-linejoin="round"/>
<path d="M1031.58 70.3442L1025.96 75.9638" stroke="white" stroke-width="2.17947" stroke-linecap="round" stroke-linejoin="round"/>
<path d="M1137.5 37.9883H1067.39C1066.39 37.9883 1065.57 38.8014 1065.57 39.8045V85.0285C1065.57 86.0316 1066.39 86.8447 1067.39 86.8447H1137.5C1138.5 86.8447 1139.31 86.0316 1139.31 85.0285V39.8045C1139.31 38.8014 1138.5 37.9883 1137.5 37.9883Z" fill="white" stroke="#0C38B7" stroke-width="0.544868"/>
<path d="M1169.46 37.9883H1144.04C1143.03 37.9883 1142.22 38.8014 1142.22 39.8045V85.0285C1142.22 86.0316 1143.03 86.8447 1144.04 86.8447H1169.46C1170.47 86.8447 1171.28 86.0316 1171.28 85.0285V39.8045C1171.28 38.8014 1170.47 37.9883 1169.46 37.9883Z" stroke="#E2EBF4" stroke-width="0.544868"/>
<path d="M1169.46 89.9326H1067.39C1066.39 89.9326 1065.57 90.7458 1065.57 91.7488V108.095C1065.57 109.098 1066.39 109.911 1067.39 109.911H1169.46C1170.47 109.911 1171.28 109.098 1171.28 108.095V91.7488C1171.28 90.7458 1170.47 89.9326 1169.46 89.9326Z" stroke="#E2EBF4" stroke-width="0.544868"/>
<path d="M1076.47 44.7992C1076.47 45.5515 1075.86 46.1613 1075.11 46.1613H1070.57C1069.82 46.1613 1069.21 45.5515 1069.21 44.7992C1069.21 44.0469 1069.82 43.437 1070.57 43.437H1075.11C1075.86 43.437 1076.47 44.0469 1076.47 44.7992Z" stroke="#E2EBF4" stroke-width="0.544868"/>
<path d="M1096.09 44.7992C1096.09 45.5515 1095.48 46.1613 1094.73 46.1613H1080.56C1079.81 46.1613 1079.2 45.5515 1079.2 44.7992C1079.2 44.0469 1079.81 43.437 1080.56 43.437H1094.73C1095.48 43.437 1096.09 44.0469 1096.09 44.7992Z" stroke="#E2EBF4" stroke-width="0.544868"/>
<path d="M1135.68 44.7992C1135.68 45.5515 1135.07 46.1613 1134.32 46.1613H1100.17C1099.42 46.1613 1098.81 45.5515 1098.81 44.7992C1098.81 44.0469 1099.42 43.437 1100.17 43.437H1134.32C1135.07 43.437 1135.68 44.0469 1135.68 44.7992Z" stroke="#E2EBF4" stroke-width="0.544868"/>
<path d="M1087.37 51.8827C1087.37 52.635 1086.76 53.2448 1086.01 53.2448H1070.57C1069.82 53.2448 1069.21 52.635 1069.21 51.8827C1069.21 51.1304 1069.82 50.5205 1070.57 50.5205H1086.01C1086.76 50.5205 1087.37 51.1304 1087.37 51.8827Z" stroke="#E2EBF4" stroke-width="0.544868"/>
<path d="M1106.98 51.8827C1106.98 52.635 1106.37 53.2448 1105.62 53.2448H1091.46C1090.7 53.2448 1090.09 52.635 1090.09 51.8827C1090.09 51.1304 1090.7 50.5205 1091.46 50.5205H1105.62C1106.37 50.5205 1106.98 51.1304 1106.98 51.8827Z" stroke="#E2EBF4" stroke-width="0.544868"/>
<path d="M1135.68 51.8827C1135.68 52.635 1135.07 53.2448 1134.32 53.2448H1111.07C1110.32 53.2448 1109.71 52.635 1109.71 51.8827C1109.71 51.1304 1110.32 50.5205 1111.07 50.5205H1134.32C1135.07 50.5205 1135.68 51.1304 1135.68 51.8827Z" stroke="#E2EBF4" stroke-width="0.544868"/>
<path d="M1077.02 80.2157C1077.02 80.968 1076.41 81.5779 1075.66 81.5779H1070.57C1069.82 81.5779 1069.21 80.968 1069.21 80.2157C1069.21 79.4634 1069.82 78.8535 1070.57 78.8535H1075.66C1076.41 78.8535 1077.02 79.4634 1077.02 80.2157Z" stroke="#E2EBF4" stroke-width="0.544868"/>
<path d="M1114.62 80.2157C1114.62 80.968 1114.01 81.5779 1113.25 81.5779H1081.11C1080.35 81.5779 1079.74 80.968 1079.74 80.2157C1079.74 79.4634 1080.35 78.8535 1081.11 78.8535H1113.25C1114.01 78.8535 1114.62 79.4634 1114.62 80.2157Z" stroke="#E2EBF4" stroke-width="0.544868"/>
<path d="M1135.68 80.2157C1135.68 80.968 1135.07 81.5779 1134.32 81.5779H1118.7C1117.95 81.5779 1117.34 80.968 1117.34 80.2157C1117.34 79.4634 1117.95 78.8535 1118.7 78.8535H1134.32C1135.07 78.8535 1135.68 79.4634 1135.68 80.2157Z" stroke="#E2EBF4" stroke-width="0.544868"/>
<path d="M1087.37 66.0487C1087.37 66.801 1086.76 67.4109 1086.01 67.4109H1070.57C1069.82 67.4109 1069.21 66.801 1069.21 66.0487C1069.21 65.2964 1069.82 64.6865 1070.57 64.6865H1086.01C1086.76 64.6865 1087.37 65.2964 1087.37 66.0487Z" stroke="#E2EBF4" stroke-width="0.544868"/>
<path d="M1113.34 66.0487C1113.34 66.801 1112.73 67.4109 1111.98 67.4109H1091.46C1090.7 67.4109 1090.09 66.801 1090.09 66.0487C1090.09 65.2964 1090.7 64.6865 1091.46 64.6865H1111.98C1112.73 64.6865 1113.34 65.2964 1113.34 66.0487Z" stroke="#E2EBF4" stroke-width="0.544868"/>
<path d="M1135.68 66.0487C1135.68 66.801 1135.07 67.4109 1134.32 67.4109H1117.43C1116.68 67.4109 1116.07 66.801 1116.07 66.0487C1116.07 65.2964 1116.68 64.6865 1117.43 64.6865H1134.32C1135.07 64.6865 1135.68 65.2964 1135.68 66.0487Z" stroke="#E2EBF4" stroke-width="0.544868"/>
<path d="M1080.29 58.9662C1080.29 59.7185 1079.68 60.3283 1078.93 60.3283H1070.57C1069.82 60.3283 1069.21 59.7185 1069.21 58.9662C1069.21 58.2139 1069.82 57.604 1070.57 57.604H1078.93C1079.68 57.604 1080.29 58.2139 1080.29 58.9662Z" stroke="#E2EBF4" stroke-width="0.544868"/>
<path d="M1120.79 58.9662C1120.79 59.7185 1120.18 60.3283 1119.43 60.3283H1084.37C1083.62 60.3283 1083.01 59.7185 1083.01 58.9662C1083.01 58.2139 1083.62 57.604 1084.37 57.604H1119.43C1120.18 57.604 1120.79 58.2139 1120.79 58.9662Z" stroke="#E2EBF4" stroke-width="0.544868"/>
<path d="M1135.68 58.9662C1135.68 59.7185 1135.07 60.3283 1134.32 60.3283H1124.88C1124.12 60.3283 1123.51 59.7185 1123.51 58.9662C1123.51 58.2139 1124.12 57.604 1124.88 57.604H1134.32C1135.07 57.604 1135.68 58.2139 1135.68 58.9662Z" stroke="#E2EBF4" stroke-width="0.544868"/>
<path d="M1100.45 73.1322C1100.45 73.8845 1099.84 74.4944 1099.09 74.4944H1070.57C1069.82 74.4944 1069.21 73.8845 1069.21 73.1322C1069.21 72.3799 1069.82 71.77 1070.57 71.77H1099.09C1099.84 71.77 1100.45 72.3799 1100.45 73.1322Z" stroke="#E2EBF4" stroke-width="0.544868"/>
<path d="M1120.79 73.1322C1120.79 73.8845 1120.18 74.4944 1119.43 74.4944H1104.53C1103.78 74.4944 1103.17 73.8845 1103.17 73.1322C1103.17 72.3799 1103.78 71.77 1104.53 71.77H1119.43C1120.18 71.77 1120.79 72.3799 1120.79 73.1322Z" stroke="#E2EBF4" stroke-width="0.544868"/>
<path d="M1135.68 73.1322C1135.68 73.8845 1135.07 74.4944 1134.32 74.4944H1124.88C1124.12 74.4944 1123.51 73.8845 1123.51 73.1322C1123.51 72.3799 1124.12 71.77 1124.88 71.77H1134.32C1135.07 71.77 1135.68 72.3799 1135.68 73.1322Z" stroke="#E2EBF4" stroke-width="0.544868"/>
<path d="M1118.06 61.7807C1118.06 53.2546 1111.19 46.3428 1102.72 46.3428C1094.24 46.3428 1087.37 53.2546 1087.37 61.7807C1087.37 70.3068 1094.24 77.2186 1102.72 77.2186" stroke="#0C38B7" stroke-width="0.544868" stroke-linecap="round" stroke-linejoin="round"/>
<path d="M1118.07 61.7808C1118.07 70.3069 1111.15 77.2187 1102.63 77.2187" stroke="#0C38B7" stroke-width="0.544868" stroke-linecap="round" stroke-linejoin="round" stroke-dasharray="2.72 2.72"/>
<path d="M1095.72 60.2072L1101.17 65.4138L1109.35 57.604" stroke="#1844C0" stroke-width="1.81623" stroke-linecap="round" stroke-linejoin="round"/>
<path d="M1095.64 51.429C1097.49 51.429 1099 49.9654 1099 48.1598C1099 46.3543 1097.49 44.8906 1095.64 44.8906C1093.78 44.8906 1092.28 46.3543 1092.28 48.1598C1092.28 49.9654 1093.78 51.429 1095.64 51.429Z" fill="#1844BF"/>
<path d="M1088.37 57.6037C1089.32 57.6037 1090.1 56.8718 1090.1 55.9691C1090.1 55.0663 1089.32 54.3345 1088.37 54.3345C1087.42 54.3345 1086.64 55.0663 1086.64 55.9691C1086.64 56.8718 1087.42 57.6037 1088.37 57.6037Z" fill="#1844BF"/>
<path d="M1129.33 67.7739L1196.16 67.7739C1198.17 67.7739 1199.8 66.1476 1199.8 64.1415V49.7933C1199.8 47.7871 1198.17 46.1608 1196.16 46.1608L1129.33 46.1608C1127.32 46.1608 1125.69 47.7871 1125.69 49.7933V64.1415C1125.69 66.1476 1127.32 67.7739 1129.33 67.7739Z" fill="#1844BF"/>
<path fill-rule="evenodd" clip-rule="evenodd" d="M1139.03 53.063C1139.03 52.9627 1138.95 52.8813 1138.85 52.8813H1137.28C1137.18 52.8813 1137.09 52.9627 1137.09 53.063V55.8166C1137.09 55.917 1137.01 55.9982 1136.91 55.9982H1134.23C1134.13 55.9982 1134.05 56.0795 1134.05 56.1798V57.7559C1134.05 57.8563 1134.13 57.9375 1134.23 57.9375H1136.91C1137.01 57.9375 1137.09 58.0189 1137.09 58.1192V60.8727C1137.09 60.973 1137.18 61.0544 1137.28 61.0544H1138.85C1138.95 61.0544 1139.03 60.973 1139.03 60.8727V58.1192C1139.03 58.0189 1139.12 57.9375 1139.22 57.9375H1142.04C1142.14 57.9375 1142.22 57.8563 1142.22 57.7559V56.1798C1142.22 56.0795 1142.14 55.9982 1142.04 55.9982H1139.22C1139.12 55.9982 1139.03 55.917 1139.03 55.8166V53.063Z" fill="white"/>
<path d="M1153.12 56.5136L1155.28 57.2459C1155.72 57.3931 1156.07 57.6216 1156.31 57.9317C1156.56 58.2417 1156.68 58.598 1156.68 59.0011C1156.68 59.5279 1156.5 59.9736 1156.14 60.3378C1155.77 60.6943 1155.32 60.8725 1154.77 60.8725H1154.68V62.1395H1153.24V60.8725H1151.51V59.3846H1154.77C1154.89 59.3846 1154.99 59.3498 1155.06 59.28C1155.14 59.2103 1155.17 59.1251 1155.17 59.0243C1155.17 58.8538 1155.08 58.7299 1154.88 58.6523L1152.66 57.8852C1152.23 57.7302 1151.88 57.5016 1151.63 57.1994C1151.38 56.8971 1151.26 56.5484 1151.26 56.1532C1151.26 55.6263 1151.43 55.1884 1151.79 54.8397C1152.15 54.4832 1152.62 54.305 1153.17 54.305H1153.24V53.0845H1154.68V54.305H1156.32V55.7929H1153.2C1153.07 55.7929 1152.98 55.8277 1152.91 55.8975C1152.85 55.9594 1152.81 56.037 1152.81 56.13C1152.81 56.3159 1152.91 56.4438 1153.12 56.5136ZM1160.57 53.0845V60.8725H1158.92V54.6886H1157.13V53.0845H1160.57ZM1166.35 57.1296L1164.16 59.2684H1167.24V60.8725H1161.68V59.5822L1165.28 56.037C1165.47 55.8432 1165.57 55.6263 1165.57 55.386C1165.57 55.1922 1165.49 55.0295 1165.35 54.8978C1165.2 54.7584 1165.01 54.6886 1164.78 54.6886H1161.76V53.0845H1164.78C1165.5 53.0845 1166.08 53.2937 1166.53 53.7122C1166.98 54.1307 1167.21 54.6459 1167.21 55.2582C1167.21 55.9478 1166.92 56.5717 1166.35 57.1296ZM1172.72 57.5016H1173.97V59.0011H1172.72V60.8725H1171.06V59.0011H1167.14V57.8154L1170.34 53.0845H1172.72V57.5016ZM1171.06 54.6189L1169.19 57.5016H1171.06V54.6189ZM1174.69 59.1289H1176.38V60.8725H1174.69V59.1289ZM1176.92 57.8735V56.0835C1176.92 55.1458 1177.22 54.3826 1177.82 53.7936C1178.41 53.2046 1179.16 52.9102 1180.07 52.9102C1180.98 52.9102 1181.73 53.2046 1182.34 53.7936C1182.94 54.3826 1183.25 55.1419 1183.25 56.0718V57.8735C1183.25 58.8034 1182.94 59.5668 1182.33 60.1634C1181.71 60.7524 1180.95 61.0469 1180.05 61.0469C1179.15 61.0469 1178.4 60.7524 1177.81 60.1634C1177.22 59.5668 1176.92 58.8034 1176.92 57.8735ZM1178.57 56.0835V57.8735C1178.57 58.3463 1178.71 58.7183 1178.98 58.9894C1179.26 59.2606 1179.61 59.3963 1180.05 59.3963C1180.5 59.3963 1180.87 59.2606 1181.15 58.9894C1181.44 58.7105 1181.58 58.3385 1181.58 57.8735V56.0718C1181.58 55.6069 1181.44 55.2387 1181.15 54.9676C1180.87 54.6886 1180.51 54.5491 1180.07 54.5491C1179.63 54.5491 1179.27 54.6886 1178.99 54.9676C1178.71 55.2387 1178.57 55.6107 1178.57 56.0835ZM1184.16 57.8735V56.0835C1184.16 55.1458 1184.46 54.3826 1185.06 53.7936C1185.66 53.2046 1186.41 52.9102 1187.31 52.9102C1188.22 52.9102 1188.98 53.2046 1189.58 53.7936C1190.18 54.3826 1190.49 55.1419 1190.49 56.0718V57.8735C1190.49 58.8034 1190.18 59.5668 1189.57 60.1634C1188.96 60.7524 1188.2 61.0469 1187.29 61.0469C1186.39 61.0469 1185.64 60.7524 1185.05 60.1634C1184.46 59.5668 1184.16 58.8034 1184.16 57.8735ZM1185.81 56.0835V57.8735C1185.81 58.3463 1185.95 58.7183 1186.22 58.9894C1186.5 59.2606 1186.86 59.3963 1187.29 59.3963C1187.74 59.3963 1188.11 59.2606 1188.39 58.9894C1188.68 58.7105 1188.82 58.3385 1188.82 57.8735V56.0718C1188.82 55.6069 1188.68 55.2387 1188.39 54.9676C1188.12 54.6886 1187.75 54.5491 1187.31 54.5491C1186.87 54.5491 1186.51 54.6886 1186.23 54.9676C1185.95 55.2387 1185.81 55.6107 1185.81 56.0835Z" fill="#E2EBF4"/>
<path d="M154.085 83.9395H168.112H182.509C189.438 83.9395 195.611 88.3285 197.907 94.8868L207.556 122.452C209.552 128.154 206.677 134.416 201.06 136.601C196.127 138.52 190.531 137.374 186.743 133.668L179.205 126.297C178.513 125.619 177.583 125.24 176.617 125.24H168.112H159.977C159.009 125.24 158.079 125.619 157.387 126.297L149.85 133.668C146.061 137.374 140.465 138.52 135.532 136.601C129.916 134.416 127.041 128.154 129.037 122.452L138.685 94.8868C140.981 88.3285 147.156 83.9395 154.085 83.9395Z" fill="white" stroke="#0C38B7" stroke-width="0.544868"/>
<path d="M183.441 102.867C185.531 102.867 187.226 101.237 187.226 99.2268C187.226 97.2165 185.531 95.5869 183.441 95.5869C181.35 95.5869 179.655 97.2165 179.655 99.2268C179.655 101.237 181.35 102.867 183.441 102.867Z" fill="#1844BF"/>
<path d="M189.989 111.893C192 111.893 193.629 110.198 193.629 108.108C193.629 106.017 192 104.322 189.989 104.322C187.979 104.322 186.35 106.017 186.35 108.108C186.35 110.198 187.979 111.893 189.989 111.893Z" fill="#1844BF"/>
<path d="M158.202 96.1318C158.202 95.8308 157.956 95.5869 157.657 95.5869H152.793C152.491 95.5869 152.248 95.8308 152.248 96.1318V100.251C152.248 100.552 152.005 100.796 151.703 100.796H147.584C147.282 100.796 147.039 101.04 147.039 101.341V106.204C147.039 106.505 147.282 106.749 147.584 106.749H151.703C152.005 106.749 152.248 106.993 152.248 107.294V111.413C152.248 111.714 152.491 111.958 152.793 111.958H157.657C157.956 111.958 158.202 111.714 158.202 111.413V107.294C158.202 106.993 158.445 106.749 158.746 106.749H162.866C163.165 106.749 163.411 106.505 163.411 106.204V101.341C163.411 101.04 163.165 100.796 162.866 100.796H158.746C158.445 100.796 158.202 100.552 158.202 100.251V96.1318Z" fill="#1844BF"/>
<path d="M155.127 97.1065C155.198 96.9853 155.372 96.9853 155.443 97.1065L156.386 98.7411C156.456 98.8622 156.369 99.0135 156.229 99.0135H154.341C154.201 99.0135 154.114 98.8622 154.184 98.7411L155.127 97.1065Z" fill="white"/>
<path d="M155.443 110.001C155.372 110.122 155.198 110.122 155.127 110.001L154.184 108.367C154.114 108.246 154.201 108.094 154.341 108.094H156.229C156.369 108.094 156.456 108.246 156.386 108.367L155.443 110.001Z" fill="white"/>
<path d="M148.655 103.893C148.533 103.823 148.533 103.648 148.655 103.578L150.289 102.634C150.411 102.565 150.562 102.652 150.562 102.792V104.679C150.562 104.819 150.411 104.906 150.289 104.836L148.655 103.893Z" fill="white"/>
<path d="M161.914 104.257C162.036 104.187 162.036 104.012 161.914 103.942L160.279 102.998C160.158 102.928 160.007 103.016 160.007 103.156V105.043C160.007 105.183 160.158 105.27 160.279 105.2L161.914 104.257Z" fill="white"/>
<path d="M100.589 21.5503C99.018 24.2704 96.5529 26.362 93.6131 27.4684C90.6734 28.5749 87.4411 28.6277 84.4666 27.6181C81.4922 26.6085 78.96 24.5988 77.3013 21.9313C75.6425 19.264 74.9601 16.104 75.3701 12.9897C75.78 9.87558 77.2571 6.99976 79.5497 4.85262C81.8422 2.70548 84.8084 1.4196 87.9427 1.21418C91.0771 1.00858 94.1858 1.89636 96.7389 3.72602C99.2921 5.5555 101.132 8.21391 101.945 11.2479L88.8307 14.7618L100.589 21.5503Z" fill="white" stroke="#1844BF" stroke-width="0.544868" stroke-linejoin="round"/>
<path d="M89.2635 10.3868C90.417 10.3868 91.3521 9.49234 91.3521 8.38896C91.3521 7.28558 90.417 6.39111 89.2635 6.39111C88.1099 6.39111 87.1748 7.28558 87.1748 8.38896C87.1748 9.49234 88.1099 10.3868 89.2635 10.3868Z" fill="white" stroke="#1844BF" stroke-width="0.544868" stroke-linejoin="round"/>
<path d="M109.334 17.4703C110.437 17.4703 111.332 16.5758 111.332 15.4725C111.332 14.3691 110.437 13.4746 109.334 13.4746C108.23 13.4746 107.336 14.3691 107.336 15.4725C107.336 16.5758 108.23 17.4703 109.334 17.4703Z" fill="white" stroke="#FF952F" stroke-width="0.544868" stroke-linejoin="round"/>
<path d="M118.778 17.4703C119.882 17.4703 120.776 16.5758 120.776 15.4725C120.776 14.3691 119.882 13.4746 118.778 13.4746C117.675 13.4746 116.78 14.3691 116.78 15.4725C116.78 16.5758 117.675 17.4703 118.778 17.4703Z" fill="white" stroke="#FF952F" stroke-width="0.544868" stroke-linejoin="round"/>
<path d="M128.223 17.4703C129.327 17.4703 130.221 16.5758 130.221 15.4725C130.221 14.3691 129.327 13.4746 128.223 13.4746C127.12 13.4746 126.226 14.3691 126.226 15.4725C126.226 16.5758 127.12 17.4703 128.223 17.4703Z" fill="white" stroke="#FF952F" stroke-width="0.544868" stroke-linejoin="round"/>
<path d="M137.666 17.4703C138.769 17.4703 139.664 16.5758 139.664 15.4725C139.664 14.3691 138.769 13.4746 137.666 13.4746C136.562 13.4746 135.668 14.3691 135.668 15.4725C135.668 16.5758 136.562 17.4703 137.666 17.4703Z" fill="white" stroke="#FF952F" stroke-width="0.544868" stroke-linejoin="round"/>
<path d="M411.735 53.4263H406.468C405.866 53.4263 405.378 52.9384 405.378 52.3365C405.378 51.7347 405.866 51.2468 406.468 51.2468H411.735C412.337 51.2468 412.824 51.7347 412.824 52.3365C412.824 52.9384 412.337 53.4263 411.735 53.4263Z" fill="#FF952F"/>
<path d="M411.735 38.5327H406.468C405.866 38.5327 405.378 38.0448 405.378 37.443C405.378 36.8411 405.866 36.3532 406.468 36.3532H411.735C412.337 36.3532 412.824 36.8411 412.824 37.443C412.824 38.0448 412.337 38.5327 411.735 38.5327Z" fill="#FF952F"/>
<path d="M391.758 107.369C401.588 107.369 409.557 99.5217 409.557 89.842C409.557 80.1623 401.588 72.3154 391.758 72.3154C381.928 72.3154 373.959 80.1623 373.959 89.842C373.959 99.5217 381.928 107.369 391.758 107.369Z" fill="#1844BF"/>
<path d="M384.186 78.1474L384.186 78.1473C383.574 77.5347 382.581 77.5347 381.968 78.1473L381.968 78.1473C381.355 78.76 381.355 79.7532 381.968 80.3658L381.968 80.3659C382.581 80.9785 383.574 80.9785 384.186 80.3659L384.186 80.3659C384.799 79.7532 384.799 78.76 384.186 78.1474Z" fill="white"/>
<path d="M379.264 91.0616C380.166 90.1588 380.166 88.6951 379.264 87.7923C378.361 86.8896 376.897 86.8896 375.994 87.7923C375.092 88.6951 375.092 90.1588 375.994 91.0616C376.897 91.9643 378.361 91.9643 379.264 91.0616Z" fill="white"/>
<path d="M392.845 75.9472C392.845 75.3453 392.358 74.8574 391.756 74.8574C391.154 74.8574 390.666 75.3453 390.666 75.9472C390.666 76.549 391.154 77.0369 391.756 77.0369C392.358 77.0369 392.845 76.549 392.845 75.9472Z" fill="white"/>
<path d="M391.757 103.554C399.581 103.554 405.924 97.3744 405.924 89.7511C405.924 82.1277 399.581 75.9478 391.757 75.9478C383.933 75.9478 377.591 82.1277 377.591 89.7511C377.591 97.3744 383.933 103.554 391.757 103.554Z" stroke="white" stroke-width="0.363245"/>
<path d="M387.034 89.0242L390.812 92.6567L396.479 87.208" stroke="white" stroke-width="1.81623" stroke-linecap="round" stroke-linejoin="round"/>
<path d="M145.475 57.604H123.317" stroke="white" stroke-width="0.544868" stroke-linecap="round"/>
<path d="M171.812 57.604H149.654" stroke="white" stroke-width="0.544868" stroke-linecap="round"/>
<path d="M792.599 49.9751L820.75 49.9751C821.252 49.9751 821.658 49.5685 821.658 49.067V35.9902C821.658 35.4886 821.252 35.082 820.75 35.082H792.599C792.097 35.082 791.69 35.4886 791.69 35.9902V49.067C791.69 49.5685 792.097 49.9751 792.599 49.9751Z" fill="#E2EBF4"/>
<path d="M827.65 28.3623H840.545C840.746 28.3623 840.908 28.1997 840.908 27.9991V26.9093C840.908 26.7087 840.746 26.5461 840.545 26.5461H827.65C827.449 26.5461 827.287 26.7087 827.287 26.9093V27.9991C827.287 28.1997 827.449 28.3623 827.65 28.3623Z" fill="#E2EBF4"/>
<path d="M792.596 29.6333L816.025 29.6333C816.527 29.6333 816.934 29.2267 816.934 28.7252V26.3641C816.934 25.8626 816.527 25.456 816.025 25.456L792.596 25.456C792.095 25.456 791.688 25.8626 791.688 26.3641V28.7252C791.688 29.2267 792.095 29.6333 792.596 29.6333Z" fill="#E2EBF4"/>
<path d="M848.173 28.3623H861.432C861.632 28.3623 861.795 28.1997 861.795 27.9991V26.9093C861.795 26.7087 861.632 26.5461 861.432 26.5461H848.173C847.973 26.5461 847.81 26.7087 847.81 26.9093V27.9991C847.81 28.1997 847.973 28.3623 848.173 28.3623Z" fill="#E2EBF4"/>
<path d="M828.742 46.5249H843.272C843.472 46.5249 843.635 46.3623 843.635 46.1617V45.0719C843.635 44.8713 843.472 44.7087 843.272 44.7087H828.742C828.541 44.7087 828.378 44.8713 828.378 45.0719V46.1617C828.378 46.3623 828.541 46.5249 828.742 46.5249Z" fill="#E2EBF4"/>
<path d="M846.359 42.5288H857.438C857.638 42.5288 857.801 42.3662 857.801 42.1656V41.0758C857.801 40.8752 857.638 40.7126 857.438 40.7126H846.359C846.158 40.7126 845.995 40.8752 845.995 41.0758V42.1656C845.995 42.3662 846.158 42.5288 846.359 42.5288Z" fill="#E2EBF4"/>
<path d="M868.515 28.3623H881.955C882.156 28.3623 882.318 28.1997 882.318 27.9991V26.9093C882.318 26.7087 882.156 26.5461 881.955 26.5461H868.515C868.314 26.5461 868.152 26.7087 868.152 26.9093V27.9991C868.152 28.1997 868.314 28.3623 868.515 28.3623Z" fill="#E2EBF4"/>
<path d="M889.04 28.3623H902.662C902.863 28.3623 903.025 28.1997 903.025 27.9991V26.9093C903.025 26.7087 902.863 26.5461 902.662 26.5461H889.04C888.84 26.5461 888.677 26.7087 888.677 26.9093V27.9991C888.677 28.1997 888.84 28.3623 889.04 28.3623Z" fill="#E2EBF4"/>
<path d="M913.921 29.0889L928.27 29.0889C928.671 29.0889 928.996 28.7636 928.996 28.3624V26.5462C928.996 26.1449 928.671 25.8197 928.27 25.8197H913.921C913.52 25.8197 913.195 26.1449 913.195 26.5462V28.3624C913.195 28.7636 913.52 29.0889 913.921 29.0889Z" fill="#E2EBF4"/>
<path d="M931.537 29.0889H933.535C933.936 29.0889 934.262 28.7636 934.262 28.3624V26.5462C934.262 26.1449 933.936 25.8197 933.535 25.8197H931.537C931.136 25.8197 930.811 26.1449 930.811 26.5462V28.3624C930.811 28.7636 931.136 29.0889 931.537 29.0889Z" fill="#E2EBF4"/>
<path d="M792.599 81.5776H820.75C821.252 81.5776 821.658 81.1711 821.658 80.6695V69.9538C821.658 69.4523 821.252 69.0457 820.75 69.0457H792.599C792.097 69.0457 791.69 69.4523 791.69 69.9538V80.6695C791.69 81.1711 792.097 81.5776 792.599 81.5776Z" fill="#E2EBF4"/>
<path d="M792.599 65.7769H820.75C821.252 65.7769 821.658 65.3703 821.658 64.8687V54.153C821.658 53.6515 821.252 53.2449 820.75 53.2449H792.599C792.097 53.2449 791.69 53.6515 791.69 54.153V64.8687C791.69 65.3703 792.097 65.7769 792.599 65.7769Z" fill="#E2EBF4"/>
<path d="M825.834 112.363L932.991 112.363C933.543 112.363 933.99 111.916 933.99 111.364V36.3543C933.99 35.8026 933.543 35.3553 932.991 35.3553L825.834 35.3553C825.282 35.3553 824.835 35.8026 824.835 36.3543V111.364C824.835 111.916 825.282 112.363 825.834 112.363Z" stroke="#E2EBF4" stroke-width="0.544868"/>
<path d="M792.599 97.0156H820.75C821.252 97.0156 821.658 96.609 821.658 96.1075V85.755C821.658 85.2535 821.252 84.8469 820.75 84.8469H792.599C792.097 84.8469 791.69 85.2535 791.69 85.755V96.1075C791.69 96.609 792.097 97.0156 792.599 97.0156Z" fill="#E2EBF4"/>
<path d="M792.599 112.636H820.75C821.252 112.636 821.658 112.229 821.658 111.728V101.375C821.658 100.874 821.252 100.467 820.75 100.467H792.599C792.097 100.467 791.69 100.874 791.69 101.375V111.728C791.69 112.229 792.097 112.636 792.599 112.636Z" fill="#E2EBF4"/>
<path d="M842.361 47.978V106.642" stroke="#E2EBF4" stroke-width="0.544868" stroke-linecap="round"/>
<path d="M861.252 47.978V106.642" stroke="#E2EBF4" stroke-width="0.544868" stroke-linecap="round"/>
<path d="M879.959 47.978V106.642" stroke="#E2EBF4" stroke-width="0.544868" stroke-linecap="round"/>
<path d="M898.846 47.978V106.642" stroke="#E2EBF4" stroke-width="0.544868" stroke-linecap="round"/>
<path d="M917.736 47.978V106.642" stroke="#E2EBF4" stroke-width="0.544868" stroke-linecap="round"/>
<path d="M794.594 78.6714H818.568C818.97 78.6714 819.295 78.3461 819.295 77.9449C819.295 77.5437 818.97 77.2184 818.568 77.2184H794.594C794.193 77.2184 793.868 77.5437 793.868 77.9449C793.868 78.3461 794.193 78.6714 794.594 78.6714Z" fill="white"/>
<path d="M794.594 62.8706H818.568C818.97 62.8706 819.295 62.5453 819.295 62.1441C819.295 61.7429 818.97 61.4176 818.568 61.4176H794.594C794.193 61.4176 793.868 61.7429 793.868 62.1441C793.868 62.5453 794.193 62.8706 794.594 62.8706Z" fill="white"/>
<path d="M794.594 94.1094H818.568C818.97 94.1094 819.295 93.7841 819.295 93.3829C819.295 92.9817 818.97 92.6564 818.568 92.6564H794.594C794.193 92.6564 793.868 92.9817 793.868 93.3829C793.868 93.7841 794.193 94.1094 794.594 94.1094Z" fill="white"/>
<path d="M794.594 109.548H818.568C818.97 109.548 819.295 109.223 819.295 108.822C819.295 108.421 818.97 108.095 818.568 108.095H794.594C794.193 108.095 793.868 108.421 793.868 108.822C793.868 109.223 794.193 109.548 794.594 109.548Z" fill="white"/>
<path d="M782.607 81.9418C786.331 68.5622 794.504 41.8032 818.387 41.8032C842.27 41.8032 863.339 106.552 896.303 106.552C920.277 106.552 931.629 85.7255 934.262 75.3126" stroke="#FF952F" stroke-width="1.45298" stroke-linecap="round" stroke-dasharray="2.91 2.91"/>
<path d="M802.949 39.351L812.666 49.1586L851.533 33.2666L802.949 39.351Z" fill="white" stroke="#0C38B7" stroke-width="0.544868" stroke-linejoin="round"/>
<path d="M815.481 62.1446L812.666 49.1586L851.533 33.2666L815.481 62.1446Z" fill="white" stroke="#0C38B7" stroke-width="0.544868" stroke-linejoin="round"/>
<path d="M815.48 62.1446L819.476 51.2472L851.533 33.2666L815.48 62.1446Z" fill="white" stroke="#0C38B7" stroke-width="0.544868" stroke-linejoin="round"/>
<path d="M835.913 58.2397L819.477 51.1564L851.533 33.2666L835.913 58.2397Z" fill="white" stroke="#0C38B7" stroke-width="0.544868" stroke-linejoin="round"/>
<path fill-rule="evenodd" clip-rule="evenodd" d="M880.738 95.8929C881.686 96.803 881.686 98.3177 880.738 99.2279L866.333 113.075C864.862 114.487 862.418 113.446 862.418 111.407V105.135H820.993C820.457 105.135 820.021 104.7 820.021 104.164V90.9404C820.021 90.4039 820.457 89.9689 820.993 89.9689H862.418V83.7133C862.418 81.6749 864.862 80.6333 866.333 82.046L880.738 95.8929Z" fill="#1843BF"/>
<path d="M816.288 89.874H813.539C813.037 89.874 812.631 90.2806 812.631 90.7821V104.182C812.631 104.683 813.037 105.09 813.539 105.09H816.288C816.789 105.09 817.196 104.683 817.196 104.182V90.7821C817.196 90.2806 816.789 89.874 816.288 89.874Z" fill="#1843BF"/>
<path d="M809.33 89.874H806.582C806.08 89.874 805.674 90.2806 805.674 90.7821V104.182C805.674 104.683 806.08 105.09 806.582 105.09H809.33C809.832 105.09 810.239 104.683 810.239 104.182V90.7821C810.239 90.2806 809.832 89.874 809.33 89.874Z" fill="#1843BF"/>
<path fill-rule="evenodd" clip-rule="evenodd" d="M877.414 61.4916C877.414 70.4917 882.156 77.7877 888.006 77.7877C888.086 77.7877 888.164 77.7864 888.242 77.7838V77.7877H894.834V73.9529C897.136 70.9636 898.6 66.4904 898.6 61.4916C898.6 56.4926 897.136 52.0194 894.834 49.0301V45.1953H888.242V45.1991C888.164 45.1966 888.086 45.1953 888.006 45.1953C882.156 45.1953 877.414 52.4913 877.414 61.4916Z" fill="#0C39AC"/>
<path d="M884.007 61.4915C884.007 70.4917 888.75 77.7878 894.6 77.7878C900.451 77.7878 905.193 70.4917 905.193 61.4915C905.193 52.4913 900.451 45.1953 894.6 45.1953C888.75 45.1953 884.007 52.4913 884.007 61.4915Z" fill="#1844BF"/>
<path fill-rule="evenodd" clip-rule="evenodd" d="M896.682 61.4916C896.682 70.4917 901.424 77.7877 907.276 77.7877C907.354 77.7877 907.432 77.7864 907.51 77.7838V77.7877H914.101V73.9529C916.404 70.9636 917.868 66.4904 917.868 61.4916C917.868 56.4926 916.404 52.0196 914.101 49.0301V45.1953H907.51V45.1991C907.432 45.1966 907.354 45.1953 907.276 45.1953C901.424 45.1953 896.682 52.4913 896.682 61.4916Z" fill="#F18721"/>
<path d="M903.273 61.4915C903.273 70.4917 908.016 77.7878 913.866 77.7878C919.716 77.7878 924.459 70.4917 924.459 61.4915C924.459 52.4913 919.716 45.1953 913.866 45.1953C908.016 45.1953 903.273 52.4913 903.273 61.4915Z" fill="#FF952F"/>
<path fill-rule="evenodd" clip-rule="evenodd" d="M915.945 61.4916C915.945 70.4917 920.689 77.7877 926.539 77.7877C926.617 77.7877 926.696 77.7864 926.775 77.7838V77.7877H933.367V73.9529C935.67 70.9636 937.132 66.4904 937.132 61.4916C937.132 56.4926 935.67 52.0194 933.367 49.0301V45.1953H926.775V45.1991C926.696 45.1966 926.617 45.1953 926.539 45.1953C920.689 45.1953 915.945 52.4913 915.945 61.4916Z" fill="#CAD8E5"/>
<path d="M922.537 61.4915C922.537 70.4917 927.279 77.7878 933.13 77.7878C938.98 77.7878 943.723 70.4917 943.723 61.4915C943.723 52.4913 938.98 45.1953 933.13 45.1953C927.279 45.1953 922.537 52.4913 922.537 61.4915Z" fill="#E2EBF4"/>
</g>
<defs>
<clipPath id="clip0_6261_22884">
<rect width="1199.94" height="139" fill="white" transform="translate(0.0302734)"/>
</clipPath>
</defs>
</svg>
