<svg width="71" height="71" viewBox="0 0 71 71" fill="none" xmlns="http://www.w3.org/2000/svg">
<g clip-path="url(#clip0_7472_39088)">
<path d="M2.8343 40.9648C10.1882 29.7065 9.40652 18.1623 12.9512 12.7373C16.496 7.31229 27.0601 -2.04633 52.021 14.2578C76.9818 30.562 70.6332 48.2856 66.7326 54.2531C48.4782 82.1987 -10.1915 60.907 2.8343 40.9648Z" fill="#EFEFEF"/>
<path d="M5.73828 7.86816L7.11321 6.49323L9.86307 9.24309L8.48814 10.618L5.73828 7.86816Z" fill="#A4AFC1"/>
<path d="M13.6445 8.90039L16.3944 6.15053L17.7693 7.52546L15.0195 10.2753L13.6445 8.90039Z" fill="#A4AFC1"/>
<path d="M5.39453 17.1484L8.14439 14.3986L9.51932 15.7735L6.76946 18.5234L5.39453 17.1484Z" fill="#A4AFC1"/>
<path d="M53.9718 25.1953C45.4026 31.6217 40.3607 41.7075 40.3607 52.4175V53.8759V52.9036C40.3607 55.5889 38.1848 57.7648 35.4996 57.7648C32.8143 57.7648 30.6385 55.5889 30.6385 52.9036V53.8759V52.4175C30.6385 41.7075 25.5965 31.6217 17.0273 25.1953H53.9718Z" fill="#FEB46D"/>
<path d="M35.5017 28.598C47.8514 28.598 57.8628 25.1158 57.8628 20.8203C57.8628 16.5247 47.8514 13.0425 35.5017 13.0425C23.152 13.0425 13.1406 16.5247 13.1406 20.8203C13.1406 25.1158 23.152 28.598 35.5017 28.598Z" fill="#F3F3F1"/>
<path d="M34.5273 52.9036V52.4175C34.5273 41.7075 29.4854 31.6217 20.9162 25.1953H17.0273C25.5965 31.6217 30.6385 41.7075 30.6385 52.4175V52.9036C30.6385 55.5889 32.8143 57.7648 35.4996 57.7648C36.1918 57.7648 36.8471 57.615 37.444 57.3545C35.729 56.6039 34.5273 54.8967 34.5273 52.9036Z" fill="#FF6600"/>
<path d="M17.0295 20.8203C17.0295 16.7525 26.009 13.4197 37.4462 13.0775C36.8045 13.058 36.159 13.0425 35.5017 13.0425C23.1526 13.0425 13.1406 16.525 13.1406 20.8203C13.1406 25.1155 23.1526 28.598 35.5017 28.598C36.159 28.598 36.8045 28.5825 37.4462 28.563C26.009 28.2208 17.0295 24.888 17.0295 20.8203Z" fill="#D5DBE1"/>
<path d="M35.5013 29.5703C23.9066 29.5703 12.168 26.5642 12.168 20.8203C12.168 15.0764 23.9066 12.0703 35.5013 12.0703C47.096 12.0703 58.8346 15.0764 58.8346 20.8203C58.8346 26.5642 47.096 29.5703 35.5013 29.5703ZM35.5013 14.987C23.0394 14.987 15.0846 18.4423 15.0846 20.8203C15.0846 23.1984 23.0394 26.6536 35.5013 26.6536C47.9632 26.6536 55.918 23.1984 55.918 20.8203C55.918 18.4423 47.9632 14.987 35.5013 14.987Z" fill="black"/>
<path d="M54.3014 25.9926C54.0622 25.9926 53.8211 25.9343 53.5975 25.8098C50.2569 23.9606 43.1539 22.7648 35.5006 22.7648C27.8472 22.7648 20.7442 23.9606 17.4036 25.8098C16.6978 26.1987 15.8131 25.944 15.4203 25.2401C15.0314 24.5362 15.2861 23.6476 15.99 23.2568C19.7894 21.1548 27.2658 19.8481 35.5006 19.8481C43.7353 19.8481 51.2117 21.1548 55.0092 23.2587C55.7131 23.6495 55.9678 24.5362 55.5789 25.242C55.3125 25.7223 54.8167 25.9926 54.3014 25.9926Z" fill="black"/>
<path d="M35.5008 43.1815C33.2842 43.1815 31.0928 43.0668 28.9869 42.8431C28.1878 42.7576 27.6064 42.0381 27.6919 41.239C27.7756 40.4379 28.4697 39.8526 29.2981 39.944C33.3017 40.3718 37.6981 40.3718 41.7017 39.944C42.5261 39.8623 43.2222 40.4398 43.3078 41.239C43.3933 42.0401 42.8119 42.7576 42.0128 42.8431C39.9089 43.0668 37.7175 43.1815 35.5008 43.1815Z" fill="black"/>
<path d="M35.4993 50.9592C33.8757 50.9592 32.2988 50.8989 30.8151 50.7803C30.0121 50.7161 29.4132 50.0122 29.4774 49.2092C29.5435 48.4061 30.2551 47.8286 31.0485 47.8714C33.866 48.0969 37.1365 48.0969 39.954 47.8714C40.759 47.8286 41.4571 48.4042 41.5251 49.2092C41.5874 50.0122 40.9904 50.7142 40.1874 50.7803C38.6999 50.8989 37.1229 50.9592 35.4993 50.9592Z" fill="black"/>
<path d="M35.5018 35.4037C31.6557 35.4037 27.8913 35.0731 24.611 34.4451C23.8196 34.2934 23.3004 33.5293 23.4521 32.7379C23.6018 31.9465 24.3796 31.4331 25.1574 31.579C31.3621 32.767 39.6377 32.767 45.8443 31.579C46.6182 31.4312 47.3999 31.9465 47.5496 32.7379C47.7013 33.5293 47.184 34.2934 46.3907 34.4451C43.1124 35.0731 39.3479 35.4037 35.5018 35.4037Z" fill="black"/>
<path d="M40.8508 29.0844C40.773 29.0844 40.6952 29.0786 40.6155 29.0649C39.8222 28.9366 39.2797 28.188 39.4099 27.3927L40.0516 23.4241C40.668 19.6208 42.4394 16.1772 45.1694 13.4647C45.7411 12.8988 46.6647 12.8988 47.2324 13.4705C47.8002 14.0422 47.7963 14.9658 47.2247 15.5336C44.9341 17.8086 43.4505 20.698 42.9313 23.8888L42.2897 27.8555C42.173 28.5749 41.5527 29.0844 40.8508 29.0844Z" fill="black"/>
<path d="M30.1508 29.0844C29.4488 29.0844 28.8286 28.575 28.7138 27.8594L28.0722 23.8908C27.553 20.7 26.0694 17.8125 23.7788 15.5355C23.2072 14.9677 23.2033 14.0441 23.7711 13.4725C24.3388 12.9008 25.2625 12.9008 25.8341 13.4666C28.5641 16.1791 30.3336 19.6227 30.9519 23.4261L31.5936 27.3947C31.7219 28.1899 31.1813 28.9386 30.388 29.0669C30.3063 29.0786 30.2286 29.0844 30.1508 29.0844Z" fill="black"/>
<path d="M35.9872 58.7373H35.0149C32.0652 58.7373 29.6677 56.3398 29.6677 53.39V53.0984C29.6677 42.472 24.6122 32.2928 16.148 25.8723C15.5063 25.3862 15.3799 24.4703 15.866 23.8287C16.3522 23.187 17.266 23.0606 17.9097 23.5467C27.0991 30.5175 32.5844 41.5639 32.5844 53.0984V53.39C32.5844 54.7298 33.6752 55.8206 35.0149 55.8206H35.9872C37.3269 55.8206 38.4177 54.7298 38.4177 53.39V53.0984C38.4177 41.5639 43.903 30.5175 53.0924 23.5467C53.7399 23.0606 54.6499 23.187 55.1361 23.8287C55.6222 24.4703 55.4977 25.3842 54.8541 25.8723C46.3899 32.2928 41.3344 42.472 41.3344 53.0984V53.39C41.3344 56.3398 38.9369 58.7373 35.9872 58.7373Z" fill="black"/>
</g>
<defs>
<clipPath id="clip0_7472_39088">
<rect width="70" height="70" fill="white" transform="translate(0.5 0.403809)"/>
</clipPath>
</defs>
</svg>
