<svg width="70" height="70" viewBox="0 0 70 70" fill="none" xmlns="http://www.w3.org/2000/svg">
<path d="M16.2889 8.10269C29.7386 8.10269 38.9747 1.13574 45.4555 1.13574C51.9364 1.13574 65.5475 4.8613 65.5475 34.6755C65.5475 64.4896 47.2367 68.8646 40.1083 68.8646C6.72805 68.8666 -7.53057 8.10269 16.2889 8.10269Z" fill="#EFEFEF"/>
<path d="M54.25 5.08008L55.6249 3.70515L58.3748 6.45501L56.9999 7.82994L54.25 5.08008Z" fill="#A4AFC1"/>
<path d="M62.1543 12.9839L63.5292 11.609L66.2791 14.3588L64.9042 15.7337L62.1543 12.9839Z" fill="#A4AFC1"/>
<path d="M61.8164 6.46338L64.5663 3.71352L65.9412 5.08845L63.1913 7.83831L61.8164 6.46338Z" fill="#A4AFC1"/>
<path d="M53.4731 19.9306C55.3524 19.9306 56.8759 18.4071 56.8759 16.5278C56.8759 14.6485 55.3524 13.125 53.4731 13.125C51.5938 13.125 50.0703 14.6485 50.0703 16.5278C50.0703 18.4071 51.5938 19.9306 53.4731 19.9306Z" fill="#F3F3F1"/>
<path d="M16.5278 19.9306C18.4071 19.9306 19.9306 18.4071 19.9306 16.5278C19.9306 14.6485 18.4071 13.125 16.5278 13.125C14.6485 13.125 13.125 14.6485 13.125 16.5278C13.125 18.4071 14.6485 19.9306 16.5278 19.9306Z" fill="#F3F3F1"/>
<path d="M53.4731 56.8749C55.3524 56.8749 56.8759 55.3514 56.8759 53.4721C56.8759 51.5928 55.3524 50.0693 53.4731 50.0693C51.5938 50.0693 50.0703 51.5928 50.0703 53.4721C50.0703 55.3514 51.5938 56.8749 53.4731 56.8749Z" fill="#F3F3F1"/>
<path d="M16.5278 56.8749C18.4071 56.8749 19.9306 55.3514 19.9306 53.4721C19.9306 51.5928 18.4071 50.0693 16.5278 50.0693C14.6485 50.0693 13.125 51.5928 13.125 53.4721C13.125 55.3514 14.6485 56.8749 16.5278 56.8749Z" fill="#F3F3F1"/>
<path d="M35.0004 47.1527C41.7122 47.1527 47.1532 41.7117 47.1532 34.9999C47.1532 28.2882 41.7122 22.8472 35.0004 22.8472C28.2886 22.8472 22.8477 28.2882 22.8477 34.9999C22.8477 41.7117 28.2886 47.1527 35.0004 47.1527Z" fill="white"/>
<path d="M32.006 23.2363C26.7365 24.5586 22.8477 29.3224 22.8477 35.0002C22.8477 36.5752 23.1393 38.0724 23.7032 39.453H24.7532C25.6282 39.453 26.4254 39.103 27.0088 38.5391C27.5727 37.9558 27.9421 37.178 27.9615 36.303C27.9615 35.5058 28.2338 34.7863 28.7199 34.203C29.1865 33.6197 29.8477 33.1919 30.6254 33.0363C32.6088 32.6086 34.0282 30.8586 34.0282 28.8363V27.6697C34.0282 25.9585 33.2699 24.3447 32.006 23.2363Z" fill="#FEB46D"/>
<path d="M46.3759 35.8553C46.0648 35.6803 45.7342 35.6025 45.4036 35.6025C44.7814 35.6025 44.1981 35.8942 43.8481 36.4387C43.1286 37.4692 41.787 37.897 40.6009 37.4303L39.9786 37.1775C39.4148 36.9637 38.8314 36.847 38.2481 36.847C37.0425 36.847 35.8564 37.3137 34.962 38.2081C33.0953 40.0942 32.9398 43.0886 34.612 45.1498L36.2064 47.0942C41.9231 46.5303 46.4925 41.9998 47.0953 36.2831L46.3759 35.8553Z" fill="#FEB46D"/>
<path d="M46.5117 31.1306C45.3644 27.6695 42.7006 24.9279 39.2978 23.6445C38.8117 25.6473 39.1422 27.7668 40.1922 29.5556C40.9311 30.7612 42.2144 31.4806 43.595 31.4806C43.77 31.4806 43.9256 31.4612 44.1006 31.4418L46.5311 31.1501L46.5117 31.1306Z" fill="#FEB46D"/>
<path d="M54.4453 16.5278C54.4453 15.4856 54.9236 14.5658 55.6606 13.9417C55.0675 13.44 54.3111 13.125 53.4731 13.125C51.5948 13.125 50.0703 14.6494 50.0703 16.5278C50.0703 18.4061 51.5948 19.9306 53.4731 19.9306C54.3111 19.9306 55.0675 19.6156 55.6606 19.1139C54.9236 18.4897 54.4453 17.57 54.4453 16.5278Z" fill="#D5DBE1"/>
<path d="M17.5 16.5278C17.5 15.4856 17.9783 14.5658 18.7153 13.9417C18.1222 13.44 17.3658 13.125 16.5278 13.125C14.6494 13.125 13.125 14.6494 13.125 16.5278C13.125 18.4061 14.6494 19.9306 16.5278 19.9306C17.3658 19.9306 18.1222 19.6156 18.7153 19.1139C17.9783 18.4897 17.5 17.57 17.5 16.5278Z" fill="#D5DBE1"/>
<path d="M54.4453 53.4721C54.4453 52.4299 54.9236 51.5102 55.6606 50.886C55.0675 50.3843 54.3111 50.0693 53.4731 50.0693C51.5948 50.0693 50.0703 51.5938 50.0703 53.4721C50.0703 55.3504 51.5948 56.8749 53.4731 56.8749C54.3111 56.8749 55.0675 56.5599 55.6606 56.0582C54.9236 55.4341 54.4453 54.5143 54.4453 53.4721Z" fill="#D5DBE1"/>
<path d="M17.5 53.4721C17.5 52.4299 17.9783 51.5102 18.7153 50.886C18.1222 50.3843 17.3658 50.0693 16.5278 50.0693C14.6494 50.0693 13.125 51.5938 13.125 53.4721C13.125 55.3504 14.6494 56.8749 16.5278 56.8749C17.3658 56.8749 18.1222 56.5599 18.7153 56.0582C17.9783 55.4341 17.5 54.5143 17.5 53.4721Z" fill="#D5DBE1"/>
<path d="M27.2227 34.9999C27.2227 29.0363 31.5218 24.0858 37.1879 23.0533C36.4782 22.9249 35.749 22.8472 35.0004 22.8472C28.2882 22.8472 22.8477 28.2877 22.8477 34.9999C22.8477 41.7122 28.2882 47.1527 35.0004 47.1527C35.749 47.1527 36.4782 47.0749 37.1879 46.9466C31.5218 45.9141 27.2227 40.9636 27.2227 34.9999Z" fill="#D5DBE1"/>
<path d="M27.2227 35.0002C27.2227 30.5786 29.5968 26.7363 33.1279 24.6169C32.8168 24.1094 32.4571 23.633 32.006 23.2363C26.7365 24.5586 22.8477 29.3224 22.8477 35.0002C22.8477 36.5752 23.1393 38.0724 23.7032 39.453H24.7532C25.6282 39.453 26.4254 39.103 27.0088 38.5391C27.2343 38.3058 27.4171 38.0335 27.5707 37.7438C27.3627 36.8591 27.2227 35.9511 27.2227 35.0002Z" fill="#FF6600"/>
<path d="M38.987 45.1499C37.3148 43.0888 37.4703 40.0944 39.337 38.2083C39.6811 37.8641 40.0798 37.6036 40.4939 37.3877L39.9786 37.1777C39.4148 36.9638 38.8314 36.8472 38.2481 36.8472C37.0425 36.8472 35.8564 37.3138 34.962 38.2083C33.0953 40.0944 32.9398 43.0888 34.612 45.1499L36.2064 47.0944C37.4742 46.9699 38.672 46.6219 39.7959 46.1358L38.987 45.1499Z" fill="#FF6600"/>
<path d="M44.5672 29.5556C43.9878 28.5679 43.6514 27.477 43.5269 26.3629C42.3331 25.1884 40.9019 24.2493 39.2978 23.6445C38.8117 25.6473 39.1422 27.7668 40.1922 29.5556C40.9311 30.7612 42.2144 31.4806 43.595 31.4806C43.77 31.4806 43.9256 31.4612 44.1006 31.4418L46.4844 31.1559C45.7106 30.839 45.0261 30.3062 44.5672 29.5556Z" fill="#FF6600"/>
<path d="M42.9043 44.9795L44.9667 42.9171L51.7533 49.7037L49.6909 51.7661L42.9043 44.9795Z" fill="black"/>
<path d="M18.2324 20.3027L20.2948 18.2403L27.0815 25.027L25.0191 27.0894L18.2324 20.3027Z" fill="black"/>
<path d="M42.9062 25.0264L49.6929 18.2397L51.7553 20.3021L44.9686 27.0888L42.9062 25.0264Z" fill="black"/>
<path d="M18.2305 49.6968L25.0171 42.9101L27.0795 44.9725L20.2929 51.7592L18.2305 49.6968Z" fill="black"/>
<path d="M53.4724 21.3887C50.7911 21.3887 48.6113 19.2071 48.6113 16.5276C48.6113 13.8482 50.7911 11.6665 53.4724 11.6665C56.1538 11.6665 58.3336 13.8482 58.3336 16.5276C58.3336 19.2071 56.1538 21.3887 53.4724 21.3887ZM53.4724 14.5832C52.3991 14.5832 51.528 15.4562 51.528 16.5276C51.528 17.599 52.3991 18.4721 53.4724 18.4721C54.5458 18.4721 55.4169 17.599 55.4169 16.5276C55.4169 15.4562 54.5458 14.5832 53.4724 14.5832Z" fill="black"/>
<path d="M16.5271 21.3887C13.8457 21.3887 11.666 19.2071 11.666 16.5276C11.666 13.8482 13.8457 11.6665 16.5271 11.6665C19.2085 11.6665 21.3882 13.8482 21.3882 16.5276C21.3882 19.2071 19.2085 21.3887 16.5271 21.3887ZM16.5271 14.5832C15.4538 14.5832 14.5827 15.4562 14.5827 16.5276C14.5827 17.599 15.4538 18.4721 16.5271 18.4721C17.6005 18.4721 18.4716 17.599 18.4716 16.5276C18.4716 15.4562 17.6005 14.5832 16.5271 14.5832Z" fill="black"/>
<path d="M53.4724 58.3336C50.7911 58.3336 48.6113 56.1519 48.6113 53.4724C48.6113 50.793 50.7911 48.6113 53.4724 48.6113C56.1538 48.6113 58.3336 50.793 58.3336 53.4724C58.3336 56.1519 56.1538 58.3336 53.4724 58.3336ZM53.4724 51.528C52.3991 51.528 51.528 52.4011 51.528 53.4724C51.528 54.5438 52.3991 55.4169 53.4724 55.4169C54.5458 55.4169 55.4169 54.5438 55.4169 53.4724C55.4169 52.4011 54.5458 51.528 53.4724 51.528Z" fill="black"/>
<path d="M16.5271 58.3336C13.8457 58.3336 11.666 56.1519 11.666 53.4724C11.666 50.793 13.8457 48.6113 16.5271 48.6113C19.2085 48.6113 21.3882 50.793 21.3882 53.4724C21.3882 56.1519 19.2085 58.3336 16.5271 58.3336ZM16.5271 51.528C15.4538 51.528 14.5827 52.4011 14.5827 53.4724C14.5827 54.5438 15.4538 55.4169 16.5271 55.4169C17.6005 55.4169 18.4716 54.5438 18.4716 53.4724C18.4716 52.4011 17.6005 51.528 16.5271 51.528Z" fill="black"/>
<path d="M34.9998 48.6109C27.4962 48.6109 21.3887 42.5053 21.3887 34.9998C21.3887 27.4942 27.4962 21.3887 34.9998 21.3887C42.5034 21.3887 48.6109 27.4942 48.6109 34.9998C48.6109 42.5053 42.5034 48.6109 34.9998 48.6109ZM34.9998 24.3053C29.1042 24.3053 24.3053 29.1023 24.3053 34.9998C24.3053 40.8973 29.1042 45.6942 34.9998 45.6942C40.8953 45.6942 45.6942 40.8973 45.6942 34.9998C45.6942 29.1023 40.8953 24.3053 34.9998 24.3053Z" fill="black"/>
<path d="M24.7531 40.9113H23.7031V37.9947H24.7531C25.7117 37.9947 26.4817 37.2363 26.5012 36.2699C26.5012 34.0241 28.1151 32.0505 30.3395 31.6072C31.724 31.3077 32.2781 30.248 32.494 29.4119C32.9509 27.6444 32.3287 25.4608 31.0434 24.3349L32.9645 22.1416C35.0898 24.0044 36.0562 27.2944 35.3173 30.1449C34.7281 32.416 33.1298 33.991 30.9306 34.4635C30.0595 34.6385 29.4178 35.428 29.4178 36.3049C29.3634 38.9008 27.314 40.9113 24.7531 40.9113Z" fill="black"/>
<path d="M35.078 48.0201L33.4836 46.0756C31.3369 43.4254 31.5275 39.6045 33.9269 37.1818C36.4411 34.6695 38.8911 35.3715 40.5147 35.8381C42.01 36.264 42.2083 36.2426 42.6536 35.6048C43.2311 34.7065 44.2714 34.1445 45.405 34.1445C46.4044 34.1445 47.0655 34.5529 47.6003 34.8815L47.8433 35.0293L46.35 37.5356L46.0661 37.3645C45.6383 37.1001 45.5528 37.0612 45.403 37.0612C45.2572 37.0612 45.1444 37.1176 45.0744 37.2284C43.3575 39.6881 41.1642 39.0562 39.7097 38.6401C38.2514 38.224 37.2908 37.9459 35.9939 39.239C34.6503 40.5962 34.5394 42.7448 35.745 44.2323L37.3336 46.1709L35.078 48.0201Z" fill="black"/>
<path d="M43.6045 32.9272C42.0198 32.9272 40.5945 32.2817 39.529 31.0722C37.8704 29.1881 37.2093 26.0653 37.8801 23.3003L40.7132 23.9886C40.2698 25.8125 40.6937 27.9806 41.7184 29.1453C42.3095 29.8161 43.0407 30.0903 43.939 29.9931L46.3579 29.7033L46.704 32.5986L44.2734 32.8903C44.0479 32.9156 43.8243 32.9272 43.6045 32.9272Z" fill="black"/>
</svg>
