<svg width="70" height="70" viewBox="0 0 70 70" fill="none" xmlns="http://www.w3.org/2000/svg">
<path d="M8.10171 53.7113C8.10171 40.2615 1.13477 31.0254 1.13477 24.5446C1.13477 18.0637 4.86032 4.45264 34.6745 4.45264C64.4887 4.45264 68.8637 22.7635 68.8637 29.8918C68.8656 63.2721 8.10171 77.5307 8.10171 53.7113Z" fill="#EFEFEF"/>
<path d="M50.3672 8.97461L51.7421 7.59968L54.492 10.3495L53.117 11.7245L50.3672 8.97461Z" fill="#A4AFC1"/>
<path d="M58.2715 16.8809L59.6464 15.5059L62.3963 18.2558L61.0213 19.6307L58.2715 16.8809Z" fill="#A4AFC1"/>
<path d="M57.9277 10.3506L60.6776 7.60073L62.0525 8.97566L59.3027 11.7255L57.9277 10.3506Z" fill="#A4AFC1"/>
<path d="M47.1532 45.2083V43.4156C47.1532 42.385 46.7429 41.3953 46.0138 40.6661L41.3199 35.9722V23.6639C41.3199 21.8769 40.7054 20.1464 39.5777 18.76L35.0004 13.125L30.4232 18.76C29.2974 20.1464 28.681 21.8789 28.681 23.6639V35.9722L23.9871 40.6661C23.2579 41.3953 22.8477 42.385 22.8477 43.4156V45.2083H47.1532Z" fill="#FEB46D"/>
<path d="M28.3621 40.6661L33.056 35.9722V23.6639C33.056 21.8769 33.6704 20.1464 34.7982 18.76L37.1879 15.8181L35.0004 13.125L30.4232 18.76C29.2974 20.1464 28.681 21.8789 28.681 23.6639V35.9722L23.9871 40.6661C23.2579 41.3953 22.8477 42.385 22.8477 43.4156V45.2083H27.2227V43.4156C27.2227 42.385 27.6329 41.3953 28.3621 40.6661Z" fill="#FF6600"/>
<path d="M53.3842 50.814L51.502 48.5857C52.9661 47.349 54.8756 46.6665 56.8745 46.6665V49.5832C55.5814 49.5832 54.3097 50.0304 53.3842 50.814Z" fill="black"/>
<path d="M16.6153 50.814C15.6897 50.0304 14.4181 49.5832 13.125 49.5832V46.6665C15.1239 46.6665 17.0333 47.349 18.4975 48.5837L16.6153 50.814Z" fill="black"/>
<path d="M18.132 55.9746L15.7637 54.2732C17.6128 51.7026 20.7142 50.1665 24.0626 50.1665C27.022 50.1665 29.8103 51.376 31.7081 53.4837L29.542 55.436C28.1945 53.9407 26.1976 53.0832 24.0626 53.0832C21.6514 53.0832 19.4348 54.1623 18.132 55.9746Z" fill="black"/>
<path d="M51.8671 55.9746C50.5663 54.1623 48.3477 53.0832 45.9366 53.0832C43.8016 53.0832 41.8046 53.9407 40.4571 55.436L38.291 53.4837C40.1907 51.376 42.9771 50.1665 45.9366 50.1665C49.2849 50.1665 52.3863 51.7026 54.2355 54.2732L51.8671 55.9746Z" fill="black"/>
<path d="M39.2737 57.7518C38.3131 56.4723 36.7148 55.7082 34.9998 55.7082C33.2848 55.7082 31.6865 56.4723 30.7259 57.7518L28.3945 55.9979C29.9054 53.9912 32.3748 52.7935 34.9998 52.7935C37.6248 52.7935 40.0962 53.9912 41.6051 55.9979L39.2737 57.7518Z" fill="black"/>
<path d="M47.1526 46.6666H22.847C22.042 46.6666 21.3887 46.0133 21.3887 45.2083V43.4155C21.3887 41.9883 21.9448 40.6447 22.9559 39.6355L27.222 35.3674V23.6619C27.222 21.5483 27.9551 19.4794 29.2889 17.8383L33.8662 12.2033C34.4203 11.5208 35.5753 11.5208 36.1295 12.2033L40.7067 17.8383C42.0445 19.4813 42.7776 21.5502 42.7776 23.6638V27.2222H39.8609V23.6638C39.8609 22.2172 39.3592 20.8016 38.4453 19.6797L34.9998 15.4369L31.5542 19.6797C30.6423 20.8016 30.1387 22.2172 30.1387 23.6638V35.9722C30.1387 36.3591 29.9851 36.7305 29.7109 37.0027L25.017 41.6966C24.564 42.1477 24.3053 42.7758 24.3053 43.4155V43.7499H45.6942V43.4155C45.6942 42.7758 45.4356 42.1497 44.9826 41.6966L40.2887 37.0027C40.0145 36.7286 39.8609 36.3572 39.8609 35.9722V31.1111H42.7776V35.3674L47.0437 39.6336C48.0548 40.6447 48.6109 41.9863 48.6109 43.4136V45.2063C48.6109 46.0133 47.9576 46.6666 47.1526 46.6666Z" fill="black"/>
<path d="M42.291 43.75H45.2077V48.6111H42.291V43.75Z" fill="black"/>
<path d="M24.791 43.75H27.7077V48.6111H24.791V43.75Z" fill="black"/>
<path d="M17.9863 24.3057H20.903V29.1668H17.9863V24.3057Z" fill="black"/>
<path d="M19.6866 27.2223H15.5547V24.3057H19.6866C20.0891 24.3057 20.4158 23.979 20.4158 23.5765C20.4158 23.174 20.0891 22.8473 19.6866 22.8473H19.2005C17.19 22.8473 15.5547 21.2121 15.5547 19.2015C15.5547 17.1909 17.19 15.5557 19.2005 15.5557H23.3325V18.4723H19.2005C18.798 18.4723 18.4714 18.799 18.4714 19.2015C18.4714 19.604 18.798 19.9307 19.2005 19.9307H19.6866C21.6972 19.9307 23.3325 21.5659 23.3325 23.5765C23.3325 25.5871 21.6972 27.2223 19.6866 27.2223Z" fill="black"/>
<path d="M17.9863 13.6113H20.903V18.4724H17.9863V13.6113Z" fill="black"/>
<path d="M52.9863 35.9722H55.903V40.8333H52.9863V35.9722Z" fill="black"/>
<path d="M54.6866 38.8888H50.5547V35.9722H54.6866C55.0891 35.9722 55.4158 35.6455 55.4158 35.243C55.4158 34.8405 55.0891 34.5138 54.6866 34.5138H54.2005C52.19 34.5138 50.5547 32.8786 50.5547 30.868C50.5547 28.8574 52.19 27.2222 54.2005 27.2222H58.3325V30.1388H54.2005C53.798 30.1388 53.4714 30.4655 53.4714 30.868C53.4714 31.2705 53.798 31.5972 54.2005 31.5972H54.6866C56.6972 31.5972 58.3325 33.2324 58.3325 35.243C58.3325 37.2536 56.6972 38.8888 54.6866 38.8888Z" fill="black"/>
<path d="M52.9863 25.2778H55.903V30.1389H52.9863V25.2778Z" fill="black"/>
</svg>
