<svg width="70" height="71" viewBox="0 0 70 71" fill="none" xmlns="http://www.w3.org/2000/svg">
<path d="M53.7117 8.87222C40.262 8.87222 31.0259 1.90527 24.5451 1.90527C18.0642 1.90527 4.45312 5.63083 4.45312 35.445C4.45312 65.2592 22.764 69.6342 29.8923 69.6342C63.2726 69.6361 77.5312 8.87222 53.7117 8.87222Z" fill="#EFEFEF"/>
<path d="M6.80729 12.4364C5.19924 12.4364 3.89062 11.1277 3.89062 9.51969C3.89062 7.91164 5.19924 6.60303 6.80729 6.60303C8.41535 6.60303 9.72396 7.91164 9.72396 9.51969C9.72396 11.1277 8.41535 12.4364 6.80729 12.4364ZM6.80729 8.54747C6.27063 8.54747 5.83507 8.98303 5.83507 9.51969C5.83507 10.0564 6.27063 10.4919 6.80729 10.4919C7.34396 10.4919 7.77951 10.0564 7.77951 9.51969C7.77951 8.98303 7.34396 8.54747 6.80729 8.54747Z" fill="#A4AFC1"/>
<path d="M41.3194 57.6445H15.0694C13.9961 57.6445 13.125 56.7734 13.125 55.7001V50.839C13.125 49.7656 13.9961 48.8945 15.0694 48.8945H41.3194C42.3928 48.8945 43.2639 49.7656 43.2639 50.839V55.7001C43.2639 56.7734 42.3928 57.6445 41.3194 57.6445Z" fill="#F3F3F1"/>
<path d="M41.3194 40.1445H15.0694C13.9961 40.1445 13.125 39.2734 13.125 38.2001V33.339C13.125 32.2656 13.9961 31.3945 15.0694 31.3945H41.3194C42.3928 31.3945 43.2639 32.2656 43.2639 33.339V38.2001C43.2639 39.2734 42.3928 40.1445 41.3194 40.1445Z" fill="#FEB46D"/>
<path d="M41.3194 22.6445H15.0694C13.9961 22.6445 13.125 21.7734 13.125 20.7001V15.839C13.125 14.7656 13.9961 13.8945 15.0694 13.8945H41.3194C42.3928 13.8945 43.2639 14.7656 43.2639 15.839V20.7001C43.2639 21.7734 42.3928 22.6445 41.3194 22.6445Z" fill="#F3F3F1"/>
<path d="M17.5 38.2001V33.339C17.5 32.2656 18.3711 31.3945 19.4444 31.3945H15.0694C13.9961 31.3945 13.125 32.2656 13.125 33.339V38.2001C13.125 39.2734 13.9961 40.1445 15.0694 40.1445H19.4444C18.3711 40.1445 17.5 39.2734 17.5 38.2001Z" fill="#FF6600"/>
<path d="M17.5 55.7001V50.839C17.5 49.7656 18.3711 48.8945 19.4444 48.8945H15.0694C13.9961 48.8945 13.125 49.7656 13.125 50.839V55.7001C13.125 56.7734 13.9961 57.6445 15.0694 57.6445H19.4444C18.3711 57.6445 17.5 56.7734 17.5 55.7001Z" fill="#D5DBE1"/>
<path d="M17.5 20.7001V15.839C17.5 14.7656 18.3711 13.8945 19.4444 13.8945H15.0694C13.9961 13.8945 13.125 14.7656 13.125 15.839V20.7001C13.125 21.7734 13.9961 22.6445 15.0694 22.6445H19.4444C18.3711 22.6445 17.5 21.7734 17.5 20.7001Z" fill="#D5DBE1"/>
<path d="M41.3207 59.1027H15.0707C13.1944 59.1027 11.668 57.5763 11.668 55.6999V50.8388C11.668 48.9624 13.1944 47.436 15.0707 47.436H41.3207C43.1971 47.436 44.7235 48.9624 44.7235 50.8388V55.6999C44.7235 57.5763 43.1971 59.1027 41.3207 59.1027ZM15.0707 50.3527C14.8024 50.3527 14.5846 50.5705 14.5846 50.8388V55.6999C14.5846 55.9683 14.8024 56.186 15.0707 56.186H41.3207C41.5891 56.186 41.8069 55.9683 41.8069 55.6999V50.8388C41.8069 50.5705 41.5891 50.3527 41.3207 50.3527H15.0707Z" fill="black"/>
<path d="M52.9861 54.7277H43.75V51.811H52.9861C54.3258 51.811 55.4167 50.7202 55.4167 49.3805V22.1583C55.4167 20.8185 54.3258 19.7277 52.9861 19.7277H43.75V16.811H52.9861C55.9358 16.811 58.3333 19.2085 58.3333 22.1583V49.3805C58.3333 52.3302 55.9358 54.7277 52.9861 54.7277Z" fill="black"/>
<path d="M43.75 34.311H56.875V37.2277H43.75V34.311Z" fill="black"/>
<path d="M41.3207 41.6027H15.0707C13.1944 41.6027 11.668 40.0763 11.668 38.1999V33.3388C11.668 31.4624 13.1944 29.936 15.0707 29.936H41.3207C43.1971 29.936 44.7235 31.4624 44.7235 33.3388V38.1999C44.7235 40.0763 43.1971 41.6027 41.3207 41.6027ZM15.0707 32.8527C14.8024 32.8527 14.5846 33.0705 14.5846 33.3388V38.1999C14.5846 38.4683 14.8024 38.686 15.0707 38.686H41.3207C41.5891 38.686 41.8069 38.4683 41.8069 38.1999V33.3388C41.8069 33.0705 41.5891 32.8527 41.3207 32.8527H15.0707Z" fill="black"/>
<path d="M41.3207 24.1027H15.0707C13.1944 24.1027 11.668 22.5763 11.668 20.6999V15.8388C11.668 13.9624 13.1944 12.436 15.0707 12.436H41.3207C43.1971 12.436 44.7235 13.9624 44.7235 15.8388V20.6999C44.7235 22.5763 43.1971 24.1027 41.3207 24.1027ZM15.0707 15.3527C14.8024 15.3527 14.5846 15.5705 14.5846 15.8388V20.6999C14.5846 20.9683 14.8024 21.186 15.0707 21.186H41.3207C41.5891 21.186 41.8069 20.9683 41.8069 20.6999V15.8388C41.8069 15.5705 41.5891 15.3527 41.3207 15.3527H15.0707Z" fill="black"/>
</svg>
