<svg width="539" height="394" viewBox="0 0 539 394" fill="none" xmlns="http://www.w3.org/2000/svg">
<path d="M143.789 114.551L344.46 114.551" stroke="#0C38B7" stroke-width="0.374328"/>
<path d="M143.789 116.769L344.46 116.769" stroke="#1844BF" stroke-width="0.374328" stroke-dasharray="3.12 3.12"/>
<path d="M230.866 114.344L226.355 109.833L221.844 114.344L226.355 118.855L230.866 114.344Z" fill="#0C38B7"/>
<path d="M252.123 114.359L244.266 106.501L236.408 114.359L244.266 122.216L252.123 114.359Z" fill="#0C38B7"/>
<path d="M414.773 155.434L414.773 277.38" stroke="#0C38B7" stroke-width="0.374328"/>
<path d="M412.119 155.434L412.119 277.38" stroke="#1844BF" stroke-width="0.374328" stroke-dasharray="3.12 3.12"/>
<path d="M410.778 215.639C412.931 217.792 416.421 217.792 418.574 215.639C420.727 213.486 420.727 209.995 418.574 207.842C416.421 205.69 412.931 205.69 410.778 207.842C408.625 209.995 408.625 213.486 410.778 215.639Z" fill="#0C38B7"/>
<path d="M412.378 229.718C413.669 231.01 415.764 231.01 417.056 229.718C418.347 228.427 418.347 226.332 417.056 225.04C415.764 223.749 413.669 223.749 412.378 225.04C411.086 226.332 411.086 228.427 412.378 229.718Z" fill="#0C38B7"/>
<path d="M413.445 241.121C414.091 241.767 415.138 241.767 415.784 241.121C416.43 240.475 416.43 239.428 415.784 238.782C415.138 238.136 414.091 238.136 413.445 238.782C412.799 239.428 412.799 240.475 413.445 241.121Z" fill="#0C38B7"/>
<path d="M68.8482 152.462C68.8482 151.853 68.3547 151.36 67.7456 151.36H5.8605C4.03351 151.36 2.55273 152.841 2.55273 154.668V195.48C2.55273 197.306 4.03351 198.788 5.8605 198.788H67.7456C68.3547 198.788 68.8482 198.294 68.8482 197.686V152.462Z" fill="#1844BF" stroke="#0C38B7" stroke-width="0.374328"/>
<path d="M9.48828 153.437V196.883" stroke="white" stroke-width="0.374328" stroke-linecap="round"/>
<path d="M7.75 153.437V196.883" stroke="white" stroke-width="0.374328" stroke-linecap="round"/>
<path d="M6.01953 153.437V196.883" stroke="white" stroke-width="0.374328" stroke-linecap="round"/>
<path d="M4.29883 153.437V196.883" stroke="white" stroke-width="0.374328" stroke-linecap="round"/>
<path d="M74.3841 152.462C74.3841 151.853 73.8906 151.36 73.2815 151.36H14.339C12.5122 151.36 11.0312 152.841 11.0312 154.668V195.48C11.0312 197.306 12.5122 198.788 14.339 198.788H73.2815C73.8906 198.788 74.3841 198.294 74.3841 197.686V152.462Z" fill="white" stroke="#0C38B7" stroke-width="0.374328"/>
<path d="M73.5285 155.687H16.2979C15.6891 155.687 15.1953 156.18 15.1953 156.789V193.53C15.1953 194.139 15.6891 194.633 16.2979 194.633H73.5285" stroke="#E2EBF4" stroke-width="0.374328" stroke-linecap="round" stroke-linejoin="round" stroke-dasharray="2.25 2.25"/>
<path d="M1 182.349C1 182.824 1.38525 183.209 1.86046 183.209H24.2814C28.0573 183.209 31.1186 180.148 31.1186 176.372C31.1186 172.596 28.0573 169.535 24.2814 169.535H1.86046C1.38525 169.535 1 169.92 1 170.395V182.349Z" fill="white" stroke="#0C38B7" stroke-width="0.374328" stroke-linecap="round" stroke-linejoin="round"/>
<path d="M9.82812 182.601C9.82812 182.937 10.1005 183.209 10.4365 183.209H24.2815C28.0577 183.209 31.1189 180.148 31.1189 176.372C31.1189 172.596 28.0577 169.535 24.2815 169.535H10.4365C10.1005 169.535 9.82812 169.807 9.82812 170.143V182.601Z" fill="white" stroke="#0C38B7" stroke-width="0.374328" stroke-linecap="round" stroke-linejoin="round"/>
<path d="M23.8545 172.823C25.7664 172.823 27.3164 174.412 27.3164 176.372C27.3164 178.331 25.7664 179.92 23.8545 179.92C21.9426 179.92 20.3926 178.331 20.3926 176.372C20.3926 174.412 21.9426 172.823 23.8545 172.823Z" fill="#FF952E"/>
<path d="M135.519 22.9341H30.7725C30.1636 22.9341 29.6699 23.4277 29.6699 24.0367V126.137C29.6699 126.745 30.1636 127.239 30.7725 127.239H135.519C136.127 127.239 136.621 126.745 136.621 126.137V24.0367C136.621 23.4277 136.127 22.9341 135.519 22.9341Z" stroke="#FF952F" stroke-width="0.374328"/>
<path d="M157.134 19.1455L135.715 8.5815C134.732 8.09666 133.543 8.50052 133.058 9.48355L107.553 61.1956C107.068 62.1786 107.472 63.3686 108.455 63.8534L129.874 74.4175C130.857 74.9023 132.046 74.4985 132.531 73.5154L158.036 21.8034C158.521 20.8203 158.117 19.6304 157.134 19.1455Z" fill="white" stroke="#FF952F" stroke-width="0.374328"/>
<path d="M112.768 61.3515L114.368 62.1409C114.587 62.2486 114.851 62.1588 114.959 61.9404L126.364 38.8158C126.472 38.5973 126.382 38.3329 126.164 38.2251L124.563 37.4358C124.345 37.328 124.08 37.4178 123.972 37.6362L112.567 60.7608C112.459 60.9793 112.549 61.2437 112.768 61.3515Z" fill="white" stroke="#E2EBF4" stroke-width="0.374328"/>
<path d="M117.668 63.7753L119.269 64.5647C119.487 64.6724 119.751 64.5827 119.859 64.3642L133.558 36.5892C133.666 36.3707 133.576 36.1063 133.358 35.9986L131.757 35.2092C131.539 35.1014 131.274 35.1912 131.166 35.4096L117.468 63.1847C117.36 63.4031 117.45 63.6675 117.668 63.7753Z" fill="white" stroke="#E2EBF4" stroke-width="0.374328"/>
<path d="M131.021 20.3068L132.888 21.2273C133.106 21.335 133.371 21.2453 133.478 21.0268L137.741 12.3844C137.849 12.166 137.759 11.9016 137.54 11.7938L135.674 10.8734C135.456 10.7656 135.191 10.8554 135.083 11.0738L130.821 19.7162C130.713 19.9347 130.803 20.1991 131.021 20.3068Z" fill="#FF952F"/>
<path d="M134.602 22.0768L134.608 22.0798C134.827 22.1876 135.091 22.0978 135.199 21.8794L139.462 13.237C139.569 13.0185 139.479 12.7541 139.261 12.6464L139.255 12.6433C139.036 12.5356 138.772 12.6253 138.664 12.8438L134.402 21.4862C134.294 21.7046 134.384 21.9691 134.602 22.0768Z" fill="#FF952F"/>
<path d="M136.356 22.9293L137.026 23.26C137.245 23.3677 137.509 23.278 137.617 23.0595L141.879 14.4172C141.987 14.1987 141.897 13.9343 141.679 13.8265L141.009 13.4959C140.79 13.3881 140.526 13.4779 140.418 13.6963L136.155 22.3387C136.048 22.5572 136.137 22.8216 136.356 22.9293Z" fill="#FF952F"/>
<path d="M142.342 25.8766L143.013 26.2073C143.231 26.315 143.496 26.2253 143.603 26.0068L147.866 17.3644C147.974 17.146 147.884 16.8815 147.665 16.7738L146.995 16.4431C146.776 16.3354 146.512 16.4251 146.404 16.6436L142.142 25.286C142.034 25.5044 142.124 25.7689 142.342 25.8766Z" fill="#FF952F"/>
<path d="M148.178 28.7604L148.185 28.7634C148.403 28.8712 148.667 28.7814 148.775 28.563L153.038 19.9206C153.145 19.7021 153.056 19.4377 152.837 19.3299L152.831 19.3269C152.613 19.2192 152.348 19.3089 152.24 19.5274L147.978 28.1698C147.87 28.3882 147.96 28.6527 148.178 28.7604Z" fill="#FF952F"/>
<path d="M149.883 29.6118L150.686 30.008C150.905 30.1158 151.169 30.026 151.277 29.8076L155.54 21.1652C155.647 20.9468 155.558 20.6823 155.339 20.5746L154.536 20.1784C154.317 20.0706 154.053 20.1604 153.945 20.3788L149.683 29.0212C149.575 29.2397 149.665 29.5041 149.883 29.6118Z" fill="#FF952F"/>
<path d="M138.729 24.1079L139.001 24.2419C139.219 24.3497 139.484 24.2599 139.592 24.0415L143.854 15.3991C143.962 15.1806 143.872 14.9162 143.654 14.8085L143.382 14.6744C143.163 14.5666 142.899 14.6564 142.791 14.8748L138.529 23.5172C138.421 23.7357 138.511 24.0001 138.729 24.1079Z" fill="#FF952F"/>
<path d="M144.706 27.0572L144.845 27.1257C145.063 27.2335 145.328 27.1437 145.435 26.9253L149.698 18.2829C149.806 18.0644 149.716 17.8 149.497 17.6923L149.358 17.6237C149.14 17.516 148.876 17.6057 148.768 17.8242L144.505 26.4665C144.398 26.685 144.487 26.9494 144.706 27.0572Z" fill="#FF952F"/>
<path d="M140.49 24.5628C140.399 24.7463 140.475 24.9683 140.658 25.0588C140.842 25.1493 141.064 25.0739 141.154 24.8905L145.479 16.1214C145.57 15.9379 145.494 15.7158 145.311 15.6254C145.127 15.5349 144.905 15.6102 144.815 15.7937L140.49 24.5628Z" fill="#FF952F"/>
<path d="M146.577 27.9738L146.583 27.9768C146.801 28.0845 147.066 27.9948 147.174 27.7763L151.436 19.134C151.544 18.9155 151.454 18.6511 151.236 18.5433L151.23 18.5403C151.011 18.4326 150.747 18.5223 150.639 18.7408L146.376 27.3831C146.269 27.6016 146.358 27.866 146.577 27.9738Z" fill="#FF952F"/>
<path d="M128.702 69.2147L129.106 69.4143C129.325 69.522 129.589 69.4323 129.697 69.2138L132.714 63.0959C132.822 62.8775 132.732 62.613 132.514 62.5053L132.109 62.3057C131.891 62.1979 131.626 62.2877 131.519 62.5061L128.501 68.6241C128.394 68.8425 128.483 69.1069 128.702 69.2147Z" fill="white" stroke="#E2EBF4" stroke-width="0.374328"/>
<path d="M134.417 57.6551L134.821 57.8547C135.04 57.9625 135.304 57.8727 135.412 57.6543L141.706 44.8931C141.814 44.6746 141.724 44.4102 141.505 44.3024L141.101 44.1028C140.882 43.9951 140.618 44.0848 140.51 44.3033L134.216 57.0645C134.108 57.2829 134.198 57.5474 134.417 57.6551Z" fill="white" stroke="#E2EBF4" stroke-width="0.374328"/>
<path d="M127.609 22.1812L151.192 33.8128" stroke="#FF952F" stroke-width="0.374328" stroke-linecap="round" stroke-dasharray="1.87 1.25"/>
<path d="M129.305 5.04777L105.882 0.387294C104.807 0.173397 103.762 0.87148 103.548 1.94651L92.2963 58.4977C92.0824 59.5727 92.7805 60.6176 93.8556 60.8315L117.279 65.492C118.354 65.7059 119.399 65.0078 119.613 63.9328L130.864 7.38157C131.078 6.30654 130.38 5.26167 129.305 5.04777Z" fill="white" stroke="#0C38B7" stroke-width="0.374328"/>
<path d="M97.3679 57.3006L99.1182 57.6488C99.3571 57.6963 99.5893 57.5412 99.6368 57.3023L104.668 32.0137C104.716 31.7748 104.561 31.5426 104.322 31.4951L102.572 31.1469C102.333 31.0993 102.101 31.2545 102.053 31.4933L97.0215 56.7819C96.9739 57.0208 97.129 57.253 97.3679 57.3006Z" fill="white" stroke="#E2EBF4" stroke-width="0.374328"/>
<path d="M102.727 58.3699L104.478 58.7181C104.716 58.7657 104.949 58.6105 104.996 58.3716L111.04 27.9975C111.087 27.7586 110.932 27.5264 110.693 27.4789L108.943 27.1306C108.704 27.0831 108.472 27.2382 108.424 27.4771L102.381 57.8513C102.333 58.0902 102.488 58.3224 102.727 58.3699Z" fill="white" stroke="#E2EBF4" stroke-width="0.374328"/>
<path d="M104.378 12.9268L106.419 13.3329C106.658 13.3804 106.89 13.2253 106.938 12.9864L108.818 3.53528C108.866 3.29638 108.71 3.06419 108.472 3.01665L106.431 2.61059C106.192 2.56306 105.96 2.71819 105.912 2.95708L104.032 12.4082C103.984 12.6471 104.139 12.8793 104.378 12.9268Z" fill="#1844BF"/>
<path d="M108.295 13.708L108.302 13.7093C108.541 13.7569 108.773 13.6017 108.82 13.3629L110.701 3.91174C110.748 3.67285 110.593 3.44065 110.354 3.39312L110.348 3.39179C110.109 3.34426 109.877 3.49939 109.829 3.73828L107.949 13.1894C107.901 13.4283 108.056 13.6605 108.295 13.708Z" fill="#1844BF"/>
<path d="M110.18 14.0845L110.913 14.2303C111.152 14.2779 111.384 14.1227 111.432 13.8838L113.312 4.43273C113.36 4.19384 113.205 3.96164 112.966 3.91411L112.233 3.76823C111.994 3.7207 111.761 3.87583 111.714 4.11473L109.833 13.5658C109.786 13.8047 109.941 14.0369 110.18 14.0845Z" fill="#1844BF"/>
<path d="M116.709 15.3852L117.442 15.5311C117.681 15.5787 117.914 15.4235 117.961 15.1846L119.842 5.73352C119.889 5.49462 119.734 5.26243 119.495 5.2149L118.762 5.06902C118.523 5.02149 118.291 5.17662 118.243 5.41551L116.363 14.8666C116.315 15.1055 116.47 15.3377 116.709 15.3852Z" fill="#1844BF"/>
<path d="M123.117 16.6572L123.124 16.6586C123.363 16.7061 123.595 16.551 123.643 16.3121L125.523 6.86096C125.571 6.62206 125.416 6.38987 125.177 6.34234L125.17 6.34101C124.931 6.29347 124.699 6.4486 124.651 6.6875L122.771 16.1386C122.723 16.3775 122.878 16.6097 123.117 16.6572Z" fill="#1844BF"/>
<path d="M124.994 17.0326L125.872 17.2074C126.111 17.2549 126.343 17.0998 126.391 16.8609L128.271 7.40978C128.319 7.17089 128.164 6.9387 127.925 6.89116L127.046 6.71638C126.807 6.66884 126.575 6.82397 126.528 7.06287L124.647 16.514C124.6 16.7529 124.755 16.9851 124.994 17.0326Z" fill="#1844BF"/>
<path d="M112.803 14.6048L113.101 14.6639C113.34 14.7115 113.572 14.5563 113.619 14.3174L115.5 4.86633C115.547 4.62743 115.392 4.39524 115.153 4.34771L114.856 4.28856C114.617 4.24103 114.385 4.39616 114.337 4.63505L112.457 14.0862C112.409 14.3251 112.564 14.5573 112.803 14.6048Z" fill="#1844BF"/>
<path d="M119.343 15.9057L119.495 15.9359C119.734 15.9834 119.966 15.8283 120.014 15.5894L121.894 6.1383C121.942 5.89941 121.787 5.66721 121.548 5.61968L121.396 5.58944C121.157 5.54191 120.925 5.69704 120.877 5.93594L118.997 15.387C118.949 15.6259 119.104 15.8581 119.343 15.9057Z" fill="#1844BF"/>
<path d="M114.627 14.5889C114.587 14.7895 114.717 14.9845 114.918 15.0244C115.119 15.0643 115.314 14.934 115.354 14.7334L117.262 5.1437C117.301 4.94308 117.171 4.74809 116.971 4.70818C116.77 4.66826 116.575 4.79854 116.535 4.99915L114.627 14.5889Z" fill="#1844BF"/>
<path d="M121.387 16.3101L121.394 16.3114C121.633 16.3589 121.865 16.2038 121.912 15.9649L123.793 6.51379C123.84 6.27489 123.685 6.0427 123.446 5.99517L123.44 5.99384C123.201 5.94631 122.968 6.10144 122.921 6.34033L121.04 15.7914C120.993 16.0303 121.148 16.2625 121.387 16.3101Z" fill="#1844BF"/>
<path d="M114.795 60.7707L115.237 60.8588C115.476 60.9063 115.708 60.7512 115.756 60.5123L117.087 53.8218C117.135 53.5829 116.98 53.3508 116.741 53.3032L116.298 53.2152C116.059 53.1676 115.827 53.3228 115.779 53.5617L114.448 60.2521C114.401 60.491 114.556 60.7232 114.795 60.7707Z" fill="white" stroke="#E2EBF4" stroke-width="0.374328"/>
<path d="M117.307 48.1286L117.749 48.2167C117.988 48.2642 118.22 48.1091 118.268 47.8702L121.044 33.9148C121.092 33.6759 120.937 33.4437 120.698 33.3962L120.255 33.3081C120.016 33.2606 119.784 33.4157 119.737 33.6546L116.96 47.61C116.912 47.8489 117.068 48.0811 117.307 48.1286Z" fill="white" stroke="#E2EBF4" stroke-width="0.374328"/>
<path d="M101.561 15.6177L127.35 20.7494" stroke="#0C38B7" stroke-width="0.374328" stroke-linecap="round" stroke-dasharray="1.87 1.25"/>
<path d="M164.623 59.209H87.4414C86.7715 59.209 86.2285 59.752 86.2285 60.4218V166.491C86.2285 167.161 86.7715 167.704 87.4414 167.704H164.623C165.292 167.704 165.836 167.161 165.836 166.491V60.4218C165.836 59.752 165.292 59.209 164.623 59.209Z" stroke="#E2EBF4" stroke-width="0.374328" stroke-dasharray="1.75 1.75"/>
<path d="M39.5996 50.278V198.687H146.772V50.278C146.772 42.9706 140.846 37.0469 133.541 37.0469H52.8307C45.5232 37.0469 39.5996 42.9706 39.5996 50.278Z" fill="white" stroke="#0C38B7" stroke-width="0.374328"/>
<path d="M101.782 62.4067H24.1593C22.3325 62.4067 20.8516 63.8877 20.8516 65.7145V109.818C20.8516 111.645 22.3325 113.126 24.1593 113.126H101.782C103.609 113.126 105.089 111.645 105.089 109.818V65.7145C105.089 63.8877 103.609 62.4067 101.782 62.4067Z" fill="white" stroke="#0C38B7" stroke-width="0.374328"/>
<path d="M47.3125 153.701H139.269C139.877 153.701 140.371 153.208 140.371 152.599V137.162C140.371 136.553 139.877 136.06 139.269 136.06H47.3125C46.7035 136.06 46.2099 136.553 46.2099 137.162V152.599C46.2099 153.208 46.7035 153.701 47.3125 153.701Z" fill="white" stroke="#E2EBF4" stroke-width="0.374328" stroke-linecap="round" stroke-linejoin="round"/>
<path d="M129.345 48.2935H139.269C139.877 48.2935 140.371 47.7998 140.371 47.1909V46.7498C140.371 46.1409 139.877 45.6472 139.269 45.6472H129.345C128.736 45.6472 128.243 46.1409 128.243 46.7498V47.1909C128.243 47.7998 128.736 48.2935 129.345 48.2935Z" fill="white" stroke="#E2EBF4" stroke-width="0.374328" stroke-linecap="round" stroke-linejoin="round"/>
<path d="M129.345 52.4834H139.269C139.877 52.4834 140.371 51.9898 140.371 51.3808V50.9398C140.371 50.3308 139.877 49.8372 139.269 49.8372H129.345C128.736 49.8372 128.243 50.3308 128.243 50.9398V51.3808C128.243 51.9898 128.736 52.4834 129.345 52.4834Z" fill="white" stroke="#E2EBF4" stroke-width="0.374328" stroke-linecap="round" stroke-linejoin="round"/>
<path d="M68.4983 53.3652L104.884 53.3652C105.493 53.3652 105.986 52.8716 105.986 52.2626V50.4985C105.986 49.8896 105.493 49.3959 104.884 49.3959L68.4983 49.3959C67.8893 49.3959 67.3957 49.8896 67.3957 50.4985V52.2626C67.3957 52.8716 67.8893 53.3652 68.4983 53.3652Z" fill="white" stroke="#E2EBF4" stroke-width="0.374328" stroke-linecap="round" stroke-linejoin="round"/>
<path d="M28.2407 69.9043H45.2206C45.7686 69.9043 46.2129 69.46 46.2129 68.912C46.2129 68.3639 45.7686 67.9196 45.2206 67.9196H28.2407C27.6926 67.9196 27.2483 68.3639 27.2483 68.912C27.2483 69.46 27.6926 69.9043 28.2407 69.9043Z" fill="white" stroke="#E2EBF4" stroke-width="0.374328" stroke-linecap="round" stroke-linejoin="round"/>
<path d="M28.3521 106.951H41.8037C42.4126 106.951 42.9062 106.458 42.9062 105.849V105.408C42.9062 104.799 42.4126 104.305 41.8037 104.305H28.3521C27.7431 104.305 27.2495 104.799 27.2495 105.408V105.849C27.2495 106.458 27.7431 106.951 28.3521 106.951Z" fill="white" stroke="#E2EBF4" stroke-width="0.374328" stroke-linecap="round" stroke-linejoin="round"/>
<path d="M65.3911 106.951H78.8427C79.4517 106.951 79.9453 106.458 79.9453 105.849V105.408C79.9453 104.799 79.4517 104.305 78.8427 104.305H65.3911C64.7822 104.305 64.2885 104.799 64.2885 105.408V105.849C64.2885 106.458 64.7822 106.951 65.3911 106.951Z" fill="white" stroke="#E2EBF4" stroke-width="0.374328" stroke-linecap="round" stroke-linejoin="round"/>
<path d="M46.8638 106.951H60.3154C60.9243 106.951 61.418 106.458 61.418 105.849V105.408C61.418 104.799 60.9243 104.305 60.3154 104.305H46.8638C46.2548 104.305 45.7612 104.799 45.7612 105.408V105.849C45.7612 106.458 46.2548 106.951 46.8638 106.951Z" fill="white" stroke="#E2EBF4" stroke-width="0.374328" stroke-linecap="round" stroke-linejoin="round"/>
<path d="M83.9107 106.951H97.3623C97.9712 106.951 98.4648 106.458 98.4648 105.849V105.408C98.4648 104.799 97.9712 104.305 97.3623 104.305H83.9107C83.3017 104.305 82.8081 104.799 82.8081 105.408V105.849C82.8081 106.458 83.3017 106.951 83.9107 106.951Z" fill="white" stroke="#E2EBF4" stroke-width="0.374328" stroke-linecap="round" stroke-linejoin="round"/>
<path d="M28.5809 79.6069H47.1044C47.7134 79.6069 48.207 79.1133 48.207 78.5043V76.7402C48.207 76.1313 47.7134 75.6376 47.1044 75.6376H28.5809C27.972 75.6376 27.4783 76.1313 27.4783 76.7402V78.5043C27.4783 79.1133 27.972 79.6069 28.5809 79.6069Z" fill="white" stroke="#E2EBF4" stroke-width="0.374328" stroke-linecap="round" stroke-linejoin="round"/>
<path d="M129.345 56.6733H139.269C139.877 56.6733 140.371 56.1797 140.371 55.5707V55.1297C140.371 54.5208 139.877 54.0271 139.269 54.0271H129.345C128.736 54.0271 128.243 54.5208 128.243 55.1297V55.5707C128.243 56.1797 128.736 56.6733 129.345 56.6733Z" fill="white" stroke="#E2EBF4" stroke-width="0.374328" stroke-linecap="round" stroke-linejoin="round"/>
<path d="M65.6262 146.424H93.8525C94.4614 146.424 94.9551 145.93 94.9551 145.321V144.439C94.9551 143.83 94.4614 143.337 93.8525 143.337H65.6262C65.0172 143.337 64.5236 143.83 64.5236 144.439V145.321C64.5236 145.93 65.0172 146.424 65.6262 146.424Z" fill="#E2EBF4"/>
<path d="M119.882 145.321H133.995C134.604 145.321 135.098 144.828 135.098 144.219V142.014C135.098 141.405 134.604 140.911 133.995 140.911H119.882C119.273 140.911 118.779 141.405 118.779 142.014V144.219C118.779 144.828 119.273 145.321 119.882 145.321Z" fill="#E2EBF4"/>
<path d="M124.623 149.07H134.105C134.653 149.07 135.098 148.626 135.098 148.078C135.098 147.53 134.653 147.086 134.105 147.086H124.623C124.075 147.086 123.631 147.53 123.631 148.078C123.631 148.626 124.075 149.07 124.623 149.07Z" fill="#E2EBF4"/>
<path d="M47.3125 173.768H139.269C139.877 173.768 140.371 173.274 140.371 172.665V157.45C140.371 156.841 139.877 156.347 139.269 156.347H47.3125C46.7035 156.347 46.2099 156.841 46.2099 157.45V172.665C46.2099 173.274 46.7035 173.768 47.3125 173.768Z" fill="white" stroke="#E2EBF4" stroke-width="0.374328" stroke-linecap="round" stroke-linejoin="round"/>
<path d="M47.3125 194.056H139.269C139.877 194.056 140.371 193.562 140.371 192.953V177.517C140.371 176.908 139.877 176.414 139.269 176.414H47.3125C46.7035 176.414 46.2099 176.908 46.2099 177.517V192.953C46.2099 193.562 46.7035 194.056 47.3125 194.056Z" fill="white" stroke="#E2EBF4" stroke-width="0.374328" stroke-linecap="round" stroke-linejoin="round"/>
<path d="M55.9037 170.154C58.7597 170.154 61.075 167.861 61.075 165.033C61.075 162.204 58.7597 159.912 55.9037 159.912C53.0477 159.912 50.7324 162.204 50.7324 165.033C50.7324 167.861 53.0477 170.154 55.9037 170.154Z" fill="#E2EBF4"/>
<path fill-rule="evenodd" clip-rule="evenodd" d="M56.5473 164.284L56.5425 163.511L58.1754 163.499L58.1668 162.322L53.7225 162.354L53.7309 163.532L55.3638 163.52L55.3687 164.291C54.0427 164.367 53.0466 164.658 53.0488 164.999C53.051 165.34 54.0506 165.617 55.3777 165.673L55.3949 168.146L56.5749 168.137L56.5579 165.663C57.8813 165.588 58.8754 165.296 58.8727 164.956C58.8703 164.616 57.8731 164.339 56.5487 164.283L56.5473 164.284ZM56.5553 165.455C56.5224 165.457 56.352 165.469 55.9698 165.472C55.6653 165.474 55.4509 165.465 55.3753 165.463C54.2028 165.417 53.3258 165.203 53.324 164.938C53.3223 164.673 54.1962 164.446 55.3676 164.381L55.3735 165.243C55.4505 165.249 55.6699 165.261 55.9731 165.259C56.3376 165.256 56.5191 165.238 56.5533 165.235L56.5473 164.373C57.717 164.421 58.5916 164.635 58.5938 164.899C58.5957 165.163 57.724 165.39 56.5553 165.455Z" fill="#1844BF"/>
<path d="M55.9388 150.166C58.8228 150.166 61.1608 147.851 61.1608 144.995C61.1608 142.139 58.8228 139.824 55.9388 139.824C53.0548 139.824 50.7168 142.139 50.7168 144.995C50.7168 147.851 53.0548 150.166 55.9388 150.166Z" fill="#FF952F"/>
<path fill-rule="evenodd" clip-rule="evenodd" d="M55.546 144.574C55.9078 144.588 56.8263 144.623 56.825 143.922C56.8216 143.252 56.0686 143.265 55.6562 143.272C55.5934 143.273 55.5376 143.275 55.4928 143.272L55.4924 144.572C55.5091 144.573 55.5257 144.573 55.546 144.574ZM56.4999 141.447L56.5017 142.519C57.2345 142.592 57.8188 142.845 57.8854 143.62C57.9317 144.191 57.7238 144.52 57.3952 144.729C57.9465 144.873 58.2883 145.251 58.21 146.078C58.1344 147.108 57.4587 147.388 56.5123 147.454L56.5118 148.539L55.9402 148.538L55.9396 147.471C55.847 147.467 55.7543 147.467 55.6573 147.466C55.6009 147.466 55.5444 147.466 55.4858 147.465L55.4888 148.544L54.9181 148.543L54.9186 147.458C54.8123 147.46 54.7051 147.46 54.5951 147.458C54.5662 147.458 54.5366 147.457 54.5091 147.457H53.771L53.881 146.679C53.881 146.679 54.3022 146.681 54.2963 146.677C54.4438 146.664 54.4996 146.54 54.5067 146.455L54.502 143.517C54.4802 143.374 54.4079 143.228 54.175 143.231C54.1836 143.223 53.7598 143.233 53.7598 143.233L53.7626 142.534L54.5468 142.532C54.6149 142.533 54.6866 142.531 54.7589 142.53C54.8088 142.529 54.8593 142.528 54.9087 142.528L54.9078 141.461L55.4721 141.452L55.4747 142.506C55.6282 142.497 55.7779 142.495 55.9299 142.494L55.9314 141.461L56.4993 141.446L56.4999 141.447ZM55.4992 145.239L55.5023 146.675C55.5299 146.676 55.5625 146.675 55.5993 146.676C56.0573 146.683 57.0942 146.702 57.0931 145.95C57.0947 145.184 56.1023 145.218 55.6302 145.236C55.5801 145.237 55.5354 145.239 55.4992 145.239Z" fill="white"/>
<path d="M51.1512 22.7914L46.8574 18.4976L42.5636 22.7914L46.8574 27.0852L51.1512 22.7914Z" fill="#FF952F"/>
<path d="M58.6353 22.7911L56.0586 20.2144L53.4819 22.7911L56.0586 25.3678L58.6353 22.7911Z" fill="#FF952F"/>
<path d="M55.9037 190.542C58.7597 190.542 61.075 188.227 61.075 185.371C61.075 182.515 58.7597 180.2 55.9037 180.2C53.0477 180.2 50.7324 182.515 50.7324 185.371C50.7324 188.227 53.0477 190.542 55.9037 190.542Z" fill="#1844BF"/>
<path d="M55.8343 181.548L57.5769 185.121L55.8343 186.158L54.0918 185.121L55.8343 181.548Z" fill="white"/>
<path d="M55.8343 188.856L54.0918 185.933L55.8343 186.907L57.5769 185.933L55.8343 188.856Z" fill="white"/>
<path d="M130.122 130.106C132.862 130.106 135.083 127.934 135.083 125.254C135.083 122.575 132.862 120.403 130.122 120.403C127.382 120.403 125.16 122.575 125.16 125.254C125.16 127.934 127.382 130.106 130.122 130.106Z" fill="#1844BF"/>
<path d="M53.6002 58.6578C57.6802 58.6578 60.9876 55.301 60.9876 51.1602C60.9876 47.0194 57.6802 43.6626 53.6002 43.6626C49.5203 43.6626 46.2129 47.0194 46.2129 51.1602C46.2129 55.301 49.5203 58.6578 53.6002 58.6578Z" fill="white" stroke="#E2EBF4" stroke-width="0.374328" stroke-linecap="round" stroke-linejoin="round"/>
<path d="M89.215 77.6223C91.6508 77.6223 93.6254 75.5983 93.6254 73.1017C93.6254 70.605 91.6508 68.5811 89.215 68.5811C86.7793 68.5811 84.8047 70.605 84.8047 73.1017C84.8047 75.5983 86.7793 77.6223 89.215 77.6223Z" fill="white" stroke="#0C38B7" stroke-width="0.374328"/>
<path d="M96.1769 77.6223C98.6735 77.6223 100.697 75.5983 100.697 73.1017C100.697 70.605 98.6735 68.5811 96.1769 68.5811C93.6802 68.5811 91.6562 70.605 91.6562 73.1017C91.6562 75.5983 93.6802 77.6223 96.1769 77.6223Z" fill="white" stroke="#FF952F" stroke-width="0.374328"/>
<path d="M116.554 130.106C119.355 130.106 121.626 127.934 121.626 125.254C121.626 122.575 119.355 120.403 116.554 120.403C113.753 120.403 111.482 122.575 111.482 125.254C111.482 127.934 113.753 130.106 116.554 130.106Z" fill="#E2EBF4"/>
<path d="M130.01 122.829V127.459" stroke="white" stroke-width="0.374328" stroke-linecap="round"/>
<path d="M116.553 122.829V127.459" stroke="#0C38B7" stroke-width="0.374328" stroke-linecap="round"/>
<path d="M132.445 125.254H127.814" stroke="white" stroke-width="0.374328" stroke-linecap="round"/>
<path d="M118.415 124.748L116.479 122.812L114.543 124.748" stroke="#0C38B7" stroke-width="0.374328" stroke-linecap="round" stroke-linejoin="round"/>
<path d="M32.1035 198.687H183.6" stroke="#0C38B7" stroke-width="0.374328" stroke-linecap="round"/>
<path d="M65.6278 166.932H84.1513C84.7603 166.932 85.2539 166.438 85.2539 165.83V164.947C85.2539 164.339 84.7603 163.845 84.1513 163.845H65.6278C65.0189 163.845 64.5252 164.339 64.5252 164.947V165.83C64.5252 166.438 65.0189 166.932 65.6278 166.932Z" fill="#E2EBF4"/>
<path d="M65.6157 186.779H102.222C102.831 186.779 103.324 186.285 103.324 185.676V184.794C103.324 184.185 102.831 183.692 102.222 183.692H65.6157C65.0067 183.692 64.5131 184.185 64.5131 184.794V185.676C64.5131 186.285 65.0067 186.779 65.6157 186.779Z" fill="#E2EBF4"/>
<path d="M113.682 165.681H133.952C134.561 165.681 135.055 165.187 135.055 164.578V162.209C135.055 161.6 134.561 161.106 133.952 161.106H113.682C113.073 161.106 112.58 161.6 112.58 162.209V164.578C112.58 165.187 113.073 165.681 113.682 165.681Z" fill="#E2EBF4"/>
<path d="M124.712 169.261H134.06C134.609 169.261 135.055 168.816 135.055 168.266C135.055 167.717 134.609 167.272 134.06 167.272H124.712C124.163 167.272 123.718 167.717 123.718 168.266C123.718 168.816 124.163 169.261 124.712 169.261Z" fill="#E2EBF4"/>
<path d="M118.853 185.768H133.952C134.561 185.768 135.055 185.274 135.055 184.665V182.296C135.055 181.687 134.561 181.193 133.952 181.193H118.853C118.244 181.193 117.751 181.687 117.751 182.296V184.665C117.751 185.274 118.244 185.768 118.853 185.768Z" fill="#E2EBF4"/>
<path d="M124.712 189.348H134.06C134.609 189.348 135.055 188.903 135.055 188.354C135.055 187.804 134.609 187.359 134.06 187.359H124.712C124.163 187.359 123.718 187.804 123.718 188.354C123.718 188.903 124.163 189.348 124.712 189.348Z" fill="#E2EBF4"/>
<path d="M145.663 65.7144H114.79C112.963 65.7144 111.482 67.1954 111.482 69.0221V106.29C111.482 108.116 112.963 109.597 114.79 109.597H145.663" stroke="#E2EBF4" stroke-width="0.374328"/>
<path d="M45.7602 125.157L47.489 125.854C47.8006 125.978 48.0359 126.154 48.1947 126.383C48.3535 126.613 48.4328 126.857 48.4328 127.115C48.4328 127.445 48.3122 127.733 48.0712 127.98C47.8302 128.221 47.5067 128.341 47.1009 128.341H46.898V129.347H46.0865V128.341H44.7546V127.53H47.1009C47.242 127.53 47.3567 127.486 47.4449 127.398C47.5391 127.303 47.5861 127.195 47.5861 127.071C47.5861 126.877 47.489 126.742 47.295 126.666L45.5044 125.951C45.1928 125.828 44.9575 125.654 44.7987 125.431C44.6399 125.201 44.5605 124.957 44.5605 124.699C44.5605 124.363 44.6812 124.075 44.9222 123.834C45.1692 123.587 45.4955 123.464 45.9013 123.464H46.0865V122.432H46.898V123.464H48.2388V124.275H45.8925C45.7573 124.275 45.6484 124.319 45.5661 124.407C45.4896 124.49 45.4514 124.593 45.4514 124.716C45.4514 124.922 45.5544 125.069 45.7602 125.157ZM52.7049 125.325L50.6144 127.504H53.3665V128.341H49.3531V127.68L52.1228 124.76C52.3404 124.549 52.4491 124.304 52.4491 124.028C52.4491 123.805 52.364 123.622 52.1933 123.481C52.0288 123.34 51.8112 123.27 51.5406 123.27H49.4236V122.432H51.5494C52.061 122.432 52.4816 122.579 52.8108 122.873C53.1402 123.161 53.3048 123.537 53.3048 124.002C53.3048 124.472 53.105 124.913 52.7049 125.325ZM55.2352 124.848H56.7876C57.3402 124.848 57.7696 125.019 58.0754 125.36C58.3811 125.701 58.5341 126.11 58.5341 126.586C58.5341 127.057 58.3782 127.468 58.0666 127.821C57.7608 128.168 57.3345 128.341 56.7876 128.341H54.4148V127.504H56.7612C57.0315 127.504 57.2432 127.415 57.3962 127.239C57.5491 127.057 57.6285 126.842 57.6344 126.595C57.6401 126.348 57.5638 126.133 57.4051 125.951C57.252 125.769 57.0375 125.678 56.7612 125.678H54.3443L54.6795 122.432H58.0578V123.27H55.4028L55.2352 124.848ZM60.3519 124.848H61.9043C62.4569 124.848 62.8863 125.019 63.1921 125.36C63.4978 125.701 63.6508 126.11 63.6508 126.586C63.6508 127.057 63.4949 127.468 63.1833 127.821C62.8774 128.168 62.4512 128.341 61.9043 128.341H59.5315V127.504H61.8778C62.1482 127.504 62.3599 127.415 62.5129 127.239C62.6657 127.057 62.7451 126.842 62.7511 126.595C62.7568 126.348 62.6805 126.133 62.5217 125.951C62.3687 125.769 62.1541 125.678 61.8778 125.678H59.4609L59.7961 122.432H63.1745V123.27H60.5194L60.3519 124.848ZM64.4661 126.18V124.593C64.4661 123.94 64.6837 123.396 65.1188 122.961C65.5539 122.526 66.1008 122.308 66.7594 122.308C67.4122 122.308 67.9591 122.526 68.4001 122.961C68.8411 123.396 69.0617 123.94 69.0617 124.593V126.18C69.0617 126.833 68.8411 127.377 68.4001 127.812C67.9591 128.247 67.4122 128.465 66.7594 128.465C66.1008 128.465 65.5539 128.247 65.1188 127.812C64.6837 127.377 64.4661 126.833 64.4661 126.18ZM65.3217 124.593V126.18C65.3217 126.604 65.4568 126.951 65.7274 127.221C65.998 127.486 66.342 127.618 66.7594 127.618C67.1769 127.618 67.5209 127.486 67.7915 127.221C68.0678 126.951 68.206 126.604 68.206 126.18V124.593C68.206 124.169 68.0678 123.822 67.7915 123.552C67.5209 123.281 67.1769 123.146 66.7594 123.146C66.342 123.146 65.998 123.281 65.7274 123.552C65.4568 123.822 65.3217 124.169 65.3217 124.593ZM70.1254 126.18V124.593C70.1254 123.94 70.3431 123.396 70.7782 122.961C71.2132 122.526 71.7601 122.308 72.4188 122.308C73.0716 122.308 73.6184 122.526 74.0595 122.961C74.5005 123.396 74.721 123.94 74.721 124.593V126.18C74.721 126.833 74.5005 127.377 74.0595 127.812C73.6184 128.247 73.0716 128.465 72.4188 128.465C71.7601 128.465 71.2132 128.247 70.7782 127.812C70.3431 127.377 70.1254 126.833 70.1254 126.18ZM70.981 124.593V126.18C70.981 126.604 71.1162 126.951 71.3868 127.221C71.6574 127.486 72.0014 127.618 72.4188 127.618C72.8363 127.618 73.1803 127.486 73.4508 127.221C73.7271 126.951 73.8654 126.604 73.8654 126.18V124.593C73.8654 124.169 73.7271 123.822 73.4508 123.552C73.1803 123.281 72.8363 123.146 72.4188 123.146C72.0014 123.146 71.6574 123.281 71.3868 123.552C71.1162 123.822 70.981 124.169 70.981 124.593ZM75.1444 127.283H76.1588V128.341H75.1444V127.283ZM76.7152 126.18V124.593C76.7152 123.94 76.9326 123.396 77.3679 122.961C77.803 122.526 78.3499 122.308 79.0086 122.308C79.6613 122.308 80.2082 122.526 80.6492 122.961C81.0902 123.396 81.3108 123.94 81.3108 124.593V126.18C81.3108 126.833 81.0902 127.377 80.6492 127.812C80.2082 128.247 79.6613 128.465 79.0086 128.465C78.3499 128.465 77.803 128.247 77.3679 127.812C76.9326 127.377 76.7152 126.833 76.7152 126.18ZM77.5708 124.593V126.18C77.5708 126.604 77.706 126.951 77.9765 127.221C78.2469 127.486 78.5909 127.618 79.0086 127.618C79.426 127.618 79.77 127.486 80.0406 127.221C80.3169 126.951 80.4552 126.604 80.4552 126.18V124.593C80.4552 124.169 80.3169 123.822 80.0406 123.552C79.77 123.281 79.426 123.146 79.0086 123.146C78.5909 123.146 78.2469 123.281 77.9765 123.552C77.706 123.822 77.5708 124.169 77.5708 124.593ZM82.3745 126.18V124.593C82.3745 123.94 82.592 123.396 83.0273 122.961C83.4624 122.526 84.0092 122.308 84.6679 122.308C85.3207 122.308 85.8675 122.526 86.3086 122.961C86.7496 123.396 86.9701 123.94 86.9701 124.593V126.18C86.9701 126.833 86.7496 127.377 86.3086 127.812C85.8675 128.247 85.3207 128.465 84.6679 128.465C84.0092 128.465 83.4624 128.247 83.0273 127.812C82.592 127.377 82.3745 126.833 82.3745 126.18ZM83.2301 124.593V126.18C83.2301 126.604 83.3653 126.951 83.6359 127.221C83.9062 127.486 84.2503 127.618 84.6679 127.618C85.0854 127.618 85.4294 127.486 85.7 127.221C85.9763 126.951 86.1145 126.604 86.1145 126.18V124.593C86.1145 124.169 85.9763 123.822 85.7 123.552C85.4294 123.281 85.0854 123.146 84.6679 123.146C84.2503 123.146 83.9062 123.281 83.6359 123.552C83.3653 123.822 83.2301 124.169 83.2301 124.593Z" fill="#1844BF"/>
<path d="M155.3 71.7561C155.909 72.4761 155.993 73.5008 155.55 74.8301C155.106 76.1594 154.359 77.3502 153.307 78.4025L149.962 81.7464L153.285 96.2023C153.355 96.4654 153.272 96.6938 153.036 96.8876L150.378 98.8816C150.281 98.9647 150.149 99.0062 149.984 99.0062C149.929 99.0062 149.88 98.9993 149.838 98.9854C149.631 98.9438 149.485 98.833 149.402 98.6531L143.606 88.102L138.228 93.4813L139.328 97.5108C139.399 97.7461 139.344 97.9607 139.163 98.1545L137.169 100.148C137.044 100.273 136.885 100.335 136.691 100.335H136.649C136.442 100.308 136.276 100.218 136.151 100.066L132.225 94.8315L126.993 90.9059C126.84 90.8091 126.75 90.6498 126.723 90.4282C126.709 90.2483 126.771 90.0752 126.91 89.9089L128.904 87.8943C129.028 87.7697 129.187 87.7075 129.381 87.7075C129.465 87.7075 129.52 87.7143 129.546 87.7282L133.577 88.829L138.956 83.4495L128.404 77.6547C128.212 77.544 128.093 77.3778 128.051 77.1564C128.025 76.9347 128.086 76.7477 128.238 76.5956L130.898 73.937C131.092 73.7571 131.299 73.7015 131.52 73.7707L145.331 77.0732L148.654 73.75C149.706 72.6977 150.897 71.9499 152.226 71.5069C153.556 71.0639 154.579 71.1468 155.3 71.7561Z" fill="#1844BF" stroke="#0C38B7" stroke-width="0.374328" stroke-linejoin="round"/>
<path d="M112.196 115.964C118.769 110.48 124.923 104.893 130.583 99.3188M16.7313 154.917C10.7927 147.799 15.2044 133.274 27.0189 115.964M34.616 158.878C50.4827 156.473 73.7189 145.042 97.8647 127.223" stroke="#FF952F" stroke-width="0.374328"/>
<path d="M29.0508 139.467C33.3176 144.581 45.9665 141.764 62.263 133.209M127.501 82.2661C120.535 89.7258 112.313 97.5061 103.165 105.139C98.2154 109.268 93.2725 113.122 88.4178 116.664" stroke="#FF952F" stroke-width="0.374328"/>
<path d="M143.823 102.332C140.043 106.357 135.99 110.401 131.688 114.419M92.8034 144.836C74.9706 156.317 58.1473 163.836 45.0684 166.354" stroke="#FF952F" stroke-width="0.374328"/>
<path d="M176.423 165.932L174.053 168.201L175.078 170.763L176.428 169.503C176.796 169.16 177.279 168.969 177.782 168.969H179.819C180.809 168.969 181.612 168.166 181.612 167.176C181.612 166.185 180.809 165.382 179.819 165.382H177.797C177.286 165.382 176.794 165.579 176.423 165.932Z" fill="white" stroke="#0C38B7" stroke-width="0.374328" stroke-linecap="round" stroke-linejoin="round"/>
<path d="M125.117 175.836C125.117 173.034 127.388 170.764 130.188 170.764H176.68C179.483 170.764 181.752 173.034 181.752 175.836V189.215H125.117V175.836Z" fill="white" stroke="#0C38B7" stroke-width="0.374328" stroke-linecap="round"/>
<path d="M136.935 159.367C137.111 158.972 137.506 158.719 137.938 158.719H142.673H153.564H164.455H169.19C169.622 158.719 170.017 158.972 170.193 159.367L175.347 170.763H131.781L136.935 159.367Z" fill="white" stroke="#0C38B7" stroke-width="0.374328" stroke-linecap="round"/>
<path d="M165.349 177.169L162.692 183.176C162.516 183.575 162.121 183.833 161.684 183.833H159.455H153.56H147.666H145.436C145 183.833 144.605 183.575 144.429 183.176L141.771 177.169" stroke="#0C38B7" stroke-width="0.374328" stroke-linecap="round"/>
<path d="M125.117 194.728C125.117 196.92 126.894 198.698 129.086 198.698H133.45C135.642 198.698 137.419 196.92 137.419 194.728V189.215H125.117V194.728Z" fill="#1844BF" stroke="#0C38B7" stroke-width="0.374328" stroke-linejoin="round"/>
<path d="M139.426 183.833C140.158 183.833 140.749 183.24 140.749 182.509V180.477C140.749 178.65 139.269 177.169 137.441 177.169H125.117V183.833H139.426Z" fill="white" stroke="#0C38B7" stroke-width="0.374328" stroke-linecap="round"/>
<path d="M167.44 183.833C166.71 183.833 166.117 183.24 166.117 182.509V180.477C166.117 178.65 167.599 177.169 169.425 177.169H181.75V183.833H167.44Z" fill="white" stroke="#0C38B7" stroke-width="0.374328" stroke-linecap="round"/>
<path d="M169.449 195.389C169.449 197.216 170.931 198.698 172.757 198.698H178.442C180.27 198.698 181.75 197.216 181.75 195.389V189.215H169.449V195.389Z" fill="#1844BF" stroke="#0C38B7" stroke-width="0.374328" stroke-linejoin="round"/>
<path d="M130.568 165.932L132.941 168.201L131.916 170.763L130.566 169.503C130.198 169.16 129.715 168.969 129.212 168.969H127.175C126.184 168.969 125.381 168.166 125.381 167.176C125.381 166.185 126.184 165.382 127.175 165.382H129.197C129.708 165.382 130.2 165.579 130.568 165.932Z" fill="white" stroke="#0C38B7" stroke-width="0.374328" stroke-linecap="round" stroke-linejoin="round"/>
<path d="M479.183 43.1758H427.803C427.133 43.1758 426.59 43.7188 426.59 44.3886V152.663C426.59 153.333 427.133 153.876 427.803 153.876H479.183C479.853 153.876 480.396 153.333 480.396 152.663V44.3886C480.396 43.7188 479.853 43.1758 479.183 43.1758Z" stroke="#E2EBF4" stroke-width="0.374328"/>
<path d="M537.608 43.1758H489.094C488.424 43.1758 487.881 43.7188 487.881 44.3886V152.663C487.881 153.333 488.424 153.876 489.094 153.876H537.608C538.278 153.876 538.821 153.333 538.821 152.663V44.3886C538.821 43.7188 538.278 43.1758 537.608 43.1758Z" stroke="#E2EBF4" stroke-width="0.374328" stroke-dasharray="1.75 1.75"/>
<path d="M527.897 90.918H487.321C486.712 90.918 486.219 91.4116 486.219 92.0206V177.582C486.219 178.19 486.712 178.684 487.321 178.684H527.897C528.506 178.684 528.999 178.19 528.999 177.582V92.0206C528.999 91.4116 528.506 90.918 527.897 90.918Z" fill="white" stroke="#0C38B7" stroke-width="0.374328"/>
<path d="M498.606 87.2623C498.758 86.9009 499.27 86.9009 499.422 87.2623L499.962 88.5602C500.026 88.7126 500.169 88.8167 500.335 88.8299L501.735 88.9442C502.125 88.9759 502.284 89.4631 501.986 89.7184L500.919 90.6347C500.796 90.7421 500.74 90.9105 500.778 91.0711L501.102 92.4396C501.193 92.8209 500.78 93.1219 500.445 92.9181L499.243 92.1865C499.102 92.1005 498.926 92.1005 498.784 92.1865L497.583 92.9181C497.247 93.1219 496.835 92.8209 496.926 92.4396L497.25 91.0711C497.287 90.9105 497.232 90.7421 497.109 90.6347L496.041 89.7184C495.744 89.4631 495.902 88.9759 496.293 88.9442L497.693 88.8299C497.858 88.8167 498.002 88.7126 498.066 88.5602L498.606 87.2623Z" fill="white" stroke="#FF952F" stroke-width="0.374328"/>
<path d="M506.551 87.2623C506.703 86.9009 507.215 86.9009 507.367 87.2623L507.907 88.5602C507.971 88.7126 508.115 88.8167 508.28 88.8299L509.68 88.9442C510.071 88.9759 510.229 89.4631 509.932 89.7184L508.864 90.6347C508.741 90.7421 508.686 90.9105 508.723 91.0711L509.047 92.4396C509.138 92.8209 508.726 93.1219 508.39 92.9181L507.189 92.1865C507.047 92.1005 506.871 92.1005 506.73 92.1865L505.528 92.9181C505.193 93.1219 504.78 92.8209 504.871 92.4396L505.195 91.0711C505.233 90.9105 505.177 90.7421 505.054 90.6347L503.987 89.7184C503.689 89.4631 503.848 88.9759 504.238 88.9442L505.638 88.8299C505.804 88.8167 505.947 88.7126 506.011 88.5602L506.551 87.2623Z" fill="white" stroke="#FF952F" stroke-width="0.374328"/>
<path d="M514.471 87.2623C514.623 86.9009 515.135 86.9009 515.287 87.2623L515.827 88.5602C515.891 88.7126 516.035 88.8167 516.2 88.8299L517.6 88.9442C517.991 88.9759 518.149 89.4631 517.852 89.7184L516.784 90.6347C516.661 90.7421 516.606 90.9105 516.643 91.0711L516.967 92.4396C517.058 92.8209 516.645 93.1219 516.31 92.9181L515.108 92.1865C514.967 92.1005 514.791 92.1005 514.65 92.1865L513.448 92.9181C513.113 93.1219 512.7 92.8209 512.791 92.4396L513.115 91.0711C513.152 90.9105 513.097 90.7421 512.974 90.6347L511.906 89.7184C511.609 89.4631 511.768 88.9759 512.158 88.9442L513.558 88.8299C513.724 88.8167 513.867 88.7126 513.931 88.5602L514.471 87.2623Z" fill="white" stroke="#FF952F" stroke-width="0.374328"/>
<path d="M522.432 87.2623C522.584 86.9009 523.096 86.9009 523.248 87.2623L523.788 88.5602C523.852 88.7126 523.996 88.8167 524.161 88.8299L525.561 88.9442C525.952 88.9759 526.11 89.4631 525.813 89.7184L524.745 90.6347C524.622 90.7421 524.567 90.9105 524.604 91.0711L524.928 92.4396C525.019 92.8209 524.606 93.1219 524.271 92.9181L523.069 92.1865C522.928 92.1005 522.752 92.1005 522.611 92.1865L521.409 92.9181C521.074 93.1219 520.661 92.8209 520.752 92.4396L521.076 91.0711C521.113 90.9105 521.058 90.7421 520.935 90.6347L519.867 89.7184C519.57 89.4631 519.728 88.9759 520.119 88.9442L521.519 88.8299C521.685 88.8167 521.828 88.7126 521.892 88.5602L522.432 87.2623Z" fill="white" stroke="#FF952F" stroke-width="0.374328"/>
<path d="M525.703 97.313H519.087C518.478 97.313 517.984 97.8066 517.984 98.4156V106.795C517.984 107.404 518.478 107.898 519.087 107.898H525.703C526.311 107.898 526.805 107.404 526.805 106.795V98.4156C526.805 97.8066 526.311 97.313 525.703 97.313Z" fill="white" stroke="#0C38B7" stroke-width="0.374328"/>
<path d="M525.703 110.323H519.087C518.478 110.323 517.984 110.817 517.984 111.426V119.806C517.984 120.414 518.478 120.908 519.087 120.908H525.703C526.311 120.908 526.805 120.414 526.805 119.806V111.426C526.805 110.817 526.311 110.323 525.703 110.323Z" fill="white" stroke="#0C38B7" stroke-width="0.374328"/>
<path d="M525.703 123.334H519.087C518.478 123.334 517.984 123.828 517.984 124.437V132.816C517.984 133.425 518.478 133.919 519.087 133.919H525.703C526.311 133.919 526.805 133.425 526.805 132.816V124.437C526.805 123.828 526.311 123.334 525.703 123.334Z" fill="white" stroke="#0C38B7" stroke-width="0.374328"/>
<path d="M525.703 136.345H519.087C518.478 136.345 517.984 136.838 517.984 137.447V145.827C517.984 146.436 518.478 146.93 519.087 146.93H525.703C526.311 146.93 526.805 146.436 526.805 145.827V137.447C526.805 136.838 526.311 136.345 525.703 136.345Z" fill="white" stroke="#0C38B7" stroke-width="0.374328"/>
<path d="M525.703 149.355H519.087C518.478 149.355 517.984 149.849 517.984 150.458V158.838C517.984 159.447 518.478 159.94 519.087 159.94H525.703C526.311 159.94 526.805 159.447 526.805 158.838V150.458C526.805 149.849 526.311 149.355 525.703 149.355Z" fill="white" stroke="#0C38B7" stroke-width="0.374328"/>
<path d="M526.797 168.099H512.904V178.684H526.797V168.099Z" fill="white" stroke="#0C38B7" stroke-width="0.374328" stroke-linejoin="round"/>
<path d="M519.951 168.099V178.684" stroke="#0C38B7" stroke-width="0.374328" stroke-linejoin="round"/>
<path d="M530.983 162.366H495.7C495.091 162.366 494.598 162.859 494.598 163.468V164.791C494.598 165.4 495.091 165.894 495.7 165.894H530.983C531.592 165.894 532.086 165.4 532.086 164.791V163.468C532.086 162.859 531.592 162.366 530.983 162.366Z" fill="white" stroke="#0C38B7" stroke-width="0.374328"/>
<path d="M514.89 97.313H508.274C507.666 97.313 507.172 97.8066 507.172 98.4156V106.795C507.172 107.404 507.666 107.898 508.274 107.898H514.89C515.499 107.898 515.993 107.404 515.993 106.795V98.4156C515.993 97.8066 515.499 97.313 514.89 97.313Z" fill="white" stroke="#0C38B7" stroke-width="0.374328"/>
<path d="M514.89 110.323H508.274C507.666 110.323 507.172 110.817 507.172 111.426V119.806C507.172 120.414 507.666 120.908 508.274 120.908H514.89C515.499 120.908 515.993 120.414 515.993 119.806V111.426C515.993 110.817 515.499 110.323 514.89 110.323Z" fill="white" stroke="#0C38B7" stroke-width="0.374328"/>
<path d="M514.89 123.334H508.274C507.666 123.334 507.172 123.828 507.172 124.437V132.816C507.172 133.425 507.666 133.919 508.274 133.919H514.89C515.499 133.919 515.993 133.425 515.993 132.816V124.437C515.993 123.828 515.499 123.334 514.89 123.334Z" fill="white" stroke="#0C38B7" stroke-width="0.374328"/>
<path d="M514.89 136.345H508.274C507.666 136.345 507.172 136.838 507.172 137.447V145.827C507.172 146.436 507.666 146.93 508.274 146.93H514.89C515.499 146.93 515.993 146.436 515.993 145.827V137.447C515.993 136.838 515.499 136.345 514.89 136.345Z" fill="white" stroke="#0C38B7" stroke-width="0.374328"/>
<path d="M514.89 149.355H508.274C507.666 149.355 507.172 149.849 507.172 150.458V158.838C507.172 159.447 507.666 159.94 508.274 159.94H514.89C515.499 159.94 515.993 159.447 515.993 158.838V150.458C515.993 149.849 515.499 149.355 514.89 149.355Z" fill="white" stroke="#0C38B7" stroke-width="0.374328"/>
<path d="M504.079 97.313H497.464C496.855 97.313 496.361 97.8066 496.361 98.4156V106.795C496.361 107.404 496.855 107.898 497.464 107.898H504.079C504.688 107.898 505.182 107.404 505.182 106.795V98.4156C505.182 97.8066 504.688 97.313 504.079 97.313Z" fill="white" stroke="#0C38B7" stroke-width="0.374328"/>
<path d="M504.079 110.323H497.464C496.855 110.323 496.361 110.817 496.361 111.426V119.806C496.361 120.414 496.855 120.908 497.464 120.908H504.079C504.688 120.908 505.182 120.414 505.182 119.806V111.426C505.182 110.817 504.688 110.323 504.079 110.323Z" fill="white" stroke="#0C38B7" stroke-width="0.374328"/>
<path d="M504.079 123.334H497.464C496.855 123.334 496.361 123.828 496.361 124.437V132.816C496.361 133.425 496.855 133.919 497.464 133.919H504.079C504.688 133.919 505.182 133.425 505.182 132.816V124.437C505.182 123.828 504.688 123.334 504.079 123.334Z" fill="white" stroke="#0C38B7" stroke-width="0.374328"/>
<path d="M504.079 136.345H497.464C496.855 136.345 496.361 136.838 496.361 137.447V145.827C496.361 146.436 496.855 146.93 497.464 146.93H504.079C504.688 146.93 505.182 146.436 505.182 145.827V137.447C505.182 136.838 504.688 136.345 504.079 136.345Z" fill="white" stroke="#0C38B7" stroke-width="0.374328"/>
<path d="M504.079 149.355H497.464C496.855 149.355 496.361 149.849 496.361 150.458V158.838C496.361 159.447 496.855 159.94 497.464 159.94H504.079C504.688 159.94 505.182 159.447 505.182 158.838V150.458C505.182 149.849 504.688 149.355 504.079 149.355Z" fill="white" stroke="#0C38B7" stroke-width="0.374328"/>
<path d="M416.329 43.8374H300.777C300.107 43.8374 299.564 44.3804 299.564 45.0503V150.237C299.564 150.907 300.107 151.45 300.777 151.45H416.329C416.999 151.45 417.542 150.907 417.542 150.237V45.0503C417.542 44.3804 416.999 43.8374 416.329 43.8374Z" stroke="#E2EBF4" stroke-width="0.374328" stroke-dasharray="1.75 1.75"/>
<path d="M496.135 52.7686H316.192C315.583 52.7686 315.09 53.2622 315.09 53.8711V170.525C315.09 171.134 315.583 171.628 316.192 171.628H496.135C496.744 171.628 497.238 171.134 497.238 170.525V53.8711C497.238 53.2622 496.744 52.7686 496.135 52.7686Z" fill="white" stroke="#0C38B7" stroke-width="0.374328"/>
<path d="M429.545 122.011L484.233 122.011C487.4 122.011 489.967 119.444 489.967 116.277V110.544C489.967 107.377 487.4 104.81 484.233 104.81H429.545C426.378 104.81 423.811 107.377 423.811 110.544V116.277C423.811 119.444 426.378 122.011 429.545 122.011Z" fill="white" stroke="#E2EBF4" stroke-width="0.374328" stroke-linecap="round" stroke-linejoin="round"/>
<path d="M326.799 163.468H412.14C415.306 163.468 417.873 160.901 417.873 157.735V78.3483C417.873 75.1818 415.306 72.6148 412.14 72.6148L326.799 72.6148C323.633 72.6148 321.066 75.1818 321.066 78.3483V157.735C321.066 160.901 323.633 163.468 326.799 163.468Z" fill="white" stroke="#E2EBF4" stroke-width="0.374328" stroke-linecap="round" stroke-linejoin="round"/>
<path d="M429.545 142.74H484.233C487.4 142.74 489.967 140.173 489.967 137.006V131.273C489.967 128.106 487.4 125.539 484.233 125.539H429.545C426.378 125.539 423.811 128.106 423.811 131.273V137.006C423.811 140.173 426.378 142.74 429.545 142.74Z" fill="white" stroke="#1844BF" stroke-width="0.374328" stroke-linecap="round" stroke-linejoin="round"/>
<path d="M429.545 163.468H484.233C487.4 163.468 489.967 160.901 489.967 157.735V152.001C489.967 148.835 487.4 146.268 484.233 146.268H429.545C426.378 146.268 423.811 148.835 423.811 152.001V157.735C423.811 160.901 426.378 163.468 429.545 163.468Z" fill="white" stroke="#E2EBF4" stroke-width="0.374328" stroke-linecap="round" stroke-linejoin="round"/>
<path d="M307.365 171.627H507.155V174.935C507.155 177.006 505.476 178.684 503.406 178.684H311.114C309.043 178.684 307.365 177.006 307.365 174.935V171.627Z" fill="#1844BF" stroke="#0C38B7" stroke-width="0.374328" stroke-linejoin="round"/>
<path d="M433.742 119.513C437.093 119.513 439.809 116.823 439.809 113.506C439.809 110.188 437.093 107.498 433.742 107.498C430.392 107.498 427.676 110.188 427.676 113.506C427.676 116.823 430.392 119.513 433.742 119.513Z" fill="#E2EBF4"/>
<path fill-rule="evenodd" clip-rule="evenodd" d="M434.5 112.627L434.496 111.721L436.412 111.707L436.401 110.325L431.188 110.364L431.197 111.745L433.113 111.731L433.12 112.635C431.563 112.724 430.394 113.066 430.396 113.466C430.401 113.866 431.572 114.191 433.129 114.256L433.151 117.157L434.533 117.148L434.514 114.245C436.066 114.156 437.233 113.814 437.23 113.415C437.226 113.016 436.057 112.691 434.503 112.626L434.5 112.627ZM434.511 114C434.472 114.003 434.273 114.018 433.823 114.021C433.466 114.023 433.215 114.013 433.126 114.01C431.75 113.956 430.723 113.705 430.721 113.394C430.718 113.083 431.744 112.817 433.118 112.741L433.124 113.753C433.215 113.759 433.473 113.773 433.828 113.771C434.256 113.767 434.469 113.747 434.509 113.743L434.503 112.732C435.874 112.788 436.9 113.04 436.902 113.349C436.904 113.658 435.883 113.925 434.511 114Z" fill="#1844BF"/>
<path d="M433.802 161.056C437.185 161.056 439.928 158.34 439.928 154.989C439.928 151.639 437.185 148.923 433.802 148.923C430.418 148.923 427.676 151.639 427.676 154.989C427.676 158.34 430.418 161.056 433.802 161.056Z" fill="#FF952F"/>
<path fill-rule="evenodd" clip-rule="evenodd" d="M433.341 154.495C433.767 154.512 434.845 154.553 434.843 153.731C434.838 152.944 433.954 152.959 433.471 152.968C433.398 152.97 433.332 152.971 433.279 152.968V154.493C433.299 154.494 433.319 154.495 433.341 154.495ZM434.461 150.827L434.463 152.085C435.323 152.17 436.007 152.467 436.086 153.377C436.142 154.046 435.897 154.432 435.511 154.677C436.157 154.846 436.558 155.289 436.468 156.26C436.378 157.468 435.586 157.796 434.475 157.874V159.147L433.804 159.146V157.893C433.694 157.889 433.586 157.89 433.473 157.888C433.407 157.888 433.341 157.888 433.27 157.887L433.275 159.152L432.605 159.152L432.607 157.879C432.481 157.88 432.355 157.881 432.227 157.879C432.192 157.879 432.157 157.878 432.126 157.877H431.259L431.389 156.964C431.389 156.964 431.883 156.967 431.877 156.962C432.049 156.947 432.115 156.802 432.124 156.702L432.117 153.255C432.091 153.088 432.007 152.917 431.733 152.92C431.744 152.911 431.246 152.922 431.246 152.922L431.251 152.102L432.17 152.1C432.249 152.101 432.333 152.099 432.419 152.098C432.477 152.096 432.536 152.095 432.593 152.096V150.843L433.255 150.833L433.259 152.07C433.438 152.059 433.614 152.057 433.793 152.055L433.795 150.844L434.461 150.826V150.827ZM433.288 155.276L433.29 156.96C433.323 156.961 433.361 156.96 433.405 156.962C433.941 156.97 435.158 156.992 435.156 156.11C435.158 155.21 433.994 155.251 433.44 155.272C433.383 155.274 433.33 155.275 433.288 155.276Z" fill="white"/>
<path d="M433.742 140.185C437.093 140.185 439.809 137.469 439.809 134.118C439.809 130.768 437.093 128.052 433.742 128.052C430.392 128.052 427.676 130.768 427.676 134.118C427.676 137.469 430.392 140.185 433.742 140.185Z" fill="#1844BF"/>
<path d="M433.671 129.634L435.715 133.825L433.671 135.041L431.627 133.825L433.671 129.634Z" fill="white"/>
<path d="M433.671 138.207L431.627 134.778L433.671 135.921L435.715 134.778L433.671 138.207Z" fill="white"/>
<path d="M376.531 61.5889L470.692 61.5889C471.605 61.5889 472.346 60.8484 472.346 59.935V59.935C472.346 59.0216 471.605 58.2811 470.692 58.2811L376.531 58.2811C375.617 58.2811 374.877 59.0216 374.877 59.935C374.877 60.8484 375.617 61.5889 376.531 61.5889Z" fill="#E2EBF4"/>
<path d="M452.04 112.558H483.302C483.957 112.558 484.488 112.027 484.488 111.372C484.488 110.717 483.957 110.186 483.302 110.186H452.04C451.386 110.186 450.855 110.717 450.855 111.372C450.855 112.027 451.386 112.558 452.04 112.558Z" fill="#E2EBF4"/>
<path d="M452.04 116.827H465.191C465.846 116.827 466.377 116.296 466.377 115.641C466.377 114.986 465.846 114.456 465.191 114.456H452.04C451.385 114.456 450.854 114.986 450.854 115.641C450.854 116.296 451.385 116.827 452.04 116.827Z" fill="#E2EBF4"/>
<path d="M452.041 133.27H474.679C475.334 133.27 475.865 132.739 475.865 132.084C475.865 131.429 475.334 130.898 474.679 130.898H452.041C451.387 130.898 450.856 131.429 450.856 132.084C450.856 132.739 451.387 133.27 452.041 133.27Z" fill="#E2EBF4"/>
<path d="M452.04 137.539H478.343C478.998 137.539 479.529 137.008 479.529 136.353C479.529 135.698 478.998 135.167 478.343 135.167H452.04C451.385 135.167 450.854 135.698 450.854 136.353C450.854 137.008 451.385 137.539 452.04 137.539Z" fill="#E2EBF4"/>
<path d="M452.041 153.982H474.679C475.334 153.982 475.865 153.451 475.865 152.796C475.865 152.141 475.334 151.61 474.679 151.61H452.041C451.387 151.61 450.856 152.141 450.856 152.796C450.856 153.451 451.387 153.982 452.041 153.982Z" fill="#E2EBF4"/>
<path d="M452.04 158.251H478.343C478.998 158.251 479.529 157.72 479.529 157.065C479.529 156.41 478.998 155.879 478.343 155.879H452.04C451.385 155.879 450.854 156.41 450.854 157.065C450.854 157.72 451.385 158.251 452.04 158.251Z" fill="#E2EBF4"/>
<path d="M322.714 61.589C323.628 61.589 324.368 60.8486 324.368 59.9351C324.368 59.0217 323.628 58.2812 322.714 58.2812C321.801 58.2812 321.061 59.0217 321.061 59.9351C321.061 60.8486 321.801 61.589 322.714 61.589Z" fill="#E2EBF4"/>
<path d="M328.668 61.589C329.581 61.589 330.321 60.8486 330.321 59.9351C330.321 59.0217 329.581 58.2812 328.668 58.2812C327.754 58.2812 327.014 59.0217 327.014 59.9351C327.014 60.8486 327.754 61.589 328.668 61.589Z" fill="#E2EBF4"/>
<path d="M334.408 61.589C335.321 61.589 336.062 60.8486 336.062 59.9351C336.062 59.0217 335.321 58.2812 334.408 58.2812C333.494 58.2812 332.754 59.0217 332.754 59.9351C332.754 60.8486 333.494 61.589 334.408 61.589Z" fill="#E2EBF4"/>
<path fill-rule="evenodd" clip-rule="evenodd" d="M484.247 135.166C483.539 134.903 482.851 135.593 483.114 136.301L488.011 149.466C488.236 150.069 489.008 150.237 489.462 149.783L492.272 146.974L496.367 151.069C496.625 151.327 497.044 151.327 497.302 151.069L499.017 149.354C499.276 149.096 499.276 148.677 499.017 148.419L494.922 144.324L497.73 141.515C498.184 141.061 498.016 140.289 497.414 140.065L484.247 135.166Z" fill="white"/>
<path d="M492.264 146.973L492.498 146.739C492.368 146.61 492.159 146.61 492.031 146.739L492.264 146.973ZM494.915 144.323L494.681 144.089C494.551 144.219 494.551 144.428 494.681 144.557L494.915 144.323ZM483.417 136.185C483.252 135.742 483.684 135.311 484.125 135.476L484.357 134.856C483.382 134.494 482.434 135.442 482.795 136.415L483.417 136.185ZM488.315 149.351L483.417 136.185L482.795 136.415L487.695 149.581L488.315 149.351ZM489.221 149.548C488.937 149.832 488.456 149.727 488.315 149.351L487.695 149.581C488.004 150.409 489.065 150.641 489.689 150.016L489.221 149.548ZM492.031 146.739L489.221 149.548L489.689 150.016L492.498 147.207L492.031 146.739ZM496.593 150.835L492.498 146.739L492.031 147.207L496.126 151.302L496.593 150.835ZM497.061 150.835C496.933 150.964 496.723 150.964 496.593 150.835L496.126 151.302C496.514 151.69 497.14 151.69 497.528 151.302L497.061 150.835ZM498.776 149.12L497.061 150.835L497.528 151.302L499.244 149.588L498.776 149.12ZM498.776 148.652C498.904 148.781 498.904 148.991 498.776 149.12L499.244 149.588C499.63 149.2 499.63 148.572 499.244 148.184L498.776 148.652ZM494.681 144.557L498.776 148.652L499.244 148.184L495.149 144.089L494.681 144.557ZM497.489 141.281L494.681 144.089L495.149 144.557L497.956 141.749L497.489 141.281ZM497.292 140.374C497.667 140.514 497.773 140.997 497.489 141.281L497.956 141.749C498.582 141.124 498.351 140.062 497.522 139.754L497.292 140.374ZM484.125 135.476L497.292 140.374L497.522 139.754L484.357 134.856L484.125 135.476Z" fill="#0C38B7"/>
<path d="M488.652 95.3286V74.5999C488.652 73.5038 487.764 72.6152 486.668 72.6152H425.805C424.709 72.6152 423.82 73.5038 423.82 74.5999V95.3286C423.82 96.4247 424.709 97.3133 425.805 97.3133H486.668C487.764 97.3133 488.652 96.4247 488.652 95.3286Z" fill="white" stroke="#0C38B7" stroke-width="0.374328"/>
<path d="M428.439 76.8667V78.35C428.439 78.5936 428.637 78.791 428.88 78.791H451.652C451.896 78.791 452.093 78.5936 452.093 78.35V76.8667C452.093 76.6231 451.896 76.4257 451.652 76.4257H428.88C428.637 76.4257 428.439 76.6231 428.439 76.8667Z" fill="white" stroke="#E2EBF4" stroke-width="0.374328"/>
<path d="M428.439 81.7285V83.2118C428.439 83.4554 428.637 83.6528 428.88 83.6528H456.251C456.495 83.6528 456.692 83.4554 456.692 83.2118V81.7285C456.692 81.4849 456.495 81.2875 456.251 81.2875H428.88C428.637 81.2875 428.439 81.4849 428.439 81.7285Z" fill="white" stroke="#E2EBF4" stroke-width="0.374328"/>
<path d="M477.459 75.2894V77.0355C477.459 77.2791 477.656 77.4766 477.9 77.4766H486.348C486.592 77.4766 486.789 77.2791 486.789 77.0355V75.2894C486.789 75.0458 486.592 74.8484 486.348 74.8484H477.9C477.656 74.8484 477.459 75.0458 477.459 75.2894Z" fill="#1844BF"/>
<path d="M477.853 78.3961C477.635 78.3961 477.459 78.5726 477.459 78.7903C477.459 79.008 477.635 79.1846 477.853 79.1846H486.395C486.613 79.1846 486.789 79.008 486.789 78.7903C486.789 78.5726 486.613 78.3961 486.395 78.3961H477.853Z" fill="#1844BF"/>
<path d="M477.459 80.5458V81.1093C477.459 81.3528 477.656 81.5503 477.9 81.5503H486.348C486.592 81.5503 486.789 81.3528 486.789 81.1093V80.5458C486.789 80.3023 486.592 80.1048 486.348 80.1048H477.9C477.656 80.1048 477.459 80.3023 477.459 80.5458Z" fill="#1844BF"/>
<path d="M477.459 86.4594V87.0228C477.459 87.2664 477.656 87.4639 477.9 87.4639H486.348C486.592 87.4639 486.789 87.2664 486.789 87.0228V86.4594C486.789 86.2158 486.592 86.0184 486.348 86.0184H477.9C477.656 86.0184 477.459 86.2158 477.459 86.4594Z" fill="#1844BF"/>
<path d="M477.853 91.7999C477.635 91.7999 477.459 91.9764 477.459 92.1941C477.459 92.4119 477.635 92.5884 477.853 92.5884H486.395C486.613 92.5884 486.789 92.4119 486.789 92.1941C486.789 91.9764 486.613 91.7999 486.395 91.7999H477.853Z" fill="#1844BF"/>
<path d="M477.459 93.9491V94.6439C477.459 94.8875 477.656 95.085 477.9 95.085H486.348C486.592 95.085 486.789 94.8875 486.789 94.6439V93.9491C486.789 93.7055 486.592 93.5081 486.348 93.5081H477.9C477.656 93.5081 477.459 93.7055 477.459 93.9491Z" fill="#1844BF"/>
<path d="M477.459 82.9107V83.08C477.459 83.3235 477.656 83.521 477.9 83.521H486.348C486.592 83.521 486.789 83.3235 486.789 83.08V82.9107C486.789 82.6672 486.592 82.4697 486.348 82.4697H477.9C477.656 82.4697 477.459 82.6672 477.459 82.9107Z" fill="#1844BF"/>
<path d="M477.459 88.8249V88.8627C477.459 89.1063 477.656 89.3037 477.9 89.3037H486.348C486.592 89.3037 486.789 89.1063 486.789 88.8627V88.8249C486.789 88.5813 486.592 88.3838 486.348 88.3838H477.9C477.656 88.3838 477.459 88.5813 477.459 88.8249Z" fill="#1844BF"/>
<path d="M477.788 84.4411C477.606 84.4411 477.459 84.5882 477.459 84.7696C477.459 84.9511 477.606 85.0981 477.788 85.0981H486.461C486.642 85.0981 486.789 84.9511 486.789 84.7696C486.789 84.5882 486.642 84.4411 486.461 84.4411H477.788Z" fill="#1844BF"/>
<path d="M477.853 90.2233C477.635 90.2233 477.459 90.3997 477.459 90.6175C477.459 90.8352 477.635 91.0117 477.853 91.0117H486.395C486.613 91.0117 486.789 90.8352 486.789 90.6175C486.789 90.3997 486.613 90.2233 486.395 90.2233H477.853Z" fill="#1844BF"/>
<path d="M437.648 92.6363V92.9369C437.648 93.1805 437.846 93.3779 438.089 93.3779H444.041C444.284 93.3779 444.482 93.1805 444.482 92.9369V92.6363C444.482 92.3927 444.284 92.1952 444.041 92.1952H438.089C437.846 92.1952 437.648 92.3927 437.648 92.6363Z" fill="white" stroke="#E2EBF4" stroke-width="0.374328"/>
<path d="M428.439 92.6363V92.9369C428.439 93.1805 428.637 93.3779 428.88 93.3779H434.832C435.075 93.3779 435.273 93.1805 435.273 92.9369V92.6363C435.273 92.3927 435.075 92.1952 434.832 92.1952H428.88C428.637 92.1952 428.439 92.3927 428.439 92.6363Z" fill="white" stroke="#E2EBF4" stroke-width="0.374328"/>
<path d="M449.078 92.6358V92.9364C449.078 93.18 449.276 93.3774 449.519 93.3774H462.041C462.284 93.3774 462.482 93.18 462.482 92.9364V92.6358C462.482 92.3922 462.284 92.1947 462.041 92.1947H449.519C449.276 92.1947 449.078 92.3922 449.078 92.6358Z" fill="white" stroke="#E2EBF4" stroke-width="0.374328"/>
<path d="M474.611 73.2715V96.5966" stroke="#0C38B7" stroke-width="0.374328" stroke-linecap="round" stroke-dasharray="1.87 1.25"/>
<path d="M369.423 148.226C385.325 148.226 398.215 135.336 398.215 119.434C398.215 103.533 385.325 90.6421 369.423 90.6421C353.522 90.6421 340.631 103.533 340.631 119.434C340.631 135.336 353.522 148.226 369.423 148.226Z" fill="white" stroke="#0C38B7" stroke-width="0.374328"/>
<path d="M369.405 160.08C391.852 160.08 410.05 141.882 410.05 119.435C410.05 96.9869 391.852 78.7896 369.405 78.7896C346.957 78.7896 328.76 96.9869 328.76 119.435C328.76 141.882 346.957 160.08 369.405 160.08Z" stroke="#0C38B7" stroke-width="0.374328" stroke-dasharray="0.75 0.75"/>
<path fill-rule="evenodd" clip-rule="evenodd" d="M366.807 93.9233C368.145 91.9093 370.551 88.0291 370.551 86.1889C370.551 83.6408 368.485 81.5752 365.938 81.5752C363.389 81.5752 361.322 83.6408 361.322 86.1889C361.322 88.0291 363.728 91.9093 365.067 93.9233C365.486 94.5536 366.388 94.5536 366.807 93.9233ZM366.01 88.3127C367.223 88.3127 368.207 87.329 368.207 86.1157C368.207 84.9022 367.223 83.9186 366.01 83.9186C364.795 83.9186 363.812 84.9022 363.812 86.1157C363.812 87.329 364.795 88.3127 366.01 88.3127Z" fill="white"/>
<path d="M370.237 86.1891C370.237 86.5887 370.102 87.1311 369.859 87.7742C369.621 88.4104 369.284 89.1173 368.905 89.8364C368.144 91.2742 367.213 92.7374 366.547 93.7405L367.099 94.1066C367.771 93.0957 368.713 91.6118 369.489 90.1458C369.877 89.4133 370.226 88.6792 370.479 88.0075C370.73 87.3424 370.898 86.7097 370.898 86.1891H370.237ZM365.954 81.9062C368.318 81.9062 370.237 83.8236 370.237 86.1891H370.898C370.898 83.4584 368.684 81.2446 365.954 81.2446V81.9062ZM361.669 86.1891C361.669 83.8236 363.588 81.9062 365.954 81.9062V81.2446C363.222 81.2446 361.008 83.4584 361.008 86.1891H361.669ZM365.359 93.7405C364.693 92.7374 363.762 91.2742 363.001 89.8364C362.622 89.1173 362.285 88.4104 362.046 87.7742C361.804 87.1311 361.669 86.5887 361.669 86.1891H361.008C361.008 86.7097 361.175 87.3424 361.427 88.0075C361.68 88.6792 362.029 89.4133 362.417 90.1458C363.193 91.6118 364.137 93.0957 364.807 94.1066L365.359 93.7405ZM366.547 93.7405C366.261 94.1738 365.645 94.1738 365.359 93.7405L364.807 94.1066C365.356 94.9339 366.549 94.9339 367.099 94.1066L366.547 93.7405ZM367.892 86.1159C367.892 87.1466 367.057 87.9821 366.027 87.9821V88.6437C367.423 88.6437 368.554 87.512 368.554 86.1159H367.892ZM366.027 84.2496C367.057 84.2496 367.892 85.0852 367.892 86.1159H368.554C368.554 84.7198 367.423 83.5881 366.027 83.5881V84.2496ZM364.159 86.1159C364.159 85.0852 364.995 84.2496 366.027 84.2496V83.5881C364.631 83.5881 363.497 84.7198 363.497 86.1159H364.159ZM366.027 87.9821C364.995 87.9821 364.159 87.1466 364.159 86.1159H363.497C363.497 87.512 364.631 88.6437 366.027 88.6437V87.9821Z" fill="#FF952F"/>
<path d="M369.144 90.6167C369.221 92.4155 368.959 97.6706 367.497 98.1249C365.671 98.6932 363.047 98.1818 363.274 99.0908C363.503 99.9997 362.989 101.42 361.847 101.988C360.707 102.556 358.938 104.885 358.425 106.135C357.911 107.384 355.628 106.646 355.057 108.123C354.486 109.6 353.8 112.44 353.059 112.384C352.318 112.327 351.974 108.577 350.091 108.577C348.208 108.577 347.068 111.077 347.524 111.986C347.981 112.895 349.864 116.814 349.178 117.894C348.495 118.973 355.456 122.097 357.168 121.927C358.881 121.757 360.42 119.598 363.96 121.586C367.497 123.574 370.35 127.551 371.834 128.119C373.318 128.687 379.424 129.766 380.28 131.641C381.136 133.516 379.367 135.845 377.369 137.663C375.371 139.48 373.545 139.878 372.69 141.525C371.834 143.173 370.123 145.161 369.609 145.672C369.197 146.081 367.353 147.399 366.498 148.062" stroke="#0C38B7" stroke-width="0.374328" stroke-linecap="round"/>
<path d="M360.691 146.849C360.464 146.45 361.767 140.808 360.691 139.099C359.615 137.389 353.892 134.996 353.44 132.432C353.18 130.957 353.489 128.608 353.837 126.805C354.034 125.792 353.484 124.764 352.534 124.36C349.899 123.236 346.093 121.224 344.095 118.812C341.603 115.804 341.85 111.405 342.377 109.581" stroke="#0C38B7" stroke-width="0.374328" stroke-linecap="round"/>
<path d="M356.031 94.4048C356.422 95.1519 357.491 96.5804 358.658 96.318C359.826 96.0556 361.474 92.9588 362.095 91.8291" stroke="#0C38B7" stroke-width="0.374328" stroke-linecap="round"/>
<path d="M376.662 91.7188C378.208 93.665 381.816 98.6227 381.677 99.3553C381.507 100.271 381.849 101.702 382.307 102.332C382.766 102.962 379.732 105.08 380.133 109.773C380.391 112.806 382.411 115.919 383.95 117.778C384.51 118.453 385.465 118.584 386.261 118.214C388.07 117.371 390.438 116.511 391.119 117.158C392.209 118.188 393.638 124.771 392.378 130.037C391.373 134.25 390.425 138.369 390.003 139.571" stroke="#0C38B7" stroke-width="0.374328" stroke-linecap="round"/>
<path fill-rule="evenodd" clip-rule="evenodd" d="M387.098 112.667C388.436 110.653 390.842 106.773 390.842 104.933C390.842 102.385 388.776 100.319 386.229 100.319C383.68 100.319 381.613 102.385 381.613 104.933C381.613 106.773 384.019 110.653 385.358 112.667C385.777 113.298 386.679 113.298 387.098 112.667ZM386.301 107.057C387.514 107.057 388.498 106.073 388.498 104.86C388.498 103.646 387.514 102.663 386.301 102.663C385.086 102.663 384.103 103.646 384.103 104.86C384.103 106.073 385.086 107.057 386.301 107.057Z" fill="white"/>
<path d="M390.52 104.933C390.52 105.333 390.385 105.875 390.143 106.518C389.904 107.154 389.567 107.861 389.188 108.581C388.427 110.018 387.496 111.482 386.83 112.485L387.382 112.851C388.054 111.84 388.996 110.356 389.772 108.89C390.16 108.157 390.509 107.423 390.762 106.752C391.014 106.087 391.181 105.454 391.181 104.933H390.52ZM386.237 100.65C388.601 100.65 390.52 102.568 390.52 104.933H391.181C391.181 102.203 388.967 99.9888 386.237 99.9888V100.65ZM381.953 104.933C381.953 102.568 383.871 100.65 386.237 100.65V99.9888C383.505 99.9888 381.291 102.203 381.291 104.933H381.953ZM385.642 112.485C384.976 111.482 384.045 110.018 383.285 108.581C382.905 107.861 382.568 107.154 382.33 106.518C382.087 105.875 381.953 105.333 381.953 104.933H381.291C381.291 105.454 381.459 106.087 381.71 106.752C381.964 107.423 382.312 108.157 382.7 108.89C383.476 110.356 384.42 111.84 385.091 112.851L385.642 112.485ZM386.83 112.485C386.544 112.918 385.929 112.918 385.642 112.485L385.091 112.851C385.64 113.678 386.833 113.678 387.382 112.851L386.83 112.485ZM388.176 104.86C388.176 105.891 387.34 106.726 386.31 106.726V107.388C387.706 107.388 388.837 106.256 388.837 104.86H388.176ZM386.31 102.994C387.34 102.994 388.176 103.829 388.176 104.86H388.837C388.837 103.464 387.706 102.332 386.31 102.332V102.994ZM384.442 104.86C384.442 103.829 385.278 102.994 386.31 102.994V102.332C384.914 102.332 383.781 103.464 383.781 104.86H384.442ZM386.31 106.726C385.278 106.726 384.442 105.891 384.442 104.86H383.781C383.781 106.256 384.914 107.388 386.31 107.388V106.726Z" fill="#FF952F"/>
<path fill-rule="evenodd" clip-rule="evenodd" d="M367.697 142.658C369.036 140.644 371.442 136.763 371.442 134.923C371.442 132.375 369.375 130.31 366.828 130.31C364.279 130.31 362.213 132.375 362.213 134.923C362.213 136.763 364.619 140.644 365.957 142.658C366.376 143.288 367.278 143.288 367.697 142.658ZM366.901 137.047C368.114 137.047 369.098 136.063 369.098 134.85C369.098 133.637 368.114 132.653 366.901 132.653C365.686 132.653 364.703 133.637 364.703 134.85C364.703 136.063 365.686 137.047 366.901 137.047Z" fill="white"/>
<path d="M371.102 134.923C371.102 135.323 370.967 135.866 370.725 136.509C370.487 137.145 370.149 137.852 369.77 138.571C369.009 140.009 368.078 141.472 367.412 142.475L367.964 142.841C368.636 141.83 369.578 140.346 370.354 138.88C370.742 138.148 371.091 137.414 371.344 136.742C371.596 136.077 371.763 135.444 371.763 134.923H371.102ZM366.819 130.641C369.183 130.641 371.102 132.558 371.102 134.923H371.763C371.763 132.193 369.549 129.979 366.819 129.979V130.641ZM362.535 134.923C362.535 132.558 364.453 130.641 366.819 130.641V129.979C364.087 129.979 361.873 132.193 361.873 134.923H362.535ZM366.224 142.475C365.558 141.472 364.627 140.009 363.867 138.571C363.487 137.852 363.15 137.145 362.912 136.509C362.669 135.866 362.535 135.323 362.535 134.923H361.873C361.873 135.444 362.041 136.077 362.292 136.742C362.546 137.414 362.894 138.148 363.282 138.88C364.058 140.346 365.002 141.83 365.673 142.841L366.224 142.475ZM367.412 142.475C367.126 142.908 366.511 142.908 366.224 142.475L365.673 142.841C366.222 143.668 367.415 143.668 367.964 142.841L367.412 142.475ZM368.758 134.85C368.758 135.881 367.922 136.716 366.892 136.716V137.378C368.288 137.378 369.419 136.246 369.419 134.85H368.758ZM366.892 132.984C367.922 132.984 368.758 133.82 368.758 134.85H369.419C369.419 133.454 368.288 132.322 366.892 132.322V132.984ZM365.024 134.85C365.024 133.82 365.86 132.984 366.892 132.984V132.322C365.496 132.322 364.363 133.454 364.363 134.85H365.024ZM366.892 136.716C365.86 136.716 365.024 135.881 365.024 134.85H364.363C364.363 136.246 365.496 137.378 366.892 137.378V136.716Z" fill="#FF952F"/>
<path d="M304.313 172.73H301.005C300.518 172.73 300.123 173.125 300.123 173.612V177.361C300.123 177.848 300.518 178.243 301.005 178.243H304.313C304.8 178.243 305.195 177.848 305.195 177.361V173.612C305.195 173.125 304.8 172.73 304.313 172.73Z" fill="white" stroke="#0C38B7" stroke-width="0.374328" stroke-linejoin="round"/>
<path d="M323.698 172.73H320.39C319.903 172.73 319.508 173.125 319.508 173.612V177.361C319.508 177.848 319.903 178.243 320.39 178.243H323.698C324.185 178.243 324.58 177.848 324.58 177.361V173.612C324.58 173.125 324.185 172.73 323.698 172.73Z" fill="white" stroke="#0C38B7" stroke-width="0.374328" stroke-linejoin="round"/>
<path fill-rule="evenodd" clip-rule="evenodd" d="M303.736 103.004C303.736 101.191 305.207 99.7219 307.022 99.7219L317.993 99.7217C319.808 99.7217 321.279 101.191 321.279 103.004V124.469C321.279 126.282 319.808 127.751 317.993 127.751L307.022 127.751C305.207 127.751 303.736 126.282 303.736 124.469V103.004ZM307.022 101.141C305.992 101.141 305.159 101.975 305.159 103.004V124.469C305.159 125.498 305.992 126.332 307.022 126.332L317.993 126.332C319.023 126.332 319.856 125.498 319.856 124.469V103.004C319.856 101.975 319.023 101.141 317.993 101.141L307.022 101.141Z" fill="#1844BF" stroke="#0C38B7" stroke-width="0.374328" stroke-linejoin="round"/>
<path d="M324.288 119.613H300.549C297.017 119.613 294.154 122.476 294.154 126.008V166.383C294.154 169.915 297.017 172.778 300.549 172.778H324.288C327.82 172.778 330.683 169.915 330.683 166.383V126.008C330.683 122.476 327.82 119.613 324.288 119.613Z" fill="white" stroke="#0C38B7" stroke-width="0.374328"/>
<path d="M305.006 127.66C305.006 126.312 303.913 125.219 302.564 125.219C301.216 125.219 300.123 126.312 300.123 127.66V164.731C300.123 166.08 301.216 167.173 302.564 167.173C303.913 167.173 305.006 166.08 305.006 164.731V127.66Z" fill="white" stroke="#E2EBF4" stroke-width="0.374328"/>
<path d="M314.92 127.66C314.92 126.312 313.827 125.219 312.478 125.219C311.13 125.219 310.037 126.312 310.037 127.66V164.731C310.037 166.08 311.13 167.173 312.478 167.173C313.827 167.173 314.92 166.08 314.92 164.731V127.66Z" fill="white" stroke="#E2EBF4" stroke-width="0.374328"/>
<path d="M324.883 127.66C324.883 126.312 323.79 125.219 322.441 125.219C321.093 125.219 320 126.312 320 127.66V164.731C320 166.08 321.093 167.173 322.441 167.173C323.79 167.173 324.883 166.08 324.883 164.731V127.66Z" fill="white" stroke="#E2EBF4" stroke-width="0.374328"/>
<path d="M316.729 98.6362H308.265C307.656 98.6362 307.162 99.1299 307.162 99.7388V100.97C307.162 101.578 307.656 102.072 308.265 102.072H316.729C317.338 102.072 317.831 101.578 317.831 100.97V99.7388C317.831 99.1299 317.338 98.6362 316.729 98.6362Z" fill="white" stroke="#0C38B7" stroke-width="0.374328"/>
<path d="M508.134 247.807H362.151C361.724 247.807 361.379 248.153 361.379 248.579V357.294C361.379 357.721 361.724 358.066 362.151 358.066H508.134C508.56 358.066 508.905 357.721 508.905 357.294V248.579C508.905 248.153 508.56 247.807 508.134 247.807Z" stroke="#FF952F" stroke-width="0.374328"/>
<path d="M351.572 247.256H332.167C331.314 247.256 330.623 247.947 330.623 248.799V356.633C330.623 357.485 331.314 358.176 332.167 358.176H351.572C352.425 358.176 353.116 357.485 353.116 356.633V248.799C353.116 247.947 352.425 247.256 351.572 247.256Z" fill="#E2EBF4"/>
<path d="M498.211 258.061H318.269C317.66 258.061 317.166 258.555 317.166 259.164V375.818C317.166 376.427 317.66 376.92 318.269 376.92H498.211C498.82 376.92 499.314 376.427 499.314 375.818V259.164C499.314 258.555 498.82 258.061 498.211 258.061Z" fill="white" stroke="#0C38B7" stroke-width="0.374328"/>
<path d="M408.916 334.36V292.903C408.916 291.563 407.83 290.477 406.49 290.477H338.571C337.231 290.477 336.145 291.563 336.145 292.903V334.36C336.145 335.7 337.231 336.786 338.571 336.786H406.49C407.83 336.786 408.916 335.7 408.916 334.36Z" fill="white" stroke="#E2EBF4" stroke-width="0.374328" stroke-linecap="round" stroke-linejoin="round"/>
<path d="M427.096 364.351V276.144C427.096 275.474 426.553 274.931 425.883 274.931H329.296C328.626 274.931 328.083 275.474 328.083 276.144V364.351C328.083 365.021 328.626 365.564 329.296 365.564H425.883C426.553 365.564 427.096 365.021 427.096 364.351Z" stroke="#E2EBF4" stroke-width="0.374328" stroke-dasharray="1.75 1.75"/>
<path d="M382.761 266.22H476.922C477.836 266.22 478.576 265.48 478.576 264.566V264.566C478.576 263.653 477.836 262.912 476.922 262.912H382.761C381.848 262.912 381.107 263.653 381.107 264.566C381.107 265.48 381.848 266.22 382.761 266.22Z" fill="#E2EBF4"/>
<path d="M328.953 266.22C329.866 266.22 330.607 265.48 330.607 264.566C330.607 263.653 329.866 262.913 328.953 262.913C328.039 262.913 327.299 263.653 327.299 264.566C327.299 265.48 328.039 266.22 328.953 266.22Z" fill="#E2EBF4"/>
<path d="M334.923 266.22C335.837 266.22 336.577 265.48 336.577 264.566C336.577 263.653 335.837 262.913 334.923 262.913C334.01 262.913 333.27 263.653 333.27 264.566C333.27 265.48 334.01 266.22 334.923 266.22Z" fill="#E2EBF4"/>
<path d="M340.656 266.22C341.569 266.22 342.31 265.48 342.31 264.566C342.31 263.653 341.569 262.913 340.656 262.913C339.742 262.913 339.002 263.653 339.002 264.566C339.002 265.48 339.742 266.22 340.656 266.22Z" fill="#E2EBF4"/>
<path d="M495.766 247.577L490.152 241.963L484.539 247.577L490.152 253.19L495.766 247.577Z" fill="#FF952F"/>
<path d="M440.878 279.672H475.499C476.23 279.672 476.822 279.079 476.822 278.349C476.822 277.618 476.23 277.026 475.499 277.026H440.878C440.147 277.026 439.555 277.618 439.555 278.349C439.555 279.079 440.147 279.672 440.878 279.672Z" fill="#E2EBF4"/>
<path d="M440.871 286.508H465.569C466.3 286.508 466.893 285.915 466.893 285.185C466.893 284.454 466.3 283.862 465.569 283.862H440.871C440.141 283.862 439.548 284.454 439.548 285.185C439.548 285.915 440.141 286.508 440.871 286.508Z" fill="#E2EBF4"/>
<path d="M440.871 297.754H465.569C466.3 297.754 466.893 297.162 466.893 296.431C466.893 295.701 466.3 295.108 465.569 295.108H440.871C440.141 295.108 439.548 295.701 439.548 296.431C439.548 297.162 440.141 297.754 440.871 297.754Z" fill="#E2EBF4"/>
<path d="M440.886 304.59H471.097C471.828 304.59 472.42 303.998 472.42 303.267C472.42 302.536 471.828 301.944 471.097 301.944H440.886C440.155 301.944 439.563 302.536 439.563 303.267C439.563 303.998 440.155 304.59 440.886 304.59Z" fill="#E2EBF4"/>
<path d="M487.203 297.754H480.807C480.077 297.754 479.484 297.162 479.484 296.431C479.484 295.701 480.077 295.108 480.807 295.108H487.203C487.933 295.108 488.526 295.701 488.526 296.431C488.526 297.162 487.933 297.754 487.203 297.754Z" fill="#FF952F"/>
<path d="M487.203 279.672H480.807C480.077 279.672 479.484 279.079 479.484 278.349C479.484 277.618 480.077 277.026 480.807 277.026H487.203C487.933 277.026 488.526 277.618 488.526 278.349C488.526 279.079 487.933 279.672 487.203 279.672Z" fill="#FF952F"/>
<path d="M462.937 361.705C474.872 361.705 484.548 352.177 484.548 340.425C484.548 328.672 474.872 319.145 462.937 319.145C451.002 319.145 441.326 328.672 441.326 340.425C441.326 352.177 451.002 361.705 462.937 361.705Z" fill="#1844BF"/>
<path d="M453.73 328.918C454.473 328.175 454.473 326.969 453.73 326.225C452.986 325.481 451.78 325.481 451.036 326.225L451.036 326.225C450.292 326.969 450.292 328.175 451.036 328.918C451.78 329.662 452.986 329.662 453.73 328.918L453.73 328.918Z" fill="white"/>
<path d="M447.754 341.906C448.85 340.81 448.85 339.032 447.754 337.936C446.658 336.84 444.881 336.84 443.785 337.936C442.689 339.032 442.689 340.81 443.785 341.906C444.881 343.002 446.658 343.002 447.754 341.906Z" fill="white"/>
<path d="M464.263 323.555C464.263 322.824 463.671 322.232 462.94 322.232C462.21 322.232 461.617 322.824 461.617 323.555C461.617 324.286 462.21 324.878 462.94 324.878C463.671 324.878 464.263 324.286 464.263 323.555Z" fill="white"/>
<path d="M462.927 357.074C472.426 357.074 480.127 349.57 480.127 340.315C480.127 331.059 472.426 323.555 462.927 323.555C453.427 323.555 445.727 331.059 445.727 340.315C445.727 349.57 453.427 357.074 462.927 357.074Z" stroke="white" stroke-width="0.249552"/>
<path d="M457.199 339.432L461.786 343.843L468.666 337.227" stroke="white" stroke-width="1.24776" stroke-linecap="round" stroke-linejoin="round"/>
<path d="M414.631 328.627V286.287C414.631 285.191 413.742 284.303 412.646 284.303H343.845C342.748 284.303 341.86 285.191 341.86 286.287V328.627C341.86 329.723 342.748 330.612 343.845 330.612H412.646C413.742 330.612 414.631 329.723 414.631 328.627Z" fill="white" stroke="#0C38B7" stroke-width="0.374328"/>
<path d="M367.875 284.303H365.229V330.612H367.875V284.303Z" stroke="#0C38B7" stroke-width="0.374328" stroke-linejoin="round"/>
<path d="M414.631 317.16V314.514H341.86V317.16H414.631Z" stroke="#0C38B7" stroke-width="0.374328" stroke-linejoin="round"/>
<path d="M359.064 321.35C361.755 319.434 365.947 317.04 368.582 311.462C370.456 307.495 372.236 305.462 375.804 306.73C379.374 307.998 379.312 313.994 373.766 315.941C370.875 316.955 367.18 315.539 366.783 315.285" stroke="#FF952F" stroke-width="1.74686" stroke-linecap="round"/>
<path d="M374.281 321.35C371.59 319.434 367.398 317.04 364.763 311.462C362.889 307.495 361.109 305.462 357.541 306.73C353.971 307.998 354.033 313.994 359.579 315.941C362.47 316.955 366.276 315.76 366.673 315.506" stroke="#FF952F" stroke-width="1.74686" stroke-linecap="round"/>
<path d="M359.064 321.35C361.755 319.434 365.947 317.04 368.582 311.462C370.456 307.495 372.236 305.462 375.804 306.73C379.374 307.998 379.312 313.994 373.766 315.941" stroke="white" stroke-width="0.374328" stroke-linecap="round"/>
<path d="M374.269 321.35C372.781 320.29 370.829 319.082 368.939 317.27M359.567 315.941C354.021 313.994 354.092 308.559 357.53 306.73C358.97 305.963 360.416 306.261 361.479 306.929" stroke="white" stroke-width="0.374328" stroke-linecap="round"/>
<path fill-rule="evenodd" clip-rule="evenodd" d="M344.072 374.214C344.072 385.141 349.83 394 356.933 394C357.03 394 357.125 393.998 357.22 393.995V394H365.222V389.344C368.018 385.714 369.796 380.283 369.796 374.214C369.796 368.145 368.018 362.713 365.222 359.084V354.428H357.22V354.433C357.125 354.429 357.03 354.428 356.933 354.428C349.83 354.428 344.072 363.286 344.072 374.214Z" fill="#0C39AC"/>
<path d="M352.072 374.214C352.072 385.141 357.83 394 364.933 394C372.037 394 377.795 385.141 377.795 374.214C377.795 363.286 372.037 354.428 364.933 354.428C357.83 354.428 352.072 363.286 352.072 374.214Z" fill="#1844BF"/>
<path d="M354.642 374.164C354.642 382.872 359.283 389.931 365.007 389.931C370.731 389.931 375.371 382.872 375.371 374.164C375.371 365.456 370.731 358.397 365.007 358.397C359.283 358.397 354.642 365.456 354.642 374.164Z" stroke="white" stroke-width="0.249552"/>
<path fill-rule="evenodd" clip-rule="evenodd" d="M365.918 371.393L365.907 369.142L369.616 369.107L369.599 365.674L359.501 365.769L359.521 369.203L363.23 369.167L363.241 371.415C360.229 371.637 357.966 372.485 357.971 373.48C357.975 374.474 360.246 375.281 363.261 375.443L363.301 382.654L365.982 382.63L365.942 375.416C368.95 375.195 371.208 374.345 371.202 373.354C371.195 372.362 368.93 371.555 365.923 371.391L365.918 371.393ZM365.936 374.808C365.863 374.814 365.475 374.851 364.606 374.858C363.916 374.863 363.429 374.839 363.257 374.832C360.593 374.697 358.599 374.073 358.597 373.301C358.593 372.529 360.577 371.868 363.239 371.679L363.252 374.192C363.426 374.208 363.925 374.244 364.615 374.238C365.442 374.229 365.854 374.177 365.931 374.169L365.918 371.655C368.575 371.794 370.562 372.42 370.567 373.188C370.573 373.957 368.593 374.62 365.936 374.808Z" fill="white"/>
<path fill-rule="evenodd" clip-rule="evenodd" d="M367.459 374.214C367.459 385.141 373.219 394 380.322 394C380.417 394 380.511 393.998 380.606 393.995V394H388.609V389.344C391.407 385.714 393.182 380.283 393.182 374.214C393.182 368.145 391.407 362.713 388.609 359.084V354.428H380.606V354.433C380.511 354.429 380.417 354.428 380.322 354.428C373.219 354.428 367.459 363.286 367.459 374.214Z" fill="#F18721"/>
<path d="M375.461 374.214C375.461 385.141 381.219 394 388.322 394C395.425 394 401.184 385.141 401.184 374.214C401.184 363.286 395.425 354.428 388.322 354.428C381.219 354.428 375.461 363.286 375.461 374.214Z" fill="#FF952F"/>
<path d="M378.021 374.164C378.021 382.872 382.662 389.931 388.386 389.931C394.11 389.931 398.75 382.872 398.75 374.164C398.75 365.456 394.11 358.397 388.386 358.397C382.662 358.397 378.021 365.456 378.021 374.164Z" stroke="white" stroke-width="0.249552"/>
<path d="M388.449 363.689L393.303 374.039L388.449 377.043L383.596 374.039L388.449 363.689Z" fill="white"/>
<path d="M388.449 384.859L383.596 376.391L388.449 379.213L393.303 376.391L388.449 384.859Z" fill="white"/>
<path fill-rule="evenodd" clip-rule="evenodd" d="M390.854 374.214C390.854 385.141 396.611 394 403.714 394C403.809 394 403.906 393.998 404.001 393.995V394H412.003V389.344C414.8 385.714 416.575 380.283 416.575 374.214C416.575 368.144 414.8 362.713 412.003 359.084V354.428H404.001V354.433C403.906 354.429 403.809 354.428 403.714 354.428C396.611 354.428 390.854 363.286 390.854 374.214Z" fill="#CAD8E5"/>
<path d="M398.838 374.214C398.838 385.141 404.596 394 411.699 394C418.802 394 424.561 385.141 424.561 374.214C424.561 363.286 418.802 354.428 411.699 354.428C404.596 354.428 398.838 363.286 398.838 374.214Z" fill="#E2EBF4"/>
<path d="M401.398 374.164C401.398 382.872 406.039 389.931 411.763 389.931C417.487 389.931 422.127 382.872 422.127 374.164C422.127 365.456 417.487 358.397 411.763 358.397C406.039 358.397 401.398 365.456 401.398 374.164Z" stroke="white" stroke-width="0.249552"/>
<path d="M409.937 364.51H413.203L412.154 371.269L413.236 370.597L412.791 373.421L411.717 374.088L411.166 377.626H416.299L415.719 381.331H407.324L408.101 376.331L407.152 376.92L407.598 374.097L408.539 373.513L409.937 364.51Z" fill="#FF952F"/>
<path d="M437.059 244.533C436.387 245.33 436.294 246.463 436.784 247.933C437.275 249.404 438.102 250.721 439.264 251.885L442.965 255.583L439.289 271.572C439.211 271.863 439.304 272.116 439.564 272.33L442.504 274.536C442.612 274.628 442.757 274.674 442.94 274.674C443.002 274.674 443.055 274.666 443.101 274.651C443.331 274.605 443.492 274.482 443.584 274.283L449.993 262.613L455.942 268.563L454.725 273.02C454.648 273.28 454.709 273.517 454.908 273.732L457.113 275.937C457.252 276.075 457.428 276.144 457.642 276.144H457.689C457.918 276.113 458.101 276.014 458.24 275.845L462.582 270.056L468.371 265.714C468.538 265.607 468.637 265.431 468.668 265.186C468.684 264.987 468.615 264.795 468.461 264.612L466.256 262.383C466.119 262.245 465.943 262.176 465.729 262.176C465.636 262.176 465.574 262.184 465.543 262.199L461.087 263.417L455.137 257.467L466.807 251.058C467.023 250.935 467.153 250.751 467.197 250.506C467.228 250.261 467.16 250.055 466.992 249.886L464.051 246.946C463.837 246.746 463.607 246.685 463.363 246.762L448.085 250.414L444.411 246.739C443.247 245.575 441.93 244.748 440.46 244.258C438.989 243.768 437.855 243.86 437.059 244.533Z" fill="white" stroke="#0C38B7" stroke-width="0.374328" stroke-linejoin="round"/>
<path d="M438.671 248.469C438.377 247.881 437.965 246.529 438.671 245.823C439.376 245.117 440.803 245.896 441.427 246.374" stroke="#0C38B7" stroke-width="0.374328" stroke-linecap="round" stroke-linejoin="round"/>
<path d="M442.309 272.395L447.05 260.707M453.445 255.084L464.691 250.012" stroke="#0C38B7" stroke-width="0.374328" stroke-linecap="round" stroke-linejoin="round"/>
</svg>
