<svg viewBox="0 0 168 138" fill="none" xmlns="http://www.w3.org/2000/svg">
<path d="M15.1455 35.7947L66.7854 35.7947" stroke="#0C38B7" stroke-width="0.321268"/>
<path d="M15.1455 36.4683L66.7854 36.4683" stroke="#1844BF" stroke-width="0.321268" stroke-dasharray="3.13 3.13"/>
<path d="M72.8753 41.8568C76.2388 41.8568 78.9654 39.1301 78.9654 35.7666C78.9654 32.4032 76.2388 29.6765 72.8753 29.6765C69.5118 29.6765 66.7852 32.4032 66.7852 35.7666C66.7852 39.1301 69.5118 41.8568 72.8753 41.8568Z" fill="#1844BF"/>
<path d="M78.7969 35.7947L115.225 35.7947" stroke="#0C38B7" stroke-width="0.321268"/>
<path d="M78.7969 36.4688L115.225 36.4687" stroke="#1844BF" stroke-width="0.321268" stroke-dasharray="3.13 3.13"/>
<path d="M53.2068 35.7999L51.2935 33.8865L49.3801 35.7999L51.2935 37.7132L53.2068 35.7999Z" fill="#0C38B7"/>
<path d="M95.8514 34.4465H93.1455V37.1525H95.8514V34.4465Z" fill="#0C38B7"/>
<path d="M77.1166 35.7668C77.1166 33.3645 75.1773 31.4167 72.7856 31.4167C70.3933 31.4167 68.4546 33.3645 68.4546 35.7668C68.4546 38.1692 70.3933 40.1169 72.7856 40.1169" stroke="white" stroke-width="0.321268" stroke-linecap="round" stroke-linejoin="round"/>
<path d="M77.1167 35.7859C77.1167 38.1776 75.1774 40.1169 72.7856 40.1169" stroke="white" stroke-width="0.321268" stroke-linecap="round" stroke-linejoin="round" stroke-dasharray="1.88 1.88"/>
<path d="M70.9951 35.4399L72.477 36.8617L74.6997 34.7288" stroke="white" stroke-width="0.321268" stroke-linecap="round" stroke-linejoin="round"/>
<path d="M72.7912 32.1464C73.2252 32.1464 73.577 31.8071 73.577 31.3886C73.577 30.9701 73.2252 30.6309 72.7912 30.6309C72.3572 30.6309 72.0054 30.9701 72.0054 31.3886C72.0054 31.8071 72.3572 32.1464 72.7912 32.1464Z" fill="white"/>
<path d="M70.0408 32.82C70.2888 32.82 70.4899 32.6315 70.4899 32.399C70.4899 32.1665 70.2888 31.978 70.0408 31.978C69.7928 31.978 69.5918 32.1665 69.5918 32.399C69.5918 32.6315 69.7928 32.82 70.0408 32.82Z" fill="white"/>
<path d="M82.8667 35.7669C82.8667 41.1593 78.4077 45.5336 72.9036 45.5336C67.3994 45.5336 62.9404 41.1593 62.9404 35.7669C62.9404 30.3745 67.3994 26.0002 72.9036 26.0002C78.4077 26.0002 82.8667 30.3745 82.8667 35.7669Z" stroke="#FF952F" stroke-width="0.321268"/>
<path d="M69.8723 39.6677C70.2753 39.6677 70.602 39.3535 70.602 38.966C70.602 38.5785 70.2753 38.2644 69.8723 38.2644C69.4693 38.2644 69.1426 38.5785 69.1426 38.966C69.1426 39.3535 69.4693 39.6677 69.8723 39.6677Z" fill="white"/>
<path d="M37.9475 35.7996L36.7993 34.6514L35.6511 35.7996L36.7993 36.9478L37.9475 35.7996Z" fill="#0C38B7"/>
<path d="M122.125 49L122.125 84.0253" stroke="#0C38B7" stroke-width="0.321268"/>
<path d="M121.451 49L121.451 84.0253" stroke="#1844BF" stroke-width="0.321268" stroke-dasharray="3.13 3.13"/>
<path d="M121.058 61.6856C121.058 62.2746 121.549 62.7521 122.153 62.7521C122.758 62.7521 123.248 62.2746 123.248 61.6856C123.248 61.0966 122.758 60.6191 122.153 60.6191C121.549 60.6191 121.058 61.0966 121.058 61.6856Z" fill="#1844BF"/>
<path d="M121.62 66.232C121.62 66.511 121.858 66.7372 122.153 66.7372C122.447 66.7372 122.686 66.511 122.686 66.232C122.686 65.953 122.447 65.7268 122.153 65.7268C121.858 65.7268 121.62 65.953 121.62 66.232Z" fill="#1844BF"/>
<path d="M139.581 62.8643C139.581 63.4533 140.071 63.9308 140.676 63.9308C141.28 63.9308 141.771 63.4533 141.771 62.8643C141.771 62.2753 141.28 61.7979 140.676 61.7979C140.071 61.7979 139.581 62.2753 139.581 62.8643Z" fill="white"/>
<path d="M93.7147 125.886C92.5553 121.559 88.1079 118.991 83.781 120.15C79.4542 121.31 76.8864 125.757 78.0458 130.084C79.2052 134.411 83.6526 136.979 87.9795 135.819C92.3063 134.66 94.8741 130.212 93.7147 125.886Z" fill="#1844BF"/>
<path d="M119.043 96.2139L86.2068 96.2139C86.0518 96.2139 85.9261 96.3396 85.9261 96.4945L85.9261 120.406" stroke="#0C38B7" stroke-width="0.321268"/>
<path d="M118.818 97.561L84.8595 97.561C84.7046 97.561 84.5789 97.6868 84.5789 97.8417L84.5789 121.641" stroke="#1844BF" stroke-width="0.321268" stroke-dasharray="3.13 3.13"/>
<path d="M87.498 98.9016L87.498 95.0913L83.6878 95.0913L83.6878 98.9016L87.498 98.9016Z" fill="#1844BF"/>
<path d="M86.3755 97.8313L86.3755 96.2139L84.758 96.2139L84.758 97.8313L86.3755 97.8313Z" fill="white"/>
<path d="M93.167 128.815L93.167 127.198L91.5495 127.198L91.5495 128.815L93.167 128.815Z" fill="white"/>
<path d="M92.0854 126.306C91.1707 122.893 87.662 120.867 84.2484 121.782C80.8348 122.696 78.8091 126.205 79.7237 129.619C80.6384 133.032 84.1471 135.058 87.5607 134.143C90.9743 133.229 93 129.72 92.0854 126.306Z" stroke="white" stroke-width="0.321268" stroke-linecap="round" stroke-linejoin="round"/>
<path d="M83.5063 133.406C83.41 133.046 83.0407 132.833 82.6813 132.929C82.322 133.026 82.1088 133.395 82.2051 133.754C82.3013 134.113 82.6707 134.327 83.03 134.23C83.3893 134.134 83.6026 133.765 83.5063 133.406Z" fill="white"/>
<path d="M84.2472 121.941C84.0947 121.372 83.4978 121.038 82.9139 121.195C82.33 121.351 81.9802 121.939 82.1327 122.508C82.2851 123.077 82.882 123.411 83.4659 123.255C84.0498 123.098 84.3996 122.51 84.2472 121.941Z" fill="#1844BF" stroke="white" stroke-width="0.321268"/>
<path d="M86.4456 127.887C87.4686 127.887 88.2979 127.058 88.2979 126.035C88.2979 125.012 87.4686 124.183 86.4456 124.183C85.4226 124.183 84.5933 125.012 84.5933 126.035C84.5933 127.058 85.4226 127.887 86.4456 127.887Z" stroke="white" stroke-width="0.321268"/>
<path d="M89.3496 130.484C89.4714 130.775 89.5472 131.083 89.5758 131.396C89.5898 131.55 89.463 131.676 89.3081 131.676H86.4454H83.5828C83.4279 131.676 83.301 131.55 83.315 131.396C83.3437 131.083 83.4194 130.775 83.5412 130.484C83.6995 130.106 83.9308 129.763 84.2226 129.473C84.5145 129.184 84.8614 128.954 85.2425 128.798C85.6237 128.642 86.0329 128.561 86.4454 128.561C86.858 128.561 87.2672 128.642 87.6483 128.798C88.0294 128.954 88.3763 129.184 88.6682 129.473C88.9601 129.763 89.1913 130.106 89.3496 130.484Z" stroke="white" stroke-width="0.321268"/>
<path d="M63.9647 128.087H64.7353C64.6796 128.54 64.4888 128.915 64.1637 129.211C63.8427 129.504 63.4407 129.65 62.9584 129.65C62.4204 129.65 61.984 129.467 61.6483 129.101C61.3134 128.732 61.1455 128.279 61.1455 127.74C61.1455 127.199 61.3134 126.744 61.6483 126.375C61.984 126.002 62.4204 125.815 62.9584 125.815C63.4268 125.815 63.8214 125.96 64.1432 126.249C64.4675 126.537 64.6615 126.903 64.7246 127.346H63.9492C63.8894 127.115 63.7707 126.93 63.593 126.791C63.4178 126.649 63.2049 126.58 62.9535 126.583C62.639 126.586 62.3852 126.7 62.1936 126.923C62.0012 127.143 61.9054 127.414 61.9054 127.735C61.9054 128.057 62.0012 128.329 62.1936 128.553C62.3852 128.776 62.6423 128.887 62.9641 128.887C63.2188 128.887 63.4358 128.814 63.6135 128.668C63.7952 128.521 63.9123 128.327 63.9647 128.087ZM65.1184 128.783V125.623H65.8259V128.651C65.8259 128.787 65.8955 128.855 66.0355 128.855H66.3868V129.573H65.8996C65.6515 129.573 65.4591 129.504 65.3231 129.365C65.1864 129.226 65.1184 129.032 65.1184 128.783ZM66.7315 125.623H67.439V126.489H66.7315V125.623ZM66.7315 126.841H67.439V129.573H66.7315V126.841ZM69.1806 126.759C69.6138 126.759 69.9561 126.92 70.2075 127.241C70.4588 127.563 70.5604 127.967 70.5112 128.453H68.5411C68.5616 128.6 68.6279 128.724 68.7401 128.827C68.8555 128.926 69.0005 128.979 69.1749 128.986C69.2977 128.993 69.4107 128.971 69.5155 128.92C69.6236 128.865 69.7006 128.794 69.7464 128.706H70.485C70.4015 129.006 70.241 129.24 70.0027 129.408C69.7653 129.573 69.4893 129.655 69.1749 129.655C68.7524 129.655 68.4208 129.516 68.1792 129.239C67.9385 128.957 67.8181 128.613 67.8181 128.207C67.8181 127.798 67.945 127.453 68.2005 127.175C68.4592 126.898 68.7852 126.759 69.1806 126.759ZM69.5679 127.543C69.4599 127.462 69.3288 127.422 69.1749 127.422C69.0209 127.422 68.8867 127.464 68.7712 127.548C68.6599 127.629 68.5845 127.738 68.5461 127.877H69.7931C69.7546 127.735 69.6801 127.624 69.5679 127.543ZM72.3912 126.764C72.7122 126.764 72.9652 126.872 73.1511 127.088C73.3361 127.304 73.4287 127.606 73.4287 127.993V129.573H72.7212V128.103C72.7212 127.913 72.6705 127.762 72.5689 127.653C72.4674 127.543 72.3405 127.488 72.1865 127.488C72.022 127.488 71.8827 127.551 71.7673 127.675C71.6518 127.795 71.5945 127.956 71.5945 128.158V129.573H70.8871V126.841H71.5732V127.17H71.5995C71.7845 126.899 72.0482 126.764 72.3912 126.764ZM75.8352 126.841V127.554H74.7609V128.645C74.7609 128.711 74.7797 128.763 74.8182 128.8C74.8567 128.836 74.9075 128.855 74.9705 128.855H75.8352V129.573H74.8395C74.5988 129.573 74.4064 129.502 74.2631 129.359C74.123 129.213 74.0534 129.017 74.0534 128.772V127.554H73.6866V126.841H74.0534V125.897H74.7609V126.841H75.8352Z" fill="#1844BF"/>
<path d="M114.719 96.2141L157.266 96.2141C157.421 96.2141 157.547 96.3398 157.547 96.4948L157.547 120.406" stroke="#0C38B7" stroke-width="0.321268"/>
<path d="M114.72 97.5613L158.613 97.5613C158.768 97.5613 158.894 97.687 158.894 97.8419L158.894 121.641" stroke="#1844BF" stroke-width="0.321268" stroke-dasharray="3.13 3.13"/>
<path d="M160.017 98.9018L160.017 95.0916L156.206 95.0916L156.206 98.9018L160.017 98.9018Z" fill="#1844BF"/>
<path d="M158.92 97.8052L158.92 96.1877L157.303 96.1877L157.303 97.8052L158.92 97.8052Z" fill="white"/>
<path d="M150.924 127.956C150.924 132.435 154.555 136.067 159.035 136.067C163.514 136.067 167.146 132.435 167.146 127.956C167.146 123.476 163.514 119.845 159.035 119.845C154.555 119.845 150.924 123.476 150.924 127.956Z" fill="#1844BF"/>
<path d="M152.884 127.984C152.884 131.456 155.649 134.27 159.061 134.27C162.472 134.27 165.237 131.456 165.237 127.984C165.237 124.512 162.472 121.697 159.061 121.697C155.649 121.697 152.884 124.512 152.884 127.984Z" stroke="white" stroke-width="0.321268" stroke-linecap="round" stroke-linejoin="round"/>
<path d="M164.619 127.984C164.619 128.356 164.921 128.657 165.293 128.657C165.665 128.657 165.966 128.356 165.966 127.984C165.966 127.612 165.665 127.31 165.293 127.31C164.921 127.31 164.619 127.612 164.619 127.984Z" fill="white"/>
<path d="M157.94 121.529C157.94 122.118 158.43 122.595 159.034 122.595C159.639 122.595 160.129 122.118 160.129 121.529C160.129 120.94 159.639 120.462 159.034 120.462C158.43 120.462 157.94 120.94 157.94 121.529Z" fill="white"/>
<path d="M154.348 133.26C154.348 133.849 154.838 134.327 155.442 134.327C156.047 134.327 156.537 133.849 156.537 133.26C156.537 132.671 156.047 132.194 155.442 132.194C154.838 132.194 154.348 132.671 154.348 133.26Z" fill="#1844BF" stroke="white" stroke-width="0.321268"/>
<path d="M159.04 127.887C160.063 127.887 160.892 127.058 160.892 126.035C160.892 125.012 160.063 124.183 159.04 124.183C158.017 124.183 157.188 125.012 157.188 126.035C157.188 127.058 158.017 127.887 159.04 127.887Z" stroke="white" stroke-width="0.321268"/>
<path d="M161.944 130.484C162.066 130.775 162.142 131.083 162.171 131.396C162.185 131.55 162.058 131.676 161.903 131.676H159.04H156.177C156.023 131.676 155.896 131.55 155.91 131.396C155.938 131.083 156.014 130.775 156.136 130.484C156.294 130.106 156.525 129.763 156.817 129.473C157.109 129.184 157.456 128.955 157.837 128.798C158.218 128.642 158.628 128.561 159.04 128.561C159.453 128.561 159.862 128.642 160.243 128.798C160.624 128.955 160.971 129.184 161.263 129.473C161.555 129.763 161.786 130.106 161.944 130.484Z" stroke="white" stroke-width="0.321268"/>
<path d="M137.192 128.31H137.902C137.851 128.699 137.675 129.021 137.376 129.274C137.08 129.525 136.709 129.651 136.265 129.651C135.769 129.651 135.367 129.494 135.058 129.18C134.749 128.864 134.594 128.475 134.594 128.014C134.594 127.55 134.749 127.16 135.058 126.843C135.367 126.523 135.769 126.364 136.265 126.364C136.697 126.364 137.06 126.487 137.357 126.735C137.656 126.983 137.834 127.296 137.893 127.676H137.178C137.123 127.478 137.014 127.32 136.85 127.201C136.688 127.078 136.492 127.019 136.26 127.022C135.971 127.025 135.737 127.122 135.56 127.313C135.383 127.502 135.295 127.734 135.295 128.009C135.295 128.285 135.383 128.519 135.56 128.71C135.737 128.901 135.974 128.997 136.27 128.997C136.505 128.997 136.705 128.934 136.869 128.809C137.036 128.683 137.144 128.517 137.192 128.31ZM138.256 128.908V126.199H138.908V128.795C138.908 128.911 138.972 128.969 139.101 128.969H139.424V129.585H138.975C138.747 129.585 138.569 129.525 138.444 129.406C138.318 129.287 138.256 129.121 138.256 128.908ZM139.742 126.199H140.394V126.942H139.742V126.199ZM139.742 127.243H140.394V129.585H139.742V127.243ZM141.999 127.172C142.398 127.172 142.714 127.31 142.945 127.586C143.177 127.862 143.271 128.209 143.225 128.626H141.41C141.429 128.751 141.49 128.857 141.593 128.945C141.7 129.03 141.833 129.075 141.994 129.082C142.107 129.088 142.211 129.069 142.308 129.025C142.407 128.978 142.478 128.917 142.521 128.842H143.201C143.124 129.099 142.976 129.3 142.757 129.444C142.538 129.585 142.284 129.655 141.994 129.655C141.604 129.655 141.299 129.536 141.076 129.298C140.854 129.057 140.744 128.762 140.744 128.414C140.744 128.063 140.86 127.768 141.096 127.53C141.334 127.292 141.635 127.172 141.999 127.172ZM142.356 127.845C142.256 127.776 142.136 127.741 141.994 127.741C141.852 127.741 141.728 127.777 141.622 127.85C141.519 127.919 141.45 128.013 141.414 128.132H142.564C142.528 128.009 142.459 127.914 142.356 127.845ZM144.958 127.177C145.254 127.177 145.487 127.27 145.658 127.455C145.829 127.64 145.914 127.898 145.914 128.23V129.585H145.262V128.325C145.262 128.161 145.215 128.033 145.122 127.939C145.028 127.845 144.911 127.798 144.769 127.798C144.618 127.798 144.489 127.851 144.383 127.958C144.277 128.061 144.224 128.199 144.224 128.372V129.585H143.572V127.243H144.204V127.525H144.228C144.399 127.293 144.642 127.177 144.958 127.177ZM148.132 127.243V127.854H147.142V128.79C147.142 128.847 147.159 128.89 147.195 128.922C147.23 128.953 147.277 128.969 147.335 128.969H148.132V129.585H147.214C146.992 129.585 146.815 129.524 146.683 129.401C146.554 129.276 146.49 129.108 146.49 128.898V127.854H146.152V127.243H146.49V126.434H147.142V127.243H148.132Z" fill="#1844BF"/>
<path d="M42.6049 11.6968H19.1986C19.0436 11.6968 18.918 11.8224 18.918 11.9774V40.8845C18.918 41.0395 19.0436 41.1652 19.1986 41.1652H42.6049C42.7599 41.1652 42.8856 41.0395 42.8856 40.8845V11.9774C42.8856 11.8224 42.7599 11.6968 42.6049 11.6968Z" stroke="#FF952F" stroke-width="0.321268"/>
<path d="M33.7922 23.0073H4.2677C4.0972 23.0073 3.95898 23.1455 3.95898 23.316V50.876C3.95898 51.0465 4.0972 51.1847 4.2677 51.1847H33.7922C33.9627 51.1847 34.1009 51.0465 34.1009 50.876V23.316C34.1009 23.1455 33.9627 23.0073 33.7922 23.0073Z" stroke="#E2EBF4" stroke-width="0.321268" stroke-dasharray="1.75 1.75"/>
<path d="M7.40122 50.913C11.4888 50.913 14.8024 47.6401 14.8024 43.6026C14.8024 39.5652 11.4888 36.2922 7.40122 36.2922C3.31364 36.2922 0 39.5652 0 43.6026C0 47.6401 3.31364 50.913 7.40122 50.913Z" fill="#FF952F"/>
<path d="M7.40152 47.3714C9.48292 47.3714 11.1702 45.6841 11.1702 43.6027C11.1702 41.5213 9.48292 39.834 7.40152 39.834C5.32012 39.834 3.63281 41.5213 3.63281 43.6027C3.63281 45.6841 5.32012 47.3714 7.40152 47.3714Z" stroke="white" stroke-width="0.321268"/>
<path d="M0.817871 43.6025C0.817871 42.4631 1.1221 41.3433 1.69996 40.356L3.41047 41.3298C3.006 42.0208 2.79304 42.8049 2.79304 43.6025H0.817871Z" fill="white"/>
<path d="M4.10938 37.901C5.09643 37.3312 6.21825 37.0349 7.36201 37.0416L7.3738 39.0101C6.57315 39.005 5.78789 39.2127 5.09693 39.6113L4.10938 37.901Z" fill="white"/>
<path d="M10.6935 37.9009C11.6802 38.4706 12.498 39.294 13.0638 40.2881L11.3653 41.2822C10.9691 40.5867 10.3965 40.0103 9.70557 39.6112L10.6935 37.9009Z" fill="white"/>
<path d="M13.9857 43.6025C13.9857 44.7425 13.6815 45.8623 13.1034 46.8491L11.3931 45.8753C11.7972 45.1843 12.0105 44.4007 12.0105 43.6025H13.9857Z" fill="white"/>
<path d="M10.6933 49.3043C9.70597 49.8746 8.58427 50.1709 7.4405 50.1636L7.42871 48.1957C8.22935 48.2002 9.01462 47.9931 9.70541 47.594L10.6933 49.3043Z" fill="white"/>
<path d="M4.10932 49.3044C3.12227 48.7347 2.30467 47.9112 1.73877 46.9172L3.43749 45.9231C3.83366 46.6185 4.40597 47.195 5.09688 47.5941L4.10932 49.3044Z" fill="white"/>
<path d="M38.8343 26.6086C42.9219 26.6086 46.2356 23.3356 46.2356 19.2982C46.2356 15.2608 42.9219 11.9878 38.8343 11.9878C34.7467 11.9878 31.4331 15.2608 31.4331 19.2982C31.4331 23.3356 34.7467 26.6086 38.8343 26.6086Z" fill="#1844BF"/>
<path d="M38.8346 23.0667C40.916 23.0667 42.6033 21.3794 42.6033 19.298C42.6033 17.2166 40.916 15.5293 38.8346 15.5293C36.7532 15.5293 35.0659 17.2166 35.0659 19.298C35.0659 21.3794 36.7532 23.0667 38.8346 23.0667Z" stroke="white" stroke-width="0.321268"/>
<path d="M32.2505 19.2981C32.2505 18.1586 32.5547 17.0388 33.1329 16.0515L34.8431 17.0254C34.439 17.7163 34.2257 18.5005 34.2257 19.2981H32.2505Z" fill="white"/>
<path d="M35.5425 13.5963C36.5298 13.0266 37.6513 12.7302 38.7952 12.7369L38.807 14.7054C38.0066 14.7004 37.2213 14.908 36.5304 15.3066L35.5425 13.5963Z" fill="white"/>
<path d="M42.1261 13.5964C43.1128 14.1662 43.9307 14.9896 44.4965 15.9837L42.798 16.9777C42.4017 16.2823 41.8291 15.7058 41.1382 15.3067L42.1261 13.5964Z" fill="white"/>
<path d="M45.4183 19.2981C45.4183 20.4381 45.1141 21.5579 44.536 22.5447L42.8257 21.5708C43.2298 20.8798 43.4431 20.0963 43.4431 19.2981H45.4183Z" fill="white"/>
<path d="M42.1264 25.0001C41.139 25.5704 40.0175 25.8667 38.8736 25.8594L38.8618 23.8915C39.6622 23.896 40.4475 23.6889 41.1385 23.2898L42.1264 25.0001Z" fill="white"/>
<path d="M35.5423 24.9999C34.5555 24.4302 33.7377 23.6068 33.1719 22.6127L34.8704 21.6187C35.2667 22.3141 35.8392 22.8906 36.5302 23.2897L35.5423 24.9999Z" fill="white"/>
<path d="M9.15137 17.8715V56.0962H39.4056V17.8715C39.4056 16.0113 37.8979 14.5037 36.0378 14.5037H12.5192C10.659 14.5037 9.15137 16.0113 9.15137 17.8715Z" fill="white" stroke="#0C38B7" stroke-width="0.321268"/>
<path d="M11.2843 43.4106H37.3287C37.4837 43.4106 37.6094 43.285 37.6094 43.13V38.6957C37.6094 38.5407 37.4837 38.4151 37.3287 38.4151H11.2843C11.1293 38.4151 11.0036 38.5407 11.0036 38.6957V43.13C11.0036 43.285 11.1293 43.4106 11.2843 43.4106Z" fill="white" stroke="#E2EBF4" stroke-width="0.321268" stroke-linecap="round" stroke-linejoin="round"/>
<path d="M34.4661 17.6467H37.3287C37.4837 17.6467 37.6094 17.5211 37.6094 17.3661V17.1977C37.6094 17.0427 37.4837 16.917 37.3287 16.917H34.4661C34.3111 16.917 34.1854 17.0427 34.1854 17.1977V17.3661C34.1854 17.5211 34.3111 17.6467 34.4661 17.6467Z" fill="white" stroke="#E2EBF4" stroke-width="0.321268" stroke-linecap="round" stroke-linejoin="round"/>
<path d="M34.4661 18.8254H37.3287C37.4837 18.8254 37.6094 18.6998 37.6094 18.5448V18.3764C37.6094 18.2214 37.4837 18.0957 37.3287 18.0957H34.4661C34.3111 18.0957 34.1854 18.2214 34.1854 18.3764V18.5448C34.1854 18.6998 34.3111 18.8254 34.4661 18.8254Z" fill="white" stroke="#E2EBF4" stroke-width="0.321268" stroke-linecap="round" stroke-linejoin="round"/>
<path d="M17.2898 19.05H27.6178C27.7728 19.05 27.8984 18.9244 27.8984 18.7694V18.2081C27.8984 18.0531 27.7728 17.9274 27.6178 17.9274H17.2898C17.1348 17.9274 17.0092 18.0531 17.0092 18.2081V18.7694C17.0092 18.9244 17.1348 19.05 17.2898 19.05Z" fill="white" stroke="#E2EBF4" stroke-width="0.321268" stroke-linecap="round" stroke-linejoin="round"/>
<path d="M34.4661 20.0042H37.3287C37.4837 20.0042 37.6094 19.8785 37.6094 19.7235V19.5551C37.6094 19.4001 37.4837 19.2745 37.3287 19.2745H34.4661C34.3111 19.2745 34.1854 19.4001 34.1854 19.5551V19.7235C34.1854 19.8785 34.3111 20.0042 34.4661 20.0042Z" fill="white" stroke="#E2EBF4" stroke-width="0.321268" stroke-linecap="round" stroke-linejoin="round"/>
<path d="M16.4481 41.3337H24.4747C24.6297 41.3337 24.7554 41.2081 24.7554 41.0531V40.7724C24.7554 40.6174 24.6297 40.4918 24.4747 40.4918H16.4481C16.2931 40.4918 16.1674 40.6174 16.1674 40.7724V41.0531C16.1674 41.2081 16.2931 41.3337 16.4481 41.3337Z" fill="#E2EBF4"/>
<path d="M31.7712 41.053H35.8126C35.9676 41.053 36.0933 40.9273 36.0933 40.7723V40.0426C36.0933 39.8876 35.9676 39.762 35.8126 39.762H31.7712C31.6162 39.762 31.4906 39.8876 31.4906 40.0426V40.7723C31.4906 40.9273 31.6162 41.053 31.7712 41.053Z" fill="#E2EBF4"/>
<path d="M33.1745 42.0635H35.8126C35.9676 42.0635 36.0933 41.9378 36.0933 41.7828C36.0933 41.6278 35.9676 41.5022 35.8126 41.5022H33.1745C33.0195 41.5022 32.8938 41.6278 32.8938 41.7828C32.8938 41.9378 33.0195 42.0635 33.1745 42.0635Z" fill="#E2EBF4"/>
<path d="M11.2843 49.0798H37.3287C37.4837 49.0798 37.6094 48.9542 37.6094 48.7992V44.421C37.6094 44.266 37.4837 44.1404 37.3287 44.1404H11.2843C11.1293 44.1404 11.0036 44.266 11.0036 44.421V48.7992C11.0036 48.9542 11.1293 49.0798 11.2843 49.0798Z" fill="white" stroke="#E2EBF4" stroke-width="0.321268" stroke-linecap="round" stroke-linejoin="round"/>
<path d="M11.2843 54.8049H37.3287C37.4837 54.8049 37.6094 54.6793 37.6094 54.5243V50.09C37.6094 49.935 37.4837 49.8093 37.3287 49.8093H11.2843C11.1293 49.8093 11.0036 49.935 11.0036 50.09V54.5243C11.0036 54.6793 11.1293 54.8049 11.2843 54.8049Z" fill="white" stroke="#E2EBF4" stroke-width="0.321268" stroke-linecap="round" stroke-linejoin="round"/>
<path d="M13.7538 48.0413C14.5598 48.0413 15.2132 47.3943 15.2132 46.5961C15.2132 45.7979 14.5598 45.1509 13.7538 45.1509C12.9478 45.1509 12.2944 45.7979 12.2944 46.5961C12.2944 47.3943 12.9478 48.0413 13.7538 48.0413Z" fill="#E2EBF4"/>
<path fill-rule="evenodd" clip-rule="evenodd" d="M13.9331 46.3843L13.932 46.1665L14.3928 46.1631L14.39 45.8308L13.1361 45.8398L13.1383 46.1721L13.5992 46.1687L13.6003 46.3865C13.2265 46.4078 12.9452 46.4898 12.9458 46.5863C12.9464 46.6823 13.2287 46.7603 13.6031 46.776L13.6081 47.4743L13.941 47.4721L13.9359 46.7738C14.3098 46.7525 14.5899 46.67 14.5893 46.574C14.5887 46.478 14.3075 46.4 13.9337 46.3843H13.9331ZM13.9354 46.7149C13.9258 46.7154 13.8781 46.7188 13.7704 46.7194C13.6845 46.7199 13.6239 46.7177 13.6025 46.7171C13.2714 46.7042 13.0238 46.6436 13.0233 46.5689C13.0233 46.4943 13.2697 46.4303 13.6003 46.4118L13.602 46.6554C13.6239 46.6565 13.6856 46.6604 13.7709 46.6593C13.8742 46.6587 13.9253 46.6537 13.9348 46.6531L13.9331 46.4095C14.2632 46.423 14.5102 46.4836 14.5107 46.5583C14.5113 46.6323 14.2654 46.6963 13.9354 46.7149Z" fill="#1844BF"/>
<path d="M13.7652 42.4002C14.5791 42.4002 15.2389 41.7468 15.2389 40.9408C15.2389 40.1348 14.5791 39.4814 13.7652 39.4814C12.9513 39.4814 12.2915 40.1348 12.2915 40.9408C12.2915 41.7468 12.9513 42.4002 13.7652 42.4002Z" fill="#FF952F"/>
<path fill-rule="evenodd" clip-rule="evenodd" d="M13.654 40.8218C13.7561 40.8257 14.0149 40.8359 14.0149 40.6383C14.0137 40.4491 13.801 40.4525 13.6848 40.4547C13.6669 40.4547 13.6511 40.4553 13.6388 40.4547V40.8218C13.6433 40.8218 13.6478 40.8218 13.654 40.8218ZM13.9228 39.9395L13.9234 40.242C14.1305 40.2628 14.295 40.334 14.314 40.553C14.327 40.714 14.2686 40.8067 14.1754 40.8656C14.3314 40.9066 14.4274 41.0132 14.4055 41.2467C14.3842 41.5369 14.1934 41.6161 13.9267 41.6346L13.9262 41.9411L13.7651 41.9405V41.6396C13.7387 41.6385 13.7123 41.6385 13.6854 41.6385C13.6691 41.638 13.6534 41.638 13.6366 41.638L13.6377 41.9422H13.4766V41.6357C13.4468 41.6363 13.4165 41.6363 13.3856 41.6363C13.3772 41.6363 13.3688 41.6357 13.361 41.6357H13.1527L13.1841 41.4162C13.1841 41.4162 13.3026 41.4168 13.3009 41.4157C13.3424 41.4117 13.3587 41.3769 13.3604 41.3528L13.3593 40.5238C13.3531 40.4834 13.3323 40.4424 13.2667 40.4429C13.2695 40.4407 13.1499 40.4435 13.1499 40.4435L13.1505 40.2465L13.3716 40.2459C13.3913 40.2459 13.4115 40.2454 13.4317 40.2454C13.4457 40.2448 13.4597 40.2448 13.4738 40.2448V39.9434L13.6326 39.9411L13.6337 40.2386C13.677 40.2358 13.7191 40.2353 13.7623 40.2347V39.9439L13.9228 39.9395ZM13.6405 41.0099L13.6416 41.4151C13.6495 41.4151 13.6584 41.4151 13.6685 41.4151C13.7982 41.4174 14.0906 41.4224 14.0906 41.2102C14.0906 40.9941 13.8106 41.0037 13.6775 41.0087C13.6635 41.0093 13.6506 41.0099 13.6405 41.0099Z" fill="white"/>
<path d="M24.9896 11.6739L23.7778 10.4622L22.5661 11.6739L23.7778 12.8857L24.9896 11.6739Z" fill="#FF952F"/>
<path d="M27.1002 11.6737L26.373 10.9465L25.6459 11.6737L26.3731 12.4009L27.1002 11.6737Z" fill="#FF952F"/>
<path d="M13.7538 53.7948C14.5598 53.7948 15.2132 53.1414 15.2132 52.3354C15.2132 51.5294 14.5598 50.876 13.7538 50.876C12.9478 50.876 12.2944 51.5294 12.2944 52.3354C12.2944 53.1414 12.9478 53.7948 13.7538 53.7948Z" fill="#1844BF"/>
<path d="M13.7383 51.2563L14.23 52.2644L13.7383 52.5574L13.2466 52.2644L13.7383 51.2563Z" fill="white"/>
<path d="M13.7383 53.3187L13.2466 52.4941L13.7383 52.7686L14.23 52.4941L13.7383 53.3187Z" fill="white"/>
<path d="M19.6475 2.17429H20.3366C20.2866 2.5745 20.1163 2.90511 19.8257 3.16687C19.5382 3.42485 19.1788 3.55422 18.7475 3.55422C18.2662 3.55422 17.8756 3.39231 17.5756 3.07003C17.2755 2.74396 17.1255 2.34375 17.1255 1.86865C17.1255 1.39127 17.2755 0.989544 17.5756 0.663476C17.8756 0.334382 18.2662 0.169464 18.7475 0.169464C19.1662 0.169464 19.5194 0.297314 19.8069 0.552267C20.0976 0.807221 20.271 1.12951 20.3273 1.52064H19.6335C19.5804 1.31713 19.4741 1.15372 19.3147 1.03116C19.1585 0.905577 18.9678 0.844293 18.7428 0.847319C18.4615 0.850345 18.235 0.950963 18.0631 1.14766C17.8912 1.34134 17.8053 1.58041 17.8053 1.86411C17.8053 2.14781 17.8912 2.38839 18.0631 2.58584C18.235 2.78254 18.4647 2.88089 18.7522 2.88089C18.9803 2.88089 19.1741 2.81658 19.3335 2.68722C19.496 2.55785 19.6007 2.38688 19.6475 2.17429ZM22.4653 1.38446V1.07504H23.0937V3.48612H22.4653V3.16687H22.4419C22.3671 3.28262 22.2639 3.37643 22.1328 3.44754C22.0016 3.51866 21.853 3.55572 21.6874 3.55875C21.3688 3.55875 21.1029 3.44074 20.8905 3.20545C20.681 2.96639 20.5765 2.65999 20.5765 2.2855C20.5765 1.91101 20.6796 1.60235 20.8861 1.36025C21.0956 1.11816 21.3637 0.999387 21.6918 1.00241C21.8544 1.00241 22.0016 1.03796 22.1328 1.10908C22.2639 1.17944 22.3671 1.27174 22.4419 1.38446H22.4653ZM21.3871 2.75531C21.5065 2.87787 21.6581 2.93915 21.842 2.93915C22.0266 2.93915 22.1767 2.87636 22.2924 2.75001C22.4082 2.6214 22.4653 2.4648 22.4653 2.28021C22.4653 2.09334 22.406 1.93673 22.2873 1.81115C22.1716 1.68481 22.0236 1.62201 21.842 1.62201C21.6581 1.62201 21.5065 1.68481 21.3871 1.81115C21.2721 1.93371 21.2143 2.09032 21.2143 2.28021C21.2143 2.47086 21.2721 2.62896 21.3871 2.75531ZM24.1829 1.07504H25.4676V1.70447H24.2019C24.136 1.70447 24.1038 1.73852 24.1038 1.80586C24.1038 1.86411 24.1302 1.89815 24.1829 1.90799L25.0596 2.09182C25.2376 2.1304 25.3783 2.20984 25.4815 2.32862C25.5848 2.44815 25.6361 2.5919 25.6361 2.75985C25.6361 2.96941 25.5628 3.14417 25.4164 3.28262C25.2721 3.41804 25.0926 3.48612 24.8773 3.48612H23.5266V2.85215H24.8677C24.9366 2.85215 24.971 2.81659 24.971 2.74547C24.971 2.69024 24.9439 2.65469 24.8912 2.63881L24.0005 2.44059C23.8313 2.40504 23.6944 2.32711 23.5881 2.20757C23.4819 2.0888 23.4285 1.94809 23.4285 1.78694C23.4285 1.58041 23.5003 1.41094 23.6438 1.27854C23.7881 1.14237 23.9676 1.07504 24.1829 1.07504ZM25.9679 0H26.6007V0.764859H25.9679V0ZM25.9679 1.07504H26.6007V3.48612H25.9679V1.07504ZM28.4392 1.00695C28.7271 1.00695 28.9534 1.10227 29.1189 1.29292C29.2845 1.48357 29.3672 1.74987 29.3672 2.09182V3.48612H28.7344V2.18866C28.7344 2.02071 28.689 1.88831 28.5989 1.79148C28.508 1.69464 28.3938 1.64623 28.2561 1.64623C28.1096 1.64623 27.9844 1.70145 27.8811 1.81115C27.7785 1.91706 27.7265 2.05929 27.7265 2.23708V3.48612H27.0937V1.07504H27.7082V1.36555H27.7316C27.8972 1.12648 28.133 1.00695 28.4392 1.00695ZM31.8429 3.19562C31.6115 3.43771 31.3082 3.55875 30.9332 3.55875C30.5582 3.55875 30.255 3.43771 30.0242 3.19562C29.7928 2.95352 29.6771 2.64864 29.6771 2.28021C29.6771 1.91556 29.7928 1.61218 30.0242 1.37009C30.255 1.12497 30.5582 1.00241 30.9332 1.00241C31.3082 1.00241 31.6115 1.12497 31.8429 1.37009C32.0744 1.61218 32.1901 1.91556 32.1901 2.28021C32.1901 2.64864 32.0744 2.95352 31.8429 3.19562ZM30.9332 2.92477C31.1149 2.92477 31.2628 2.8635 31.3786 2.74018C31.4972 2.61459 31.5573 2.46102 31.5573 2.28021C31.5573 2.09637 31.4994 1.94354 31.3837 1.82023C31.268 1.69464 31.1178 1.63185 30.9332 1.63185C30.7494 1.63185 30.5992 1.69464 30.4835 1.82023C30.3678 1.94354 30.3099 2.09637 30.3099 2.28021C30.3099 2.4648 30.3678 2.61762 30.4835 2.74018C30.5992 2.8635 30.7494 2.92477 30.9332 2.92477ZM13.3594 6.46423H12.6988C12.6614 6.35832 12.5955 6.27283 12.5017 6.20776C12.4109 6.14043 12.3032 6.10639 12.178 6.10639C11.9971 6.10639 11.8513 6.16918 11.7422 6.29477C11.633 6.41808 11.5781 6.57091 11.5781 6.75475C11.5781 6.93556 11.633 7.08914 11.7422 7.21472C11.8513 7.33804 11.9971 7.39931 12.178 7.39931C12.3003 7.39931 12.408 7.36679 12.5017 7.30248C12.5955 7.23439 12.6614 7.14739 12.6988 7.04071H13.3594C13.3096 7.33425 13.1771 7.57332 12.961 7.75716C12.7486 7.941 12.4864 8.03329 12.1736 8.03329C11.8044 8.03329 11.5078 7.91225 11.2829 7.67016C11.0581 7.42807 10.9453 7.12318 10.9453 6.75475C10.9453 6.38707 11.0581 6.08218 11.2829 5.84009C11.5078 5.59799 11.8044 5.47695 12.1736 5.47695C12.4893 5.47695 12.753 5.56849 12.9661 5.75308C13.1815 5.9339 13.3126 6.17069 13.3594 6.46423ZM14.8537 5.54958H15.3459V6.20323H14.8207C14.6676 6.20323 14.5431 6.25467 14.4457 6.35831C14.349 6.4612 14.3006 6.59512 14.3006 6.76004V7.96067H13.6678V5.54958H14.2677V5.92709H14.2911C14.3819 5.67516 14.5695 5.54958 14.8537 5.54958ZM16.8496 7.37964L17.4216 5.54958H18.064L17.1353 8.35256C17.073 8.53715 16.9778 8.67862 16.8496 8.77924C16.7214 8.8791 16.5669 8.92904 16.3852 8.92904H15.7201V8.28976H16.3669C16.4292 8.28976 16.4826 8.27539 16.5259 8.24664L15.4528 5.54958H16.1464L16.8496 7.37964ZM19.7025 5.47695C20.0307 5.47393 20.2973 5.5927 20.5038 5.8348C20.7133 6.07689 20.8181 6.38555 20.8181 6.76004C20.8181 7.13453 20.7118 7.44093 20.4994 7.67999C20.29 7.91528 20.0255 8.03329 19.7069 8.03329C19.5414 8.03026 19.3927 7.9932 19.2616 7.92208C19.1305 7.85097 19.0272 7.75716 18.9525 7.64141H18.929V8.92904H18.3006V5.54958H18.929V5.859H18.9525C19.0272 5.74628 19.1305 5.65398 19.2616 5.58362C19.3956 5.51251 19.5428 5.47695 19.7025 5.47695ZM19.1019 7.22456C19.2176 7.3509 19.3678 7.41369 19.5524 7.41369C19.7362 7.41369 19.8864 7.35241 20.0021 7.22985C20.1208 7.10351 20.1801 6.9454 20.1801 6.75475C20.1801 6.56486 20.1208 6.40825 20.0021 6.28569C19.8864 6.15935 19.7362 6.09655 19.5524 6.09655C19.3707 6.09655 19.2206 6.15935 19.1019 6.28569C18.9862 6.41127 18.929 6.56788 18.929 6.75475C18.929 6.93934 18.9862 7.09594 19.1019 7.22456ZM22.8733 5.54958V6.17901H21.9123V7.1421C21.9123 7.20035 21.9299 7.24574 21.9643 7.27827C21.9988 7.31004 22.0435 7.32669 22.0999 7.32669H22.8733V7.96067H21.9827C21.7673 7.96067 21.5952 7.89787 21.467 7.77153C21.3425 7.64292 21.2795 7.46968 21.2795 7.25406V6.17901H20.9514V5.54958H21.2795V4.71663H21.9123V5.54958H22.8733ZM25.2289 7.67016C24.9975 7.91225 24.6942 8.03329 24.3192 8.03329C23.9442 8.03329 23.6409 7.91225 23.4095 7.67016C23.1788 7.42807 23.063 7.12318 23.063 6.75475C23.063 6.3901 23.1788 6.08672 23.4095 5.84463C23.6409 5.59951 23.9442 5.47695 24.3192 5.47695C24.6942 5.47695 24.9975 5.59951 25.2289 5.84463C25.4596 6.08672 25.5754 6.3901 25.5754 6.75475C25.5754 7.12318 25.4596 7.42807 25.2289 7.67016ZM24.3192 7.39931C24.5009 7.39931 24.6488 7.33804 24.7645 7.21472C24.8832 7.08914 24.9425 6.93556 24.9425 6.75475C24.9425 6.57091 24.8847 6.41808 24.7689 6.29477C24.6539 6.16918 24.5038 6.10639 24.3192 6.10639C24.1346 6.10639 23.9852 6.16918 23.8695 6.29477C23.7537 6.41808 23.6959 6.57091 23.6959 6.75475C23.6959 6.93934 23.7537 7.09216 23.8695 7.21472C23.9852 7.33804 24.1346 7.39931 24.3192 7.39931ZM29.3695 7.05509L29.7914 5.54958H30.4477L29.702 7.96067H29.0978L28.6429 6.42565L28.1836 7.96067H27.5786L26.833 5.54958H27.4893L27.9207 7.05509L28.3565 5.54958H28.9242L29.3695 7.05509ZM32.3638 5.859V5.54958H32.9922V7.96067H32.3638V7.64141H32.3403C32.2656 7.75716 32.1624 7.85097 32.0312 7.92208C31.8994 7.9932 31.7514 8.03026 31.5859 8.03329C31.2666 8.03329 31.0014 7.91528 30.789 7.67999C30.5795 7.44093 30.4748 7.13453 30.4748 6.76004C30.4748 6.38555 30.5781 6.07689 30.7839 5.8348C30.9934 5.5927 31.2622 5.47393 31.5903 5.47695C31.7529 5.47695 31.8994 5.51251 32.0312 5.58362C32.1624 5.65398 32.2656 5.74628 32.3403 5.859H32.3638ZM31.2856 7.22985C31.4043 7.35241 31.5559 7.41369 31.7405 7.41369C31.9243 7.41369 32.0745 7.3509 32.1902 7.22456C32.3059 7.09594 32.3638 6.93934 32.3638 6.75475C32.3638 6.56788 32.3045 6.41127 32.1858 6.28569C32.0701 6.15935 31.9214 6.09655 31.7405 6.09655C31.5559 6.09655 31.4043 6.15935 31.2856 6.28569C31.1699 6.40825 31.112 6.56486 31.112 6.75475C31.112 6.9454 31.1699 7.10351 31.2856 7.22985ZM33.4617 7.26314V4.47454H34.0946V7.14739C34.0946 7.26692 34.1568 7.32669 34.2821 7.32669H34.5963V7.96067H34.1605C33.9386 7.96067 33.7664 7.89938 33.6448 7.77682C33.5225 7.65426 33.4617 7.48329 33.4617 7.26314ZM34.8856 7.26314V4.47454H35.5185V7.14739C35.5185 7.26692 35.5807 7.32669 35.706 7.32669H36.0202V7.96067H35.5837C35.3617 7.96067 35.1903 7.89938 35.068 7.77682C34.9464 7.65426 34.8856 7.48329 34.8856 7.26314ZM37.3606 5.47695C37.7481 5.47695 38.0542 5.61918 38.2798 5.90289C38.5047 6.18659 38.5948 6.54367 38.5516 6.97262H36.7886C36.8076 7.10199 36.8669 7.2117 36.9673 7.30248C37.0698 7.38948 37.1995 7.43639 37.3562 7.44244C37.4653 7.44925 37.5672 7.42958 37.6609 7.38418C37.7576 7.33577 37.8264 7.27297 37.8667 7.19581H38.5281C38.4527 7.4606 38.3091 7.66713 38.0967 7.81541C37.8843 7.96066 37.6375 8.03329 37.3562 8.03329C36.9775 8.03329 36.6809 7.91073 36.4655 7.66561C36.2495 7.41671 36.1418 7.11335 36.1418 6.75475C36.1418 6.39388 36.2561 6.08975 36.4839 5.84463C36.7153 5.59951 37.0076 5.47695 37.3606 5.47695ZM37.7078 6.16918C37.6104 6.09806 37.4932 6.06251 37.3562 6.06251C37.2185 6.06251 37.0984 6.09958 36.9951 6.17372C36.8948 6.24484 36.8281 6.34167 36.7937 6.46423H37.9092C37.8748 6.33865 37.8074 6.24029 37.7078 6.16918ZM40.6127 5.54958V6.17901H39.6517V7.1421C39.6517 7.20035 39.6686 7.24574 39.703 7.27827C39.7374 7.31004 39.7828 7.32669 39.8392 7.32669H40.6127V7.96067H39.7221C39.5067 7.96067 39.3346 7.89787 39.2064 7.77153C39.0812 7.64292 39.0189 7.46968 39.0189 7.25406V6.17901H38.6908V5.54958H39.0189V4.71663H39.6517V5.54958H40.6127Z" fill="#1844BF"/>
<path d="M16.4249 25.4994L17.1287 25.7829C17.2561 25.8334 17.3516 25.9052 17.4161 25.9984C17.4812 26.0921 17.5132 26.1915 17.5132 26.2964C17.5132 26.4306 17.4644 26.5479 17.3662 26.6489C17.2679 26.7472 17.136 26.796 16.971 26.796H16.8885V27.2058H16.5579V26.796H16.0151V26.4654H16.971C17.0283 26.4654 17.0748 26.4474 17.1108 26.4115C17.1495 26.3733 17.1686 26.329 17.1686 26.2785C17.1686 26.1999 17.1287 26.1443 17.0501 26.1135L16.3205 25.8227C16.1936 25.7722 16.0982 25.7015 16.0331 25.6105C15.9685 25.5174 15.9365 25.418 15.9365 25.3125C15.9365 25.1761 15.9854 25.0588 16.0836 24.9606C16.1841 24.8595 16.3171 24.8096 16.4821 24.8096H16.5579V24.3891H16.8885V24.8096H17.4341V25.1402H16.4787C16.4237 25.1402 16.3794 25.1581 16.3457 25.194C16.3148 25.2272 16.2991 25.2693 16.2991 25.3198C16.2991 25.4034 16.3412 25.4635 16.4249 25.4994ZM19.2533 25.5673L18.4018 26.4547H19.5227V26.796H17.8882V26.5266L19.0164 25.3377C19.1045 25.2513 19.1489 25.1519 19.1489 25.0391C19.1489 24.9482 19.1146 24.8741 19.045 24.8169C18.9777 24.759 18.889 24.7304 18.779 24.7304H17.9168V24.3891H18.7829C18.9911 24.3891 19.1623 24.4492 19.2965 24.5688C19.4306 24.6861 19.4974 24.8393 19.4974 25.0285C19.4974 25.2204 19.416 25.4 19.2533 25.5673ZM20.2838 25.3737H20.9158C21.1409 25.3737 21.316 25.4427 21.4401 25.5819C21.5647 25.7206 21.627 25.8873 21.627 26.0809C21.627 26.2729 21.5636 26.4401 21.4367 26.5838C21.3121 26.7253 21.1387 26.796 20.9158 26.796H19.9493V26.4547H20.9052C21.0152 26.4547 21.1016 26.4188 21.1639 26.347C21.2262 26.2729 21.2582 26.1853 21.2605 26.0848C21.2633 25.9844 21.2318 25.8968 21.1673 25.8227C21.105 25.7481 21.0174 25.711 20.9052 25.711H19.9206L20.057 24.3891H21.4334V24.7304H20.3517L20.2838 25.3737ZM22.3674 25.3737H23C23.225 25.3737 23.3996 25.4427 23.5242 25.5819C23.6488 25.7206 23.7111 25.8873 23.7111 26.0809C23.7111 26.2729 23.6477 26.4401 23.5208 26.5838C23.3962 26.7253 23.2222 26.796 23 26.796H22.0334V26.4547H22.9887C23.0993 26.4547 23.1852 26.4188 23.2475 26.347C23.3098 26.2729 23.3423 26.1853 23.3446 26.0848C23.3468 25.9844 23.316 25.8968 23.2514 25.8227C23.1891 25.7481 23.1016 25.711 22.9887 25.711H22.0048L22.1412 24.3891H23.5169V24.7304H22.4358L22.3674 25.3737ZM24.0429 25.9159V25.2693C24.0429 25.0032 24.1315 24.7821 24.3089 24.6047C24.4863 24.4273 24.7086 24.3386 24.9769 24.3386C25.2429 24.3386 25.4658 24.4273 25.6454 24.6047C25.825 24.7821 25.9148 25.0032 25.9148 25.2693V25.9159C25.9148 26.1819 25.825 26.4031 25.6454 26.5805C25.4658 26.7578 25.2429 26.8465 24.9769 26.8465C24.7086 26.8465 24.4863 26.7578 24.3089 26.5805C24.1315 26.4031 24.0429 26.1819 24.0429 25.9159ZM24.3914 25.2693V25.9159C24.3914 26.0882 24.4464 26.2297 24.557 26.3397C24.667 26.4474 24.8068 26.5013 24.9769 26.5013C25.1469 26.5013 25.2873 26.4474 25.3973 26.3397C25.5101 26.2297 25.5662 26.0882 25.5662 25.9159V25.2693C25.5662 25.0969 25.5101 24.9555 25.3973 24.8455C25.2873 24.7355 25.1469 24.6799 24.9769 24.6799C24.8068 24.6799 24.667 24.7355 24.557 24.8455C24.4464 24.9555 24.3914 25.0969 24.3914 25.2693ZM26.3481 25.9159V25.2693C26.3481 25.0032 26.4362 24.7821 26.6136 24.6047C26.791 24.4273 27.0138 24.3386 27.2821 24.3386C27.5476 24.3386 27.7705 24.4273 27.9501 24.6047C28.1297 24.7821 28.2195 25.0032 28.2195 25.2693V25.9159C28.2195 26.1819 28.1297 26.4031 27.9501 26.5805C27.7705 26.7578 27.5476 26.8465 27.2821 26.8465C27.0138 26.8465 26.791 26.7578 26.6136 26.5805C26.4362 26.4031 26.3481 26.1819 26.3481 25.9159ZM26.6961 25.2693V25.9159C26.6961 26.0882 26.7517 26.2297 26.8617 26.3397C26.9717 26.4474 27.1121 26.5013 27.2821 26.5013C27.4522 26.5013 27.592 26.4474 27.702 26.3397C27.8148 26.2297 27.8709 26.0882 27.8709 25.9159V25.2693C27.8709 25.0969 27.8148 24.9555 27.702 24.8455C27.592 24.7355 27.4522 24.6799 27.2821 24.6799C27.1121 24.6799 26.9717 24.7355 26.8617 24.8455C26.7517 24.9555 26.6961 25.0969 26.6961 25.2693ZM28.3918 26.3649H28.8049V26.796H28.3918V26.3649ZM29.0317 25.9159V25.2693C29.0317 25.0032 29.1204 24.7821 29.2972 24.6047C29.4746 24.4273 29.6974 24.3386 29.9657 24.3386C30.2312 24.3386 30.4541 24.4273 30.6337 24.6047C30.8133 24.7821 30.9031 25.0032 30.9031 25.2693V25.9159C30.9031 26.1819 30.8133 26.4031 30.6337 26.5805C30.4541 26.7578 30.2312 26.8465 29.9657 26.8465C29.6974 26.8465 29.4746 26.7578 29.2972 26.5805C29.1204 26.4031 29.0317 26.1819 29.0317 25.9159ZM29.3803 25.2693V25.9159C29.3803 26.0882 29.4353 26.2297 29.5453 26.3397C29.6553 26.4474 29.7956 26.5013 29.9657 26.5013C30.1358 26.5013 30.2756 26.4474 30.3861 26.3397C30.4984 26.2297 30.5545 26.0882 30.5545 25.9159V25.2693C30.5545 25.0969 30.4984 24.9555 30.3861 24.8455C30.2756 24.7355 30.1358 24.6799 29.9657 24.6799C29.7956 24.6799 29.6553 24.7355 29.5453 24.8455C29.4353 24.9555 29.3803 25.0969 29.3803 25.2693ZM31.3364 25.9159V25.2693C31.3364 25.0032 31.4251 24.7821 31.6025 24.6047C31.7793 24.4273 32.0021 24.3386 32.2704 24.3386C32.5365 24.3386 32.7588 24.4273 32.9384 24.6047C33.118 24.7821 33.2078 25.0032 33.2078 25.2693V25.9159C33.2078 26.1819 33.118 26.4031 32.9384 26.5805C32.7588 26.7578 32.5365 26.8465 32.2704 26.8465C32.0021 26.8465 31.7793 26.7578 31.6025 26.5805C31.4251 26.4031 31.3364 26.1819 31.3364 25.9159ZM31.685 25.2693V25.9159C31.685 26.0882 31.74 26.2297 31.85 26.3397C31.9606 26.4474 32.1004 26.5013 32.2704 26.5013C32.4405 26.5013 32.5808 26.4474 32.6908 26.3397C32.8031 26.2297 32.8598 26.0882 32.8598 25.9159V25.2693C32.8598 25.0969 32.8031 24.9555 32.6908 24.8455C32.5808 24.7355 32.4405 24.6799 32.2704 24.6799C32.1004 24.6799 31.9606 24.7355 31.85 24.8455C31.74 24.9555 31.685 25.0969 31.685 25.2693Z" fill="#1844BF"/>
<path d="M27.4774 33.4195C28.6399 33.4195 29.5823 32.4771 29.5823 31.3146C29.5823 30.1521 28.6399 29.2097 27.4774 29.2097C26.3149 29.2097 25.3726 30.1521 25.3726 31.3146C25.3726 32.4771 26.3149 33.4195 27.4774 33.4195Z" fill="#1844BF"/>
<path d="M13.1083 20.5657C14.2708 20.5657 15.2132 19.6233 15.2132 18.4608C15.2132 17.2983 14.2708 16.356 13.1083 16.356C11.9458 16.356 11.0034 17.2983 11.0034 18.4608C11.0034 19.6233 11.9458 20.5657 13.1083 20.5657Z" fill="white" stroke="#E2EBF4" stroke-width="0.321268" stroke-linecap="round" stroke-linejoin="round"/>
<path d="M21.6962 33.4195C22.8587 33.4195 23.8011 32.4771 23.8011 31.3146C23.8011 30.1521 22.8587 29.2097 21.6962 29.2097C20.5337 29.2097 19.5913 30.1521 19.5913 31.3146C19.5913 32.4771 20.5337 33.4195 21.6962 33.4195Z" fill="#E2EBF4"/>
<path d="M27.4492 30.3323V32.2968" stroke="white" stroke-width="0.321268" stroke-linecap="round"/>
<path d="M21.668 30.3323V32.2968" stroke="#0C38B7" stroke-width="0.321268" stroke-linecap="round"/>
<path d="M28.4597 31.3425H26.4951" stroke="white" stroke-width="0.321268" stroke-linecap="round"/>
<path d="M22.5011 31.1201L21.6771 30.2961L20.8525 31.1201" stroke="#0C38B7" stroke-width="0.321268" stroke-linecap="round" stroke-linejoin="round"/>
<path d="M7.01807 56.0959H41.5662" stroke="#0C38B7" stroke-width="0.321268" stroke-linecap="round"/>
<path d="M16.448 47.1152H21.7804C21.9354 47.1152 22.061 46.9896 22.061 46.8346V46.5539C22.061 46.3989 21.9354 46.2733 21.7804 46.2733H16.448C16.293 46.2733 16.1674 46.3989 16.1674 46.5539V46.8346C16.1674 46.9896 16.293 47.1152 16.448 47.1152Z" fill="#E2EBF4"/>
<path d="M16.448 52.7283H26.8321C26.9871 52.7283 27.1128 52.6026 27.1128 52.4476V52.167C27.1128 52.012 26.9871 51.8863 26.8321 51.8863H16.448C16.293 51.8863 16.1674 52.012 16.1674 52.167V52.4476C16.1674 52.6026 16.293 52.7283 16.448 52.7283Z" fill="#E2EBF4"/>
<path d="M30.0312 46.7783H35.8126C35.9676 46.7783 36.0933 46.6527 36.0933 46.4977V45.768C36.0933 45.613 35.9676 45.4873 35.8126 45.4873H30.0312C29.8762 45.4873 29.7505 45.613 29.7505 45.768V46.4977C29.7505 46.6527 29.8762 46.7783 30.0312 46.7783Z" fill="#E2EBF4"/>
<path d="M33.1745 47.7888H35.8126C35.9676 47.7888 36.0933 47.6632 36.0933 47.5082C36.0933 47.3532 35.9676 47.2275 35.8126 47.2275H33.1745C33.0195 47.2275 32.8938 47.3532 32.8938 47.5082C32.8938 47.6632 33.0195 47.7888 33.1745 47.7888Z" fill="#E2EBF4"/>
<path d="M31.4906 52.4475H35.8126C35.9676 52.4475 36.0933 52.3219 36.0933 52.1669V51.4372C36.0933 51.2822 35.9676 51.1565 35.8126 51.1565H31.4906C31.3356 51.1565 31.2099 51.2822 31.2099 51.4372V52.1669C31.2099 52.3219 31.3356 52.4475 31.4906 52.4475Z" fill="#E2EBF4"/>
<path d="M33.1745 53.4578H35.8126C35.9676 53.4578 36.0933 53.3321 36.0933 53.1771C36.0933 53.0221 35.9676 52.8965 35.8126 52.8965H33.1745C33.0195 52.8965 32.8938 53.0221 32.8938 53.1771C32.8938 53.3321 33.0195 53.4578 33.1745 53.4578Z" fill="#E2EBF4"/>
<path d="M43.3344 45.6277H42.6047C42.5582 45.6277 42.5205 45.6654 42.5205 45.7119V49.0236C42.5205 49.0701 42.5582 49.1078 42.6047 49.1078H43.3344C43.3809 49.1078 43.4186 49.0701 43.4186 49.0236V45.7119C43.4186 45.6654 43.3809 45.6277 43.3344 45.6277Z" fill="white" stroke="#1844BF" stroke-width="0.321268"/>
<path d="M41.7626 47.7046H41.0329C40.9864 47.7046 40.9487 47.7423 40.9487 47.7888V49.0237C40.9487 49.0702 40.9864 49.1078 41.0329 49.1078H41.7626C41.8091 49.1078 41.8468 49.0702 41.8468 49.0237V47.7888C41.8468 47.7423 41.8091 47.7046 41.7626 47.7046Z" fill="white" stroke="#1844BF" stroke-width="0.321268"/>
<path d="M44.9062 46.5259H44.1765C44.13 46.5259 44.0923 46.5636 44.0923 46.6101V49.0237C44.0923 49.0702 44.13 49.1079 44.1765 49.1079H44.9062C44.9527 49.1079 44.9904 49.0702 44.9904 49.0237V46.6101C44.9904 46.5636 44.9527 46.5259 44.9062 46.5259Z" fill="white" stroke="#1844BF" stroke-width="0.321268"/>
<path d="M46.4775 44.449H45.7478C45.7013 44.449 45.6636 44.4867 45.6636 44.5332V49.0236C45.6636 49.0701 45.7013 49.1078 45.7478 49.1078H46.4775C46.524 49.1078 46.5617 49.0701 46.5617 49.0236V44.5332C46.5617 44.4867 46.524 44.449 46.4775 44.449Z" fill="white" stroke="#1844BF" stroke-width="0.321268"/>
<path d="M141.903 23.7117H96.1005C95.9455 23.7117 95.8198 23.8373 95.8198 23.9923V53.6852C95.8198 53.8402 95.9455 53.9659 96.1005 53.9659H141.903C142.058 53.9659 142.183 53.8402 142.183 53.6852V23.9923C142.183 23.8373 142.058 23.7117 141.903 23.7117Z" fill="#E2EBF4"/>
<path d="M138.984 27.5566H93.4064C93.2359 27.5566 93.0977 27.6949 93.0977 27.8654V42.796C93.0977 42.9665 93.2359 43.1047 93.4064 43.1047H138.984C139.155 43.1047 139.293 42.9665 139.293 42.796V27.8654C139.293 27.6949 139.155 27.5566 138.984 27.5566Z" stroke="#E2EBF4" stroke-width="0.321268" stroke-dasharray="1.75 1.75"/>
<path d="M138.703 44.2273H93.4064C93.2359 44.2273 93.0977 44.3655 93.0977 44.536V57.5021C93.0977 57.6726 93.2359 57.8108 93.4064 57.8108H138.703C138.874 57.8108 139.012 57.6726 139.012 57.5021V44.536C139.012 44.3655 138.874 44.2273 138.703 44.2273Z" stroke="#E2EBF4" stroke-width="0.321268"/>
<path d="M146.225 18.1267H109.067C108.958 18.1267 108.87 18.2147 108.87 18.3232V45.9954C108.87 46.1039 108.958 46.1918 109.067 46.1918H146.225C146.333 46.1918 146.421 46.1039 146.421 45.9954V18.3232C146.421 18.2147 146.333 18.1267 146.225 18.1267Z" stroke="#FF952F" stroke-width="0.321268"/>
<path d="M95.0802 18.9877L91.3664 21.9163C91.2447 22.0123 91.2238 22.1888 91.3198 22.3105L96.0581 28.3192C96.1541 28.4409 96.3305 28.4618 96.4523 28.3658L100.166 25.4372C100.288 25.3412 100.309 25.1647 100.213 25.043L95.4744 19.0343C95.3784 18.9126 95.2019 18.8917 95.0802 18.9877Z" fill="white" stroke="#FF952F" stroke-width="0.321268"/>
<path d="M92.2641 22.0435C92.1779 21.9343 92.0195 21.9155 91.9102 22.0017C91.801 22.0879 91.7822 22.2463 91.8684 22.3555L92.0868 22.6325C92.173 22.7418 92.3314 22.7605 92.4407 22.6744C92.5499 22.5882 92.5687 22.4298 92.4825 22.3205L92.2641 22.0435Z" fill="#FF952F"/>
<path d="M99.4858 24.6905C99.3996 24.5812 99.2412 24.5625 99.1319 24.6487C99.0227 24.7348 99.0039 24.8933 99.0901 25.0025L99.3085 25.2795C99.3947 25.3888 99.5531 25.4075 99.6624 25.3213C99.7716 25.2352 99.7903 25.0767 99.7042 24.9675L99.4858 24.6905Z" fill="#FF952F"/>
<path d="M94.9817 22.8312C94.9766 22.7526 95.0518 22.6931 95.1271 22.7166L96.2749 23.0736C96.3861 23.1084 96.4641 23.2072 96.4719 23.3234L96.5516 24.5229C96.5567 24.6015 96.4815 24.661 96.4063 24.6374L95.2578 24.2804C95.1473 24.2456 95.0692 24.1468 95.0614 24.0312L94.9817 22.8312Z" fill="#FF952F"/>
<path d="M97.6873 15.3322L93.54 17.6058C93.4041 17.6803 93.3543 17.8509 93.4289 17.9868L97.1074 24.6969C97.1819 24.8328 97.3525 24.8826 97.4884 24.8081L101.636 22.5345C101.772 22.4599 101.821 22.2894 101.747 22.1534L98.0683 15.4434C97.9938 15.3075 97.8232 15.2577 97.6873 15.3322Z" fill="white" stroke="#1844BF" stroke-width="0.321268"/>
<path d="M94.4038 17.8793C94.3369 17.7573 94.1838 17.7126 94.0618 17.7795C93.9397 17.8464 93.895 17.9995 93.9619 18.1216L94.1315 18.4309C94.1984 18.5529 94.3515 18.5976 94.4736 18.5307C94.5956 18.4638 94.6402 18.3106 94.5734 18.1886L94.4038 17.8793Z" fill="#1844BF"/>
<path d="M101.088 21.6855C101.021 21.5635 100.868 21.5188 100.746 21.5857C100.624 21.6526 100.579 21.8057 100.646 21.9277L100.816 22.237C100.882 22.359 101.036 22.4037 101.158 22.3368C101.28 22.2699 101.324 22.1168 101.257 21.9948L101.088 21.6855Z" fill="#1844BF"/>
<path fill-rule="evenodd" clip-rule="evenodd" d="M97.9827 19.5969C97.9771 19.5121 97.9535 19.4274 97.9098 19.3477C97.7492 19.0547 97.3816 18.9475 97.0891 19.108C96.7961 19.2685 96.6889 19.6362 96.8495 19.9292C96.8927 20.0083 96.9516 20.074 97.0201 20.1245C96.7568 20.2952 96.6659 20.6432 96.8191 20.9221C96.9797 21.2151 97.3473 21.3223 97.6403 21.1618C97.7711 21.0905 97.8649 20.9772 97.9142 20.8486L97.9075 21.136C97.9069 21.1792 97.953 21.2073 97.9906 21.1865L98.356 20.9861C98.3942 20.9654 98.3953 20.9115 98.3582 20.889L98.1124 20.7397C98.2477 20.7672 98.393 20.7493 98.5238 20.6774C98.8168 20.5169 98.924 20.1492 98.7635 19.8568C98.6103 19.5773 98.2684 19.4667 97.9827 19.5969Z" fill="#1844BF"/>
<path d="M102.09 13.8497L97.5216 15.0738C97.3719 15.114 97.283 15.2679 97.3231 15.4176L99.3037 22.8091C99.3438 22.9588 99.4977 23.0476 99.6474 23.0075L104.216 21.7834C104.366 21.7433 104.454 21.5894 104.414 21.4397L102.434 14.0482C102.394 13.8985 102.24 13.8096 102.09 13.8497Z" fill="white" stroke="#FF952F" stroke-width="0.321268"/>
<path d="M98.2961 15.5443C98.2601 15.4099 98.1219 15.3302 97.9875 15.3662C97.8531 15.4022 97.7733 15.5404 97.8093 15.6748L97.9006 16.0155C97.9367 16.1499 98.0748 16.2296 98.2092 16.1936C98.3436 16.1576 98.4234 16.0195 98.3874 15.8851L98.2961 15.5443Z" fill="#FF952F"/>
<path d="M103.885 20.8285C103.849 20.6941 103.711 20.6144 103.576 20.6504C103.442 20.6864 103.362 20.8245 103.398 20.9589L103.49 21.2996C103.526 21.4341 103.664 21.5138 103.798 21.4778C103.932 21.4418 104.012 21.3036 103.976 21.1692L103.885 20.8285Z" fill="#FF952F"/>
<path d="M101.229 19.3804C101.198 19.4298 101.133 19.4472 101.081 19.4197L100.971 19.3613C100.252 18.983 99.7763 18.7326 99.6612 18.3027C99.5669 17.9502 99.764 17.6027 100.109 17.5101C100.281 17.4641 100.468 17.4922 100.62 17.5775C100.65 17.5943 100.69 17.5836 100.708 17.5539C100.797 17.404 100.944 17.2867 101.116 17.2407C101.461 17.1481 101.806 17.3501 101.9 17.7026C102.015 18.1326 101.729 18.5873 101.295 19.2743L101.229 19.3804Z" fill="#FF952F"/>
<path d="M106.738 13.9471L102.009 13.9781C101.854 13.9792 101.729 14.1056 101.73 14.2606L101.78 21.9127C101.781 22.0677 101.908 22.1925 102.063 22.1915L106.792 22.1605C106.947 22.1595 107.072 22.033 107.071 21.878L107.021 14.2259C107.02 14.0709 106.893 13.9461 106.738 13.9471Z" fill="white" stroke="#1844BF" stroke-width="0.321268"/>
<path d="M102.639 14.6288C102.638 14.4896 102.525 14.3776 102.386 14.3785C102.247 14.3794 102.135 14.4929 102.135 14.6321L102.138 14.9848C102.139 15.1239 102.252 15.236 102.391 15.2351C102.531 15.2342 102.643 15.1206 102.642 14.9815L102.639 14.6288Z" fill="#1844BF"/>
<path d="M106.714 21.1529C106.713 21.0138 106.599 20.9017 106.46 20.9026C106.321 20.9036 106.209 21.0171 106.21 21.1562L106.212 21.509C106.213 21.6481 106.326 21.7602 106.466 21.7593C106.605 21.7583 106.717 21.6448 106.716 21.5057L106.714 21.1529Z" fill="#1844BF"/>
<path fill-rule="evenodd" clip-rule="evenodd" d="M104.495 17.0559C104.452 17.0161 104.385 17.0166 104.343 17.057L104.252 17.1423C103.659 17.698 103.267 18.0651 103.27 18.5102C103.272 18.8751 103.554 19.158 103.911 19.1557C104.075 19.1546 104.233 19.0906 104.353 18.9857L104.177 19.2966C104.156 19.3342 104.183 19.3808 104.226 19.3803L104.642 19.3775C104.686 19.3775 104.713 19.3303 104.691 19.2933L104.51 18.9851C104.632 19.0878 104.791 19.1501 104.955 19.149C105.312 19.1462 105.59 18.8599 105.588 18.4951C105.584 18.05 105.188 17.6879 104.587 17.1401L104.495 17.0559Z" fill="#1844BF"/>
<path d="M144.981 53.3296C149.068 53.3296 152.382 50.0566 152.382 46.0191C152.382 41.9817 149.068 38.7087 144.981 38.7087C140.893 38.7087 137.58 41.9817 137.58 46.0191C137.58 50.0566 140.893 53.3296 144.981 53.3296Z" fill="#FF952F"/>
<path d="M144.981 49.7879C147.062 49.7879 148.749 48.1006 148.749 46.0192C148.749 43.9378 147.062 42.2505 144.981 42.2505C142.899 42.2505 141.212 43.9378 141.212 46.0192C141.212 48.1006 142.899 49.7879 144.981 49.7879Z" stroke="white" stroke-width="0.321268"/>
<path d="M138.396 46.019C138.396 44.8796 138.701 43.7598 139.279 42.7725L140.989 43.7463C140.585 44.4373 140.372 45.2214 140.372 46.019H138.396Z" fill="white"/>
<path d="M141.688 40.3172C142.676 39.7475 143.797 39.4511 144.941 39.4579L144.953 41.4264C144.153 41.4213 143.367 41.629 142.676 42.0275L141.688 40.3172Z" fill="white"/>
<path d="M148.273 40.3174C149.259 40.8871 150.077 41.7105 150.643 42.7046L148.944 43.6987C148.548 43.0032 147.976 42.4268 147.285 42.0277L148.273 40.3174Z" fill="white"/>
<path d="M151.564 46.019C151.564 47.159 151.26 48.2788 150.682 49.2656L148.972 48.2918C149.376 47.6008 149.589 46.8172 149.589 46.019H151.564Z" fill="white"/>
<path d="M148.273 51.7208C147.286 52.2911 146.164 52.5874 145.02 52.5801L145.008 50.6122C145.809 50.6167 146.594 50.4096 147.285 50.0105L148.273 51.7208Z" fill="white"/>
<path d="M141.689 51.7209C140.702 51.1512 139.884 50.3277 139.318 49.3337L141.017 48.3396C141.413 49.0351 141.986 49.6115 142.677 50.0106L141.689 51.7209Z" fill="white"/>
<path d="M143.699 21.635H97.8969C97.7419 21.635 97.6162 21.7607 97.6162 21.9157V51.6086C97.6162 51.7636 97.7419 51.8892 97.8969 51.8892H143.699C143.854 51.8892 143.98 51.7636 143.98 51.6086V21.9157C143.98 21.7607 143.854 21.635 143.699 21.635Z" fill="white" stroke="#0C38B7" stroke-width="0.321268"/>
<path d="M114.315 23.6558L138.283 23.6558C138.515 23.6558 138.704 23.4673 138.704 23.2348C138.704 23.0023 138.515 22.8138 138.283 22.8138L114.315 22.8138C114.083 22.8138 113.894 23.0023 113.894 23.2348C113.894 23.4673 114.083 23.6558 114.315 23.6558Z" fill="#E2EBF4"/>
<path d="M99.2722 27.4727H103.819C104.051 27.4727 104.24 27.2842 104.24 27.0517C104.24 26.8192 104.051 26.6307 103.819 26.6307H99.2722C99.0397 26.6307 98.8512 26.8192 98.8512 27.0517C98.8512 27.2842 99.0397 27.4727 99.2722 27.4727Z" fill="#E2EBF4"/>
<path d="M99.2722 29.6614H103.819C104.051 29.6614 104.24 29.4729 104.24 29.2404C104.24 29.0079 104.051 28.8194 103.819 28.8194H99.2722C99.0397 28.8194 98.8512 29.0079 98.8512 29.2404C98.8512 29.4729 99.0397 29.6614 99.2722 29.6614Z" fill="#E2EBF4"/>
<path d="M99.2722 31.8506H103.819C104.051 31.8506 104.24 31.6621 104.24 31.4296C104.24 31.1971 104.051 31.0086 103.819 31.0086H99.2722C99.0397 31.0086 98.8512 31.1971 98.8512 31.4296C98.8512 31.6621 99.0397 31.8506 99.2722 31.8506Z" fill="#E2EBF4"/>
<path d="M99.2722 34.0398H103.819C104.051 34.0398 104.24 33.8513 104.24 33.6188C104.24 33.3863 104.051 33.1978 103.819 33.1978H99.2722C99.0397 33.1978 98.8512 33.3863 98.8512 33.6188C98.8512 33.8513 99.0397 34.0398 99.2722 34.0398Z" fill="#E2EBF4"/>
<path d="M99.2722 38.8669H103.819C104.051 38.8669 104.24 38.6785 104.24 38.446C104.24 38.2135 104.051 38.025 103.819 38.025H99.2722C99.0397 38.025 98.8512 38.2135 98.8512 38.446C98.8512 38.6785 99.0397 38.8669 99.2722 38.8669Z" fill="#E2EBF4"/>
<path d="M99.2722 41.0559H103.819C104.051 41.0559 104.24 40.8674 104.24 40.6349C104.24 40.4024 104.051 40.214 103.819 40.214H99.2722C99.0397 40.214 98.8512 40.4024 98.8512 40.6349C98.8512 40.8674 99.0397 41.0559 99.2722 41.0559Z" fill="#E2EBF4"/>
<path d="M99.2722 48.9705H103.819C104.051 48.9705 104.24 48.782 104.24 48.5495C104.24 48.317 104.051 48.1285 103.819 48.1285H99.2722C99.0397 48.1285 98.8512 48.317 98.8512 48.5495C98.8512 48.782 99.0397 48.9705 99.2722 48.9705Z" fill="#E2EBF4"/>
<path d="M99.1036 23.6557C99.3361 23.6557 99.5246 23.4672 99.5246 23.2347C99.5246 23.0022 99.3361 22.8137 99.1036 22.8137C98.8711 22.8137 98.6826 23.0022 98.6826 23.2347C98.6826 23.4672 98.8711 23.6557 99.1036 23.6557Z" fill="#E2EBF4"/>
<path d="M100.619 23.6557C100.852 23.6557 101.04 23.4672 101.04 23.2347C101.04 23.0022 100.852 22.8137 100.619 22.8137C100.387 22.8137 100.198 23.0022 100.198 23.2347C100.198 23.4672 100.387 23.6557 100.619 23.6557Z" fill="#E2EBF4"/>
<path d="M102.079 23.6557C102.311 23.6557 102.5 23.4672 102.5 23.2347C102.5 23.0022 102.311 22.8137 102.079 22.8137C101.846 22.8137 101.658 23.0022 101.658 23.2347C101.658 23.4672 101.846 23.6557 102.079 23.6557Z" fill="#E2EBF4"/>
<path fill-rule="evenodd" clip-rule="evenodd" d="M135.716 50.1846C135.536 50.1173 135.36 50.293 135.427 50.4731L137.404 55.7853C137.46 55.9385 137.657 55.9812 137.773 55.8656L138.943 54.6947L140.536 56.2877C140.602 56.3533 140.709 56.3533 140.774 56.2877L141.53 55.5316C141.596 55.4659 141.596 55.3593 141.53 55.2936L139.938 53.7006L141.108 52.5303C141.224 52.4147 141.181 52.2177 141.028 52.161L135.716 50.1846Z" fill="white"/>
<path d="M138.943 54.6944L139.003 54.6349C138.97 54.6024 138.917 54.6024 138.884 54.6349L138.943 54.6944ZM139.938 53.7004L139.878 53.6409C139.862 53.6566 139.854 53.6785 139.854 53.7004C139.854 53.7228 139.862 53.7442 139.878 53.7599L139.938 53.7004ZM135.506 50.4437C135.464 50.3309 135.574 50.2214 135.687 50.263L135.745 50.1052C135.497 50.0132 135.256 50.2545 135.348 50.5021L135.506 50.4437ZM137.482 55.7559L135.506 50.4437L135.348 50.5021L137.324 55.8142L137.482 55.7559ZM137.713 55.8058C137.641 55.8782 137.518 55.8513 137.482 55.7559L137.324 55.8142C137.403 56.0253 137.673 56.0842 137.832 55.9248L137.713 55.8058ZM138.884 54.6349L137.713 55.8058L137.832 55.9248L139.003 54.7545L138.884 54.6349ZM140.596 56.2279L139.003 54.6349L138.884 54.7545L140.477 56.3469L140.596 56.2279ZM140.715 56.2279C140.682 56.2605 140.628 56.2605 140.596 56.2279L140.477 56.3469C140.575 56.4457 140.735 56.4457 140.834 56.3469L140.715 56.2279ZM141.471 55.4718L140.715 56.2279L140.834 56.3469L141.59 55.5908L141.471 55.4718ZM141.471 55.3528C141.503 55.3854 141.503 55.4387 141.471 55.4718L141.59 55.5908C141.689 55.492 141.689 55.3321 141.59 55.2339L141.471 55.3528ZM139.878 53.7599L141.471 55.3528L141.59 55.2339L139.997 53.6409L139.878 53.7599ZM141.049 52.47L139.878 53.6409L139.997 53.7599L141.168 52.5896L141.049 52.47ZM140.999 52.2393C141.094 52.2752 141.121 52.3982 141.049 52.47L141.168 52.5896C141.327 52.4301 141.268 52.1602 141.057 52.0816L140.999 52.2393ZM135.687 50.263L140.999 52.2393L141.057 52.0816L135.745 50.1052L135.687 50.263Z" fill="#0C38B7"/>
<path d="M143.077 18.0682L141.648 16.6394L140.219 18.0682L141.648 19.4971L143.077 18.0682Z" fill="#FF952F"/>
<path d="M99.7524 8.28774H100.529C100.473 8.70883 100.281 9.05669 99.9532 9.33211C99.6285 9.60355 99.2236 9.73966 98.7369 9.73966C98.1941 9.73966 97.7529 9.56932 97.4149 9.23021C97.0761 8.88713 96.9067 8.46604 96.9067 7.96615C96.9067 7.46386 97.0761 7.04118 97.4149 6.69809C97.7529 6.35183 98.1941 6.17831 98.7369 6.17831C99.2096 6.17831 99.6078 6.31283 99.9317 6.58108C100.26 6.84934 100.456 7.18844 100.519 7.59998H99.7359C99.6764 7.38586 99.5566 7.21392 99.3765 7.08497C99.2005 6.95283 98.9856 6.88835 98.7312 6.89153C98.4139 6.89471 98.1585 7.00058 97.9644 7.20754C97.771 7.41132 97.6735 7.66287 97.6735 7.96138C97.6735 8.25988 97.771 8.51301 97.9644 8.72077C98.1585 8.92773 98.418 9.03121 98.7419 9.03121C98.9997 9.03121 99.2178 8.96355 99.398 8.82743C99.5814 8.69131 99.6995 8.51142 99.7524 8.28774ZM102.931 7.4567V7.13113H103.64V9.66802H102.931V9.33211H102.905C102.82 9.4539 102.704 9.5526 102.556 9.62742C102.407 9.70225 102.24 9.74125 102.054 9.74444C101.693 9.74444 101.394 9.62026 101.155 9.3727C100.918 9.12116 100.8 8.79878 100.8 8.40475C100.8 8.01072 100.917 7.68595 101.149 7.43123C101.385 7.1765 101.688 7.05153 102.059 7.05472C102.242 7.05472 102.407 7.09212 102.556 7.16695C102.704 7.24098 102.82 7.33809 102.905 7.4567H102.931ZM101.715 8.89907C101.849 9.02803 102.02 9.09251 102.228 9.09251C102.436 9.09251 102.605 9.02644 102.735 8.8935C102.866 8.75818 102.931 8.59341 102.931 8.39918C102.931 8.20257 102.864 8.03779 102.73 7.90565C102.6 7.77271 102.432 7.70665 102.228 7.70665C102.02 7.70665 101.849 7.77271 101.715 7.90565C101.584 8.0346 101.519 8.19938 101.519 8.39918C101.519 8.59978 101.584 8.76614 101.715 8.89907ZM104.869 7.13113H106.318V7.79341H104.89C104.816 7.79341 104.779 7.82924 104.779 7.90008C104.779 7.96137 104.808 7.99719 104.869 8.00754L105.858 8.20097C106.059 8.24156 106.217 8.32515 106.334 8.45012C106.45 8.57589 106.508 8.72714 106.508 8.90385C106.508 9.12435 106.425 9.30823 106.259 9.4539C106.097 9.59639 105.895 9.66802 105.651 9.66802H104.128V9.00096H105.64C105.718 9.00096 105.757 8.96355 105.757 8.88872C105.757 8.83061 105.727 8.79321 105.667 8.77649L104.662 8.56794C104.472 8.53052 104.317 8.44853 104.197 8.32276C104.077 8.19778 104.018 8.04973 104.018 7.88018C104.018 7.66287 104.099 7.48456 104.261 7.34525C104.423 7.20197 104.626 7.13113 104.869 7.13113ZM106.882 6H107.595V6.80477H106.882V6ZM106.882 7.13113H107.595V9.66802H106.882V7.13113ZM109.67 7.05949C109.994 7.05949 110.249 7.15979 110.437 7.36038C110.624 7.56098 110.717 7.84117 110.717 8.20097V9.66802H110.003V8.30286C110.003 8.12614 109.952 7.98684 109.849 7.88495C109.747 7.78306 109.619 7.73212 109.464 7.73212C109.298 7.73212 109.157 7.79023 109.041 7.90565C108.924 8.01709 108.866 8.16674 108.866 8.3538V9.66802H108.152V7.13113H108.845V7.4368H108.871C109.058 7.18526 109.324 7.05949 109.67 7.05949ZM113.51 9.36236C113.249 9.61708 112.907 9.74444 112.484 9.74444C112.061 9.74444 111.719 9.61708 111.457 9.36236C111.197 9.10763 111.067 8.78684 111.067 8.39918C111.067 8.0155 111.197 7.6963 111.457 7.44158C111.719 7.18367 112.061 7.05472 112.484 7.05472C112.907 7.05472 113.249 7.18367 113.51 7.44158C113.77 7.6963 113.901 8.0155 113.901 8.39918C113.901 8.78684 113.77 9.10763 113.51 9.36236ZM112.484 9.07738C112.688 9.07738 112.855 9.0129 112.986 8.88315C113.12 8.75102 113.187 8.58943 113.187 8.39918C113.187 8.20575 113.122 8.04495 112.991 7.9152C112.86 7.78306 112.692 7.71699 112.484 7.71699C112.275 7.71699 112.106 7.78306 111.976 7.9152C111.846 8.04495 111.78 8.20575 111.78 8.39918C111.78 8.59341 111.846 8.7542 111.976 8.88315C112.106 9.0129 112.275 9.07738 112.484 9.07738Z" fill="#1844BF"/>
<path d="M115.578 28.3145H108.056C107.839 28.3145 107.664 28.4904 107.664 28.7074V45.2658C107.664 45.4828 107.839 45.6587 108.056 45.6587H115.578C115.795 45.6587 115.971 45.4828 115.971 45.2658V28.7074C115.971 28.4904 115.795 28.3145 115.578 28.3145Z" fill="#E2EBF4"/>
<path d="M135.729 26.7427H106.597C106.442 26.7427 106.316 26.8683 106.316 27.0233V46.9496C106.316 47.1046 106.442 47.2302 106.597 47.2302H135.729C135.884 47.2302 136.009 47.1046 136.009 46.9496V27.0233C136.009 26.8683 135.884 26.7427 135.729 26.7427Z" fill="white" stroke="#E2EBF4" stroke-width="0.321268" stroke-linecap="round" stroke-linejoin="round"/>
<path d="M138.423 33.0857H137.974C137.819 33.0857 137.693 33.2113 137.693 33.3663V41.1123C137.693 41.2673 137.819 41.393 137.974 41.393H138.423C138.578 41.393 138.703 41.2673 138.703 41.1123V33.3663C138.703 33.2113 138.578 33.0857 138.423 33.0857Z" fill="white" stroke="#E2EBF4" stroke-width="0.321268" stroke-linecap="round" stroke-linejoin="round"/>
<path d="M115.354 50.8228H112.379C112.224 50.8228 112.098 50.9484 112.098 51.1034V54.9764C112.098 55.1314 112.224 55.257 112.379 55.257H115.354C115.509 55.257 115.634 55.1314 115.634 54.9764V51.1034C115.634 50.9484 115.509 50.8228 115.354 50.8228Z" fill="#1844BF" stroke="#0C38B7" stroke-width="0.321268"/>
<path d="M115.354 50.093H112.379C112.224 50.093 112.098 50.2187 112.098 50.3737V54.2467C112.098 54.4017 112.224 54.5273 112.379 54.5273H115.354C115.509 54.5273 115.634 54.4017 115.634 54.2467V50.3737C115.634 50.2187 115.509 50.093 115.354 50.093Z" fill="white" stroke="#0C38B7" stroke-width="0.321268"/>
<path d="M119.9 50.8228H116.925C116.77 50.8228 116.645 50.9484 116.645 51.1034V54.9764C116.645 55.1314 116.77 55.257 116.925 55.257H119.9C120.055 55.257 120.181 55.1314 120.181 54.9764V51.1034C120.181 50.9484 120.055 50.8228 119.9 50.8228Z" fill="#1844BF" stroke="#0C38B7" stroke-width="0.321268"/>
<path d="M119.9 50.093H116.925C116.77 50.093 116.645 50.2187 116.645 50.3737V54.2467C116.645 54.4017 116.77 54.5273 116.925 54.5273H119.9C120.055 54.5273 120.181 54.4017 120.181 54.2467V50.3737C120.181 50.2187 120.055 50.093 119.9 50.093Z" fill="white" stroke="#0C38B7" stroke-width="0.321268"/>
<path d="M124.503 50.8228H121.528C121.373 50.8228 121.247 50.9484 121.247 51.1034V54.9764C121.247 55.1314 121.373 55.257 121.528 55.257H124.503C124.658 55.257 124.783 55.1314 124.783 54.9764V51.1034C124.783 50.9484 124.658 50.8228 124.503 50.8228Z" fill="#1844BF" stroke="#0C38B7" stroke-width="0.321268"/>
<path d="M124.503 50.093H121.528C121.373 50.093 121.247 50.2187 121.247 50.3737V54.2467C121.247 54.4017 121.373 54.5273 121.528 54.5273H124.503C124.658 54.5273 124.783 54.4017 124.783 54.2467V50.3737C124.783 50.2187 124.658 50.093 124.503 50.093Z" fill="white" stroke="#0C38B7" stroke-width="0.321268"/>
<path d="M129.049 50.8228H126.074C125.919 50.8228 125.793 50.9484 125.793 51.1034V54.9764C125.793 55.1314 125.919 55.257 126.074 55.257H129.049C129.204 55.257 129.33 55.1314 129.33 54.9764V51.1034C129.33 50.9484 129.204 50.8228 129.049 50.8228Z" fill="#1844BF" stroke="#0C38B7" stroke-width="0.321268"/>
<path d="M129.049 50.093H126.074C125.919 50.093 125.793 50.2187 125.793 50.3737V54.2467C125.793 54.4017 125.919 54.5273 126.074 54.5273H129.049C129.204 54.5273 129.33 54.4017 129.33 54.2467V50.3737C129.33 50.2187 129.204 50.093 129.049 50.093Z" fill="white" stroke="#0C38B7" stroke-width="0.321268"/>
<path d="M110.351 35.4711V34.124H114.417V35.1512L112.262 39.7651H110.763L112.843 35.4711H110.351Z" fill="#FF952F"/>
<path d="M119.5 35.4711V34.124H123.566V35.1512L121.411 39.7651H119.912L121.992 35.4711H119.5Z" fill="#FF952F"/>
<path d="M128.565 35.4711V34.124H132.632V35.1512L130.476 39.7651H128.977L131.057 35.4711H128.565Z" fill="#FF952F"/>
<path d="M117.093 17.8742C117.093 16.014 118.601 14.5063 120.461 14.5063C122.321 14.5063 123.829 16.014 123.829 17.8742V20.5617C123.829 20.6897 123.726 20.7929 123.598 20.7929H117.325C117.197 20.7929 117.093 20.6897 117.093 20.5617V17.8742Z" fill="white" stroke="#0C38B7" stroke-width="0.321268"/>
<path d="M118.609 18.0427C118.609 17.0195 119.438 16.1904 120.461 16.1904C121.484 16.1904 122.313 17.0195 122.313 18.0427V20.6242C122.313 20.7173 122.238 20.7931 122.145 20.7931H118.778C118.685 20.7931 118.609 20.7173 118.609 20.6242V18.0427Z" fill="#FF952F"/>
<path d="M124.614 21.604C124.614 21.1561 124.251 20.793 123.803 20.793H117.118C116.67 20.793 116.307 21.1561 116.307 21.604C116.307 21.6209 116.321 21.6349 116.338 21.6349H124.584C124.6 21.6349 124.614 21.6209 124.614 21.604Z" fill="white" stroke="#0C38B7" stroke-width="0.321268"/>
<path d="M109.01 32.7488H115.465" stroke="#0C38B7" stroke-width="0.321268" stroke-linecap="round"/>
<path d="M109.01 41.1682H115.465" stroke="#0C38B7" stroke-width="0.321268" stroke-linecap="round"/>
<path d="M117.936 32.7488H124.447" stroke="#0C38B7" stroke-width="0.321268" stroke-linecap="round"/>
<path d="M117.936 41.1682H124.447" stroke="#0C38B7" stroke-width="0.321268" stroke-linecap="round"/>
<path d="M127.365 32.7488H133.82" stroke="#0C38B7" stroke-width="0.321268" stroke-linecap="round"/>
<path d="M127.365 41.1682H133.82" stroke="#0C38B7" stroke-width="0.321268" stroke-linecap="round"/>
<path d="M111.873 31.2203C111.631 31.657 111.08 31.8142 110.643 31.5717C110.207 31.3292 110.049 30.7786 110.292 30.3419C110.52 29.9304 111.002 29.6672 111.385 30.0365C111.432 30.0826 111.49 30.1173 111.554 30.1353C112.103 30.2925 112.103 30.8072 111.873 31.2203Z" stroke="#1844BF" stroke-width="0.321268"/>
<path d="M114.34 31.241C114.353 31.7406 113.959 32.1559 113.46 32.1694C112.961 32.1829 112.545 31.7888 112.532 31.2893C112.519 30.8189 112.8 30.3474 113.317 30.4703C113.381 30.4861 113.449 30.4861 113.513 30.4698C114.066 30.325 114.327 30.7684 114.34 31.241Z" stroke="#1844BF" stroke-width="0.321268"/>
<path d="M111.545 30.1021C111.833 29.9343 112.502 29.3421 112.941 28.2942C112.958 28.2538 113.009 28.2482 113.028 28.2874C113.209 28.6663 113.45 29.8361 113.388 30.4473" stroke="#1844BF" stroke-width="0.321268" stroke-linecap="round"/>
<path d="M121.023 31.2203C120.78 31.657 120.229 31.8142 119.793 31.5717C119.356 31.3292 119.198 30.7786 119.441 30.3419C119.67 29.9304 120.151 29.6672 120.534 30.0365C120.582 30.0826 120.64 30.1173 120.703 30.1353C121.253 30.2925 121.252 30.8072 121.023 31.2203Z" stroke="#1844BF" stroke-width="0.321268"/>
<path d="M123.489 31.241C123.503 31.7406 123.108 32.1559 122.609 32.1694C122.11 32.1829 121.694 31.7888 121.681 31.2893C121.668 30.8189 121.949 30.3474 122.467 30.4703C122.531 30.4861 122.598 30.4861 122.662 30.4698C123.216 30.325 123.477 30.7684 123.489 31.241Z" stroke="#1844BF" stroke-width="0.321268"/>
<path d="M120.695 30.1021C120.982 29.9343 121.652 29.3421 122.09 28.2942C122.107 28.2538 122.158 28.2482 122.177 28.2874C122.358 28.6663 122.599 29.8361 122.537 30.4473" stroke="#1844BF" stroke-width="0.321268" stroke-linecap="round"/>
<path d="M130.115 31.2203C129.873 31.657 129.322 31.8142 128.885 31.5717C128.449 31.3292 128.291 30.7786 128.534 30.3419C128.763 29.9304 129.244 29.6672 129.627 30.0365C129.675 30.0826 129.733 30.1173 129.796 30.1353C130.345 30.2925 130.345 30.8072 130.115 31.2203Z" stroke="#1844BF" stroke-width="0.321268"/>
<path d="M132.582 31.241C132.595 31.7406 132.201 32.1559 131.702 32.1694C131.203 32.1829 130.787 31.7888 130.774 31.2893C130.761 30.8189 131.042 30.3474 131.56 30.4703C131.624 30.4861 131.691 30.4861 131.755 30.4698C132.308 30.325 132.569 30.7684 132.582 31.241Z" stroke="#1844BF" stroke-width="0.321268"/>
<path d="M129.788 30.1021C130.075 29.9343 130.745 29.3421 131.183 28.2942C131.2 28.2538 131.251 28.2482 131.27 28.2874C131.451 28.6663 131.692 29.8361 131.63 30.4473" stroke="#1844BF" stroke-width="0.321268" stroke-linecap="round"/>
<path d="M122.341 46.2246C122.519 46.104 122.689 45.9631 122.85 45.8025C123.706 44.9466 123.999 43.7936 123.642 42.9725C123.597 42.868 123.609 42.7479 123.651 42.6424C123.717 42.4768 123.704 42.3073 123.599 42.2023C123.494 42.0974 123.324 42.0839 123.159 42.1501C123.053 42.1922 122.933 42.204 122.829 42.1586C122.007 41.8016 120.854 42.0951 119.998 42.9511C119.143 43.8071 118.849 44.96 119.206 45.7812C119.251 45.8856 119.24 46.0057 119.198 46.1118C119.182 46.1494 119.172 46.187 119.165 46.2246" stroke="#1844BF" stroke-width="0.321268"/>
<path d="M113.193 46.2246C113.37 46.104 113.541 45.9631 113.701 45.8025C114.558 44.9466 114.851 43.7936 114.494 42.9725C114.449 42.868 114.46 42.7479 114.502 42.6424C114.569 42.4768 114.555 42.3073 114.45 42.2023C114.345 42.0974 114.176 42.0839 114.011 42.1501C113.905 42.1922 113.785 42.204 113.68 42.1586C112.859 41.8016 111.706 42.0951 110.85 42.9511C109.994 43.8071 109.7 44.96 110.057 45.7812C110.103 45.8856 110.091 46.0057 110.049 46.1118C110.034 46.1494 110.023 46.187 110.017 46.2246" stroke="#1844BF" stroke-width="0.321268"/>
<path d="M131.435 46.2246C131.612 46.104 131.783 45.9631 131.944 45.8025C132.8 44.9466 133.093 43.7936 132.736 42.9725C132.691 42.868 132.703 42.7479 132.745 42.6424C132.811 42.4768 132.797 42.3073 132.692 42.2023C132.587 42.0974 132.418 42.0839 132.253 42.1501C132.147 42.1922 132.027 42.204 131.922 42.1586C131.101 41.8016 129.948 42.0951 129.092 42.9511C128.236 43.8071 127.943 44.96 128.3 45.7812C128.345 45.8856 128.333 46.0057 128.291 46.1118C128.276 46.1494 128.265 46.187 128.259 46.2246" stroke="#1844BF" stroke-width="0.321268"/>
<path d="M125.288 27.7532H117.542C117.387 27.7532 117.262 27.8788 117.262 28.0338V45.9394C117.262 46.0944 117.387 46.22 117.542 46.22H125.288C125.443 46.22 125.569 46.0944 125.569 45.9394V28.0338C125.569 27.8788 125.443 27.7532 125.288 27.7532Z" stroke="#0C38B7" stroke-width="0.321268"/>
<path d="M116.083 27.7532H108.393C108.238 27.7532 108.112 27.8788 108.112 28.0338V45.9394C108.112 46.0944 108.238 46.22 108.393 46.22H116.083C116.238 46.22 116.363 46.0944 116.363 45.9394V28.0338C116.363 27.8788 116.238 27.7532 116.083 27.7532Z" stroke="#0C38B7" stroke-width="0.321268"/>
<path d="M134.438 27.7532H126.692C126.537 27.7532 126.411 27.8788 126.411 28.0338V45.9394C126.411 46.0944 126.537 46.22 126.692 46.22H134.438C134.593 46.22 134.718 46.0944 134.718 45.9394V28.0338C134.718 27.8788 134.593 27.7532 134.438 27.7532Z" stroke="#0C38B7" stroke-width="0.321268"/>
<path d="M138.816 40.6631H136.963C136.808 40.6631 136.683 40.7887 136.683 40.9437V41.7857C136.683 41.9407 136.808 42.0663 136.963 42.0663H138.816C138.971 42.0663 139.096 41.9407 139.096 41.7857V40.9437C139.096 40.7887 138.971 40.6631 138.816 40.6631Z" fill="white" stroke="#E2EBF4" stroke-width="0.321268" stroke-linecap="round" stroke-linejoin="round"/>
<path d="M136.009 39.3721H137.02C137.175 39.3721 137.3 39.4978 137.3 39.6527V43.5257C137.3 43.6806 137.175 43.8064 137.02 43.8064H136.009V39.3721Z" fill="white" stroke="#E2EBF4" stroke-width="0.321268" stroke-linecap="round" stroke-linejoin="round"/>
<path d="M138.198 34.994C139.004 34.994 139.658 34.3532 139.658 33.5627C139.658 32.7722 139.004 32.1313 138.198 32.1313C137.392 32.1313 136.739 32.7722 136.739 33.5627C136.739 34.3532 137.392 34.994 138.198 34.994Z" fill="white" stroke="#E2EBF4" stroke-width="0.321268" stroke-linecap="round" stroke-linejoin="round"/>
<path d="M142.429 83.1299H96.6264C96.4714 83.1299 96.3457 83.2555 96.3457 83.4105V113.103C96.3457 113.258 96.4714 113.384 96.6264 113.384H142.429C142.584 113.384 142.709 113.258 142.709 113.103V83.4105C142.709 83.2555 142.584 83.1299 142.429 83.1299Z" fill="#E2EBF4"/>
<path d="M131.203 78.2747H101.173C101.002 78.2747 100.864 78.4129 100.864 78.5834V108.052C100.864 108.222 101.002 108.36 101.173 108.36H131.203C131.373 108.36 131.511 108.222 131.511 108.052V78.5834C131.511 78.4129 131.373 78.2747 131.203 78.2747Z" stroke="#E2EBF4" stroke-width="0.321268" stroke-dasharray="1.75 1.75"/>
<path d="M146.751 78.2747H134.121C133.951 78.2747 133.812 78.4129 133.812 78.5834V108.052C133.812 108.222 133.951 108.36 134.121 108.36H146.751C146.921 108.36 147.059 108.222 147.059 108.052V78.5834C147.059 78.4129 146.921 78.2747 146.751 78.2747Z" stroke="#E2EBF4" stroke-width="0.321268"/>
<path d="M144.112 81.1091H98.3099C98.1549 81.1091 98.0293 81.2348 98.0293 81.3898V111.083C98.0293 111.238 98.1549 111.363 98.3099 111.363H144.112C144.267 111.363 144.393 111.238 144.393 111.083V81.3898C144.393 81.2348 144.267 81.1091 144.112 81.1091Z" fill="white" stroke="#0C38B7" stroke-width="0.321268"/>
<path d="M114.729 83.1299H138.696C138.929 83.1299 139.117 82.9414 139.117 82.7089C139.117 82.4764 138.929 82.2879 138.696 82.2879H114.729C114.496 82.2879 114.308 82.4764 114.308 82.7089C114.308 82.9414 114.496 83.1299 114.729 83.1299Z" fill="#E2EBF4"/>
<path d="M99.5172 83.1298C99.7497 83.1298 99.9381 82.9413 99.9381 82.7088C99.9381 82.4763 99.7497 82.2878 99.5172 82.2878C99.2847 82.2878 99.0962 82.4763 99.0962 82.7088C99.0962 82.9413 99.2847 83.1298 99.5172 83.1298Z" fill="#E2EBF4"/>
<path d="M101.033 83.1298C101.265 83.1298 101.454 82.9413 101.454 82.7088C101.454 82.4763 101.265 82.2878 101.033 82.2878C100.8 82.2878 100.612 82.4763 100.612 82.7088C100.612 82.9413 100.8 83.1298 101.033 83.1298Z" fill="#E2EBF4"/>
<path d="M102.492 83.1298C102.725 83.1298 102.913 82.9413 102.913 82.7088C102.913 82.4763 102.725 82.2878 102.492 82.2878C102.26 82.2878 102.071 82.4763 102.071 82.7088C102.071 82.9413 102.26 83.1298 102.492 83.1298Z" fill="#E2EBF4"/>
<path d="M111.922 104.516C112.774 104.516 113.466 103.825 113.466 102.972C113.466 102.12 112.774 101.428 111.922 101.428C111.07 101.428 110.378 102.12 110.378 102.972C110.378 103.825 111.07 104.516 111.922 104.516Z" stroke="#0C38B7" stroke-width="0.321268" stroke-linecap="round"/>
<path d="M109.172 87.9573C108.319 87.9573 107.628 87.2662 107.628 86.4137C107.628 85.5612 108.319 84.8701 109.172 84.8701C110.024 84.8701 110.715 85.5612 110.715 86.4137C110.715 87.2662 110.024 87.9573 109.172 87.9573Z" stroke="#0C38B7" stroke-width="0.321268" stroke-linecap="round"/>
<path d="M111.922 102.046C112.433 102.046 112.848 102.461 112.848 102.972C112.848 103.484 112.433 103.898 111.922 103.898C111.41 103.898 110.996 103.484 110.996 102.972C110.996 102.461 111.41 102.046 111.922 102.046Z" fill="#1844BF"/>
<path d="M109.172 85.4875C108.66 85.4875 108.245 85.9022 108.245 86.4137C108.245 86.9252 108.66 87.3398 109.172 87.3398C109.683 87.3398 110.098 86.9252 110.098 86.4137C110.098 85.9022 109.683 85.4875 109.172 85.4875Z" fill="#1844BF"/>
<path d="M132.521 89.1921C133.033 89.1921 133.448 89.6068 133.448 90.1183C133.448 90.6298 133.033 91.0444 132.521 91.0444C132.01 91.0444 131.595 90.6298 131.595 90.1183C131.595 89.6068 132.01 89.1921 132.521 89.1921Z" fill="#1844BF"/>
<path d="M135.946 97.9485C136.457 97.9485 136.872 98.3631 136.872 98.8746C136.872 99.3861 136.457 99.8008 135.946 99.8008C135.434 99.8008 135.02 99.3861 135.02 98.8746C135.02 98.3631 135.434 97.9485 135.946 97.9485Z" fill="#1844BF"/>
<path d="M132.522 91.6616C133.374 91.6616 134.065 90.9705 134.065 90.118C134.065 89.2655 133.374 88.5745 132.522 88.5745C131.669 88.5745 130.978 89.2655 130.978 90.118C130.978 90.9705 131.669 91.6616 132.522 91.6616Z" stroke="#0C38B7" stroke-width="0.321268" stroke-linecap="round"/>
<path d="M135.946 100.418C136.798 100.418 137.49 99.7269 137.49 98.8744C137.49 98.0219 136.798 97.3308 135.946 97.3308C135.093 97.3308 134.402 98.0219 134.402 98.8744C134.402 99.7269 135.093 100.418 135.946 100.418Z" stroke="#0C38B7" stroke-width="0.321268" stroke-linecap="round"/>
<path d="M100.695 67.9944H101.417C101.365 68.3926 101.186 68.7215 100.881 68.9819C100.58 69.2385 100.203 69.3672 99.7508 69.3672C99.2463 69.3672 98.837 69.2061 98.5222 68.8855C98.2081 68.5612 98.0506 68.163 98.0506 67.6904C98.0506 67.2155 98.2081 66.8158 98.5222 66.4915C98.837 66.1641 99.2463 66 99.7508 66C100.19 66 100.56 66.1272 100.862 66.3808C101.166 66.6345 101.348 66.9551 101.407 67.3442H100.68C100.624 67.1417 100.513 66.9792 100.346 66.8572C100.182 66.7323 99.982 66.6713 99.7462 66.6743C99.4513 66.6774 99.2133 66.7774 99.0336 66.9731C98.8531 67.1658 98.7633 67.4036 98.7633 67.6859C98.7633 67.9681 98.8531 68.2074 99.0336 68.4039C99.2133 68.5995 99.4544 68.6974 99.7562 68.6974C99.995 68.6974 100.199 68.6334 100.365 68.5047C100.536 68.376 100.645 68.2059 100.695 67.9944ZM103.04 66.9009H103.556V67.5511H103.005C102.845 67.5511 102.714 67.6023 102.612 67.7054C102.511 67.8078 102.46 67.941 102.46 68.1051V69.2995H101.797V66.9009H102.425V67.2764H102.45C102.545 67.0258 102.742 66.9009 103.04 66.9009ZM105.132 68.7215L105.732 66.9009H106.406L105.432 69.6893C105.367 69.873 105.267 70.0137 105.132 70.1138C104.998 70.2131 104.836 70.2628 104.646 70.2628H103.948V69.6269H104.626C104.692 69.6269 104.748 69.6126 104.793 69.584L103.668 66.9009H104.395L105.132 68.7215ZM108.123 66.8286C108.467 66.8256 108.747 66.9438 108.963 67.1846C109.183 67.4255 109.293 67.7325 109.293 68.1051C109.293 68.4776 109.182 68.7824 108.959 69.0202C108.739 69.2543 108.462 69.3717 108.128 69.3717C107.954 69.3687 107.799 69.3318 107.661 69.2611C107.524 69.1903 107.415 69.097 107.337 68.9819H107.312V70.2628H106.654V66.9009H107.312V67.2087H107.337C107.415 67.0966 107.524 67.0047 107.661 66.9347C107.802 66.864 107.956 66.8286 108.123 66.8286ZM107.494 68.5672C107.615 68.6929 107.772 68.7553 107.966 68.7553C108.159 68.7553 108.316 68.6944 108.437 68.5724C108.562 68.4467 108.624 68.2895 108.624 68.0998C108.624 67.9109 108.562 67.7551 108.437 67.6332C108.316 67.5075 108.159 67.445 107.966 67.445C107.776 67.445 107.618 67.5075 107.494 67.6332C107.372 67.7581 107.312 67.9139 107.312 68.0998C107.312 68.2834 107.372 68.4392 107.494 68.5672ZM111.448 66.9009V67.5271H110.44V68.4851C110.44 68.5431 110.459 68.5882 110.495 68.6206C110.531 68.6522 110.578 68.6688 110.637 68.6688H111.448V69.2995H110.514C110.288 69.2995 110.108 69.237 109.973 69.1113C109.843 68.9834 109.777 68.811 109.777 68.5965V67.5271H109.433V66.9009H109.777V66.0722H110.44V66.9009H111.448ZM113.917 69.0105C113.675 69.2513 113.357 69.3717 112.964 69.3717C112.57 69.3717 112.252 69.2513 112.01 69.0105C111.768 68.7696 111.647 68.4663 111.647 68.0998C111.647 67.737 111.768 67.4352 112.01 67.1944C112.252 66.9506 112.57 66.8286 112.964 66.8286C113.357 66.8286 113.675 66.9506 113.917 67.1944C114.159 67.4352 114.281 67.737 114.281 68.0998C114.281 68.4663 114.159 68.7696 113.917 69.0105ZM112.964 68.741C113.154 68.741 113.309 68.6801 113.43 68.5574C113.555 68.4325 113.617 68.2797 113.617 68.0998C113.617 67.9169 113.556 67.7649 113.435 67.6422C113.314 67.5173 113.157 67.4548 112.964 67.4548C112.77 67.4548 112.613 67.5173 112.492 67.6422C112.371 67.7649 112.31 67.9169 112.31 68.0998C112.31 68.2834 112.371 68.4355 112.492 68.5574C112.613 68.6801 112.77 68.741 112.964 68.741ZM99.9966 71.8749V71.5671H100.655V74.211C100.655 74.4428 100.589 74.619 100.459 74.7409C100.331 74.8666 100.147 74.929 99.9083 74.929H98.3355V74.2788H99.7654C99.9198 74.2788 99.9966 74.2065 99.9966 74.062V73.6481H99.972C99.8936 73.7632 99.7854 73.8566 99.6479 73.9273C99.5105 73.998 99.3546 74.0349 99.181 74.0379C98.847 74.0379 98.5682 73.9205 98.3456 73.6865C98.1259 73.4486 98.0161 73.1438 98.0161 72.7713C98.0161 72.3987 98.1244 72.0917 98.3402 71.8508C98.5598 71.61 98.8416 71.4918 99.1856 71.4949C99.3561 71.4949 99.5105 71.5302 99.6479 71.601C99.7854 71.671 99.8936 71.7628 99.972 71.8749H99.9966ZM98.8662 73.2387C98.9906 73.3606 99.1495 73.4215 99.3431 73.4215C99.5366 73.4215 99.694 73.3591 99.8146 73.2334C99.9359 73.1054 99.9966 72.9497 99.9966 72.766C99.9966 72.5801 99.9344 72.4243 99.8099 72.2994C99.6886 72.1737 99.5327 72.1112 99.3431 72.1112C99.1495 72.1112 98.9906 72.1737 98.8662 72.2994C98.7448 72.4213 98.6842 72.5771 98.6842 72.766C98.6842 72.9557 98.7448 73.113 98.8662 73.2387ZM102.968 71.8749V71.5671H103.626V73.9657H102.968V73.6481H102.943C102.865 73.7632 102.756 73.8566 102.619 73.9273C102.481 73.998 102.326 74.0349 102.152 74.0379C101.817 74.0379 101.539 73.9205 101.317 73.6865C101.097 73.4486 100.987 73.1438 100.987 72.7713C100.987 72.3987 101.095 72.0917 101.311 71.8508C101.531 71.61 101.813 71.4918 102.157 71.4949C102.327 71.4949 102.481 71.5302 102.619 71.601C102.756 71.671 102.865 71.7628 102.943 71.8749H102.968ZM101.837 73.2387C101.962 73.3606 102.121 73.4215 102.314 73.4215C102.507 73.4215 102.664 73.3591 102.786 73.2334C102.907 73.1054 102.968 72.9497 102.968 72.766C102.968 72.5801 102.905 72.4243 102.781 72.2994C102.66 72.1737 102.504 72.1112 102.314 72.1112C102.121 72.1112 101.962 72.1737 101.837 72.2994C101.716 72.4213 101.655 72.5771 101.655 72.766C101.655 72.9557 101.716 73.113 101.837 73.2387ZM105.976 71.5671V72.1933H104.969V73.1514C104.969 73.2093 104.987 73.2545 105.023 73.2868C105.059 73.3184 105.106 73.335 105.165 73.335H105.976V73.9657H105.043C104.817 73.9657 104.636 73.9032 104.502 73.7775C104.371 73.6496 104.305 73.4772 104.305 73.2627V72.1933H103.961V71.5671H104.305V70.7385H104.969V71.5671H105.976ZM107.453 71.4949C107.859 71.4949 108.18 71.6363 108.416 71.9186C108.652 72.2008 108.747 72.556 108.701 72.9828H106.853C106.873 73.1115 106.935 73.2206 107.04 73.3109C107.148 73.3975 107.284 73.4441 107.448 73.4501C107.563 73.4569 107.669 73.4374 107.767 73.3922C107.869 73.344 107.941 73.2816 107.984 73.2048H108.676C108.598 73.4682 108.447 73.6737 108.225 73.8212C108.002 73.9657 107.742 74.0379 107.448 74.0379C107.051 74.0379 106.74 73.916 106.514 73.6722C106.288 73.4246 106.175 73.1228 106.175 72.766C106.175 72.407 106.295 72.1045 106.534 71.8606C106.776 71.6168 107.083 71.4949 107.453 71.4949ZM107.816 72.1835C107.715 72.1127 107.592 72.0774 107.448 72.0774C107.304 72.0774 107.177 72.1143 107.07 72.188C106.965 72.2588 106.894 72.3551 106.858 72.477H108.028C107.992 72.3521 107.921 72.2542 107.816 72.1835ZM111.39 73.0648L111.832 71.5671H112.52L111.739 73.9657H111.105L110.628 72.4386L110.147 73.9657H109.513L108.732 71.5671H109.42L109.872 73.0648L110.329 71.5671H110.923L111.39 73.0648ZM114.529 71.8749V71.5671H115.188V73.9657H114.529V73.6481H114.505C114.426 73.7632 114.318 73.8566 114.181 73.9273C114.043 73.998 113.887 74.0349 113.714 74.0379C113.38 74.0379 113.101 73.9205 112.878 73.6865C112.659 73.4486 112.549 73.1438 112.549 72.7713C112.549 72.3987 112.657 72.0917 112.873 71.8508C113.093 71.61 113.374 71.4918 113.718 71.4949C113.889 71.4949 114.043 71.5302 114.181 71.601C114.318 71.671 114.426 71.7628 114.505 71.8749H114.529ZM113.399 73.2387C113.523 73.3606 113.682 73.4215 113.876 73.4215C114.069 73.4215 114.227 73.3591 114.347 73.2334C114.469 73.1054 114.529 72.9497 114.529 72.766C114.529 72.5801 114.467 72.4243 114.343 72.2994C114.221 72.1737 114.065 72.1112 113.876 72.1112C113.682 72.1112 113.523 72.1737 113.399 72.2994C113.278 72.4213 113.217 72.5771 113.217 72.766C113.217 72.9557 113.278 73.113 113.399 73.2387ZM116.905 73.3877L117.505 71.5671H118.178L117.206 74.3555C117.139 74.5392 117.04 74.6799 116.905 74.78C116.771 74.8794 116.609 74.929 116.419 74.929H115.721V74.2931H116.399C116.464 74.2931 116.521 74.2788 116.567 74.2502L115.441 71.5671H116.168L116.905 73.3877Z" fill="#1844BF"/>
<path d="M98.0854 95.1138H113.91C113.985 95.1138 114.056 95.084 114.108 95.0318L118.912 90.2282C118.964 90.176 119.035 90.1462 119.11 90.1462H130.95" stroke="#0C38B7" stroke-width="0.321268" stroke-linecap="round"/>
<path d="M144.337 98.9026H137.545M98.0576 98.9026H123.428H128.396H134.346" stroke="#0C38B7" stroke-width="0.321268" stroke-linecap="round"/>
<path d="M134.121 90.1462H144.365" stroke="#0C38B7" stroke-width="0.321268" stroke-linecap="round"/>
<path d="M113.521 103H121.432C121.507 103 121.578 103.03 121.63 103.082L126.434 107.886C126.486 107.938 126.557 107.968 126.632 107.968H144.365" stroke="#0C38B7" stroke-width="0.321268" stroke-linecap="round"/>
<path d="M107.572 86.4417H98.0015" stroke="#0C38B7" stroke-width="0.321268" stroke-linecap="round"/>
<path d="M98.0854 103H110.35" stroke="#0C38B7" stroke-width="0.321268" stroke-linecap="round"/>
<path d="M143.972 86.4417H110.743" stroke="#0C38B7" stroke-width="0.321268" stroke-linecap="round"/>
<path d="M99.3915 93.3458C101.583 93.3458 103.359 91.5867 103.359 89.4167C103.359 87.2467 101.583 85.4875 99.3915 85.4875C97.2002 85.4875 95.4238 87.2467 95.4238 89.4167C95.4238 91.5867 97.2002 93.3458 99.3915 93.3458Z" fill="#F18721"/>
<path d="M100.355 85.4875H99.353V93.3458H100.355V85.4875Z" fill="#F18721"/>
<path d="M100.316 93.3458C102.508 93.3458 104.284 91.5867 104.284 89.4167C104.284 87.2467 102.508 85.4875 100.316 85.4875C98.125 85.4875 96.3486 87.2467 96.3486 89.4167C96.3486 91.5867 98.125 93.3458 100.316 93.3458Z" fill="#FF952F"/>
<path fill-rule="evenodd" clip-rule="evenodd" d="M100.017 89.0965C100.292 89.1072 100.99 89.1341 100.989 88.6015C100.986 88.0924 100.414 88.1019 100.101 88.1075C100.053 88.1086 100.011 88.1098 99.977 88.1075L99.9764 89.0954C99.9893 89.096 100.002 89.0965 100.017 89.0965ZM100.742 86.7211L100.743 87.5361C101.3 87.5906 101.744 87.7836 101.794 88.3724C101.83 88.8058 101.672 89.0556 101.422 89.2144C101.841 89.3239 102.101 89.6112 102.041 90.2399C101.984 91.0224 101.471 91.2351 100.752 91.285L100.751 92.1096L100.317 92.1085L100.316 91.2974C100.246 91.2952 100.176 91.2951 100.102 91.2946C100.059 91.294 100.016 91.294 99.9714 91.2935L99.9736 92.113H99.5403V91.2879C99.4595 91.2895 99.3781 91.2895 99.295 91.2884C99.2725 91.2884 99.2501 91.2879 99.2293 91.2873H98.6686L98.7522 90.6962C98.7522 90.6962 99.0722 90.6979 99.0677 90.6946C99.1799 90.6845 99.222 90.5907 99.2276 90.5256L99.2237 88.2939C99.2074 88.185 99.1524 88.0744 98.9756 88.0766C98.9818 88.0705 98.6602 88.0778 98.6602 88.0778L98.6624 87.5468L99.2579 87.5451C99.3096 87.5462 99.364 87.5445 99.419 87.544C99.4572 87.5428 99.4954 87.5423 99.533 87.5423L99.5324 86.7312L99.9607 86.725L99.9629 87.526C100.08 87.5187 100.193 87.517 100.309 87.5165L100.31 86.7318L100.741 86.72L100.742 86.7211ZM99.9815 89.6023L99.9843 90.6934C100.005 90.6934 100.03 90.6934 100.058 90.694C100.406 90.6996 101.193 90.7136 101.193 90.1428C101.194 89.5602 100.44 89.586 100.081 89.5995C100.043 89.6011 100.009 89.6017 99.9815 89.6023Z" fill="white"/>
<path d="M105.523 80.8707C106.724 78.5127 108.198 77.124 109.789 77.124C113.834 77.124 117.114 86.0953 117.114 97.1625C117.114 108.23 113.834 117.201 109.789 117.201C107.857 117.201 106.1 115.155 104.791 111.813" stroke="#FF952F" stroke-width="0.321268"/>
<path d="M107.069 80.8707C108.27 78.5127 109.743 77.124 111.335 77.124C115.38 77.124 118.66 86.0953 118.66 97.1625C118.66 108.23 115.38 117.201 111.335 117.201C109.403 117.201 107.646 115.155 106.337 111.813" stroke="#FF952F" stroke-width="0.321268"/>
<path d="M119.024 80.8707C120.226 78.5127 121.698 77.124 123.29 77.124C127.336 77.124 130.615 86.0953 130.615 97.1625C130.615 108.23 127.336 117.201 123.29 117.201C121.358 117.201 119.601 115.155 118.292 111.813" stroke="#FF952F" stroke-width="0.321268"/>
<path d="M130.928 80.8707C132.13 78.5127 133.603 77.124 135.194 77.124C139.24 77.124 142.519 86.0953 142.519 97.1625C142.519 108.23 139.24 117.201 135.194 117.201C133.263 117.201 131.505 115.155 130.197 111.813" stroke="#FF952F" stroke-width="0.321268"/>
<path d="M117.453 80.8707C118.654 78.5127 120.127 77.124 121.719 77.124C125.764 77.124 129.044 86.0953 129.044 97.1625C129.044 108.23 125.764 117.201 121.719 117.201C119.787 117.201 118.03 115.155 116.721 111.813" stroke="#FF952F" stroke-width="0.321268"/>
<path d="M129.383 80.8707C130.584 78.5127 132.057 77.124 133.649 77.124C137.694 77.124 140.974 86.0953 140.974 97.1625C140.974 108.23 137.694 117.201 133.649 117.201C131.717 117.201 129.96 115.155 128.651 111.813" stroke="#FF952F" stroke-width="0.321268"/>
<path d="M120.802 114.144C122.876 114.144 124.558 112.479 124.558 110.424C124.558 108.37 122.876 106.705 120.802 106.705C118.727 106.705 117.045 108.37 117.045 110.424C117.045 112.479 118.727 114.144 120.802 114.144Z" fill="#0C38B7"/>
<path d="M121.713 106.705H120.765V114.144H121.713V106.705Z" fill="#0C38B7"/>
<path d="M121.677 114.144C123.752 114.144 125.433 112.479 125.433 110.424C125.433 108.37 123.752 106.705 121.677 106.705C119.603 106.705 117.921 108.37 117.921 110.424C117.921 112.479 119.603 114.144 121.677 114.144Z" fill="#1844BF"/>
<path d="M121.686 107.666L122.942 110.243L121.686 110.991L120.428 110.243L121.686 107.666Z" fill="white"/>
<path d="M121.686 112.937L120.429 110.829L121.686 111.531L122.943 110.829L121.686 112.937Z" fill="white"/>
<path d="M144.825 88.4218C146.582 88.4218 148.007 87.011 148.007 85.2707C148.007 83.5304 146.582 82.1196 144.825 82.1196C143.068 82.1196 141.643 83.5304 141.643 85.2707C141.643 87.011 143.068 88.4218 144.825 88.4218Z" fill="#CAD8E5"/>
<path d="M145.566 88.4218C147.324 88.4218 148.748 87.011 148.748 85.2707C148.748 83.5304 147.324 82.1196 145.566 82.1196C143.809 82.1196 142.384 83.5304 142.384 85.2707C142.384 87.011 143.809 88.4218 145.566 88.4218Z" fill="#E2EBF4"/>
<path fill-rule="evenodd" clip-rule="evenodd" d="M145.857 84.8368L145.854 84.417L146.742 84.4102L146.738 83.7698L144.321 83.7877L144.325 84.4282L145.213 84.4214L145.216 84.8407C144.495 84.8823 143.953 85.0406 143.954 85.2258C143.955 85.4116 144.499 85.562 145.22 85.5923L145.23 86.9372L145.872 86.9327L145.863 85.5873C146.582 85.5463 147.123 85.3875 147.122 85.2028C147.12 85.0176 146.578 84.8671 145.857 84.8363L145.857 84.8368ZM145.861 85.4739C145.843 85.475 145.751 85.4818 145.543 85.4834C145.377 85.484 145.26 85.4795 145.219 85.4784C144.582 85.4531 144.105 85.3369 144.104 85.1927C144.103 85.0484 144.578 84.9255 145.215 84.8901L145.218 85.3588C145.26 85.3616 145.38 85.3684 145.545 85.3672C145.743 85.3656 145.842 85.356 145.86 85.3543L145.857 84.8856C146.493 84.9115 146.969 85.0282 146.97 85.1719C146.971 85.315 146.497 85.4385 145.861 85.4739Z" fill="#1844BF"/>
</svg>
