<svg  viewBox="0 0 970 338" fill="none" xmlns="http://www.w3.org/2000/svg">
<path d="M89.4907 161.647H268.775" stroke="#0C38B7"/>
<path d="M89.4907 163.986H268.775" stroke="#1844BF" stroke-dasharray="4.87 4.87"/>
<path d="M289.919 182.694C301.596 182.694 311.063 173.227 311.063 161.55C311.063 149.872 301.596 140.406 289.919 140.406C278.241 140.406 268.775 149.872 268.775 161.55C268.775 173.227 278.241 182.694 289.919 182.694Z" fill="#1844BF"/>
<path d="M310.478 161.647H436.951" stroke="#0C38B7"/>
<path d="M310.478 163.986H436.951" stroke="#1844BF" stroke-dasharray="4.87 4.87"/>
<path d="M221.633 161.665L214.99 155.022L208.347 161.665L214.99 168.307L221.633 161.665Z" fill="#0C38B7"/>
<path d="M380.864 156.966H371.47V166.361H380.864V156.966Z" fill="#0C38B7"/>
<path d="M304.643 161.55C304.643 153.209 297.91 146.447 289.607 146.447C281.301 146.447 274.57 153.209 274.57 161.55C274.57 169.891 281.301 176.653 289.607 176.653" stroke="white" stroke-linecap="round" stroke-linejoin="round"/>
<path d="M304.643 161.616C304.643 169.92 297.91 176.653 289.607 176.653" stroke="white" stroke-linecap="round" stroke-linejoin="round" stroke-dasharray="2.92 2.92"/>
<path d="M283.39 160.414L288.535 165.35L296.252 157.945" stroke="white" stroke-linecap="round" stroke-linejoin="round"/>
<path d="M289.626 148.981C291.133 148.981 292.355 147.803 292.355 146.35C292.355 144.897 291.133 143.719 289.626 143.719C288.12 143.719 286.898 144.897 286.898 146.35C286.898 147.803 288.12 148.981 289.626 148.981Z" fill="white"/>
<path d="M280.078 151.319C280.939 151.319 281.637 150.665 281.637 149.857C281.637 149.05 280.939 148.396 280.078 148.396C279.217 148.396 278.519 149.05 278.519 149.857C278.519 150.665 279.217 151.319 280.078 151.319Z" fill="white"/>
<path d="M324.606 161.55C324.606 180.271 309.125 195.458 290.016 195.458C270.907 195.458 255.426 180.271 255.426 161.55C255.426 142.828 270.907 127.642 290.016 127.642C309.125 127.642 324.606 142.828 324.606 161.55Z" stroke="#FF952F"/>
<path d="M279.493 175.093C280.892 175.093 282.026 174.003 282.026 172.658C282.026 171.312 280.892 170.222 279.493 170.222C278.094 170.222 276.96 171.312 276.96 172.658C276.96 174.003 278.094 175.093 279.493 175.093Z" fill="white"/>
<path d="M168.656 161.664L164.67 157.678L160.684 161.664L164.67 165.65L168.656 161.664Z" fill="#0C38B7"/>
<path d="M590.491 161.647H712.092" stroke="#0C38B7"/>
<path d="M590.491 163.986H712.092" stroke="#1844BF" stroke-dasharray="4.87 4.87"/>
<path d="M634.532 165.35C636.577 165.35 638.235 163.648 638.235 161.55C638.235 159.451 636.577 157.75 634.532 157.75C632.487 157.75 630.83 159.451 630.83 161.55C630.83 163.648 632.487 165.35 634.532 165.35Z" fill="#1844BF"/>
<path d="M650.317 163.401C651.286 163.401 652.071 162.572 652.071 161.55C652.071 160.527 651.286 159.698 650.317 159.698C649.348 159.698 648.563 160.527 648.563 161.55C648.563 162.572 649.348 163.401 650.317 163.401Z" fill="#1844BF"/>
<path d="M638.625 101.041C640.669 101.041 642.327 99.3401 642.327 97.2414C642.327 95.1427 640.669 93.4413 638.625 93.4413C636.58 93.4413 634.922 95.1427 634.922 97.2414C634.922 99.3401 636.58 101.041 638.625 101.041Z" fill="white"/>
<path d="M927.733 265.931C912.711 269.956 903.796 285.397 907.822 300.419C911.847 315.441 927.288 324.356 942.31 320.331C957.332 316.305 966.246 300.865 962.221 285.843C958.196 270.821 942.755 261.906 927.733 265.931Z" fill="#1844BF"/>
<path d="M824.719 177.995V291.997C824.719 292.534 825.155 292.971 825.693 292.971H908.709" stroke="#0C38B7"/>
<path d="M829.396 178.775V296.674C829.396 297.212 829.832 297.648 830.37 297.648H912.997" stroke="#1844BF" stroke-dasharray="4.87 4.87"/>
<path d="M834.05 287.515H820.821V300.743H834.05V287.515Z" fill="#1844BF"/>
<path d="M830.334 291.412H824.719V297.028H830.334V291.412Z" fill="white"/>
<path d="M937.905 267.832H932.289V273.448H937.905V267.832Z" fill="white"/>
<path d="M929.194 271.588C917.342 274.764 910.309 286.946 913.485 298.797C916.66 310.648 928.842 317.681 940.693 314.506C952.545 311.33 959.578 299.148 956.402 287.297C953.227 275.446 941.045 268.413 929.194 271.588Z" stroke="white" stroke-linecap="round" stroke-linejoin="round"/>
<path d="M953.841 301.372C952.594 301.706 951.853 302.988 952.188 304.236C952.522 305.483 953.804 306.224 955.052 305.889C956.299 305.555 957.04 304.273 956.705 303.025C956.371 301.778 955.089 301.037 953.841 301.372Z" fill="white"/>
<path d="M914.04 298.8C912.065 299.33 910.904 301.402 911.447 303.429C911.99 305.457 914.032 306.671 916.007 306.142C917.982 305.612 919.143 303.54 918.6 301.513C918.057 299.486 916.015 298.271 914.04 298.8Z" fill="#1844BF" stroke="white"/>
<path d="M935.018 291.022C938.569 291.022 941.448 288.143 941.448 284.591C941.448 281.04 938.569 278.161 935.018 278.161C931.466 278.161 928.587 281.04 928.587 284.591C928.587 288.143 931.466 291.022 935.018 291.022Z" stroke="white"/>
<path d="M945.1 300.037C945.523 301.049 945.786 302.116 945.886 303.204C945.934 303.74 945.494 304.176 944.956 304.176H935.017H925.079C924.541 304.176 924.101 303.74 924.149 303.204C924.249 302.116 924.512 301.049 924.935 300.037C925.484 298.726 926.287 297.533 927.3 296.529C928.314 295.524 929.518 294.727 930.841 294.183C932.164 293.641 933.585 293.361 935.017 293.361C936.45 293.361 937.87 293.641 939.194 294.183C940.517 294.727 941.721 295.524 942.734 296.529C943.748 297.533 944.551 298.726 945.1 300.037Z" stroke="white"/>
<path d="M924.052 333.439H925.886C925.753 334.469 925.299 335.321 924.525 335.995C923.762 336.66 922.805 336.993 921.657 336.993C920.377 336.993 919.338 336.576 918.539 335.746C917.742 334.906 917.342 333.875 917.342 332.651C917.342 331.422 917.742 330.387 918.539 329.547C919.338 328.699 920.377 328.274 921.657 328.274C922.772 328.274 923.711 328.604 924.477 329.26C925.248 329.917 925.71 330.747 925.86 331.755H924.015C923.873 331.231 923.59 330.81 923.167 330.494C922.75 330.17 922.243 330.013 921.645 330.02C920.897 330.028 920.293 330.287 919.837 330.794C919.379 331.293 919.151 331.909 919.151 332.64C919.151 333.37 919.379 333.99 919.837 334.499C920.293 335.005 920.905 335.259 921.67 335.259C922.277 335.259 922.793 335.093 923.216 334.76C923.648 334.427 923.927 333.986 924.052 333.439ZM926.798 335.021V327.838H928.481V334.723C928.481 335.031 928.647 335.185 928.98 335.185H929.816V336.818H928.657C928.066 336.818 927.608 336.66 927.285 336.344C926.959 336.028 926.798 335.588 926.798 335.021ZM930.637 327.838H932.32V329.808H930.637V327.838ZM930.637 330.607H932.32V336.818H930.637V330.607ZM936.465 330.42C937.496 330.42 938.311 330.786 938.909 331.517C939.507 332.248 939.749 333.168 939.632 334.273H934.943C934.992 334.606 935.15 334.888 935.417 335.122C935.692 335.346 936.037 335.467 936.452 335.483C936.744 335.5 937.013 335.45 937.262 335.333C937.52 335.208 937.703 335.046 937.812 334.847H939.57C939.371 335.53 938.989 336.062 938.422 336.443C937.857 336.818 937.2 337.005 936.452 337.005C935.446 337.005 934.657 336.689 934.082 336.058C933.509 335.417 933.223 334.635 933.223 333.711C933.223 332.782 933.525 331.998 934.133 331.367C934.749 330.736 935.524 330.42 936.465 330.42ZM937.387 332.203C937.13 332.02 936.818 331.928 936.452 331.928C936.085 331.928 935.766 332.024 935.491 332.215C935.226 332.398 935.047 332.647 934.955 332.963H937.923C937.831 332.64 937.654 332.386 937.387 332.203ZM944.106 330.432C944.87 330.432 945.472 330.677 945.915 331.168C946.355 331.659 946.575 332.345 946.575 333.226V336.818H944.892V333.476C944.892 333.043 944.771 332.702 944.529 332.452C944.288 332.203 943.986 332.078 943.619 332.078C943.228 332.078 942.896 332.221 942.621 332.503C942.347 332.776 942.21 333.142 942.21 333.6V336.818H940.527V330.607H942.16V331.355H942.222C942.662 330.74 943.29 330.432 944.106 330.432ZM952.303 330.607V332.228H949.746V334.709C949.746 334.859 949.791 334.976 949.882 335.06C949.974 335.142 950.095 335.185 950.245 335.185H952.303V336.818H949.933C949.36 336.818 948.902 336.656 948.561 336.33C948.228 335.999 948.062 335.553 948.062 334.998V332.228H947.189V330.607H948.062V328.461H949.746V330.607H952.303Z" fill="#1844BF"/>
<path d="M824.719 183.008V35.2932C824.719 34.7551 825.155 34.3188 825.693 34.3188H908.709" stroke="#0C38B7"/>
<path d="M829.396 183.008V30.6162C829.396 30.0781 829.832 29.6418 830.37 29.6418H912.997" stroke="#1844BF" stroke-dasharray="4.87 4.87"/>
<path d="M834.05 25.7443H820.821V38.9729H834.05V25.7443Z" fill="#1844BF"/>
<path d="M830.243 29.551H824.627V35.1665H830.243V29.551Z" fill="white"/>
<path d="M934.92 57.3139C950.472 57.3139 963.079 44.7066 963.079 29.1546C963.079 13.6026 950.472 0.9953 934.92 0.9953C919.368 0.9953 906.761 13.6026 906.761 29.1546C906.761 44.7066 919.368 57.3139 934.92 57.3139Z" fill="#1844BF"/>
<path d="M935.017 50.507C947.072 50.507 956.843 40.9066 956.843 29.064C956.843 17.2214 947.072 7.62103 935.017 7.62103C922.963 7.62103 913.192 17.2214 913.192 29.064C913.192 40.9066 922.963 50.507 935.017 50.507Z" stroke="white" stroke-linecap="round" stroke-linejoin="round"/>
<path d="M935.018 9.76481C936.309 9.76481 937.356 8.71783 937.356 7.42632C937.356 6.13481 936.309 5.08783 935.018 5.08783C933.726 5.08783 932.679 6.13481 932.679 7.42632C932.679 8.71783 933.726 9.76481 935.018 9.76481Z" fill="white"/>
<path d="M912.607 32.9548C914.652 32.9548 916.31 31.2534 916.31 29.1547C916.31 27.056 914.652 25.3547 912.607 25.3547C910.562 25.3547 908.904 27.056 908.904 29.1547C908.904 31.2534 910.562 32.9548 912.607 32.9548Z" fill="white"/>
<path d="M953.336 45.4267C955.381 45.4267 957.038 43.7253 957.038 41.6266C957.038 39.5279 955.381 37.8266 953.336 37.8266C951.291 37.8266 949.633 39.5279 949.633 41.6266C949.633 43.7253 951.291 45.4267 953.336 45.4267Z" fill="#1844BF" stroke="white"/>
<path d="M935.018 27.1085C938.569 27.1085 941.448 24.2293 941.448 20.6776C941.448 17.126 938.569 14.2468 935.018 14.2468C931.466 14.2468 928.587 17.126 928.587 20.6776C928.587 24.2293 931.466 27.1085 935.018 27.1085Z" stroke="white"/>
<path d="M945.1 36.1235C945.523 37.1351 945.786 38.2027 945.886 39.2895C945.934 39.8254 945.494 40.2625 944.956 40.2625H935.017H925.079C924.541 40.2625 924.101 39.8254 924.149 39.2895C924.249 38.2027 924.512 37.1351 924.935 36.1235C925.484 34.8115 926.287 33.619 927.3 32.6148C928.314 31.6104 929.518 30.8138 930.841 30.2703C932.164 29.7268 933.585 29.447 935.017 29.447C936.45 29.447 937.87 29.7268 939.194 30.2703C940.517 30.8138 941.721 31.6104 942.734 32.6148C943.748 33.619 944.551 34.8113 945.1 36.1235Z" stroke="white"/>
<path d="M924.052 69.5239H925.886C925.753 70.555 925.299 71.4072 924.525 72.0807C923.762 72.7458 922.805 73.0784 921.657 73.0784C920.377 73.0784 919.338 72.6627 918.539 71.8312C917.742 70.9915 917.342 69.9604 917.342 68.7382C917.342 67.5076 917.742 66.4724 918.539 65.6327C919.338 64.7846 920.377 64.3605 921.657 64.3605C922.772 64.3605 923.711 64.6889 924.477 65.3458C925.248 66.0027 925.71 66.8341 925.86 67.8402H924.015C923.873 67.3164 923.59 66.8964 923.167 66.5805C922.75 66.2563 922.243 66.0982 921.645 66.1066C920.897 66.115 920.293 66.3726 919.837 66.8799C919.379 67.3787 919.151 67.994 919.151 68.7257C919.151 69.4575 919.379 70.0768 919.837 70.584C920.293 71.0913 920.905 71.3448 921.67 71.3448C922.277 71.3448 922.793 71.1786 923.216 70.8459C923.648 70.5133 923.927 70.0727 924.052 69.5239ZM926.798 71.1079V63.924H928.481V70.8085C928.481 71.1162 928.647 71.27 928.98 71.27H929.816V72.9038H928.657C928.066 72.9038 927.608 72.7458 927.285 72.4299C926.959 72.114 926.798 71.6732 926.798 71.1079ZM930.637 63.924H932.32V65.8946H930.637V63.924ZM930.637 66.6928H932.32V72.9038H930.637V66.6928ZM936.465 66.5057C937.496 66.5057 938.311 66.8715 938.909 67.6032C939.507 68.335 939.749 69.2536 939.632 70.3595H934.943C934.992 70.6922 935.15 70.9748 935.417 71.2076C935.692 71.4321 936.037 71.5527 936.452 71.5693C936.744 71.5859 937.013 71.536 937.262 71.4196C937.52 71.2949 937.703 71.1328 937.812 70.9332H939.57C939.371 71.6151 938.989 72.1471 938.422 72.5297C937.857 72.9038 937.2 73.0909 936.452 73.0909C935.446 73.0909 934.657 72.775 934.082 72.143C933.509 71.5029 933.223 70.7212 933.223 69.7983C933.223 68.867 933.525 68.0855 934.133 67.4536C934.749 66.8216 935.524 66.5057 936.465 66.5057ZM937.387 68.2892C937.13 68.1062 936.818 68.0148 936.452 68.0148C936.085 68.0148 935.766 68.1105 935.491 68.3017C935.226 68.4846 935.047 68.7341 934.955 69.05H937.923C937.831 68.7257 937.654 68.4722 937.387 68.2892ZM944.106 66.5182C944.87 66.5182 945.472 66.7635 945.915 67.254C946.355 67.7445 946.575 68.4305 946.575 69.3119V72.9038H944.892V69.5613C944.892 69.1289 944.771 68.7881 944.529 68.5386C944.288 68.2892 943.986 68.1645 943.619 68.1645C943.228 68.1645 942.896 68.3058 942.621 68.5885C942.347 68.8629 942.21 69.2287 942.21 69.686V72.9038H940.527V66.6928H942.16V67.4411H942.222C942.662 66.8259 943.29 66.5182 944.106 66.5182ZM952.303 66.6928V68.3141H949.746V70.7961C949.746 70.9457 949.791 71.0621 949.882 71.1453C949.974 71.2285 950.095 71.27 950.245 71.27H952.303V72.9038H949.933C949.36 72.9038 948.902 72.7417 948.561 72.4174C948.228 72.0848 948.062 71.6401 948.062 71.0829V68.3141H947.189V66.6928H948.062V64.5476H949.746V66.6928H952.303Z" fill="#1844BF"/>
<path d="M148.406 79.6052H67.1432C66.6051 79.6052 66.1689 80.0414 66.1689 80.5795V180.94C66.1689 181.478 66.6051 181.914 67.1432 181.914H148.406C148.944 181.914 149.38 181.478 149.38 180.94V80.5795C149.38 80.0414 148.944 79.6052 148.406 79.6052Z" stroke="#FF952F"/>
<path d="M117.81 118.872H15.3067C14.7148 118.872 14.2349 119.352 14.2349 119.944V215.627C14.2349 216.219 14.7148 216.699 15.3067 216.699H117.81C118.402 216.699 118.882 216.219 118.882 215.627V119.944C118.882 119.352 118.402 118.872 117.81 118.872Z" stroke="#E2EBF4" stroke-dasharray="2.73 2.73"/>
<path d="M26.1864 215.756C40.3777 215.756 51.8821 204.393 51.8821 190.376C51.8821 176.358 40.3777 164.995 26.1864 164.995C11.995 164.995 0.490692 176.358 0.490692 190.376C0.490692 204.393 11.995 215.756 26.1864 215.756Z" fill="#FF952F"/>
<path d="M26.1864 203.46C33.4126 203.46 39.2707 197.602 39.2707 190.376C39.2707 183.149 33.4126 177.291 26.1864 177.291C18.9601 177.291 13.1021 183.149 13.1021 190.376C13.1021 197.602 18.9601 203.46 26.1864 203.46Z" stroke="white"/>
<path d="M3.32843 190.376C3.32843 186.42 4.38464 182.532 6.39087 179.104L12.3295 182.485C10.9252 184.884 10.1858 187.607 10.1858 190.376H3.32843Z" fill="white"/>
<path d="M14.7574 170.58C18.1843 168.602 22.079 167.573 26.05 167.597L26.0909 174.431C23.3112 174.413 20.5849 175.134 18.186 176.518L14.7574 170.58Z" fill="white"/>
<path d="M37.6159 170.58C41.0418 172.558 43.8811 175.417 45.8454 178.868L39.9485 182.319C38.5727 179.905 36.585 177.904 34.1861 176.518L37.6159 170.58Z" fill="white"/>
<path d="M49.0453 190.376C49.0453 194.334 47.9891 198.221 45.9819 201.647L40.044 198.266C41.4471 195.867 42.1876 193.147 42.1876 190.376H49.0453Z" fill="white"/>
<path d="M37.6159 210.171C34.188 212.151 30.2937 213.18 26.3227 213.154L26.2818 206.322C29.0615 206.338 31.7878 205.619 34.1861 204.233L37.6159 210.171Z" fill="white"/>
<path d="M14.7574 210.171C11.3306 208.193 8.49203 205.334 6.52731 201.883L12.425 198.432C13.8004 200.846 15.7873 202.848 18.186 204.233L14.7574 210.171Z" fill="white"/>
<path d="M135.316 131.375C149.507 131.375 161.012 120.012 161.012 105.995C161.012 91.9779 149.507 80.6147 135.316 80.6147C121.125 80.6147 109.62 91.9779 109.62 105.995C109.62 120.012 121.125 131.375 135.316 131.375Z" fill="#1844BF"/>
<path d="M135.316 119.079C142.542 119.079 148.4 113.221 148.4 105.995C148.4 98.7689 142.542 92.9108 135.316 92.9108C128.09 92.9108 122.232 98.7689 122.232 105.995C122.232 113.221 128.09 119.079 135.316 119.079Z" stroke="white"/>
<path d="M112.457 105.995C112.457 102.039 113.514 98.1514 115.521 94.7236L121.459 98.1047C120.055 100.504 119.315 103.226 119.315 105.995H112.457Z" fill="white"/>
<path d="M123.887 86.1999C127.315 84.2219 131.208 83.193 135.18 83.2164L135.221 90.0506C132.442 90.0331 129.715 90.7541 127.316 92.1377L123.887 86.1999Z" fill="white"/>
<path d="M146.745 86.1999C150.171 88.1779 153.011 91.0367 154.975 94.4879L149.078 97.9391C147.702 95.5246 145.714 93.5233 143.316 92.1377L146.745 86.1999Z" fill="white"/>
<path d="M158.175 105.995C158.175 109.953 157.119 113.841 155.111 117.267L149.174 113.886C150.577 111.487 151.317 108.766 151.317 105.995H158.175Z" fill="white"/>
<path d="M146.745 125.791C143.318 127.77 139.424 128.799 135.452 128.774L135.411 121.942C138.19 121.957 140.917 121.238 143.316 119.853L146.745 125.791Z" fill="white"/>
<path d="M123.887 125.79C120.461 123.812 117.622 120.954 115.657 117.502L121.554 114.051C122.93 116.466 124.918 118.467 127.317 119.853L123.887 125.79Z" fill="white"/>
<path d="M32.2608 101.042V233.751H137.298V101.042C137.298 94.5834 132.064 89.3491 125.605 89.3491H43.9532C37.4951 89.3491 32.2608 94.5834 32.2608 101.042Z" fill="white" stroke="#0C38B7"/>
<path d="M39.666 189.709H130.088C130.626 189.709 131.062 189.273 131.062 188.735V173.34C131.062 172.802 130.626 172.365 130.088 172.365H39.666C39.1279 172.365 38.6916 172.802 38.6916 173.34V188.735C38.6916 189.273 39.1279 189.709 39.666 189.709Z" fill="white" stroke="#E2EBF4" stroke-linecap="round" stroke-linejoin="round"/>
<path d="M120.149 100.262H130.088C130.626 100.262 131.062 99.8257 131.062 99.2875V98.7029C131.062 98.1648 130.626 97.7285 130.088 97.7285H120.149C119.611 97.7285 119.175 98.1648 119.175 98.7029V99.2875C119.175 99.8257 119.611 100.262 120.149 100.262Z" fill="white" stroke="#E2EBF4" stroke-linecap="round" stroke-linejoin="round"/>
<path d="M120.149 104.354H130.088C130.626 104.354 131.062 103.918 131.062 103.38V102.795C131.062 102.257 130.626 101.821 130.088 101.821H120.149C119.611 101.821 119.175 102.257 119.175 102.795V103.38C119.175 103.918 119.611 104.354 120.149 104.354Z" fill="white" stroke="#E2EBF4" stroke-linecap="round" stroke-linejoin="round"/>
<path d="M60.5175 105.134H96.3743C96.9125 105.134 97.3487 104.697 97.3487 104.159V102.211C97.3487 101.672 96.9125 101.236 96.3743 101.236H60.5175C59.9794 101.236 59.5431 101.672 59.5431 102.211V104.159C59.5431 104.697 59.9794 105.134 60.5175 105.134Z" fill="white" stroke="#E2EBF4" stroke-linecap="round" stroke-linejoin="round"/>
<path d="M120.149 108.447H130.088C130.626 108.447 131.062 108.01 131.062 107.472V106.888C131.062 106.35 130.626 105.913 130.088 105.913H120.149C119.611 105.913 119.175 106.35 119.175 106.888V107.472C119.175 108.01 119.611 108.447 120.149 108.447Z" fill="white" stroke="#E2EBF4" stroke-linecap="round" stroke-linejoin="round"/>
<path d="M57.5944 182.499H85.4614C85.9995 182.499 86.4358 182.062 86.4358 181.524V180.55C86.4358 180.012 85.9995 179.576 85.4614 179.576H57.5944C57.0563 179.576 56.62 180.012 56.62 180.55V181.524C56.62 182.062 57.0563 182.499 57.5944 182.499Z" fill="#E2EBF4"/>
<path d="M110.795 181.524H124.826C125.364 181.524 125.8 181.088 125.8 180.55V178.017C125.8 177.478 125.364 177.042 124.826 177.042H110.795C110.257 177.042 109.821 177.478 109.821 178.017V180.55C109.821 181.088 110.257 181.524 110.795 181.524Z" fill="#E2EBF4"/>
<path d="M115.667 185.032H124.826C125.364 185.032 125.8 184.596 125.8 184.058C125.8 183.52 125.364 183.083 124.826 183.083H115.667C115.129 183.083 114.692 183.52 114.692 184.058C114.692 184.596 115.129 185.032 115.667 185.032Z" fill="#E2EBF4"/>
<path d="M39.666 209.391H130.088C130.626 209.391 131.062 208.955 131.062 208.417V193.217C131.062 192.679 130.626 192.242 130.088 192.242H39.666C39.1279 192.242 38.6916 192.679 38.6916 193.217V208.417C38.6916 208.955 39.1279 209.391 39.666 209.391Z" fill="white" stroke="#E2EBF4" stroke-linecap="round" stroke-linejoin="round"/>
<path d="M39.666 229.268H130.088C130.626 229.268 131.062 228.832 131.062 228.294V212.899C131.062 212.361 130.626 211.925 130.088 211.925H39.666C39.1279 211.925 38.6916 212.361 38.6916 212.899V228.294C38.6916 228.832 39.1279 229.268 39.666 229.268Z" fill="white" stroke="#E2EBF4" stroke-linecap="round" stroke-linejoin="round"/>
<path d="M48.2404 205.786C51.0387 205.786 53.3072 203.539 53.3072 200.768C53.3072 197.997 51.0387 195.751 48.2404 195.751C45.4422 195.751 43.1737 197.997 43.1737 200.768C43.1737 203.539 45.4422 205.786 48.2404 205.786Z" fill="#E2EBF4"/>
<path fill-rule="evenodd" clip-rule="evenodd" d="M48.864 200.033L48.8601 199.277L50.46 199.266L50.4503 198.112L46.0968 198.143L46.1046 199.297L47.7045 199.285L47.7084 200.041C46.4106 200.115 45.4342 200.4 45.4362 200.735C45.4381 201.068 46.4183 201.339 47.7181 201.394L47.7357 203.818L48.8913 203.81L48.8738 201.386C50.1716 201.312 51.144 201.025 51.1421 200.692C51.1401 200.359 50.1638 200.088 48.866 200.033H48.864ZM48.8718 201.181C48.8387 201.183 48.673 201.195 48.2989 201.197C48.0007 201.199 47.7903 201.191 47.7162 201.189C46.5665 201.144 45.7071 200.934 45.7051 200.675C45.7051 200.415 46.5606 200.193 47.7084 200.129L47.7143 200.975C47.7903 200.979 48.0046 200.992 48.3008 200.988C48.6594 200.986 48.8367 200.969 48.8699 200.967L48.864 200.121C50.0099 200.168 50.8673 200.378 50.8693 200.638C50.8712 200.895 50.0177 201.117 48.8718 201.181Z" fill="#1844BF"/>
<path d="M48.2795 186.202C51.1052 186.202 53.3959 183.933 53.3959 181.135C53.3959 178.337 51.1052 176.068 48.2795 176.068C45.4537 176.068 43.1631 178.337 43.1631 181.135C43.1631 183.933 45.4537 186.202 48.2795 186.202Z" fill="#FF952F"/>
<path fill-rule="evenodd" clip-rule="evenodd" d="M47.8936 180.722C48.2483 180.735 49.1467 180.77 49.1467 180.084C49.1428 179.428 48.4042 179.439 48.0008 179.447C47.9384 179.447 47.8839 179.449 47.841 179.447V180.722C47.8566 180.722 47.8722 180.722 47.8936 180.722ZM48.8271 177.658L48.829 178.709C49.5481 178.781 50.1191 179.028 50.1853 179.788C50.2302 180.347 50.0275 180.669 49.704 180.874C50.2457 181.016 50.579 181.386 50.503 182.197C50.4289 183.204 49.7663 183.479 48.8407 183.543L48.8387 184.607L48.2795 184.605V183.561C48.1879 183.557 48.0963 183.557 48.0028 183.557C47.9462 183.555 47.8917 183.555 47.8332 183.555L47.8371 184.611H47.2778V183.547C47.1745 183.549 47.0693 183.549 46.9621 183.549C46.9329 183.549 46.9037 183.547 46.8764 183.547H46.1534L46.2625 182.785C46.2625 182.785 46.6737 182.787 46.6679 182.783C46.8121 182.77 46.8686 182.649 46.8744 182.565L46.8705 179.687C46.8491 179.546 46.777 179.404 46.549 179.406C46.5587 179.398 46.1436 179.408 46.1436 179.408L46.1456 178.724L46.9134 178.722C46.9816 178.722 47.0518 178.72 47.1219 178.72C47.1706 178.718 47.2194 178.718 47.2681 178.718V177.672L47.8196 177.664L47.8235 178.697C47.9735 178.687 48.1197 178.685 48.2697 178.683V177.674L48.8271 177.658ZM47.8468 181.374L47.8507 182.781C47.878 182.781 47.9092 182.781 47.9443 182.781C48.3944 182.789 49.4097 182.807 49.4097 182.07C49.4097 181.32 48.4373 181.353 47.9755 181.37C47.9267 181.372 47.8819 181.374 47.8468 181.374Z" fill="white"/>
<path d="M87.25 79.525L83.043 75.3181L78.836 79.525L83.043 83.732L87.25 79.525Z" fill="#FF952F"/>
<path d="M94.5766 79.5243L92.052 76.9997L89.5274 79.5243L92.052 82.0489L94.5766 79.5243Z" fill="#FF952F"/>
<path d="M48.2404 225.761C51.0387 225.761 53.3072 223.492 53.3072 220.694C53.3072 217.896 51.0387 215.627 48.2404 215.627C45.4422 215.627 43.1737 217.896 43.1737 220.694C43.1737 223.492 45.4422 225.761 48.2404 225.761Z" fill="#1844BF"/>
<path d="M48.1859 216.949L49.893 220.449L48.1859 221.466L46.4788 220.449L48.1859 216.949Z" fill="white"/>
<path d="M48.1859 224.108L46.4788 221.246L48.1859 222.198L49.893 221.246L48.1859 224.108Z" fill="white"/>
<path d="M67.4644 46.8307H69.9497C69.7693 48.2368 69.1551 49.3984 68.1069 50.318C67.07 51.2244 65.7737 51.6789 64.2183 51.6789C62.4824 51.6789 61.0736 51.1101 59.9915 49.9778C58.9095 48.8322 58.3684 47.4261 58.3684 45.7569C58.3684 44.0797 58.9095 42.6682 59.9915 41.5226C61.0736 40.3664 62.4824 39.787 64.2183 39.787C65.7285 39.787 67.0024 40.2362 68.0392 41.1319C69.0875 42.0277 69.713 43.16 69.9159 44.5342H67.4137C67.2222 43.8192 66.8388 43.2451 66.264 42.8145C65.7005 42.3732 65.0129 42.1579 64.2014 42.1686C63.1869 42.1792 62.3699 42.5327 61.7499 43.2238C61.1298 43.9042 60.82 44.7442 60.82 45.7409C60.82 46.7377 61.1298 47.5829 61.7499 48.2767C62.3699 48.9678 63.1983 49.3133 64.2352 49.3133C65.0581 49.3133 65.7568 49.0874 66.3316 48.6328C66.9178 48.1783 67.2953 47.5776 67.4644 46.8307ZM77.6271 44.0557V42.9686H79.8937V51.4397H77.6271V50.318H77.5425C77.2731 50.7247 76.9006 51.0543 76.4277 51.3042C75.9549 51.554 75.4186 51.6842 74.8216 51.6949C73.6724 51.6949 72.7135 51.2802 71.9474 50.4536C71.1919 49.6137 70.8149 48.5372 70.8149 47.2214C70.8149 45.9057 71.1866 44.8213 71.9315 43.9707C72.6871 43.1201 73.6539 42.7028 74.8374 42.7135C75.4239 42.7135 75.9549 42.8384 76.4277 43.0882C76.9006 43.3354 77.2731 43.6597 77.5425 44.0557H77.6271ZM73.7385 48.8721C74.1691 49.3027 74.7159 49.518 75.379 49.518C76.0447 49.518 76.5862 49.2974 77.0036 48.8535C77.421 48.4016 77.6271 47.8514 77.6271 47.2029C77.6271 46.5463 77.4131 45.9961 76.9851 45.5549C76.5677 45.111 76.0341 44.8904 75.379 44.8904C74.7159 44.8904 74.1691 45.111 73.7385 45.5549C73.3237 45.9855 73.115 46.5357 73.115 47.2029C73.115 47.8727 73.3237 48.4282 73.7385 48.8721ZM83.8219 42.9686H88.4554V45.1801H83.8906C83.6528 45.1801 83.5365 45.2997 83.5365 45.5363C83.5365 45.7409 83.6317 45.8605 83.8219 45.8951L86.984 46.541C87.6259 46.6765 88.1331 46.9556 88.5056 47.3729C88.8781 47.7929 89.063 48.2979 89.063 48.888C89.063 49.6243 88.7989 50.2383 88.2705 50.7247C87.7501 51.2005 87.1029 51.4397 86.3262 51.4397H81.4549V49.2123H86.2919C86.5402 49.2123 86.6644 49.0874 86.6644 48.8375C86.6644 48.6435 86.5666 48.5186 86.3764 48.4627L83.1641 47.7663C82.5539 47.6414 82.0599 47.3676 81.6768 46.9477C81.2938 46.5304 81.1009 46.036 81.1009 45.4698C81.1009 44.7442 81.3598 44.1488 81.8776 43.6836C82.398 43.2052 83.0452 42.9686 83.8219 42.9686ZM90.2597 39.1916H92.5422V41.8788H90.2597V39.1916ZM90.2597 42.9686H92.5422V51.4397H90.2597V42.9686ZM99.1729 42.7294C100.211 42.7294 101.027 43.0643 101.624 43.7341C102.221 44.4039 102.52 45.3396 102.52 46.541V51.4397H100.237V46.8812C100.237 46.2911 100.074 45.826 99.7487 45.4858C99.4212 45.1455 99.0091 44.9754 98.5124 44.9754C97.9841 44.9754 97.5324 45.1695 97.1599 45.5549C96.79 45.927 96.6025 46.4267 96.6025 47.0513V51.4397H94.32V42.9686H96.5364V43.9893H96.621C97.218 43.1494 98.0686 42.7294 99.1729 42.7294ZM111.449 50.419C110.614 51.2696 109.52 51.6949 108.168 51.6949C106.815 51.6949 105.722 51.2696 104.89 50.419C104.055 49.5685 103.637 48.4973 103.637 47.2029C103.637 45.9217 104.055 44.8558 104.89 44.0053C105.722 43.1441 106.815 42.7135 108.168 42.7135C109.52 42.7135 110.614 43.1441 111.449 44.0053C112.284 44.8558 112.701 45.9217 112.701 47.2029C112.701 48.4973 112.284 49.5685 111.449 50.419ZM108.168 49.4675C108.823 49.4675 109.357 49.2522 109.774 48.8189C110.202 48.3777 110.419 47.8381 110.419 47.2029C110.419 46.557 110.21 46.02 109.793 45.5868C109.375 45.1455 108.834 44.9249 108.168 44.9249C107.505 44.9249 106.963 45.1455 106.546 45.5868C106.129 46.02 105.92 46.557 105.92 47.2029C105.92 47.8514 106.129 48.3883 106.546 48.8189C106.963 49.2522 107.505 49.4675 108.168 49.4675ZM44.7071 62.5318H42.3242C42.1895 62.1596 41.9518 61.8593 41.6136 61.6307C41.286 61.3941 40.8977 61.2745 40.446 61.2745C39.7935 61.2745 39.2678 61.4951 38.8742 61.9364C38.4805 62.3696 38.2824 62.9066 38.2824 63.5525C38.2824 64.1877 38.4805 64.7273 38.8742 65.1685C39.2678 65.6018 39.7935 65.8171 40.446 65.8171C40.8871 65.8171 41.2755 65.7028 41.6136 65.4769C41.9518 65.2376 42.1895 64.9319 42.3242 64.5572H44.7071C44.5274 65.5885 44.0493 66.4284 43.27 67.0743C42.5039 67.7202 41.5581 68.0445 40.4301 68.0445C39.0987 68.0445 38.0288 67.6192 37.2178 66.7687C36.4068 65.9181 36 64.8469 36 63.5525C36 62.2607 36.4068 61.1895 37.2178 60.3389C38.0288 59.4883 39.0987 59.0631 40.4301 59.0631C41.5687 59.0631 42.5197 59.3847 43.2885 60.0332C44.0651 60.6685 44.538 61.5004 44.7071 62.5318ZM50.0962 59.3182H51.8714V61.6148H49.9773C49.4251 61.6148 48.9761 61.7955 48.6247 62.1596C48.276 62.5211 48.1017 62.9916 48.1017 63.571V67.7893H45.8192V59.3182H47.9828V60.6446H48.0673C48.3949 59.7595 49.0712 59.3182 50.0962 59.3182ZM57.2948 65.7479L59.358 59.3182H61.6748L58.3251 69.1662C58.1006 69.8147 57.7571 70.3118 57.2948 70.6653C56.8325 71.0161 56.2751 71.1916 55.62 71.1916H53.2213V68.9455H55.554C55.7785 68.9455 55.9713 68.8951 56.1272 68.7941L52.2571 59.3182H54.7588L57.2948 65.7479ZM67.5843 59.0631C68.7678 59.0524 69.7294 59.4697 70.4744 60.3203C71.2299 61.1709 71.6076 62.2553 71.6076 63.571C71.6076 64.8868 71.2246 65.9633 70.4585 66.8032C69.703 67.6298 68.7493 68.0445 67.6002 68.0445C67.0031 68.0338 66.4669 67.9036 65.994 67.6538C65.5211 67.4039 65.1486 67.0743 64.8792 66.6676H64.7947V71.1916H62.5281V59.3182H64.7947V60.4053H64.8792C65.1486 60.0093 65.5211 59.685 65.994 59.4378C66.4774 59.188 67.0084 59.0631 67.5843 59.0631ZM65.4181 65.2031C65.8355 65.647 66.3771 65.8676 67.0428 65.8676C67.7058 65.8676 68.2474 65.6523 68.6648 65.2217C69.0927 64.7778 69.3067 64.2223 69.3067 63.5525C69.3067 62.8853 69.0927 62.3351 68.6648 61.9045C68.2474 61.4606 67.7058 61.24 67.0428 61.24C66.3876 61.24 65.8461 61.4606 65.4181 61.9045C65.0007 62.3457 64.7947 62.8959 64.7947 63.5525C64.7947 64.201 65.0007 64.7512 65.4181 65.2031ZM79.0203 59.3182V61.5297H75.5544V64.9134C75.5544 65.118 75.6178 65.2775 75.7419 65.3918C75.8661 65.5034 76.0272 65.5619 76.2306 65.5619H79.0203V67.7893H75.808C75.0313 67.7893 74.4105 67.5687 73.9482 67.1248C73.4991 66.673 73.2719 66.0643 73.2719 65.3067V61.5297H72.0884V59.3182H73.2719V56.3917H75.5544V59.3182H79.0203ZM87.5161 66.7687C86.6813 67.6192 85.5876 68.0445 84.235 68.0445C82.8825 68.0445 81.7888 67.6192 80.954 66.7687C80.1219 65.9181 79.7045 64.8469 79.7045 63.5525C79.7045 62.2713 80.1219 61.2054 80.954 60.3549C81.7888 59.4937 82.8825 59.0631 84.235 59.0631C85.5876 59.0631 86.6813 59.4937 87.5161 60.3549C88.3482 61.2054 88.7656 62.2713 88.7656 63.5525C88.7656 64.8469 88.3482 65.9181 87.5161 66.7687ZM84.235 65.8171C84.8902 65.8171 85.4238 65.6018 85.8412 65.1685C86.2691 64.7273 86.4831 64.1877 86.4831 63.5525C86.4831 62.9066 86.2744 62.3696 85.8571 61.9364C85.4423 61.4951 84.9008 61.2745 84.235 61.2745C83.5693 61.2745 83.0304 61.4951 82.613 61.9364C82.1956 62.3696 81.9869 62.9066 81.9869 63.5525C81.9869 64.201 82.1956 64.7379 82.613 65.1685C83.0304 65.6018 83.5693 65.8171 84.235 65.8171ZM102.45 64.6077L103.971 59.3182H106.338L103.649 67.7893H101.47L99.8291 62.3962L98.1727 67.7893H95.9907L93.3014 59.3182H95.6684L97.2244 64.6077L98.7962 59.3182H100.843L102.45 64.6077ZM113.249 60.4053V59.3182H115.516V67.7893H113.249V66.6676H113.164C112.895 67.0743 112.523 67.4039 112.05 67.6538C111.574 67.9036 111.041 68.0338 110.443 68.0445C109.292 68.0445 108.335 67.6298 107.569 66.8032C106.814 65.9633 106.436 64.8868 106.436 63.571C106.436 62.2553 106.808 61.1709 107.551 60.3203C108.306 59.4697 109.276 59.0524 110.459 59.0631C111.046 59.0631 111.574 59.188 112.05 59.4378C112.523 59.685 112.895 60.0093 113.164 60.4053H113.249ZM109.36 65.2217C109.788 65.6523 110.335 65.8676 111.001 65.8676C111.664 65.8676 112.206 65.647 112.623 65.2031C113.04 64.7512 113.249 64.201 113.249 63.5525C113.249 62.8959 113.035 62.3457 112.607 61.9045C112.19 61.4606 111.653 61.24 111.001 61.24C110.335 61.24 109.788 61.4606 109.36 61.9045C108.943 62.3351 108.734 62.8853 108.734 63.5525C108.734 64.2223 108.943 64.7778 109.36 65.2217ZM117.209 65.3386V55.5412H119.491V64.932C119.491 65.3519 119.716 65.5619 120.168 65.5619H121.301V67.7893H119.729C118.929 67.7893 118.308 67.574 117.869 67.1434C117.428 66.7128 117.209 66.1121 117.209 65.3386ZM122.344 65.3386V55.5412H124.627V64.932C124.627 65.3519 124.851 65.5619 125.303 65.5619H126.436V67.7893H124.862C124.062 67.7893 123.443 67.574 123.002 67.1434C122.564 66.7128 122.344 66.1121 122.344 65.3386ZM131.271 59.0631C132.668 59.0631 133.772 59.5628 134.586 60.5595C135.397 61.5563 135.722 62.8108 135.566 64.3179H129.208C129.276 64.7725 129.49 65.1579 129.852 65.4769C130.222 65.7825 130.69 65.9473 131.255 65.9686C131.649 65.9925 132.016 65.9234 132.354 65.7639C132.703 65.5938 132.951 65.3732 133.096 65.1021H135.482C135.21 66.0324 134.692 66.758 133.926 67.279C133.16 67.7893 132.269 68.0445 131.255 68.0445C129.889 68.0445 128.819 67.6139 128.043 66.7527C127.263 65.8782 126.875 64.8124 126.875 63.5525C126.875 62.2846 127.287 61.2161 128.109 60.3549C128.943 59.4937 129.997 59.0631 131.271 59.0631ZM132.523 61.4951C132.172 61.2453 131.749 61.1204 131.255 61.1204C130.758 61.1204 130.325 61.2506 129.953 61.5111C129.591 61.7609 129.35 62.1012 129.226 62.5318H133.249C133.125 62.0905 132.882 61.745 132.523 61.4951ZM143 59.3182V61.5297H139.534V64.9134C139.534 65.118 139.595 65.2775 139.719 65.3918C139.843 65.5034 140.007 65.5619 140.21 65.5619H143V67.7893H139.788C139.011 67.7893 138.39 67.5687 137.928 67.1248C137.476 66.673 137.252 66.0643 137.252 65.3067V61.5297H136.068V59.3182H137.252V56.3917H139.534V59.3182H143Z" fill="#1844BF"/>
<path d="M57.5145 127.525L59.9582 128.509C60.4006 128.684 60.7319 128.934 60.956 129.257C61.1821 129.583 61.2931 129.928 61.2931 130.292C61.2931 130.758 61.1236 131.165 60.7826 131.516C60.4415 131.857 59.9836 132.026 59.4106 132.026H59.1242V133.449H57.9764V132.026H56.092V130.879H59.4106C59.6094 130.879 59.7712 130.816 59.8959 130.692C60.0304 130.559 60.0966 130.405 60.0966 130.23C60.0966 129.957 59.9582 129.764 59.6854 129.657L57.1521 128.647C56.7116 128.472 56.3804 128.226 56.1543 127.911C55.9302 127.587 55.8191 127.242 55.8191 126.876C55.8191 126.402 55.9887 125.995 56.3297 125.654C56.6785 125.303 57.1404 125.13 57.7133 125.13H57.9764V123.67H59.1242V125.13H61.0183V126.278H57.7016C57.5106 126.278 57.3567 126.34 57.2398 126.465C57.1326 126.58 57.078 126.726 57.078 126.901C57.078 127.192 57.2242 127.4 57.5145 127.525ZM67.3342 127.761L64.378 130.842H68.2696V132.026H62.5949V131.091L66.5119 126.964C66.8178 126.663 66.9718 126.319 66.9718 125.927C66.9718 125.611 66.8529 125.354 66.6112 125.155C66.3774 124.954 66.0695 124.855 65.6875 124.855H62.6943V123.67H65.7012C66.4242 123.67 67.0185 123.879 67.4843 124.294C67.95 124.701 68.1819 125.233 68.1819 125.89C68.1819 126.556 67.8994 127.18 67.3342 127.761ZM70.9121 127.088H73.1064C73.8878 127.088 74.4958 127.328 74.9265 127.811C75.3591 128.293 75.5755 128.871 75.5755 129.544C75.5755 130.21 75.3552 130.791 74.9148 131.29C74.4822 131.781 73.88 132.026 73.1064 132.026H69.7507V130.842H73.0694C73.4513 130.842 73.7514 130.717 73.9677 130.467C74.1841 130.21 74.2951 129.906 74.3029 129.557C74.3127 129.209 74.2035 128.905 73.9794 128.647C73.7631 128.388 73.4591 128.259 73.0694 128.259H69.6513L70.1248 123.67H74.9031V124.855H71.1479L70.9121 127.088ZM78.1458 127.088H80.3421C81.1235 127.088 81.7296 127.328 82.1622 127.811C82.5948 128.293 82.8111 128.871 82.8111 129.544C82.8111 130.21 82.5909 130.791 82.1505 131.29C81.7179 131.781 81.1138 132.026 80.3421 132.026H76.9863V130.842H80.3031C80.687 130.842 80.9852 130.717 81.2015 130.467C81.4178 130.21 81.5308 129.906 81.5386 129.557C81.5464 129.209 81.4392 128.905 81.2151 128.647C80.9988 128.388 80.6948 128.259 80.3031 128.259H76.887L77.3605 123.67H82.1369V124.855H78.3836L78.1458 127.088ZM83.9628 128.971V126.726C83.9628 125.802 84.2707 125.034 84.8865 124.419C85.5023 123.803 86.274 123.495 87.2055 123.495C88.1292 123.495 88.9029 123.803 89.5265 124.419C90.1501 125.034 90.4619 125.802 90.4619 126.726V128.971C90.4619 129.894 90.1501 130.662 89.5265 131.278C88.9029 131.894 88.1292 132.202 87.2055 132.202C86.274 132.202 85.5023 131.894 84.8865 131.278C84.2707 130.662 83.9628 129.894 83.9628 128.971ZM85.173 126.726V128.971C85.173 129.569 85.364 130.06 85.7479 130.442C86.1298 130.816 86.6151 131.003 87.2055 131.003C87.796 131.003 88.2832 130.816 88.6651 130.442C89.0568 130.06 89.2517 129.569 89.2517 128.971V126.726C89.2517 126.128 89.0568 125.636 88.6651 125.255C88.2832 124.873 87.796 124.68 87.2055 124.68C86.6151 124.68 86.1298 124.873 85.7479 125.255C85.364 125.636 85.173 126.128 85.173 126.726ZM91.9663 128.971V126.726C91.9663 125.802 92.2723 125.034 92.8881 124.419C93.5039 123.803 94.2775 123.495 95.209 123.495C96.1308 123.495 96.9044 123.803 97.528 124.419C98.1516 125.034 98.4634 125.802 98.4634 126.726V128.971C98.4634 129.894 98.1516 130.662 97.528 131.278C96.9044 131.894 96.1308 132.202 95.209 132.202C94.2775 132.202 93.5039 131.894 92.8881 131.278C92.2723 130.662 91.9663 129.894 91.9663 128.971ZM93.1745 126.726V128.971C93.1745 129.569 93.3675 130.06 93.7494 130.442C94.1314 130.816 94.6185 131.003 95.209 131.003C95.7995 131.003 96.2847 130.816 96.6667 130.442C97.0584 130.06 97.2532 129.569 97.2532 128.971V126.726C97.2532 126.128 97.0584 125.636 96.6667 125.255C96.2847 124.873 95.7995 124.68 95.209 124.68C94.6185 124.68 94.1314 124.873 93.7494 125.255C93.3675 125.636 93.1745 126.128 93.1745 126.726ZM99.0617 130.53H100.496V132.026H99.0617V130.53ZM101.283 128.971V126.726C101.283 125.802 101.591 125.034 102.205 124.419C102.821 123.803 103.594 123.495 104.526 123.495C105.448 123.495 106.221 123.803 106.845 124.419C107.469 125.034 107.78 125.802 107.78 126.726V128.971C107.78 129.894 107.469 130.662 106.845 131.278C106.221 131.894 105.448 132.202 104.526 132.202C103.594 132.202 102.821 131.894 102.205 131.278C101.591 130.662 101.283 129.894 101.283 128.971ZM102.493 126.726V128.971C102.493 129.569 102.684 130.06 103.066 130.442C103.448 130.816 103.935 131.003 104.526 131.003C105.116 131.003 105.602 130.816 105.986 130.442C106.375 130.06 106.57 129.569 106.57 128.971V126.726C106.57 126.128 106.375 125.636 105.986 125.255C105.602 124.873 105.116 124.68 104.526 124.68C103.935 124.68 103.448 124.873 103.066 125.255C102.684 125.636 102.493 126.128 102.493 126.726ZM109.285 128.971V126.726C109.285 125.802 109.593 125.034 110.208 124.419C110.822 123.803 111.596 123.495 112.527 123.495C113.451 123.495 114.223 123.803 114.846 124.419C115.47 125.034 115.782 125.802 115.782 126.726V128.971C115.782 129.894 115.47 130.662 114.846 131.278C114.223 131.894 113.451 132.202 112.527 132.202C111.596 132.202 110.822 131.894 110.208 131.278C109.593 130.662 109.285 129.894 109.285 128.971ZM110.495 126.726V128.971C110.495 129.569 110.686 130.06 111.068 130.442C111.452 130.816 111.937 131.003 112.527 131.003C113.118 131.003 113.605 130.816 113.987 130.442C114.377 130.06 114.574 129.569 114.574 128.971V126.726C114.574 126.128 114.377 125.636 113.987 125.255C113.605 124.873 113.118 124.68 112.527 124.68C111.937 124.68 111.452 124.873 111.068 125.255C110.686 125.636 110.495 126.128 110.495 126.726Z" fill="#1844BF"/>
<path d="M95.8872 155.021C99.9231 155.021 103.195 151.75 103.195 147.714C103.195 143.678 99.9231 140.406 95.8872 140.406C91.8512 140.406 88.5794 143.678 88.5794 147.714C88.5794 151.75 91.8512 155.021 95.8872 155.021Z" fill="#1844BF"/>
<path d="M45.9994 110.396C50.0354 110.396 53.3072 107.124 53.3072 103.088C53.3072 99.0518 50.0354 95.78 45.9994 95.78C41.9634 95.78 38.6916 99.0518 38.6916 103.088C38.6916 107.124 41.9634 110.396 45.9994 110.396Z" fill="white" stroke="#E2EBF4" stroke-linecap="round" stroke-linejoin="round"/>
<path d="M75.8151 155.021C79.8511 155.021 83.1229 151.75 83.1229 147.714C83.1229 143.678 79.8511 140.406 75.8151 140.406C71.7791 140.406 68.5073 143.678 68.5073 147.714C68.5073 151.75 71.7791 155.021 75.8151 155.021Z" fill="#E2EBF4"/>
<path d="M95.7897 144.303V151.124" stroke="white" stroke-linecap="round"/>
<path d="M75.7177 144.303V151.124" stroke="#0C38B7" stroke-linecap="round"/>
<path d="M99.2974 147.811H92.4769" stroke="white" stroke-linecap="round"/>
<path d="M78.6096 147.039L75.7488 144.179L72.8861 147.039" stroke="#0C38B7" stroke-linecap="round" stroke-linejoin="round"/>
<path d="M24.8556 233.751H144.801" stroke="#0C38B7" stroke-linecap="round"/>
<path d="M57.5944 202.571H76.1074C76.6456 202.571 77.0818 202.134 77.0818 201.596V200.622C77.0818 200.084 76.6456 199.648 76.1074 199.648H57.5944C57.0563 199.648 56.62 200.084 56.62 200.622V201.596C56.62 202.134 57.0563 202.571 57.5944 202.571Z" fill="#E2EBF4"/>
<path d="M57.5944 222.058H93.6461C94.1842 222.058 94.6205 221.622 94.6205 221.084V220.11C94.6205 219.571 94.1842 219.135 93.6461 219.135H57.5944C57.0563 219.135 56.62 219.571 56.62 220.11V221.084C56.62 221.622 57.0563 222.058 57.5944 222.058Z" fill="#E2EBF4"/>
<path d="M104.754 201.402H124.826C125.364 201.402 125.8 200.965 125.8 200.427V197.894C125.8 197.356 125.364 196.919 124.826 196.919H104.754C104.216 196.919 103.78 197.356 103.78 197.894V200.427C103.78 200.965 104.216 201.402 104.754 201.402Z" fill="#E2EBF4"/>
<path d="M115.667 204.909H124.826C125.364 204.909 125.8 204.473 125.8 203.935C125.8 203.397 125.364 202.961 124.826 202.961H115.667C115.129 202.961 114.692 203.397 114.692 203.935C114.692 204.473 115.129 204.909 115.667 204.909Z" fill="#E2EBF4"/>
<path d="M109.821 221.084H124.826C125.364 221.084 125.8 220.648 125.8 220.11V217.576C125.8 217.038 125.364 216.602 124.826 216.602H109.821C109.283 216.602 108.846 217.038 108.846 217.576V220.11C108.846 220.648 109.283 221.084 109.821 221.084Z" fill="#E2EBF4"/>
<path d="M115.667 224.591H124.826C125.364 224.591 125.8 224.155 125.8 223.617C125.8 223.079 125.364 222.643 124.826 222.643H115.667C115.129 222.643 114.692 223.079 114.692 223.617C114.692 224.155 115.129 224.591 115.667 224.591Z" fill="#E2EBF4"/>
<path d="M150.939 197.407H148.406C148.244 197.407 148.113 197.538 148.113 197.699V209.197C148.113 209.358 148.244 209.489 148.406 209.489H150.939C151.101 209.489 151.231 209.358 151.231 209.197V197.699C151.231 197.538 151.101 197.407 150.939 197.407Z" fill="white" stroke="#1844BF"/>
<path d="M145.483 204.617H142.949C142.788 204.617 142.657 204.748 142.657 204.909V209.196C142.657 209.358 142.788 209.489 142.949 209.489H145.483C145.644 209.489 145.775 209.358 145.775 209.196V204.909C145.775 204.748 145.644 204.617 145.483 204.617Z" fill="white" stroke="#1844BF"/>
<path d="M156.396 200.525H153.862C153.701 200.525 153.57 200.655 153.57 200.817V209.196C153.57 209.358 153.701 209.489 153.862 209.489H156.396C156.557 209.489 156.688 209.358 156.688 209.196V200.817C156.688 200.655 156.557 200.525 156.396 200.525Z" fill="white" stroke="#1844BF"/>
<path d="M161.852 193.314H159.319C159.157 193.314 159.026 193.445 159.026 193.607V209.197C159.026 209.358 159.157 209.489 159.319 209.489H161.852C162.013 209.489 162.144 209.358 162.144 209.197V193.607C162.144 193.445 162.013 193.314 161.852 193.314Z" fill="white" stroke="#1844BF"/>
<path d="M585.709 120.919H426.692C426.154 120.919 425.718 121.355 425.718 121.893V224.981C425.718 225.52 426.154 225.956 426.692 225.956H585.709C586.248 225.956 586.684 225.52 586.684 224.981V121.893C586.684 121.355 586.248 120.919 585.709 120.919Z" fill="#E2EBF4"/>
<path d="M575.576 134.268H417.338C416.746 134.268 416.266 134.747 416.266 135.339V187.176C416.266 187.768 416.746 188.248 417.338 188.248H575.576C576.168 188.248 576.648 187.768 576.648 187.176V135.339C576.648 134.747 576.168 134.268 575.576 134.268Z" stroke="#E2EBF4" stroke-dasharray="2.73 2.73"/>
<path d="M574.602 192.145H417.338C416.746 192.145 416.266 192.625 416.266 193.217V238.233C416.266 238.825 416.746 239.304 417.338 239.304H574.602C575.194 239.304 575.673 238.825 575.673 238.233V193.217C575.673 192.625 575.194 192.145 574.602 192.145Z" stroke="#E2EBF4"/>
<path d="M600.715 101.529H471.708C471.331 101.529 471.026 101.834 471.026 102.211V198.283C471.026 198.66 471.331 198.966 471.708 198.966H600.715C601.091 198.966 601.397 198.66 601.397 198.283V102.211C601.397 101.834 601.091 101.529 600.715 101.529Z" stroke="#FF952F"/>
<path d="M423.149 104.518L410.256 114.685C409.833 115.019 409.761 115.631 410.094 116.054L426.545 136.915C426.878 137.338 427.49 137.41 427.913 137.077L440.807 126.909C441.229 126.576 441.302 125.963 440.969 125.541L424.518 104.68C424.185 104.257 423.572 104.185 423.149 104.518Z" fill="white" stroke="#FF952F"/>
<path d="M413.372 115.126C413.073 114.747 412.523 114.682 412.144 114.981C411.764 115.28 411.699 115.83 411.999 116.209L412.757 117.171C413.056 117.55 413.606 117.615 413.985 117.316C414.365 117.017 414.43 116.467 414.131 116.088L413.372 115.126Z" fill="#FF952F"/>
<path d="M438.445 124.316C438.146 123.937 437.596 123.872 437.216 124.171C436.837 124.47 436.772 125.02 437.071 125.4L437.829 126.361C438.129 126.741 438.679 126.806 439.058 126.506C439.437 126.207 439.502 125.657 439.203 125.278L438.445 124.316Z" fill="#FF952F"/>
<path d="M422.806 117.861C422.789 117.588 423.05 117.382 423.311 117.464L427.296 118.703C427.682 118.824 427.953 119.167 427.98 119.57L428.257 123.735C428.275 124.007 428.013 124.214 427.752 124.132L423.765 122.893C423.381 122.772 423.11 122.429 423.083 122.028L422.806 117.861Z" fill="#FF952F"/>
<path d="M432.2 91.826L417.801 99.7195C417.329 99.9782 417.156 100.57 417.415 101.042L430.186 124.338C430.445 124.81 431.037 124.983 431.509 124.724L445.908 116.831C446.38 116.572 446.552 115.98 446.294 115.508L433.522 92.212C433.264 91.7401 432.671 91.5673 432.2 91.826Z" fill="white" stroke="#1844BF"/>
<path d="M420.801 100.669C420.569 100.246 420.037 100.091 419.614 100.323C419.19 100.555 419.035 101.087 419.267 101.51L419.856 102.584C420.088 103.008 420.62 103.163 421.043 102.931C421.467 102.698 421.622 102.167 421.39 101.743L420.801 100.669Z" fill="#1844BF"/>
<path d="M444.007 113.884C443.774 113.46 443.243 113.305 442.819 113.537C442.396 113.769 442.24 114.301 442.473 114.725L443.061 115.799C443.294 116.222 443.825 116.377 444.249 116.145C444.672 115.913 444.828 115.381 444.595 114.958L444.007 113.884Z" fill="#1844BF"/>
<path fill-rule="evenodd" clip-rule="evenodd" d="M433.226 106.632C433.207 106.338 433.125 106.044 432.973 105.767C432.416 104.75 431.139 104.378 430.124 104.935C429.107 105.492 428.735 106.769 429.292 107.786C429.442 108.061 429.646 108.289 429.884 108.464C428.97 109.057 428.655 110.265 429.187 111.233C429.744 112.251 431.02 112.623 432.038 112.066C432.492 111.818 432.817 111.424 432.989 110.978L432.965 111.976C432.963 112.126 433.123 112.223 433.254 112.151L434.522 111.456C434.655 111.383 434.659 111.196 434.53 111.118L433.677 110.6C434.146 110.696 434.651 110.633 435.105 110.384C436.122 109.826 436.494 108.55 435.937 107.535C435.405 106.564 434.218 106.18 433.226 106.632Z" fill="#1844BF"/>
<path d="M447.485 86.6788L431.624 90.9287C431.105 91.0679 430.796 91.6022 430.935 92.122L437.812 117.784C437.951 118.304 438.485 118.612 439.005 118.473L454.866 114.223C455.386 114.084 455.694 113.549 455.555 113.03L448.679 87.3677C448.539 86.8479 448.005 86.5395 447.485 86.6788Z" fill="white" stroke="#FF952F"/>
<path d="M434.314 92.563C434.189 92.0963 433.71 91.8194 433.243 91.9444C432.776 92.0695 432.499 92.5491 432.625 93.0158L432.941 94.1986C433.067 94.6653 433.546 94.9422 434.013 94.8172C434.479 94.6921 434.756 94.2125 434.631 93.7459L434.314 92.563Z" fill="#FF952F"/>
<path d="M453.718 110.908C453.593 110.442 453.113 110.165 452.647 110.29C452.18 110.415 451.903 110.895 452.028 111.361L452.345 112.544C452.47 113.011 452.95 113.288 453.416 113.163C453.883 113.038 454.16 112.558 454.035 112.091L453.718 110.908Z" fill="#FF952F"/>
<path d="M444.496 105.88C444.387 106.052 444.163 106.112 443.983 106.017L443.599 105.814C441.103 104.5 439.453 103.631 439.053 102.139C438.726 100.915 439.41 99.7085 440.606 99.387C441.206 99.2272 441.853 99.3246 442.382 99.6208C442.487 99.6793 442.623 99.6423 442.686 99.539C442.995 99.0187 443.506 98.6114 444.104 98.4516C445.303 98.13 446.499 98.8316 446.827 100.055C447.226 101.548 446.232 103.127 444.726 105.512L444.496 105.88Z" fill="#FF952F"/>
<path d="M463.625 87.0172L447.205 87.1249C446.667 87.1284 446.233 87.5675 446.237 88.1056L446.411 114.672C446.415 115.21 446.854 115.644 447.392 115.64L463.812 115.532C464.35 115.529 464.783 115.09 464.78 114.552L464.605 87.9851C464.602 87.447 464.163 87.0136 463.625 87.0172Z" fill="white" stroke="#1844BF"/>
<path d="M449.394 89.3839C449.391 88.9008 448.997 88.5118 448.514 88.515C448.031 88.5181 447.642 88.9123 447.645 89.3954L447.653 90.62C447.656 91.1031 448.05 91.4921 448.533 91.4889C449.017 91.4858 449.406 91.0916 449.402 90.6085L449.394 89.3839Z" fill="#1844BF"/>
<path d="M463.538 112.034C463.535 111.551 463.141 111.162 462.658 111.165C462.175 111.169 461.786 111.563 461.789 112.046L461.797 113.27C461.8 113.753 462.194 114.143 462.677 114.139C463.16 114.136 463.55 113.742 463.546 113.259L463.538 112.034Z" fill="#1844BF"/>
<path fill-rule="evenodd" clip-rule="evenodd" d="M455.838 97.8105C455.688 97.6722 455.456 97.6741 455.308 97.8144L454.992 98.1106C452.932 100.04 451.572 101.314 451.582 102.86C451.591 104.126 452.57 105.109 453.809 105.101C454.378 105.097 454.926 104.875 455.345 104.51L454.733 105.59C454.659 105.72 454.752 105.882 454.902 105.88L456.348 105.871C456.498 105.871 456.592 105.707 456.516 105.578L455.888 104.508C456.311 104.865 456.863 105.081 457.432 105.077C458.671 105.068 459.638 104.074 459.63 102.807C459.618 101.262 458.242 100.005 456.157 98.1028L455.838 97.8105Z" fill="#1844BF"/>
<path d="M596.394 223.746C610.586 223.746 622.09 212.383 622.09 198.365C622.09 184.348 610.586 172.985 596.394 172.985C582.203 172.985 570.699 184.348 570.699 198.365C570.699 212.383 582.203 223.746 596.394 223.746Z" fill="#FF952F"/>
<path d="M596.394 211.45C603.621 211.45 609.479 205.592 609.479 198.365C609.479 191.139 603.621 185.281 596.394 185.281C589.168 185.281 583.31 191.139 583.31 198.365C583.31 205.592 589.168 211.45 596.394 211.45Z" stroke="white"/>
<path d="M573.536 198.365C573.536 194.41 574.592 190.522 576.599 187.094L582.537 190.475C581.134 192.874 580.393 195.596 580.393 198.365H573.536Z" fill="white"/>
<path d="M584.965 178.57C588.393 176.592 592.286 175.563 596.258 175.587L596.299 182.421C593.52 182.403 590.794 183.124 588.395 184.508L584.965 178.57Z" fill="white"/>
<path d="M607.824 178.57C611.25 180.548 614.089 183.407 616.053 186.858L610.156 190.309C608.781 187.895 606.793 185.893 604.394 184.508L607.824 178.57Z" fill="white"/>
<path d="M619.253 198.365C619.253 202.323 618.197 206.211 616.19 209.637L610.252 206.256C611.655 203.857 612.396 201.137 612.396 198.365H619.253Z" fill="white"/>
<path d="M607.824 218.161C604.396 220.141 600.502 221.17 596.531 221.144L596.49 214.312C599.269 214.327 601.995 213.608 604.394 212.223L607.824 218.161Z" fill="white"/>
<path d="M584.965 218.161C581.539 216.183 578.7 213.324 576.735 209.873L582.632 206.422C584.008 208.836 585.996 210.837 588.395 212.223L584.965 218.161Z" fill="white"/>
<path d="M591.945 113.708H432.928C432.39 113.708 431.954 114.144 431.954 114.683V217.771C431.954 218.309 432.39 218.745 432.928 218.745H591.945C592.484 218.745 592.92 218.309 592.92 217.771V114.683C592.92 114.144 592.484 113.708 591.945 113.708Z" fill="white" stroke="#0C38B7"/>
<path d="M489.929 120.724L573.14 120.724C573.947 120.724 574.602 120.069 574.602 119.262C574.602 118.455 573.947 117.801 573.14 117.801L489.929 117.801C489.122 117.801 488.467 118.455 488.467 119.262C488.467 120.069 489.122 120.724 489.929 120.724Z" fill="#E2EBF4"/>
<path d="M437.703 133.975H453.487C454.295 133.975 454.949 133.321 454.949 132.514C454.949 131.707 454.295 131.052 453.487 131.052H437.703C436.895 131.052 436.241 131.707 436.241 132.514C436.241 133.321 436.895 133.975 437.703 133.975Z" fill="#E2EBF4"/>
<path d="M437.703 141.575H453.487C454.295 141.575 454.949 140.921 454.949 140.114C454.949 139.306 454.295 138.652 453.487 138.652H437.703C436.895 138.652 436.241 139.306 436.241 140.114C436.241 140.921 436.895 141.575 437.703 141.575Z" fill="#E2EBF4"/>
<path d="M437.703 149.175H453.487C454.295 149.175 454.949 148.521 454.949 147.714C454.949 146.906 454.295 146.252 453.487 146.252H437.703C436.895 146.252 436.241 146.906 436.241 147.714C436.241 148.521 436.895 149.175 437.703 149.175Z" fill="#E2EBF4"/>
<path d="M437.703 156.775H453.487C454.295 156.775 454.949 156.121 454.949 155.314C454.949 154.507 454.295 153.852 453.487 153.852H437.703C436.895 153.852 436.241 154.507 436.241 155.314C436.241 156.121 436.895 156.775 437.703 156.775Z" fill="#E2EBF4"/>
<path d="M437.703 173.535H453.487C454.295 173.535 454.949 172.88 454.949 172.073C454.949 171.266 454.295 170.611 453.487 170.611H437.703C436.895 170.611 436.241 171.266 436.241 172.073C436.241 172.88 436.895 173.535 437.703 173.535Z" fill="#E2EBF4"/>
<path d="M437.703 181.135H453.487C454.295 181.135 454.949 180.48 454.949 179.673C454.949 178.866 454.295 178.212 453.487 178.212H437.703C436.895 178.212 436.241 178.866 436.241 179.673C436.241 180.48 436.895 181.135 437.703 181.135Z" fill="#E2EBF4"/>
<path d="M437.703 208.612H453.487C454.295 208.612 454.949 207.958 454.949 207.15C454.949 206.343 454.295 205.689 453.487 205.689H437.703C436.895 205.689 436.241 206.343 436.241 207.15C436.241 207.958 436.895 208.612 437.703 208.612Z" fill="#E2EBF4"/>
<path d="M437.118 120.724C437.925 120.724 438.58 120.069 438.58 119.262C438.58 118.455 437.925 117.801 437.118 117.801C436.311 117.801 435.656 118.455 435.656 119.262C435.656 120.069 436.311 120.724 437.118 120.724Z" fill="#E2EBF4"/>
<path d="M442.38 120.724C443.187 120.724 443.841 120.069 443.841 119.262C443.841 118.455 443.187 117.801 442.38 117.801C441.572 117.801 440.918 118.455 440.918 119.262C440.918 120.069 441.572 120.724 442.38 120.724Z" fill="#E2EBF4"/>
<path d="M447.446 120.724C448.253 120.724 448.908 120.069 448.908 119.262C448.908 118.455 448.253 117.801 447.446 117.801C446.639 117.801 445.985 118.455 445.985 119.262C445.985 120.069 446.639 120.724 447.446 120.724Z" fill="#E2EBF4"/>
<path fill-rule="evenodd" clip-rule="evenodd" d="M564.228 212.827C563.603 212.593 562.993 213.203 563.227 213.829L570.088 232.272C570.285 232.804 570.969 232.952 571.371 232.55L575.434 228.485L580.964 234.016C581.192 234.244 581.562 234.244 581.79 234.016L584.415 231.391C584.643 231.163 584.643 230.793 584.415 230.565L578.887 225.034L582.95 220.971C583.351 220.569 583.203 219.885 582.671 219.689L564.228 212.827Z" fill="white"/>
<path d="M575.434 228.485L575.64 228.279C575.527 228.166 575.342 228.166 575.227 228.279L575.434 228.485ZM578.887 225.034L578.68 224.827C578.624 224.882 578.595 224.958 578.595 225.034C578.595 225.112 578.624 225.186 578.68 225.241L578.887 225.034ZM563.5 213.727C563.353 213.336 563.735 212.956 564.127 213.1L564.33 212.552C563.47 212.233 562.632 213.071 562.952 213.93L563.5 213.727ZM570.361 232.17L563.5 213.727L562.952 213.93L569.814 232.373L570.361 232.17ZM571.162 232.344C570.913 232.595 570.486 232.502 570.361 232.17L569.814 232.373C570.086 233.106 571.024 233.31 571.577 232.757L571.162 232.344ZM575.227 228.279L571.162 232.344L571.577 232.757L575.64 228.694L575.227 228.279ZM581.171 233.809L575.64 228.279L575.227 228.694L580.758 234.222L581.171 233.809ZM581.584 233.809C581.469 233.922 581.284 233.922 581.171 233.809L580.758 234.222C581.099 234.565 581.654 234.565 581.997 234.222L581.584 233.809ZM584.209 231.184L581.584 233.809L581.997 234.222L584.622 231.597L584.209 231.184ZM584.209 230.771C584.322 230.884 584.322 231.069 584.209 231.184L584.622 231.597C584.965 231.254 584.965 230.699 584.622 230.358L584.209 230.771ZM578.68 225.241L584.209 230.771L584.622 230.358L579.093 224.827L578.68 225.241ZM582.743 220.762L578.68 224.827L579.093 225.241L583.157 221.177L582.743 220.762ZM582.57 219.961C582.901 220.086 582.995 220.513 582.743 220.762L583.157 221.177C583.71 220.624 583.505 219.687 582.773 219.414L582.57 219.961ZM564.127 213.1L582.57 219.961L582.773 219.414L564.33 212.552L564.127 213.1Z" fill="#0C38B7"/>
<path d="M589.785 101.325L584.825 96.3644L579.864 101.325L584.825 106.286L589.785 101.325Z" fill="#FF952F"/>
<path d="M484.554 58.9671H487.708C487.48 60.7664 486.701 62.2528 485.369 63.4297C484.051 64.5896 482.407 65.1712 480.431 65.1712C478.227 65.1712 476.435 64.4433 475.063 62.9943C473.688 61.5283 473 59.729 473 57.5929C473 55.4467 473.688 53.6405 475.063 52.1746C476.435 50.695 478.227 49.9535 480.431 49.9535C482.35 49.9535 483.967 50.5283 485.282 51.6746C486.614 52.8208 487.409 54.2698 487.667 56.0283H484.487C484.246 55.1134 483.759 54.3787 483.028 53.8277C482.313 53.263 481.441 52.9875 480.408 53.0011C479.119 53.0147 478.083 53.4671 477.294 54.3514C476.509 55.2222 476.113 56.297 476.113 57.5726C476.113 58.8481 476.509 59.9297 477.294 60.8174C478.083 61.7018 479.136 62.144 480.451 62.144C481.498 62.144 482.384 61.8548 483.115 61.2732C483.86 60.6916 484.339 59.9229 484.554 58.9671ZM497.46 55.4161V54.0249H500.339V64.8651H497.46V63.4297H497.353C497.011 63.9501 496.538 64.3719 495.937 64.6916C495.333 65.0113 494.656 65.178 493.898 65.1916C492.435 65.1916 491.22 64.661 490.247 63.6032C489.288 62.5283 488.808 61.1508 488.808 59.4671C488.808 57.7834 489.281 56.3957 490.224 55.3072C491.183 54.2188 492.415 53.6848 493.918 53.6984C494.662 53.6984 495.333 53.8582 495.937 54.178C496.538 54.4943 497.011 54.9093 497.353 55.4161H497.46ZM492.522 61.5793C493.065 62.1304 493.76 62.4059 494.605 62.4059C495.451 62.4059 496.135 62.1236 496.665 61.5555C497.195 60.9773 497.46 60.2732 497.46 59.4433C497.46 58.6032 497.189 57.8991 496.645 57.3344C496.115 56.7664 495.434 56.4841 494.605 56.4841C493.76 56.4841 493.065 56.7664 492.522 57.3344C491.992 57.8855 491.727 58.5896 491.727 59.4433C491.727 60.3005 491.992 61.0113 492.522 61.5793ZM505.328 54.0249H511.212V56.8548H505.415C505.113 56.8548 504.962 57.0079 504.962 57.3106C504.962 57.5726 505.083 57.7256 505.328 57.7698L509.343 58.5963C510.159 58.7698 510.803 59.1269 511.276 59.661C511.749 60.1984 511.984 60.8447 511.984 61.5998C511.984 62.5419 511.648 63.3277 510.974 63.9501C510.316 64.559 509.494 64.8651 508.505 64.8651H502.322V62.0147H508.461C508.776 62.0147 508.934 61.8548 508.934 61.5351C508.934 61.2868 508.813 61.127 508.568 61.0556L504.489 60.1644C503.717 60.0045 503.087 59.6542 502.6 59.1168C502.114 58.5827 501.872 57.9501 501.872 57.2256C501.872 56.297 502.201 55.5351 502.858 54.9399C503.516 54.3276 504.341 54.0249 505.328 54.0249ZM513.5 49.1916H516.399V52.6304H513.5V49.1916ZM513.5 54.0249H516.399V64.8651H513.5V54.0249ZM524.823 53.7188C526.138 53.7188 527.175 54.1474 527.936 55.0045C528.694 55.8617 529.074 57.0589 529.074 58.5963V64.8651H526.175V59.0317C526.175 58.2766 525.967 57.6814 525.551 57.246C525.135 56.8106 524.615 56.593 523.984 56.593C523.31 56.593 522.74 56.8412 522.266 57.3344C521.793 57.8106 521.559 58.4501 521.559 59.2494V64.8651H518.66V54.0249H521.471V55.331H521.579C522.337 54.2562 523.417 53.7188 524.823 53.7188ZM540.413 63.559C539.353 64.6474 537.964 65.1916 536.246 65.1916C534.529 65.1916 533.14 64.6474 532.08 63.559C531.023 62.4705 530.493 61.0998 530.493 59.4433C530.493 57.8039 531.023 56.4399 532.08 55.3515C533.14 54.2494 534.529 53.6984 536.246 53.6984C537.964 53.6984 539.353 54.2494 540.413 55.3515C541.47 56.4399 542 57.8039 542 59.4433C542 61.0998 541.47 62.4705 540.413 63.559ZM536.246 62.3412C537.075 62.3412 537.756 62.0658 538.286 61.5113C538.83 60.9467 539.101 60.2562 539.101 59.4433C539.101 58.6168 538.836 57.9297 538.306 57.3753C537.776 56.8106 537.092 56.5283 536.246 56.5283C535.401 56.5283 534.713 56.8106 534.186 57.3753C533.656 57.9297 533.391 58.6168 533.391 59.4433C533.391 60.2732 533.656 60.9603 534.186 61.5113C534.713 62.0658 535.401 62.3412 536.246 62.3412Z" fill="#1844BF"/>
<path d="M494.313 136.898H468.2C467.447 136.898 466.836 137.509 466.836 138.262V195.75C466.836 196.504 467.447 197.114 468.2 197.114H494.313C495.067 197.114 495.678 196.504 495.678 195.75V138.262C495.678 137.509 495.067 136.898 494.313 136.898Z" fill="#E2EBF4"/>
<path d="M564.273 131.442H463.134C462.596 131.442 462.159 131.878 462.159 132.416V201.596C462.159 202.135 462.596 202.571 463.134 202.571H564.273C564.811 202.571 565.248 202.135 565.248 201.596V132.416C565.248 131.878 564.811 131.442 564.273 131.442Z" fill="white" stroke="#E2EBF4" stroke-linecap="round" stroke-linejoin="round"/>
<path d="M573.627 153.463H572.068C571.53 153.463 571.094 153.899 571.094 154.437V181.33C571.094 181.868 571.53 182.304 572.068 182.304H573.627C574.165 182.304 574.602 181.868 574.602 181.33V154.437C574.602 153.899 574.165 153.463 573.627 153.463Z" fill="white" stroke="#E2EBF4" stroke-linecap="round" stroke-linejoin="round"/>
<path d="M493.534 215.043H483.206C482.668 215.043 482.231 215.479 482.231 216.017V229.463C482.231 230.001 482.668 230.438 483.206 230.438H493.534C494.072 230.438 494.508 230.001 494.508 229.463V216.017C494.508 215.479 494.072 215.043 493.534 215.043Z" fill="#1844BF" stroke="#0C38B7"/>
<path d="M493.534 212.509H483.206C482.668 212.509 482.231 212.946 482.231 213.484V226.93C482.231 227.468 482.668 227.905 483.206 227.905H493.534C494.072 227.905 494.508 227.468 494.508 226.93V213.484C494.508 212.946 494.072 212.509 493.534 212.509Z" fill="white" stroke="#0C38B7"/>
<path d="M509.319 215.043H498.99C498.452 215.043 498.016 215.479 498.016 216.017V229.463C498.016 230.001 498.452 230.438 498.99 230.438H509.319C509.857 230.438 510.293 230.001 510.293 229.463V216.017C510.293 215.479 509.857 215.043 509.319 215.043Z" fill="#1844BF" stroke="#0C38B7"/>
<path d="M509.319 212.509H498.99C498.452 212.509 498.016 212.946 498.016 213.484V226.93C498.016 227.468 498.452 227.905 498.99 227.905H509.319C509.857 227.905 510.293 227.468 510.293 226.93V213.484C510.293 212.946 509.857 212.509 509.319 212.509Z" fill="white" stroke="#0C38B7"/>
<path d="M525.298 215.043H514.97C514.432 215.043 513.996 215.479 513.996 216.017V229.463C513.996 230.001 514.432 230.438 514.97 230.438H525.298C525.837 230.438 526.273 230.001 526.273 229.463V216.017C526.273 215.479 525.837 215.043 525.298 215.043Z" fill="#1844BF" stroke="#0C38B7"/>
<path d="M525.298 212.509H514.97C514.432 212.509 513.996 212.946 513.996 213.484V226.93C513.996 227.468 514.432 227.905 514.97 227.905H525.298C525.837 227.905 526.273 227.468 526.273 226.93V213.484C526.273 212.946 525.837 212.509 525.298 212.509Z" fill="white" stroke="#0C38B7"/>
<path d="M541.083 215.043H530.755C530.217 215.043 529.781 215.479 529.781 216.017V229.463C529.781 230.001 530.217 230.438 530.755 230.438H541.083C541.621 230.438 542.058 230.001 542.058 229.463V216.017C542.058 215.479 541.621 215.043 541.083 215.043Z" fill="#1844BF" stroke="#0C38B7"/>
<path d="M541.083 212.509H530.755C530.217 212.509 529.781 212.946 529.781 213.484V226.93C529.781 227.468 530.217 227.905 530.755 227.905H541.083C541.621 227.905 542.058 227.468 542.058 226.93V213.484C542.058 212.946 541.621 212.509 541.083 212.509Z" fill="white" stroke="#0C38B7"/>
<path d="M476.165 161.745V157.068H490.284V160.634L482.8 176.653H477.597L484.817 161.745H476.165Z" fill="#FF952F"/>
<path d="M507.929 161.745V157.068H522.048V160.634L514.565 176.653H509.362L516.582 161.745H507.929Z" fill="#FF952F"/>
<path d="M539.402 161.745V157.068H553.52V160.634L546.037 176.653H540.834L548.054 161.745H539.402Z" fill="#FF952F"/>
<path d="M499.575 100.652C499.575 94.1935 504.809 88.9592 511.268 88.9592C517.726 88.9592 522.96 94.1935 522.96 100.652V109.982C522.96 110.426 522.601 110.785 522.157 110.785H500.378C499.934 110.785 499.575 110.426 499.575 109.982V100.652Z" fill="white" stroke="#0C38B7"/>
<path d="M504.837 101.236C504.837 97.6836 507.715 94.8054 511.268 94.8054C514.82 94.8054 517.698 97.6836 517.698 101.236V110.198C517.698 110.522 517.435 110.785 517.112 110.785H505.423C505.1 110.785 504.837 110.522 504.837 110.198V101.236Z" fill="#FF952F"/>
<path d="M525.688 113.601C525.688 112.046 524.427 110.785 522.872 110.785H499.663C498.108 110.785 496.847 112.046 496.847 113.601C496.847 113.659 496.896 113.708 496.954 113.708H525.581C525.639 113.708 525.688 113.659 525.688 113.601Z" fill="white" stroke="#0C38B7"/>
<path d="M471.513 152.293H493.924" stroke="#0C38B7" stroke-linecap="round"/>
<path d="M471.513 181.524H493.924" stroke="#0C38B7" stroke-linecap="round"/>
<path d="M502.498 152.293H525.104" stroke="#0C38B7" stroke-linecap="round"/>
<path d="M502.498 181.524H525.104" stroke="#0C38B7" stroke-linecap="round"/>
<path d="M535.237 152.293H557.648" stroke="#0C38B7" stroke-linecap="round"/>
<path d="M535.237 181.524H557.648" stroke="#0C38B7" stroke-linecap="round"/>
<path d="M481.452 146.987C480.61 148.503 478.698 149.049 477.182 148.207C475.666 147.365 475.118 145.453 475.962 143.937C476.755 142.509 478.427 141.595 479.756 142.877C479.922 143.037 480.123 143.158 480.343 143.22C482.251 143.766 482.249 145.553 481.452 146.987Z" stroke="#1844BF"/>
<path d="M490.015 147.059C490.061 148.793 488.693 150.235 486.959 150.282C485.227 150.329 483.783 148.961 483.738 147.227C483.693 145.594 484.669 143.957 486.466 144.383C486.688 144.438 486.922 144.438 487.144 144.381C489.066 143.879 489.972 145.418 490.015 147.059Z" stroke="#1844BF"/>
<path d="M480.314 143.105C481.311 142.522 483.636 140.466 485.158 136.828C485.217 136.688 485.394 136.668 485.46 136.805C486.088 138.12 486.926 142.181 486.71 144.304" stroke="#1844BF" stroke-linecap="round"/>
<path d="M513.216 146.987C512.374 148.503 510.463 149.049 508.947 148.207C507.431 147.365 506.883 145.453 507.727 143.937C508.52 142.509 510.192 141.595 511.521 142.877C511.687 143.037 511.887 143.158 512.108 143.22C514.015 143.766 514.013 145.553 513.216 146.987Z" stroke="#1844BF"/>
<path d="M521.779 147.059C521.826 148.793 520.458 150.235 518.723 150.282C516.991 150.329 515.547 148.961 515.502 147.227C515.457 145.594 516.434 143.957 518.23 144.383C518.453 144.438 518.686 144.438 518.909 144.381C520.83 143.879 521.736 145.418 521.779 147.059Z" stroke="#1844BF"/>
<path d="M512.078 143.105C513.076 142.522 515.401 140.466 516.923 136.828C516.981 136.688 517.159 136.668 517.225 136.805C517.852 138.12 518.69 142.181 518.474 144.304" stroke="#1844BF" stroke-linecap="round"/>
<path d="M544.786 146.987C543.944 148.503 542.032 149.049 540.516 148.207C539 147.365 538.453 145.453 539.296 143.937C540.089 142.509 541.761 141.595 543.091 142.877C543.256 143.037 543.457 143.158 543.677 143.22C545.585 143.766 545.583 145.553 544.786 146.987Z" stroke="#1844BF"/>
<path d="M553.349 147.059C553.395 148.793 552.027 150.235 550.293 150.282C548.561 150.329 547.117 148.961 547.072 147.227C547.027 145.594 548.003 143.957 549.8 144.383C550.022 144.438 550.256 144.438 550.478 144.381C552.4 143.879 553.306 145.418 553.349 147.059Z" stroke="#1844BF"/>
<path d="M543.648 143.105C544.646 142.522 546.97 140.466 548.492 136.828C548.551 136.688 548.728 136.668 548.794 136.805C549.422 138.12 550.26 142.181 550.044 144.304" stroke="#1844BF" stroke-linecap="round"/>
<path d="M517.796 199.079C518.412 198.66 519.004 198.171 519.561 197.613C522.535 194.641 523.552 190.639 522.313 187.788C522.155 187.425 522.196 187.008 522.342 186.642C522.572 186.067 522.525 185.479 522.161 185.114C521.797 184.75 521.208 184.703 520.635 184.933C520.267 185.079 519.85 185.12 519.487 184.962C516.636 183.723 512.634 184.742 509.662 187.714C506.69 190.686 505.671 194.688 506.91 197.539C507.068 197.902 507.027 198.319 506.881 198.687C506.828 198.818 506.791 198.948 506.768 199.079" stroke="#1844BF"/>
<path d="M486.033 199.079C486.649 198.66 487.242 198.171 487.799 197.613C490.773 194.641 491.79 190.639 490.55 187.788C490.393 187.425 490.434 187.008 490.58 186.642C490.81 186.067 490.763 185.479 490.398 185.114C490.034 184.75 489.446 184.703 488.873 184.933C488.504 185.079 488.087 185.12 487.725 184.962C484.874 183.723 480.871 184.742 477.899 187.714C474.927 190.686 473.908 194.688 475.148 197.539C475.305 197.902 475.265 198.319 475.118 198.687C475.066 198.818 475.027 198.948 475.005 199.079" stroke="#1844BF"/>
<path d="M549.367 199.079C549.983 198.66 550.576 198.171 551.133 197.613C554.107 194.641 555.124 190.639 553.885 187.788C553.727 187.425 553.768 187.008 553.914 186.642C554.144 186.067 554.097 185.479 553.733 185.114C553.368 184.75 552.78 184.703 552.207 184.933C551.838 185.079 551.421 185.12 551.059 184.962C548.208 183.723 544.205 184.742 541.233 187.714C538.261 190.686 537.242 194.688 538.482 197.539C538.64 197.902 538.599 198.319 538.452 198.687C538.4 198.818 538.361 198.948 538.339 199.079" stroke="#1844BF"/>
<path d="M528.027 134.949H501.134C500.596 134.949 500.16 135.386 500.16 135.924V198.089C500.16 198.627 500.596 199.063 501.134 199.063H528.027C528.565 199.063 529.001 198.627 529.001 198.089V135.924C529.001 135.386 528.565 134.949 528.027 134.949Z" stroke="#0C38B7"/>
<path d="M496.067 134.949H469.37C468.832 134.949 468.395 135.386 468.395 135.924V198.089C468.395 198.627 468.832 199.063 469.37 199.063H496.067C496.606 199.063 497.042 198.627 497.042 198.089V135.924C497.042 135.386 496.606 134.949 496.067 134.949Z" stroke="#0C38B7"/>
<path d="M559.791 134.949H532.899C532.36 134.949 531.924 135.386 531.924 135.924V198.089C531.924 198.627 532.36 199.063 532.899 199.063H559.791C560.329 199.063 560.766 198.627 560.766 198.089V135.924C560.766 135.386 560.329 134.949 559.791 134.949Z" stroke="#0C38B7"/>
<path d="M574.991 179.77H568.56C568.022 179.77 567.586 180.207 567.586 180.745V183.668C567.586 184.206 568.022 184.642 568.56 184.642H574.991C575.529 184.642 575.966 184.206 575.966 183.668V180.745C575.966 180.207 575.529 179.77 574.991 179.77Z" fill="white" stroke="#E2EBF4" stroke-linecap="round" stroke-linejoin="round"/>
<path d="M565.248 175.289H568.755C569.293 175.289 569.73 175.725 569.73 176.263V189.709C569.73 190.247 569.293 190.684 568.755 190.684H565.248V175.289Z" fill="white" stroke="#E2EBF4" stroke-linecap="round" stroke-linejoin="round"/>
<path d="M572.848 160.088C575.646 160.088 577.914 157.863 577.914 155.119C577.914 152.374 575.646 150.15 572.848 150.15C570.049 150.15 567.781 152.374 567.781 155.119C567.781 157.863 570.049 160.088 572.848 160.088Z" fill="white" stroke="#E2EBF4" stroke-linecap="round" stroke-linejoin="round"/>
<path d="M871.683 119.998H712.666C712.128 119.998 711.692 120.435 711.692 120.973V224.061C711.692 224.599 712.128 225.036 712.666 225.036H871.683C872.222 225.036 872.658 224.599 872.658 224.061V120.973C872.658 120.435 872.222 119.998 871.683 119.998Z" fill="#E2EBF4"/>
<path d="M832.709 103.142H728.451C727.859 103.142 727.379 103.622 727.379 104.214V206.523C727.379 207.115 727.859 207.595 728.451 207.595H832.709C833.3 207.595 833.78 207.115 833.78 206.523V104.214C833.78 103.622 833.3 103.142 832.709 103.142Z" stroke="#E2EBF4" stroke-dasharray="2.73 2.73"/>
<path d="M886.689 103.142H842.842C842.25 103.142 841.77 103.622 841.77 104.214V206.523C841.77 207.115 842.25 207.595 842.842 207.595H886.689C887.281 207.595 887.76 207.115 887.76 206.523V104.214C887.76 103.622 887.281 103.142 886.689 103.142Z" stroke="#E2EBF4"/>
<path d="M877.53 112.983H718.512C717.974 112.983 717.538 113.419 717.538 113.957V217.046C717.538 217.584 717.974 218.02 718.512 218.02H877.53C878.068 218.02 878.504 217.584 878.504 217.046V113.957C878.504 113.419 878.068 112.983 877.53 112.983Z" fill="white" stroke="#0C38B7"/>
<path d="M775.513 119.998L858.724 119.998C859.531 119.998 860.186 119.344 860.186 118.537C860.186 117.73 859.531 117.075 858.724 117.075L775.513 117.075C774.706 117.075 774.051 117.73 774.051 118.537C774.051 119.344 774.706 119.998 775.513 119.998Z" fill="#E2EBF4"/>
<path d="M722.702 119.998C723.509 119.998 724.164 119.344 724.164 118.537C724.164 117.73 723.509 117.075 722.702 117.075C721.895 117.075 721.241 117.73 721.241 118.537C721.241 119.344 721.895 119.998 722.702 119.998Z" fill="#E2EBF4"/>
<path d="M727.964 119.998C728.771 119.998 729.425 119.344 729.425 118.537C729.425 117.73 728.771 117.075 727.964 117.075C727.157 117.075 726.502 117.73 726.502 118.537C726.502 119.344 727.157 119.998 727.964 119.998Z" fill="#E2EBF4"/>
<path d="M733.03 119.998C733.838 119.998 734.492 119.344 734.492 118.537C734.492 117.73 733.838 117.075 733.03 117.075C732.223 117.075 731.569 117.73 731.569 118.537C731.569 119.344 732.223 119.998 733.03 119.998Z" fill="#E2EBF4"/>
<path d="M765.769 194.246C768.729 194.246 771.128 191.846 771.128 188.887C771.128 185.927 768.729 183.528 765.769 183.528C762.81 183.528 760.41 185.927 760.41 188.887C760.41 191.846 762.81 194.246 765.769 194.246Z" stroke="#0C38B7" stroke-linecap="round"/>
<path d="M756.22 136.758C753.261 136.758 750.861 134.358 750.861 131.399C750.861 128.439 753.261 126.04 756.22 126.04C759.18 126.04 761.58 128.439 761.58 131.399C761.58 134.358 759.18 136.758 756.22 136.758Z" stroke="#0C38B7" stroke-linecap="round"/>
<path d="M765.769 185.671C767.545 185.671 768.985 187.111 768.985 188.887C768.985 190.662 767.545 192.102 765.769 192.102C763.993 192.102 762.554 190.662 762.554 188.887C762.554 187.111 763.993 185.671 765.769 185.671Z" fill="#1844BF"/>
<path d="M756.22 128.183C754.445 128.183 753.005 129.623 753.005 131.399C753.005 133.175 754.445 134.614 756.22 134.614C757.996 134.614 759.436 133.175 759.436 131.399C759.436 129.623 757.996 128.183 756.22 128.183Z" fill="#1844BF"/>
<path d="M837.288 141.045C839.064 141.045 840.503 142.485 840.503 144.26C840.503 146.036 839.064 147.476 837.288 147.476C835.512 147.476 834.073 146.036 834.073 144.26C834.073 142.485 835.512 141.045 837.288 141.045Z" fill="#1844BF"/>
<path d="M849.175 171.445C850.951 171.445 852.391 172.885 852.391 174.661C852.391 176.437 850.951 177.876 849.175 177.876C847.4 177.876 845.96 176.437 845.96 174.661C845.96 172.885 847.4 171.445 849.175 171.445Z" fill="#1844BF"/>
<path d="M837.288 149.619C840.248 149.619 842.647 147.22 842.647 144.26C842.647 141.301 840.248 138.901 837.288 138.901C834.328 138.901 831.929 141.301 831.929 144.26C831.929 147.22 834.328 149.619 837.288 149.619Z" stroke="#0C38B7" stroke-linecap="round"/>
<path d="M849.175 180.02C852.135 180.02 854.534 177.62 854.534 174.661C854.534 171.701 852.135 169.302 849.175 169.302C846.216 169.302 843.816 171.701 843.816 174.661C843.816 177.62 846.216 180.02 849.175 180.02Z" stroke="#0C38B7" stroke-linecap="round"/>
<path d="M728.362 57.2327H731.157C730.955 58.8379 730.263 60.1639 729.084 61.2138C727.919 62.2486 726.461 62.7674 724.711 62.7674C722.759 62.7674 721.176 62.1181 719.958 60.8254C718.743 59.5176 718.134 57.9124 718.134 56.0068C718.134 54.0921 718.743 52.4808 719.958 51.173C721.176 49.8531 722.759 49.1916 724.711 49.1916C726.41 49.1916 727.842 49.7044 729.01 50.727C730.186 51.7496 730.89 53.0422 731.119 54.611H728.306C728.089 53.7948 727.658 53.1393 727.013 52.6478C726.377 52.1441 725.605 51.8983 724.693 51.9104C723.552 51.9225 722.631 52.3261 721.936 53.115C721.238 53.8918 720.891 54.8507 720.891 55.9886C720.891 57.1265 721.238 58.0914 721.936 58.8834C722.631 59.6724 723.564 60.0668 724.732 60.0668C725.656 60.0668 726.443 59.8089 727.087 59.29C727.747 58.7711 728.172 58.0854 728.362 57.2327ZM737.435 52.8237H739.431V55.4455H737.301C736.68 55.4455 736.175 55.6518 735.78 56.0675C735.388 56.4802 735.192 57.0173 735.192 57.6788V62.4943H732.625V52.8237H735.058V54.3379H735.153C735.521 53.3275 736.282 52.8237 737.435 52.8237ZM745.53 60.1639L747.85 52.8237H750.455L746.688 64.0662C746.436 64.8066 746.05 65.374 745.53 65.7775C745.01 66.1781 744.383 66.3784 743.646 66.3784H740.949V63.8143H743.572C743.825 63.8143 744.042 63.7567 744.217 63.6413L739.865 52.8237H742.678L745.53 60.1639ZM757.101 52.5325C758.432 52.5203 759.513 52.9967 760.351 53.9677C761.201 54.9387 761.625 56.1767 761.625 57.6788C761.625 59.1808 761.195 60.4097 760.333 61.3686C759.484 62.3123 758.411 62.7856 757.119 62.7856C756.447 62.7735 755.844 62.6248 755.313 62.3396C754.781 62.0544 754.362 61.6781 754.059 61.2138H753.964V66.3784H751.415V52.8237H753.964V54.0648H754.059C754.362 53.6127 754.781 53.2425 755.313 52.9603C755.856 52.675 756.453 52.5325 757.101 52.5325ZM754.665 59.5419C755.134 60.0486 755.743 60.3005 756.492 60.3005C757.238 60.3005 757.847 60.0547 758.316 59.5631C758.797 59.0564 759.038 58.4222 759.038 57.6575C759.038 56.8959 758.797 56.2678 758.316 55.7762C757.847 55.2695 757.238 55.0176 756.492 55.0176C755.755 55.0176 755.146 55.2695 754.665 55.7762C754.196 56.2799 753.964 56.908 753.964 57.6575C753.964 58.3979 754.196 59.026 754.665 59.5419ZM769.961 52.8237V55.3483H766.064V59.2111C766.064 59.4448 766.135 59.6268 766.275 59.7573C766.414 59.8848 766.596 59.9515 766.824 59.9515H769.961V62.4943H766.349C765.476 62.4943 764.777 62.2425 764.258 61.7357C763.752 61.2199 763.497 60.525 763.497 59.6602V55.3483H762.166V52.8237H763.497V49.4829H766.064V52.8237H769.961ZM779.515 61.3291C778.576 62.3002 777.347 62.7856 775.826 62.7856C774.305 62.7856 773.075 62.3002 772.136 61.3291C771.2 60.3581 770.731 59.1353 770.731 57.6575C770.731 56.195 771.2 54.9782 772.136 54.0072C773.075 53.024 774.305 52.5325 775.826 52.5325C777.347 52.5325 778.576 53.024 779.515 54.0072C780.451 54.9782 780.92 56.195 780.92 57.6575C780.92 59.1353 780.451 60.3581 779.515 61.3291ZM775.826 60.2428C776.562 60.2428 777.162 59.997 777.632 59.5024C778.113 58.9987 778.354 58.3828 778.354 57.6575C778.354 56.9202 778.119 56.3072 777.65 55.8126C777.183 55.3089 776.574 55.0571 775.826 55.0571C775.077 55.0571 774.471 55.3089 774.002 55.8126C773.532 56.3072 773.298 56.9202 773.298 57.6575C773.298 58.3979 773.532 59.0109 774.002 59.5024C774.471 59.997 775.077 60.2428 775.826 60.2428ZM725.662 72.878V71.637H728.21V82.2968C728.21 83.2314 727.955 83.9414 727.45 84.433C726.954 84.9397 726.244 85.1916 725.32 85.1916H719.236V82.5699H724.767C725.364 82.5699 725.662 82.2786 725.662 81.696V80.0271H725.566C725.263 80.4913 724.845 80.8676 724.313 81.1528C723.781 81.438 723.178 81.5867 722.507 81.5988C721.214 81.5988 720.136 81.1255 719.274 80.1818C718.425 79.2229 718 77.994 718 76.492C718 74.99 718.419 73.7519 719.254 72.7809C720.103 71.8099 721.194 71.3335 722.524 71.3457C723.184 71.3457 723.781 71.4883 724.313 71.7735C724.845 72.0557 725.263 72.4259 725.566 72.878H725.662ZM721.289 78.3763C721.77 78.8679 722.385 79.1137 723.133 79.1137C723.882 79.1137 724.491 78.8618 724.957 78.3551C725.427 77.8393 725.662 77.2111 725.662 76.4708C725.662 75.7213 725.421 75.0931 724.94 74.5894C724.47 74.0827 723.867 73.8308 723.133 73.8308C722.385 73.8308 721.77 74.0827 721.289 74.5894C720.819 75.081 720.584 75.7091 720.584 76.4708C720.584 77.2354 720.819 77.8696 721.289 78.3763ZM737.155 72.878V71.637H739.704V81.3076H737.155V80.0271H737.06C736.757 80.4913 736.338 80.8676 735.807 81.1528C735.272 81.438 734.672 81.5867 734 81.5988C732.705 81.5988 731.63 81.1255 730.768 80.1818C729.919 79.2229 729.494 77.994 729.494 76.492C729.494 74.99 729.913 73.7519 730.747 72.7809C731.597 71.8099 732.687 71.3335 734.018 71.3457C734.678 71.3457 735.272 71.4883 735.807 71.7735C736.338 72.0557 736.757 72.4259 737.06 72.878H737.155ZM732.782 78.3763C733.264 78.8679 733.879 79.1137 734.627 79.1137C735.373 79.1137 735.982 78.8618 736.451 78.3551C736.921 77.8393 737.155 77.2111 737.155 76.4708C737.155 75.7213 736.915 75.0931 736.433 74.5894C735.964 74.0827 735.361 73.8308 734.627 73.8308C733.879 73.8308 733.264 74.0827 732.782 74.5894C732.313 75.081 732.078 75.7091 732.078 76.4708C732.078 77.2354 732.313 77.8696 732.782 78.3763ZM748.795 71.637V74.1616H744.897V78.0244C744.897 78.258 744.968 78.4401 745.108 78.5705C745.248 78.698 745.429 78.7647 745.658 78.7647H748.795V81.3076H745.182C744.309 81.3076 743.611 81.0557 743.091 80.549C742.586 80.0331 742.33 79.3382 742.33 78.4734V74.1616H741V71.637H742.33V68.2961H744.897V71.637H748.795ZM754.508 71.3457C756.079 71.3457 757.321 71.9161 758.233 73.054C759.145 74.1919 759.513 75.6241 759.335 77.3446H752.187C752.265 77.8635 752.505 78.3035 752.909 78.6677C753.328 79.0166 753.854 79.2047 754.487 79.229C754.932 79.2563 755.342 79.1774 755.723 78.9954C756.118 78.8012 756.397 78.5493 756.56 78.2398H759.24C758.937 79.3018 758.355 80.1302 757.493 80.7249C756.632 81.3075 755.627 81.5988 754.487 81.5988C752.954 81.5988 751.751 81.1073 750.874 80.1241C750.001 79.1258 749.564 77.9091 749.564 76.4708C749.564 75.0234 750.028 73.8035 750.952 72.8204C751.89 71.8372 753.076 71.3457 754.508 71.3457ZM755.913 74.1221C755.521 73.8369 755.045 73.6943 754.487 73.6943C753.931 73.6943 753.441 73.843 753.025 74.1403C752.618 74.4256 752.345 74.814 752.205 75.3055H756.733C756.593 74.8018 756.32 74.4073 755.913 74.1221ZM769.738 77.6754L771.45 71.637H774.111L771.09 81.3076H768.636L766.792 75.1508L764.929 81.3076H762.475L759.454 71.637H762.116L763.865 77.6754L765.633 71.637H767.932L769.738 77.6754ZM781.883 72.878V71.637H784.432V81.3076H781.883V80.0271H781.788C781.485 80.4913 781.066 80.8676 780.534 81.1528C780.002 81.438 779.399 81.5867 778.728 81.5988C777.436 81.5988 776.357 81.1255 775.496 80.1818C774.646 79.2229 774.221 77.994 774.221 76.492C774.221 74.99 774.64 73.7519 775.475 72.7809C776.325 71.8099 777.415 71.3335 778.746 71.3457C779.405 71.3457 780.002 71.4883 780.534 71.7735C781.066 72.0557 781.485 72.4259 781.788 72.878H781.883ZM777.51 78.3763C777.991 78.8679 778.606 79.1137 779.355 79.1137C780.103 79.1137 780.712 78.8618 781.179 78.3551C781.648 77.8393 781.883 77.2111 781.883 76.4708C781.883 75.7213 781.642 75.0931 781.161 74.5894C780.692 74.0827 780.089 73.8308 779.355 73.8308C778.606 73.8308 777.991 74.0827 777.51 74.5894C777.041 75.081 776.806 75.7091 776.806 76.4708C776.806 77.2354 777.041 77.8696 777.51 78.3763ZM791.074 78.9771L793.395 71.637H796L792.236 82.8794C791.981 83.6198 791.594 84.1872 791.074 84.5907C790.555 84.9913 789.928 85.1916 789.194 85.1916H786.494V82.6275H789.117C789.369 82.6275 789.586 82.5699 789.764 82.4546L785.409 71.637H788.223L791.074 78.9771Z" fill="#1844BF"/>
<path d="M717.733 161.604H772.674C772.933 161.604 773.18 161.501 773.362 161.32L790.039 144.642C790.22 144.461 790.468 144.358 790.727 144.358H831.832" stroke="#0C38B7" stroke-linecap="round"/>
<path d="M878.309 174.758H854.729M717.635 174.758H805.719H822.965H843.622" stroke="#0C38B7" stroke-linecap="round"/>
<path d="M842.842 144.358H878.406" stroke="#0C38B7" stroke-linecap="round"/>
<path d="M771.323 188.984H798.787C799.046 188.984 799.294 189.087 799.475 189.269L816.152 205.946C816.333 206.127 816.581 206.23 816.84 206.23H878.407" stroke="#0C38B7" stroke-linecap="round"/>
<path d="M750.667 131.496H717.441" stroke="#0C38B7" stroke-linecap="round"/>
<path d="M717.733 188.984H760.313" stroke="#0C38B7" stroke-linecap="round"/>
<path d="M877.042 131.496H761.677" stroke="#0C38B7" stroke-linecap="round"/>
<path d="M722.266 155.466C729.873 155.466 736.041 149.358 736.041 141.825C736.041 134.291 729.873 128.183 722.266 128.183C714.658 128.183 708.491 134.291 708.491 141.825C708.491 149.358 714.658 155.466 722.266 155.466Z" fill="#F18721"/>
<path d="M725.61 128.183H722.133V155.466H725.61V128.183Z" fill="#F18721"/>
<path d="M725.477 155.466C733.085 155.466 739.252 149.358 739.252 141.825C739.252 134.291 733.085 128.183 725.477 128.183C717.869 128.183 711.702 134.291 711.702 141.825C711.702 149.358 717.869 155.466 725.477 155.466Z" fill="#FF952F"/>
<path fill-rule="evenodd" clip-rule="evenodd" d="M724.438 140.714C725.391 140.751 727.816 140.844 727.812 138.995C727.802 137.228 725.816 137.261 724.729 137.28C724.563 137.284 724.415 137.288 724.298 137.28L724.296 140.71C724.341 140.712 724.384 140.714 724.438 140.714ZM726.954 132.467L726.958 135.296C728.891 135.485 730.433 136.156 730.608 138.2C730.731 139.704 730.183 140.572 729.316 141.123C730.77 141.503 731.672 142.501 731.466 144.683C731.265 147.4 729.484 148.139 726.987 148.312L726.985 151.175L725.477 151.171L725.475 148.355C725.232 148.347 724.988 148.347 724.731 148.345C724.583 148.343 724.435 148.343 724.279 148.341L724.286 151.186H722.782V148.322C722.501 148.328 722.219 148.328 721.93 148.324C721.852 148.324 721.775 148.322 721.702 148.32H719.756L720.046 146.268C720.046 146.268 721.157 146.274 721.141 146.262C721.531 146.227 721.677 145.901 721.697 145.675L721.683 137.927C721.626 137.549 721.435 137.165 720.822 137.173C720.843 137.152 719.726 137.177 719.726 137.177L719.734 135.333L721.802 135.327C721.981 135.331 722.17 135.326 722.361 135.324C722.494 135.32 722.626 135.318 722.757 135.318L722.755 132.502L724.242 132.48L724.249 135.261C724.655 135.236 725.048 135.23 725.45 135.228L725.454 132.504L726.952 132.463L726.954 132.467ZM724.314 142.47L724.323 146.258C724.396 146.258 724.481 146.258 724.579 146.26C725.787 146.279 728.521 146.328 728.519 144.346C728.523 142.323 725.906 142.413 724.659 142.46C724.528 142.466 724.409 142.468 724.314 142.47Z" fill="white"/>
<path d="M743.554 112.155C747.724 103.968 752.839 99.1472 758.364 99.1472C772.409 99.1472 783.795 130.294 783.795 168.717C783.795 207.141 772.409 238.287 758.364 238.287C751.657 238.287 745.557 231.184 741.013 219.579" stroke="#FF952F"/>
<path d="M748.92 112.155C753.091 103.968 758.204 99.1472 763.731 99.1472C777.775 99.1472 789.162 130.294 789.162 168.717C789.162 207.141 777.775 238.287 763.731 238.287C757.023 238.287 750.924 231.184 746.379 219.579" stroke="#FF952F"/>
<path d="M790.429 112.155C794.599 103.968 799.712 99.1472 805.239 99.1472C819.284 99.1472 830.67 130.294 830.67 168.717C830.67 207.141 819.284 238.287 805.239 238.287C798.532 238.287 792.432 231.184 787.888 219.579" stroke="#FF952F"/>
<path d="M831.756 112.155C835.928 103.968 841.041 99.1472 846.566 99.1472C860.613 99.1472 871.997 130.294 871.997 168.717C871.997 207.141 860.613 238.287 846.566 238.287C839.86 238.287 833.759 231.184 829.216 219.579" stroke="#FF952F"/>
<path d="M784.972 112.155C789.143 103.968 794.256 99.1472 799.783 99.1472C813.827 99.1472 825.214 130.294 825.214 168.717C825.214 207.141 813.827 238.287 799.783 238.287C793.075 238.287 786.975 231.184 782.431 219.579" stroke="#FF952F"/>
<path d="M826.391 112.155C830.561 103.968 835.675 99.1472 841.201 99.1472C855.246 99.1472 866.632 130.294 866.632 168.717C866.632 207.141 855.246 238.287 841.201 238.287C834.494 238.287 828.394 231.184 823.85 219.579" stroke="#FF952F"/>
<path d="M796.598 227.674C803.801 227.674 809.639 221.892 809.639 214.76C809.639 207.628 803.801 201.846 796.598 201.846C789.396 201.846 783.558 207.628 783.558 214.76C783.558 221.892 789.396 227.674 796.598 227.674Z" fill="#0C38B7"/>
<path d="M799.764 201.846H796.472V227.674H799.764V201.846Z" fill="#0C38B7"/>
<path d="M799.638 227.674C806.841 227.674 812.679 221.892 812.679 214.76C812.679 207.628 806.841 201.846 799.638 201.846C792.436 201.846 786.598 207.628 786.598 214.76C786.598 221.892 792.436 227.674 799.638 227.674Z" fill="#1844BF"/>
<path d="M799.668 205.182L804.031 214.129L799.668 216.726L795.302 214.129L799.668 205.182Z" fill="white"/>
<path d="M799.668 223.483L795.304 216.163L799.668 218.603L804.031 216.163L799.668 223.483Z" fill="white"/>
<path d="M880.003 138.371C886.104 138.371 891.05 133.473 891.05 127.431C891.05 121.389 886.104 116.491 880.003 116.491C873.901 116.491 868.955 121.389 868.955 127.431C868.955 133.473 873.901 138.371 880.003 138.371Z" fill="#CAD8E5"/>
<path d="M882.577 138.371C888.678 138.371 893.624 133.473 893.624 127.431C893.624 121.389 888.678 116.491 882.577 116.491C876.476 116.491 871.529 121.389 871.529 127.431C871.529 133.473 876.476 138.371 882.577 138.371Z" fill="#E2EBF4"/>
<path fill-rule="evenodd" clip-rule="evenodd" d="M883.586 125.925L883.576 124.467L886.659 124.444L886.644 122.22L878.253 122.283L878.268 124.506L881.351 124.483L881.361 125.938C878.857 126.083 876.976 126.632 876.98 127.275C876.984 127.92 878.872 128.442 881.376 128.548L881.41 133.217L883.639 133.201L883.606 128.53C886.104 128.388 887.983 127.836 887.977 127.195C887.973 126.552 886.09 126.03 883.588 125.923L883.586 125.925ZM883.6 128.137C883.539 128.14 883.218 128.164 882.495 128.17C881.92 128.172 881.515 128.156 881.373 128.152C879.159 128.064 877.502 127.661 877.5 127.16C877.496 126.659 879.147 126.233 881.359 126.11L881.369 127.737C881.515 127.747 881.93 127.77 882.503 127.766C883.191 127.76 883.534 127.727 883.598 127.721L883.586 126.094C885.794 126.184 887.447 126.589 887.451 127.088C887.455 127.585 885.808 128.014 883.6 128.137Z" fill="#1844BF"/>
</svg>
