<svg viewBox="0 0 165 383" fill="none" xmlns="http://www.w3.org/2000/svg">
<path d="M94.0566 38.1035L94.0566 118.472" stroke="#0C38B7"/>
<path d="M93.0083 38.1035L93.0083 118.472" stroke="#1844BF" stroke-dasharray="4.87 4.87"/>
<path d="M84.6221 127.951C84.6221 133.185 88.8656 137.429 94.1003 137.429C99.335 137.429 103.579 133.185 103.579 127.951C103.579 122.716 99.335 118.472 94.1003 118.472C88.8656 118.472 84.6221 122.716 84.6221 127.951Z" fill="#1844BF"/>
<path d="M94.0566 137.167L94.0566 193.862" stroke="#0C38B7"/>
<path d="M93.0078 137.167L93.0078 193.862" stroke="#1844BF" stroke-dasharray="4.87 4.87"/>
<path d="M94.0485 97.3394L97.0264 94.3616L94.0485 91.3837L91.0707 94.3616L94.0485 97.3394Z" fill="#0C38B7"/>
<path d="M96.1548 168.719L96.1548 164.508L91.9435 164.508L91.9435 168.719L96.1548 168.719Z" fill="#0C38B7"/>
<path d="M94.0999 134.551C97.8388 134.551 100.87 131.533 100.87 127.811C100.87 124.088 97.8388 121.07 94.0999 121.07C90.361 121.07 87.3297 124.088 87.3297 127.811" stroke="white" stroke-linecap="round" stroke-linejoin="round"/>
<path d="M94.0703 134.551C90.348 134.551 87.3298 131.533 87.3298 127.811" stroke="white" stroke-linecap="round" stroke-linejoin="round" stroke-dasharray="2.92 2.92"/>
<path d="M91.1733 127.354L93.4796 129.567L96.9389 126.247" stroke="white" stroke-linecap="round" stroke-linejoin="round"/>
<path d="M99.7346 127.819C99.7346 128.495 100.263 129.042 100.914 129.042C101.565 129.042 102.093 128.495 102.093 127.819C102.093 127.144 101.565 126.596 100.914 126.596C100.263 126.596 99.7346 127.144 99.7346 127.819Z" fill="white"/>
<path d="M98.6862 123.539C98.6862 123.925 98.9796 124.238 99.3414 124.238C99.7032 124.238 99.9966 123.925 99.9966 123.539C99.9966 123.153 99.7032 122.84 99.3414 122.84C98.9796 122.84 98.6862 123.153 98.6862 123.539Z" fill="white"/>
<path d="M94.1001 143.5C85.7077 143.5 78.8999 136.56 78.8999 127.994C78.8999 119.428 85.7077 112.488 94.1001 112.488C102.493 112.488 109.3 119.428 109.3 127.994C109.3 136.56 102.493 143.5 94.1001 143.5Z" stroke="#FF952F"/>
<path d="M88.029 123.277C88.029 123.904 88.5178 124.413 89.1209 124.413C89.724 124.413 90.2129 123.904 90.2129 123.277C90.2129 122.65 89.724 122.141 89.1209 122.141C88.5178 122.141 88.029 122.65 88.029 123.277Z" fill="white"/>
<path d="M94.0489 73.5915L95.8359 71.8044L94.0489 70.0174L92.2619 71.8045L94.0489 73.5915Z" fill="#0C38B7"/>
<path d="M94.9043 241.173L94.9043 295.684" stroke="#0C38B7"/>
<path d="M93.856 241.173L93.856 295.684" stroke="#1844BF" stroke-dasharray="4.87 4.87"/>
<path d="M93.2444 260.915C93.2444 261.832 94.0071 262.575 94.9479 262.575C95.8887 262.575 96.6514 261.832 96.6514 260.915C96.6514 259.999 95.8887 259.256 94.9479 259.256C94.0071 259.256 93.2444 259.999 93.2444 260.915Z" fill="#1844BF"/>
<path d="M94.118 267.991C94.118 268.426 94.4896 268.778 94.9479 268.778C95.4063 268.778 95.7778 268.426 95.7778 267.991C95.7778 267.557 95.4063 267.205 94.9479 267.205C94.4896 267.205 94.118 267.557 94.118 267.991Z" fill="#1844BF"/>
<path d="M122.073 262.75C122.073 263.667 122.835 264.41 123.776 264.41C124.717 264.41 125.479 263.667 125.479 262.75C125.479 261.833 124.717 261.09 123.776 261.09C122.835 261.09 122.073 261.833 122.073 262.75Z" fill="white"/>
<path d="M50.6883 363.961C48.8839 357.227 41.9622 353.23 35.2281 355.035C28.4941 356.839 24.4979 363.761 26.3022 370.495C28.1066 377.229 35.0283 381.225 41.7624 379.421C48.4964 377.617 52.4926 370.695 50.6883 363.961Z" fill="#1844BF"/>
<path d="M90.1079 317.782L39.0038 317.782C38.7627 317.782 38.567 317.978 38.567 318.219L38.567 355.433" stroke="#0C38B7"/>
<path d="M89.7583 319.878L36.9071 319.878C36.666 319.878 36.4703 320.074 36.4703 320.315L36.4703 357.355" stroke="#1844BF" stroke-dasharray="4.87 4.87"/>
<path d="M41.0132 321.965L41.0132 316.035L35.0831 316.035L35.0831 321.965L41.0132 321.965Z" fill="#1844BF"/>
<path d="M39.2661 320.299L39.2661 317.782L36.7488 317.782L36.7488 320.299L39.2661 320.299Z" fill="white"/>
<path d="M49.8364 368.521L49.8364 366.003L47.3191 366.003L47.3191 368.521L49.8364 368.521Z" fill="white"/>
<path d="M48.1525 364.615C46.729 359.303 41.2682 356.15 35.9556 357.574C30.6429 358.997 27.4902 364.458 28.9137 369.77C30.3372 375.083 35.798 378.236 41.1106 376.812C46.4233 375.389 49.576 369.928 48.1525 364.615Z" stroke="white" stroke-linecap="round" stroke-linejoin="round"/>
<path d="M34.8012 375.664C34.6513 375.105 34.0765 374.773 33.5173 374.923C32.9581 375.073 32.6262 375.648 32.776 376.207C32.9259 376.766 33.5007 377.098 34.0599 376.948C34.6192 376.798 34.951 376.224 34.8012 375.664Z" fill="white"/>
<path d="M35.954 357.822C35.7168 356.937 34.7878 356.417 33.879 356.66C32.9703 356.904 32.4259 357.819 32.6632 358.704C32.9004 359.59 33.8295 360.11 34.7382 359.866C35.6469 359.623 36.1913 358.708 35.954 357.822Z" fill="#1844BF" stroke="white"/>
<path d="M39.375 367.076C40.9671 367.076 42.2578 365.786 42.2578 364.193C42.2578 362.601 40.9671 361.311 39.375 361.311C37.7829 361.311 36.4922 362.601 36.4922 364.193C36.4922 365.786 37.7829 367.076 39.375 367.076Z" stroke="white"/>
<path d="M43.8949 371.117C44.0845 371.571 44.2024 372.049 44.247 372.537C44.2688 372.777 44.0714 372.973 43.8303 372.973H39.375H34.9198C34.6787 372.973 34.4813 372.777 34.5031 372.537C34.5477 372.049 34.6656 371.571 34.8552 371.117C35.1015 370.529 35.4614 369.995 35.9157 369.545C36.3699 369.094 36.9098 368.737 37.503 368.493C38.0961 368.25 38.733 368.125 39.375 368.125C40.0171 368.125 40.654 368.25 41.2471 368.493C41.8403 368.737 42.3801 369.094 42.8344 369.545C43.2887 369.995 43.6486 370.529 43.8949 371.117Z" stroke="white"/>
<path d="M4.38765 367.386H5.58684C5.50018 368.092 5.20326 368.675 4.69734 369.137C4.19779 369.592 3.57205 369.82 2.82145 369.82C1.9842 369.82 1.30496 369.534 0.782475 368.966C0.261261 368.391 0 367.685 0 366.847C0 366.006 0.261261 365.297 0.782475 364.722C1.30496 364.142 1.9842 363.851 2.82145 363.851C3.55039 363.851 4.16466 364.076 4.66548 364.526C5.17013 364.976 5.4721 365.544 5.57023 366.234H4.36344C4.27041 365.875 4.08562 365.587 3.80908 365.37C3.53637 365.149 3.20503 365.041 2.8138 365.046C2.32444 365.052 1.92942 365.229 1.63122 365.576C1.33174 365.917 1.18264 366.339 1.18264 366.839C1.18264 367.34 1.33174 367.764 1.63122 368.112C1.92942 368.459 2.32953 368.632 2.83035 368.632C3.22668 368.632 3.56441 368.519 3.84094 368.291C4.12385 368.063 4.30609 367.761 4.38765 367.386ZM6.1832 368.47V363.552H7.28427V368.266C7.28427 368.476 7.3926 368.582 7.61051 368.582H8.15722V369.7H7.39895C7.01282 369.7 6.71334 369.592 6.50179 369.376C6.28897 369.159 6.1832 368.858 6.1832 368.47ZM8.69372 363.552H9.79478V364.901H8.69372V363.552ZM8.69372 365.448H9.79478V369.7H8.69372V365.448ZM12.5054 365.32C13.1795 365.32 13.7122 365.571 14.1034 366.071C14.4946 366.571 14.6526 367.201 14.5762 367.957H11.5101C11.5419 368.186 11.6451 368.379 11.8197 368.539C11.9994 368.693 12.225 368.775 12.4964 368.786C12.6875 368.798 12.8634 368.763 13.0265 368.683C13.1948 368.598 13.3145 368.487 13.3859 368.351H14.5354C14.4054 368.818 14.1557 369.182 13.7848 369.444C13.4153 369.7 12.9857 369.828 12.4964 369.828C11.8388 369.828 11.3227 369.612 10.9468 369.179C10.5721 368.741 10.3848 368.206 10.3848 367.573C10.3848 366.937 10.5823 366.4 10.9799 365.968C11.3826 365.536 11.8898 365.32 12.5054 365.32ZM13.1081 366.541C12.9399 366.415 12.736 366.352 12.4964 366.352C12.2568 366.352 12.0479 366.418 11.8682 366.549C11.6949 366.674 11.5776 366.845 11.5177 367.061H13.4586C13.3987 366.839 13.2827 366.666 13.1081 366.541ZM17.5021 365.328C18.0017 365.328 18.3954 365.496 18.6847 365.832C18.9727 366.168 19.1167 366.638 19.1167 367.241V369.7H18.0157V367.412C18.0157 367.116 17.9367 366.882 17.7786 366.711C17.6206 366.541 17.4231 366.455 17.1835 366.455C16.9274 366.455 16.7107 366.553 16.531 366.746C16.3514 366.933 16.2622 367.184 16.2622 367.497V369.7H15.1611V365.448H16.229V365.96H16.2698C16.5578 365.539 16.9682 365.328 17.5021 365.328ZM22.8621 365.448V366.558H21.1901V368.256C21.1901 368.359 21.2194 368.439 21.2793 368.496C21.3392 368.552 21.4182 368.582 21.5164 368.582H22.8621V369.7H21.3124C20.9378 369.7 20.6383 369.589 20.4153 369.366C20.1974 369.139 20.089 368.834 20.089 368.454V366.558H19.5181V365.448H20.089V363.979H21.1901V365.448H22.8621Z" fill="#1844BF"/>
<path d="M83.379 317.782L149.596 317.782C149.837 317.782 150.033 317.978 150.033 318.219L150.033 355.433" stroke="#0C38B7"/>
<path d="M83.3791 319.879L151.693 319.879C151.934 319.879 152.129 320.074 152.129 320.315L152.129 357.355" stroke="#1844BF" stroke-dasharray="4.87 4.87"/>
<path d="M153.876 321.965L153.876 316.035L147.946 316.035L147.946 321.965L153.876 321.965Z" fill="#1844BF"/>
<path d="M152.17 320.258L152.17 317.741L149.653 317.741L149.653 320.258L152.17 320.258Z" fill="white"/>
<path d="M139.725 367.183C139.725 374.154 145.376 379.806 152.348 379.806C159.32 379.806 164.971 374.154 164.971 367.183C164.971 360.211 159.32 354.559 152.348 354.559C145.376 354.559 139.725 360.211 139.725 367.183Z" fill="#1844BF"/>
<path d="M142.776 367.226C142.776 372.63 147.079 377.01 152.388 377.01C157.697 377.01 162 372.63 162 367.226C162 361.823 157.697 357.442 152.388 357.442C147.079 357.442 142.776 361.823 142.776 367.226Z" stroke="white" stroke-linecap="round" stroke-linejoin="round"/>
<path d="M161.04 367.226C161.04 367.805 161.509 368.275 162.088 368.275C162.667 368.275 163.136 367.805 163.136 367.226C163.136 366.647 162.667 366.178 162.088 366.178C161.509 366.178 161.04 366.647 161.04 367.226Z" fill="white"/>
<path d="M150.644 357.18C150.644 358.097 151.407 358.84 152.348 358.84C153.289 358.84 154.051 358.097 154.051 357.18C154.051 356.263 153.289 355.52 152.348 355.52C151.407 355.52 150.644 356.263 150.644 357.18Z" fill="white"/>
<path d="M145.054 375.438C145.054 376.355 145.816 377.098 146.757 377.098C147.698 377.098 148.46 376.355 148.46 375.438C148.46 374.521 147.698 373.778 146.757 373.778C145.816 373.778 145.054 374.521 145.054 375.438Z" fill="#1844BF" stroke="white"/>
<path d="M152.356 367.076C153.949 367.076 155.239 365.786 155.239 364.193C155.239 362.601 153.949 361.311 152.356 361.311C150.764 361.311 149.474 362.601 149.474 364.193C149.474 365.786 150.764 367.076 152.356 367.076Z" stroke="white"/>
<path d="M156.876 371.117C157.066 371.571 157.184 372.049 157.228 372.537C157.25 372.777 157.053 372.973 156.812 372.973H152.356H147.901C147.66 372.973 147.463 372.777 147.485 372.537C147.529 372.049 147.647 371.571 147.837 371.117C148.083 370.529 148.443 369.995 148.897 369.545C149.351 369.094 149.891 368.737 150.484 368.494C151.078 368.25 151.714 368.125 152.356 368.125C152.999 368.125 153.635 368.25 154.229 368.494C154.822 368.737 155.362 369.094 155.816 369.545C156.27 369.995 156.63 370.529 156.876 371.117Z" stroke="white"/>
<path d="M118.354 367.735H119.459C119.379 368.34 119.106 368.84 118.639 369.235C118.179 369.625 117.602 369.821 116.911 369.821C116.139 369.821 115.513 369.577 115.032 369.089C114.551 368.596 114.311 367.991 114.311 367.274C114.311 366.552 114.551 365.944 115.032 365.451C115.513 364.954 116.139 364.705 116.911 364.705C117.582 364.705 118.149 364.897 118.61 365.283C119.075 365.668 119.353 366.156 119.444 366.747H118.332C118.246 366.439 118.076 366.193 117.821 366.008C117.57 365.817 117.264 365.724 116.904 365.729C116.453 365.734 116.089 365.885 115.814 366.183C115.538 366.476 115.4 366.837 115.4 367.266C115.4 367.696 115.538 368.059 115.814 368.357C116.089 368.655 116.457 368.803 116.919 368.803C117.284 368.803 117.595 368.706 117.85 368.511C118.111 368.315 118.279 368.057 118.354 367.735ZM120.009 368.664V364.449H121.023V368.489C121.023 368.669 121.123 368.759 121.324 368.759H121.828V369.718H121.129C120.773 369.718 120.497 369.625 120.302 369.44C120.106 369.255 120.009 368.996 120.009 368.664ZM122.322 364.449H123.337V365.605H122.322V364.449ZM122.322 366.073H123.337V369.718H122.322V366.073ZM125.835 365.964C126.456 365.964 126.947 366.178 127.308 366.608C127.668 367.037 127.814 367.576 127.744 368.225H124.918C124.947 368.42 125.042 368.586 125.203 368.723C125.369 368.855 125.577 368.925 125.827 368.935C126.003 368.945 126.165 368.915 126.315 368.847C126.47 368.774 126.581 368.679 126.647 368.562H127.706C127.586 368.962 127.356 369.274 127.014 369.499C126.674 369.718 126.278 369.828 125.827 369.828C125.221 369.828 124.745 369.643 124.399 369.272C124.054 368.896 123.881 368.437 123.881 367.896C123.881 367.349 124.063 366.891 124.429 366.52C124.8 366.149 125.268 365.964 125.835 365.964ZM126.391 367.01C126.236 366.903 126.048 366.849 125.827 366.849C125.606 366.849 125.413 366.905 125.248 367.018C125.088 367.125 124.98 367.271 124.925 367.457H126.714C126.658 367.266 126.551 367.118 126.391 367.01ZM130.44 365.971C130.9 365.971 131.263 366.115 131.53 366.403C131.795 366.691 131.928 367.093 131.928 367.61V369.718H130.913V367.757C130.913 367.503 130.84 367.303 130.695 367.157C130.549 367.01 130.367 366.937 130.146 366.937C129.91 366.937 129.711 367.02 129.545 367.186C129.379 367.347 129.297 367.561 129.297 367.83V369.718H128.283V366.073H129.267V366.513H129.304C129.57 366.151 129.948 365.971 130.44 365.971ZM135.38 366.073V367.025H133.839V368.481C133.839 368.569 133.866 368.637 133.921 368.686C133.976 368.735 134.049 368.759 134.139 368.759H135.38V369.718H133.951C133.606 369.718 133.33 369.623 133.125 369.433C132.924 369.238 132.824 368.977 132.824 368.65V367.025H132.298V366.073H132.824V364.815H133.839V366.073H135.38Z" fill="#1844BF"/>
<path d="M120.552 18.2043H84.1238C83.8826 18.2043 83.687 18.3999 83.687 18.6411V63.6302C83.687 63.8714 83.8826 64.067 84.1238 64.067H120.552C120.793 64.067 120.989 63.8714 120.989 63.6302V18.6411C120.989 18.3999 120.793 18.2043 120.552 18.2043Z" stroke="#FF952F"/>
<path d="M106.837 35.8071H60.8867C60.6214 35.8071 60.4062 36.0222 60.4062 36.2876V79.1801C60.4062 79.4454 60.6214 79.6605 60.8867 79.6605H106.837C107.102 79.6605 107.317 79.4454 107.317 79.1801V36.2876C107.317 36.0222 107.102 35.8071 106.837 35.8071Z" stroke="#E2EBF4" stroke-dasharray="2.73 2.73"/>
<path d="M65.7634 79.2378C72.125 79.2378 77.2822 74.1439 77.2822 67.8603C77.2822 61.5768 72.125 56.4829 65.7634 56.4829C59.4018 56.4829 54.2446 61.5768 54.2446 67.8603C54.2446 74.1439 59.4018 79.2378 65.7634 79.2378Z" fill="#FF952F"/>
<path d="M65.7638 73.7256C69.0032 73.7256 71.6292 71.0996 71.6292 67.8602C71.6292 64.6209 69.0032 61.9949 65.7638 61.9949C62.5244 61.9949 59.8984 64.6209 59.8984 67.8602C59.8984 71.0996 62.5244 73.7256 65.7638 73.7256Z" stroke="white"/>
<path d="M55.5171 67.8601C55.5171 66.0868 55.9906 64.344 56.8899 62.8074L59.552 64.323C58.9225 65.3984 58.5911 66.6188 58.5911 67.8601H55.5171Z" fill="white"/>
<path d="M60.6401 58.9865C62.1763 58.0999 63.9222 57.6386 65.7023 57.6491L65.7207 60.7127C64.4746 60.7049 63.2525 61.0281 62.1771 61.6483L60.6401 58.9865Z" fill="white"/>
<path d="M70.8871 58.9863C72.4228 59.873 73.6956 61.1545 74.5762 62.7016L71.9328 64.2487C71.316 63.1664 70.425 62.2692 69.3496 61.6481L70.8871 58.9863Z" fill="white"/>
<path d="M76.0106 67.8601C76.0106 69.6343 75.5372 71.3771 74.6374 72.9129L71.9756 71.3972C72.6046 70.3218 72.9365 69.1023 72.9365 67.8601H76.0106Z" fill="white"/>
<path d="M70.8869 76.734C69.3503 77.6216 67.6046 78.0828 65.8245 78.0715L65.8062 75.0087C67.0522 75.0157 68.2744 74.6934 69.3495 74.0723L70.8869 76.734Z" fill="white"/>
<path d="M60.6401 76.7341C59.1039 75.8474 57.8314 74.5659 56.9507 73.0188L59.5945 71.4717C60.211 72.554 61.1017 73.4512 62.177 74.0723L60.6401 76.7341Z" fill="white"/>
<path d="M114.684 41.4118C121.045 41.4118 126.203 36.318 126.203 30.0344C126.203 23.7508 121.045 18.657 114.684 18.657C108.322 18.657 103.165 23.7508 103.165 30.0344C103.165 36.318 108.322 41.4118 114.684 41.4118Z" fill="#1844BF"/>
<path d="M114.684 35.8997C117.923 35.8997 120.549 33.2737 120.549 30.0343C120.549 26.795 117.923 24.1689 114.684 24.1689C111.444 24.1689 108.818 26.795 108.818 30.0343C108.818 33.2737 111.444 35.8997 114.684 35.8997Z" stroke="white"/>
<path d="M104.437 30.0344C104.437 28.2611 104.91 26.5183 105.81 24.9817L108.472 26.4973C107.843 27.5727 107.511 28.7931 107.511 30.0344H104.437Z" fill="white"/>
<path d="M109.561 21.1606C111.097 20.2739 112.843 19.8127 114.623 19.8232L114.641 22.8868C113.396 22.8789 112.173 23.2022 111.098 23.8224L109.561 21.1606Z" fill="white"/>
<path d="M119.807 21.1606C121.343 22.0473 122.616 23.3289 123.496 24.876L120.853 26.4231C120.236 25.3407 119.345 24.4435 118.27 23.8224L119.807 21.1606Z" fill="white"/>
<path d="M124.931 30.0344C124.931 31.8087 124.457 33.5514 123.557 35.0872L120.896 33.5715C121.524 32.4962 121.856 31.2766 121.856 30.0344H124.931Z" fill="white"/>
<path d="M119.807 38.9084C118.271 39.7959 116.525 40.2572 114.745 40.2458L114.727 37.1831C115.972 37.19 117.194 36.8677 118.27 36.2466L119.807 38.9084Z" fill="white"/>
<path d="M109.56 38.9082C108.024 38.0215 106.752 36.7399 105.871 35.1928L108.515 33.6458C109.131 34.7281 110.022 35.6253 111.098 36.2464L109.56 38.9082Z" fill="white"/>
<path d="M68.4868 27.814V87.3043H115.572V27.814C115.572 24.9189 113.226 22.5725 110.331 22.5725H73.7283C70.8332 22.5725 68.4868 24.9189 68.4868 27.814Z" fill="white" stroke="#0C38B7"/>
<path d="M71.8062 67.5615H112.34C112.581 67.5615 112.777 67.366 112.777 67.1247V60.2235C112.777 59.9823 112.581 59.7867 112.34 59.7867L71.8062 59.7867C71.565 59.7867 71.3694 59.9823 71.3694 60.2235V67.1247C71.3694 67.366 71.565 67.5615 71.8062 67.5615Z" fill="white" stroke="#E2EBF4" stroke-linecap="round" stroke-linejoin="round"/>
<path d="M107.885 27.4644H112.34C112.581 27.4644 112.777 27.2688 112.777 27.0276V26.7655C112.777 26.5243 112.581 26.3287 112.34 26.3287H107.885C107.644 26.3287 107.448 26.5243 107.448 26.7655V27.0276C107.448 27.2688 107.644 27.4644 107.885 27.4644Z" fill="white" stroke="#E2EBF4" stroke-linecap="round" stroke-linejoin="round"/>
<path d="M107.885 29.2988H112.34C112.581 29.2988 112.777 29.1033 112.777 28.862V28.6C112.777 28.3587 112.581 28.1632 112.34 28.1632H107.885C107.644 28.1632 107.448 28.3587 107.448 28.6V28.862C107.448 29.1033 107.644 29.2988 107.885 29.2988Z" fill="white" stroke="#E2EBF4" stroke-linecap="round" stroke-linejoin="round"/>
<path d="M81.1535 29.6482L97.2273 29.6482C97.4685 29.6482 97.6641 29.4526 97.6641 29.2114V28.3378C97.6641 28.0966 97.4685 27.901 97.2273 27.901L81.1535 27.901C80.9123 27.901 80.7167 28.0966 80.7167 28.3378V29.2114C80.7167 29.4526 80.9123 29.6482 81.1535 29.6482Z" fill="white" stroke="#E2EBF4" stroke-linecap="round" stroke-linejoin="round"/>
<path d="M107.885 31.1333H112.34C112.581 31.1333 112.777 30.9377 112.777 30.6965V30.4344C112.777 30.1932 112.581 29.9977 112.34 29.9977H107.885C107.644 29.9977 107.448 30.1932 107.448 30.4344V30.6965C107.448 30.9377 107.644 31.1333 107.885 31.1333Z" fill="white" stroke="#E2EBF4" stroke-linecap="round" stroke-linejoin="round"/>
<path d="M79.8431 64.3291H92.3352C92.5764 64.3291 92.772 64.1335 92.772 63.8923V63.4555C92.772 63.2143 92.5764 63.0187 92.3352 63.0187H79.8431C79.6018 63.0187 79.4063 63.2143 79.4063 63.4555V63.8923C79.4063 64.1335 79.6018 64.3291 79.8431 64.3291Z" fill="#E2EBF4"/>
<path d="M103.691 63.8923H109.981C110.222 63.8923 110.418 63.6968 110.418 63.4555V62.3199C110.418 62.0787 110.222 61.8831 109.981 61.8831H103.691C103.45 61.8831 103.255 62.0787 103.255 62.3199V63.4555C103.255 63.6968 103.45 63.8923 103.691 63.8923Z" fill="#E2EBF4"/>
<path d="M105.875 65.4648H109.981C110.222 65.4648 110.418 65.2693 110.418 65.0281C110.418 64.7868 110.222 64.5913 109.981 64.5913H105.875C105.634 64.5913 105.439 64.7868 105.439 65.0281C105.439 65.2693 105.634 65.4648 105.875 65.4648Z" fill="#E2EBF4"/>
<path d="M71.8062 76.3845H112.34C112.581 76.3845 112.777 76.189 112.777 75.9477V69.1339C112.777 68.8926 112.581 68.6971 112.34 68.6971H71.8062C71.565 68.6971 71.3694 68.8926 71.3694 69.1339V75.9477C71.3694 76.189 71.565 76.3845 71.8062 76.3845Z" fill="white" stroke="#E2EBF4" stroke-linecap="round" stroke-linejoin="round"/>
<path d="M71.8062 85.2949H112.34C112.581 85.2949 112.777 85.0994 112.777 84.8581V77.9569C112.777 77.7157 112.581 77.5201 112.34 77.5201H71.8062C71.565 77.5201 71.3694 77.7157 71.3694 77.9569V84.8581C71.3694 85.0994 71.565 85.2949 71.8062 85.2949Z" fill="white" stroke="#E2EBF4" stroke-linecap="round" stroke-linejoin="round"/>
<path d="M75.6502 74.7683C76.9046 74.7683 77.9215 73.7612 77.9215 72.519C77.9215 71.2768 76.9046 70.2698 75.6502 70.2698C74.3958 70.2698 73.3789 71.2768 73.3789 72.519C73.3789 73.7612 74.3958 74.7683 75.6502 74.7683Z" fill="#E2EBF4"/>
<path fill-rule="evenodd" clip-rule="evenodd" d="M75.9292 72.1895L75.9275 71.8505L76.6447 71.8453L76.6403 71.3281L74.6887 71.3421L74.6922 71.8593L75.4094 71.854L75.4112 72.193C74.8294 72.2262 74.3917 72.3537 74.3926 72.504C74.3935 72.6533 74.8329 72.7748 75.4155 72.7992L75.4234 73.886L75.9414 73.8825L75.9336 72.7957C76.5154 72.7625 76.9513 72.6341 76.9504 72.4847C76.9495 72.3354 76.5119 72.2139 75.9301 72.1895H75.9292ZM75.9327 72.704C75.9178 72.7049 75.8436 72.7101 75.6759 72.711C75.5422 72.7119 75.4479 72.7084 75.4147 72.7075C74.8993 72.6874 74.514 72.5931 74.5131 72.4769C74.5131 72.3607 74.8966 72.2611 75.4112 72.2323L75.4138 72.6114C75.4479 72.6132 75.544 72.6193 75.6767 72.6175C75.8375 72.6166 75.917 72.6088 75.9318 72.6079L75.9292 72.2288C76.4429 72.2498 76.8272 72.3441 76.8281 72.4603C76.829 72.5756 76.4464 72.6752 75.9327 72.704Z" fill="#1844BF"/>
<path d="M75.6676 65.9891C76.9343 65.9891 77.9612 64.9722 77.9612 63.7178C77.9612 62.4634 76.9343 61.4465 75.6676 61.4465C74.4009 61.4465 73.374 62.4634 73.374 63.7178C73.374 64.9722 74.4009 65.9891 75.6676 65.9891Z" fill="#FF952F"/>
<path fill-rule="evenodd" clip-rule="evenodd" d="M75.4944 63.5324C75.6534 63.5386 76.0561 63.5543 76.0561 63.2468C76.0544 62.9524 75.7233 62.9576 75.5425 62.9611C75.5145 62.9611 75.4901 62.962 75.4708 62.9611V63.5324C75.4778 63.5324 75.4848 63.5324 75.4944 63.5324ZM75.9129 62.1592L75.9137 62.63C76.2361 62.6624 76.4921 62.7733 76.5218 63.114C76.5418 63.3647 76.451 63.5089 76.306 63.6006C76.5488 63.6643 76.6982 63.8303 76.6641 64.1937C76.6309 64.6454 76.3339 64.7685 75.919 64.7974L75.9181 65.2743L75.6674 65.2735V64.8052C75.6263 64.8035 75.5853 64.8035 75.5434 64.8035C75.518 64.8026 75.4936 64.8026 75.4674 64.8026L75.4691 65.2761H75.2184V64.7991C75.1721 64.8 75.1249 64.8 75.0769 64.8C75.0638 64.8 75.0507 64.7991 75.0384 64.7991H74.7143L74.7632 64.4575C74.7632 64.4575 74.9476 64.4584 74.945 64.4567C75.0096 64.4506 75.0349 64.3964 75.0376 64.3588L75.0358 63.0686C75.0262 63.0057 74.9939 62.9419 74.8917 62.9428C74.896 62.9393 74.71 62.9436 74.71 62.9436L74.7108 62.637L75.055 62.6361C75.0856 62.6361 75.117 62.6353 75.1485 62.6353C75.1703 62.6344 75.1922 62.6344 75.214 62.6344V62.1653L75.4612 62.1618L75.463 62.6248C75.5302 62.6204 75.5958 62.6196 75.663 62.6187V62.1662L75.9129 62.1592ZM75.4735 63.8251L75.4752 64.4558C75.4874 64.4558 75.5014 64.4558 75.5171 64.4558C75.7189 64.4593 76.1741 64.4672 76.1741 64.137C76.1741 63.8006 75.7382 63.8155 75.5311 63.8233C75.5093 63.8242 75.4892 63.8251 75.4735 63.8251Z" fill="white"/>
<path d="M93.1369 18.1686L91.251 16.2827L89.3651 18.1686L91.251 20.0545L93.1369 18.1686Z" fill="#FF952F"/>
<path d="M96.4213 18.1681L95.2896 17.0364L94.1578 18.1681L95.2896 19.2998L96.4213 18.1681Z" fill="#FF952F"/>
<path d="M75.6502 83.7225C76.9046 83.7225 77.9215 82.7056 77.9215 81.4512C77.9215 80.1968 76.9046 79.1799 75.6502 79.1799C74.3958 79.1799 73.3789 80.1968 73.3789 81.4512C73.3789 82.7056 74.3958 83.7225 75.6502 83.7225Z" fill="#1844BF"/>
<path d="M75.6256 79.7722L76.3909 81.3412L75.6256 81.7972L74.8604 81.3412L75.6256 79.7722Z" fill="white"/>
<path d="M75.6256 82.9818L74.8604 81.6985L75.6256 82.1257L76.3909 81.6985L75.6256 82.9818Z" fill="white"/>
<path d="M84.8228 3.38392H85.8953C85.8175 4.00678 85.5524 4.52131 85.1001 4.9287C84.6527 5.33021 84.0933 5.53155 83.4221 5.53155C82.673 5.53155 82.0651 5.27957 81.5982 4.77799C81.1312 4.27052 80.8978 3.64766 80.8978 2.90824C80.8978 2.16528 81.1312 1.54006 81.5982 1.03259C82.0651 0.52041 82.673 0.263742 83.4221 0.263742C84.0738 0.263742 84.6235 0.46272 85.0709 0.859512C85.5232 1.2563 85.7932 1.75789 85.8807 2.36662H84.801C84.7183 2.0499 84.5529 1.79558 84.3049 1.60483C84.0617 1.40938 83.765 1.314 83.4148 1.31871C82.977 1.32342 82.6245 1.48002 82.3569 1.78615C82.0894 2.08757 81.9557 2.45964 81.9557 2.90118C81.9557 3.34271 82.0894 3.71713 82.3569 4.02443C82.6245 4.33056 82.9819 4.48363 83.4294 4.48363C83.7845 4.48363 84.086 4.38354 84.334 4.18221C84.587 3.98087 84.7499 3.71478 84.8228 3.38392ZM89.2082 2.15468V1.67312H90.1863V5.42557H89.2082V4.9287H89.1718C89.0555 5.10885 88.8947 5.25485 88.6907 5.36552C88.4866 5.4762 88.2552 5.53389 87.9976 5.5386C87.5017 5.5386 87.0879 5.35493 86.7573 4.98875C86.4313 4.61669 86.2686 4.13982 86.2686 3.557C86.2686 2.97417 86.429 2.49379 86.7505 2.11701C87.0765 1.74023 87.4937 1.55538 88.0044 1.56009C88.2575 1.56009 88.4866 1.61542 88.6907 1.7261C88.8947 1.8356 89.0555 1.97924 89.1718 2.15468H89.2082ZM87.5302 4.28818C87.716 4.47892 87.952 4.5743 88.2381 4.5743C88.5254 4.5743 88.7591 4.47657 88.9392 4.27994C89.1193 4.07978 89.2082 3.83606 89.2082 3.54876C89.2082 3.25794 89.1159 3.0142 88.9312 2.81875C88.7511 2.62212 88.5208 2.52439 88.2381 2.52439C87.952 2.52439 87.716 2.62212 87.5302 2.81875C87.3512 3.00949 87.2612 3.25323 87.2612 3.54876C87.2612 3.84547 87.3512 4.09155 87.5302 4.28818ZM91.8814 1.67312H93.8809V2.65273H91.911C91.8084 2.65273 91.7583 2.70572 91.7583 2.81052C91.7583 2.90118 91.7993 2.95416 91.8814 2.96946L93.2459 3.25557C93.5229 3.31562 93.7418 3.43925 93.9025 3.62411C94.0633 3.81014 94.143 4.03386 94.143 4.29525C94.143 4.62139 94.0291 4.89338 93.8011 5.10885C93.5765 5.31961 93.2972 5.42557 92.9621 5.42557H90.86V4.43889H92.9472C93.0544 4.43889 93.108 4.38355 93.108 4.27287C93.108 4.18692 93.0658 4.13159 92.9837 4.10686L91.5976 3.79838C91.3342 3.74304 91.1211 3.62175 90.9558 3.43572C90.7905 3.25086 90.7073 3.03187 90.7073 2.78108C90.7073 2.45964 90.819 2.19589 91.0424 1.98984C91.267 1.7779 91.5463 1.67312 91.8814 1.67312ZM94.6594 0H95.6444V1.19038H94.6594V0ZM94.6594 1.67312H95.6444V5.42557H94.6594V1.67312ZM98.5056 1.56715C98.9536 1.56715 99.3059 1.71551 99.5635 2.01222C99.8211 2.30893 99.9499 2.72337 99.9499 3.25557V5.42557H98.965V3.40629C98.965 3.1449 98.8943 2.93885 98.7541 2.78814C98.6128 2.63743 98.4349 2.56208 98.2206 2.56208C97.9926 2.56208 97.7977 2.64802 97.637 2.81875C97.4774 2.98359 97.3965 3.20495 97.3965 3.48164V5.42557H96.4115V1.67312H97.368V2.12525H97.4044C97.6621 1.75318 98.0291 1.56715 98.5056 1.56715ZM103.803 4.97345C103.443 5.35022 102.971 5.5386 102.387 5.5386C101.803 5.5386 101.332 5.35022 100.972 4.97345C100.612 4.59667 100.432 4.12217 100.432 3.54876C100.432 2.98124 100.612 2.50909 100.972 2.13232C101.332 1.75083 101.803 1.56009 102.387 1.56009C102.971 1.56009 103.443 1.75083 103.803 2.13232C104.163 2.50909 104.343 2.98124 104.343 3.54876C104.343 4.12217 104.163 4.59667 103.803 4.97345ZM102.387 4.55192C102.67 4.55192 102.9 4.45655 103.08 4.26463C103.265 4.06918 103.358 3.83017 103.358 3.54876C103.358 3.26265 103.268 3.0248 103.088 2.83288C102.908 2.63743 102.674 2.5397 102.387 2.5397C102.101 2.5397 101.867 2.63743 101.687 2.83288C101.507 3.0248 101.417 3.26265 101.417 3.54876C101.417 3.83606 101.507 4.07389 101.687 4.26463C101.867 4.45655 102.101 4.55192 102.387 4.55192ZM75.0365 10.0605H74.0082C73.9501 9.89566 73.8475 9.76261 73.7016 9.66135C73.5603 9.55656 73.3927 9.50358 73.1977 9.50358C72.9162 9.50358 72.6893 9.60131 72.5195 9.79676C72.3496 9.98868 72.2641 10.2265 72.2641 10.5126C72.2641 10.794 72.3496 11.0331 72.5195 11.2285C72.6893 11.4204 72.9162 11.5158 73.1977 11.5158C73.3881 11.5158 73.5557 11.4652 73.7016 11.3651C73.8475 11.2591 73.9501 11.1237 74.0082 10.9577H75.0365C74.959 11.4145 74.7526 11.7866 74.4164 12.0727C74.0858 12.3588 73.6777 12.5025 73.1909 12.5025C72.6164 12.5025 72.1547 12.3141 71.8047 11.9373C71.4548 11.5605 71.2792 11.086 71.2792 10.5126C71.2792 9.94041 71.4548 9.4659 71.8047 9.08912C72.1547 8.71235 72.6164 8.52397 73.1909 8.52397C73.6822 8.52397 74.0926 8.66642 74.4243 8.95372C74.7595 9.23512 74.9635 9.60366 75.0365 10.0605ZM77.362 8.637H78.128V9.65429H77.3107C77.0724 9.65429 76.8786 9.73435 76.727 9.89566C76.5765 10.0558 76.5013 10.2642 76.5013 10.5209V12.3895H75.5164V8.637H76.45V9.22453H76.4865C76.6278 8.83245 76.9197 8.637 77.362 8.637ZM80.4683 11.4852L81.3586 8.637H82.3584L80.9129 12.9994C80.816 13.2867 80.6678 13.5068 80.4683 13.6634C80.2688 13.8188 80.0283 13.8966 79.7456 13.8966H78.7105V12.9016H79.7171C79.814 12.9016 79.8972 12.8793 79.9645 12.8345L78.2945 8.637H79.374L80.4683 11.4852ZM84.9084 8.52397C85.4191 8.51926 85.8341 8.70411 86.1555 9.08089C86.4816 9.45766 86.6446 9.93805 86.6446 10.5209C86.6446 11.1037 86.4793 11.5806 86.1487 11.9526C85.8227 12.3188 85.4112 12.5025 84.9153 12.5025C84.6576 12.4978 84.4262 12.4401 84.2222 12.3294C84.0181 12.2187 83.8574 12.0727 83.7411 11.8926H83.7047V13.8966H82.7266V8.637H83.7047V9.11856H83.7411C83.8574 8.94312 84.0181 8.79947 84.2222 8.68997C84.4308 8.5793 84.6599 8.52397 84.9084 8.52397ZM83.9737 11.2438C84.1538 11.4404 84.3875 11.5382 84.6748 11.5382C84.9609 11.5382 85.1946 11.4428 85.3747 11.2521C85.5594 11.0554 85.6517 10.8094 85.6517 10.5126C85.6517 10.2171 85.5594 9.97337 85.3747 9.78263C85.1946 9.586 84.9609 9.48827 84.6748 9.48827C84.392 9.48827 84.1584 9.586 83.9737 9.78263C83.7936 9.97808 83.7047 10.2218 83.7047 10.5126C83.7047 10.7999 83.7936 11.0437 83.9737 11.2438ZM89.8433 8.637V9.61661H88.3477V11.1155C88.3477 11.2061 88.375 11.2768 88.4286 11.3274C88.4822 11.3769 88.5517 11.4028 88.6395 11.4028H89.8433V12.3895H88.4571C88.1219 12.3895 87.8541 12.2917 87.6546 12.0951C87.4608 11.8949 87.3627 11.6253 87.3627 11.2897V9.61661H86.852V8.637H87.3627V7.34065H88.3477V8.637H89.8433ZM93.5093 11.9373C93.1491 12.3141 92.6772 12.5025 92.0935 12.5025C91.5099 12.5025 91.0379 12.3141 90.6777 11.9373C90.3186 11.5605 90.1385 11.086 90.1385 10.5126C90.1385 9.94512 90.3186 9.47297 90.6777 9.0962C91.0379 8.71471 91.5099 8.52397 92.0935 8.52397C92.6772 8.52397 93.1491 8.71471 93.5093 9.0962C93.8684 9.47297 94.0485 9.94512 94.0485 10.5126C94.0485 11.086 93.8684 11.5605 93.5093 11.9373ZM92.0935 11.5158C92.3762 11.5158 92.6065 11.4204 92.7866 11.2285C92.9713 11.0331 93.0636 10.794 93.0636 10.5126C93.0636 10.2265 92.9736 9.98868 92.7935 9.79676C92.6145 9.60131 92.3808 9.50358 92.0935 9.50358C91.8063 9.50358 91.5737 9.60131 91.3936 9.79676C91.2135 9.98868 91.1234 10.2265 91.1234 10.5126C91.1234 10.7999 91.2135 11.0378 91.3936 11.2285C91.5737 11.4204 91.8063 11.5158 92.0935 11.5158ZM99.9535 10.9801L100.61 8.637H101.631L100.471 12.3895H99.5305L98.8226 10.0005L98.1079 12.3895H97.1663L96.0058 8.637H97.0272L97.6987 10.9801L98.3769 8.637H99.2604L99.9535 10.9801ZM104.614 9.11856V8.637H105.592V12.3895H104.614V11.8926H104.577C104.461 12.0727 104.3 12.2187 104.096 12.3294C103.891 12.4401 103.661 12.4978 103.403 12.5025C102.906 12.5025 102.493 12.3188 102.163 11.9526C101.837 11.5806 101.674 11.1037 101.674 10.5209C101.674 9.93805 101.834 9.45766 102.155 9.08089C102.481 8.70411 102.899 8.51926 103.41 8.52397C103.663 8.52397 103.891 8.5793 104.096 8.68997C104.3 8.79947 104.461 8.94312 104.577 9.11856H104.614ZM102.936 11.2521C103.12 11.4428 103.356 11.5382 103.643 11.5382C103.93 11.5382 104.163 11.4404 104.343 11.2438C104.524 11.0437 104.614 10.7999 104.614 10.5126C104.614 10.2218 104.521 9.97808 104.337 9.78263C104.156 9.586 103.925 9.48827 103.643 9.48827C103.356 9.48827 103.12 9.586 102.936 9.78263C102.755 9.97337 102.665 10.2171 102.665 10.5126C102.665 10.8094 102.755 11.0554 102.936 11.2521ZM106.322 11.3039V6.96388H107.307V11.1237C107.307 11.3098 107.404 11.4028 107.599 11.4028H108.088V12.3895H107.41C107.064 12.3895 106.797 12.2941 106.607 12.1033C106.417 11.9126 106.322 11.6465 106.322 11.3039ZM108.538 11.3039V6.96388H109.523V11.1237C109.523 11.3098 109.62 11.4028 109.815 11.4028H110.304V12.3895H109.625C109.279 12.3895 109.013 12.2941 108.822 12.1033C108.633 11.9126 108.538 11.6465 108.538 11.3039ZM112.39 8.52397C112.993 8.52397 113.47 8.74532 113.821 9.18686C114.171 9.62839 114.311 10.1841 114.244 10.8517H111.5C111.53 11.0531 111.622 11.2238 111.778 11.3651C111.938 11.5005 112.14 11.5735 112.383 11.5829C112.553 11.5935 112.712 11.5629 112.858 11.4923C113.008 11.4169 113.115 11.3192 113.178 11.1991H114.207C114.09 11.6112 113.867 11.9326 113.536 12.1634C113.205 12.3894 112.821 12.5025 112.383 12.5025C111.794 12.5025 111.332 12.3117 110.997 11.9303C110.661 11.5429 110.493 11.0707 110.493 10.5126C110.493 9.95101 110.671 9.47768 111.026 9.0962C111.386 8.71471 111.841 8.52397 112.39 8.52397ZM112.931 9.6013C112.779 9.49062 112.597 9.43529 112.383 9.43529C112.169 9.43529 111.982 9.49298 111.821 9.60837C111.665 9.71905 111.562 9.86976 111.508 10.0605H113.244C113.191 9.86505 113.086 9.71198 112.931 9.6013ZM117.452 8.637V9.61661H115.956V11.1155C115.956 11.2061 115.982 11.2768 116.036 11.3274C116.089 11.3769 116.16 11.4028 116.248 11.4028H117.452V12.3895H116.065C115.73 12.3895 115.462 12.2917 115.263 12.0951C115.068 11.8949 114.971 11.6253 114.971 11.2897V9.61661H114.46V8.637H114.971V7.34065H115.956V8.637H117.452Z" fill="#1844BF"/>
<path d="M79.8074 39.6857L80.9028 40.1269C81.1011 40.2055 81.2496 40.3173 81.3501 40.4623C81.4514 40.6082 81.5012 40.7628 81.5012 40.9262C81.5012 41.135 81.4252 41.3175 81.2724 41.4748C81.1195 41.6277 80.9142 41.7037 80.6574 41.7037H80.5289V42.3414H80.0144V41.7037H79.1697V41.1891H80.6574C80.7465 41.1891 80.819 41.1612 80.8749 41.1053C80.9352 41.0459 80.9649 40.9768 80.9649 40.8982C80.9649 40.7759 80.9028 40.6894 80.7805 40.6414L79.6449 40.1889C79.4475 40.1103 79.299 40.0002 79.1976 39.8587C79.0972 39.7137 79.0474 39.559 79.0474 39.3948C79.0474 39.1825 79.1234 39 79.2762 38.8471C79.4326 38.6898 79.6396 38.6121 79.8965 38.6121H80.0144V37.9578H80.5289V38.6121H81.3781V39.1266H79.8912C79.8056 39.1266 79.7366 39.1546 79.6842 39.2105C79.6362 39.262 79.6117 39.3275 79.6117 39.4062C79.6117 39.5363 79.6772 39.6298 79.8074 39.6857ZM84.2093 39.7914L82.8841 41.1725H84.6286V41.7037H82.0848V41.2843L83.8407 39.4341C83.9778 39.2996 84.0468 39.145 84.0468 38.9694C84.0468 38.8279 83.9935 38.7125 83.8852 38.6234C83.7804 38.5335 83.6424 38.4889 83.4711 38.4889H82.1293V37.9578H83.4773C83.8014 37.9578 84.0678 38.0512 84.2766 38.2373C84.4854 38.4199 84.5893 38.6584 84.5893 38.9528C84.5893 39.2515 84.4626 39.5311 84.2093 39.7914ZM85.8132 39.49H86.7968C87.1471 39.49 87.4197 39.5975 87.6128 39.8141C87.8067 40.0299 87.9037 40.2893 87.9037 40.5907C87.9037 40.8895 87.8049 41.1498 87.6075 41.3734C87.4136 41.5936 87.1436 41.7037 86.7968 41.7037H85.2925V41.1725H86.7802C86.9515 41.1725 87.086 41.1166 87.183 41.0048C87.2799 40.8895 87.3297 40.7532 87.3332 40.5968C87.3376 40.4405 87.2887 40.3042 87.1882 40.1889C87.0912 40.0727 86.955 40.015 86.7802 40.015H85.248L85.4603 37.9578H87.6023V38.4889H85.9189L85.8132 39.49ZM89.0559 39.49H90.0404C90.3907 39.49 90.6624 39.5975 90.8563 39.8141C91.0503 40.0299 91.1472 40.2893 91.1472 40.5907C91.1472 40.8895 91.0485 41.1498 90.8511 41.3734C90.6572 41.5936 90.3864 41.7037 90.0404 41.7037H88.5361V41.1725H90.0229C90.195 41.1725 90.3287 41.1166 90.4257 41.0048C90.5226 40.8895 90.5733 40.7532 90.5768 40.5968C90.5803 40.4405 90.5322 40.3042 90.4318 40.1889C90.3348 40.0727 90.1985 40.015 90.0229 40.015H88.4916L88.7039 37.9578H90.845V38.4889H89.1625L89.0559 39.49ZM91.6635 40.3339V39.3275C91.6635 38.9135 91.8015 38.5693 92.0776 38.2932C92.3536 38.0172 92.6996 37.8792 93.1171 37.8792C93.5312 37.8792 93.878 38.0172 94.1576 38.2932C94.4371 38.5693 94.5769 38.9135 94.5769 39.3275V40.3339C94.5769 40.748 94.4371 41.0922 94.1576 41.3682C93.878 41.6443 93.5312 41.7823 93.1171 41.7823C92.6996 41.7823 92.3536 41.6443 92.0776 41.3682C91.8015 41.0922 91.6635 40.748 91.6635 40.3339ZM92.206 39.3275V40.3339C92.206 40.6021 92.2916 40.8222 92.4637 40.9934C92.6349 41.1612 92.8524 41.245 93.1171 41.245C93.3818 41.245 93.6002 41.1612 93.7714 40.9934C93.947 40.8222 94.0344 40.6021 94.0344 40.3339V39.3275C94.0344 39.0594 93.947 38.8392 93.7714 38.668C93.6002 38.4968 93.3818 38.4103 93.1171 38.4103C92.8524 38.4103 92.6349 38.4968 92.4637 38.668C92.2916 38.8392 92.206 39.0594 92.206 39.3275ZM95.2513 40.3339V39.3275C95.2513 38.9135 95.3884 38.5693 95.6645 38.2932C95.9405 38.0172 96.2873 37.8792 96.7049 37.8792C97.1181 37.8792 97.4649 38.0172 97.7445 38.2932C98.024 38.5693 98.1638 38.9135 98.1638 39.3275V40.3339C98.1638 40.748 98.024 41.0922 97.7445 41.3682C97.4649 41.6443 97.1181 41.7823 96.7049 41.7823C96.2873 41.7823 95.9405 41.6443 95.6645 41.3682C95.3884 41.0922 95.2513 40.748 95.2513 40.3339ZM95.7929 39.3275V40.3339C95.7929 40.6021 95.8794 40.8222 96.0506 40.9934C96.2218 41.1612 96.4402 41.245 96.7049 41.245C96.9696 41.245 97.1871 41.1612 97.3583 40.9934C97.5339 40.8222 97.6213 40.6021 97.6213 40.3339V39.3275C97.6213 39.0594 97.5339 38.8392 97.3583 38.668C97.1871 38.4968 96.9696 38.4103 96.7049 38.4103C96.4402 38.4103 96.2218 38.4968 96.0506 38.668C95.8794 38.8392 95.7929 39.0594 95.7929 39.3275ZM98.432 41.0328H99.0749V41.7037H98.432V41.0328ZM99.4278 40.3339V39.3275C99.4278 38.9135 99.5659 38.5693 99.841 38.2932C100.117 38.0172 100.464 37.8792 100.881 37.8792C101.295 37.8792 101.641 38.0172 101.921 38.2932C102.201 38.5693 102.34 38.9135 102.34 39.3275V40.3339C102.34 40.748 102.201 41.0922 101.921 41.3682C101.641 41.6443 101.295 41.7823 100.881 41.7823C100.464 41.7823 100.117 41.6443 99.841 41.3682C99.5659 41.0922 99.4278 40.748 99.4278 40.3339ZM99.9703 39.3275V40.3339C99.9703 40.6021 100.056 40.8222 100.227 40.9934C100.398 41.1612 100.617 41.245 100.881 41.245C101.146 41.245 101.364 41.1612 101.536 40.9934C101.71 40.8222 101.798 40.6021 101.798 40.3339V39.3275C101.798 39.0594 101.71 38.8392 101.536 38.668C101.364 38.4968 101.146 38.4103 100.881 38.4103C100.617 38.4103 100.398 38.4968 100.227 38.668C100.056 38.8392 99.9703 39.0594 99.9703 39.3275ZM103.015 40.3339V39.3275C103.015 38.9135 103.153 38.5693 103.429 38.2932C103.704 38.0172 104.051 37.8792 104.468 37.8792C104.882 37.8792 105.228 38.0172 105.508 38.2932C105.787 38.5693 105.927 38.9135 105.927 39.3275V40.3339C105.927 40.748 105.787 41.0922 105.508 41.3682C105.228 41.6443 104.882 41.7823 104.468 41.7823C104.051 41.7823 103.704 41.6443 103.429 41.3682C103.153 41.0922 103.015 40.748 103.015 40.3339ZM103.557 39.3275V40.3339C103.557 40.6021 103.643 40.8222 103.814 40.9934C103.986 41.1612 104.204 41.245 104.468 41.245C104.733 41.245 104.951 41.1612 105.123 40.9934C105.297 40.8222 105.386 40.6021 105.386 40.3339V39.3275C105.386 39.0594 105.297 38.8392 105.123 38.668C104.951 38.4968 104.733 38.4103 104.468 38.4103C104.204 38.4103 103.986 38.4968 103.814 38.668C103.643 38.8392 103.557 39.0594 103.557 39.3275Z" fill="#1844BF"/>
<path d="M97.0088 52.0118C98.818 52.0118 100.285 50.5451 100.285 48.7359C100.285 46.9266 98.818 45.46 97.0088 45.46C95.1996 45.46 93.7329 46.9266 93.7329 48.7359C93.7329 50.5451 95.1996 52.0118 97.0088 52.0118Z" fill="#1844BF"/>
<path d="M74.645 32.0071C76.4543 32.0071 77.9209 30.5405 77.9209 28.7312C77.9209 26.922 76.4543 25.4553 74.645 25.4553C72.8358 25.4553 71.3691 26.922 71.3691 28.7312C71.3691 30.5405 72.8358 32.0071 74.645 32.0071Z" fill="white" stroke="#E2EBF4" stroke-linecap="round" stroke-linejoin="round"/>
<path d="M88.0108 52.0118C89.82 52.0118 91.2867 50.5451 91.2867 48.7359C91.2867 46.9266 89.82 45.46 88.0108 45.46C86.2015 45.46 84.7349 46.9266 84.7349 48.7359C84.7349 50.5451 86.2015 52.0118 88.0108 52.0118Z" fill="#E2EBF4"/>
<path d="M96.9648 47.207V50.2645" stroke="white" stroke-linecap="round"/>
<path d="M87.9673 47.207V50.2645" stroke="#0C38B7" stroke-linecap="round"/>
<path d="M98.5375 48.7795H95.48" stroke="white" stroke-linecap="round"/>
<path d="M89.2639 48.4335L87.9815 47.1511L86.6982 48.4335" stroke="#0C38B7" stroke-linecap="round" stroke-linejoin="round"/>
<path d="M65.167 87.3042H118.935" stroke="#0C38B7" stroke-linecap="round"/>
<path d="M79.8434 73.3269H88.1423C88.3835 73.3269 88.5791 73.1313 88.5791 72.8901V72.4533C88.5791 72.2121 88.3835 72.0165 88.1423 72.0165H79.8434C79.6021 72.0165 79.4066 72.2121 79.4066 72.4533V72.8901C79.4066 73.1313 79.6021 73.3269 79.8434 73.3269Z" fill="#E2EBF4"/>
<path d="M79.843 82.0627H96.0041C96.2454 82.0627 96.4409 81.8672 96.4409 81.626V81.1892C96.4409 80.9479 96.2454 80.7524 96.0041 80.7524H79.843C79.6018 80.7524 79.4062 80.9479 79.4062 81.1892V81.626C79.4062 81.8672 79.6018 82.0627 79.843 82.0627Z" fill="#E2EBF4"/>
<path d="M100.983 72.8027H109.981C110.222 72.8027 110.418 72.6072 110.418 72.3659V71.2303C110.418 70.9891 110.222 70.7935 109.981 70.7935H100.983C100.742 70.7935 100.547 70.9891 100.547 71.2303V72.3659C100.547 72.6072 100.742 72.8027 100.983 72.8027Z" fill="#E2EBF4"/>
<path d="M105.875 74.3752H109.981C110.222 74.3752 110.418 74.1797 110.418 73.9385C110.418 73.6972 110.222 73.5017 109.981 73.5017H105.875C105.634 73.5017 105.439 73.6972 105.439 73.9385C105.439 74.1797 105.634 74.3752 105.875 74.3752Z" fill="#E2EBF4"/>
<path d="M103.255 81.626H109.981C110.222 81.626 110.418 81.4304 110.418 81.1892V80.0535C110.418 79.8123 110.222 79.6168 109.981 79.6168H103.255C103.013 79.6168 102.818 79.8123 102.818 80.0535V81.1892C102.818 81.4304 103.013 81.626 103.255 81.626Z" fill="#E2EBF4"/>
<path d="M105.875 83.1982H109.981C110.222 83.1982 110.418 83.0027 110.418 82.7615C110.418 82.5202 110.222 82.3247 109.981 82.3247H105.875C105.634 82.3247 105.439 82.5202 105.439 82.7615C105.439 83.0027 105.634 83.1982 105.875 83.1982Z" fill="#E2EBF4"/>
<path d="M121.687 71.012H120.551C120.479 71.012 120.42 71.0706 120.42 71.143V76.2971C120.42 76.3695 120.479 76.4281 120.551 76.4281H121.687C121.759 76.4281 121.818 76.3695 121.818 76.2971V71.143C121.818 71.0706 121.759 71.012 121.687 71.012Z" fill="white" stroke="#1844BF"/>
<path d="M119.241 74.2441H118.106C118.033 74.2441 117.975 74.3028 117.975 74.3752V76.297C117.975 76.3694 118.033 76.4281 118.106 76.4281H119.241C119.314 76.4281 119.372 76.3694 119.372 76.297V74.3752C119.372 74.3028 119.314 74.2441 119.241 74.2441Z" fill="white" stroke="#1844BF"/>
<path d="M124.133 72.4097H122.998C122.925 72.4097 122.867 72.4683 122.867 72.5407V76.2971C122.867 76.3694 122.925 76.4281 122.998 76.4281H124.133C124.206 76.4281 124.264 76.3694 124.264 76.2971V72.5407C124.264 72.4683 124.206 72.4097 124.133 72.4097Z" fill="white" stroke="#1844BF"/>
<path d="M126.579 69.1775H125.444C125.371 69.1775 125.312 69.2362 125.312 69.3085V76.2971C125.312 76.3695 125.371 76.4282 125.444 76.4282H126.579C126.652 76.4282 126.71 76.3695 126.71 76.2971V69.3085C126.71 69.2362 126.652 69.1775 126.579 69.1775Z" fill="white" stroke="#1844BF"/>
<path d="M126.964 192.083H55.68C55.4387 192.083 55.2432 192.278 55.2432 192.52V238.732C55.2432 238.973 55.4387 239.168 55.68 239.168H126.964C127.205 239.168 127.4 238.973 127.4 238.732V192.52C127.4 192.278 127.205 192.083 126.964 192.083Z" fill="#E2EBF4"/>
<path d="M122.421 198.067H51.4868C51.2215 198.067 51.0063 198.282 51.0063 198.547V221.784C51.0063 222.05 51.2215 222.265 51.4868 222.265H122.421C122.686 222.265 122.901 222.05 122.901 221.784V198.547C122.901 198.282 122.686 198.067 122.421 198.067Z" stroke="#E2EBF4" stroke-dasharray="2.73 2.73"/>
<path d="M121.984 224.012H51.4868C51.2215 224.012 51.0063 224.227 51.0063 224.492V244.672C51.0063 244.937 51.2215 245.152 51.4868 245.152H121.984C122.25 245.152 122.465 244.937 122.465 244.672V224.492C122.465 224.227 122.25 224.012 121.984 224.012Z" stroke="#E2EBF4"/>
<path d="M133.69 183.391H75.8595C75.6906 183.391 75.5537 183.528 75.5537 183.696V226.764C75.5537 226.932 75.6906 227.069 75.8595 227.069H133.69C133.859 227.069 133.996 226.932 133.996 226.764V183.696C133.996 183.528 133.859 183.391 133.69 183.391Z" stroke="#FF952F"/>
<path d="M54.0917 184.731L48.3117 189.289C48.1223 189.438 48.0898 189.713 48.2392 189.902L55.6136 199.254C55.763 199.443 56.0376 199.476 56.2271 199.326L62.007 194.768C62.1964 194.619 62.2289 194.344 62.0795 194.155L54.7051 184.803C54.5557 184.614 54.2811 184.581 54.0917 184.731Z" fill="white" stroke="#FF952F"/>
<path d="M49.7092 189.486C49.5751 189.316 49.3285 189.287 49.1585 189.421C48.9884 189.555 48.9593 189.802 49.0934 189.972L49.4333 190.403C49.5674 190.573 49.814 190.602 49.984 190.468C50.154 190.334 50.1832 190.087 50.0491 189.917L49.7092 189.486Z" fill="#FF952F"/>
<path d="M60.9484 193.606C60.8144 193.436 60.5678 193.407 60.3978 193.541C60.2277 193.675 60.1985 193.922 60.3326 194.092L60.6726 194.523C60.8067 194.693 61.0532 194.722 61.2233 194.588C61.3933 194.454 61.4225 194.207 61.2884 194.037L60.9484 193.606Z" fill="#FF952F"/>
<path d="M53.9384 190.712C53.9305 190.59 54.0475 190.497 54.1646 190.534L55.9511 191.09C56.124 191.144 56.2455 191.297 56.2577 191.478L56.3817 193.345C56.3896 193.467 56.2725 193.56 56.1555 193.523L54.3682 192.968C54.1961 192.914 54.0746 192.76 54.0624 192.58L53.9384 190.712Z" fill="#FF952F"/>
<path d="M58.1491 179.041L51.6945 182.58C51.483 182.696 51.4055 182.961 51.5215 183.173L57.2466 193.616C57.3625 193.827 57.628 193.905 57.8395 193.789L64.2941 190.25C64.5056 190.134 64.5831 189.869 64.4671 189.657L58.7421 179.214C58.6261 179.003 58.3606 178.925 58.1491 179.041Z" fill="white" stroke="#1844BF"/>
<path d="M53.0393 183.006C52.9352 182.816 52.6968 182.746 52.5069 182.85C52.317 182.954 52.2475 183.193 52.3516 183.383L52.6155 183.864C52.7196 184.054 52.9579 184.123 53.1478 184.019C53.3377 183.915 53.4073 183.677 53.3032 183.487L53.0393 183.006Z" fill="#1844BF"/>
<path d="M63.4416 188.929C63.3375 188.739 63.0992 188.67 62.9093 188.774C62.7194 188.878 62.6498 189.116 62.7539 189.306L63.0178 189.788C63.1219 189.978 63.3602 190.047 63.5501 189.943C63.74 189.839 63.8096 189.601 63.7055 189.411L63.4416 188.929Z" fill="#1844BF"/>
<path fill-rule="evenodd" clip-rule="evenodd" d="M58.609 185.679C58.6003 185.547 58.5636 185.415 58.4955 185.291C58.2456 184.835 57.6734 184.668 57.2183 184.918C56.7623 185.168 56.5954 185.74 56.8453 186.196C56.9125 186.319 57.0043 186.421 57.1108 186.5C56.7011 186.765 56.5596 187.307 56.7981 187.741C57.0479 188.197 57.6201 188.364 58.0761 188.114C58.2797 188.003 58.4256 187.827 58.5024 187.627L58.492 188.074C58.4911 188.141 58.5627 188.185 58.6212 188.153L59.1899 187.841C59.2493 187.808 59.2511 187.725 59.1934 187.69L58.8108 187.457C59.0214 187.5 59.2476 187.472 59.4511 187.36C59.9071 187.11 60.074 186.538 59.8242 186.083C59.5857 185.648 59.0537 185.476 58.609 185.679Z" fill="#1844BF"/>
<path d="M65.0012 176.734L57.8911 178.639C57.6581 178.702 57.5199 178.941 57.5823 179.174L60.6647 190.678C60.7271 190.911 60.9666 191.049 61.1996 190.987L68.3097 189.081C68.5427 189.019 68.681 188.78 68.6185 188.546L65.5361 177.043C65.4737 176.81 65.2342 176.672 65.0012 176.734Z" fill="white" stroke="#FF952F"/>
<path d="M59.0968 179.372C59.0407 179.162 58.8257 179.038 58.6165 179.094C58.4074 179.15 58.2832 179.365 58.3393 179.575L58.4814 180.105C58.5374 180.314 58.7524 180.438 58.9616 180.382C59.1708 180.326 59.2949 180.111 59.2389 179.902L59.0968 179.372Z" fill="#FF952F"/>
<path d="M67.795 187.595C67.739 187.386 67.524 187.262 67.3148 187.318C67.1056 187.374 66.9815 187.589 67.0375 187.798L67.1796 188.329C67.2357 188.538 67.4507 188.662 67.6598 188.606C67.869 188.55 67.9932 188.335 67.9371 188.126L67.795 187.595Z" fill="#FF952F"/>
<path d="M63.6611 185.342C63.6122 185.418 63.5117 185.445 63.4314 185.403L63.2593 185.312C62.1402 184.723 61.4003 184.333 61.2212 183.664C61.0744 183.116 61.3811 182.575 61.9174 182.431C62.1865 182.359 62.4765 182.403 62.7133 182.536C62.7605 182.562 62.8216 182.545 62.8496 182.499C62.9885 182.266 63.2173 182.083 63.4855 182.011C64.0228 181.867 64.5591 182.182 64.7059 182.73C64.885 183.4 64.4395 184.107 63.7642 185.176L63.6611 185.342Z" fill="#FF952F"/>
<path d="M72.236 176.886L64.8753 176.934C64.634 176.935 64.4398 177.132 64.4413 177.374L64.5195 189.283C64.5211 189.524 64.7179 189.718 64.9591 189.717L72.3198 189.668C72.5611 189.667 72.7553 189.47 72.7537 189.229L72.6756 177.32C72.674 177.078 72.4772 176.884 72.236 176.886Z" fill="white" stroke="#1844BF"/>
<path d="M65.8566 177.947C65.8552 177.73 65.6785 177.556 65.4619 177.557C65.2454 177.558 65.071 177.735 65.0724 177.952L65.076 178.501C65.0774 178.717 65.2541 178.892 65.4707 178.89C65.6872 178.889 65.8616 178.712 65.8602 178.495L65.8566 177.947Z" fill="#1844BF"/>
<path d="M72.1974 188.1C72.196 187.884 72.0193 187.709 71.8027 187.711C71.5862 187.712 71.4118 187.889 71.4132 188.105L71.4168 188.654C71.4182 188.871 71.5949 189.045 71.8115 189.044C72.028 189.043 72.2025 188.866 72.201 188.649L72.1974 188.1Z" fill="#1844BF"/>
<path fill-rule="evenodd" clip-rule="evenodd" d="M68.7453 181.724C68.6781 181.662 68.5741 181.663 68.5077 181.726L68.3662 181.858C67.4428 182.723 66.8331 183.295 66.8374 183.987C66.8418 184.555 67.2803 184.995 67.8359 184.992C68.091 184.99 68.3365 184.891 68.5243 184.727L68.25 185.211C68.2168 185.27 68.2587 185.342 68.326 185.341L68.9742 185.337C69.0414 185.337 69.0834 185.264 69.0493 185.206L68.768 184.726C68.9576 184.886 69.2048 184.983 69.4599 184.982C70.0155 184.977 70.4488 184.532 70.4453 183.964C70.44 183.271 69.8233 182.708 68.8886 181.855L68.7453 181.724Z" fill="#1844BF"/>
<path d="M131.754 238.178C138.115 238.178 143.272 233.084 143.272 226.801C143.272 220.517 138.115 215.423 131.754 215.423C125.392 215.423 120.235 220.517 120.235 226.801C120.235 233.084 125.392 238.178 131.754 238.178Z" fill="#FF952F"/>
<path d="M131.754 232.666C134.993 232.666 137.619 230.04 137.619 226.8C137.619 223.561 134.993 220.935 131.754 220.935C128.514 220.935 125.888 223.561 125.888 226.8C125.888 230.04 128.514 232.666 131.754 232.666Z" stroke="white"/>
<path d="M121.506 226.8C121.506 225.027 121.98 223.284 122.88 221.748L125.541 223.263C124.912 224.339 124.58 225.559 124.58 226.8H121.506Z" fill="white"/>
<path d="M126.63 217.926C128.166 217.04 129.912 216.579 131.692 216.589L131.711 219.653C130.465 219.645 129.243 219.968 128.167 220.588L126.63 217.926Z" fill="white"/>
<path d="M136.877 217.927C138.413 218.813 139.685 220.095 140.566 221.642L137.923 223.189C137.306 222.107 136.415 221.209 135.339 220.588L136.877 217.927Z" fill="white"/>
<path d="M142 226.8C142 228.575 141.527 230.317 140.627 231.853L137.965 230.337C138.594 229.262 138.926 228.043 138.926 226.8H142Z" fill="white"/>
<path d="M136.877 235.674C135.34 236.562 133.595 237.023 131.815 237.012L131.796 233.949C133.042 233.956 134.264 233.633 135.34 233.012L136.877 235.674Z" fill="white"/>
<path d="M126.63 235.674C125.094 234.788 123.821 233.506 122.941 231.959L125.584 230.412C126.201 231.494 127.092 232.391 128.167 233.012L126.63 235.674Z" fill="white"/>
<path d="M129.759 188.851H58.4754C58.2341 188.851 58.0386 189.046 58.0386 189.287V235.499C58.0386 235.741 58.2341 235.936 58.4754 235.936H129.759C130 235.936 130.196 235.741 130.196 235.499V189.287C130.196 189.046 130 188.851 129.759 188.851Z" fill="white" stroke="#0C38B7"/>
<path d="M84.0276 191.996H121.329C121.691 191.996 121.984 191.702 121.984 191.34C121.984 190.979 121.691 190.685 121.329 190.685H84.0276C83.6657 190.685 83.3724 190.979 83.3724 191.34C83.3724 191.702 83.6657 191.996 84.0276 191.996Z" fill="#E2EBF4"/>
<path d="M60.616 197.936H67.692C68.0538 197.936 68.3472 197.642 68.3472 197.281C68.3472 196.919 68.0538 196.625 67.692 196.625H60.616C60.2542 196.625 59.9609 196.919 59.9609 197.281C59.9609 197.642 60.2542 197.936 60.616 197.936Z" fill="#E2EBF4"/>
<path d="M60.616 201.343H67.692C68.0538 201.343 68.3472 201.049 68.3472 200.687C68.3472 200.326 68.0538 200.032 67.692 200.032H60.616C60.2542 200.032 59.9609 200.326 59.9609 200.687C59.9609 201.049 60.2542 201.343 60.616 201.343Z" fill="#E2EBF4"/>
<path d="M60.616 204.75H67.692C68.0538 204.75 68.3472 204.456 68.3472 204.094C68.3472 203.732 68.0538 203.439 67.692 203.439H60.616C60.2542 203.439 59.9609 203.732 59.9609 204.094C59.9609 204.456 60.2542 204.75 60.616 204.75Z" fill="#E2EBF4"/>
<path d="M60.616 208.156H67.692C68.0538 208.156 68.3472 207.863 68.3472 207.501C68.3472 207.139 68.0538 206.846 67.692 206.846H60.616C60.2542 206.846 59.9609 207.139 59.9609 207.501C59.9609 207.863 60.2542 208.156 60.616 208.156Z" fill="#E2EBF4"/>
<path d="M60.616 215.669H67.692C68.0538 215.669 68.3472 215.376 68.3472 215.014C68.3472 214.652 68.0538 214.359 67.692 214.359H60.616C60.2542 214.359 59.9609 214.652 59.9609 215.014C59.9609 215.376 60.2542 215.669 60.616 215.669Z" fill="#E2EBF4"/>
<path d="M60.616 219.076H67.692C68.0538 219.076 68.3472 218.783 68.3472 218.421C68.3472 218.059 68.0538 217.766 67.692 217.766H60.616C60.2542 217.766 59.9609 218.059 59.9609 218.421C59.9609 218.783 60.2542 219.076 60.616 219.076Z" fill="#E2EBF4"/>
<path d="M60.616 231.394H67.692C68.0538 231.394 68.3472 231.1 68.3472 230.739C68.3472 230.377 68.0538 230.083 67.692 230.083H60.616C60.2542 230.083 59.9609 230.377 59.9609 230.739C59.9609 231.1 60.2542 231.394 60.616 231.394Z" fill="#E2EBF4"/>
<path d="M60.3534 191.995C60.7153 191.995 61.0086 191.702 61.0086 191.34C61.0086 190.978 60.7153 190.685 60.3534 190.685C59.9916 190.685 59.6982 190.978 59.6982 191.34C59.6982 191.702 59.9916 191.995 60.3534 191.995Z" fill="#E2EBF4"/>
<path d="M62.7123 191.995C63.0742 191.995 63.3675 191.702 63.3675 191.34C63.3675 190.978 63.0742 190.685 62.7123 190.685C62.3505 190.685 62.0571 190.978 62.0571 191.34C62.0571 191.702 62.3505 191.995 62.7123 191.995Z" fill="#E2EBF4"/>
<path d="M64.9838 191.995C65.3456 191.995 65.639 191.702 65.639 191.34C65.639 190.978 65.3456 190.685 64.9838 190.685C64.6219 190.685 64.3286 190.978 64.3286 191.34C64.3286 191.702 64.6219 191.995 64.9838 191.995Z" fill="#E2EBF4"/>
<path fill-rule="evenodd" clip-rule="evenodd" d="M117.334 233.283C117.054 233.178 116.78 233.452 116.885 233.732L119.961 242C120.049 242.238 120.356 242.305 120.536 242.125L122.357 240.302L124.836 242.782C124.939 242.884 125.105 242.884 125.207 242.782L126.384 241.605C126.486 241.503 126.486 241.337 126.384 241.235L123.905 238.755L125.727 236.934C125.907 236.754 125.84 236.447 125.602 236.359L117.334 233.283Z" fill="white"/>
<path d="M122.357 240.302L122.45 240.21C122.399 240.159 122.316 240.159 122.265 240.21L122.357 240.302ZM123.905 238.755L123.813 238.663C123.787 238.687 123.774 238.721 123.774 238.755C123.774 238.79 123.787 238.823 123.813 238.848L123.905 238.755ZM117.008 233.687C116.942 233.511 117.113 233.341 117.289 233.405L117.38 233.16C116.994 233.017 116.619 233.392 116.762 233.778L117.008 233.687ZM120.083 241.954L117.008 233.687L116.762 233.778L119.838 242.045L120.083 241.954ZM120.442 242.032C120.331 242.145 120.139 242.103 120.083 241.954L119.838 242.045C119.96 242.374 120.38 242.465 120.629 242.217L120.442 242.032ZM122.265 240.21L120.442 242.032L120.629 242.217L122.45 240.396L122.265 240.21ZM124.929 242.689L122.45 240.21L122.265 240.396L124.744 242.874L124.929 242.689ZM125.114 242.689C125.063 242.74 124.98 242.74 124.929 242.689L124.744 242.874C124.897 243.028 125.146 243.028 125.3 242.874L125.114 242.689ZM126.291 241.512L125.114 242.689L125.3 242.874L126.476 241.697L126.291 241.512ZM126.291 241.327C126.342 241.378 126.342 241.461 126.291 241.512L126.476 241.697C126.63 241.544 126.63 241.295 126.476 241.142L126.291 241.327ZM123.813 238.848L126.291 241.327L126.476 241.142L123.998 238.663L123.813 238.848ZM125.634 236.84L123.813 238.663L123.998 238.848L125.819 237.026L125.634 236.84ZM125.556 236.481C125.705 236.537 125.747 236.728 125.634 236.84L125.819 237.026C126.067 236.778 125.976 236.358 125.647 236.236L125.556 236.481ZM117.289 233.405L125.556 236.481L125.647 236.236L117.38 233.16L117.289 233.405Z" fill="#0C38B7"/>
<path d="M128.791 183.299L126.567 181.076L124.343 183.299L126.567 185.523L128.791 183.299Z" fill="#FF952F"/>
<path d="M61.3634 168.078H62.5722C62.4848 168.733 62.1864 169.275 61.6759 169.703C61.1705 170.126 60.5404 170.337 59.783 170.337C58.9381 170.337 58.2514 170.072 57.7255 169.545C57.1982 169.011 56.9346 168.355 56.9346 167.577C56.9346 166.796 57.1982 166.138 57.7255 165.604C58.2514 165.065 58.9381 164.795 59.783 164.795C60.5186 164.795 61.1384 165.004 61.6425 165.422C62.153 165.839 62.4578 166.367 62.5568 167.007H61.3377C61.2451 166.674 61.0587 166.407 60.7783 166.206C60.5044 166 60.17 165.9 59.774 165.905C59.2802 165.91 58.8828 166.075 58.5806 166.397C58.2797 166.714 58.1279 167.105 58.1279 167.57C58.1279 168.034 58.2797 168.428 58.5806 168.752C58.8828 169.074 59.2866 169.235 59.7907 169.235C60.1919 169.235 60.5314 169.13 60.8117 168.918C61.0972 168.706 61.2811 168.426 61.3634 168.078ZM66.3105 166.784V166.278H67.4138V170.226H66.3105V169.703H66.2693C66.1382 169.893 65.9569 170.046 65.7267 170.163C65.4952 170.279 65.2354 170.34 64.9448 170.345C64.3841 170.345 63.9186 170.152 63.5457 169.766C63.1779 169.375 62.994 168.873 62.994 168.26C62.994 167.647 63.1753 167.141 63.5367 166.745C63.9045 166.348 64.3764 166.154 64.9525 166.159C65.238 166.159 65.4952 166.217 65.7267 166.333C65.9569 166.449 66.1382 166.6 66.2693 166.784H66.3105ZM64.4175 169.029C64.6259 169.23 64.8921 169.33 65.2162 169.33C65.5402 169.33 65.8025 169.227 66.0057 169.021C66.2089 168.81 66.3105 168.554 66.3105 168.251C66.3105 167.945 66.2063 167.689 65.998 167.483C65.7948 167.276 65.5338 167.173 65.2162 167.173C64.8921 167.173 64.6259 167.276 64.4175 167.483C64.2144 167.684 64.1128 167.94 64.1128 168.251C64.1128 168.563 64.2144 168.822 64.4175 169.029ZM69.3261 166.278H71.5816V167.308H69.3595C69.2438 167.308 69.1859 167.364 69.1859 167.474C69.1859 167.57 69.2322 167.626 69.3261 167.642L70.8654 167.943C71.1778 168.006 71.4247 168.136 71.6061 168.331C71.7874 168.526 71.8774 168.762 71.8774 169.037C71.8774 169.38 71.7488 169.666 71.4903 169.893C71.2383 170.115 70.9232 170.226 70.5439 170.226H68.1739V169.188H70.5271C70.648 169.188 70.7085 169.13 70.7085 169.013C70.7085 168.923 70.6622 168.864 70.5683 168.838L69.0046 168.514C68.7088 168.456 68.467 168.328 68.2806 168.132C68.0941 167.938 68.0015 167.707 68.0015 167.444C68.0015 167.105 68.1275 166.828 68.3796 166.611C68.6316 166.388 68.948 166.278 69.3261 166.278ZM72.4586 164.517H73.5697V165.77H72.4586V164.517ZM72.4586 166.278H73.5697V170.226H72.4586V166.278ZM76.7987 166.166C77.3028 166.166 77.7002 166.322 77.9921 166.635C78.2827 166.947 78.4281 167.383 78.4281 167.943V170.226H77.317V168.101C77.317 167.826 77.2373 167.61 77.0778 167.451C76.9184 167.292 76.719 167.213 76.4773 167.213C76.2188 167.213 76.0002 167.304 75.8189 167.483C75.6375 167.657 75.5475 167.89 75.5475 168.181V170.226H74.4365V166.278H75.5141V166.753H75.5552C75.8459 166.362 76.2599 166.166 76.7987 166.166ZM82.7746 169.75C82.3682 170.147 81.8358 170.345 81.1774 170.345C80.519 170.345 79.9866 170.147 79.5803 169.75C79.1752 169.354 78.972 168.855 78.972 168.251C78.972 167.654 79.1752 167.157 79.5803 166.761C79.9866 166.36 80.519 166.159 81.1774 166.159C81.8358 166.159 82.3682 166.36 82.7746 166.761C83.1797 167.157 83.3829 167.654 83.3829 168.251C83.3829 168.855 83.1797 169.354 82.7746 169.75ZM81.1774 169.307C81.4951 169.307 81.7561 169.206 81.9593 169.004C82.1676 168.799 82.2718 168.547 82.2718 168.251C82.2718 167.95 82.1702 167.7 81.967 167.498C81.7638 167.292 81.5015 167.19 81.1774 167.19C80.8534 167.19 80.5898 167.292 80.3879 167.498C80.1847 167.7 80.0831 167.95 80.0831 168.251C80.0831 168.554 80.1847 168.804 80.3879 169.004C80.5898 169.206 80.8534 169.307 81.1774 169.307Z" fill="#1844BF"/>
<path d="M85.9932 199.246H74.2873C73.9496 199.246 73.6758 199.52 73.6758 199.858V225.628C73.6758 225.966 73.9496 226.24 74.2873 226.24H85.9932C86.3309 226.24 86.6047 225.966 86.6047 225.628V199.858C86.6047 199.52 86.3309 199.246 85.9932 199.246Z" fill="#E2EBF4"/>
<path d="M117.354 196.8H72.0159C71.7747 196.8 71.5791 196.996 71.5791 197.237V228.249C71.5791 228.49 71.7747 228.686 72.0159 228.686H117.354C117.596 228.686 117.791 228.49 117.791 228.249V197.237C117.791 196.996 117.596 196.8 117.354 196.8Z" fill="white" stroke="#E2EBF4" stroke-linecap="round" stroke-linejoin="round"/>
<path d="M121.547 206.672H120.848C120.607 206.672 120.412 206.867 120.412 207.108V219.164C120.412 219.405 120.607 219.601 120.848 219.601H121.547C121.788 219.601 121.984 219.405 121.984 219.164V207.108C121.984 206.867 121.788 206.672 121.547 206.672Z" fill="white" stroke="#E2EBF4" stroke-linecap="round" stroke-linejoin="round"/>
<path d="M85.6439 234.276H81.0139C80.7727 234.276 80.5771 234.472 80.5771 234.713V240.741C80.5771 240.982 80.7727 241.178 81.0139 241.178H85.6439C85.8851 241.178 86.0807 240.982 86.0807 240.741V234.713C86.0807 234.472 85.8851 234.276 85.6439 234.276Z" fill="#1844BF" stroke="#0C38B7"/>
<path d="M85.6439 233.141H81.0139C80.7727 233.141 80.5771 233.336 80.5771 233.578V239.605C80.5771 239.847 80.7727 240.042 81.0139 240.042H85.6439C85.8851 240.042 86.0807 239.847 86.0807 239.605V233.578C86.0807 233.336 85.8851 233.141 85.6439 233.141Z" fill="white" stroke="#0C38B7"/>
<path d="M92.7196 234.276H88.0896C87.8484 234.276 87.6528 234.472 87.6528 234.713V240.741C87.6528 240.982 87.8484 241.178 88.0896 241.178H92.7196C92.9608 241.178 93.1563 240.982 93.1563 240.741V234.713C93.1563 234.472 92.9608 234.276 92.7196 234.276Z" fill="#1844BF" stroke="#0C38B7"/>
<path d="M92.7196 233.141H88.0896C87.8484 233.141 87.6528 233.336 87.6528 233.578V239.605C87.6528 239.847 87.8484 240.042 88.0896 240.042H92.7196C92.9608 240.042 93.1563 239.847 93.1563 239.605V233.578C93.1563 233.336 92.9608 233.141 92.7196 233.141Z" fill="white" stroke="#0C38B7"/>
<path d="M99.8831 234.276H95.2532C95.012 234.276 94.8164 234.472 94.8164 234.713V240.741C94.8164 240.982 95.012 241.178 95.2532 241.178H99.8831C100.124 241.178 100.32 240.982 100.32 240.741V234.713C100.32 234.472 100.124 234.276 99.8831 234.276Z" fill="#1844BF" stroke="#0C38B7"/>
<path d="M99.8831 233.141H95.2532C95.012 233.141 94.8164 233.336 94.8164 233.578V239.605C94.8164 239.847 95.012 240.042 95.2532 240.042H99.8831C100.124 240.042 100.32 239.847 100.32 239.605V233.578C100.32 233.336 100.124 233.141 99.8831 233.141Z" fill="white" stroke="#0C38B7"/>
<path d="M106.959 234.276H102.329C102.088 234.276 101.892 234.472 101.892 234.713V240.741C101.892 240.982 102.088 241.178 102.329 241.178H106.959C107.2 241.178 107.396 240.982 107.396 240.741V234.713C107.396 234.472 107.2 234.276 106.959 234.276Z" fill="#1844BF" stroke="#0C38B7"/>
<path d="M106.959 233.141H102.329C102.088 233.141 101.892 233.336 101.892 233.578V239.605C101.892 239.847 102.088 240.042 102.329 240.042H106.959C107.2 240.042 107.396 239.847 107.396 239.605V233.578C107.396 233.336 107.2 233.141 106.959 233.141Z" fill="white" stroke="#0C38B7"/>
<path d="M77.8574 210.384V208.288H84.1865V209.886L80.8319 217.067H78.4995L81.7361 210.384H77.8574Z" fill="#FF952F"/>
<path d="M92.0967 210.384V208.288H98.4257V209.886L95.0712 217.067H92.7387L95.9753 210.384H92.0967Z" fill="#FF952F"/>
<path d="M106.205 210.384V208.288H112.534V209.886L109.18 217.067H106.847L110.084 210.384H106.205Z" fill="#FF952F"/>
<path d="M88.3516 182.998C88.3516 180.103 90.698 177.756 93.593 177.756C96.488 177.756 98.8345 180.103 98.8345 182.998V187.18C98.8345 187.379 98.6737 187.54 98.4745 187.54H88.7115C88.5123 187.54 88.3516 187.379 88.3516 187.18V182.998Z" fill="white" stroke="#0C38B7"/>
<path d="M90.7104 183.26C90.7104 181.667 92.0007 180.377 93.5932 180.377C95.1858 180.377 96.476 181.667 96.476 183.26V187.277C96.476 187.422 96.3581 187.54 96.2131 187.54H90.9734C90.8284 187.54 90.7104 187.422 90.7104 187.277V183.26Z" fill="#FF952F"/>
<path d="M100.057 188.803C100.057 188.105 99.4921 187.54 98.795 187.54H88.3907C87.6936 187.54 87.1284 188.105 87.1284 188.803C87.1284 188.829 87.1503 188.851 87.1765 188.851H100.009C100.035 188.851 100.057 188.829 100.057 188.803Z" fill="white" stroke="#0C38B7"/>
<path d="M75.772 206.147H85.8181" stroke="#0C38B7" stroke-linecap="round"/>
<path d="M75.772 219.251H85.8181" stroke="#0C38B7" stroke-linecap="round"/>
<path d="M89.6621 206.147H99.7956" stroke="#0C38B7" stroke-linecap="round"/>
<path d="M89.6621 219.251H99.7956" stroke="#0C38B7" stroke-linecap="round"/>
<path d="M104.338 206.147H114.384" stroke="#0C38B7" stroke-linecap="round"/>
<path d="M104.338 219.251H114.384" stroke="#0C38B7" stroke-linecap="round"/>
<path d="M80.2274 203.769C79.8501 204.448 78.9931 204.693 78.3135 204.315C77.6338 203.938 77.3883 203.081 77.7666 202.401C78.1221 201.761 78.8717 201.351 79.4674 201.926C79.5417 201.998 79.6317 202.052 79.7304 202.08C80.5856 202.325 80.5847 203.126 80.2274 203.769Z" stroke="#1844BF"/>
<path d="M84.0659 203.801C84.0869 204.578 83.4736 205.225 82.6961 205.246C81.9195 205.267 81.2722 204.653 81.2521 203.876C81.232 203.144 81.6697 202.41 82.4751 202.601C82.5747 202.626 82.6795 202.626 82.7791 202.601C83.6405 202.375 84.0467 203.065 84.0659 203.801Z" stroke="#1844BF"/>
<path d="M79.7173 202.028C80.1646 201.767 81.2067 200.846 81.889 199.215C81.9152 199.152 81.9947 199.143 82.0244 199.204C82.3057 199.794 82.6813 201.614 82.5844 202.566" stroke="#1844BF" stroke-linecap="round"/>
<path d="M94.4667 203.769C94.0893 204.448 93.2324 204.693 92.5527 204.315C91.8731 203.938 91.6276 203.081 92.0059 202.401C92.3614 201.761 93.1109 201.351 93.7067 201.926C93.781 201.998 93.8709 202.052 93.9696 202.08C94.8249 202.325 94.824 203.126 94.4667 203.769Z" stroke="#1844BF"/>
<path d="M98.3052 203.801C98.3261 204.578 97.7129 205.225 96.9354 205.246C96.1588 205.267 95.5115 204.653 95.4914 203.876C95.4713 203.144 95.909 202.41 96.7144 202.601C96.814 202.626 96.9188 202.626 97.0184 202.601C97.8797 202.375 98.2859 203.065 98.3052 203.801Z" stroke="#1844BF"/>
<path d="M93.9565 202.028C94.4038 201.767 95.446 200.846 96.1283 199.215C96.1545 199.152 96.234 199.143 96.2637 199.204C96.545 199.794 96.9206 201.614 96.8236 202.566" stroke="#1844BF" stroke-linecap="round"/>
<path d="M108.619 203.769C108.241 204.448 107.384 204.693 106.705 204.315C106.025 203.938 105.779 203.081 106.158 202.401C106.513 201.761 107.263 201.351 107.859 201.926C107.933 201.998 108.023 202.052 108.122 202.08C108.977 202.325 108.976 203.126 108.619 203.769Z" stroke="#1844BF"/>
<path d="M112.457 203.801C112.478 204.578 111.865 205.225 111.087 205.246C110.311 205.267 109.663 204.653 109.643 203.876C109.623 203.144 110.061 202.41 110.866 202.601C110.966 202.626 111.071 202.626 111.17 202.601C112.032 202.375 112.438 203.065 112.457 203.801Z" stroke="#1844BF"/>
<path d="M108.108 202.028C108.556 201.767 109.598 200.846 110.28 199.215C110.306 199.152 110.386 199.143 110.416 199.204C110.697 199.794 111.072 201.614 110.975 202.566" stroke="#1844BF" stroke-linecap="round"/>
<path d="M96.5196 227.12C96.7956 226.932 97.0612 226.713 97.311 226.463C98.6441 225.131 99.1001 223.337 98.5445 222.059C98.4737 221.896 98.4921 221.709 98.5576 221.545C98.6607 221.287 98.6397 221.024 98.4764 220.86C98.313 220.697 98.0492 220.676 97.7924 220.779C97.6273 220.845 97.4403 220.863 97.2778 220.792C95.9998 220.237 94.2055 220.693 92.8733 222.026C91.5411 223.358 91.0842 225.152 91.6398 226.43C91.7105 226.593 91.6922 226.78 91.6267 226.945C91.6031 227.003 91.5865 227.062 91.576 227.12" stroke="#1844BF"/>
<path d="M82.2813 227.12C82.5573 226.932 82.8229 226.713 83.0728 226.463C84.4058 225.131 84.8618 223.337 84.3062 222.059C84.2355 221.896 84.2538 221.709 84.3193 221.545C84.4224 221.287 84.4014 221.024 84.2381 220.86C84.0747 220.697 83.8109 220.676 83.5541 220.779C83.389 220.845 83.202 220.863 83.0395 220.792C81.7615 220.237 79.9672 220.693 78.635 222.026C77.3028 223.358 76.8459 225.152 77.4015 226.43C77.4723 226.593 77.4539 226.78 77.3884 226.945C77.3648 227.003 77.3473 227.062 77.3377 227.12" stroke="#1844BF"/>
<path d="M110.672 227.12C110.948 226.932 111.214 226.713 111.464 226.463C112.797 225.131 113.253 223.337 112.697 222.059C112.627 221.896 112.645 221.709 112.71 221.545C112.814 221.287 112.793 221.024 112.629 220.86C112.466 220.697 112.202 220.676 111.945 220.779C111.78 220.845 111.593 220.863 111.431 220.792C110.153 220.237 108.358 220.693 107.026 222.026C105.694 223.358 105.237 225.152 105.793 226.43C105.863 226.593 105.845 226.78 105.78 226.945C105.756 227.003 105.738 227.062 105.729 227.12" stroke="#1844BF"/>
<path d="M101.106 198.373H89.0506C88.8093 198.373 88.6138 198.568 88.6138 198.809V226.676C88.6138 226.918 88.8093 227.113 89.0506 227.113H101.106C101.347 227.113 101.543 226.918 101.543 226.676V198.809C101.543 198.568 101.347 198.373 101.106 198.373Z" stroke="#0C38B7"/>
<path d="M86.7793 198.373H74.8113C74.5701 198.373 74.3745 198.568 74.3745 198.809V226.676C74.3745 226.918 74.5701 227.113 74.8113 227.113H86.7793C87.0205 227.113 87.2161 226.918 87.2161 226.676V198.809C87.2161 198.568 87.0205 198.373 86.7793 198.373Z" stroke="#0C38B7"/>
<path d="M115.345 198.373H103.29C103.049 198.373 102.853 198.568 102.853 198.809V226.676C102.853 226.918 103.049 227.113 103.29 227.113H115.345C115.586 227.113 115.782 226.918 115.782 226.676V198.809C115.782 198.568 115.586 198.373 115.345 198.373Z" stroke="#0C38B7"/>
<path d="M122.159 218.465H119.276C119.035 218.465 118.839 218.66 118.839 218.902V220.212C118.839 220.453 119.035 220.649 119.276 220.649H122.159C122.4 220.649 122.596 220.453 122.596 220.212V218.902C122.596 218.66 122.4 218.465 122.159 218.465Z" fill="white" stroke="#E2EBF4" stroke-linecap="round" stroke-linejoin="round"/>
<path d="M117.791 216.456H119.363C119.605 216.456 119.8 216.651 119.8 216.892V222.92C119.8 223.161 119.605 223.357 119.363 223.357H117.791V216.456Z" fill="white" stroke="#E2EBF4" stroke-linecap="round" stroke-linejoin="round"/>
<path d="M121.198 209.642C122.452 209.642 123.469 208.644 123.469 207.414C123.469 206.184 122.452 205.187 121.198 205.187C119.944 205.187 118.927 206.184 118.927 207.414C118.927 208.644 119.944 209.642 121.198 209.642Z" fill="white" stroke="#E2EBF4" stroke-linecap="round" stroke-linejoin="round"/>
<path d="M126.504 297.419H55.22C54.9788 297.419 54.7832 297.614 54.7832 297.855V344.068C54.7832 344.309 54.9788 344.504 55.22 344.504H126.504C126.745 344.504 126.94 344.309 126.94 344.068V297.855C126.94 297.614 126.745 297.419 126.504 297.419Z" fill="#E2EBF4"/>
<path d="M109.032 289.862H62.2959C62.0305 289.862 61.8154 290.077 61.8154 290.343V336.205C61.8154 336.471 62.0305 336.686 62.2959 336.686H109.032C109.297 336.686 109.513 336.471 109.513 336.205V290.343C109.513 290.077 109.297 289.862 109.032 289.862Z" stroke="#E2EBF4" stroke-dasharray="2.73 2.73"/>
<path d="M133.23 289.862H113.575C113.309 289.862 113.094 290.077 113.094 290.343V336.205C113.094 336.471 113.309 336.686 113.575 336.686H133.23C133.495 336.686 133.711 336.471 133.711 336.205V290.343C133.711 290.077 133.495 289.862 133.23 289.862Z" stroke="#E2EBF4"/>
<path d="M129.124 294.274H57.8406C57.5994 294.274 57.4038 294.469 57.4038 294.711V340.923C57.4038 341.164 57.5994 341.359 57.8406 341.359H129.124C129.365 341.359 129.561 341.164 129.561 340.923V294.711C129.561 294.469 129.365 294.274 129.124 294.274Z" fill="white" stroke="#0C38B7"/>
<path d="M83.3928 297.419H120.694C121.056 297.419 121.35 297.125 121.35 296.764C121.35 296.402 121.056 296.108 120.694 296.108H83.3928C83.031 296.108 82.7376 296.402 82.7376 296.764C82.7376 297.125 83.031 297.419 83.3928 297.419Z" fill="#E2EBF4"/>
<path d="M59.7191 297.419C60.081 297.419 60.3743 297.125 60.3743 296.763C60.3743 296.402 60.081 296.108 59.7191 296.108C59.3573 296.108 59.064 296.402 59.064 296.763C59.064 297.125 59.3573 297.419 59.7191 297.419Z" fill="#E2EBF4"/>
<path d="M62.0775 297.419C62.4394 297.419 62.7327 297.125 62.7327 296.763C62.7327 296.402 62.4394 296.108 62.0775 296.108C61.7157 296.108 61.4224 296.402 61.4224 296.763C61.4224 297.125 61.7157 297.419 62.0775 297.419Z" fill="#E2EBF4"/>
<path d="M64.349 297.419C64.7109 297.419 65.0042 297.125 65.0042 296.763C65.0042 296.402 64.7109 296.108 64.349 296.108C63.9872 296.108 63.6938 296.402 63.6938 296.763C63.6938 297.125 63.9872 297.419 64.349 297.419Z" fill="#E2EBF4"/>
<path d="M79.0249 330.702C80.3517 330.702 81.4272 329.626 81.4272 328.3C81.4272 326.973 80.3517 325.897 79.0249 325.897C77.6981 325.897 76.6226 326.973 76.6226 328.3C76.6226 329.626 77.6981 330.702 79.0249 330.702Z" stroke="#0C38B7" stroke-linecap="round"/>
<path d="M74.7446 304.931C73.4179 304.931 72.3423 303.856 72.3423 302.529C72.3423 301.202 73.4179 300.127 74.7446 300.127C76.0714 300.127 77.147 301.202 77.147 302.529C77.147 303.856 76.0714 304.931 74.7446 304.931Z" stroke="#0C38B7" stroke-linecap="round"/>
<path d="M79.0249 326.858C79.821 326.858 80.4663 327.504 80.4663 328.3C80.4663 329.096 79.821 329.741 79.0249 329.741C78.2288 329.741 77.5835 329.096 77.5835 328.3C77.5835 327.504 78.2288 326.858 79.0249 326.858Z" fill="#1844BF"/>
<path d="M74.7446 301.088C73.9486 301.088 73.3032 301.733 73.3032 302.529C73.3032 303.325 73.9486 303.971 74.7446 303.971C75.5407 303.971 76.186 303.325 76.186 302.529C76.186 301.733 75.5407 301.088 74.7446 301.088Z" fill="#1844BF"/>
<path d="M111.085 306.853C111.881 306.853 112.526 307.499 112.526 308.295C112.526 309.091 111.881 309.736 111.085 309.736C110.289 309.736 109.644 309.091 109.644 308.295C109.644 307.499 110.289 306.853 111.085 306.853Z" fill="#1844BF"/>
<path d="M116.414 320.481C117.21 320.481 117.855 321.126 117.855 321.922C117.855 322.719 117.21 323.364 116.414 323.364C115.618 323.364 114.973 322.719 114.973 321.922C114.973 321.126 115.618 320.481 116.414 320.481Z" fill="#1844BF"/>
<path d="M111.085 310.697C112.412 310.697 113.487 309.621 113.487 308.295C113.487 306.968 112.412 305.892 111.085 305.892C109.758 305.892 108.683 306.968 108.683 308.295C108.683 309.621 109.758 310.697 111.085 310.697Z" stroke="#0C38B7" stroke-linecap="round"/>
<path d="M116.414 324.325C117.741 324.325 118.816 323.249 118.816 321.922C118.816 320.596 117.741 319.52 116.414 319.52C115.087 319.52 114.012 320.596 114.012 321.922C114.012 323.249 115.087 324.325 116.414 324.325Z" stroke="#0C38B7" stroke-linecap="round"/>
<path d="M61.5514 273.863H62.676C62.5948 274.482 62.3163 274.994 61.8418 275.4C61.3734 275.799 60.7865 275.999 60.0826 275.999C59.2974 275.999 58.6604 275.749 58.1704 275.25C57.6816 274.745 57.4366 274.125 57.4366 273.39C57.4366 272.65 57.6816 272.028 58.1704 271.524C58.6604 271.014 59.2974 270.759 60.0826 270.759C60.7662 270.759 61.3423 270.957 61.812 271.351C62.2852 271.746 62.5684 272.245 62.6605 272.851H61.5287C61.4415 272.536 61.2682 272.283 61.0088 272.093C60.7531 271.898 60.4423 271.804 60.0754 271.808C59.6165 271.813 59.246 271.969 58.9664 272.273C58.6855 272.573 58.5457 272.943 58.5457 273.383C58.5457 273.822 58.6855 274.194 58.9664 274.5C59.246 274.805 59.6213 274.957 60.0909 274.957C60.4626 274.957 60.7794 274.857 61.0387 274.657C61.304 274.457 61.4749 274.192 61.5514 273.863ZM65.2013 272.161H66.0045V273.173H65.1475C64.8978 273.173 64.6946 273.253 64.5357 273.413C64.3779 273.572 64.299 273.78 64.299 274.035V275.894H63.2664V272.161H64.2452V272.745H64.2835C64.4317 272.355 64.7376 272.161 65.2013 272.161ZM68.4581 274.994L69.3915 272.161H70.4396L68.9242 276.501C68.8226 276.786 68.6672 277.005 68.4581 277.161C68.2489 277.316 67.9968 277.393 67.7004 277.393H66.6152V276.403H67.6705C67.7721 276.403 67.8593 276.381 67.9298 276.337L66.179 272.161H67.3107L68.4581 274.994ZM73.1131 272.048C73.6485 272.044 74.0836 272.228 74.4206 272.602C74.7624 272.977 74.9333 273.455 74.9333 274.035C74.9333 274.615 74.76 275.089 74.4134 275.459C74.0716 275.824 73.6401 276.006 73.1202 276.006C72.8501 276.002 72.6076 275.944 72.3937 275.834C72.1797 275.724 72.0112 275.579 71.8893 275.4H71.8511V277.393H70.8256V272.161H71.8511V272.64H71.8893C72.0112 272.465 72.1797 272.322 72.3937 272.214C72.6124 272.103 72.8526 272.048 73.1131 272.048ZM72.1331 274.754C72.3219 274.95 72.5669 275.047 72.8681 275.047C73.1681 275.047 73.4131 274.952 73.6019 274.762C73.7955 274.567 73.8924 274.322 73.8924 274.027C73.8924 273.733 73.7955 273.49 73.6019 273.301C73.4131 273.105 73.1681 273.008 72.8681 273.008C72.5717 273.008 72.3267 273.105 72.1331 273.301C71.9443 273.495 71.8511 273.737 71.8511 274.027C71.8511 274.313 71.9443 274.555 72.1331 274.754ZM78.2868 272.161V273.135H76.7188V274.626C76.7188 274.717 76.7475 274.787 76.8037 274.837C76.8598 274.887 76.9328 274.912 77.0248 274.912H78.2868V275.894H76.8335C76.4822 275.894 76.2013 275.797 75.9922 275.601C75.789 275.402 75.6862 275.134 75.6862 274.8V273.135H75.1508V272.161H75.6862V270.871H76.7188V272.161H78.2868ZM82.1303 275.444C81.7527 275.819 81.2579 276.006 80.646 276.006C80.0341 276.006 79.5393 275.819 79.1617 275.444C78.7852 275.069 78.5964 274.597 78.5964 274.027C78.5964 273.462 78.7852 272.992 79.1617 272.618C79.5393 272.238 80.0341 272.048 80.646 272.048C81.2579 272.048 81.7527 272.238 82.1303 272.618C82.5068 272.992 82.6956 273.462 82.6956 274.027C82.6956 274.597 82.5068 275.069 82.1303 275.444ZM80.646 275.025C80.9424 275.025 81.1838 274.93 81.3727 274.739C81.5663 274.544 81.663 274.307 81.663 274.027C81.663 273.742 81.5687 273.506 81.3798 273.315C81.1922 273.12 80.9472 273.023 80.646 273.023C80.3448 273.023 80.101 273.12 79.9122 273.315C79.7233 273.506 79.629 273.742 79.629 274.027C79.629 274.313 79.7233 274.549 79.9122 274.739C80.101 274.93 80.3448 275.025 80.646 275.025ZM60.4651 279.902V279.423H61.4905V283.538C61.4905 283.899 61.3877 284.173 61.1845 284.363C60.9849 284.558 60.6993 284.655 60.3276 284.655H57.8799V283.643H60.1053C60.3455 283.643 60.4651 283.531 60.4651 283.306V282.662H60.4268C60.3049 282.841 60.1364 282.986 59.9225 283.096C59.7085 283.206 59.4659 283.264 59.1958 283.268C58.6759 283.268 58.2421 283.086 57.8955 282.721C57.5537 282.351 57.3828 281.877 57.3828 281.297C57.3828 280.717 57.5513 280.239 57.8871 279.865C58.2289 279.49 58.6676 279.306 59.203 279.311C59.4683 279.311 59.7085 279.366 59.9225 279.476C60.1364 279.585 60.3049 279.728 60.4268 279.902H60.4651ZM58.7058 282.025C58.8994 282.214 59.1468 282.309 59.448 282.309C59.7491 282.309 59.9942 282.212 60.1818 282.016C60.3706 281.817 60.4651 281.575 60.4651 281.289C60.4651 281 60.3682 280.757 60.1746 280.563C59.9858 280.367 59.7432 280.27 59.448 280.27C59.1468 280.27 58.8994 280.367 58.7058 280.563C58.517 280.753 58.4225 280.995 58.4225 281.289C58.4225 281.584 58.517 281.829 58.7058 282.025ZM65.089 279.902V279.423H66.1144V283.156H65.089V282.662H65.0507C64.9288 282.841 64.7603 282.986 64.5464 283.096C64.3313 283.206 64.0899 283.264 63.8198 283.268C63.2987 283.268 62.8661 283.086 62.5195 282.721C62.1777 282.351 62.0068 281.877 62.0068 281.297C62.0068 280.717 62.1752 280.239 62.5111 279.865C62.8529 279.49 63.2915 279.306 63.8269 279.311C64.0923 279.311 64.3313 279.366 64.5464 279.476C64.7603 279.585 64.9288 279.728 65.0507 279.902H65.089ZM63.3298 282.025C63.5234 282.214 63.7707 282.309 64.0719 282.309C64.3719 282.309 64.6169 282.212 64.8057 282.016C64.9946 281.817 65.089 281.575 65.089 281.289C65.089 281 64.9922 280.757 64.7986 280.563C64.6097 280.367 64.3671 280.27 64.0719 280.27C63.7707 280.27 63.5234 280.367 63.3298 280.563C63.1409 280.753 63.0465 280.995 63.0465 281.289C63.0465 281.584 63.1409 281.829 63.3298 282.025ZM69.7715 279.423V280.398H68.2035V281.889C68.2035 281.979 68.2322 282.049 68.2884 282.1C68.3445 282.149 68.4175 282.174 68.5095 282.174H69.7715V283.156H68.3183C67.9669 283.156 67.686 283.059 67.4769 282.863C67.2737 282.664 67.1709 282.396 67.1709 282.062V280.398H66.6355V279.423H67.1709V278.133H68.2035V279.423H69.7715ZM72.0698 279.311C72.702 279.311 73.2015 279.531 73.5684 279.97C73.9353 280.409 74.0836 280.962 74.0119 281.626H71.1364C71.1674 281.827 71.2642 281.996 71.4268 282.137C71.5953 282.272 71.8068 282.344 72.0614 282.354C72.2406 282.364 72.4056 282.334 72.5586 282.264C72.7175 282.189 72.8298 282.091 72.8956 281.972H73.9736C73.8517 282.382 73.6174 282.702 73.2709 282.931C72.9243 283.156 72.5203 283.268 72.0614 283.268C71.4447 283.268 70.9606 283.079 70.6081 282.699C70.2567 282.314 70.0811 281.844 70.0811 281.289C70.0811 280.73 70.2675 280.259 70.6392 279.88C71.0168 279.5 71.4937 279.311 72.0698 279.311ZM72.6351 280.382C72.4773 280.272 72.2861 280.217 72.0614 280.217C71.8379 280.217 71.6407 280.275 71.4734 280.389C71.3096 280.499 71.1997 280.649 71.1436 280.839H72.9649C72.9087 280.645 72.7988 280.492 72.6351 280.382ZM78.1972 281.754L78.8856 279.423H79.9564L78.741 283.156H77.7538L77.0116 280.779L76.2622 283.156H75.2751L74.0597 279.423H75.1305L75.8344 281.754L76.5455 279.423H77.4706L78.1972 281.754ZM83.0829 279.902V279.423H84.1083V283.156H83.0829V282.662H83.0446C82.9227 282.841 82.7542 282.986 82.5403 283.096C82.3264 283.206 82.0837 283.264 81.8136 283.268C81.2938 283.268 80.8599 283.086 80.5134 282.721C80.1716 282.351 80.0006 281.877 80.0006 281.297C80.0006 280.717 80.1691 280.239 80.505 279.865C80.8468 279.49 81.2854 279.306 81.8208 279.311C82.0861 279.311 82.3264 279.366 82.5403 279.476C82.7542 279.585 82.9227 279.728 83.0446 279.902H83.0829ZM81.3236 282.025C81.5172 282.214 81.7646 282.309 82.0658 282.309C82.367 282.309 82.612 282.212 82.7996 282.016C82.9885 281.817 83.0829 281.575 83.0829 281.289C83.0829 281 82.9861 280.757 82.7925 280.563C82.6036 280.367 82.361 280.27 82.0658 280.27C81.7646 280.27 81.5172 280.367 81.3236 280.563C81.1348 280.753 81.0404 280.995 81.0404 281.289C81.0404 281.584 81.1348 281.829 81.3236 282.025ZM86.7806 282.256L87.714 279.423H88.7621L87.2479 283.763C87.1451 284.049 86.9898 284.268 86.7806 284.423C86.5715 284.578 86.3193 284.655 86.0241 284.655H84.9377V283.666H85.993C86.0946 283.666 86.1818 283.643 86.2535 283.599L84.5015 279.423H85.6333L86.7806 282.256Z" fill="#1844BF"/>
<path d="M57.4912 316.07H82.1199C82.2361 316.07 82.347 316.023 82.4283 315.942L89.9043 308.466C89.9855 308.385 90.0965 308.338 90.2127 308.338H108.639" stroke="#0C38B7" stroke-linecap="round"/>
<path d="M129.474 321.966H118.904M57.4478 321.966H96.9333H104.664H113.924" stroke="#0C38B7" stroke-linecap="round"/>
<path d="M113.575 308.338H129.517" stroke="#0C38B7" stroke-linecap="round"/>
<path d="M81.5146 328.343H93.8259C93.9421 328.343 94.0531 328.39 94.1343 328.471L101.61 335.947C101.692 336.028 101.803 336.074 101.919 336.074H129.518" stroke="#0C38B7" stroke-linecap="round"/>
<path d="M72.2548 302.573H57.3604" stroke="#0C38B7" stroke-linecap="round"/>
<path d="M57.4912 328.343H76.5788" stroke="#0C38B7" stroke-linecap="round"/>
<path d="M128.906 302.573H77.1904" stroke="#0C38B7" stroke-linecap="round"/>
<path d="M59.5231 313.318C62.9334 313.318 65.6981 310.58 65.6981 307.203C65.6981 303.826 62.9334 301.088 59.5231 301.088C56.1127 301.088 53.3481 303.826 53.3481 307.203C53.3481 310.58 56.1127 313.318 59.5231 313.318Z" fill="#F18721"/>
<path d="M61.0226 301.088H59.4639V313.318H61.0226V301.088Z" fill="#F18721"/>
<path d="M60.9631 313.318C64.3734 313.318 67.138 310.58 67.138 307.203C67.138 303.826 64.3734 301.088 60.9631 301.088C57.5527 301.088 54.7881 303.826 54.7881 307.203C54.7881 310.58 57.5527 313.318 60.9631 313.318Z" fill="#FF952F"/>
<path fill-rule="evenodd" clip-rule="evenodd" d="M60.4976 306.705C60.9247 306.721 62.0115 306.763 62.0097 305.934C62.0054 305.142 61.1152 305.157 60.6277 305.166C60.5535 305.167 60.4871 305.169 60.4347 305.166L60.4338 306.703C60.4539 306.704 60.4731 306.705 60.4976 306.705ZM61.6253 303.008L61.6271 304.276C62.4937 304.361 63.1847 304.662 63.2633 305.578C63.3183 306.252 63.0728 306.641 62.6841 306.888C63.3358 307.059 63.7403 307.506 63.6477 308.484C63.5577 309.702 62.7593 310.033 61.6402 310.111L61.6393 311.394L60.9632 311.392L60.9623 310.13C60.8531 310.127 60.7439 310.127 60.6286 310.126C60.5622 310.125 60.4958 310.125 60.4259 310.124L60.4294 311.399H59.755V310.115C59.6292 310.118 59.5026 310.118 59.3733 310.116C59.3383 310.116 59.3034 310.115 59.2711 310.114H58.3983L58.5285 309.195C58.5285 309.195 59.0265 309.197 59.0195 309.192C59.1942 309.176 59.2597 309.03 59.2684 308.929L59.2623 305.456C59.237 305.286 59.1514 305.114 58.8762 305.118C58.8858 305.108 58.3853 305.119 58.3853 305.119L58.3888 304.293L59.3156 304.29C59.396 304.292 59.4807 304.289 59.5663 304.289C59.6257 304.287 59.6851 304.286 59.7436 304.286L59.7428 303.024L60.4093 303.014L60.4128 304.261C60.5945 304.249 60.771 304.247 60.951 304.246L60.9527 303.024L61.6245 303.006L61.6253 303.008ZM60.4417 307.492L60.446 309.19C60.4783 309.19 60.5168 309.19 60.5604 309.191C61.1021 309.2 62.3277 309.222 62.3268 308.333C62.3286 307.426 61.1554 307.467 60.5963 307.488C60.5377 307.49 60.4845 307.491 60.4417 307.492Z" fill="white"/>
<path d="M69.0664 293.903C70.9358 290.233 73.229 288.072 75.7056 288.072C82.0014 288.072 87.1057 302.034 87.1057 319.258C87.1057 336.482 82.0014 350.445 75.7056 350.445C72.6987 350.445 69.9644 347.261 67.9272 342.058" stroke="#FF952F"/>
<path d="M71.4722 293.903C73.3416 290.233 75.6339 288.072 78.1113 288.072C84.4072 288.072 89.5115 302.034 89.5115 319.258C89.5115 336.482 84.4072 350.445 78.1113 350.445C75.1045 350.445 72.3702 347.261 70.333 342.058" stroke="#FF952F"/>
<path d="M90.0791 293.903C91.9485 290.233 94.2408 288.072 96.7182 288.072C103.014 288.072 108.118 302.034 108.118 319.258C108.118 336.482 103.014 350.445 96.7182 350.445C93.7114 350.445 90.9771 347.261 88.9399 342.058" stroke="#FF952F"/>
<path d="M108.605 293.903C110.475 290.233 112.768 288.072 115.244 288.072C121.541 288.072 126.644 302.034 126.644 319.258C126.644 336.482 121.541 350.445 115.244 350.445C112.238 350.445 109.503 347.261 107.467 342.058" stroke="#FF952F"/>
<path d="M87.6333 293.903C89.5027 290.233 91.795 288.072 94.2724 288.072C100.568 288.072 105.673 302.034 105.673 319.258C105.673 336.482 100.568 350.445 94.2724 350.445C91.2656 350.445 88.5313 347.261 86.4941 342.058" stroke="#FF952F"/>
<path d="M106.2 293.903C108.07 290.233 110.362 288.072 112.839 288.072C119.135 288.072 124.239 302.034 124.239 319.258C124.239 336.482 119.135 350.445 112.839 350.445C109.833 350.445 107.098 347.261 105.061 342.058" stroke="#FF952F"/>
<path d="M92.8449 345.687C96.0735 345.687 98.6908 343.095 98.6908 339.898C98.6908 336.701 96.0735 334.109 92.8449 334.109C89.6163 334.109 86.999 336.701 86.999 339.898C86.999 343.095 89.6163 345.687 92.8449 345.687Z" fill="#0C38B7"/>
<path d="M94.2638 334.109H92.7881V345.687H94.2638V334.109Z" fill="#0C38B7"/>
<path d="M94.2077 345.687C97.4363 345.687 100.054 343.095 100.054 339.898C100.054 336.701 97.4363 334.109 94.2077 334.109C90.9791 334.109 88.3618 336.701 88.3618 339.898C88.3618 343.095 90.9791 345.687 94.2077 345.687Z" fill="#1844BF"/>
<path d="M94.2205 335.604L96.1764 339.615L94.2205 340.78L92.2637 339.615L94.2205 335.604Z" fill="white"/>
<path d="M94.2211 343.808L92.2651 340.527L94.2211 341.621L96.177 340.527L94.2211 343.808Z" fill="white"/>
<path d="M130.233 305.655C132.968 305.655 135.185 303.459 135.185 300.751C135.185 298.042 132.968 295.846 130.233 295.846C127.498 295.846 125.281 298.042 125.281 300.751C125.281 303.459 127.498 305.655 130.233 305.655Z" fill="#CAD8E5"/>
<path d="M131.387 305.655C134.122 305.655 136.339 303.459 136.339 300.751C136.339 298.042 134.122 295.846 131.387 295.846C128.652 295.846 126.435 298.042 126.435 300.751C126.435 303.459 128.652 305.655 131.387 305.655Z" fill="#E2EBF4"/>
<path fill-rule="evenodd" clip-rule="evenodd" d="M131.839 300.075L131.835 299.422L133.217 299.411L133.21 298.415L129.448 298.443L129.455 299.439L130.837 299.429L130.842 300.081C129.719 300.146 128.876 300.392 128.878 300.681C128.88 300.97 129.726 301.204 130.849 301.251L130.864 303.344L131.863 303.337L131.848 301.243C132.968 301.179 133.81 300.932 133.807 300.645C133.806 300.357 132.962 300.122 131.84 300.074L131.839 300.075ZM131.845 301.067C131.818 301.068 131.674 301.079 131.35 301.082C131.092 301.082 130.911 301.075 130.847 301.074C129.855 301.034 129.112 300.854 129.111 300.629C129.109 300.405 129.849 300.213 130.841 300.158L130.845 300.888C130.911 300.892 131.097 300.902 131.354 300.901C131.662 300.898 131.816 300.883 131.845 300.881L131.839 300.151C132.829 300.191 133.57 300.373 133.572 300.597C133.573 300.819 132.835 301.012 131.845 301.067Z" fill="#1844BF"/>
</svg>
