<svg width="70" height="70" viewBox="0 0 70 70" fill="none" xmlns="http://www.w3.org/2000/svg">
<path d="M6.69131 46.4389C18.4766 52.9198 23.2133 63.4742 28.891 66.597C34.5708 69.7198 48.2927 73.0117 62.6583 46.8862C77.0238 20.7606 63.088 8.10421 56.8405 4.66838C27.5921 -11.4122 -14.1804 34.9628 6.69131 46.4389Z" fill="#EFEFEF"/>
<path d="M13.2643 16.9652C11.6563 16.9652 10.3477 15.6566 10.3477 14.0485C10.3477 12.4404 11.6563 11.1318 13.2643 11.1318C14.8724 11.1318 16.181 12.4404 16.181 14.0485C16.181 15.6566 14.8724 16.9652 13.2643 16.9652ZM13.2643 13.0763C12.7277 13.0763 12.2921 13.5118 12.2921 14.0485C12.2921 14.5852 12.7277 15.0207 13.2643 15.0207C13.801 15.0207 14.2365 14.5852 14.2365 14.0485C14.2365 13.5118 13.801 13.0763 13.2643 13.0763Z" fill="#A4AFC1"/>
<path d="M51.2188 57.1841H55.1076V59.1285H51.2188V57.1841Z" fill="#A4AFC1"/>
<path d="M62.4023 57.1841H66.2912V59.1285H62.4023V57.1841Z" fill="#A4AFC1"/>
<path d="M57.5391 62.0454H59.4835V65.9343H57.5391V62.0454Z" fill="#A4AFC1"/>
<path d="M57.5391 50.8647H59.4835V54.7536H57.5391V50.8647Z" fill="#A4AFC1"/>
<path d="M33.1223 56.9375C44.0888 56.9375 52.979 48.0473 52.979 37.0808C52.979 26.1143 44.0888 17.2241 33.1223 17.2241C22.1558 17.2241 13.2656 26.1143 13.2656 37.0808C13.2656 48.0473 22.1558 56.9375 33.1223 56.9375Z" fill="#FEB46D"/>
<path d="M17.1545 37.0808C17.1545 26.7713 25.014 18.3013 35.0667 17.3233C34.427 17.2611 33.7795 17.2241 33.1223 17.2241C22.1556 17.2241 13.2656 26.1141 13.2656 37.0808C13.2656 48.0475 22.1556 56.9375 33.1223 56.9375C33.7795 56.9375 34.427 56.9025 35.0667 56.8383C25.014 55.8602 17.1545 47.3902 17.1545 37.0808Z" fill="#FF6600"/>
<path d="M46.6654 33.5417C52.3033 33.5417 56.8737 28.9712 56.8737 23.3333C56.8737 17.6954 52.3033 13.125 46.6654 13.125C41.0275 13.125 36.457 17.6954 36.457 23.3333C36.457 28.9712 41.0275 33.5417 46.6654 33.5417Z" fill="#F3F3F1"/>
<path d="M17.7539 24.7334C19.2706 25.6473 20.8845 26.4056 22.5956 27.0084C22.6928 27.0473 22.8095 27.0862 22.9067 27.1056C25.59 28.0584 28.5067 28.6028 31.5595 28.7195L17.7539 24.7334Z" fill="#FEB46D"/>
<path d="M13.0664 37.0805H13.1247L20.6692 36.9833H21.3886L32.997 36.8666H33.0553L38.0331 36.8472H38.0525L13.0664 37.0805Z" fill="#FEB46D"/>
<path d="M40.3459 23.3333C40.3459 18.3614 43.9043 14.2294 48.6098 13.3214C47.9798 13.1989 47.3323 13.125 46.6654 13.125C41.0284 13.125 36.457 17.6944 36.457 23.3333C36.457 28.9703 41.0284 33.5417 46.6654 33.5417C47.3323 33.5417 47.9798 33.4678 48.6098 33.3453C43.9043 32.4372 40.3459 28.3053 40.3459 23.3333Z" fill="#D5DBE1"/>
<path d="M46.6667 34.9998C40.2325 34.9998 35 29.7673 35 23.3332C35 16.899 40.2325 11.6665 46.6667 11.6665C53.1008 11.6665 58.3333 16.899 58.3333 23.3332C58.3333 29.7673 53.1008 34.9998 46.6667 34.9998ZM46.6667 14.5832C41.8425 14.5832 37.9167 18.509 37.9167 23.3332C37.9167 28.1573 41.8425 32.0832 46.6667 32.0832C51.4908 32.0832 55.4167 28.1573 55.4167 23.3332C55.4167 18.509 51.4908 14.5832 46.6667 14.5832Z" fill="black"/>
<path d="M18.5926 51.0574L17.0234 48.5977C18.5654 47.6157 20.259 46.766 22.0576 46.0738C25.5362 44.7379 29.2345 44.0379 33.0554 43.9932C36.8568 43.929 40.5901 44.561 44.0979 45.8132C45.9062 46.4607 47.6193 47.2677 49.1884 48.2146L47.6815 50.7113C46.2795 49.8635 44.7434 49.1402 43.1159 48.5588C39.9348 47.4232 36.5865 46.8457 33.0884 46.9099C29.6157 46.9507 26.2557 47.5865 23.1037 48.7979C21.4859 49.4202 19.9693 50.1804 18.5926 51.0574Z" fill="black"/>
<path d="M31.5017 30.1776C28.3283 30.0571 25.2989 29.4932 22.4931 28.5074C22.3453 28.4704 22.1858 28.4179 22.0497 28.3615C20.3133 27.7529 18.5964 26.944 17 25.9835L18.5031 23.4849C19.9303 24.3443 21.4683 25.0657 23.0783 25.6335C23.1483 25.6471 23.3233 25.7074 23.3914 25.7326C25.9386 26.6368 28.7036 27.1521 31.6125 27.2629L31.5017 30.1776Z" fill="black"/>
<path d="M13.1442 38.5387L13.0664 35.622L21.3886 35.5248L38.0272 35.3887L38.0525 38.3053L13.1442 38.5387Z" fill="black"/>
<path d="M31.5977 31.811H34.5143V56.8749H31.5977V31.811Z" fill="black"/>
<path d="M33.0569 58.3335C32.8157 58.3335 32.5532 58.3316 32.3121 58.3083C26.3582 58.1527 20.6435 55.3974 16.7352 50.756C13.5094 46.9488 11.7088 42.0935 11.668 37.0924C11.668 25.6144 20.523 16.2305 31.826 15.5791L31.9932 18.4899C22.2321 19.0519 14.5846 27.1583 14.5846 36.9447C14.6196 41.3897 16.1752 45.5819 18.9635 48.8738C22.3371 52.8833 27.2682 55.2594 32.493 55.3974C32.7457 55.4188 32.9052 55.4169 33.0569 55.4169C33.2027 55.4169 33.3699 55.4188 33.5177 55.4052C43.0941 55.131 50.9555 47.4913 51.5116 38.0063L54.4224 38.1774C53.7769 49.1577 44.6749 58.0049 33.6985 58.3141C33.5605 58.3316 33.298 58.3335 33.0569 58.3335Z" fill="black"/>
<path d="M33.0547 58.3334C32.8136 58.3334 32.5511 58.3314 32.31 58.3081C27.8747 57.9173 23.9061 53.9662 21.705 47.7362C20.5441 44.487 19.9297 40.7673 19.9297 36.9834C19.9297 33.3084 20.48 29.7462 21.5222 26.6409C23.5677 20.5295 27.34 16.4306 31.6158 15.6742C31.6994 15.6606 31.783 15.6528 31.8686 15.6528L31.8783 17.1676L32.1214 18.5481C28.9169 19.1159 25.9866 22.4876 24.2872 27.5684C23.3441 30.3781 22.8464 33.6195 22.8464 36.9445C22.8464 40.4367 23.4025 43.8181 24.4525 46.7581C26.2647 51.8856 29.3019 55.1134 32.5783 55.4031C32.7416 55.4187 32.9011 55.4167 33.0547 55.4167C33.2005 55.4167 33.3677 55.4187 33.5155 55.4051C36.8133 55.1192 39.9536 51.7242 41.7269 46.5442C42.5125 44.2984 43.0025 41.8095 43.1872 39.1378L46.0961 39.3401C45.8939 42.2703 45.3514 45.0139 44.4822 47.4989C42.2986 53.8709 38.2989 57.9153 33.7819 58.3101C33.5583 58.3314 33.2958 58.3334 33.0547 58.3334Z" fill="black"/>
<path d="M45.207 26.7363H48.1237V31.1113H45.207V26.7363Z" fill="black"/>
<path d="M45.207 15.5557H48.1237V19.9307H45.207V15.5557Z" fill="black"/>
<path d="M46.9093 29.1667H42.7773V26.25H46.9093C47.3118 26.25 47.6385 25.9233 47.6385 25.5208C47.6385 25.1183 47.3118 24.7917 46.9093 24.7917H46.4232C44.4126 24.7917 42.7773 23.1564 42.7773 21.1458C42.7773 19.1353 44.4126 17.5 46.4232 17.5H50.5551V20.4167H46.4232C46.0207 20.4167 45.694 20.7433 45.694 21.1458C45.694 21.5483 46.0207 21.875 46.4232 21.875H46.9093C48.9198 21.875 50.5551 23.5103 50.5551 25.5208C50.5551 27.5314 48.9198 29.1667 46.9093 29.1667Z" fill="black"/>
</svg>
