<svg width="157" height="156" viewBox="0 0 157 156" fill="none" xmlns="http://www.w3.org/2000/svg">
<path d="M15.4153 103.493C41.6796 117.936 52.2356 141.457 64.889 148.417C77.5466 155.376 108.127 162.712 140.142 104.49C172.156 46.267 141.099 18.0613 127.176 10.4043C61.9943 -25.4324 -31.0987 77.9176 15.4153 103.493Z" fill="#EFEFEF"/>
<path d="M117.621 34.8867L123.749 28.7585L126.813 31.8226L120.685 37.9508L117.621 34.8867Z" fill="#A4AFC1"/>
<path d="M135.241 17.2705L141.369 11.1422L144.434 14.2064L138.305 20.3346L135.241 17.2705Z" fill="#A4AFC1"/>
<path d="M135.224 32.5674L138.288 29.5033L144.416 35.6315L141.352 38.6956L135.224 32.5674Z" fill="#A4AFC1"/>
<path d="M117.607 14.9524L120.672 11.8883L126.8 18.0165L123.736 21.0807L117.607 14.9524Z" fill="#A4AFC1"/>
<path d="M70.9167 59.5833H34.0833C31.6913 59.5833 29.75 57.642 29.75 55.25V33.5833C29.75 31.1913 31.6913 29.25 34.0833 29.25H70.9167C73.3087 29.25 75.25 31.1913 75.25 33.5833V55.25C75.25 57.642 73.3087 59.5833 70.9167 59.5833Z" fill="#FEB46D"/>
<path d="M122.917 115.917H86.0833C83.6913 115.917 81.75 113.975 81.75 111.583V89.9166C81.75 87.5246 83.6913 85.5833 86.0833 85.5833H122.917C125.309 85.5833 127.25 87.5246 127.25 89.9166V111.583C127.25 113.975 125.309 115.917 122.917 115.917Z" fill="white"/>
<path d="M38.4167 55.25V33.5833C38.4167 31.1913 40.358 29.25 42.75 29.25H34.0833C31.6913 29.25 29.75 31.1913 29.75 33.5833V55.25C29.75 57.642 31.6913 59.5833 34.0833 59.5833H42.75C40.358 59.5833 38.4167 57.642 38.4167 55.25Z" fill="#FF6600"/>
<path d="M90.4167 111.583V89.9166C90.4167 87.5246 92.358 85.5833 94.75 85.5833H86.0833C83.6913 85.5833 81.75 87.5246 81.75 89.9166V111.583C81.75 113.975 83.6913 115.917 86.0833 115.917H94.75C92.358 115.917 90.4167 113.975 90.4167 111.583Z" fill="#D5DBE1"/>
<path d="M70.9167 62.8333H34.0833C29.9017 62.8333 26.5 59.4317 26.5 55.25V33.5833C26.5 29.4017 29.9017 26 34.0833 26H70.9167C75.0983 26 78.5 29.4017 78.5 33.5833V55.25C78.5 59.4317 75.0983 62.8333 70.9167 62.8333ZM34.0833 32.5C33.4853 32.5 33 32.9853 33 33.5833V55.25C33 55.848 33.4853 56.3333 34.0833 56.3333H70.9167C71.5147 56.3333 72 55.848 72 55.25V33.5833C72 32.9853 71.5147 32.5 70.9167 32.5H34.0833Z" fill="black"/>
<path d="M43.833 67.1665H61.1663V73.6665H43.833V67.1665Z" fill="black"/>
<path d="M49.25 61.75H55.75V70.4167H49.25V61.75Z" fill="black"/>
<path d="M122.917 119.167H86.0833C81.9017 119.167 78.5 115.765 78.5 111.583V89.9166C78.5 85.7349 81.9017 82.3333 86.0833 82.3333H122.917C127.098 82.3333 130.5 85.7349 130.5 89.9166V111.583C130.5 115.765 127.098 119.167 122.917 119.167ZM86.0833 88.8333C85.4853 88.8333 85 89.3186 85 89.9166V111.583C85 112.181 85.4853 112.667 86.0833 112.667H122.917C123.515 112.667 124 112.181 124 111.583V89.9166C124 89.3186 123.515 88.8333 122.917 88.8333H86.0833Z" fill="black"/>
<path d="M95.833 123.5H113.166V130H95.833V123.5Z" fill="black"/>
<path d="M101.25 118.083H107.75V126.75H101.25V118.083Z" fill="black"/>
<path d="M87.167 43.3335H98.0003V49.8335H87.167V43.3335Z" fill="black"/>
<path d="M107.156 57.4815L106.58 54.2835C106.35 53.0095 105.666 51.8525 104.647 51.0335L102.121 48.9925L106.203 43.9355L108.734 45.9765C110.965 47.7792 112.473 50.3185 112.98 53.1352L113.557 56.3332L107.156 57.4815Z" fill="black"/>
<path d="M106.667 62.8335H113.167V73.6668H106.667V62.8335Z" fill="black"/>
<path d="M59 106.167H69.8333V112.667H59V106.167Z" fill="black"/>
<path d="M51.8107 112.459L49.1111 110.647C46.0994 108.628 44.1927 105.404 43.8764 101.799L43.5947 98.5618L50.0687 97.9941L50.3504 101.231C50.4934 102.865 51.3601 104.329 52.7337 105.252L55.4334 107.064L51.8107 112.459Z" fill="black"/>
<path d="M43.833 82.3335H50.333V93.1668H43.833V82.3335Z" fill="black"/>
</svg>
