<svg width="70" height="70" viewBox="0 0 70 70" fill="none" xmlns="http://www.w3.org/2000/svg">
<path d="M6.69327 46.4389C18.4785 52.9198 23.2152 63.4742 28.893 66.597C34.5727 69.7198 48.2947 73.0117 62.6602 46.8862C77.0258 20.7606 63.0899 8.10421 56.8424 4.66838C27.5941 -11.4122 -14.1784 34.9628 6.69327 46.4389Z" fill="#EFEFEF"/>
<path d="M52.5547 15.6543L55.3045 12.9044L56.6795 14.2794L53.9296 17.0292L52.5547 15.6543Z" fill="#A4AFC1"/>
<path d="M60.4609 7.74951L63.2108 4.99965L64.5857 6.37458L61.8359 9.12444L60.4609 7.74951Z" fill="#A4AFC1"/>
<path d="M60.4531 14.6133L61.8281 13.2384L64.5779 15.9882L63.203 17.3631L60.4531 14.6133Z" fill="#A4AFC1"/>
<path d="M52.5488 6.70947L53.9238 5.33454L56.6736 8.0844L55.2987 9.45933L52.5488 6.70947Z" fill="#A4AFC1"/>
<path d="M31.5972 26.7361H15.0694C13.9961 26.7361 13.125 25.865 13.125 24.7917V15.0694C13.125 13.9961 13.9961 13.125 15.0694 13.125H31.5972C32.6706 13.125 33.5417 13.9961 33.5417 15.0694V24.7917C33.5417 25.865 32.6706 26.7361 31.5972 26.7361Z" fill="#FEB46D"/>
<path d="M54.9312 52.0139H38.4034C37.3301 52.0139 36.459 51.1428 36.459 50.0695V40.3473C36.459 39.2739 37.3301 38.4028 38.4034 38.4028H54.9312C56.0045 38.4028 56.8757 39.2739 56.8757 40.3473V50.0695C56.8757 51.1428 56.0045 52.0139 54.9312 52.0139Z" fill="white"/>
<path d="M17.0139 24.7917V15.0694C17.0139 13.9961 17.885 13.125 18.9583 13.125H15.0694C13.9961 13.125 13.125 13.9961 13.125 15.0694V24.7917C13.125 25.865 13.9961 26.7361 15.0694 26.7361H18.9583C17.885 26.7361 17.0139 25.865 17.0139 24.7917Z" fill="#FF6600"/>
<path d="M40.3479 50.0695V40.3473C40.3479 39.2739 41.219 38.4028 42.2923 38.4028H38.4034C37.3301 38.4028 36.459 39.2739 36.459 40.3473V50.0695C36.459 51.1428 37.3301 52.0139 38.4034 52.0139H42.2923C41.219 52.0139 40.3479 51.1428 40.3479 50.0695Z" fill="#D5DBE1"/>
<path d="M31.5966 28.1943H15.0688C13.1924 28.1943 11.666 26.6679 11.666 24.7915V15.0693C11.666 13.1929 13.1924 11.6665 15.0688 11.6665H31.5966C33.473 11.6665 34.9993 13.1929 34.9993 15.0693V24.7915C34.9993 26.6679 33.473 28.1943 31.5966 28.1943ZM15.0688 14.5832C14.8005 14.5832 14.5827 14.8009 14.5827 15.0693V24.7915C14.5827 25.0598 14.8005 25.2776 15.0688 25.2776H31.5966C31.8649 25.2776 32.0827 25.0598 32.0827 24.7915V15.0693C32.0827 14.8009 31.8649 14.5832 31.5966 14.5832H15.0688Z" fill="black"/>
<path d="M19.4453 30.1387H27.2231V33.0553H19.4453V30.1387Z" fill="black"/>
<path d="M21.875 27.7085H24.7917V31.5974H21.875V27.7085Z" fill="black"/>
<path d="M54.9306 53.4721H38.4028C36.5264 53.4721 35 51.9457 35 50.0693V40.3471C35 38.4707 36.5264 36.9443 38.4028 36.9443H54.9306C56.8069 36.9443 58.3333 38.4707 58.3333 40.3471V50.0693C58.3333 51.9457 56.8069 53.4721 54.9306 53.4721ZM38.4028 39.861C38.1344 39.861 37.9167 40.0788 37.9167 40.3471V50.0693C37.9167 50.3377 38.1344 50.5554 38.4028 50.5554H54.9306C55.1989 50.5554 55.4167 50.3377 55.4167 50.0693V40.3471C55.4167 40.0788 55.1989 39.861 54.9306 39.861H38.4028Z" fill="black"/>
<path d="M42.7773 55.4165H50.5551V58.3332H42.7773V55.4165Z" fill="black"/>
<path d="M45.209 52.9863H48.1257V56.8752H45.209V52.9863Z" fill="black"/>
<path d="M38.8887 19.4443H43.7498V22.361H38.8887V19.4443Z" fill="black"/>
<path d="M47.8591 25.7932L47.6004 24.3582C47.4974 23.7865 47.1902 23.2673 46.7332 22.8998L45.5996 21.984L47.4313 19.7148L48.5668 20.6307C49.5682 21.4396 50.2449 22.579 50.4724 23.8429L50.731 25.2779L47.8591 25.7932Z" fill="black"/>
<path d="M47.6387 28.1943H50.5553V33.0554H47.6387V28.1943Z" fill="black"/>
<path d="M26.25 47.6387H31.1111V50.5553H26.25V47.6387Z" fill="black"/>
<path d="M23.0246 50.4622L21.8132 49.6495C20.4618 48.7433 19.6062 47.2967 19.4643 45.6789L19.3379 44.2264L22.2429 43.9717L22.3693 45.4242C22.4334 46.1572 22.8223 46.8145 23.4387 47.2286L24.6501 48.0414L23.0246 50.4622Z" fill="black"/>
<path d="M19.4453 36.9443H22.362V41.8054H19.4453V36.9443Z" fill="black"/>
</svg>
