<svg width="70" height="70" viewBox="0 0 70 70" fill="none" xmlns="http://www.w3.org/2000/svg">
<path d="M16.2889 61.8977C29.7386 61.8977 38.9747 68.8646 45.4555 68.8646C51.9364 68.8646 65.5475 65.1391 65.5475 35.3249C65.5475 5.51073 47.2367 1.13379 40.1083 1.13379C6.72805 1.13379 -7.53057 61.8977 16.2889 61.8977Z" fill="#EFEFEF"/>
<path d="M62.1602 12.9941L63.5351 11.6192L66.2849 14.3691L64.91 15.744L62.1602 12.9941Z" fill="#A4AFC1"/>
<path d="M54.2539 5.08789L55.6288 3.71296L58.3787 6.46282L57.0038 7.83775L54.2539 5.08789Z" fill="#A4AFC1"/>
<path d="M62.1602 6.80762L64.91 4.05776L66.2849 5.43269L63.5351 8.18255L62.1602 6.80762Z" fill="#A4AFC1"/>
<path d="M54.9306 45.2081H15.0694C13.9961 45.2081 13.125 44.337 13.125 43.2637V18.9581C13.125 17.8848 13.9961 17.0137 15.0694 17.0137H54.9306C56.0039 17.0137 56.875 17.8848 56.875 18.9581V43.2637C56.875 44.337 56.0039 45.2081 54.9306 45.2081Z" fill="#F3F3F1"/>
<path d="M42.7773 35.4863C45.1936 35.4863 47.1523 33.5276 47.1523 31.1113C47.1523 28.6951 45.1936 26.7363 42.7773 26.7363C40.3611 26.7363 38.4023 28.6951 38.4023 31.1113C38.4023 33.5276 40.3611 35.4863 42.7773 35.4863Z" fill="#FEB46D"/>
<path d="M42.7773 31.1113C42.7773 29.4955 43.6621 28.1013 44.9648 27.343C44.3193 26.9677 43.5785 26.7363 42.7773 26.7363C40.3604 26.7363 38.4023 28.6944 38.4023 31.1113C38.4023 33.5283 40.3604 35.4863 42.7773 35.4863C43.5785 35.4863 44.3193 35.2549 44.9648 34.8797C43.6621 34.1213 42.7773 32.7272 42.7773 31.1113Z" fill="#FF6600"/>
<path d="M17.5 43.2637V18.9581C17.5 17.8848 18.3711 17.0137 19.4444 17.0137H15.0694C13.9961 17.0137 13.125 17.8848 13.125 18.9581V43.2637C13.125 44.337 13.9961 45.2081 15.0694 45.2081H19.4444C18.3711 45.2081 17.5 44.337 17.5 43.2637Z" fill="#D5DBE1"/>
<path d="M42.7786 36.9445C39.5625 36.9445 36.9453 34.3273 36.9453 31.1112C36.9453 27.8951 39.5625 25.2778 42.7786 25.2778C45.9948 25.2778 48.612 27.8951 48.612 31.1112C48.612 34.3273 45.9948 36.9445 42.7786 36.9445ZM42.7786 28.1945C41.1706 28.1945 39.862 29.5031 39.862 31.1112C39.862 32.7192 41.1706 34.0278 42.7786 34.0278C44.3867 34.0278 45.6953 32.7192 45.6953 31.1112C45.6953 29.5031 44.3867 28.1945 42.7786 28.1945Z" fill="black"/>
<path d="M26.2487 34.9998H23.332V31.5971C23.332 30.2573 24.4229 29.1665 25.7626 29.1665H39.3737V32.0832H26.2487V34.9998Z" fill="black"/>
<path d="M27.2227 29.1665H30.1393V34.9998H27.2227V29.1665Z" fill="black"/>
<path d="M54.9319 46.6668H15.0707C13.1944 46.6668 11.668 45.1404 11.668 43.264V18.9584C11.668 17.0821 13.1944 15.5557 15.0707 15.5557H54.9319C56.8083 15.5557 58.3346 17.0821 58.3346 18.9584V43.264C58.3346 45.1404 56.8083 46.6668 54.9319 46.6668ZM15.0707 18.4723C14.8024 18.4723 14.5846 18.6901 14.5846 18.9584V43.264C14.5846 43.5323 14.8024 43.7501 15.0707 43.7501H54.9319C55.2002 43.7501 55.418 43.5323 55.418 43.264V18.9584C55.418 18.6901 55.2002 18.4723 54.9319 18.4723H15.0707Z" fill="black"/>
<path d="M33.543 45.2085H36.4596V52.9863H33.543V45.2085Z" fill="black"/>
<path d="M25.2773 51.5278H44.7218V54.4445H25.2773V51.5278Z" fill="black"/>
</svg>
