<svg width="71" height="70" viewBox="0 0 71 70" fill="none" xmlns="http://www.w3.org/2000/svg">
<g clip-path="url(#clip0_7465_41003)">
<path d="M15.4297 10.819C11.92 23.802 2.78302 30.8992 1.09136 37.1565C-0.60031 43.4137 -0.555589 57.5245 28.2261 65.3062C57.0077 73.0879 66.0105 56.5542 67.8694 49.6709C76.5825 17.4476 21.6461 -12.176 15.4297 10.819Z" fill="#EFEFEF"/>
<path d="M59.6328 56.5071L62.3827 53.7572L63.7576 55.1322L61.0077 57.882L59.6328 56.5071Z" fill="#A4AFC1"/>
<path d="M51.7266 64.4111L54.4764 61.6613L55.8514 63.0362L53.1015 65.7861L51.7266 64.4111Z" fill="#A4AFC1"/>
<path d="M59.9766 63.0388L61.3515 61.6639L64.1013 64.4137L62.7264 65.7887L59.9766 63.0388Z" fill="#A4AFC1"/>
<path d="M57.9245 15.1978C56.3164 15.1978 55.0078 13.8892 55.0078 12.2812C55.0078 10.6731 56.3164 9.3645 57.9245 9.3645C59.5325 9.3645 60.8411 10.6731 60.8411 12.2812C60.8411 13.8892 59.5325 15.1978 57.9245 15.1978ZM57.9245 11.3089C57.3898 11.3089 56.9523 11.7445 56.9523 12.2812C56.9523 12.8178 57.3898 13.2534 57.9245 13.2534C58.4592 13.2534 58.8967 12.8178 58.8967 12.2812C58.8967 11.7445 58.4611 11.3089 57.9245 11.3089Z" fill="#A4AFC1"/>
<path d="M45.6731 46.4353L44.835 44.7592C43.0053 41.0997 42.9081 37.2808 44.5706 33.5417C47.3414 27.3078 45.0995 19.9869 39.3148 16.3703L34.9767 13.125V18.4606L24.1481 21.9022C22.5478 22.3592 21.4453 23.8214 21.4453 25.4858V27.1717C21.4453 28.2625 22.3767 29.12 23.4636 29.0286L32.6278 28.2644L32.06 28.9178C27.7142 33.9111 25.2759 39.8164 25.1748 46.4353H45.6731Z" fill="#FEB46D"/>
<path d="M38.4171 47.1527C38.4171 47.1527 36.4727 46.1804 36.4727 41.8054C36.4727 36.4582 40.3615 34.9999 40.3615 28.1943L38.4171 47.1527Z" fill="#FEB46D"/>
<path d="M53.4878 56.875H17.5156V53.9584C17.5156 52.885 18.3867 52.0139 19.4601 52.0139H51.5434C52.6167 52.0139 53.4878 52.885 53.4878 53.9584V56.875Z" fill="#F3F3F1"/>
<path d="M49.5968 52.0139H21.4023V49.5834C21.4023 48.5101 22.2735 47.1528 23.3468 47.1528H47.6523C48.7257 47.1528 49.5968 48.5101 49.5968 49.5834V52.0139Z" fill="#F3F3F1"/>
<path d="M25.3342 27.1717V25.4858C25.3342 23.8214 26.4367 22.3592 28.037 21.9022L38.8656 18.4606V16.0358L34.9767 13.125V18.4606L24.1481 21.9022C22.5478 22.3592 21.4453 23.8214 21.4453 25.4858V27.1717C21.4453 28.2625 22.3767 29.12 23.4636 29.0286L26.3434 28.7894C25.7581 28.4764 25.3342 27.8892 25.3342 27.1717Z" fill="#FF6600"/>
<path d="M36.5138 28.2644L32.3216 28.6144L32.0572 28.9177C27.7113 33.9111 25.273 39.8163 25.1719 46.4352H29.0608C29.1619 39.8163 31.6002 33.913 35.946 28.9177L36.5138 28.2644Z" fill="#FF6600"/>
<path d="M27.2357 47.1528H23.3468C22.2735 47.1528 21.4023 48.5101 21.4023 49.5834V52.0139H25.2912V49.5834C25.2912 48.5101 26.1623 47.1528 27.2357 47.1528Z" fill="#D5DBE1"/>
<path d="M23.349 52.0139H19.4601C18.3867 52.0139 17.5156 52.885 17.5156 53.9584V56.875H21.4045V53.9584C21.4045 52.885 22.2756 52.0139 23.349 52.0139Z" fill="#D5DBE1"/>
<path d="M26.6276 46.4585L23.7109 46.4118C23.7557 43.5652 24.2165 40.7846 25.0779 38.1499L27.8507 39.056C27.0787 41.4127 26.6665 43.9035 26.6276 46.4585Z" fill="black"/>
<path d="M44.3658 47.0867L43.5277 45.4126C41.5074 41.3701 41.4063 37.0612 43.2341 32.9506C45.6958 27.4148 43.6774 20.8192 38.5402 17.607L36.4324 16.0359V18.4626C36.4324 19.0984 36.0202 19.6603 35.4174 19.8528L24.5888 23.2945C23.5777 23.5842 22.903 24.4806 22.903 25.4878V27.1737C22.903 27.3214 22.973 27.4167 23.0333 27.4712C23.0897 27.5256 23.1733 27.5898 23.3424 27.5762L32.5027 26.812C33.1133 26.7634 33.6577 27.0784 33.9241 27.6073C34.1924 28.1362 34.1147 28.7759 33.7219 29.2231L33.1541 29.8745C31.3866 31.9064 29.9535 34.0978 28.8977 36.3884L26.2513 35.1673C27.0738 33.3803 28.1005 31.6517 29.3158 30.0048L23.5835 30.4831C22.6619 30.5512 21.7383 30.2439 21.0558 29.6159C20.3752 28.9898 19.9844 28.0992 19.9844 27.1717V25.4859C19.9844 23.1837 21.5302 21.1342 23.7449 20.5003L33.5158 17.3951V13.1251C33.5158 12.5728 33.8269 12.0692 34.3208 11.8203C34.8166 11.5753 35.4097 11.6278 35.8472 11.9564L40.1833 15.2017C46.4444 19.1101 48.943 27.2767 45.896 34.1328C44.4124 37.4676 44.4922 40.8237 46.1333 44.1059L46.9713 45.7801L44.3658 47.0867Z" fill="black"/>
<path d="M37.767 48.4574C37.4831 48.3174 35.0156 46.9329 35.0156 41.8054C35.0156 38.9374 35.9995 37.0435 36.9484 35.2138C37.9556 33.2752 38.9045 31.4454 38.9045 28.1943H41.8212C41.8212 32.1591 40.6078 34.4943 39.5365 36.5574C38.677 38.2179 37.9323 39.6491 37.9323 41.8054C37.9323 45.0566 39.1262 45.8771 39.1378 45.8868L37.767 48.4574Z" fill="black"/>
<path d="M53.4852 58.3334H17.513C16.708 58.3334 16.0547 57.6801 16.0547 56.8751V53.9584C16.0547 52.0821 17.5811 50.5557 19.4575 50.5557H51.5408C53.4172 50.5557 54.9436 52.0821 54.9436 53.9584V56.8751C54.9436 57.6801 54.2902 58.3334 53.4852 58.3334ZM18.9714 55.4168H52.0269V53.9584C52.0269 53.6901 51.8091 53.4723 51.5408 53.4723H19.4575C19.1891 53.4723 18.9714 53.6901 18.9714 53.9584V55.4168Z" fill="black"/>
<path d="M49.5981 53.4721H21.4036C20.5986 53.4721 19.9453 52.8188 19.9453 52.0138V49.5832C19.9453 47.7477 21.3998 45.6943 23.3481 45.6943H47.6536C49.602 45.6943 51.0564 47.7477 51.0564 49.5832V52.0138C51.0564 52.8188 50.4031 53.4721 49.5981 53.4721ZM22.862 50.5554H48.1398V49.5832C48.1398 49.1885 47.8014 48.6713 47.6128 48.6071L23.3481 48.611C23.2003 48.6713 22.862 49.1885 22.862 49.5832V50.5554Z" fill="black"/>
</g>
<defs>
<clipPath id="clip0_7465_41003">
<rect width="70" height="70" fill="white" transform="translate(0.5)"/>
</clipPath>
</defs>
</svg>
