<svg width="70" height="70" viewBox="0 0 70 70" fill="none" xmlns="http://www.w3.org/2000/svg">
<path d="M61.8967 53.7113C61.8967 40.2615 68.8636 31.0254 68.8636 24.5446C68.8636 18.0637 65.1381 4.45264 35.3239 4.45264C5.50976 4.45264 1.13281 22.7635 1.13281 29.8918C1.13281 63.2721 61.8967 77.5307 61.8967 53.7113Z" fill="#EFEFEF"/>
<path d="M63.194 46.6668C61.586 46.6668 60.2773 45.3582 60.2773 43.7502C60.2773 42.1421 61.586 40.8335 63.194 40.8335C64.8021 40.8335 66.1107 42.1421 66.1107 43.7502C66.1107 45.3582 64.8021 46.6668 63.194 46.6668ZM63.194 42.7779C62.6593 42.7779 62.2218 43.2154 62.2218 43.7502C62.2218 44.2849 62.6593 44.7224 63.194 44.7224C63.7287 44.7224 64.1662 44.2849 64.1662 43.7502C64.1662 43.2154 63.7287 42.7779 63.194 42.7779Z" fill="#A4AFC1"/>
<path d="M52.9861 54.9306H17.0139C14.8653 54.9306 13.125 53.1903 13.125 51.0417V21.875H56.875V51.0417C56.875 53.1903 55.1347 54.9306 52.9861 54.9306Z" fill="#F3F3F1"/>
<path d="M56.875 21.8749H13.125V18.9582C13.125 16.8096 14.8653 15.0693 17.0139 15.0693H52.9861C55.1347 15.0693 56.875 16.8096 56.875 18.9582V21.8749Z" fill="#FEB46D"/>
<path d="M45.2078 24.7915C39.9909 24.8887 34.247 27.9843 30.6867 32.0968L25.2656 38.1148L31.8845 44.7337L37.9026 39.3126C42.0151 35.7523 45.1106 30.0084 45.2078 24.7915Z" fill="#FEB46D"/>
<path d="M37.6864 39.5034C37.6261 42.9412 36.7628 46.694 34.3594 49.0973L33.0605 43.6684L37.6864 39.5034Z" fill="#FEB46D"/>
<path d="M25.0276 48.5355C24.0437 49.5194 18.959 51.0419 18.959 51.0419C18.959 51.0419 20.4815 45.9572 21.4654 44.9733C22.4493 43.9894 24.0437 43.9894 25.0276 44.9733C26.0095 45.9572 26.0095 47.5516 25.0276 48.5355Z" fill="#FEB46D"/>
<path d="M30.4962 32.313C27.0585 32.3733 23.3057 33.2366 20.9023 35.6399L26.3312 36.9388L30.4962 32.313Z" fill="#FEB46D"/>
<path d="M37.6864 39.5034C37.6261 42.9412 36.7628 46.694 34.3594 49.0973L33.0605 43.6684L37.6864 39.5034Z" fill="#FF6600"/>
<path d="M29.6406 38.1148L35.0617 32.0968C37.6245 29.1354 41.3248 26.7204 45.1398 25.5537C45.1592 25.299 45.202 25.0423 45.2059 24.7896C39.989 24.8868 34.2451 27.9823 30.6848 32.0948L25.2637 38.1129L31.8826 44.7318L34.1848 42.659L29.6406 38.1148Z" fill="#FF6600"/>
<path d="M25.4223 45.5683C25.3095 45.3602 25.2026 45.1483 25.0276 44.9733C24.0437 43.9894 22.4493 43.9894 21.4654 44.9733C20.4815 45.9572 18.959 51.0419 18.959 51.0419C18.959 51.0419 22.1032 50.0988 23.9232 49.218C24.3393 48.0008 24.909 46.4705 25.4223 45.5683Z" fill="#FF6600"/>
<path d="M25.2774 35.6419C26.5121 34.4072 28.1026 33.5847 29.8235 33.0636L30.4982 32.3149C27.0604 32.3752 23.3076 33.2386 20.9043 35.6419L26.3332 36.9408L27.109 36.0794L25.2774 35.6419Z" fill="#FF6600"/>
<path d="M17.9861 51.0417V21.875H13.125V51.0417C13.125 53.1903 14.8653 54.9306 17.0139 54.9306H21.875C19.7264 54.9306 17.9861 53.1903 17.9861 51.0417Z" fill="#D5DBE1"/>
<path d="M21.3889 15.0693H17.0139C14.8653 15.0693 13.125 16.8096 13.125 18.9582V21.8749H17.5V18.9582C17.5 16.8096 19.2403 15.0693 21.3889 15.0693Z" fill="#FF6600"/>
<path d="M25.9911 38.3601L20.5622 37.0612C20.0489 36.9387 19.6425 36.5459 19.4986 36.0403C19.3547 35.5309 19.4966 34.9864 19.87 34.6131C22.2091 32.2701 25.9755 30.9362 30.4691 30.8564L30.5216 33.7731C29.003 33.8003 26.5822 34.0181 24.4316 34.9884L26.6678 35.5231L25.9911 38.3601Z" fill="black"/>
<path d="M31.8832 46.1924C31.5098 46.1924 31.1365 46.0504 30.8526 45.7646L24.2357 39.1477C23.6873 38.5993 23.664 37.7185 24.1832 37.141L29.6043 31.1229C33.6021 26.5029 39.7232 23.4385 45.1812 23.3335C45.5701 23.3452 45.959 23.4793 46.2409 23.7613C46.5229 24.0432 46.6765 24.4243 46.6687 24.821C46.5637 30.2791 43.4993 36.4002 38.8579 40.4174L32.8612 45.8191C32.5832 46.0679 32.2332 46.1924 31.8832 46.1924ZM27.2768 38.0627L31.9357 42.7216L36.9232 38.226C40.464 35.1616 43.0132 30.5785 43.614 26.3804C39.4159 26.9832 34.8348 29.5266 31.7879 33.0518L27.2768 38.0627Z" fill="black"/>
<path d="M34.359 50.5555C34.2267 50.5555 34.0926 50.538 33.9623 50.5011C33.4548 50.3572 33.064 49.9508 32.9415 49.4375L31.6426 44.0086L34.4795 43.328L35.0142 45.5641C35.9845 43.4155 36.2023 40.9927 36.2295 39.4741L39.1462 39.5266C39.0665 44.0222 37.7326 47.7866 35.3895 50.1258C35.1134 50.4058 34.7401 50.5555 34.359 50.5555Z" fill="black"/>
<path d="M18.9582 52.5001C18.5771 52.5001 18.2038 52.3503 17.9277 52.0723C17.5485 51.6931 17.4066 51.137 17.5621 50.6237C18.0521 48.9884 19.3121 45.0645 20.436 43.9406C21.9857 42.3909 24.5077 42.3928 26.0613 43.9387C27.6091 45.4923 27.6091 48.0142 26.0632 49.5659H26.0613C24.9393 50.6878 21.0135 51.9498 19.3782 52.4398C19.2402 52.4787 19.0982 52.5001 18.9582 52.5001ZM23.2457 45.6945C22.9735 45.6945 22.7032 45.7995 22.4952 46.0056C22.2268 46.2992 21.7466 47.4192 21.2624 48.7376C22.5827 48.2534 23.691 47.7751 23.9982 47.4989C24.4066 47.0848 24.4046 46.4139 23.9924 46.0017C23.7882 45.7976 23.518 45.6945 23.2457 45.6945Z" fill="black"/>
<path d="M52.9855 58.3334H17.0132C14.0635 58.3334 11.666 55.9359 11.666 52.9862V20.9029C11.666 17.9532 14.0635 15.5557 17.0132 15.5557H52.9855C55.9352 15.5557 58.3327 17.9532 58.3327 20.9029V52.9862C58.3327 55.9359 55.9352 58.3334 52.9855 58.3334ZM17.0132 18.4723C15.6735 18.4723 14.5827 19.5632 14.5827 20.9029V52.9862C14.5827 54.3259 15.6735 55.4168 17.0132 55.4168H52.9855C54.3252 55.4168 55.416 54.3259 55.416 52.9862V20.9029C55.416 19.5632 54.3252 18.4723 52.9855 18.4723H17.0132Z" fill="black"/>
<path d="M13.125 22.3613H31.5972V25.278H13.125V22.3613Z" fill="black"/>
<path d="M50.0703 22.3613H56.3898V25.278H50.0703V22.3613Z" fill="black"/>
<path d="M3.88867 55.4165H66.1109V58.3332H3.88867V55.4165Z" fill="black"/>
</svg>
