<svg width="70" height="71" viewBox="0 0 70 71" fill="none" xmlns="http://www.w3.org/2000/svg">
<path d="M61.8977 53.7874C61.8977 40.3377 68.8646 31.1016 68.8646 24.6208C68.8646 18.1399 65.1391 4.52881 35.3249 4.52881C5.51073 4.52881 1.13379 22.8396 1.13379 29.968C1.13379 63.3483 61.8977 77.6069 61.8977 53.7874Z" fill="#EFEFEF"/>
<path d="M61.2497 37.0208C59.6416 37.0208 58.333 35.7122 58.333 34.1042C58.333 32.4961 59.6416 31.1875 61.2497 31.1875C62.8577 31.1875 64.1663 32.4961 64.1663 34.1042C64.1663 35.7122 62.8577 37.0208 61.2497 37.0208ZM61.2497 33.1319C60.713 33.1319 60.2775 33.5694 60.2775 34.1042C60.2775 34.6389 60.713 35.0764 61.2497 35.0764C61.7863 35.0764 62.2219 34.6389 62.2219 34.1042C62.2219 33.5694 61.7863 33.1319 61.2497 33.1319Z" fill="#A4AFC1"/>
<path d="M42.2914 56.9512H17.0137V17.0901C17.0137 14.9414 18.7539 13.2012 20.9026 13.2012H52.0137C49.3284 13.2012 47.1526 15.377 47.1526 18.0623V52.0901C47.1526 54.7753 44.9767 56.9512 42.2914 56.9512Z" fill="#F3F3F1"/>
<path d="M34.1235 28.7509L35.4866 35.5623L28.6752 34.1992L13.6894 19.2153C12.9369 18.4628 12.9369 17.2437 13.6894 16.4912L16.4135 13.7651C17.166 13.0126 18.3852 13.0126 19.1377 13.7651L34.1235 28.7509Z" fill="#FEB46D"/>
<path d="M47.1533 20.9789H56.8755V18.0623C56.8755 15.377 54.6997 13.2012 52.0144 13.2012C49.3292 13.2012 47.1533 15.377 47.1533 18.0623V20.9789Z" fill="#FEB46D"/>
<path d="M42.2917 56.9512H17.0139C14.8653 56.9512 13.125 55.2109 13.125 53.0623V47.229H37.4306V52.0901C37.4306 54.7754 39.6064 56.9512 42.2917 56.9512Z" fill="#FEB46D"/>
<path d="M33.0502 34.1992L18.0644 19.2153C17.3119 18.4628 17.3119 17.2437 18.0644 16.4912L19.9641 14.5914L19.1397 13.7651C18.3872 13.0126 17.168 13.0126 16.4155 13.7651L13.6894 16.4892C12.9369 17.2417 12.9369 18.4609 13.6894 19.2134L28.6752 34.1992L35.4866 35.5623L35.3038 34.6503L33.0502 34.1992Z" fill="#FF6600"/>
<path d="M54.201 13.7437C53.5398 13.4092 52.8048 13.2012 52.0135 13.2012C49.3282 13.2012 47.1523 15.377 47.1523 18.0623V20.9789H51.5273V18.0623C51.5273 16.1684 52.6221 14.5467 54.201 13.7437Z" fill="#FF6600"/>
<path d="M17.5 53.0623V47.229H13.125V53.0623C13.125 55.2109 14.8653 56.9512 17.0139 56.9512H21.3889C19.2403 56.9512 17.5 55.2109 17.5 53.0623Z" fill="#FF6600"/>
<path d="M17.0137 21.9512V47.2289H21.3887V27.2984L17.0137 21.9512Z" fill="#D5DBE1"/>
<path d="M35.486 37.0207C35.3907 37.0207 35.2954 37.011 35.2001 36.9915L28.3887 35.6304C28.1068 35.574 27.8462 35.434 27.644 35.2318L12.6582 20.246C11.3379 18.9257 11.3379 16.779 12.6582 15.4588L15.3823 12.7346C16.7007 11.4163 18.8473 11.4104 20.1676 12.7346L35.1535 27.7204C35.3576 27.9226 35.4957 28.1832 35.5521 28.4651L36.9151 35.2765C37.0104 35.7549 36.8607 36.2488 36.5165 36.5949C36.2404 36.869 35.869 37.0207 35.486 37.0207ZM29.394 32.8557L33.6271 33.7035L32.7793 29.4704L18.1085 14.7957C17.9257 14.6129 17.6282 14.6129 17.4454 14.7957L14.7193 17.5218C14.5365 17.7046 14.5365 18.0021 14.7193 18.1849L29.394 32.8557Z" fill="black"/>
<path d="M15.5557 30.7788H18.4723V47.3066H15.5557V30.7788Z" fill="black"/>
<path d="M26.8135 11.7427H52.0135V14.6593H26.8135V11.7427Z" fill="black"/>
<path d="M56.8749 22.4371H47.1527C46.3477 22.4371 45.6943 21.7838 45.6943 20.9788V18.0621C45.6943 14.5777 48.5293 11.7427 52.0138 11.7427C55.4982 11.7427 58.3332 14.5777 58.3332 18.0621V20.9788C58.3332 21.7838 57.6799 22.4371 56.8749 22.4371ZM48.611 19.5205H55.4166V18.0621C55.4166 16.1857 53.8902 14.6593 52.0138 14.6593C50.1374 14.6593 48.611 16.1857 48.611 18.0621V19.5205Z" fill="black"/>
<path d="M42.7781 58.4096H17.0142C14.0645 58.4096 11.667 56.0121 11.667 53.0623V47.3107C11.667 46.5057 12.3203 45.8523 13.1253 45.8523H37.4309C38.2359 45.8523 38.8892 46.5057 38.8892 47.3107V52.0901C38.8892 53.9665 40.4156 55.4929 42.292 55.4929C44.1684 55.4929 45.6948 53.9665 45.6948 52.0901V20.979H48.6114V52.0901C48.6114 55.4112 46.037 58.1412 42.7781 58.3901V58.4096ZM14.5837 48.769V53.0623C14.5837 54.4021 15.6745 55.4929 17.0142 55.4929H36.9681C36.3381 54.509 35.9725 53.3423 35.9725 52.0901V48.769H14.5837Z" fill="black"/>
<path d="M3.88867 55.4927H66.1109V58.4093H3.88867V55.4927Z" fill="black"/>
</svg>
