<svg width="70" height="70" viewBox="0 0 70 70" fill="none" xmlns="http://www.w3.org/2000/svg">
<path d="M67.916 40.1313C60.7351 28.7602 61.6957 17.2296 58.2346 11.7501C54.7735 6.27071 44.3551 -3.25124 19.1454 12.6679C-6.06432 28.5871 0.0120749 46.404 3.8193 52.4318C21.6421 80.6574 80.6326 60.2699 67.916 40.1313Z" fill="#EFEFEF"/>
<path d="M34.9993 33.0558C31.7832 33.0558 29.166 30.4386 29.166 27.2225C29.166 24.0064 31.7832 21.3892 34.9993 21.3892C38.2155 21.3892 40.8327 24.0064 40.8327 27.2225C40.8327 30.4386 38.2155 33.0558 34.9993 33.0558ZM34.9993 24.3058C33.3913 24.3058 32.0827 25.6144 32.0827 27.2225C32.0827 28.8305 33.3913 30.1392 34.9993 30.1392C36.6074 30.1392 37.916 28.8305 37.916 27.2225C37.916 25.6144 36.6074 24.3058 34.9993 24.3058Z" fill="black"/>
<path d="M17.2656 57.7051L18.6406 56.3301L21.3904 59.08L20.0155 60.4549L17.2656 57.7051Z" fill="#A4AFC1"/>
<path d="M9.36133 49.7988L10.7363 48.4239L13.4861 51.1738L12.1112 52.5487L9.36133 49.7988Z" fill="#A4AFC1"/>
<path d="M17.6094 51.1753L20.3592 48.4254L21.7342 49.8004L18.9843 52.5502L17.6094 51.1753Z" fill="#A4AFC1"/>
<path d="M9.70312 59.0801L12.453 56.3302L13.8279 57.7051L11.0781 60.455L9.70312 59.0801Z" fill="#A4AFC1"/>
<path d="M60.278 12.639C58.6699 12.639 57.3613 11.3304 57.3613 9.72233C57.3613 8.11428 58.6699 6.80566 60.278 6.80566C61.8861 6.80566 63.1947 8.11428 63.1947 9.72233C63.1947 11.3304 61.8861 12.639 60.278 12.639ZM60.278 8.75011C59.7413 8.75011 59.3058 9.18761 59.3058 9.72233C59.3058 10.2571 59.7413 10.6946 60.278 10.6946C60.8147 10.6946 61.2502 10.2571 61.2502 9.72233C61.2502 9.18761 60.8147 8.75011 60.278 8.75011Z" fill="#A4AFC1"/>
<path d="M31.7139 41.3194H17.0139C14.875 41.3194 13.125 39.5694 13.125 37.4306V17.0139C13.125 14.875 14.875 13.125 17.0139 13.125H52.9861C55.125 13.125 56.875 14.875 56.875 17.0139V30.1389V37.4306C56.875 39.5792 55.1347 41.3194 52.9861 41.3194H31.7139Z" fill="#FEB46D"/>
<path d="M17.5 37.4306V17.0139C17.5 14.875 19.25 13.125 21.3889 13.125H17.0139C14.875 13.125 13.125 14.875 13.125 17.0139V37.4306C13.125 39.5694 14.875 41.3194 17.0139 41.3194H21.3889C19.25 41.3194 17.5 39.5694 17.5 37.4306Z" fill="#FF6600"/>
<path d="M35 31.5972C37.4162 31.5972 39.375 29.6384 39.375 27.2222C39.375 24.8059 37.4162 22.8472 35 22.8472C32.5838 22.8472 30.625 24.8059 30.625 27.2222C30.625 29.6384 32.5838 31.5972 35 31.5972Z" fill="white"/>
<path d="M56.8689 40.8394V52.506C56.8689 54.9171 51.8717 56.881 45.6884 56.881C39.5245 56.881 34.5078 54.9171 34.5078 52.506V40.8394C34.5078 38.4088 39.5245 36.4644 45.6884 36.4644C51.8717 36.4644 56.8689 38.4088 56.8689 40.8394Z" fill="white"/>
<path d="M38.8828 52.506V40.8394C38.8828 38.7044 42.7561 36.9446 47.8778 36.548C47.17 36.4935 46.437 36.4644 45.6884 36.4644C39.5245 36.4644 34.5078 38.4088 34.5078 40.8394V52.506C34.5078 54.9171 39.5245 56.881 45.6884 56.881C46.4389 56.881 47.17 56.8499 47.8778 56.7955C42.7561 56.3969 38.8828 54.6255 38.8828 52.506Z" fill="#D5DBE1"/>
<path d="M29.7688 42.7776H17.0132C14.0655 42.7776 11.666 40.3801 11.666 37.4304V17.0137C11.666 14.0659 14.0655 11.6665 17.0132 11.6665H52.9855C55.9352 11.6665 58.3327 14.0659 58.3327 17.0137V33.5415H55.416V17.0137C55.416 15.674 54.3252 14.5832 52.9855 14.5832H17.0132C15.6735 14.5832 14.5827 15.674 14.5827 17.0137V37.4304C14.5827 38.7701 15.6735 39.8609 17.0132 39.8609H29.7688V42.7776Z" fill="black"/>
<path d="M18.957 17.5H23.8181V20.4167H18.957V17.5Z" fill="black"/>
<path d="M34.9993 33.0553C31.7832 33.0553 29.166 30.4381 29.166 27.222C29.166 24.0059 31.7832 21.3887 34.9993 21.3887C38.2155 21.3887 40.8327 24.0059 40.8327 27.222C40.8327 30.4381 38.2155 33.0553 34.9993 33.0553ZM34.9993 24.3053C33.3913 24.3053 32.0827 25.6139 32.0827 27.222C32.0827 28.8301 33.3913 30.1387 34.9993 30.1387C36.6074 30.1387 37.916 28.8301 37.916 27.222C37.916 25.6139 36.6074 24.3053 34.9993 24.3053Z" fill="black"/>
<path d="M55.416 40.833H58.3327V52.4997H55.416V40.833Z" fill="black"/>
<path d="M33.0547 40.833H35.9714V52.4997H33.0547V40.833Z" fill="black"/>
<path d="M45.6936 46.6667C39.413 46.6667 33.0547 44.6639 33.0547 40.8333C33.0547 37.0028 39.413 35 45.6936 35C51.9741 35 58.3325 37.0028 58.3325 40.8333C58.3325 44.6639 51.9741 46.6667 45.6936 46.6667ZM45.6936 37.9167C39.2789 37.9167 35.9714 39.9622 35.9714 40.8333C35.9714 41.7044 39.2789 43.75 45.6936 43.75C52.1083 43.75 55.4158 41.7044 55.4158 40.8333C55.4158 39.9622 52.1083 37.9167 45.6936 37.9167Z" fill="black"/>
<path d="M45.6936 58.3333C39.413 58.3333 33.0547 56.3306 33.0547 52.5H35.9714C35.9714 53.3711 39.2789 55.4167 45.6936 55.4167C52.1083 55.4167 55.4158 53.3711 55.4158 52.5H58.3325C58.3325 56.3306 51.9741 58.3333 45.6936 58.3333Z" fill="black"/>
<path d="M45.6936 52.4998C39.413 52.4998 33.0547 50.4971 33.0547 46.6665H35.9714C35.9714 47.5376 39.2789 49.5832 45.6936 49.5832C52.1083 49.5832 55.4158 47.5376 55.4158 46.6665H58.3325C58.3325 50.4971 51.9741 52.4998 45.6936 52.4998Z" fill="black"/>
</svg>
