<svg width="70" height="71" viewBox="0 0 70 71" fill="none" xmlns="http://www.w3.org/2000/svg">
<path d="M15.7773 11.5882C12.2676 24.5713 3.13068 31.6685 1.43901 37.9258C-0.252654 44.183 -0.207933 58.2938 28.5737 66.0755C57.3554 73.8571 66.3582 57.3235 68.2171 50.4402C76.9301 18.2169 21.9937 -11.4068 15.7773 11.5882Z" fill="#EFEFEF"/>
<path d="M15.7539 12.4961L18.5038 9.74623L19.8787 11.1212L17.1288 13.871L15.7539 12.4961Z" fill="#A4AFC1"/>
<path d="M7.84766 20.4009L10.5975 17.651L11.9724 19.0259L9.22259 21.7758L7.84766 20.4009Z" fill="#A4AFC1"/>
<path d="M7.84766 10.7764L9.22259 9.40144L11.9724 12.1513L10.5975 13.5262L7.84766 10.7764Z" fill="#A4AFC1"/>
<path d="M58.3346 17.2972C56.7266 17.2972 55.418 15.9886 55.418 14.3805C55.418 12.7725 56.7266 11.4639 58.3346 11.4639C59.9427 11.4639 61.2513 12.7725 61.2513 14.3805C61.2513 15.9886 59.9427 17.2972 58.3346 17.2972ZM58.3346 13.4083C57.798 13.4083 57.3624 13.8439 57.3624 14.3805C57.3624 14.9172 57.798 15.3528 58.3346 15.3528C58.8713 15.3528 59.3069 14.9172 59.3069 14.3805C59.3069 13.8439 58.8713 13.4083 58.3346 13.4083Z" fill="#A4AFC1"/>
<path d="M35 57.6445C47.0812 57.6445 56.875 47.8508 56.875 35.7695C56.875 23.6883 47.0812 13.8945 35 13.8945C22.9188 13.8945 13.125 23.6883 13.125 35.7695C13.125 47.8508 22.9188 57.6445 35 57.6445Z" fill="#F3F3F1"/>
<path d="M50.8081 41.1167C48.7081 47.8834 42.4275 52.7834 34.9997 52.7834C27.572 52.7834 21.2914 47.8834 19.1914 41.1167H50.8081Z" fill="#FEB46D"/>
<path d="M17.5 35.7695C17.5 24.4276 26.1333 15.102 37.1875 14.0054C36.4681 13.9334 35.7389 13.8945 35 13.8945C22.9192 13.8945 13.125 23.6887 13.125 35.7695C13.125 47.8504 22.9192 57.6445 35 57.6445C35.7389 57.6445 36.4681 57.6056 37.1875 57.5337C26.1333 56.437 17.5 47.1115 17.5 35.7695Z" fill="#D5DBE1"/>
<path d="M23.5664 41.1167H19.1914C21.2914 47.8834 27.572 52.7834 34.9997 52.7834C35.7425 52.7834 36.4697 52.7211 37.1872 52.6259C30.7356 51.7723 25.4564 47.2067 23.5664 41.1167Z" fill="#FF6600"/>
<path d="M35.0009 54.2415C27.0675 54.2415 20.157 49.1413 17.8003 41.5482C17.6622 41.1049 17.7439 40.6246 18.0181 40.2513C18.2942 39.8779 18.7297 39.6582 19.1925 39.6582H50.8092C51.272 39.6582 51.7075 39.8779 51.9836 40.2513C52.2578 40.6246 52.3395 41.1049 52.2014 41.5482C49.8447 49.1413 42.9342 54.2415 35.0009 54.2415ZM21.31 42.5749C23.7581 47.8813 29.0353 51.3249 35.0009 51.3249C40.9664 51.3249 46.2436 47.8813 48.6917 42.5749H21.31Z" fill="black"/>
<path d="M20.9805 43.5474H49.0194V46.464H20.9805V43.5474Z" fill="black"/>
<path d="M35.0013 59.1027C22.1349 59.1027 11.668 48.6358 11.668 35.7694C11.668 22.903 22.1349 12.436 35.0013 12.436C47.8677 12.436 58.3346 22.903 58.3346 35.7694C58.3346 48.6358 47.8677 59.1027 35.0013 59.1027ZM35.0013 15.3527C23.743 15.3527 14.5846 24.511 14.5846 35.7694C14.5846 47.0277 23.743 56.186 35.0013 56.186C46.2596 56.186 55.418 47.0277 55.418 35.7694C55.418 24.511 46.2596 15.3527 35.0013 15.3527Z" fill="black"/>
<path d="M23.8203 22.1582H26.737V27.0193H23.8203V22.1582Z" fill="black"/>
<path d="M25.7656 34.797H21.3965V31.8803H25.7656C26.034 31.8803 26.2517 31.6625 26.2517 31.3942C26.2517 31.1259 26.034 30.9081 25.7656 30.9081H24.7934C22.917 30.9081 21.3906 29.3817 21.3906 27.5053C21.3906 25.6289 22.917 24.1025 24.7934 24.1025H29.1684V27.0192H24.7934C24.5251 27.0192 24.3073 27.237 24.3073 27.5053C24.3073 27.7737 24.5251 27.9914 24.7934 27.9914H25.7656C27.642 27.9914 29.1684 29.5178 29.1684 31.3942C29.1684 33.2706 27.642 34.797 25.7656 34.797Z" fill="black"/>
<path d="M23.8203 31.8804H26.737V36.7415H23.8203V31.8804Z" fill="black"/>
<path d="M43.2656 22.1582H46.1823V27.0193H43.2656V22.1582Z" fill="black"/>
<path d="M45.2109 34.797H40.8418V31.8803H45.2109C45.4793 31.8803 45.697 31.6625 45.697 31.3942C45.697 31.1259 45.4793 30.9081 45.2109 30.9081H44.2387C42.3623 30.9081 40.8359 29.3817 40.8359 27.5053C40.8359 25.6289 42.3623 24.1025 44.2387 24.1025H48.6137V27.0192H44.2387C43.9704 27.0192 43.7526 27.237 43.7526 27.5053C43.7526 27.7737 43.9704 27.9914 44.2387 27.9914H45.2109C47.0873 27.9914 48.6137 29.5178 48.6137 31.3942C48.6137 33.2706 47.0873 34.797 45.2109 34.797Z" fill="black"/>
<path d="M43.2656 31.8804H46.1823V36.7415H43.2656V31.8804Z" fill="black"/>
</svg>
