<svg width="70" height="70" viewBox="0 0 70 70" fill="none" xmlns="http://www.w3.org/2000/svg">
<path d="M53.7117 61.8977C40.262 61.8977 31.0259 68.8646 24.5451 68.8646C18.0642 68.8646 4.45312 65.1391 4.45312 35.3249C4.45312 5.51073 22.764 1.13379 29.8923 1.13379C63.2726 1.13379 77.5312 61.8977 53.7117 61.8977Z" fill="#EFEFEF"/>
<path d="M18.7148 6.31934H20.6593V10.2082H18.7148V6.31934Z" fill="#A4AFC1"/>
<path d="M11.9102 12.1528H15.799V14.0973H11.9102V12.1528Z" fill="#A4AFC1"/>
<path d="M23.0898 12.1528H26.9787V14.0973H23.0898V12.1528Z" fill="#A4AFC1"/>
<path d="M43.2622 35.4861V33.6933C43.2622 32.6628 42.8519 31.6731 42.1227 30.9439L39.3733 28.1944V22.4817C39.3733 20.5042 38.7705 18.5733 37.6447 16.9478L34.9983 13.125L32.3519 16.9478C31.226 18.5733 30.6233 20.5042 30.6233 22.4817V28.1944L27.8738 30.9439C27.1447 31.6731 26.7344 32.6628 26.7344 33.6933V35.4861H43.2622Z" fill="#F3F3F1"/>
<path d="M54.9306 20.9028H46.1806H39.2389C39.3244 21.422 39.375 21.9489 39.375 22.4817V28.1945L42.1244 30.9439C42.8536 31.6731 43.2639 32.6628 43.2639 33.6934V35.4862H26.7361V33.6934C26.7361 32.6628 27.1464 31.6731 27.8756 30.9439L30.625 28.1945V22.4817C30.625 21.9509 30.6756 21.4239 30.7611 20.9028H23.8194H15.0694C13.9961 20.9028 13.125 21.7739 13.125 22.8473V47.1528C13.125 48.2262 13.9961 49.0973 15.0694 49.0973H54.9306C56.0039 49.0973 56.875 48.2262 56.875 47.1528V22.8473C56.875 21.7739 56.0039 20.9028 54.9306 20.9028Z" fill="#FEB46D"/>
<path d="M17.5 47.1528V22.8473C17.5 21.7739 18.3711 20.9028 19.4444 20.9028H15.0694C13.9961 20.9028 13.125 21.7739 13.125 22.8473V47.1528C13.125 48.2262 13.9961 49.0973 15.0694 49.0973H19.4444C18.3711 49.0973 17.5 48.2262 17.5 47.1528Z" fill="#FF6600"/>
<path d="M32.0058 30.9439L34.7552 28.1944V22.4817C34.7552 20.5042 35.358 18.5733 36.4838 16.9478L37.0633 16.1097L34.9983 13.125L32.3519 16.9478C31.226 18.5733 30.6233 20.5042 30.6233 22.4817V28.1944L27.8738 30.9439C27.1447 31.6731 26.7344 32.6628 26.7344 33.6933V35.4861H30.8663V33.6933C30.8663 32.6628 31.2766 31.6731 32.0058 30.9439Z" fill="#D5DBE1"/>
<path d="M54.9319 50.5554H15.0707C13.1944 50.5554 11.668 49.0291 11.668 47.1527V22.8471C11.668 20.9707 13.1944 19.4443 15.0707 19.4443H23.8207V22.361H15.0707C14.8024 22.361 14.5846 22.5788 14.5846 22.8471V47.1527C14.5846 47.421 14.8024 47.6388 15.0707 47.6388H54.9319C55.2002 47.6388 55.418 47.421 55.418 47.1527V22.8471C55.418 22.5788 55.2002 22.361 54.9319 22.361H46.1819V19.4443H54.9319C56.8083 19.4443 58.3346 20.9707 58.3346 22.8471V47.1527C58.3346 49.0291 56.8083 50.5554 54.9319 50.5554Z" fill="black"/>
<path d="M33.543 49.0972H36.4596V56.8749H33.543V49.0972Z" fill="black"/>
<path d="M25.2773 55.4165H44.7218V58.3332H25.2773V55.4165Z" fill="black"/>
<path d="M43.2635 36.9444H26.7357C25.9307 36.9444 25.2773 36.2911 25.2773 35.4861V33.6953C25.2773 32.2661 25.8335 30.9244 26.8446 29.9133L29.1662 27.5897V22.4817C29.1662 20.1989 29.8546 17.9978 31.1515 16.1175L33.7998 12.2947C34.3423 11.5072 35.6529 11.5072 36.1954 12.2947L38.8418 16.1175C40.1446 17.9978 40.8329 20.1989 40.8329 22.4817V27.5897L43.1546 29.9114C44.1657 30.9225 44.7218 32.2642 44.7218 33.6933V35.4842C44.7218 36.2911 44.0685 36.9444 43.2635 36.9444ZM28.194 34.0278H41.8051V33.6953C41.8051 33.0458 41.5523 32.4353 41.0935 31.9764L38.344 29.225C38.0698 28.9508 37.9162 28.5794 37.9162 28.1944V22.4817C37.9162 20.7939 37.4068 19.1664 36.4462 17.7781L34.9996 15.6858L33.551 17.7761C32.5923 19.1644 32.0829 20.7919 32.0829 22.4797V28.1944C32.0829 28.5814 31.9293 28.9528 31.6551 29.225L28.9057 31.9744C28.4468 32.4333 28.194 33.0439 28.194 33.6933V34.0278Z" fill="black"/>
<path d="M37.918 35.4863H40.8346V39.3752H37.918V35.4863Z" fill="black"/>
<path d="M29.168 35.4863H32.0846V39.3752H29.168V35.4863Z" fill="black"/>
<path d="M3.89062 55.4165H66.1128V58.3332H3.89062V55.4165Z" fill="black"/>
</svg>
