<svg width="70" height="70" viewBox="0 0 70 70" fill="none" xmlns="http://www.w3.org/2000/svg">
<g clip-path="url(#clip0_6952_28140)">
<path d="M67.8653 39.5791C60.5114 28.3189 61.2931 16.7766 57.7484 11.3497C54.2037 5.92275 43.6395 -3.43391 18.6787 12.8703C-6.28217 29.1744 0.0664425 46.898 3.967 52.8655C22.2214 80.8111 80.8912 59.5214 67.8653 39.5791Z" fill="#EFEFEF"/>
<path d="M63.3708 11.5712L61.9961 12.9463L64.7463 15.6957L66.121 14.3206L63.3708 11.5712Z" fill="#A4AFC1"/>
<path d="M55.4646 3.66346L54.0898 5.03857L56.8401 7.78802L58.2148 6.41291L55.4646 3.66346Z" fill="#A4AFC1"/>
<path d="M65.0858 3.66325L62.3359 6.41309L63.7109 7.788L66.4607 5.03817L65.0858 3.66325Z" fill="#A4AFC1"/>
<path d="M45.2057 67.2581C43.5977 67.2581 42.2891 65.9495 42.2891 64.3415C42.2891 62.7334 43.5977 61.4248 45.2057 61.4248C46.8138 61.4248 48.1224 62.7334 48.1224 64.3415C48.1224 65.9495 46.8138 67.2581 45.2057 67.2581ZM45.2057 63.3692C44.6691 63.3692 44.2335 63.8067 44.2335 64.3415C44.2335 64.8762 44.6691 65.3137 45.2057 65.3137C45.7424 65.3137 46.178 64.8762 46.178 64.3415C46.178 63.8067 45.7424 63.3692 45.2057 63.3692Z" fill="#A4AFC1"/>
<path d="M54.9266 21.875H15.0655C13.9922 21.875 13.1211 21.0039 13.1211 19.9306V15.0694C13.1211 13.9961 13.9922 13.125 15.0655 13.125H54.9266C56 13.125 56.8711 13.9961 56.8711 15.0694V19.9306C56.8711 21.0039 56 21.875 54.9266 21.875Z" fill="#FEB46D"/>
<path d="M15.0655 56.8751H39.3711C40.4444 56.8751 41.3155 56.004 41.3155 54.9307V30.6251C41.3155 29.5518 40.4444 28.6807 39.3711 28.6807H15.0655C13.9922 28.6807 13.1211 29.5518 13.1211 30.6251V54.9307C13.1211 56.004 13.9922 56.8751 15.0655 56.8751Z" fill="#F3F3F1"/>
<path d="M52.4961 47.1528C54.913 47.1528 56.8711 49.1109 56.8711 51.5278C56.8711 53.9448 54.913 55.9028 52.4961 55.9028C50.0791 55.9028 48.1211 53.9448 48.1211 51.5278C48.1211 49.1109 50.0791 47.1528 52.4961 47.1528Z" fill="#FEB46D"/>
<path d="M17.4961 19.9306V15.0694C17.4961 13.9961 18.3672 13.125 19.4405 13.125H15.0655C13.9922 13.125 13.1211 13.9961 13.1211 15.0694V19.9306C13.1211 21.0039 13.9922 21.875 15.0655 21.875H19.4405C18.3672 21.875 17.4961 21.0039 17.4961 19.9306Z" fill="#FF6600"/>
<path d="M17.4961 54.9307V30.6251C17.4961 29.5518 18.3672 28.6807 19.4405 28.6807H15.0655C13.9922 28.6807 13.1211 29.5518 13.1211 30.6251V54.9307C13.1211 56.004 13.9922 56.8751 15.0655 56.8751H19.4405C18.3672 56.8751 17.4961 56.004 17.4961 54.9307Z" fill="#D5DBE1"/>
<path d="M52.4961 51.5278C52.4961 49.912 53.3808 48.5178 54.6836 47.7595C54.038 47.3842 53.2972 47.1528 52.4961 47.1528C50.0791 47.1528 48.1211 49.1109 48.1211 51.5278C48.1211 53.9448 50.0791 55.9028 52.4961 55.9028C53.2972 55.9028 54.038 55.6714 54.6836 55.2962C53.3808 54.5378 52.4961 53.1437 52.4961 51.5278Z" fill="#FF6600"/>
<path d="M54.928 23.3332H15.0668C13.1905 23.3332 11.6641 21.8068 11.6641 19.9304V15.0693C11.6641 13.1929 13.1905 11.6665 15.0668 11.6665H54.928C56.8043 11.6665 58.3307 13.1929 58.3307 15.0693V19.9304C58.3307 21.8068 56.8043 23.3332 54.928 23.3332ZM15.0668 14.5832C14.7985 14.5832 14.5807 14.8009 14.5807 15.0693V19.9304C14.5807 20.1987 14.7985 20.4165 15.0668 20.4165H54.928C55.1963 20.4165 55.4141 20.1987 55.4141 19.9304V15.0693C55.4141 14.8009 55.1963 14.5832 54.928 14.5832H15.0668Z" fill="black"/>
<path d="M39.3724 58.3333H15.0668C13.1905 58.3333 11.6641 56.8069 11.6641 54.9305V30.6249C11.6641 28.7486 13.1905 27.2222 15.0668 27.2222H39.3724C41.2488 27.2222 42.7752 28.7486 42.7752 30.6249V54.9305C42.7752 56.8069 41.2488 58.3333 39.3724 58.3333ZM15.0668 30.1388C14.7985 30.1388 14.5807 30.3566 14.5807 30.6249V54.9305C14.5807 55.1988 14.7985 55.4166 15.0668 55.4166H39.3724C39.6407 55.4166 39.8585 55.1988 39.8585 54.9305V30.6249C39.8585 30.3566 39.6407 30.1388 39.3724 30.1388H15.0668Z" fill="black"/>
<path d="M27.2214 40.8333C25.6133 40.8333 24.3047 39.5247 24.3047 37.9167C24.3047 36.3086 25.6133 35 27.2214 35C28.8294 35 30.138 36.3086 30.138 37.9167C30.138 39.5247 28.8294 40.8333 27.2214 40.8333ZM27.2214 37.9147V37.9186L28.6797 37.9167L27.2214 37.9147Z" fill="black"/>
<path d="M33.0534 47.1528H30.1367V46.4237C30.1367 46.0795 29.637 45.6945 28.9701 45.6945H25.4701C24.8031 45.6945 24.3034 46.0795 24.3034 46.4237V47.1528H21.3867V46.4237C21.3867 44.4131 23.2184 42.7778 25.4701 42.7778H28.9701C31.2217 42.7778 33.0534 44.4131 33.0534 46.4237V47.1528Z" fill="black"/>
<path d="M52.4974 57.361C49.2813 57.361 46.6641 54.7438 46.6641 51.5277C46.6641 48.3116 49.2813 45.6943 52.4974 45.6943C55.7135 45.6943 58.3307 48.3116 58.3307 51.5277C58.3307 54.7438 55.7135 57.361 52.4974 57.361ZM52.4974 48.611C50.8893 48.611 49.5807 49.9196 49.5807 51.5277C49.5807 53.1357 50.8893 54.4443 52.4974 54.4443C54.1055 54.4443 55.4141 53.1357 55.4141 51.5277C55.4141 49.9196 54.1055 48.611 52.4974 48.611Z" fill="black"/>
<path d="M56.8711 33.0552H48.1211V35.9718H56.8711V33.0552Z" fill="black"/>
<path d="M56.8711 27.2222H48.1211V30.1388H56.8711V27.2222Z" fill="black"/>
<path d="M56.8711 38.8887H48.1211V41.8053H56.8711V38.8887Z" fill="black"/>
</g>
<defs>
<clipPath id="clip0_6952_28140">
<rect width="70" height="70" fill="white" transform="translate(-0.00390625)"/>
</clipPath>
</defs>
</svg>
