<svg width="70" height="71" viewBox="0 0 70 71" fill="none" xmlns="http://www.w3.org/2000/svg">
<path d="M52.4631 8.3802C39.0154 8.63103 29.6509 1.83714 23.1701 1.95964C16.6893 2.08214 3.15009 6.06048 3.70814 35.8708C4.2662 65.681 22.6548 69.7119 29.7831 69.5797C63.1576 68.9555 76.2767 7.93492 52.4631 8.3802Z" fill="#EFEFEF"/>
<path d="M8.65885 9.27645C7.0508 9.27645 5.74219 7.96784 5.74219 6.35978C5.74219 4.75173 7.0508 3.44312 8.65885 3.44312C10.2669 3.44312 11.5755 4.75173 11.5755 6.35978C11.5755 7.96784 10.2669 9.27645 8.65885 9.27645ZM8.65885 5.38756C8.12413 5.38756 7.68663 5.82312 7.68663 6.35978C7.68663 6.89645 8.12413 7.332 8.65885 7.332C9.19358 7.332 9.63108 6.89645 9.63108 6.35978C9.63108 5.82312 9.19552 5.38756 8.65885 5.38756Z" fill="#A4AFC1"/>
<path d="M54.9733 57.6445H15.0267C13.9767 57.6445 13.125 56.7929 13.125 55.7429V15.7962C13.125 14.7462 13.9767 13.8945 15.0267 13.8945H54.9714C56.0214 13.8945 56.8731 14.7462 56.8731 15.7962V55.7409C56.875 56.7929 56.0233 57.6445 54.9733 57.6445Z" fill="#F3F3F1"/>
<path d="M56.875 15.8001V21.6723H13.125V15.8001C13.125 14.7501 13.9806 13.8945 15.0306 13.8945H54.9694C56.0194 13.8945 56.875 14.7501 56.875 15.8001Z" fill="#FEB46D"/>
<path d="M18.957 45.0056H51.0404V48.8945H18.957V45.0056Z" fill="#FEB46D"/>
<path d="M17.0139 55.739C17.0139 56.789 17.8694 57.6445 18.9194 57.6445H15.0306C13.9806 57.6445 13.125 56.789 13.125 55.739V15.8001C13.125 14.7501 13.9806 13.8945 15.0306 13.8945H18.9194C17.8694 13.8945 17.0139 14.7501 17.0139 15.8001V55.739Z" fill="#D5DBE1"/>
<path d="M18.9194 13.8945C17.8694 13.8945 17.0139 14.7501 17.0139 15.8001V21.6723H13.125V15.8001C13.125 14.7501 13.9806 13.8945 15.0306 13.8945H18.9194Z" fill="#FF6600"/>
<path d="M18.957 45.0056H22.8459V48.8945H18.957V45.0056Z" fill="#FF6600"/>
<path d="M54.9727 59.1029H15.0299C13.1749 59.1029 11.668 57.596 11.668 55.7429V15.7963C11.668 13.9432 13.1749 12.4363 15.0299 12.4363H54.9746C56.8277 12.4363 58.3346 13.9432 58.3346 15.7963V55.7429C58.3346 57.596 56.8277 59.1029 54.9727 59.1029ZM15.0299 15.3529C14.7849 15.3529 14.5846 15.5513 14.5846 15.7963V55.7429C14.5846 55.9879 14.7849 56.1863 15.0299 56.1863H54.9746C55.2196 56.1863 55.4199 55.9879 55.4199 55.7429V15.7963C55.4199 15.5513 55.2196 15.3529 54.9746 15.3529H15.0299Z" fill="black"/>
<path d="M13.125 20.2139H56.875V23.1305H13.125V20.2139Z" fill="black"/>
<path d="M19.4444 19.7278C20.5183 19.7278 21.3889 18.8572 21.3889 17.7833C21.3889 16.7094 20.5183 15.8389 19.4444 15.8389C18.3706 15.8389 17.5 16.7094 17.5 17.7833C17.5 18.8572 18.3706 19.7278 19.4444 19.7278Z" fill="black"/>
<path d="M25.2765 19.7278C26.3504 19.7278 27.2209 18.8572 27.2209 17.7833C27.2209 16.7094 26.3504 15.8389 25.2765 15.8389C24.2026 15.8389 23.332 16.7094 23.332 17.7833C23.332 18.8572 24.2026 19.7278 25.2765 19.7278Z" fill="black"/>
<path d="M31.1124 19.7278C32.1863 19.7278 33.0569 18.8572 33.0569 17.7833C33.0569 16.7094 32.1863 15.8389 31.1124 15.8389C30.0385 15.8389 29.168 16.7094 29.168 17.7833C29.168 18.8572 30.0385 19.7278 31.1124 19.7278Z" fill="black"/>
<path d="M51.0417 50.3529H18.9583C18.1533 50.3529 17.5 49.6996 17.5 48.8946V45.0057C17.5 44.2007 18.1533 43.5474 18.9583 43.5474H51.0417C51.8467 43.5474 52.5 44.2007 52.5 45.0057V48.8946C52.5 49.6996 51.8467 50.3529 51.0417 50.3529ZM20.4167 47.4363H49.5833V46.464H20.4167V47.4363Z" fill="black"/>
<path d="M35.7292 39.1723H31.1111V36.2557H35.7292C36.1239 36.2557 36.4583 35.8104 36.4583 35.2834C36.4583 34.7565 36.1239 34.3112 35.7292 34.3112H34.2708C32.2603 34.3112 30.625 32.5671 30.625 30.4223C30.625 28.2776 32.2603 26.5334 34.2708 26.5334H38.8889V29.4501H34.2708C33.8761 29.4501 33.5417 29.8954 33.5417 30.4223C33.5417 30.9493 33.8761 31.3946 34.2708 31.3946H35.7292C37.7397 31.3946 39.375 33.1387 39.375 35.2834C39.375 37.4282 37.7397 39.1723 35.7292 39.1723Z" fill="black"/>
<path d="M33.543 36.7417H36.4596V41.6028H33.543V36.7417Z" fill="black"/>
<path d="M33.543 24.1028H36.4596V29.45H33.543V24.1028Z" fill="black"/>
</svg>
