<svg width="70" height="71" viewBox="0 0 70 71" fill="none" xmlns="http://www.w3.org/2000/svg">
<path d="M62.0998 55.4647C62.0998 42.0149 69.0668 32.7788 69.0668 26.298C69.0668 19.8172 65.3412 6.20605 35.5271 6.20605C5.71288 6.20605 1.33594 24.5149 1.33594 31.6452C1.33594 65.0255 62.0998 79.2841 62.0998 55.4647Z" fill="#EFEFEF"/>
<path d="M10.8971 15.3646C9.28908 15.3646 7.98047 14.056 7.98047 12.4479C7.98047 10.8399 9.28908 9.53125 10.8971 9.53125C12.5052 9.53125 13.8138 10.8399 13.8138 12.4479C13.8138 14.056 12.5052 15.3646 10.8971 15.3646ZM10.8971 11.4757C10.3605 11.4757 9.92491 11.9113 9.92491 12.4479C9.92491 12.9846 10.3605 13.4201 10.8971 13.4201C11.4338 13.4201 11.8694 12.9846 11.8694 12.4479C11.8694 11.9113 11.4338 11.4757 10.8971 11.4757Z" fill="#A4AFC1"/>
<path d="M51.5295 23.1308C53.6773 23.1308 55.4184 21.3897 55.4184 19.2419C55.4184 17.0941 53.6773 15.353 51.5295 15.353C49.3817 15.353 47.6406 17.0941 47.6406 19.2419C47.6406 21.3897 49.3817 23.1308 51.5295 23.1308Z" fill="#FEB46D"/>
<path d="M34.9983 48.4086C41.9785 48.4086 47.6372 42.75 47.6372 35.7697C47.6372 28.7895 41.9785 23.1309 34.9983 23.1309C28.018 23.1309 22.3594 28.7895 22.3594 35.7697C22.3594 42.75 28.018 48.4086 34.9983 48.4086Z" fill="#F3F3F1"/>
<path d="M23.3339 40.6694H23.3534C24.0145 40.5527 24.5978 40.2416 25.0645 39.7944C25.6284 39.2111 25.9978 38.4333 25.9978 37.5583C26.0173 36.7611 26.2895 36.0416 26.7561 35.4583C27.2423 34.875 27.9034 34.4472 28.6811 34.2916C30.6645 33.8639 32.0839 32.1139 32.0839 30.0916V28.925C32.0839 27.0777 31.2089 25.3472 29.77 24.2583C29.77 24.2583 20.0128 28.7986 23.3339 40.6694Z" fill="#FEB46D"/>
<path d="M47.3459 38.4334L44.9931 37.0139C44.682 36.8389 44.3515 36.7417 44.0209 36.7417C43.3987 36.7417 42.8154 37.0334 42.4654 37.5778C41.7654 38.6278 40.4042 39.0361 39.2376 38.5695L38.5959 38.3167C38.0515 38.1028 37.4681 37.9861 36.8848 37.9861C35.6598 37.9861 34.4737 38.4723 33.5987 39.3473C31.732 41.2334 31.5765 44.2278 33.2487 46.2889L34.9598 48.4084C34.9598 48.4084 44.1376 48.4706 47.3459 38.4334Z" fill="#FEB46D"/>
<path d="M47.1521 32.3279L43.1076 32.814C42.9326 32.8335 42.7771 32.8529 42.6021 32.8529C41.2215 32.8529 39.9382 32.1335 39.2187 30.9279C36.6326 27.389 38.7132 23.7529 38.7132 23.7529C38.7132 23.7529 45.2076 25.4018 47.1521 32.3279Z" fill="#FEB46D"/>
<path d="M26.2483 35.7697C26.2483 29.4522 30.8877 24.2334 36.9427 23.2961C36.3069 23.197 35.6613 23.1309 34.9983 23.1309C28.0177 23.1309 22.3594 28.7892 22.3594 35.7697C22.3594 42.7503 28.0177 48.4086 34.9983 48.4086C35.6613 48.4086 36.3069 48.3425 36.9427 48.2434C30.8877 47.3061 26.2483 42.0872 26.2483 35.7697Z" fill="#D5DBE1"/>
<path d="M31.2128 25.9189C30.8336 25.2869 30.3631 24.7094 29.77 24.2583C29.77 24.2583 20.0128 28.7986 23.3339 40.6694H23.3534C24.0145 40.5527 24.5978 40.2416 25.0645 39.7944C25.6284 39.2111 25.9978 38.4333 25.9978 37.5583C26.0134 36.903 26.237 36.3216 26.5617 35.8044C26.6161 30.8189 29.1731 27.6455 31.2128 25.9189Z" fill="#FF6600"/>
<path d="M51.5295 19.2419C51.5295 17.8069 52.317 16.5664 53.474 15.8916C52.9003 15.5572 52.2412 15.353 51.5295 15.353C49.3809 15.353 47.6406 17.0933 47.6406 19.2419C47.6406 21.3905 49.3809 23.1308 51.5295 23.1308C52.2412 23.1308 52.9003 22.9247 53.474 22.5922C52.317 21.9175 51.5295 20.6769 51.5295 19.2419Z" fill="#FF6600"/>
<path d="M51.5291 24.1031C48.8496 24.1031 46.668 21.9214 46.668 19.242C46.668 16.5625 48.8496 14.3809 51.5291 14.3809C54.2085 14.3809 56.3902 16.5625 56.3902 19.242C56.3902 21.9214 54.2085 24.1031 51.5291 24.1031ZM51.5291 17.2975C50.4577 17.2975 49.5846 18.1706 49.5846 19.242C49.5846 20.3134 50.4577 21.1864 51.5291 21.1864C52.6005 21.1864 53.4735 20.3134 53.4735 19.242C53.4735 18.1706 52.6005 17.2975 51.5291 17.2975Z" fill="black"/>
<path d="M35.0017 49.3804C27.4962 49.3804 21.3906 43.2749 21.3906 35.7693C21.3906 28.2638 27.4962 22.1582 35.0017 22.1582C42.5073 22.1582 48.6128 28.2638 48.6128 35.7693C48.6128 43.2749 42.5073 49.3804 35.0017 49.3804ZM35.0017 25.0749C29.1042 25.0749 24.3073 29.8718 24.3073 35.7693C24.3073 41.6668 29.1042 46.4638 35.0017 46.4638C40.8992 46.4638 45.6962 41.6668 45.6962 35.7693C45.6962 29.8718 40.8992 25.0749 35.0017 25.0749Z" fill="black"/>
<path d="M23.8391 42.0113C23.0341 42.0113 22.3711 41.358 22.3711 40.553C22.3711 39.8724 22.83 39.3008 23.458 39.1394C23.6622 39.0577 23.8644 38.9216 24.0647 38.7349C24.2572 38.5327 24.5411 38.1224 24.5411 37.5585C24.5683 36.4249 24.9397 35.3983 25.6183 34.5485C26.365 33.6521 27.3197 33.0766 28.3989 32.8627C29.7658 32.5671 30.6272 31.803 30.6272 28.9252C30.6272 27.7021 30.1041 26.5199 29.1941 25.6819C28.6011 25.1374 28.5622 24.2158 29.1066 23.6208C29.653 23.0258 30.5747 22.9888 31.1678 23.5333C32.6786 24.9196 33.5458 26.8855 33.5458 28.9233C33.5458 30.3602 33.5458 34.7333 28.9919 35.7152C28.4416 35.826 28.0858 36.143 27.8797 36.3899C27.6191 36.7166 27.4714 37.1288 27.4597 37.5916C27.4597 38.7563 26.9814 39.9113 26.1161 40.8058C25.5347 41.358 24.9416 41.7216 24.3039 41.9335C24.1503 41.986 23.9947 42.0113 23.8391 42.0113Z" fill="black"/>
<path d="M34.6484 49.361C34.2226 49.361 33.8026 49.1763 33.5148 48.8205L32.6009 47.6927C30.4581 45.0502 30.6506 41.2293 33.0462 38.8066C34.769 37.0838 37.3415 36.551 39.6145 37.4435C41.1954 38.0677 41.4812 37.636 41.7359 37.253C42.6809 35.783 44.604 35.3318 46.1926 36.2263L47.612 37.0857C48.3004 37.5018 48.522 38.4002 48.104 39.0885C47.6859 39.7788 46.7895 40.0005 46.1012 39.5805L44.7206 38.7443C44.4698 38.6024 44.2656 38.7035 44.1742 38.8493C42.9356 40.7102 41.0456 41.1418 38.5431 40.156C37.3395 39.6835 36.0192 39.9518 35.1112 40.8618C33.7676 42.2191 33.6587 44.3677 34.8642 45.8532L35.7781 46.983C36.2856 47.6091 36.1884 48.5268 35.5623 49.0343C35.2959 49.256 34.9712 49.361 34.6484 49.361Z" fill="black"/>
<path d="M42.6032 33.8135C40.6627 33.8135 38.9652 32.8626 37.9677 31.1885C35.8346 28.2738 36.4218 25.1918 36.9682 23.6226C37.2327 22.8624 38.0688 22.4599 38.8252 22.7263C39.5854 22.9907 39.9879 23.821 39.7235 24.5832C39.284 25.8393 39.0468 27.7293 40.3982 29.5824C40.9913 30.5643 41.8896 30.9979 42.9474 30.8793L46.3579 30.4729C47.1668 30.3718 47.8843 30.9474 47.9777 31.7485C48.0729 32.5476 47.5013 33.2749 46.7021 33.3682L43.2799 33.7765C43.0524 33.8018 42.8268 33.8135 42.6032 33.8135Z" fill="black"/>
<path d="M53.2872 26.5568L52.5366 25.3065C52.2255 24.7873 51.8911 24.2837 51.5352 23.7957L50.6758 22.6193L53.0305 20.8984L53.8899 22.0748C54.2963 22.6329 54.6794 23.2084 55.0372 23.8034L55.7877 25.0537L53.2872 26.5568Z" fill="black"/>
<path d="M35.0013 59.1027C34.5269 59.1027 34.0563 59.0891 33.5896 59.0599L32.1332 58.9724L32.3102 56.0616L33.7666 56.1491C34.976 56.221 36.2302 56.186 37.4532 56.0402L38.9019 55.8671L39.248 58.7624L37.7994 58.9355C36.8738 59.0463 35.9327 59.1027 35.0013 59.1027ZM26.7705 57.656L25.4405 57.0571C24.161 56.4816 22.9263 55.7855 21.7713 54.9883L20.5696 54.1599L22.2263 51.7585L23.426 52.5869C24.4371 53.283 25.5182 53.8935 26.6363 54.3971L27.9663 54.996L26.7705 57.656ZM44.5213 57.1252L43.168 54.543L44.4591 53.8663C45.546 53.2985 46.5863 52.6258 47.5546 51.8694L48.7038 50.971L50.5005 53.2694L49.3513 54.1677C48.2449 55.033 47.053 55.801 45.8124 56.4524L44.5213 57.1252ZM16.6632 50.2652L15.831 49.0674C15.0299 47.9163 14.3299 46.6835 13.7485 45.406L13.1438 44.078L15.798 42.8705L16.4027 44.1985C16.9121 45.3166 17.5246 46.3938 18.2246 47.401L19.0569 48.6008L16.6632 50.2652ZM54.1755 49.1471L51.6846 47.6305L52.443 46.3841C53.0846 45.3302 53.633 44.218 54.0705 43.0766L54.5935 41.7155L57.3158 42.7616L56.7927 44.1227C56.293 45.4255 55.6669 46.6971 54.9338 47.9008L54.1755 49.1471ZM11.808 38.721L11.7166 37.2646C11.6835 36.7708 11.668 36.271 11.668 35.7694C11.668 34.8613 11.7205 33.9494 11.8235 33.0569L11.9907 31.6083L14.888 31.9446L14.7207 33.3933C14.6294 34.1749 14.5846 34.9741 14.5846 35.7694C14.5846 36.2088 14.5982 36.6463 14.6255 37.0799L14.7169 38.5363L11.808 38.721ZM55.418 37.3249V35.8666C55.418 34.5677 55.313 33.3602 55.1049 32.1838L54.8521 30.7469L57.726 30.2394L57.9788 31.6763C58.2141 33.0219 58.3346 34.3966 58.3346 35.7694V37.2277L55.418 37.3249ZM16.1985 27.6708L13.6105 26.3271L14.2832 25.0321C14.9307 23.7877 15.693 22.5938 16.5544 21.4835L17.4488 20.3324L19.753 22.1194L18.8605 23.2724C18.106 24.2446 17.4391 25.2888 16.8732 26.3758L16.1985 27.6708ZM23.0819 19.1308L21.5535 16.6458L22.796 15.8816C23.9938 15.1446 25.2616 14.5146 26.5663 14.0091L27.9255 13.4821L28.9813 16.2005L27.6221 16.7274C26.4807 17.1708 25.3705 17.721 24.3224 18.3646L23.0819 19.1308ZM39.946 15.903L38.5091 15.6541C37.3599 15.4538 36.1777 15.3527 35.0013 15.3527H33.5546L33.3524 12.4594L35.0013 12.436C36.3449 12.436 37.6944 12.5527 39.0088 12.7802L40.4457 13.0291L39.946 15.903Z" fill="black"/>
<path d="M48.1484 20.0934L46.972 19.2339C46.4859 18.8781 45.9804 18.5456 45.4612 18.2326L44.2109 17.482L45.712 14.9814L46.9623 15.732C47.5573 16.0898 48.1348 16.4709 48.6909 16.8792L49.8673 17.7387L48.1484 20.0934Z" fill="black"/>
</svg>
