<svg width="70" height="70" viewBox="0 0 70 70" fill="none" xmlns="http://www.w3.org/2000/svg">
<path d="M67.8692 39.1846C60.5154 27.9243 61.297 16.3821 57.7523 10.9552C54.2076 5.52822 43.6434 -3.82845 18.6826 12.4757C-6.27826 28.7799 0.0703488 46.5035 3.9709 52.471C22.2253 80.4185 80.8951 59.1268 67.8692 39.1846Z" fill="#EFEFEF"/>
<path d="M52.9861 20.9028H44.8778H21.2333H17.0139C14.875 20.9028 13.125 22.6528 13.125 24.7917V45.2084C13.125 47.3473 14.875 49.0973 17.0139 49.0973H52.9861C55.125 49.0973 56.875 47.3473 56.875 45.2084V24.7917C56.875 22.6528 55.125 20.9028 52.9861 20.9028Z" fill="#F3F3F1"/>
<path d="M17.5 45.2084V24.7917C17.5 22.6528 19.25 20.9028 21.3889 20.9028H21.2333H17.0139C14.875 20.9028 13.125 22.6528 13.125 24.7917V45.2084C13.125 47.3473 14.875 49.0973 17.0139 49.0973H21.3889C19.25 49.0973 17.5 47.3473 17.5 45.2084Z" fill="#D5DBE1"/>
<path d="M25.5001 33.7497L18.9688 35.4667L20.6876 28.9372L36.4979 13.125L41.3104 17.9375L25.5001 33.7497Z" fill="#FEB46D"/>
<path d="M25.0626 29.9094L39.1715 15.7986L36.4979 13.125L20.6876 28.9372L18.9688 35.4667L23.9446 34.1581L25.0626 29.9094Z" fill="#FF6600"/>
<path d="M58.5977 53.4722H62.4865V55.4166H58.5977V53.4722Z" fill="#A4AFC1"/>
<path d="M47.418 53.4722H51.3069V55.4166H47.418V53.4722Z" fill="#A4AFC1"/>
<path d="M54.2227 57.8472H56.1671V61.7361H54.2227V57.8472Z" fill="#A4AFC1"/>
<path d="M11.6667 14.5833C10.0586 14.5833 8.75 13.2747 8.75 11.6667C8.75 10.0586 10.0586 8.75 11.6667 8.75C13.2747 8.75 14.5833 10.0586 14.5833 11.6667C14.5833 13.2747 13.2747 14.5833 11.6667 14.5833ZM11.6667 10.6944C11.13 10.6944 10.6944 11.13 10.6944 11.6667C10.6944 12.2033 11.13 12.6389 11.6667 12.6389C12.2033 12.6389 12.6389 12.2014 12.6389 11.6667C12.6389 11.1319 12.2033 10.6944 11.6667 10.6944Z" fill="#A4AFC1"/>
<path d="M52.9874 50.5554H17.0152C14.0655 50.5554 11.668 48.156 11.668 45.2082V24.7916C11.668 21.8418 14.0655 19.4443 17.0152 19.4443H21.2346V22.361H17.0152C15.6755 22.361 14.5846 23.4518 14.5846 24.7916V45.2082C14.5846 46.5479 15.6755 47.6388 17.0152 47.6388H52.9874C54.3271 47.6388 55.418 46.5479 55.418 45.2082V24.7916C55.418 23.4518 54.3271 22.361 52.9874 22.361H44.8791V19.4443H52.9874C55.9371 19.4443 58.3346 21.8418 58.3346 24.7916V45.2082C58.3346 48.156 55.9352 50.5554 52.9874 50.5554Z" fill="black"/>
<path d="M18.9694 36.9268C18.5883 36.9268 18.215 36.7771 17.9389 36.499C17.5733 36.1334 17.4275 35.5987 17.5597 35.0971L19.2786 28.5657C19.3447 28.3148 19.475 28.0873 19.6577 27.9046L35.47 12.0923C35.7422 11.8201 36.1136 11.6665 36.4986 11.6665C36.8855 11.6665 37.2569 11.8201 37.5291 12.0943L42.3416 16.9087C42.9114 17.4784 42.9114 18.4021 42.3416 18.9718L26.5294 34.7821C26.3466 34.9648 26.1191 35.0951 25.8702 35.1612L19.3389 36.8821C19.2183 36.9112 19.0919 36.9268 18.9694 36.9268ZM21.9969 29.6876L21.015 33.4209L24.7464 32.4371L39.248 17.9373L36.4986 15.1859L21.9969 29.6876Z" fill="black"/>
<path d="M40.3477 29.1665H51.0421V32.0832H40.3477V29.1665Z" fill="black"/>
<path d="M18.9609 38.8887H51.0443V41.8053H18.9609V38.8887Z" fill="black"/>
</svg>
