<svg width="70" height="70" viewBox="0 0 70 70" fill="none" xmlns="http://www.w3.org/2000/svg">
<path d="M53.3049 7.21589C39.8591 7.46673 30.4927 0.672838 24.0138 0.795338C17.5349 0.917838 3.99383 4.89812 4.55189 34.7065C5.10995 64.5148 23.4986 68.5476 30.6269 68.4153C63.9994 67.7912 77.1205 6.77062 53.3049 7.21589Z" fill="#EFEFEF"/>
<path d="M26.7266 43.2639V49.0972C26.7266 50.1706 27.5977 51.0417 28.671 51.0417H54.921C55.9943 51.0417 56.8655 50.1706 56.8655 49.0972V32.5694C56.8655 31.4961 55.9943 30.625 54.921 30.625H39.8516H28.671C27.5977 30.625 26.7266 31.4961 26.7266 32.5694V43.2639Z" fill="white"/>
<path d="M31.1016 49.0972V43.2639V32.5694C31.1016 31.4961 31.9727 30.625 33.046 30.625H28.671C27.5977 30.625 26.7266 31.4961 26.7266 32.5694V43.2639V49.0972C26.7266 50.1706 27.5977 51.0417 28.671 51.0417H33.046C31.9727 51.0417 31.1016 50.1706 31.1016 49.0972Z" fill="#D5DBE1"/>
<path d="M39.3672 24.7858V47.1469C39.3672 46.0774 38.92 45.1052 38.22 44.4052C37.52 43.6858 36.5477 43.258 35.4783 43.258H15.0616C13.9922 43.258 13.1172 42.4024 13.1172 41.3135V24.7858C13.1172 23.7163 13.9922 22.8413 15.0616 22.8413H37.4227C38.4922 22.8413 39.3672 23.7163 39.3672 24.7858Z" fill="#FEB46D"/>
<path d="M17.4922 41.3135V24.7858C17.4922 23.7163 18.3672 22.8413 19.4366 22.8413H15.0616C13.9922 22.8413 13.1172 23.7163 13.1172 24.7858V41.3135C13.1172 42.4024 13.9922 43.258 15.0616 43.258H19.4366C18.3672 43.258 17.4922 42.4024 17.4922 41.3135Z" fill="#FF6600"/>
<path d="M58.082 16.0417H61.9709V17.9862H58.082V16.0417Z" fill="#A4AFC1"/>
<path d="M46.9023 16.0417H50.7912V17.9862H46.9023V16.0417Z" fill="#A4AFC1"/>
<path d="M53.707 9.23608H55.6515V13.125H53.707V9.23608Z" fill="#A4AFC1"/>
<path d="M53.707 20.4167H55.6515V24.3056H53.707V20.4167Z" fill="#A4AFC1"/>
<path d="M61.0651 57.3612C59.457 57.3612 58.1484 56.0526 58.1484 54.4445C58.1484 52.8364 59.457 51.5278 61.0651 51.5278C62.6732 51.5278 63.9818 52.8364 63.9818 54.4445C63.9818 56.0526 62.6732 57.3612 61.0651 57.3612ZM61.0651 53.4723C60.5284 53.4723 60.0929 53.9098 60.0929 54.4445C60.0929 54.9792 60.5284 55.4167 61.0651 55.4167C61.6018 55.4167 62.0373 54.9792 62.0373 54.4445C62.0373 53.9098 61.6018 53.4723 61.0651 53.4723Z" fill="#A4AFC1"/>
<path d="M54.9223 52.5001H28.6723C26.7959 52.5001 25.2695 50.9737 25.2695 49.0973V43.264H28.1862V49.0973C28.1862 49.3656 28.404 49.5834 28.6723 49.5834H54.9223C55.1906 49.5834 55.4084 49.3656 55.4084 49.0973V32.5695C55.4084 32.3012 55.1906 32.0834 54.9223 32.0834H39.8529V29.1667H54.9223C56.7987 29.1667 58.3251 30.6931 58.3251 32.5695V49.0973C58.3251 50.9737 56.7987 52.5001 54.9223 52.5001Z" fill="black"/>
<path d="M35.4796 52.5H29.6463V49.5834H35.4796C36.8193 49.5834 37.9102 48.4925 37.9102 47.1528C37.9102 45.8131 36.8193 44.7222 35.4796 44.7222H15.0629C13.1865 44.7222 11.6602 43.1959 11.6602 41.3195V24.7917C11.6602 22.9153 13.1865 21.3889 15.0629 21.3889H37.424C39.3004 21.3889 40.8268 22.9153 40.8268 24.7917V47.1528C40.8268 50.1006 38.4293 52.5 35.4796 52.5ZM15.0629 24.3056C14.7946 24.3056 14.5768 24.5234 14.5768 24.7917V41.3195C14.5768 41.5878 14.7946 41.8056 15.0629 41.8056H35.4796C36.3546 41.8056 37.181 42.0156 37.9102 42.3909V24.7917C37.9102 24.5234 37.6924 24.3056 37.424 24.3056H15.0629Z" fill="black"/>
<path d="M18.4648 26.7361H32.076V29.6528H18.4648V26.7361Z" fill="black"/>
<path d="M28.1875 36.4583H34.0208V39.3749H28.1875V36.4583Z" fill="black"/>
<path d="M43.7422 34.5139H53.4644V37.4306H43.7422V34.5139Z" fill="black"/>
<path d="M43.7422 42.2917H53.4644V45.2084H43.7422V42.2917Z" fill="black"/>
</svg>
