<svg width="30" height="30" viewBox="0 0 30 30" fill="none" xmlns="http://www.w3.org/2000/svg">
<path d="M22.9192 5.83122C22.3861 5.29895 21.6636 5 20.9103 5C20.157 5 19.4345 5.29895 18.9014 5.83122L6.14873 18.5842C5.78353 18.9473 5.49397 19.3793 5.29679 19.8551C5.09962 20.3309 4.99875 20.841 5.00001 21.3561V22.9659C5.00001 23.1738 5.08262 23.3733 5.22967 23.5203C5.37672 23.6674 5.57616 23.75 5.78412 23.75H7.39389C7.90886 23.7514 8.419 23.6507 8.89479 23.4537C9.37057 23.2566 9.80255 22.9672 10.1657 22.602L22.9192 9.84828C23.4512 9.31523 23.75 8.59287 23.75 7.83975C23.75 7.08663 23.4512 6.36427 22.9192 5.83122ZM9.05698 21.4933C8.61474 21.9326 8.01722 22.1799 7.39389 22.1817H6.56822V21.3561C6.56743 21.047 6.62794 20.7409 6.74625 20.4555C6.86455 20.17 7.03831 19.9108 7.25745 19.6929L16.9357 10.0145L18.7391 11.818L9.05698 21.4933ZM21.8097 8.73953L19.8447 10.7053L18.0413 8.90576L20.007 6.93997C20.1254 6.82181 20.266 6.72813 20.4206 6.66428C20.5752 6.60043 20.7409 6.56766 20.9082 6.56784C21.0755 6.56802 21.2411 6.60115 21.3955 6.66534C21.55 6.72953 21.6903 6.82351 21.8085 6.94193C21.9267 7.06035 22.0203 7.20088 22.0842 7.3555C22.148 7.51012 22.1808 7.67581 22.1806 7.8431C22.1804 8.01038 22.1473 8.17599 22.0831 8.33048C22.0189 8.48496 21.925 8.62529 21.8065 8.74345L21.8097 8.73953Z" fill="#374957"/>
</svg>
