<svg width="70" height="70" viewBox="0 0 70 70" fill="none" xmlns="http://www.w3.org/2000/svg">
<path d="M16.2889 8.194C29.7386 8.194 38.9747 1.22705 45.4555 1.22705C51.9364 1.22705 65.5475 4.95261 65.5475 34.7687C65.5475 64.5848 47.2367 68.9579 40.1083 68.9579C6.72805 68.9579 -7.53057 8.194 16.2889 8.194Z" fill="#EFEFEF"/>
<path d="M27.4648 7.21777H31.3537V9.16222H27.4648V7.21777Z" fill="#A4AFC1"/>
<path d="M38.6445 7.21777H42.5334V9.16222H38.6445V7.21777Z" fill="#A4AFC1"/>
<path d="M33.7852 0.898438H35.7296V4.78733H33.7852V0.898438Z" fill="#A4AFC1"/>
<path d="M18.9577 54.9307C17.3496 54.9307 16.041 53.6221 16.041 52.0141C16.041 50.406 17.3496 49.0974 18.9577 49.0974C20.5657 49.0974 21.8743 50.406 21.8743 52.0141C21.8743 53.6221 20.5657 54.9307 18.9577 54.9307ZM18.9577 51.0419C18.423 51.0419 17.9855 51.4774 17.9855 52.0141C17.9855 52.5507 18.423 52.9863 18.9577 52.9863C19.4924 52.9863 19.9299 52.5507 19.9299 52.0141C19.9299 51.4774 19.4924 51.0419 18.9577 51.0419Z" fill="#A4AFC1"/>
<path d="M35.0007 13.125C26.1418 13.125 18.959 20.3078 18.959 29.1667C18.959 40.8333 35.0007 56.875 35.0007 56.875C35.0007 56.875 51.0423 40.8333 51.0423 29.1667C51.0423 20.3078 43.8595 13.125 35.0007 13.125ZM40.3479 33.7944C40.3479 35.2664 39.1559 36.4583 37.684 36.4583H30.6257V31.1111V25.7639H36.7118C38.1837 25.7639 39.3757 26.9558 39.3757 28.4278V28.4472C39.3757 29.9192 38.1837 31.1111 36.7118 31.1111H37.684C39.1559 31.1111 40.3479 32.3031 40.3479 33.775V33.7944Z" fill="white"/>
<path d="M36.7111 31.1111H30.625V25.7639H36.7111C38.1831 25.7639 39.375 26.9559 39.375 28.4278V28.4472C39.375 29.9192 38.1831 31.1111 36.7111 31.1111Z" fill="#FEB46D"/>
<path d="M37.6833 36.4583H30.625V31.1111H37.6833C39.1553 31.1111 40.3472 32.303 40.3472 33.775V33.7944C40.3472 35.2664 39.1553 36.4583 37.6833 36.4583Z" fill="#FEB46D"/>
<path d="M23.334 29.1667C23.334 21.0506 29.3657 14.3617 37.1882 13.2922C36.4707 13.1931 35.7454 13.125 35.0007 13.125C26.1418 13.125 18.959 20.3078 18.959 29.1667C18.959 40.8333 35.0007 56.875 35.0007 56.875C35.0007 56.875 35.8757 55.9942 37.1882 54.5378C32.8093 49.6806 23.334 38.1442 23.334 29.1667Z" fill="#D5DBE1"/>
<path d="M30.625 25.7639H35V31.1111H30.625V25.7639Z" fill="#FF6600"/>
<path d="M30.625 31.1111H35V36.4583H30.625V31.1111Z" fill="#FF6600"/>
<path d="M35 58.3334C34.6267 58.3334 34.2533 58.1915 33.9694 57.9056C33.2967 57.2348 17.5 41.2981 17.5 29.1667C17.5 19.5184 25.3497 11.6667 35 11.6667C44.6503 11.6667 52.5 19.5184 52.5 29.1667C52.5 41.2981 36.7033 57.2348 36.0306 57.9056C35.7467 58.1915 35.3733 58.3334 35 58.3334ZM35 14.5834C26.9578 14.5834 20.4167 21.1245 20.4167 29.1667C20.4167 38.4242 31.5175 51.0379 35 54.7654C38.4825 51.0379 49.5833 38.4242 49.5833 29.1667C49.5833 21.1245 43.0422 14.5834 35 14.5834Z" fill="black"/>
<path d="M36.7105 32.5696H30.6243C29.8193 32.5696 29.166 31.9162 29.166 31.1112V25.764C29.166 24.959 29.8193 24.3057 30.6243 24.3057H36.7105C38.9835 24.3057 40.8327 26.1548 40.8327 28.4279C40.8327 30.7204 38.9835 32.5696 36.7105 32.5696ZM32.0827 29.6529H36.7105C37.3755 29.6529 37.916 29.1123 37.916 28.4473C37.916 27.7629 37.3755 27.2223 36.7105 27.2223H32.0827V29.6529Z" fill="black"/>
<path d="M37.6827 37.917H30.6243C29.8193 37.917 29.166 37.2636 29.166 36.4586V31.1114C29.166 30.3064 29.8193 29.6531 30.6243 29.6531H37.6827C39.9557 29.6531 41.8049 31.5022 41.8049 33.7753C41.8049 36.0678 39.9557 37.917 37.6827 37.917ZM32.0827 35.0003H37.6827C38.3477 35.0003 38.8882 34.4597 38.8882 33.7947C38.8882 33.1103 38.3477 32.5697 37.6827 32.5697H32.0827V35.0003Z" fill="black"/>
<path d="M31.1113 22.8474H34.028V25.7641H31.1113V22.8474Z" fill="black"/>
<path d="M35 22.8474H37.9167V25.7641H35V22.8474Z" fill="black"/>
<path d="M35 36.4585H37.9167V39.3752H35V36.4585Z" fill="black"/>
<path d="M31.1113 36.4585H34.028V39.3752H31.1113V36.4585Z" fill="black"/>
</svg>
