<svg width="70" height="70" viewBox="0 0 70 70" fill="none" xmlns="http://www.w3.org/2000/svg">
<path d="M8.09976 53.3187C8.09976 39.8689 1.13281 30.6328 1.13281 24.152C1.13281 17.6712 4.85837 4.05811 34.6725 4.05811C64.4867 4.05811 68.8617 22.3689 68.8617 29.4973C68.8636 62.8775 8.09976 77.1381 8.09976 53.3187Z" fill="#EFEFEF"/>
<path d="M54.9277 42.2917H48.1222C47.0488 42.2917 46.1777 43.1629 46.1777 44.2362V51.5279C46.1777 54.4815 48.5713 56.8751 51.525 56.8751C54.4786 56.8751 56.8722 54.4815 56.8722 51.5279V44.2362C56.8722 43.1629 56.0011 42.2917 54.9277 42.2917Z" fill="white"/>
<path d="M50.5527 51.5279V44.2362C50.5527 43.1629 51.4238 42.2917 52.4972 42.2917H48.1222C47.0488 42.2917 46.1777 43.1629 46.1777 44.2362V51.5279C46.1777 54.4815 48.5713 56.8751 51.525 56.8751C52.3066 56.8751 53.0436 56.6981 53.7125 56.3967C51.8536 55.5606 50.5527 53.6998 50.5527 51.5279Z" fill="#D5DBE1"/>
<path d="M25.2758 37.4306C31.9876 37.4306 37.4286 31.9896 37.4286 25.2778C37.4286 18.566 31.9876 13.125 25.2758 13.125C18.564 13.125 13.123 18.566 13.123 25.2778C13.123 31.9896 18.564 37.4306 25.2758 37.4306Z" fill="#FEB46D"/>
<path d="M17.498 25.2778C17.498 19.3142 21.7972 14.3636 27.4633 13.3311C26.7536 13.2028 26.0244 13.125 25.2758 13.125C18.5636 13.125 13.123 18.5656 13.123 25.2778C13.123 31.99 18.5636 37.4306 25.2758 37.4306C26.0244 37.4306 26.7536 37.3528 27.4633 37.2244C21.7972 36.1919 17.498 31.2414 17.498 25.2778Z" fill="#FF6600"/>
<path d="M7.10156 60.8528L9.85142 58.1029L11.2264 59.4779L8.47649 62.2277L7.10156 60.8528Z" fill="#A4AFC1"/>
<path d="M15.0059 52.948L17.7557 50.1981L19.1306 51.5731L16.3808 54.3229L15.0059 52.948Z" fill="#A4AFC1"/>
<path d="M15.0156 59.8025L16.3906 58.4276L19.1404 61.1774L17.7655 62.5523L15.0156 59.8025Z" fill="#A4AFC1"/>
<path d="M7.10156 51.9146L8.47649 50.5396L11.2264 53.2895L9.85142 54.6644L7.10156 51.9146Z" fill="#A4AFC1"/>
<path d="M59.196 12.639C57.5879 12.639 56.2793 11.3304 56.2793 9.72233C56.2793 8.11428 57.5879 6.80566 59.196 6.80566C60.804 6.80566 62.1126 8.11428 62.1126 9.72233C62.1126 11.3304 60.804 12.639 59.196 12.639ZM59.196 8.75011C58.6612 8.75011 58.2237 9.18761 58.2237 9.72233C58.2237 10.2571 58.6612 10.6946 59.196 10.6946C59.7307 10.6946 60.1682 10.2571 60.1682 9.72233C60.1682 9.18761 59.7307 8.75011 59.196 8.75011Z" fill="#A4AFC1"/>
<path d="M27.1212 24.7044H22.1836V20.3662H27.1212C28.3154 20.3662 29.2825 21.3332 29.2825 22.5274V22.5432C29.2825 23.7374 28.3154 24.7044 27.1212 24.7044Z" fill="#FEB46D"/>
<path d="M27.91 29.0425H22.1836V24.7043H27.91C29.1042 24.7043 30.0712 25.6714 30.0712 26.8656V26.8813C30.0712 28.0755 29.1042 29.0425 27.91 29.0425Z" fill="#FEB46D"/>
<path d="M22.1836 20.3662H25.733V24.7044H22.1836V20.3662Z" fill="#FF6600"/>
<path d="M22.1836 24.7043H25.733V29.0425H22.1836V24.7043Z" fill="#FF6600"/>
<path d="M27.1208 25.8876H22.1831C21.53 25.8876 21 25.3575 21 24.7044V20.3662C21 19.7132 21.53 19.1831 22.1831 19.1831H27.1208C28.9649 19.1831 30.4651 20.6833 30.4651 22.5275C30.4651 24.3874 28.9649 25.8876 27.1208 25.8876ZM23.3663 23.5213H27.1208C27.6603 23.5213 28.0989 23.0827 28.0989 22.5432C28.0989 21.9879 27.6603 21.5494 27.1208 21.5494H23.3663V23.5213Z" fill="black"/>
<path d="M27.9096 30.2257H22.1831C21.53 30.2257 21 29.6957 21 29.0426V24.7044C21 24.0513 21.53 23.5212 22.1831 23.5212H27.9096C29.7537 23.5212 31.2539 25.0215 31.2539 26.8656C31.2539 28.7255 29.7537 30.2257 27.9096 30.2257ZM23.3663 27.8594H27.9096C28.4491 27.8594 28.8876 27.4209 28.8876 26.8814C28.8876 26.3261 28.4491 25.8875 27.9096 25.8875H23.3663V27.8594Z" fill="black"/>
<path d="M22.5781 18H24.9444V20.3663H22.5781V18Z" fill="black"/>
<path d="M25.7324 18H28.0987V20.3663H25.7324V18Z" fill="black"/>
<path d="M25.7324 29.0427H28.0987V31.409H25.7324V29.0427Z" fill="black"/>
<path d="M22.5781 29.0427H24.9444V31.409H22.5781V29.0427Z" fill="black"/>
<path d="M33.5386 58.3334C28.1778 58.3334 23.8164 53.9721 23.8164 48.6112V37.9168H26.7331V48.6112C26.7331 52.364 29.7859 55.4168 33.5386 55.4168C37.2914 55.4168 40.3442 52.364 40.3442 48.6112V21.8751C40.3442 18.3907 43.1792 15.5557 46.6636 15.5557C50.1481 15.5557 52.9831 18.3907 52.9831 21.8751V41.8057H50.0664V21.8751C50.0664 19.9987 48.54 18.4723 46.6636 18.4723C44.7872 18.4723 43.2609 19.9987 43.2609 21.8751V48.6112C43.2609 53.9721 38.8995 58.3334 33.5386 58.3334Z" fill="black"/>
<path d="M51.5243 58.3335C47.7715 58.3335 44.7188 55.2807 44.7188 51.5279V44.2363C44.7188 42.3599 46.2451 40.8335 48.1215 40.8335H54.9271C56.8035 40.8335 58.3299 42.3599 58.3299 44.2363V51.5279C58.3299 55.2788 55.2751 58.3335 51.5243 58.3335ZM48.1215 43.7502C47.8532 43.7502 47.6354 43.9679 47.6354 44.2363V51.5279C47.6354 53.6727 49.3796 55.4168 51.5243 55.4168C53.669 55.4168 55.4132 53.6727 55.4132 51.5279V44.2363C55.4132 43.9679 55.1954 43.7502 54.9271 43.7502H48.1215Z" fill="black"/>
<path d="M25.2752 38.889C17.7716 38.889 11.6641 32.7815 11.6641 25.2779C11.6641 17.7742 17.7716 11.6667 25.2752 11.6667C32.7788 11.6667 38.8863 17.7742 38.8863 25.2779C38.8863 32.7815 32.7788 38.889 25.2752 38.889ZM25.2752 14.5834C19.3796 14.5834 14.5807 19.3823 14.5807 25.2779C14.5807 31.1734 19.3796 35.9723 25.2752 35.9723C31.1707 35.9723 35.9696 31.1734 35.9696 25.2779C35.9696 19.3823 31.1707 14.5834 25.2752 14.5834Z" fill="black"/>
</svg>
