<svg width="70" height="70" viewBox="0 0 70 70" fill="none" xmlns="http://www.w3.org/2000/svg">
<g clip-path="url(#clip0_6314_27338)">
<path d="M14.9297 10.9102C11.42 23.8932 2.28302 30.9904 0.591357 37.2477C-1.10031 43.5049 -1.05559 57.6157 27.7261 65.3974C56.5077 73.179 65.5105 56.6454 67.3694 49.7621C76.0825 17.5407 21.1461 -12.0829 14.9297 10.9102Z" fill="#EFEFEF"/>
<path d="M54.9306 19.9306H15.0694C13.9961 19.9306 13.125 19.0594 13.125 17.9861V15.0694C13.125 13.9961 13.9961 13.125 15.0694 13.125H54.9306C56.0039 13.125 56.875 13.9961 56.875 15.0694V17.9861C56.875 19.0594 56.0039 19.9306 54.9306 19.9306Z" fill="#FEB46D"/>
<path d="M17.5 17.9861V15.0694C17.5 13.9961 18.3711 13.125 19.4444 13.125H15.0694C13.9961 13.125 13.125 13.9961 13.125 15.0694V17.9861C13.125 19.0594 13.9961 19.9306 15.0694 19.9306H19.4444C18.3711 19.9306 17.5 19.0594 17.5 17.9861Z" fill="#FF6600"/>
<path d="M17.0137 19.9307V43.264C17.0137 45.4126 18.7539 47.1529 20.9026 47.1529H49.097C51.2456 47.1529 52.9859 45.4126 52.9859 43.264V19.9307H17.0137Z" fill="white"/>
<path d="M21.3887 43.264V19.9307H17.0137V43.264C17.0137 45.4126 18.7539 47.1529 20.9026 47.1529H25.2776C23.129 47.1529 21.3887 45.4126 21.3887 43.264Z" fill="#D5DBE1"/>
<path d="M21.1445 60.1562L22.5195 58.7813L25.2693 61.5312L23.8944 62.9061L21.1445 60.1562Z" fill="#A4AFC1"/>
<path d="M13.25 52.2307L14.6249 50.8558L17.3748 53.6056L15.9999 54.9806L13.25 52.2307Z" fill="#A4AFC1"/>
<path d="M21.498 53.6069L24.2479 50.8571L25.6228 52.232L22.873 54.9819L21.498 53.6069Z" fill="#A4AFC1"/>
<path d="M13.5918 61.5117L16.3417 58.7619L17.7166 60.1368L14.9667 62.8866L13.5918 61.5117Z" fill="#A4AFC1"/>
<path d="M54.9299 21.389H15.0688C13.1924 21.389 11.666 19.8626 11.666 17.9862V15.0695C11.666 13.1931 13.1924 11.6667 15.0688 11.6667H54.9299C56.8063 11.6667 58.3327 13.1931 58.3327 15.0695V17.9862C58.3327 19.8626 56.8063 21.389 54.9299 21.389ZM15.0688 14.5834C14.8005 14.5834 14.5827 14.8012 14.5827 15.0695V17.9862C14.5827 18.2545 14.8005 18.4723 15.0688 18.4723H54.9299C55.1982 18.4723 55.416 18.2545 55.416 17.9862V15.0695C55.416 14.8012 55.1982 14.5834 54.9299 14.5834H15.0688Z" fill="black"/>
<path d="M49.0964 48.6112H20.9019C17.9522 48.6112 15.5547 46.2137 15.5547 43.264V19.9307H18.4714V43.264C18.4714 44.6037 19.5622 45.6946 20.9019 45.6946H49.0964C50.4361 45.6946 51.5269 44.6037 51.5269 43.264V19.9307H54.4436V43.264C54.4436 46.2137 52.0441 48.6112 49.0964 48.6112Z" fill="black"/>
<path d="M34.9985 58.3334C33.1221 58.3334 31.5957 56.807 31.5957 54.9306C31.5957 53.0542 33.1221 51.5278 34.9985 51.5278C36.8749 51.5278 38.4013 53.0542 38.4013 54.9306C38.4013 56.807 36.8749 58.3334 34.9985 58.3334ZM34.9985 54.4445C34.7301 54.4445 34.5124 54.6623 34.5124 54.9306C34.5124 55.4653 35.4846 55.4653 35.4846 54.9306C35.4846 54.6623 35.2649 54.4445 34.9985 54.4445Z" fill="black"/>
<path d="M33.541 47.6389H36.4577V52.9861H33.541V47.6389Z" fill="black"/>
<path d="M35.7387 40.8333H31.597V37.9166H35.7387C36.4037 37.9166 36.9442 37.3761 36.9442 36.7111C36.9442 36.0266 36.4037 35.4861 35.7387 35.4861H34.2609C31.9878 35.4861 30.1387 33.6369 30.1387 31.3638C30.1387 29.0713 31.9878 27.2222 34.2609 27.2222H38.4026V30.1388H34.2609C33.5959 30.1388 33.0553 30.6794 33.0553 31.3444C33.0553 32.0288 33.5959 32.5694 34.2609 32.5694H35.7387C38.0117 32.5694 39.8609 34.4186 39.8609 36.6916C39.8609 38.9841 38.0117 40.8333 35.7387 40.8333Z" fill="black"/>
<path d="M33.541 25.7639H36.4577V28.6806H33.541V25.7639Z" fill="black"/>
<path d="M33.541 39.375H36.4577V42.2917H33.541V39.375Z" fill="black"/>
</g>
<defs>
<clipPath id="clip0_6314_27338">
<rect width="70" height="70" fill="white"/>
</clipPath>
</defs>
</svg>
