<svg width="71" height="71" viewBox="0 0 71 71" fill="none" xmlns="http://www.w3.org/2000/svg">
<path d="M16.952 61.9739C30.4017 61.9739 39.6378 68.9408 46.1186 68.9408C52.5995 68.9408 66.2106 65.2152 66.2106 35.4011C66.2106 5.5869 47.8997 1.20996 40.7714 1.20996C7.39113 1.20996 -6.86748 61.9739 16.952 61.9739Z" fill="#EFEFEF"/>
<path d="M13.3024 15.6317C11.6944 15.6317 10.3857 14.3231 10.3857 12.715C10.3857 11.107 11.6944 9.79834 13.3024 9.79834C14.9105 9.79834 16.2191 11.107 16.2191 12.715C16.2191 14.3231 14.9105 15.6317 13.3024 15.6317ZM13.3024 11.7428C12.7677 11.7428 12.3302 12.1783 12.3302 12.715C12.3302 13.2517 12.7677 13.6872 13.3024 13.6872C13.8371 13.6872 14.2746 13.2517 14.2746 12.715C14.2746 12.1783 13.8371 11.7428 13.3024 11.7428Z" fill="#A4AFC1"/>
<path d="M46.3573 35.5623C52.5322 35.5623 57.5379 30.5566 57.5379 24.3817C57.5379 18.2069 52.5322 13.2012 46.3573 13.2012C40.1825 13.2012 35.1768 18.2069 35.1768 24.3817C35.1768 30.5566 40.1825 35.5623 46.3573 35.5623Z" fill="#FEB46D"/>
<path d="M32.439 55.6912L34.2045 38.479H17.6768L19.4423 55.6912C19.5434 56.6829 20.3795 57.4373 21.377 57.4373H30.5062C31.5018 57.4373 32.3379 56.6829 32.439 55.6912Z" fill="#FEB46D"/>
<path d="M25.9403 25.8401C27.2827 25.8401 28.3709 24.7519 28.3709 23.4096C28.3709 22.0672 27.2827 20.979 25.9403 20.979C24.598 20.979 23.5098 22.0672 23.5098 23.4096C23.5098 24.7519 24.598 25.8401 25.9403 25.8401Z" fill="#F3F3F1"/>
<path d="M19.6211 33.6178C19.6211 32.0078 20.9278 30.7012 22.5378 30.7012H29.3433C30.9533 30.7012 32.26 32.0078 32.26 33.6178V38.4789H19.6211V33.6178Z" fill="#F3F3F1"/>
<path d="M41.9824 56.9513C41.9824 55.3413 40.6758 54.0347 39.0658 54.0347H36.1491C34.5391 54.0347 33.2324 55.3413 33.2324 56.9513V58.4097H41.9824V56.9513Z" fill="#F3F3F1"/>
<path d="M57.5381 56.9513C57.5381 55.3413 56.2314 54.0347 54.6214 54.0347H51.7048C50.0948 54.0347 48.7881 55.3413 48.7881 56.9513V58.4097H57.5381V56.9513Z" fill="#F3F3F1"/>
<path d="M39.5518 24.3817C39.5518 18.9567 43.4173 14.4359 48.5448 13.4189C47.837 13.277 47.1059 13.2012 46.3573 13.2012C40.1818 13.2012 35.1768 18.2062 35.1768 24.3817C35.1768 30.5573 40.1818 35.5623 46.3573 35.5623C47.1059 35.5623 47.837 35.4865 48.5448 35.3445C43.4173 34.3276 39.5518 29.8067 39.5518 24.3817Z" fill="#FF6600"/>
<path d="M23.8173 55.6912L22.0518 38.479H17.6768L19.4423 55.6912C19.5434 56.6829 20.3795 57.4373 21.377 57.4373H25.752C24.7545 57.4373 23.9184 56.6829 23.8173 55.6912Z" fill="#FF6600"/>
<path d="M27.8857 23.4096C27.8857 23.0401 27.981 22.6998 28.1288 22.3868C27.7399 21.5604 26.9135 20.979 25.9413 20.979C24.5996 20.979 23.5107 22.0679 23.5107 23.4096C23.5107 24.7512 24.5996 25.8401 25.9413 25.8401C26.9135 25.8401 27.7399 25.2587 28.1288 24.4323C27.981 24.1193 27.8857 23.779 27.8857 23.4096Z" fill="#D5DBE1"/>
<path d="M26.9128 30.7012H22.5378C20.9278 30.7012 19.6211 32.0078 19.6211 33.6178V38.4789H23.9961V33.6178C23.9961 32.0078 25.3028 30.7012 26.9128 30.7012Z" fill="#D5DBE1"/>
<path d="M39.7949 54.1377C39.5596 54.0774 39.3185 54.0347 39.0658 54.0347H36.1491C34.5391 54.0347 33.2324 55.3413 33.2324 56.9513V58.4097H37.6074V56.9513C37.6074 55.5941 38.5388 54.4624 39.7949 54.1377Z" fill="#D5DBE1"/>
<path d="M55.3506 54.1377C55.1153 54.0774 54.8742 54.0347 54.6214 54.0347H51.7048C50.0948 54.0347 48.7881 55.3413 48.7881 56.9513V58.4097H53.1631V56.9513C53.1631 55.5941 54.0945 54.4624 55.3506 54.1377Z" fill="#D5DBE1"/>
<path d="M46.3576 37.0205C39.3887 37.0205 33.7188 31.3505 33.7188 24.3816C33.7188 17.4127 39.3887 11.7427 46.3576 11.7427C53.3265 11.7427 58.9965 17.4127 58.9965 24.3816C58.9965 31.3505 53.3265 37.0205 46.3576 37.0205ZM46.3576 14.6593C40.9968 14.6593 36.6354 19.0207 36.6354 24.3816C36.6354 29.7424 40.9968 34.1038 46.3576 34.1038C51.7185 34.1038 56.0799 29.7424 56.0799 24.3816C56.0799 19.0207 51.7185 14.6593 46.3576 14.6593Z" fill="black"/>
<path d="M41.4961 13.9014H44.4128V34.8625H41.4961V13.9014Z" fill="black"/>
<path d="M48.3018 13.9014H51.2184V34.8625H48.3018V13.9014Z" fill="black"/>
<path d="M35.877 19.5205H56.8361V22.4372H35.877V19.5205Z" fill="black"/>
<path d="M35.877 26.3262H56.8361V29.2428H35.877V26.3262Z" fill="black"/>
<path d="M27.8857 58.4094H19.6218C18.8771 58.4094 18.253 57.8475 18.1713 57.1086L16.0713 37.6719L18.9705 37.3589L20.9305 55.4928H27.8857V58.4094Z" fill="black"/>
<path d="M12.3301 37.0205H39.5523V39.9372H12.3301V37.0205Z" fill="black"/>
<path d="M25.9406 27.2983C23.7959 27.2983 22.0518 25.5541 22.0518 23.4094C22.0518 21.2647 23.7959 19.5205 25.9406 19.5205C28.0854 19.5205 29.8295 21.2647 29.8295 23.4094C29.8295 25.5541 28.0854 27.2983 25.9406 27.2983ZM25.9406 22.4372C25.4059 22.4372 24.9684 22.8727 24.9684 23.4094C24.9684 23.9461 25.4059 24.3816 25.9406 24.3816C26.4754 24.3816 26.9129 23.9461 26.9129 23.4094C26.9129 22.8727 26.4754 22.4372 25.9406 22.4372Z" fill="black"/>
<path d="M33.7186 35.076H30.802V33.6177C30.802 32.8127 30.1467 32.1593 29.3436 32.1593H22.5381C21.735 32.1593 21.0798 32.8127 21.0798 33.6177V35.076H18.1631V33.6177C18.1631 31.2046 20.127 29.2427 22.5381 29.2427H29.3436C31.7548 29.2427 33.7186 31.2046 33.7186 33.6177V35.076Z" fill="black"/>
<path d="M53.1628 50.6317C54.7736 50.6317 56.0794 49.3258 56.0794 47.715C56.0794 46.1042 54.7736 44.7983 53.1628 44.7983C51.5519 44.7983 50.2461 46.1042 50.2461 47.715C50.2461 49.3258 51.5519 50.6317 53.1628 50.6317Z" fill="black"/>
<path d="M58.9967 58.4095H56.0801V56.9512C56.0801 56.1462 55.4248 55.4928 54.6217 55.4928H51.7051C50.902 55.4928 50.2467 56.1462 50.2467 56.9512V58.4095H47.3301V56.9512C47.3301 54.5381 49.294 52.5762 51.7051 52.5762H54.6217C57.0329 52.5762 58.9967 54.5381 58.9967 56.9512V58.4095Z" fill="black"/>
<path d="M37.6071 50.6317C39.2179 50.6317 40.5238 49.3258 40.5238 47.715C40.5238 46.1042 39.2179 44.7983 37.6071 44.7983C35.9963 44.7983 34.6904 46.1042 34.6904 47.715C34.6904 49.3258 35.9963 50.6317 37.6071 50.6317Z" fill="black"/>
<path d="M43.4411 58.4095H40.5244V56.9512C40.5244 56.1462 39.8691 55.4928 39.0661 55.4928H36.1494C35.3464 55.4928 34.6911 56.1462 34.6911 56.9512V58.4095H31.7744V56.9512C31.7744 54.5381 33.7383 52.5762 36.1494 52.5762H39.0661C41.4772 52.5762 43.4411 54.5381 43.4411 56.9512V58.4095Z" fill="black"/>
</svg>
