<svg width="70" height="70" viewBox="0 0 70 70" fill="none" xmlns="http://www.w3.org/2000/svg">
<path d="M1.94978 27.8271C8.27505 39.696 6.46867 51.1235 9.51561 56.844C12.5626 62.5646 22.2537 72.8235 48.5659 58.804C74.8781 44.7846 70.1298 26.5671 66.7756 20.2749C51.0801 -9.1854 -9.25217 6.80571 1.94978 27.8271Z" fill="#EFEFEF"/>
<path d="M55.4165 37.9168H50.8276C49.2526 33.3862 44.9164 30.139 39.8414 30.139H29.1664C28.8359 26.8918 26.5803 24.9473 22.3609 24.3057V31.714C21.4664 32.2196 20.6692 32.8418 19.9498 33.5612C19.2303 34.2807 18.6081 35.0779 18.1026 35.9723H14.5831C13.5137 35.9723 12.6387 36.8473 12.6387 37.9168V41.8057C12.6387 42.8751 13.5137 43.7501 14.5831 43.7501H16.7026C17.2859 47.2307 19.4053 50.2057 22.3609 51.8973V55.4168C22.3609 56.4862 23.2359 57.3612 24.3053 57.3612H26.2498C27.3192 57.3612 28.1942 56.4862 28.1942 55.4168V53.4723H39.8609V55.4168C39.8609 56.4862 40.7359 57.3612 41.8053 57.3612H43.7498C44.8192 57.3612 45.6942 56.4862 45.6942 55.4168V51.8973C46.5887 51.3918 47.3859 50.7696 48.1053 50.0501C50.1859 47.989 51.4692 45.1501 51.5081 42.0001L51.2048 41.6909L51.5081 41.8057H55.4165C56.4859 41.8057 57.3609 40.9307 57.3609 39.8612C57.3609 38.7918 56.4859 37.9168 55.4165 37.9168Z" fill="white"/>
<path d="M46.6671 37.9164C46.6671 37.9164 57.3615 33.4034 57.3615 24.3753C57.3615 20.7645 57.3615 16.2495 57.3615 16.2495L46.6671 12.6387L35.9727 16.2495V24.3753C35.9727 33.4034 46.6671 37.9164 46.6671 37.9164Z" fill="#FEB46D"/>
<path d="M27.222 57.089C26.9303 57.264 26.5998 57.3612 26.2498 57.3612H24.3053C23.2359 57.3612 22.3609 56.4862 22.3609 55.4168V51.8973C19.4053 50.2057 17.2859 47.2307 16.7026 43.7501H14.5831C13.5137 43.7501 12.6387 42.8751 12.6387 41.8057V37.9168C12.6387 36.8473 13.5137 35.9723 14.5831 35.9723H18.1026C18.6081 35.0779 19.2303 34.2807 19.9498 33.5612C20.6692 32.8418 21.4664 32.2196 22.3609 31.714V24.3057C23.9164 24.539 25.2192 24.9668 26.2498 25.5696V31.714C25.3553 32.2196 24.5581 32.8418 23.8387 33.5612C23.1192 34.2807 22.497 35.0779 21.9915 35.9723H18.472C17.4026 35.9723 16.5276 36.8473 16.5276 37.9168V41.8057C16.5276 42.8751 17.4026 43.7501 18.472 43.7501H20.5914C21.1748 47.2307 23.2942 50.2057 26.2498 51.8973V55.4168C26.2498 56.1362 26.6387 56.7584 27.222 57.089Z" fill="#D5DBE1"/>
<path d="M48.6115 36.9053C47.4643 37.5859 46.6671 37.9164 46.6671 37.9164C46.6671 37.9164 35.9727 33.4053 35.9727 24.3831C35.9727 18.9581 35.9727 16.2553 35.9727 16.2553L46.6671 12.6387L48.6115 13.2998L39.8615 16.2553V24.3831C39.8615 30.9553 45.5393 35.1359 48.6115 36.9053Z" fill="#FF6600"/>
<path d="M43.7491 58.8193H41.8047C39.9283 58.8193 38.4019 57.2929 38.4019 55.4165V54.9304H29.6519V55.4165C29.6519 57.2929 28.1255 58.8193 26.2491 58.8193H24.3047C22.4283 58.8193 20.9019 57.2929 20.9019 55.4165V52.7098C18.2477 50.9482 16.3441 48.2901 15.5255 45.2082H14.5825C12.7061 45.2082 11.1797 43.6818 11.1797 41.8054V37.9165C11.1797 36.0401 12.7061 34.5137 14.5825 34.5137H17.2872C17.7558 33.8118 18.3002 33.1448 18.9186 32.5284C19.5369 31.9101 20.2019 31.3637 20.9039 30.899V24.3054C20.9039 23.8795 21.0905 23.477 21.4114 23.199C21.7341 22.9209 22.1658 22.8062 22.5819 22.8626C27.7716 23.652 29.7316 26.244 30.383 28.6804H32.0825V31.597H29.1658C28.4172 31.597 27.7911 31.0312 27.7152 30.2865C27.5733 28.8943 26.988 27.0432 23.8186 26.1118V31.7157C23.8186 32.2426 23.5347 32.7268 23.0777 32.9854C22.3214 33.4112 21.6369 33.9382 20.9797 34.5954C20.3264 35.2468 19.8014 35.9332 19.3697 36.6934C19.1111 37.1504 18.6269 37.4323 18.1019 37.4323H14.5825C14.318 37.4323 14.0964 37.654 14.0964 37.9184V41.8073C14.0964 42.0718 14.318 42.2934 14.5825 42.2934H16.7019C17.4136 42.2934 18.0222 42.8087 18.1389 43.5107C18.6444 46.5265 20.4489 49.1223 23.0855 50.6332C23.5386 50.8937 23.8186 51.3759 23.8186 51.899V55.4184C23.8186 55.6829 24.0402 55.9045 24.3047 55.9045H26.2491C26.5136 55.9045 26.7352 55.6829 26.7352 55.4184V53.474C26.7352 52.669 27.3886 52.0157 28.1936 52.0157H39.8602C40.6652 52.0157 41.3186 52.669 41.3186 53.474V55.4184C41.3186 55.6829 41.5402 55.9045 41.8047 55.9045H43.7491C44.0136 55.9045 44.2352 55.6829 44.2352 55.4184V51.899C44.2352 51.372 44.5191 50.8879 44.9761 50.6293C45.7325 50.2034 46.4169 49.6765 47.0741 49.0193C48.9622 47.1507 50.0161 44.652 50.0491 41.9823L52.9658 42.0193C52.923 45.459 51.56 48.679 49.1314 51.0882C48.515 51.7026 47.85 52.249 47.15 52.7137V55.4165C47.1519 57.2929 45.6255 58.8193 43.7491 58.8193Z" fill="black"/>
<path d="M55.4162 43.2641H51.5273V40.3474H55.4162C55.6846 40.3474 55.9023 40.1296 55.9023 39.8613C55.9023 39.5929 55.6846 39.3752 55.4162 39.3752V36.4585C57.2926 36.4585 58.819 37.9849 58.819 39.8613C58.819 41.7377 57.2926 43.2641 55.4162 43.2641Z" fill="black"/>
<path d="M46.6665 39.3751C46.472 39.3751 46.2815 39.3362 46.0987 39.2604C45.6262 39.0601 34.5137 34.2573 34.5137 24.3757V16.2498C34.5137 15.6237 34.9123 15.0696 35.5053 14.8693L46.1998 11.2584C46.5031 11.1554 46.8298 11.1554 47.1331 11.2584L57.8276 14.8693C58.4206 15.0696 58.8192 15.6257 58.8192 16.2498V24.3757C58.8192 34.2573 47.7067 39.0621 47.2342 39.2604C47.0514 39.3362 46.8609 39.3751 46.6665 39.3751ZM37.4303 17.2979V24.3757C37.4303 31.2123 44.5723 35.2665 46.6645 36.3068C48.7548 35.2607 55.9026 31.1871 55.9026 24.3757V17.2979L46.6665 14.179L37.4303 17.2979Z" fill="black"/>
<path d="M45.6943 29.6528C45.6671 29.6528 45.6418 29.6528 45.6146 29.6509C45.1985 29.6276 44.8155 29.4292 44.5549 29.1065L40.666 24.2453L42.9449 22.4215L45.8168 26.0109L51.4693 20.3584L53.5324 22.4215L46.7269 29.227C46.4527 29.4992 46.0793 29.6528 45.6943 29.6528Z" fill="black"/>
<path d="M22.8464 15.5052C21.2383 15.5052 19.9297 14.1966 19.9297 12.5885C19.9297 10.9805 21.2383 9.67188 22.8464 9.67188C24.4544 9.67188 25.763 10.9805 25.763 12.5885C25.763 14.1966 24.4544 15.5052 22.8464 15.5052ZM22.8464 11.6163C22.3116 11.6163 21.8741 12.0519 21.8741 12.5885C21.8741 13.1252 22.3116 13.5608 22.8464 13.5608C23.3811 13.5608 23.8186 13.1252 23.8186 12.5885C23.8186 12.0519 23.3811 11.6163 22.8464 11.6163Z" fill="#A4AFC1"/>
</svg>
