<svg width="70" height="70" viewBox="0 0 70 70" fill="none" xmlns="http://www.w3.org/2000/svg">
<path d="M53.7098 8.10269C40.2601 8.10269 31.024 1.13574 24.5431 1.13574C18.0623 1.13574 4.45117 4.8613 4.45117 34.6755C4.45117 64.4896 22.762 68.8646 29.8903 68.8646C63.2706 68.8666 77.5292 8.10269 53.7098 8.10269Z" fill="#EFEFEF"/>
<path d="M50.3652 7.03223L51.7402 5.6573L54.49 8.40716L53.1151 9.78209L50.3652 7.03223Z" fill="#A4AFC1"/>
<path d="M58.2695 14.9365L59.6445 13.5616L62.3943 16.3115L61.0194 17.6864L58.2695 14.9365Z" fill="#A4AFC1"/>
<path d="M57.9277 8.40771L60.6776 5.65786L62.0525 7.03279L59.3027 9.78264L57.9277 8.40771Z" fill="#A4AFC1"/>
<path d="M34.9989 30.7825L28.0884 35.4861L30.2078 27.1231L23.8184 21.6669L32.0375 21.2003L34.9989 13.125L37.9603 21.2003L46.1795 21.6669L39.79 27.1231L41.9095 35.4861L34.9989 30.7825Z" fill="#FEB46D"/>
<path d="M34.9989 47.1526C36.3413 47.1526 37.4295 46.0644 37.4295 44.7221C37.4295 43.3797 36.3413 42.2915 34.9989 42.2915C33.6566 42.2915 32.5684 43.3797 32.5684 44.7221C32.5684 46.0644 33.6566 47.1526 34.9989 47.1526Z" fill="#F3F3F1"/>
<path d="M28.6777 58.3331V55.2551C28.6777 53.4662 30.2936 52.0137 32.2886 52.0137H37.7058C39.7008 52.0137 41.3166 53.4642 41.3166 55.2551V58.3331H28.6777Z" fill="#F3F3F1"/>
<path d="M33.3753 31.8889L34.5828 27.1231L28.1934 21.6669L36.4125 21.2003L37.1864 19.0906L34.9989 13.125L32.0375 21.2003L23.8184 21.6669L30.2078 27.1231L28.0884 35.4861L33.3753 31.8889Z" fill="#FF6600"/>
<path d="M36.9434 44.7221C36.9434 44.3526 37.0386 44.0123 37.1864 43.6993C36.7975 42.8729 35.9711 42.2915 34.9989 42.2915C33.6572 42.2915 32.5684 43.3804 32.5684 44.7221C32.5684 46.0637 33.6572 47.1526 34.9989 47.1526C35.9711 47.1526 36.7975 46.5712 37.1864 45.7448C37.0386 45.4318 36.9434 45.0915 36.9434 44.7221Z" fill="#D5DBE1"/>
<path d="M36.6636 52.0137H32.2886C30.2936 52.0137 28.6777 53.4642 28.6777 55.2551V58.3331H33.0527V55.2551C33.0527 53.4642 34.6686 52.0137 36.6636 52.0137Z" fill="#D5DBE1"/>
<path d="M41.9086 36.9443C41.6228 36.9443 41.3369 36.8607 41.0881 36.6915L34.9981 32.5479L28.9081 36.6915C28.4083 37.0298 27.7492 37.0279 27.2514 36.6798C26.7556 36.3337 26.5242 35.7134 26.6739 35.1282L28.5697 27.6421L22.8686 22.7751C22.4156 22.3882 22.2444 21.764 22.4331 21.2001C22.6236 20.6362 23.1389 20.2434 23.7319 20.2104L30.9944 19.8001L33.6272 12.6251C33.8392 12.0476 34.3875 11.6665 34.9981 11.6665C35.6086 11.6665 36.1569 12.0476 36.3669 12.6232L38.9997 19.7982L46.2622 20.2084C46.8572 20.2434 47.3706 20.6343 47.5611 21.1982C47.7517 21.764 47.5786 22.3862 47.1256 22.7732L41.4244 27.6401L43.3203 35.1262C43.47 35.7134 43.2386 36.3318 42.7428 36.6779C42.4919 36.8568 42.2003 36.9443 41.9086 36.9443ZM34.9981 29.3259C35.2839 29.3259 35.5697 29.4096 35.8186 29.5787L39.55 32.1182L38.3756 27.4807C38.2394 26.944 38.4203 26.3743 38.8422 26.0146L42.4686 22.9171L37.8758 22.6565C37.2944 22.6234 36.7889 22.2482 36.5886 21.7018L34.9981 17.3598L33.4056 21.7018C33.2053 22.2482 32.6997 22.6234 32.1183 22.6565L27.5256 22.9171L31.1519 26.0146C31.5739 26.3762 31.7547 26.944 31.6186 27.4807L30.4442 32.1182L34.1756 29.5787C34.4264 29.4096 34.7122 29.3259 34.9981 29.3259Z" fill="black"/>
<path d="M34.9983 48.6113C32.8535 48.6113 31.1094 46.8671 31.1094 44.7224C31.1094 42.5777 32.8535 40.8335 34.9983 40.8335C37.143 40.8335 38.8872 42.5777 38.8872 44.7224C38.8872 46.8671 37.143 48.6113 34.9983 48.6113ZM34.9983 43.7502C34.4616 43.7502 34.026 44.1857 34.026 44.7224C34.026 45.2591 34.4616 45.6946 34.9983 45.6946C35.5349 45.6946 35.9705 45.2591 35.9705 44.7224C35.9705 44.1857 35.5349 43.7502 34.9983 43.7502Z" fill="black"/>
<path d="M42.7763 58.3334H39.8596V55.2554C39.8596 54.2734 38.8932 53.4723 37.7071 53.4723H32.2899C31.1038 53.4723 30.1374 54.2715 30.1374 55.2554V58.3334H27.2207V55.2554C27.2207 52.6634 29.4938 50.5557 32.2899 50.5557H37.7071C40.5032 50.5557 42.7763 52.6634 42.7763 55.2554V58.3334Z" fill="black"/>
<path d="M51.6309 29.6343L57.7902 27.4964L58.7468 30.2527L52.5875 32.3905L51.6309 29.6343Z" fill="black"/>
<path d="M48.2207 30.2192L49.1774 27.463L55.3367 29.6008L54.38 32.3571L48.2207 30.2192Z" fill="black"/>
<path d="M52.0117 25.2778H54.9284V31.9745H52.0117V25.2778Z" fill="black"/>
<path d="M51.4434 30.145L53.8379 28.4796L57.6073 33.8993L55.2128 35.5648L51.4434 30.145Z" fill="black"/>
<path d="M49.3398 33.9058L53.1092 28.486L55.5038 30.1514L51.7344 35.5712L49.3398 33.9058Z" fill="black"/>
<path d="M14.6719 29.6304L20.8312 27.4925L21.7878 30.2488L15.6285 32.3866L14.6719 29.6304Z" fill="black"/>
<path d="M11.2754 30.231L12.2321 27.4747L18.3914 29.6125L17.4347 32.3688L11.2754 30.231Z" fill="black"/>
<path d="M15.0684 25.2778H17.985V31.9745H15.0684V25.2778Z" fill="black"/>
<path d="M14.498 30.1489L16.8926 28.4835L20.662 33.9033L18.2674 35.5687L14.498 30.1489Z" fill="black"/>
<path d="M12.3945 33.9058L16.1639 28.486L18.5585 30.1514L14.7891 35.5712L12.3945 33.9058Z" fill="black"/>
</svg>
