<svg width="70" height="70" viewBox="0 0 70 70" fill="none" xmlns="http://www.w3.org/2000/svg">
<path d="M53.7078 8.10269C40.2581 8.10269 31.022 1.13574 24.5412 1.13574C18.0603 1.13574 4.44922 4.8613 4.44922 34.6755C4.44922 64.4896 22.7601 68.8646 29.8884 68.8646C63.2687 68.8666 77.5273 8.10269 53.7078 8.10269Z" fill="#EFEFEF"/>
<path d="M13.5508 6.45703L16.3006 3.70717L17.6756 5.0821L14.9257 7.83196L13.5508 6.45703Z" fill="#A4AFC1"/>
<path d="M5.64453 14.3618L8.39439 11.612L9.76932 12.9869L7.01946 15.7367L5.64453 14.3618Z" fill="#A4AFC1"/>
<path d="M5.98828 5.07959L7.36321 3.70466L10.1131 6.45452L8.73814 7.82945L5.98828 5.07959Z" fill="#A4AFC1"/>
<path d="M30.6211 49.5833C30.5822 51.6638 29.4933 53.6083 27.7044 54.6777V56.8749H13.1211V47.8722C13.1211 44.8194 14.3266 41.8833 16.4655 39.7055L20.1211 35.9722L30.6211 49.5833Z" fill="#FEB46D"/>
<path d="M49.8711 35.9722L53.5267 39.7055C55.6655 41.8833 56.8711 44.8194 56.8711 47.8722V56.8749H42.2878V54.6777C40.4989 53.6083 39.41 51.6638 39.3711 49.5833L49.8711 35.9722Z" fill="#FEB46D"/>
<path d="M49.0929 47.2889V15.0694C49.0929 13.9961 48.2218 13.125 47.1484 13.125H22.8429C21.7695 13.125 20.8984 13.9961 20.8984 15.0694V47.2889C20.8984 48.3622 21.7695 49.2333 22.8429 49.2333H47.1484C48.2218 49.2333 49.0929 48.3622 49.0929 47.2889Z" fill="white"/>
<path d="M38.3984 17.0137H43.2595V33.5415H38.3984V17.0137Z" fill="#FEB46D"/>
<path d="M26.7305 24.7915H31.5916V33.5415H26.7305V24.7915Z" fill="#FEB46D"/>
<path d="M27.1794 39.8415C27.1794 39.4332 27.0822 39.0054 26.8878 38.6165C26.4794 37.8582 25.4294 37.6832 24.8072 38.2859L13.1211 49.272V56.3887H18.2155L22.8822 52.4998C23.7572 51.6637 24.2044 50.5359 24.2044 49.4276C24.2044 48.3193 23.7572 47.1915 22.8822 46.3359L26.6155 41.5332C26.985 41.047 27.1794 40.4443 27.1794 39.8415Z" fill="#FEB46D"/>
<path d="M45.1847 38.2859C44.5625 37.6832 43.5125 37.8582 43.1042 38.6165C42.9097 39.0054 42.8125 39.4332 42.8125 39.8415C42.8125 40.4443 43.0069 41.047 43.3764 41.5332L47.1097 46.3359C46.2347 47.1915 45.7875 48.3193 45.7875 49.4276C45.7875 50.5359 46.2347 51.6637 47.1097 52.4998L50.6681 56.3887H56.8708V49.272L45.1847 38.2859Z" fill="#FEB46D"/>
<path d="M38.3984 17.0137H42.7734V33.5415H38.3984V17.0137Z" fill="#FF6600"/>
<path d="M26.7305 24.7915H31.1055V33.5415H26.7305V24.7915Z" fill="#FF6600"/>
<path d="M46.6628 54.6778V56.8751H42.2878V54.6778C40.4989 53.6084 39.41 51.664 39.3711 49.5834L39.6433 49.2334H44.0183L43.7461 49.5834C43.785 51.664 44.8739 53.6084 46.6628 54.6778Z" fill="#FF6600"/>
<path d="M25.2734 38.5389V15.0694C25.2734 13.9961 26.1445 13.125 27.2179 13.125H22.8429C21.7695 13.125 20.8984 13.9961 20.8984 15.0694V42.4278L25.2734 38.5389Z" fill="#D5DBE1"/>
<path d="M26.8878 38.6166C26.4794 37.8583 25.4294 37.6833 24.8072 38.2861L20.8405 41.6499L22.05 38.4708L20.1211 35.9722L16.4655 39.7055C14.3266 41.8833 13.1211 44.8194 13.1211 47.8722V56.8749H17.4961V49.2722L27.1172 40.2266C27.1347 40.0963 27.1794 39.9719 27.1794 39.8416C27.1794 39.4333 27.0822 39.0055 26.8878 38.6166Z" fill="#FF6600"/>
<path d="M50.1625 49.4276C50.1625 48.7315 50.3394 48.0257 50.6875 47.3879C51.0764 46.6723 51.0764 45.8129 50.5786 45.1712L47.7514 41.5351C47.4617 41.154 47.3158 40.697 47.2497 40.2284L45.1847 38.2859C44.5625 37.6832 43.5125 37.8582 43.1042 38.6165C42.9097 39.0054 42.8125 39.4332 42.8125 39.8415C42.8125 40.4443 43.0069 41.047 43.3764 41.5332L47.1097 46.3359C46.2347 47.1915 45.7875 48.3193 45.7875 49.4276C45.7875 50.5359 46.2347 51.6637 47.1097 52.4998L50.6681 56.3887H55.0431L51.4847 52.4998C50.6097 51.6637 50.1625 50.5359 50.1625 49.4276Z" fill="#FF6600"/>
<path d="M43.2609 35.0001H38.3997C37.5947 35.0001 36.9414 34.3468 36.9414 33.5418V17.014C36.9414 16.209 37.5947 15.5557 38.3997 15.5557H43.2609C44.0659 15.5557 44.7192 16.209 44.7192 17.014V33.5418C44.7192 34.3468 44.0659 35.0001 43.2609 35.0001ZM39.8581 32.0834H41.8025V18.4723H39.8581V32.0834Z" fill="black"/>
<path d="M31.5929 35.0002H26.7318C25.9268 35.0002 25.2734 34.3468 25.2734 33.5418V24.7918C25.2734 23.9868 25.9268 23.3335 26.7318 23.3335H31.5929C32.3979 23.3335 33.0512 23.9868 33.0512 24.7918V33.5418C33.0512 34.3468 32.3979 35.0002 31.5929 35.0002ZM28.1901 32.0835H30.1345V26.2502H28.1901V32.0835Z" fill="black"/>
<path d="M23.3281 32.0835H46.6615V35.0002H23.3281V32.0835Z" fill="black"/>
<path d="M24.3008 47.6387H45.5283V50.5553H24.3008V47.6387Z" fill="black"/>
<path d="M50.5525 42.4276H47.6359V15.0693C47.6359 14.8009 47.4181 14.5832 47.1497 14.5832H22.8442C22.5759 14.5832 22.3581 14.8009 22.3581 15.0693V42.4276H19.4414V15.0693C19.4414 13.1929 20.9678 11.6665 22.8442 11.6665H47.1497C49.0261 11.6665 50.5525 13.1929 50.5525 15.0693V42.4276Z" fill="black"/>
<path d="M23.8875 54.0441L21.8633 51.9441C22.4311 51.3957 22.7441 50.6724 22.7441 49.9063C22.7441 49.1382 22.4311 48.4149 21.8633 47.8685C21.3266 47.3513 21.2664 46.5113 21.7253 45.9241L25.4566 41.1271C25.7192 40.7907 25.793 40.3649 25.6686 39.9741L19.0828 46.3246L17.0586 44.2246L23.798 37.7263C24.4261 37.1235 25.3108 36.8454 26.178 36.9913C27.0472 37.1332 27.7744 37.6582 28.175 38.4282C28.9236 39.8729 28.7583 41.6346 27.7569 42.9199L24.7391 46.7991C25.34 47.7207 25.6608 48.7882 25.6608 49.9063C25.6608 51.4716 25.0308 52.9416 23.8875 54.0441Z" fill="black"/>
<path d="M27.7057 58.3333H13.1224C12.3174 58.3333 11.6641 57.68 11.6641 56.875V47.8722C11.6641 44.4189 13.0018 41.1542 15.4266 38.6828L20.101 33.9092L22.1835 35.9489L17.5091 40.7245C15.6191 42.6495 14.5807 45.187 14.5807 47.8722V55.4167H26.2474V54.6778C26.2474 54.1645 26.5177 53.69 26.9571 53.4256C28.2891 52.6283 29.1349 51.1467 29.1641 49.5561L29.1913 48.0978L32.108 48.1503L32.0807 49.6086C32.0399 51.905 30.9393 54.0692 29.1641 55.4439V56.8731C29.1641 57.68 28.5107 58.3333 27.7057 58.3333Z" fill="black"/>
<path d="M46.1045 54.044C44.9611 52.9415 44.3311 51.4715 44.3311 49.9043C44.3311 48.7863 44.652 47.7168 45.2528 46.7971L42.235 42.916C41.2336 41.6327 41.0684 39.871 41.817 38.4282C42.2175 37.6563 42.9447 37.1313 43.8139 36.9893C44.6753 36.8435 45.5659 37.1215 46.192 37.7243L52.9334 44.2227L50.9092 46.3227L44.3234 39.9721C44.2009 40.3629 44.2747 40.7868 44.5353 41.1232L48.2667 45.9221C48.7236 46.5113 48.6653 47.3493 48.1286 47.8665C47.5609 48.4129 47.2478 49.1363 47.2478 49.9043C47.2478 50.6704 47.5609 51.3957 48.1286 51.9421L46.1045 54.044Z" fill="black"/>
<path d="M56.8723 58.3333H42.2889C41.4839 58.3333 40.8306 57.68 40.8306 56.875V55.4458C39.0553 54.0711 37.9548 51.907 37.9139 49.6106L37.8867 48.1522L40.8034 48.0997L40.8306 49.5561C40.8598 51.1467 41.7056 52.6283 43.0376 53.4256C43.4789 53.6881 43.7473 54.1645 43.7473 54.6778V55.4167H55.4139V47.8722C55.4139 45.187 54.3756 42.6495 52.4876 40.7264L47.8112 35.9489L49.8937 33.9092L54.5701 38.6847C56.9948 41.1542 58.3306 44.4189 58.3306 47.8722V56.875C58.3306 57.68 57.6773 58.3333 56.8723 58.3333Z" fill="black"/>
<path d="M3.88672 55.4165H66.1089V58.3332H3.88672V55.4165Z" fill="black"/>
</svg>
