<svg width="57" height="62" viewBox="0 0 57 62" fill="none" xmlns="http://www.w3.org/2000/svg">
<path d="M16.8219 61.3368C28.8198 57.872 38.8551 61.7088 44.6365 60.0387C50.4179 58.3685 61.6015 51.5381 53.9206 24.9387C46.2398 -1.66079 28.7801 -0.844676 22.4191 0.991574C-7.35993 9.59144 -4.42771 67.4739 16.8219 61.3368Z" fill="#EFEFEF"/>
<path d="M19.436 8.83862L21.9895 6.28518L23.2662 7.5619L20.7128 10.1153L19.436 8.83862Z" fill="#A4AFC1"/>
<path d="M12.0947 16.1787L14.6482 13.6253L15.9249 14.902L13.3714 17.4554L12.0947 16.1787Z" fill="#A4AFC1"/>
<path d="M12.0967 7.24512L13.3734 5.9684L15.9281 8.52311L14.6514 9.79984L12.0967 7.24512Z" fill="#A4AFC1"/>
<path d="M52.951 58.7602C51.4578 58.7602 50.2427 57.545 50.2427 56.0518C50.2427 54.5586 51.4578 53.3435 52.951 53.3435C54.4442 53.3435 55.6593 54.5586 55.6593 56.0518C55.6593 57.545 54.4442 58.7602 52.951 58.7602ZM52.951 55.1491C52.4545 55.1491 52.0482 55.5535 52.0482 56.0518C52.0482 56.5502 52.4545 56.9546 52.951 56.9546C53.4475 56.9546 53.8538 56.5502 53.8538 56.0518C53.8538 55.5535 53.4475 55.1491 52.951 55.1491Z" fill="#A4AFC1"/>
<path d="M28.5002 29.6458C33.7354 29.6458 37.9793 25.4019 37.9793 20.1667C37.9793 14.9315 33.7354 10.6875 28.5002 10.6875C23.265 10.6875 19.021 14.9315 19.021 20.1667C19.021 25.4019 23.265 29.6458 28.5002 29.6458Z" fill="#FEB46D"/>
<path d="M42.9444 42.2846C44.1909 42.2846 45.2014 41.2742 45.2014 40.0277C45.2014 38.7812 44.1909 37.7708 42.9444 37.7708C41.698 37.7708 40.6875 38.7812 40.6875 40.0277C40.6875 41.2742 41.698 42.2846 42.9444 42.2846Z" fill="#F3F3F1"/>
<path d="M37.0767 51.3125V50.4097C37.0767 48.4146 38.6926 46.7986 40.6878 46.7986H45.2017C47.1968 46.7986 48.8128 48.4146 48.8128 50.4097V51.3125H37.0767Z" fill="#FEB46D"/>
<path d="M14.0558 42.2846C15.3022 42.2846 16.3127 41.2742 16.3127 40.0277C16.3127 38.7812 15.3022 37.7708 14.0558 37.7708C12.8093 37.7708 11.7988 38.7812 11.7988 40.0277C11.7988 41.2742 12.8093 42.2846 14.0558 42.2846Z" fill="#F3F3F1"/>
<path d="M8.1875 51.3125V50.4097C8.1875 48.4146 9.80347 46.7986 11.7986 46.7986H16.3125C18.3076 46.7986 19.9236 48.4146 19.9236 50.4097V51.3125H8.1875Z" fill="#FEB46D"/>
<path d="M22.6321 20.1667C22.6321 15.5499 25.9363 11.7131 30.3057 10.8699C29.7207 10.7561 29.1195 10.6875 28.5002 10.6875C23.2659 10.6875 19.021 14.9306 19.021 20.1667C19.021 25.401 23.2659 29.6458 28.5002 29.6458C29.1195 29.6458 29.7207 29.5772 30.3057 29.4635C25.9363 28.6203 22.6321 24.7835 22.6321 20.1667Z" fill="#FF6600"/>
<path d="M15.4097 46.7986H11.7986C9.80347 46.7986 8.1875 48.4146 8.1875 50.4097V51.3125H11.7986V50.4097C11.7986 48.4146 13.4146 46.7986 15.4097 46.7986Z" fill="#FF6600"/>
<path d="M44.2989 46.7986H40.6878C38.6926 46.7986 37.0767 48.4146 37.0767 50.4097V51.3125H40.6878V50.4097C40.6878 48.4146 42.3037 46.7986 44.2989 46.7986Z" fill="#FF6600"/>
<path d="M29.8545 40.9305V30.0972H27.1462V40.9305H22.6323V43.6388H28.5004H34.3684V40.9305H29.8545Z" fill="black"/>
<path d="M28.5003 30.9999C22.5257 30.9999 17.667 26.1412 17.667 20.1666C17.667 14.192 22.5257 9.33325 28.5003 9.33325C34.4749 9.33325 39.3337 14.192 39.3337 20.1666C39.3337 21.5803 39.0664 22.9526 38.5374 24.2489L36.0295 23.227C36.4249 22.2574 36.6253 21.2283 36.6253 20.1666C36.6253 15.687 32.9799 12.0416 28.5003 12.0416C24.0207 12.0416 20.3753 15.687 20.3753 20.1666C20.3753 24.6462 24.0207 28.2916 28.5003 28.2916C30.9667 28.2916 33.2706 27.1902 34.8216 25.2727L36.9269 26.9735C34.8595 29.5338 31.7882 30.9999 28.5003 30.9999Z" fill="black"/>
<path d="M42.9446 43.6387C40.9531 43.6387 39.3335 42.0191 39.3335 40.0276C39.3335 38.0361 40.9531 36.4165 42.9446 36.4165C44.9361 36.4165 46.5557 38.0361 46.5557 40.0276C46.5557 42.0191 44.9361 43.6387 42.9446 43.6387ZM42.9446 39.1248C42.4481 39.1248 42.0418 39.5293 42.0418 40.0276C42.0418 40.5259 42.4481 40.9304 42.9446 40.9304C43.4411 40.9304 43.8474 40.5259 43.8474 40.0276C43.8474 39.5293 43.4411 39.1248 42.9446 39.1248Z" fill="black"/>
<path d="M50.1671 51.3124H47.4588V50.4096C47.4588 49.1656 46.4459 48.1527 45.2018 48.1527H40.6879C39.4439 48.1527 38.431 49.1656 38.431 50.4096V51.3124H35.7227V50.4096C35.7227 47.6706 37.9489 45.4443 40.6879 45.4443H45.2018C47.9409 45.4443 50.1671 47.6706 50.1671 50.4096V51.3124Z" fill="black"/>
<path d="M14.0559 43.6387C12.0644 43.6387 10.4448 42.0191 10.4448 40.0276C10.4448 38.0361 12.0644 36.4165 14.0559 36.4165C16.0475 36.4165 17.667 38.0361 17.667 40.0276C17.667 42.0191 16.0475 43.6387 14.0559 43.6387ZM14.0559 39.1248C13.5594 39.1248 13.1532 39.5293 13.1532 40.0276C13.1532 40.5259 13.5594 40.9304 14.0559 40.9304C14.5525 40.9304 14.9587 40.5259 14.9587 40.0276C14.9587 39.5293 14.5525 39.1248 14.0559 39.1248Z" fill="black"/>
<path d="M21.2779 51.3124H18.5696V50.4096C18.5696 49.1656 17.5567 48.1527 16.3127 48.1527H11.7988C10.5547 48.1527 9.54183 49.1656 9.54183 50.4096V51.3124H6.8335V50.4096C6.8335 47.6706 9.05975 45.4443 11.7988 45.4443H16.3127C19.0517 45.4443 21.2779 47.6706 21.2779 50.4096V51.3124Z" fill="black"/>
<path d="M27.146 23.3264H29.8543V27.3889H27.146V23.3264Z" fill="black"/>
<path d="M27.146 12.9443H29.8543V17.0068H27.146V12.9443Z" fill="black"/>
<path d="M28.726 25.5833H24.8892V22.875H28.726C29.0997 22.875 29.403 22.5717 29.403 22.1979C29.403 21.8242 29.0997 21.5208 28.726 21.5208H28.2746C26.4076 21.5208 24.8892 20.0024 24.8892 18.1354C24.8892 16.2685 26.4076 14.75 28.2746 14.75H32.1114V17.4583H28.2746C27.9008 17.4583 27.5975 17.7617 27.5975 18.1354C27.5975 18.5092 27.9008 18.8125 28.2746 18.8125H28.726C30.5929 18.8125 32.1114 20.331 32.1114 22.1979C32.1114 24.0649 30.5929 25.5833 28.726 25.5833Z" fill="black"/>
</svg>
