<svg width="70" height="70" viewBox="0 0 70 70" fill="none" xmlns="http://www.w3.org/2000/svg">
<g clip-path="url(#clip0_7465_39416)">
<path d="M15.7773 10.819C12.2676 23.802 3.13068 30.8992 1.43901 37.1565C-0.252654 43.4137 -0.207933 57.5245 28.5737 65.3062C57.3554 73.0879 66.3582 56.5542 68.2171 49.6709C76.9301 17.4476 21.9937 -12.176 15.7773 10.819Z" fill="#EFEFEF"/>
<path d="M22.3628 38.1305L22.0128 39.5111L19.0184 51.2944L18.474 53.4722H12.6406V35.9722C19.0378 35.9722 22.3628 38.1305 22.3628 38.1305Z" fill="#FEB46D"/>
<path d="M57.3601 49.5835C57.3601 49.5835 42.7767 57.3612 36.9434 57.3612C32.2962 57.3612 22.7295 53.0446 19.0156 51.2946L22.0101 39.5112L40.774 44.0418C42.524 44.4501 43.749 46.0251 43.749 47.814V48.7862C46.7434 47.9307 49.9323 46.6668 52.499 46.6668C56.3879 46.6668 57.3601 49.5835 57.3601 49.5835Z" fill="#F3F3F1"/>
<path d="M36.6523 26.25C37.3135 27.65 38.4412 28.7973 39.8607 29.4778V33.0556C39.8607 33.5923 40.2962 34.0278 40.8329 34.0278H42.7773C43.314 34.0278 43.7496 33.5923 43.7496 33.0556V30.1389H49.5829V33.0556C49.5829 33.5923 50.0185 34.0278 50.5551 34.0278H52.4996C53.0362 34.0278 53.4718 33.5923 53.4718 33.0556V29.4584C54.1718 29.1472 54.8135 28.6806 55.3579 28.1361C56.6023 26.9111 57.3607 25.2 57.3607 23.3334C57.3607 19.5806 54.3079 16.5278 50.5551 16.5278H43.6912C43.419 14.4667 42.3496 13.0278 39.8607 12.6389V17.2084C39.1607 17.5195 38.519 17.9861 37.9746 18.5306C37.4301 19.075 36.9635 19.7167 36.6523 20.4167H34.9996C34.4629 20.4167 34.0273 20.8523 34.0273 21.3889V25.2778C34.0273 25.8145 34.4629 26.25 34.9996 26.25H36.6523Z" fill="#FEB46D"/>
<path d="M38.8295 57.1668C38.1295 57.2835 37.5073 57.3612 36.9434 57.3612C32.2962 57.3612 22.7295 53.0446 19.0156 51.2946L22.0101 39.5112L25.6656 40.3862L22.9045 51.2946C26.1517 52.8307 33.8517 56.3112 38.8295 57.1668Z" fill="#D5DBE1"/>
<path d="M16.5295 36.2638V53.4722H12.6406V35.9722C14.099 35.9722 15.4017 36.0888 16.5295 36.2638Z" fill="#FF6600"/>
<path d="M37.9162 21.3889V25.2778C37.9162 25.8223 38.344 26.25 38.8885 26.25H40.5412C41.2023 27.65 42.3301 28.7973 43.7496 29.4778V33.0556C43.7496 33.6 43.3218 34.0278 42.7773 34.0278H40.8329C40.2885 34.0278 39.8607 33.6 39.8607 33.0556V29.4778C38.4412 28.7973 37.3135 27.65 36.6523 26.25H34.9996C34.4551 26.25 34.0273 25.8223 34.0273 25.2778V21.3889C34.0273 20.8445 34.4551 20.4167 34.9996 20.4167H36.6523C36.9635 19.7167 37.4301 19.075 37.9746 18.5306C38.519 17.9861 39.1607 17.5195 39.8607 17.2084V12.6389C42.3496 13.0278 43.419 14.4667 43.6912 16.5278H43.7496V17.2084C43.0496 17.5195 42.4079 17.9861 41.8635 18.5306C41.319 19.075 40.8523 19.7167 40.5412 20.4167H38.8885C38.344 20.4167 37.9162 20.8445 37.9162 21.3889Z" fill="#FF6600"/>
<path d="M18.4714 54.9306H12.638C11.833 54.9306 11.1797 54.2772 11.1797 53.4722V35.9722C11.1797 35.1672 11.833 34.5139 12.638 34.5139C19.395 34.5139 23.0077 36.82 23.1575 36.9172C23.6805 37.2575 23.9275 37.8934 23.7739 38.4981L19.885 53.832C19.7216 54.4775 19.1383 54.9306 18.4714 54.9306ZM14.0964 52.0139H17.3377L20.6608 38.9084C19.5194 38.4106 17.3066 37.6542 14.0964 37.4714V52.0139Z" fill="black"/>
<path d="M36.9445 58.8194C32.2662 58.8194 23.314 54.9305 18.3945 52.6147L19.639 49.976C27.6345 53.7444 33.9423 55.9046 36.9445 55.9046C40.9734 55.9046 50.4759 51.4772 55.2476 49.0427C54.7245 48.578 53.867 48.1269 52.5001 48.1269C50.7812 48.1269 48.5412 48.8347 46.377 49.5171C44.0009 50.2677 41.5451 51.0435 39.3751 51.0435C35.2762 51.0435 29.8687 49.0952 29.6412 49.0116L30.6368 46.2699C30.6873 46.2894 35.7934 48.1269 39.3751 48.1269C41.094 48.1269 43.334 47.4191 45.4981 46.7366C47.8743 45.986 50.3301 45.2102 52.5001 45.2102C57.3845 45.2102 58.6912 48.9649 58.7437 49.1244C58.9692 49.7991 58.6737 50.538 58.0476 50.8724C57.439 51.1952 43.0715 58.8194 36.9445 58.8194Z" fill="black"/>
<path d="M45.2074 48.786H42.2907V47.8138C42.2907 46.7016 41.5149 45.7118 40.4435 45.463L21.668 40.9285L22.3544 38.0935L41.1182 42.6241C43.5216 43.186 45.2094 45.3191 45.2094 47.8138L45.2074 48.786Z" fill="black"/>
<path d="M52.5009 35.4862H50.5564C49.2167 35.4862 48.1259 34.3954 48.1259 33.0557V31.5973H45.2092V33.0557C45.2092 34.3954 44.1184 35.4862 42.7786 35.4862H40.8342C39.4945 35.4862 38.4036 34.3954 38.4036 33.0557V30.3354C37.3478 29.6685 36.4514 28.7682 35.7903 27.7085H35.0009C33.6611 27.7085 32.5703 26.6176 32.5703 25.2779V21.389C32.5703 20.0493 33.6611 18.9585 35.0009 18.9585H35.7825C36.1034 18.4432 36.4942 17.9493 36.9434 17.5001C37.3925 17.051 37.8884 16.6562 38.4036 16.3373V12.639C38.4036 12.2132 38.5903 11.8087 38.9131 11.5307C39.2378 11.2526 39.6695 11.134 40.0875 11.1982C42.557 11.5851 44.1864 12.9132 44.8631 15.0696H50.5564C55.1123 15.0696 58.8203 18.7776 58.8203 23.3335C58.8203 25.5521 57.955 27.6268 56.3839 29.1746C55.9386 29.6198 55.4467 30.0107 54.9314 30.3296V33.0557C54.9314 34.3954 53.8406 35.4862 52.5009 35.4862ZM51.0425 32.5696H52.0148V29.4585C52.0148 28.8829 52.355 28.3598 52.882 28.1246C53.3817 27.9029 53.8834 27.549 54.3306 27.1037C55.3475 26.1004 55.9056 24.7646 55.9056 23.3335C55.9056 20.3837 53.5081 17.9862 50.5584 17.9862H43.6945C42.9634 17.9862 42.345 17.4437 42.2478 16.7185C42.1273 15.8143 41.8395 15.1765 41.3203 14.7448V17.2085C41.3203 17.784 40.98 18.3071 40.4531 18.5423C39.9534 18.764 39.4517 19.1179 39.0045 19.5632C38.5611 20.0085 38.2073 20.5082 37.9856 21.0098C37.7523 21.5368 37.2292 21.8771 36.6517 21.8771H35.485V24.7937H36.6517C37.2156 24.7937 37.7289 25.1185 37.97 25.6298C38.4931 26.7343 39.3875 27.6365 40.49 28.1654C40.9956 28.4085 41.3184 28.9198 41.3184 29.4798V32.5715H42.2906V30.139C42.2906 29.334 42.9439 28.6807 43.7489 28.6807H49.5823C50.3873 28.6807 51.0406 29.334 51.0406 30.139L51.0425 32.5696Z" fill="black"/>
<path d="M67.1979 13.0609C65.5899 13.0609 64.2812 11.7523 64.2812 10.1442C64.2812 8.53615 65.5899 7.22754 67.1979 7.22754C68.806 7.22754 70.1146 8.53615 70.1146 10.1442C70.1146 11.7523 68.806 13.0609 67.1979 13.0609ZM67.1979 9.17198C66.6613 9.17198 66.2257 9.60754 66.2257 10.1442C66.2257 10.6809 66.6613 11.1164 67.1979 11.1164C67.7346 11.1164 68.1701 10.6809 68.1701 10.1442C68.1701 9.60754 67.7326 9.17198 67.1979 9.17198Z" fill="#A4AFC1"/>
</g>
<defs>
<clipPath id="clip0_7465_39416">
<rect width="70" height="70" fill="white"/>
</clipPath>
</defs>
</svg>
