<svg width="70" height="71" viewBox="0 0 70 71" fill="none" xmlns="http://www.w3.org/2000/svg">
<path d="M16.2889 62.4739C29.7386 62.4739 38.9747 69.4408 45.4555 69.4408C51.9364 69.4408 65.5475 65.7152 65.5475 35.9011C65.5475 6.0869 47.2367 1.70996 40.1083 1.70996C6.72805 1.70996 -7.53057 62.4739 16.2889 62.4739Z" fill="#EFEFEF"/>
<path d="M8.74967 10.2982C7.14162 10.2982 5.83301 8.98957 5.83301 7.38151C5.83301 5.77345 7.14162 4.46484 8.74967 4.46484C10.3577 4.46484 11.6663 5.77345 11.6663 7.38151C11.6663 8.98957 10.3577 10.2982 8.74967 10.2982ZM8.74967 6.40929C8.21495 6.40929 7.77745 6.84679 7.77745 7.38151C7.77745 7.91623 8.21495 8.35373 8.74967 8.35373C9.2844 8.35373 9.7219 7.91623 9.7219 7.38151C9.7219 6.84679 9.2844 6.40929 8.74967 6.40929Z" fill="#A4AFC1"/>
<path d="M47.6389 26.34H18.4722C15.5186 26.34 13.125 23.9463 13.125 20.9927C13.125 18.0391 15.5186 15.6455 18.4722 15.6455H47.6389C50.5925 15.6455 52.9861 18.0391 52.9861 20.9927C52.9861 23.9463 50.5925 26.34 47.6389 26.34Z" fill="#F3F3F1"/>
<path d="M47.6389 37.0343H18.4722C15.5186 37.0343 13.125 34.6407 13.125 31.6871C13.125 28.7335 15.5186 26.3398 18.4722 26.3398H47.6389C50.5925 26.3398 52.9861 28.7335 52.9861 31.6871C52.9861 34.6407 50.5925 37.0343 47.6389 37.0343Z" fill="#FEB46D"/>
<path d="M47.6389 47.7291H18.4722C15.5186 47.7291 13.125 45.3355 13.125 42.3819C13.125 39.4283 15.5186 37.0347 18.4722 37.0347H47.6389C50.5925 37.0347 52.9861 39.4283 52.9861 42.3819C52.9861 45.3355 50.5925 47.7291 47.6389 47.7291Z" fill="#F3F3F1"/>
<path d="M46.6663 57.4511C46.6663 57.4511 56.8747 52.938 56.8747 43.91C56.8747 40.2991 56.8747 36.2702 56.8747 36.2702L46.6663 33.1455L36.458 36.2702V43.91C36.458 52.938 46.6663 57.4511 46.6663 57.4511Z" fill="#FEB46D"/>
<path d="M40.833 43.91C40.833 38.4927 40.833 36.2702 40.833 36.2702L48.8538 33.8144L46.6663 33.1455L36.458 36.2702V43.91C36.458 52.938 46.6663 57.4511 46.6663 57.4511C46.6663 57.4511 47.5822 57.0408 48.8538 56.2397C45.8555 54.3516 40.833 50.2469 40.833 43.91Z" fill="#FF6600"/>
<path d="M17.5 31.6871C17.5 28.7335 19.8936 26.3398 22.8472 26.3398H18.4722C15.5186 26.3398 13.125 28.7335 13.125 31.6871C13.125 34.6407 15.5186 37.0343 18.4722 37.0343H22.8472C19.8936 37.0343 17.5 34.6407 17.5 31.6871Z" fill="#FF6600"/>
<path d="M17.5 20.9927C17.5 18.0391 19.8936 15.6455 22.8472 15.6455H18.4722C15.5186 15.6455 13.125 18.0391 13.125 20.9927C13.125 23.9463 15.5186 26.34 18.4722 26.34H22.8472C19.8936 26.34 17.5 23.9463 17.5 20.9927Z" fill="#D5DBE1"/>
<path d="M17.5 42.3819C17.5 39.4283 19.8936 37.0347 22.8472 37.0347H18.4722C15.5186 37.0347 13.125 39.4283 13.125 42.3819C13.125 45.3355 15.5186 47.7291 18.4722 47.7291H22.8472C19.8936 47.7291 17.5 45.3355 17.5 42.3819Z" fill="#D5DBE1"/>
<path d="M47.6392 27.7986H18.4725C14.7198 27.7986 11.667 24.7458 11.667 20.9931C11.667 17.2403 14.7198 14.1875 18.4725 14.1875H47.6392C51.392 14.1875 54.4448 17.2403 54.4448 20.9931C54.4448 24.7458 51.392 27.7986 47.6392 27.7986ZM18.4725 17.1042C16.3278 17.1042 14.5837 18.8483 14.5837 20.9931C14.5837 23.1378 16.3278 24.8819 18.4725 24.8819H47.6392C49.7839 24.8819 51.5281 23.1378 51.5281 20.9931C51.5281 18.8483 49.7839 17.1042 47.6392 17.1042H18.4725Z" fill="black"/>
<path d="M21.3888 22.9372C22.4627 22.9372 23.3332 22.0667 23.3332 20.9928C23.3332 19.9189 22.4627 19.0483 21.3888 19.0483C20.3149 19.0483 19.4443 19.9189 19.4443 20.9928C19.4443 22.0667 20.3149 22.9372 21.3888 22.9372Z" fill="black"/>
<path d="M29.1671 22.9372C30.241 22.9372 31.1115 22.0667 31.1115 20.9928C31.1115 19.9189 30.241 19.0483 29.1671 19.0483C28.0932 19.0483 27.2227 19.9189 27.2227 20.9928C27.2227 22.0667 28.0932 22.9372 29.1671 22.9372Z" fill="black"/>
<path d="M29.6531 38.4929H18.4725C14.7198 38.4929 11.667 35.4402 11.667 31.6874C11.667 29.881 12.4 28.1271 13.6775 26.8729C14.9123 25.6149 16.6662 24.8818 18.4725 24.8818H47.6392C49.5331 24.8818 51.3356 25.6732 52.5898 27.0518L50.4295 29.0118C49.7178 28.2302 48.7281 27.7985 47.6392 27.7985H18.4725C17.4303 27.7985 16.46 28.2029 15.7406 28.936C14.9881 29.6749 14.5837 30.6452 14.5837 31.6874C14.5837 33.8321 16.3278 35.5763 18.4725 35.5763H29.6531V38.4929Z" fill="black"/>
<path d="M21.3888 33.6316C22.4627 33.6316 23.3332 32.761 23.3332 31.6871C23.3332 30.6132 22.4627 29.7427 21.3888 29.7427C20.3149 29.7427 19.4443 30.6132 19.4443 31.6871C19.4443 32.761 20.3149 33.6316 21.3888 33.6316Z" fill="black"/>
<path d="M29.1671 33.6316C30.241 33.6316 31.1115 32.761 31.1115 31.6871C31.1115 30.6132 30.241 29.7427 29.1671 29.7427C28.0932 29.7427 27.2227 30.6132 27.2227 31.6871C27.2227 32.761 28.0932 33.6316 29.1671 33.6316Z" fill="black"/>
<path d="M29.6531 49.1873H18.4725C14.7198 49.1873 11.667 46.1345 11.667 42.3817C11.667 40.5753 12.4 38.8214 13.6775 37.5673C14.9123 36.3092 16.6662 35.5762 18.4725 35.5762H28.6809V38.4928H18.4725C17.4303 38.4928 16.46 38.8973 15.7406 39.6303C14.9881 40.3692 14.5837 41.3395 14.5837 42.3817C14.5837 44.5265 16.3278 46.2706 18.4725 46.2706H29.6531V49.1873Z" fill="black"/>
<path d="M21.3888 44.3264C22.4627 44.3264 23.3332 43.4558 23.3332 42.3819C23.3332 41.3081 22.4627 40.4375 21.3888 40.4375C20.3149 40.4375 19.4443 41.3081 19.4443 42.3819C19.4443 43.4558 20.3149 44.3264 21.3888 44.3264Z" fill="black"/>
<path d="M29.1671 44.3264C30.241 44.3264 31.1115 43.4558 31.1115 42.3819C31.1115 41.3081 30.241 40.4375 29.1671 40.4375C28.0932 40.4375 27.2227 41.3081 27.2227 42.3819C27.2227 43.4558 28.0932 44.3264 29.1671 44.3264Z" fill="black"/>
<path d="M46.6667 58.9097C46.4644 58.9097 46.2642 58.8689 46.0756 58.7853C45.6244 58.585 35 53.7725 35 43.9103V36.2705C35 35.6289 35.4181 35.063 36.0306 34.8764L46.2389 31.7517C46.5169 31.6642 46.8164 31.6642 47.0925 31.7517L57.3008 34.8764C57.9133 35.063 58.3314 35.6289 58.3314 36.2705V43.9103C58.3314 53.7725 47.7069 58.585 47.2558 58.7833C47.0692 58.8689 46.8689 58.9097 46.6667 58.9097ZM37.9167 37.3497V43.9103C37.9167 50.7042 44.6094 54.7428 46.6647 55.8239C48.7181 54.7389 55.4167 50.6789 55.4167 43.9103V37.3497L46.6667 34.6703L37.9167 37.3497Z" fill="black"/>
<path d="M45.6941 49.1872C45.3071 49.1872 44.9357 49.0336 44.6635 48.7594L41.2607 45.3566L43.3238 43.2936L45.6571 45.625L50.946 39.9277L53.0849 41.913L46.7655 48.7186C46.4952 49.0063 46.1199 49.1755 45.7232 49.1833C45.7116 49.1872 45.7038 49.1872 45.6941 49.1872Z" fill="black"/>
</svg>
