<svg width="70" height="70" viewBox="0 0 70 70" fill="none" xmlns="http://www.w3.org/2000/svg">
<path d="M53.7117 61.8977C40.262 61.8977 31.0259 68.8646 24.5451 68.8646C18.0642 68.8646 4.45312 65.1391 4.45312 35.3249C4.45312 5.51073 22.764 1.13379 29.8923 1.13379C63.2726 1.13379 77.5312 61.8977 53.7117 61.8977Z" fill="#EFEFEF"/>
<path d="M61.5908 7.41064L64.3407 4.66078L65.7156 6.03571L62.9658 8.78557L61.5908 7.41064Z" fill="#A4AFC1"/>
<path d="M62.2783 13.5981L63.6533 12.2232L66.4031 14.9731L65.0282 16.348L62.2783 13.5981Z" fill="#A4AFC1"/>
<path d="M54.373 5.68994L55.748 4.31501L58.4978 7.06487L57.1229 8.4398L54.373 5.68994Z" fill="#A4AFC1"/>
<path d="M35.0003 45.2084C35.0003 45.2084 45.2087 40.6953 45.2087 31.6673C45.2087 28.0564 45.2087 24.0276 45.2087 24.0276L35.0003 20.9028L24.792 24.0276V31.6673C24.792 40.6953 35.0003 45.2084 35.0003 45.2084Z" fill="#FEB46D"/>
<path d="M29.167 31.6673C29.167 26.2501 29.167 24.0276 29.167 24.0276L37.1878 21.5717L35.0003 20.9028L24.792 24.0276V31.6673C24.792 40.6953 35.0003 45.2084 35.0003 45.2084C35.0003 45.2084 35.9162 44.7981 37.1878 43.997C34.1895 42.1089 29.167 38.0042 29.167 31.6673Z" fill="#FF6600"/>
<path d="M34.9997 46.6666C34.7975 46.6666 34.5972 46.6257 34.4086 46.5421C33.9575 46.3418 23.333 41.5293 23.333 31.6671V24.0274C23.333 23.3857 23.7511 22.8199 24.3636 22.6332L34.5719 19.5085C34.85 19.421 35.1494 19.421 35.4255 19.5085L45.6338 22.6332C46.2463 22.8199 46.6644 23.3857 46.6644 24.0274V31.6671C46.6644 41.5293 36.04 46.3418 35.5888 46.5402C35.4022 46.6257 35.2019 46.6666 34.9997 46.6666ZM26.2497 25.1066V31.6671C26.2497 38.461 32.9425 42.4996 34.9977 43.5807C37.0511 42.4957 43.7497 38.4357 43.7497 31.6671V25.1066L34.9997 22.4271L26.2497 25.1066Z" fill="black"/>
<path d="M35 54.5298V51.6131C45.2083 51.6131 53.5131 43.3084 53.5131 33.0981H56.4297C56.4297 44.9165 46.8164 54.5298 35 54.5298Z" fill="black"/>
<path d="M52.446 26.9615C49.8716 19.559 42.8618 14.5832 35.0005 14.5832C30.783 14.5832 26.8377 15.9637 23.5866 18.5771L21.7588 16.3059C25.533 13.2707 30.1102 11.6665 35.0005 11.6665C44.1043 11.6665 52.2185 17.4279 55.1993 26.0048L52.446 26.9615Z" fill="black"/>
<path d="M27.8678 53.2933C19.3181 50.2989 13.5723 42.1808 13.5723 33.0944C13.5723 28.7622 14.8498 24.6186 17.2706 21.1069L19.67 22.7636C17.5914 25.7833 16.4889 29.3572 16.4889 33.0944C16.4889 40.9461 21.4492 47.9578 28.8323 50.5419L27.8678 53.2933Z" fill="black"/>
<path d="M37.8544 58.9379L33.0186 54.104C32.7444 53.8298 32.5908 53.4604 32.5908 53.0734C32.5908 52.6865 32.7444 52.3151 33.0186 52.0429L37.8544 47.207L39.9175 49.2701L36.1122 53.0754L39.9175 56.8787L37.8544 58.9379Z" fill="black"/>
<path d="M19.0826 28.2273L17.6048 22.7148L12.0923 24.1926L11.3359 21.3751L18.2582 19.5201C19.0534 19.3101 19.839 19.7768 20.0451 20.5506L21.9001 27.4729L19.0826 28.2273Z" fill="black"/>
<path d="M54.0189 29.0363C53.7719 29.0363 53.5211 28.974 53.2916 28.8399L47.0889 25.2582L48.5472 22.7324L53.488 25.5849L56.3425 20.644L58.8683 22.1024L55.2847 28.3052C55.0144 28.7738 54.5244 29.0363 54.0189 29.0363Z" fill="black"/>
<path d="M34.0274 36.9446C33.6404 36.9446 33.269 36.791 32.9968 36.5168L28.5635 32.0835L30.6265 30.0205L33.9904 33.3824L40.271 26.6177L42.4079 28.603L35.0968 36.478C34.8265 36.7657 34.4513 36.9349 34.0546 36.9427C34.0449 36.9446 34.0371 36.9446 34.0274 36.9446Z" fill="black"/>
</svg>
