<svg width="70" height="70" viewBox="0 0 70 70" fill="none" xmlns="http://www.w3.org/2000/svg">
<path d="M52.4631 7.61067C39.0154 7.8615 29.6509 1.06761 23.1701 1.19011C16.6893 1.31261 3.15009 5.29095 3.70814 35.1012C4.2662 64.9115 22.6548 68.9423 29.7831 68.8101C63.1576 68.186 76.2767 7.16539 52.4631 7.61067Z" fill="#EFEFEF"/>
<path d="M31.7139 41.3194H17.0139C14.875 41.3194 13.125 39.5694 13.125 37.4306V17.0139C13.125 14.875 14.875 13.125 17.0139 13.125H52.9861C55.125 13.125 56.875 14.875 56.875 17.0139V30.1389V37.4306C56.875 39.5792 55.1347 41.3194 52.9861 41.3194H31.7139Z" fill="#FEB46D"/>
<path d="M17.5 37.4306V17.0139C17.5 14.875 19.25 13.125 21.3889 13.125H17.0139C14.875 13.125 13.125 14.875 13.125 17.0139V37.4306C13.125 39.5694 14.875 41.3194 17.0139 41.3194H21.3889C19.25 41.3194 17.5 39.5694 17.5 37.4306Z" fill="#FF6600"/>
<path d="M46.6654 56.8749C46.6654 56.8749 56.8737 52.5349 56.8737 43.8549C56.8737 40.3821 56.8737 36.0421 56.8737 36.0421L46.6654 32.5693L36.457 36.0421V43.8549C36.457 52.5349 46.6654 56.8749 46.6654 56.8749Z" fill="#F3F3F1"/>
<path d="M40.832 43.8549C40.832 38.6457 40.832 36.0421 40.832 36.0421L48.8529 33.3141L46.6654 32.5693L36.457 36.0421V43.8549C36.457 52.5349 46.6654 56.8749 46.6654 56.8749C46.6654 56.8749 47.5812 56.4802 48.8529 55.7102C45.8545 53.8941 40.832 49.9488 40.832 43.8549Z" fill="#D5DBE1"/>
<path d="M35 31.5972C37.4162 31.5972 39.375 29.6384 39.375 27.2222C39.375 24.8059 37.4162 22.8472 35 22.8472C32.5838 22.8472 30.625 24.8059 30.625 27.2222C30.625 29.6384 32.5838 31.5972 35 31.5972Z" fill="#F3F3F1"/>
<path d="M16.2969 59.6406L17.6718 58.2657L20.4217 61.0156L19.0467 62.3905L16.2969 59.6406Z" fill="#A4AFC1"/>
<path d="M8.39062 51.7363L9.76555 50.3614L12.5154 53.1113L11.1405 54.4862L8.39062 51.7363Z" fill="#A4AFC1"/>
<path d="M16.6328 53.1191L19.3827 50.3693L20.7576 51.7442L18.0077 54.4941L16.6328 53.1191Z" fill="#A4AFC1"/>
<path d="M8.73047 61.0239L11.4803 58.2741L12.8553 59.649L10.1054 62.3989L8.73047 61.0239Z" fill="#A4AFC1"/>
<path d="M60.7643 60.2777C59.1563 60.2777 57.8477 58.9691 57.8477 57.361C57.8477 55.7529 59.1563 54.4443 60.7643 54.4443C62.3724 54.4443 63.681 55.7529 63.681 57.361C63.681 58.9691 62.3724 60.2777 60.7643 60.2777ZM60.7643 56.3888C60.2296 56.3888 59.7921 56.8243 59.7921 57.361C59.7921 57.8977 60.2296 58.3332 60.7643 58.3332C61.299 58.3332 61.7365 57.8977 61.7365 57.361C61.7365 56.8243 61.299 56.3888 60.7643 56.3888Z" fill="#A4AFC1"/>
<path d="M46.6667 58.3331C46.4722 58.3331 46.2797 58.2942 46.0969 58.2164C45.6439 58.0239 35 53.3903 35 43.8547V36.0419C35 35.4178 35.3967 34.8636 35.9897 34.6614L46.1981 31.1886C46.5014 31.0836 46.8319 31.0836 47.1353 31.1886L57.3436 34.6614C57.9367 34.8617 58.3333 35.4158 58.3333 36.0419V43.8547C58.3333 53.3903 47.6894 58.0258 47.2364 58.2183C47.0536 58.2942 46.8611 58.3331 46.6667 58.3331ZM37.9167 37.0861V43.8547C37.9167 50.3647 44.6347 54.24 46.6647 55.2608C48.6908 54.2342 55.4167 50.3394 55.4167 43.8547V37.0861L46.6667 34.1092L37.9167 37.0861Z" fill="black"/>
<path d="M46.1812 49.5833C45.7962 49.5833 45.4228 49.4297 45.1506 49.1555L41.2617 45.2666L43.3248 43.2036L46.0256 45.9044L50.8478 39.4722L53.1792 41.2222L47.3459 48.9999C47.0931 49.3383 46.7062 49.5502 46.2823 49.5794C46.2492 49.5833 46.2162 49.5833 46.1812 49.5833Z" fill="black"/>
<path d="M31.7152 42.7776H17.0152C14.0655 42.7776 11.668 40.3801 11.668 37.4304V17.0137C11.668 14.064 14.0655 11.6665 17.0152 11.6665H52.9874C55.9371 11.6665 58.3346 14.064 58.3346 17.0137V30.1387H55.418V17.0137C55.418 15.674 54.3271 14.5832 52.9874 14.5832H17.0152C15.6755 14.5832 14.5846 15.674 14.5846 17.0137V37.4304C14.5846 38.7701 15.6755 39.8609 17.0152 39.8609H31.7152V42.7776Z" fill="black"/>
<path d="M18.9609 17.5H23.822V20.4167H18.9609V17.5Z" fill="black"/>
<path d="M35.0013 33.0553C31.7852 33.0553 29.168 30.4381 29.168 27.222C29.168 24.0059 31.7852 21.3887 35.0013 21.3887C38.2174 21.3887 40.8346 24.0059 40.8346 27.222C40.8346 30.4381 38.2174 33.0553 35.0013 33.0553ZM35.0013 24.3053C33.3932 24.3053 32.0846 25.6139 32.0846 27.222C32.0846 28.8301 33.3932 30.1387 35.0013 30.1387C36.6094 30.1387 37.918 28.8301 37.918 27.222C37.918 25.6139 36.6094 24.3053 35.0013 24.3053Z" fill="black"/>
</svg>
