<svg width="70" height="70" viewBox="0 0 70 70" fill="none" xmlns="http://www.w3.org/2000/svg">
<path d="M61.8967 53.7115C61.8967 40.2618 68.8636 31.0257 68.8636 24.5448C68.8636 18.064 65.1381 4.45288 35.3239 4.45288C5.50976 4.45288 1.13281 22.7637 1.13281 29.892C1.13281 63.2723 61.8967 77.5309 61.8967 53.7115Z" fill="#EFEFEF"/>
<path d="M61.2487 9.72225C59.6406 9.72225 58.332 8.41364 58.332 6.80558C58.332 5.19753 59.6406 3.88892 61.2487 3.88892C62.8568 3.88892 64.1654 5.19753 64.1654 6.80558C64.1654 8.41364 62.8568 9.72225 61.2487 9.72225ZM61.2487 5.83336C60.712 5.83336 60.2765 6.26892 60.2765 6.80558C60.2765 7.34225 60.712 7.77781 61.2487 7.77781C61.7854 7.77781 62.2209 7.34225 62.2209 6.80558C62.2209 6.26892 61.7854 5.83336 61.2487 5.83336Z" fill="#A4AFC1"/>
<path d="M18.957 54.4444V52.0139C18.957 49.8653 20.6973 48.125 22.8459 48.125H27.707C29.8556 48.125 31.5959 49.8653 31.5959 52.0139V54.4444H18.957Z" fill="#FEB46D"/>
<path d="M38.4023 54.4444V52.0139C38.4023 49.8653 40.1426 48.125 42.2912 48.125H47.1523C49.301 48.125 51.0412 49.8653 51.0412 52.0139V54.4444H38.4023Z" fill="#FEB46D"/>
<path d="M21.6844 41.3194C16.9478 41.3194 13.125 37.5414 13.125 32.8611C13.125 28.1808 16.9478 24.4028 21.6844 24.4028H21.8361C22.75 18.0114 28.2839 13.125 35 13.125C40.3258 13.125 44.9283 16.2069 47.04 20.6811C52.5369 20.9825 56.875 25.4742 56.875 30.9808C56.875 36.6956 52.1947 41.3194 46.4139 41.3194H21.6844Z" fill="#F3F3F1"/>
<path d="M28.6797 58.3332V53.9582C28.6797 51.8096 30.42 50.0693 32.5686 50.0693H37.4297C39.5783 50.0693 41.3186 51.8096 41.3186 53.9582V58.3332H28.6797Z" fill="#F3F3F1"/>
<path d="M27.2209 48.125H22.8459C20.6973 48.125 18.957 49.8653 18.957 52.0139V54.4444H23.332V52.0139C23.332 49.8653 25.0723 48.125 27.2209 48.125Z" fill="#FF6600"/>
<path d="M46.6662 48.125H42.2912C40.1426 48.125 38.4023 48.4069 38.4023 50.5556L42.7773 54.4444V52.0139C42.7773 49.8653 44.5176 48.125 46.6662 48.125Z" fill="#FF6600"/>
<path d="M17.5 32.8611C17.5 28.1808 21.3228 24.4028 26.0594 24.4028H26.2111C27.0219 18.7269 31.4806 14.2469 37.1719 13.3136C36.4642 13.1969 35.7408 13.125 35 13.125C28.2858 13.125 22.75 18.0114 21.8361 24.4028H21.6844C16.9478 24.4028 13.125 28.1808 13.125 32.8611C13.125 37.5414 16.9478 41.3194 21.6844 41.3194H26.0594C21.3228 41.3194 17.5 37.5414 17.5 32.8611Z" fill="#D5DBE1"/>
<path d="M36.9436 50.0693H32.5686C30.42 50.0693 28.6797 51.8096 28.6797 53.9582V58.3332H33.0547V53.9582C33.0547 51.8096 34.795 50.0693 36.9436 50.0693Z" fill="#D5DBE1"/>
<path d="M34.9983 46.6667C37.146 46.6667 38.8872 44.9256 38.8872 42.7778C38.8872 40.63 37.146 38.8889 34.9983 38.8889C32.8505 38.8889 31.1094 40.63 31.1094 42.7778C31.1094 44.9256 32.8505 46.6667 34.9983 46.6667Z" fill="black"/>
<path d="M42.7782 58.3333H39.8615V53.9583C39.8615 52.6186 38.7707 51.5278 37.431 51.5278H32.5699C31.2302 51.5278 30.1393 52.6186 30.1393 53.9583V58.3333H27.2227V53.9583C27.2227 51.0086 29.6202 48.6111 32.5699 48.6111H37.431C40.3807 48.6111 42.7782 51.0086 42.7782 53.9583V58.3333Z" fill="black"/>
<path d="M25.2795 44.7221C27.4273 44.7221 29.1684 42.981 29.1684 40.8332C29.1684 38.6855 27.4273 36.9443 25.2795 36.9443C23.1317 36.9443 21.3906 38.6855 21.3906 40.8332C21.3906 42.981 23.1317 44.7221 25.2795 44.7221Z" fill="black"/>
<path d="M20.4167 54.4445H17.5V52.014C17.5 49.0642 19.8975 46.6667 22.8472 46.6667H25.2778V49.5834H22.8472C21.5075 49.5834 20.4167 50.6742 20.4167 52.014V54.4445Z" fill="black"/>
<path d="M44.7209 44.7221C46.8687 44.7221 48.6098 42.981 48.6098 40.8332C48.6098 38.6855 46.8687 36.9443 44.7209 36.9443C42.5731 36.9443 40.832 38.6855 40.832 40.8332C40.832 42.981 42.5731 44.7221 44.7209 44.7221Z" fill="black"/>
<path d="M52.5004 54.4445H49.5838V52.014C49.5838 50.6742 48.4929 49.5834 47.1532 49.5834H44.7227V46.6667H47.1532C50.1029 46.6667 52.5004 49.0642 52.5004 52.014V54.4445Z" fill="black"/>
<path d="M16.0896 41.094C13.3207 39.2487 11.668 36.1706 11.668 32.8612C11.668 27.7492 15.5938 23.5279 20.6182 23.0009C22.1291 16.4598 28.1082 11.6667 35.0013 11.6667C40.4302 11.6667 45.4294 14.6398 47.9727 19.3084C53.8488 20.0415 58.3346 25.0115 58.3346 30.9751C58.3346 34.4129 56.8219 37.6737 54.1852 39.9215L52.2932 37.7009C54.2785 36.0092 55.416 33.5573 55.416 30.9751C55.416 26.2754 51.7002 22.3962 46.9577 22.1454C46.421 22.1162 45.9427 21.7954 45.7152 21.3092C43.798 17.224 39.5921 14.5834 35.0013 14.5834C29.1369 14.5834 24.0988 18.8942 23.2821 24.609C23.1791 25.3284 22.5627 25.8612 21.8374 25.8612C17.7677 25.8612 14.5846 29.0015 14.5846 32.8612C14.5846 35.1926 15.7513 37.3626 17.7074 38.6673L16.0896 41.094Z" fill="black"/>
</svg>
