<svg width="70" height="70" viewBox="0 0 70 70" fill="none" xmlns="http://www.w3.org/2000/svg">
<path d="M15.7773 10.8188C12.2676 23.8019 3.13068 30.8991 1.43901 37.1563C-0.252654 43.4136 -0.207933 57.5244 28.5737 65.3061C57.3554 73.0877 66.3582 56.5541 68.2171 49.6708C76.9301 17.4475 21.9937 -12.1762 15.7773 10.8188Z" fill="#EFEFEF"/>
<path d="M12.8398 7.0271L14.2148 5.65217L16.9646 8.40203L15.5897 9.77696L12.8398 7.0271Z" fill="#A4AFC1"/>
<path d="M12.4941 16.3076L15.244 13.5578L16.6189 14.9327L13.8691 17.6825L12.4941 16.3076Z" fill="#A4AFC1"/>
<path d="M20.4023 8.40149L23.1522 5.65163L24.5271 7.02656L21.7773 9.77642L20.4023 8.40149Z" fill="#A4AFC1"/>
<path d="M47.735 59.7916C46.127 59.7916 44.8184 58.483 44.8184 56.8749C44.8184 55.2669 46.127 53.9583 47.735 53.9583C49.3431 53.9583 50.6517 55.2669 50.6517 56.8749C50.6517 58.483 49.3431 59.7916 47.735 59.7916ZM47.735 55.9027C47.2003 55.9027 46.7628 56.3402 46.7628 56.8749C46.7628 57.4096 47.2003 57.8471 47.735 57.8471C48.2697 57.8471 48.7072 57.4096 48.7072 56.8749C48.7072 56.3402 48.2697 55.9027 47.735 55.9027Z" fill="#A4AFC1"/>
<path d="M43.7495 17.2356L41.8848 15.2153C39.3084 12.4269 35.1337 12.4269 32.5573 15.2153C29.9809 18.0036 29.9809 22.5244 32.5573 25.3128L43.7495 37.4305L54.9417 25.3128C57.5181 22.5244 57.5181 18.0036 54.9417 15.2153C52.3653 12.4269 48.1906 12.4269 45.6142 15.2153L43.7495 17.2356Z" fill="#FEB46D"/>
<path d="M13.125 36.4584V52.9862H18.4722L22.3611 38.6245C22.3611 38.6245 19.5261 36.4584 13.125 36.4584Z" fill="#F3F3F1"/>
<path d="M43.7509 48.7472C43.712 48.7666 43.6926 48.7666 43.6537 48.7861H43.7509V48.7472C46.5509 47.8916 49.487 46.6666 52.0148 46.6666C55.9037 46.6666 56.8759 49.0972 56.8759 49.0972C56.8759 49.0972 42.7787 56.875 36.9454 56.875C32.2981 56.875 22.7315 52.5583 19.0176 50.8083L21.9148 40.2694L40.6398 44.1C42.4481 44.4694 43.7509 46.0639 43.7509 47.9111V48.7472Z" fill="#F3F3F1"/>
<path d="M36.9323 25.3128C34.3559 22.5244 34.3559 18.0036 36.9323 15.2153C37.6537 14.4336 38.5053 13.895 39.4076 13.5528C37.0878 12.67 34.4103 13.2086 32.5573 15.2153C29.9809 18.0036 29.9809 22.5244 32.5573 25.3128L43.7495 37.4305L45.937 35.0622L36.9323 25.3128Z" fill="#FF6600"/>
<path d="M46.2603 15.2172L48.125 17.2375L49.9897 15.2172C50.7111 14.4356 51.5647 13.897 52.4669 13.5547C50.2736 12.7186 47.7731 13.1814 45.9375 14.9334C46.0425 15.0325 46.1592 15.1084 46.2603 15.2172Z" fill="#FF6600"/>
<path d="M13.125 36.4583V52.986H17.5V36.8471C16.2828 36.6196 14.8419 36.4583 13.125 36.4583Z" fill="#D5DBE1"/>
<path d="M48.1265 48.7861V48.7472C48.0876 48.7666 48.0682 48.7666 48.0293 48.7861H48.1265Z" fill="#D5DBE1"/>
<path d="M23.3926 50.8083L26.0565 41.1172L21.9148 40.2694L19.0176 50.8083C22.7315 52.5583 32.2981 56.875 36.9454 56.875C37.5559 56.875 38.2734 56.7739 39.0395 56.6202C34.0404 55.6811 26.5737 52.3075 23.3926 50.8083Z" fill="#D5DBE1"/>
<path d="M48.1267 47.9111V48.7472C50.1003 48.1444 52.1381 47.3666 54.0553 46.9544C53.4817 46.7872 52.8245 46.6666 52.0156 46.6666C50.779 46.6666 49.4451 46.9622 48.0781 47.3608C48.1053 47.5416 48.1267 47.7244 48.1267 47.9111Z" fill="#D5DBE1"/>
<path d="M43.7489 38.8888C43.3425 38.8888 42.9536 38.7197 42.6775 38.4202L31.4834 26.3044C28.4092 22.9755 28.4092 17.5563 31.4834 14.2275C33.0097 12.5766 35.0456 11.6666 37.2214 11.6666C39.3934 11.6666 41.4311 12.5766 42.9556 14.2255L43.7489 15.0869L44.5423 14.2275C46.0667 12.5766 48.1045 11.6666 50.2764 11.6666C52.4503 11.6666 54.4881 12.5766 56.0125 14.2255C59.0867 17.5544 59.0867 22.9736 56.0125 26.3025L44.8184 38.4183C44.5442 38.7197 44.1553 38.8888 43.7489 38.8888ZM37.2214 14.5833C35.87 14.5833 34.5925 15.1588 33.6261 16.205C31.5611 18.443 31.5611 22.085 33.6261 24.325L43.7489 35.2819L53.8717 24.325C55.9367 22.0869 55.9367 18.445 53.8717 16.205C51.9409 14.1147 48.6197 14.1108 46.685 16.205L44.8203 18.2252C44.27 18.8222 43.2297 18.8222 42.6775 18.2252L40.8128 16.205C39.8464 15.1588 38.5709 14.5833 37.2214 14.5833Z" fill="black"/>
<path d="M18.4716 54.4444H13.1243C12.3193 54.4444 11.666 53.7911 11.666 52.9861V36.4583C11.666 35.6533 12.3193 35 13.1243 35C19.9416 35 23.1149 37.3664 23.2452 37.4675C23.7157 37.8272 23.9238 38.4358 23.7682 39.0075L19.8793 53.3692C19.7082 54.0031 19.1307 54.4444 18.4716 54.4444ZM14.5827 51.5278H17.3555L20.6571 39.3342C19.6402 38.8539 17.653 38.1383 14.5827 37.9594V51.5278Z" fill="black"/>
<path d="M36.9445 58.3333C32.2604 58.3333 23.312 54.4444 18.3965 52.1285L19.639 49.4899C27.6307 53.2583 33.9384 55.4185 36.9445 55.4185C40.8879 55.4185 49.8401 51.1602 54.532 48.7024C53.9915 48.3933 53.1865 48.1269 52.014 48.1269C50.3068 48.1269 48.1951 48.8288 46.1554 49.5113C43.894 50.2658 41.5568 51.0435 39.3751 51.0435C35.2781 51.0435 29.8687 49.0933 29.6412 49.0116L30.6368 46.2699C30.6873 46.2894 35.7934 48.1269 39.3751 48.1269C41.0823 48.1269 43.194 47.4249 45.2337 46.7424C47.4951 45.988 49.8323 45.2102 52.014 45.2102C56.8343 45.2102 58.174 48.4205 58.2284 48.5585C58.5026 49.243 58.2226 50.0208 57.579 50.3766C56.9918 50.6994 43.0831 58.3333 36.9445 58.3333Z" fill="black"/>
<path d="M45.2072 48.786H42.2905V47.911C42.2905 46.7619 41.4719 45.7605 40.3461 45.5272L21.6191 41.6966L22.2044 38.8402L40.9314 42.6708C43.4086 43.1783 45.2072 45.3813 45.2072 47.9091V48.786Z" fill="black"/>
</svg>
