<svg width="70" height="70" viewBox="0 0 70 70" fill="none" xmlns="http://www.w3.org/2000/svg">
<path d="M6.69327 46.4392C18.4785 52.92 23.2152 63.4744 28.893 66.5972C34.5727 69.72 48.2947 73.012 62.6602 46.8864C77.0258 20.7608 63.0899 8.10445 56.8424 4.66862C27.5941 -11.4119 -14.1784 34.9631 6.69327 46.4392Z" fill="#EFEFEF"/>
<path d="M10.9512 58.7686L12.3261 57.3936L15.076 60.1435L13.701 61.5184L10.9512 58.7686Z" fill="#A4AFC1"/>
<path d="M3.05859 50.8469L4.43352 49.472L7.18338 52.2219L5.80845 53.5968L3.05859 50.8469Z" fill="#A4AFC1"/>
<path d="M3.39648 60.1345L6.14634 57.3847L7.52127 58.7596L4.77141 61.5095L3.39648 60.1345Z" fill="#A4AFC1"/>
<path d="M15.3112 27.2222C13.7031 27.2222 12.3945 25.9136 12.3945 24.3056C12.3945 22.6975 13.7031 21.3889 15.3112 21.3889C16.9193 21.3889 18.2279 22.6975 18.2279 24.3056C18.2279 25.9136 16.9193 27.2222 15.3112 27.2222ZM15.3112 23.3334C14.7745 23.3334 14.339 23.7689 14.339 24.3056C14.339 24.8422 14.7745 25.2778 15.3112 25.2778C15.8479 25.2778 16.2834 24.8422 16.2834 24.3056C16.2834 23.7689 15.8479 23.3334 15.3112 23.3334Z" fill="#A4AFC1"/>
<path d="M13.125 36.4583V52.986H18.4722L22.3611 38.6244C22.3611 38.6244 19.5261 36.4583 13.125 36.4583Z" fill="#FEB46D"/>
<path d="M52.0148 46.6665C49.4909 46.6665 46.5606 47.8876 43.7509 48.749V47.911C43.7509 46.0637 42.4481 44.4693 40.6398 44.0998L21.9148 40.2693L19.0176 50.8082C22.7315 52.5582 32.2981 56.8748 36.9454 56.8748C42.7787 56.8748 56.8759 49.0971 56.8759 49.0971C56.8759 49.0971 55.9037 46.6665 52.0148 46.6665Z" fill="white"/>
<path d="M46.4338 24.3055H40.3477V18.9583H46.4338C47.9057 18.9583 49.0977 20.1502 49.0977 21.6221V21.6416C49.0977 23.1135 47.9057 24.3055 46.4338 24.3055Z" fill="#FEB46D"/>
<path d="M47.406 29.6526H40.3477V24.3054H47.406C48.8779 24.3054 50.0699 25.4974 50.0699 26.9693V26.9888C50.0699 28.4607 48.8779 29.6526 47.406 29.6526Z" fill="#FEB46D"/>
<path d="M13.125 36.4583V52.986H17.5V36.8471C16.2828 36.6196 14.8419 36.4583 13.125 36.4583Z" fill="#FF6600"/>
<path d="M23.3926 50.8082L26.0565 41.1171L21.9148 40.2693L19.0176 50.8082C22.7315 52.5582 32.2981 56.8748 36.9454 56.8748C37.5559 56.8748 38.2734 56.7737 39.0395 56.6201C34.0404 55.681 26.5737 52.3073 23.3926 50.8082Z" fill="#D5DBE1"/>
<path d="M48.1267 47.9109V48.749C50.1062 48.1423 52.142 47.3646 54.0553 46.9543C53.4817 46.7871 52.8245 46.6665 52.0156 46.6665C50.7809 46.6665 49.447 46.9601 48.0781 47.3607C48.1053 47.5415 48.1267 47.7243 48.1267 47.9109Z" fill="#D5DBE1"/>
<path d="M40.3477 18.9583H44.7227V24.3055H40.3477V18.9583Z" fill="#FF6600"/>
<path d="M40.3477 24.3054H44.7227V29.6526H40.3477V24.3054Z" fill="#FF6600"/>
<path d="M18.4716 54.4444H13.1243C12.3193 54.4444 11.666 53.7911 11.666 52.9861V36.4583C11.666 35.6533 12.3193 35 13.1243 35C19.9396 35 23.1149 37.3644 23.2452 37.4656C23.7157 37.8253 23.9238 38.4339 23.7682 39.0056L19.8793 53.3672C19.7063 54.0031 19.1307 54.4444 18.4716 54.4444ZM14.5827 51.5278H17.3555L20.6571 39.3342C19.6402 38.8539 17.651 38.1383 14.5807 37.9594L14.5827 51.5278Z" fill="black"/>
<path d="M36.9445 58.3335C32.2662 58.3335 23.314 54.4446 18.3945 52.1288L19.639 49.4902C27.6345 53.2585 33.9423 55.4188 36.9445 55.4188C40.8879 55.4188 49.8401 51.1585 54.5301 48.7007C53.9895 48.3916 53.1845 48.1271 52.014 48.1271C50.3068 48.1271 48.197 48.831 46.1554 49.5096C43.894 50.2641 41.5548 51.0438 39.3751 51.0438C35.2762 51.0438 29.8687 49.0954 29.6412 49.0118L30.6368 46.2702C30.6873 46.2896 35.7934 48.1271 39.3751 48.1271C41.0823 48.1271 43.192 47.4232 45.2337 46.7446C47.4951 45.9902 49.8343 45.2104 52.014 45.2104C56.8343 45.2104 58.174 48.4207 58.2284 48.5588C58.5026 49.2413 58.2245 50.021 57.579 50.3768C56.9918 50.6996 43.0831 58.3335 36.9445 58.3335Z" fill="black"/>
<path d="M45.2072 48.7862H42.2905V47.9112C42.2905 46.762 41.4739 45.7587 40.3461 45.5292L21.6211 41.6987L22.2064 38.8403L40.9314 42.6709C43.4086 43.1764 45.2091 45.3814 45.2091 47.9112L45.2072 48.7862Z" fill="black"/>
<path d="M46.4331 25.7639H40.347C39.542 25.7639 38.8887 25.1106 38.8887 24.3056V18.9583C38.8887 18.1533 39.542 17.5 40.347 17.5H46.4331C48.7062 17.5 50.5553 19.3492 50.5553 21.6222C50.5553 23.9147 48.7062 25.7639 46.4331 25.7639ZM41.8053 22.8472H46.4331C47.0981 22.8472 47.6387 22.3067 47.6387 21.6417C47.6387 20.9572 47.0981 20.4167 46.4331 20.4167H41.8053V22.8472Z" fill="black"/>
<path d="M47.4053 31.1113H40.347C39.542 31.1113 38.8887 30.458 38.8887 29.653V24.3057C38.8887 23.5007 39.542 22.8474 40.347 22.8474H47.4053C49.6784 22.8474 51.5276 24.6966 51.5276 26.9696C51.5276 29.2621 49.6784 31.1113 47.4053 31.1113ZM41.8053 28.1946H47.4053C48.0703 28.1946 48.6109 27.6541 48.6109 26.9891C48.6109 26.3046 48.0703 25.7641 47.4053 25.7641H41.8053V28.1946Z" fill="black"/>
<path d="M40.834 16.0417H43.7507V18.9584H40.834V16.0417Z" fill="black"/>
<path d="M44.7227 16.0417H47.6393V18.9584H44.7227V16.0417Z" fill="black"/>
<path d="M44.7227 29.6528H47.6393V32.5695H44.7227V29.6528Z" fill="black"/>
<path d="M40.834 29.6528H43.7507V32.5695H40.834V29.6528Z" fill="black"/>
</svg>
