<svg width="70" height="71" viewBox="0 0 70 71" fill="none" xmlns="http://www.w3.org/2000/svg">
<path d="M16.2889 62.667C29.7386 62.667 38.9747 69.6339 45.4555 69.6339C51.9364 69.6339 65.5475 65.9084 65.5475 36.0942C65.5475 6.28002 47.2367 1.90308 40.1083 1.90308C6.72805 1.90308 -7.53057 62.667 16.2889 62.667Z" fill="#EFEFEF"/>
<path d="M18.4714 10.4918C16.8633 10.4918 15.5547 9.18317 15.5547 7.57511C15.5547 5.96706 16.8633 4.65845 18.4714 4.65845C20.0794 4.65845 21.388 5.96706 21.388 7.57511C21.388 9.18317 20.0794 10.4918 18.4714 10.4918ZM18.4714 6.60289C17.9366 6.60289 17.4991 7.04039 17.4991 7.57511C17.4991 8.10984 17.9366 8.54734 18.4714 8.54734C19.0061 8.54734 19.4436 8.10984 19.4436 7.57511C19.4436 7.04039 19.0061 6.60289 18.4714 6.60289Z" fill="#A4AFC1"/>
<path d="M52.9861 55.7001H17.0139C14.8653 55.7001 13.125 53.9598 13.125 51.8112V22.6445H56.875V51.8112C56.875 53.9598 55.1347 55.7001 52.9861 55.7001Z" fill="#F3F3F1"/>
<path d="M56.875 22.6444H13.125V19.7278C13.125 17.5791 14.8653 15.8389 17.0139 15.8389H52.9861C55.1347 15.8389 56.875 17.5791 56.875 19.7278V22.6444Z" fill="#FEB46D"/>
<path d="M18.957 45.9779C19.449 37.8481 26.4587 31.3945 34.9987 31.3945C43.5387 31.3945 50.5484 37.8481 51.0404 45.9779H18.957Z" fill="#FEB46D"/>
<path d="M37.1862 31.5559C36.4687 31.4606 35.7434 31.3945 34.9987 31.3945C26.4587 31.3945 19.449 37.8481 18.957 45.9779H23.332C23.7812 38.5559 29.667 32.5476 37.1862 31.5559Z" fill="#FF6600"/>
<path d="M17.9861 51.8112V22.6445H13.125V51.8112C13.125 53.9598 14.8653 55.7001 17.0139 55.7001H21.875C19.7264 55.7001 17.9861 53.9598 17.9861 51.8112Z" fill="#D5DBE1"/>
<path d="M21.3889 15.8389H17.0139C14.8653 15.8389 13.125 17.5791 13.125 19.7278V22.6444H17.5V19.7278C17.5 17.5791 19.2403 15.8389 21.3889 15.8389Z" fill="#FF6600"/>
<path d="M51.0422 47.4363H18.9589C18.5564 47.4363 18.1733 47.271 17.8972 46.9774C17.6211 46.6857 17.4791 46.291 17.5025 45.8904C18.043 36.9441 25.7294 29.9363 35.0005 29.9363C44.2717 29.9363 51.958 36.9441 52.4986 45.8904C52.5219 46.291 52.378 46.6838 52.1039 46.9774C51.8278 47.271 51.4447 47.4363 51.0422 47.4363ZM20.598 44.5196H49.403C48.2267 37.8657 42.1833 32.8529 35.0005 32.8529C27.8178 32.8529 21.7744 37.8657 20.598 44.5196Z" fill="black"/>
<path d="M33.9609 44.4207L40.2822 38.1173L42.3416 40.1826L36.0204 46.486L33.9609 44.4207Z" fill="black"/>
<path d="M52.9874 57.1584H17.0152C14.0655 57.1584 11.668 54.7609 11.668 51.8112V19.7278C11.668 16.7781 14.0655 14.3806 17.0152 14.3806H52.9874C55.9371 14.3806 58.3346 16.7781 58.3346 19.7278V51.8112C58.3346 54.7609 55.9371 57.1584 52.9874 57.1584ZM17.0152 17.2973C15.6755 17.2973 14.5846 18.3881 14.5846 19.7278V51.8112C14.5846 53.1509 15.6755 54.2417 17.0152 54.2417H52.9874C54.3271 54.2417 55.418 53.1509 55.418 51.8112V19.7278C55.418 18.3881 54.3271 17.2973 52.9874 17.2973H17.0152Z" fill="black"/>
<path d="M13.125 21.1863H56.875V24.1029H13.125V21.1863Z" fill="black"/>
<path d="M3.89062 54.2417H66.1128V57.1584H3.89062V54.2417Z" fill="black"/>
</svg>
