<svg width="44" height="44" viewBox="0 0 44 44" fill="none" xmlns="http://www.w3.org/2000/svg">
<path d="M32.9778 4.78388C24.5249 4.94154 18.6387 0.671099 14.565 0.748099C10.4914 0.825099 1.98103 3.32577 2.33181 22.0637C2.68259 40.8015 14.2411 43.3352 18.7218 43.2521C39.7 42.8598 47.9464 4.50399 32.9778 4.78388Z" fill="#F5F8FB"/>
<path d="M28.7835 41.5385C27.7728 41.5385 26.9502 40.7159 26.9502 39.7052C26.9502 38.6944 27.7728 37.8718 28.7835 37.8718C29.7943 37.8718 30.6169 38.6944 30.6169 39.7052C30.6169 40.7159 29.7943 41.5385 28.7835 41.5385ZM28.7835 39.094C28.4474 39.094 28.1724 39.3678 28.1724 39.7052C28.1724 40.0425 28.4474 40.3163 28.7835 40.3163C29.1196 40.3163 29.3946 40.0425 29.3946 39.7052C29.3946 39.3678 29.1196 39.094 28.7835 39.094Z" fill="#A4AFC1"/>
<path d="M6.59863 2.33447H7.82086V4.77892H6.59863V2.33447Z" fill="#A4AFC1"/>
<path d="M6.59863 9.3623H7.82086V11.8067H6.59863V9.3623Z" fill="#A4AFC1"/>
<path d="M2.32129 6.30664H4.76573V7.52886H2.32129V6.30664Z" fill="#A4AFC1"/>
<path d="M9.34863 6.30664H11.7931V7.52886H9.34863V6.30664Z" fill="#A4AFC1"/>
<path d="M19.8608 22.3057H17.2636C16.3359 22.3057 15.583 23.0586 15.583 23.9862C15.583 24.9139 16.3359 25.6668 17.2636 25.6668H18.1802C19.1079 25.6668 19.8608 26.4197 19.8608 27.3473C19.8608 28.275 19.1079 29.0279 18.1802 29.0279H15.583L19.8608 22.3057Z" fill="#FEB46D"/>
<path d="M29.9443 16.1943C31.4631 16.1943 32.6943 14.9631 32.6943 13.4443C32.6943 11.9256 31.4631 10.6943 29.9443 10.6943C28.4256 10.6943 27.1943 11.9256 27.1943 13.4443C27.1943 14.9631 28.4256 16.1943 29.9443 16.1943Z" fill="#F3F3F1"/>
<path d="M24.6977 27.1017L26.9368 28.8483C27.1703 29.0304 27.2338 29.3567 27.0859 29.6122L25.8209 31.8036C25.6731 32.0591 25.3602 32.1678 25.0864 32.0578L22.4317 30.9921C21.7314 31.6203 20.8893 32.1189 19.9763 32.4159L19.5742 35.2393C19.5326 35.5314 19.2821 35.7489 18.9875 35.7489H16.4575C16.1617 35.7489 15.9124 35.5314 15.8708 35.2393L15.4687 32.4159C14.5435 32.1189 13.7136 31.6215 13.0011 30.9921L10.3586 32.0566C10.0848 32.1666 9.77072 32.0591 9.62283 31.8024L8.35783 29.6097C8.20994 29.3543 8.2735 29.0292 8.50572 28.8471L10.7461 27.0883C10.6519 26.6275 10.6043 26.1533 10.6043 25.6668C10.6043 25.1804 10.6519 24.7062 10.7461 24.2429V24.2307L8.50694 22.4842C8.2735 22.3021 8.20994 21.9757 8.35783 21.7203L9.62283 19.5288C9.77072 19.2734 10.0836 19.1646 10.3574 19.2746L13.0121 20.3404C13.7124 19.7122 14.5545 19.2135 15.4675 18.9165L15.8696 16.0932C15.9112 15.8011 16.1617 15.5835 16.4563 15.5835H18.9863C19.2821 15.5835 19.5314 15.8011 19.5729 16.0932L19.9751 18.9165C20.9003 19.2135 21.7302 19.7109 22.4427 20.3404L25.0852 19.2758C25.3589 19.1658 25.6731 19.2734 25.8209 19.5301L27.0859 21.7227C27.2338 21.9782 27.1703 22.3033 26.9381 22.4854L24.6977 24.2442C24.7931 24.7074 24.8395 25.1816 24.8395 25.6681C24.8395 26.1545 24.7918 26.6287 24.6977 27.0919V27.1017Z" fill="#FEB46D"/>
<path d="M15.4576 20.3401C16.1579 19.7119 17 19.2133 17.913 18.9163L18.3151 16.0929C18.3567 15.8008 18.6072 15.5833 18.9018 15.5833H16.4573C16.1616 15.5833 15.9122 15.8008 15.8707 16.0929L15.4686 18.9163C14.8978 19.102 14.36 19.3734 13.8613 19.6985L15.4576 20.3401Z" fill="#FF6600"/>
<path d="M24.8878 20.3402L26.0244 19.8818L25.8203 19.5286C25.6724 19.2732 25.3583 19.1644 25.0846 19.2744L24.0322 19.6985C24.3329 19.8941 24.6213 20.1043 24.8878 20.3402Z" fill="#FF6600"/>
<path d="M10.8032 29.6119C10.6553 29.3565 10.7189 29.0314 10.9511 28.8493L13.1914 27.0905C13.0961 26.6273 13.0496 26.1531 13.0496 25.6666C13.0496 25.1802 13.0973 24.7059 13.1914 24.2427V24.2305L10.9523 22.4839C10.7189 22.3018 10.6553 21.9755 10.8032 21.7201L11.8653 19.8794L10.3583 19.2744C10.0845 19.1644 9.77164 19.2732 9.62375 19.5286L8.35875 21.7201C8.21086 21.9767 8.27442 22.3018 8.50786 22.4839L10.747 24.2305V24.2427C10.6516 24.7059 10.604 25.1802 10.604 25.6666C10.604 26.1531 10.6516 26.6273 10.7457 27.0905L8.50664 28.8481C8.27442 29.0302 8.21208 29.3553 8.35875 29.6107L9.62375 31.8034C9.77164 32.0588 10.0857 32.1676 10.3595 32.0576L11.8653 31.4514L10.8032 29.6119Z" fill="#FF6600"/>
<path d="M24.8756 30.9932C24.6128 31.2291 24.3256 31.4393 24.0273 31.6336L25.0858 32.0589C25.3596 32.1689 25.6725 32.0602 25.8203 31.8047L26.0232 31.4539L24.8756 30.9932Z" fill="#FF6600"/>
<path d="M18.3154 35.2404L17.9132 32.4171C16.988 32.1201 16.1581 31.6226 15.4456 30.9932L13.8555 31.6336C14.3541 31.9587 14.8907 32.2313 15.4688 32.4158L15.8709 35.2392C15.9125 35.5313 16.163 35.7488 16.4576 35.7488H18.902C18.6075 35.7501 18.3569 35.5325 18.3154 35.2404Z" fill="#FF6600"/>
<path d="M29.6388 13.4443C29.6388 12.3676 30.2646 11.4436 31.1666 10.9926C30.7974 10.808 30.3856 10.6943 29.9443 10.6943C28.4251 10.6943 27.1943 11.9251 27.1943 13.4443C27.1943 14.9636 28.4251 16.1943 29.9443 16.1943C30.3856 16.1943 30.7974 16.0807 31.1666 15.8961C30.2646 15.4451 29.6388 14.5211 29.6388 13.4443Z" fill="#D5DBE1"/>
<path d="M18.1809 29.9445H14.667V28.1111H18.1809C18.6025 28.1111 18.9448 27.7689 18.9448 27.3472C18.9448 26.9256 18.6025 26.5834 18.1809 26.5834H17.2642C15.8318 26.5834 14.667 25.4186 14.667 23.9861C14.667 22.5537 15.8318 21.3889 17.2642 21.3889H20.7781V23.2222H17.2642C16.8425 23.2222 16.5003 23.5645 16.5003 23.9861C16.5003 24.4078 16.8425 24.75 17.2642 24.75H18.1809C19.6133 24.75 20.7781 25.9148 20.7781 27.3472C20.7781 28.7797 19.6133 29.9445 18.1809 29.9445Z" fill="black"/>
<path d="M16.8057 28.1111H18.639V31.7778H16.8057V28.1111Z" fill="black"/>
<path d="M16.8057 19.5557H18.639V23.2223H16.8057V19.5557Z" fill="black"/>
<path d="M29.944 17.1112C27.9225 17.1112 26.2773 15.4661 26.2773 13.4445C26.2773 11.4229 27.9225 9.77783 29.944 9.77783C31.9656 9.77783 33.6107 11.4229 33.6107 13.4445C33.6107 15.4661 31.9656 17.1112 29.944 17.1112ZM29.944 11.6112C28.9332 11.6112 28.1107 12.4337 28.1107 13.4445C28.1107 14.4553 28.9332 15.2778 29.944 15.2778C30.9548 15.2778 31.7773 14.4553 31.7773 13.4445C31.7773 12.4337 30.9548 11.6112 29.944 11.6112Z" fill="black"/>
<path d="M29.0273 15.2778H30.8607V19.5556H29.0273V15.2778Z" fill="black"/>
<path d="M29.0273 7.3335H30.8607V11.6113H29.0273V7.3335Z" fill="black"/>
<path d="M31.0791 11.761L34.7805 9.62393L35.6971 11.2116L31.9958 13.3487L31.0791 11.761Z" fill="black"/>
<path d="M24.1934 15.7183L27.8947 13.5812L28.8114 15.1689L25.11 17.3059L24.1934 15.7183Z" fill="black"/>
<path d="M24.2061 11.1814L25.1246 9.59373L28.8259 11.7351L27.9074 13.3227L24.2061 11.1814Z" fill="black"/>
<path d="M31.0918 15.1396L32.0103 13.552L35.7117 15.6933L34.7932 17.281L31.0918 15.1396Z" fill="black"/>
<path d="M18.9875 36.6667H16.4575C15.7119 36.6667 15.0678 36.1094 14.9627 35.37L14.6376 33.0881C14.0032 32.829 13.4019 32.4794 12.8372 32.0467L10.7008 32.9084C10.0029 33.1895 9.19991 32.9084 8.82835 32.2606L7.56457 30.0704C7.18935 29.4239 7.35191 28.5891 7.94224 28.1271L9.75357 26.7044C9.70957 26.3646 9.6888 26.0175 9.6888 25.6667C9.6888 25.3123 9.71202 24.9627 9.75602 24.6205L7.94468 23.2076C7.35557 22.7469 7.19302 21.9096 7.5658 21.2631L8.82957 19.0716C9.20357 18.4251 10.0078 18.1476 10.6984 18.4239L12.8458 19.2867C13.397 18.8614 14.0032 18.5106 14.6376 18.2479L14.9627 15.9647C15.0678 15.2241 15.7107 14.6667 16.4575 14.6667H18.9875C19.733 14.6667 20.3771 15.2241 20.4822 15.9635L20.8074 18.2442C21.4417 18.5045 22.0442 18.8529 22.6077 19.2867L23.4767 18.936L24.1623 20.6373L22.7886 21.191C22.4647 21.3181 22.1005 21.2582 21.8401 21.0284C21.1887 20.454 20.4688 20.0372 19.6988 19.7903C19.3639 19.6827 19.1195 19.3943 19.0706 19.046L18.7076 16.5001H16.7386L16.3768 19.046C16.3279 19.3931 16.0859 19.6815 15.7522 19.7891C14.981 20.0396 14.2465 20.4662 13.6256 21.0223C13.3665 21.257 12.9925 21.323 12.6722 21.191L10.2791 20.2303L9.29524 21.9365L11.3107 23.5095C11.5344 23.6831 11.6639 23.9495 11.6639 24.2319C11.6639 24.2942 11.6578 24.3675 11.6444 24.4299C11.5637 24.8246 11.5221 25.2402 11.5221 25.6667C11.5221 26.0933 11.5637 26.5089 11.6456 26.9049C11.7165 27.2459 11.5869 27.5966 11.3144 27.8117L9.29524 29.397L10.2791 31.1032L12.66 30.1437C12.9815 30.0154 13.3469 30.0765 13.6085 30.3063C14.2599 30.882 14.981 31.2987 15.7498 31.5444C16.0847 31.652 16.3291 31.9404 16.378 32.2887L16.7398 34.8346H18.7088L19.0706 32.2887C19.1195 31.9416 19.3615 31.6532 19.6951 31.5456C20.4651 31.2951 21.2009 30.8685 21.8218 30.3124C22.0834 30.079 22.4561 30.0142 22.7751 30.1437L25.1682 31.1044L26.1521 29.3982L24.1367 27.8252C23.913 27.6516 23.7835 27.3852 23.7835 27.1029C23.7835 27.0405 23.7896 26.9672 23.803 26.9049C23.8837 26.5089 23.9265 26.0933 23.9265 25.6667C23.9265 25.2402 23.8849 24.8246 23.803 24.4286C23.7321 24.0876 23.8617 23.7369 24.1342 23.5217L26.1534 21.9365L25.1695 20.2303L24.9568 20.3159L24.2711 18.6145L24.7441 18.4239C25.442 18.144 26.245 18.4226 26.6166 19.0716L27.8804 21.2619C28.2556 21.9084 28.093 22.7432 27.5027 23.2052L25.6914 24.6279C25.7354 24.9676 25.7574 25.3147 25.7574 25.6655C25.7574 26.02 25.7341 26.3695 25.6901 26.7117L27.5002 28.1246C28.0893 28.5854 28.2519 29.4226 27.8791 30.0692L26.6154 32.2606C26.2414 32.9072 25.4371 33.1846 24.7466 32.9084L22.5979 32.0455C22.0479 32.4709 21.4417 32.8216 20.8074 33.0844L20.4822 35.3675C20.3771 36.1094 19.7342 36.6667 18.9875 36.6667Z" fill="black"/>
</svg>
