<svg width="70" height="70" viewBox="0 0 70 70" fill="none" xmlns="http://www.w3.org/2000/svg">
<path d="M8.10171 53.7114C8.10171 40.2617 1.13477 31.0255 1.13477 24.5447C1.13477 18.0639 4.86032 4.45276 34.6745 4.45276C64.4887 4.45276 68.8637 22.7636 68.8637 29.8919C68.8656 63.2722 8.10171 77.5308 8.10171 53.7114Z" fill="#EFEFEF"/>
<path d="M62.2214 15.748C60.6133 15.748 59.3047 14.4394 59.3047 12.8313C59.3047 11.2233 60.6133 9.91467 62.2214 9.91467C63.8294 9.91467 65.138 11.2233 65.138 12.8313C65.138 14.4394 63.8294 15.748 62.2214 15.748ZM62.2214 11.8591C61.6866 11.8591 61.2491 12.2966 61.2491 12.8313C61.2491 13.3661 61.6866 13.8036 62.2214 13.8036C62.7561 13.8036 63.1936 13.3661 63.1936 12.8313C63.1936 12.2966 62.7561 11.8591 62.2214 11.8591Z" fill="#A4AFC1"/>
<path d="M21.8167 17.5V18.9544C21.8167 20.9572 20.8833 22.8667 19.2889 24.1131C17.3444 25.6433 15.8083 27.5528 14.7583 29.6878C13.7278 31.7664 13.1639 34.0336 13.125 36.3767V36.6411C13.125 38.5117 13.4556 40.3453 14.0972 42.0642C14.3111 42.6689 14.5639 43.2542 14.8556 43.8219C15.9833 46.0133 17.6361 47.9597 19.6972 49.4725L20.9028 50.3611C21.5056 50.7967 22.225 51.0417 22.9833 51.0417H33.5417H24.7917H35.35C36.1083 51.0417 36.8278 50.7967 37.4306 50.3611L38.6361 49.4725C40.6972 47.9617 42.35 46.0153 43.4778 43.8219C43.7694 43.2542 44.0222 42.6689 44.2361 42.0642C44.8778 40.3453 45.2083 38.5117 45.2083 36.6411C45.2083 36.5458 45.2083 36.4719 45.2083 36.3767C45.1694 34.0336 44.6056 31.7664 43.575 29.6878C42.525 27.5528 40.9889 25.6433 39.0444 24.1131C37.45 22.8667 36.5167 20.9572 36.5167 18.9544V17.5H21.8167Z" fill="#F3F3F1"/>
<path d="M36.2354 17.0139H22.1012C20.3668 17.0139 18.9609 15.8531 18.9609 14.4219V13.125H39.3776V14.4219C39.3757 15.8531 37.9698 17.0139 36.2354 17.0139Z" fill="#FEB46D"/>
<path d="M45.6942 52.1714L38.7837 56.875L40.9031 48.512L34.5137 43.0559L42.7328 42.5892L45.6942 34.5139L48.6556 42.5892L56.8748 43.0559L50.4853 48.512L52.6048 56.875L45.6942 52.1714Z" fill="#FEB46D"/>
<path d="M46.6276 42.5834L38.4026 43.05L44.7998 48.5139L43.497 53.6667L38.7915 56.875L40.9109 48.5139L34.5137 43.05L42.7387 42.5834L45.6942 34.5139L47.6387 39.8222L46.6276 42.5834Z" fill="#FF6600"/>
<path d="M52.6056 58.3333C52.3197 58.3333 52.032 58.2497 51.785 58.0805L45.695 53.935L39.605 58.0805C39.1072 58.4228 38.4461 58.4189 37.9483 58.0689C37.4506 57.7208 37.2211 57.1044 37.3708 56.5153L39.2667 49.0311L33.5656 44.1622C33.1145 43.7753 32.9414 43.1511 33.13 42.5872C33.3206 42.0214 33.8339 41.6305 34.4308 41.5955L41.6914 41.1853L44.3242 34.0103C44.5361 33.4367 45.0845 33.0555 45.695 33.0555C46.3056 33.0555 46.8539 33.4367 47.0639 34.0122L49.6967 41.1872L56.9572 41.5975C57.5542 41.6325 58.0675 42.0233 58.2581 42.5892C58.4486 43.153 58.2756 43.7753 57.8225 44.1642L52.1214 49.033L54.0172 56.5172C54.167 57.1064 53.9375 57.7228 53.4397 58.0708C53.1889 58.2458 52.8972 58.3333 52.6056 58.3333ZM45.695 50.713C45.9808 50.713 46.2686 50.7967 46.5156 50.9658L50.247 53.5072L49.0725 48.8717C48.9364 48.333 49.1153 47.7653 49.5372 47.4036L53.1636 44.3061L48.5747 44.0455C47.9933 44.0105 47.4858 43.6372 47.2875 43.0908L45.695 38.7489L44.1025 43.0908C43.9022 43.6372 43.3967 44.0125 42.8153 44.0455L38.2264 44.3061L41.8528 47.4036C42.2747 47.7653 42.4556 48.333 42.3175 48.8717L41.1431 53.5072L44.8745 50.9658C45.1214 50.7967 45.4092 50.713 45.695 50.713Z" fill="black"/>
<path d="M36.2347 18.4722H22.0986C19.565 18.4722 17.5 16.6541 17.5 14.4219V13.125C17.5 12.32 18.1533 11.6666 18.9583 11.6666H39.375C40.18 11.6666 40.8333 12.32 40.8333 13.125V14.4219C40.8333 16.6541 38.7683 18.4722 36.2347 18.4722ZM20.4381 14.5833C20.5567 15.0713 21.2061 15.5555 22.0986 15.5555H36.2347C37.1272 15.5555 37.7767 15.0713 37.8953 14.5833H20.4381Z" fill="black"/>
<path d="M33.541 52.5H22.9827C21.9288 52.5 20.9138 52.1694 20.0466 51.5453L18.8293 50.6469C16.6185 49.0253 14.7946 46.8942 13.556 44.4908C13.2371 43.8686 12.9552 43.2172 12.7199 42.5542C12.0257 40.6836 11.666 38.6867 11.666 36.6431V36.3786C11.7068 33.8042 12.3077 31.3425 13.451 29.0422C14.6157 26.6739 16.2763 24.6283 18.386 22.9697C19.6227 22.0033 20.3577 20.5022 20.3577 18.9564V17.5H23.2743V18.9544C23.2743 21.3928 22.1193 23.7514 20.1866 25.2622C18.4268 26.6486 17.0385 28.3558 16.0663 30.3314C15.1155 32.2467 14.6177 34.2883 14.5827 36.4V36.6411C14.5827 38.3347 14.8782 39.9894 15.4635 41.5547C15.6638 42.1186 15.8913 42.6475 16.1518 43.1569C17.1805 45.1578 18.7049 46.935 20.558 48.2961L21.7674 49.1867C22.1213 49.4414 22.5452 49.5814 22.9827 49.5814H33.541V52.5Z" fill="black"/>
<path d="M25.2007 44.3333C24.0496 44.3333 22.9743 44.0397 22.1752 43.505C21.5491 43.087 19.9857 43.087 19.3596 43.505C17.6913 44.5861 14.8796 44.5667 13.2891 43.505L14.9068 41.0783C15.5368 41.4983 17.0885 41.4983 17.7593 41.0667C19.3246 40.0225 22.1868 40.0108 23.7949 41.0783C24.108 41.2864 24.6466 41.4167 25.2027 41.4167C25.4963 41.4167 26.0038 41.2611 26.4102 41.1328C26.7874 41.0161 27.1452 40.9131 27.4505 40.8547L27.9716 43.7267C27.7674 43.7636 27.5263 43.8433 27.2716 43.9211C26.6435 44.1156 25.9338 44.3333 25.2007 44.3333Z" fill="black"/>
<path d="M25.2202 38.9862C24.0808 38.9862 23.0133 38.6925 22.2141 38.1578C21.588 37.7398 20.0247 37.7398 19.3986 38.1578C17.7924 39.2312 14.9594 39.2195 13.3669 38.1578C13.1238 37.9906 12.9819 37.8953 12.8633 37.8739L13.3883 35.002C14.1272 35.1362 14.6347 35.4862 15.0041 35.7428C15.5933 36.1337 17.1469 36.157 17.7808 35.7292C19.3869 34.6617 22.2336 34.6617 23.8319 35.7292C24.4638 36.1512 26.0077 36.1414 26.628 35.7292C27.4272 35.1964 28.5024 34.9009 29.6536 34.9009C30.2991 34.9125 31.8333 35.035 32.6772 35.9606L30.5208 37.9245C30.4663 37.9167 29.9802 37.8253 29.6244 37.8175C29.0974 37.8175 28.5608 37.9459 28.2477 38.1559C27.4427 38.6906 26.3713 38.9862 25.2202 38.9862Z" fill="black"/>
<path d="M40.9755 28.3364C40.1297 26.5709 40.0383 26.495 38.4594 25.2214L38.1269 24.9511C36.2078 23.4053 35.0586 20.9961 35.0586 18.5092V17.0139H37.9753V18.5111C37.9753 20.125 38.7161 21.6845 39.9605 22.6839L40.293 22.9522C42.0975 24.4086 42.5175 24.7956 43.6083 27.0803L40.9755 28.3364Z" fill="black"/>
</svg>
