<svg width="72" height="14" viewBox="0 0 72 14" fill="none" xmlns="http://www.w3.org/2000/svg">
<path d="M14.0189 0.324768H0.74707V13.0424H14.0189V0.324768Z" fill="#00B67A"/>
<path d="M28.2581 0.324768H14.9863V13.0424H28.2581V0.324768Z" fill="#00B67A"/>
<path d="M42.6361 0.324768H29.3643V13.0424H42.6361V0.324768Z" fill="#00B67A"/>
<path d="M56.8763 0.324768H43.6045V13.0424H56.8763V0.324768Z" fill="#00B67A"/>
<path d="M71.2533 0.324768H57.9814V13.0424H71.2533V0.324768Z" fill="#DCDCE6"/>
<path d="M57.9814 0.324768H64.6173V12.91H57.9814V0.324768Z" fill="#00B67A"/>
<path d="M7.2448 8.80372L9.31852 8.27382L10.148 10.7909L7.2448 8.80372ZM11.9452 5.6243H8.35078L7.2448 2.44489L6.13881 5.6243H2.68262L5.58582 7.61144L4.47984 10.7909L7.38305 8.80372L9.18027 7.61144L11.9452 5.6243Z" fill="white"/>
<path d="M21.6229 8.80372L23.6966 8.27382L24.5261 10.7909L21.6229 8.80372ZM26.185 5.6243H22.5906L21.4846 2.44489L20.3786 5.6243H16.7842L19.6874 7.61144L18.5814 10.7909L21.4846 8.80372L23.2818 7.61144L26.185 5.6243Z" fill="white"/>
<path d="M36.0008 8.80372L38.0745 8.27382L38.904 10.7909L36.0008 8.80372ZM40.563 5.6243H36.9685L35.8625 2.44489L34.7566 5.6243H31.1621L34.0653 7.61144L33.0976 10.7909L36.0008 8.80372L37.798 7.61144L40.563 5.6243Z" fill="white"/>
<path d="M50.2395 8.80372L52.3132 8.27382L53.1427 10.7909L50.2395 8.80372ZM54.9399 5.6243H51.3455L50.2395 2.44489L49.1335 5.6243H45.5391L48.4423 7.61144L47.3363 10.7909L50.2395 8.80372L52.0367 7.61144L54.9399 5.6243Z" fill="white"/>
<path d="M64.6174 8.80372L66.6911 8.27382L67.5206 10.7909L64.6174 8.80372ZM69.1796 5.6243H65.5852L64.4792 2.44489L63.5114 5.6243H59.917L62.8202 7.61144L61.7142 10.7909L64.6174 8.80372L66.4146 7.61144L69.1796 5.6243Z" fill="white"/>
</svg>
