<svg width="70" height="70" viewBox="0 0 70 70" fill="none" xmlns="http://www.w3.org/2000/svg">
<path d="M1.95173 27.8269C8.27701 39.6957 6.47062 51.1232 9.51756 56.8438C12.5645 62.5644 22.2556 72.8232 48.5678 58.8038C74.8801 44.7844 70.1317 26.5669 66.7776 20.2746C51.082 -9.18565 -9.25022 6.80546 1.95173 27.8269Z" fill="#EFEFEF"/>
<path d="M53.2578 63.9258L56.0077 61.1759L57.3826 62.5509L54.6327 65.3007L53.2578 63.9258Z" fill="#A4AFC1"/>
<path d="M61.1641 56.021L63.9139 53.2711L65.2888 54.6461L62.539 57.3959L61.1641 56.021Z" fill="#A4AFC1"/>
<path d="M61.1641 62.8948L62.539 61.5198L65.2902 64.2711L63.9153 65.646L61.1641 62.8948Z" fill="#A4AFC1"/>
<path d="M20.3893 16.0416C18.7813 16.0416 17.4727 14.733 17.4727 13.1249C17.4727 11.5169 18.7813 10.2083 20.3893 10.2083C21.9974 10.2083 23.306 11.5169 23.306 13.1249C23.306 14.733 21.9974 16.0416 20.3893 16.0416ZM20.3893 12.1527C19.8546 12.1527 19.4171 12.5902 19.4171 13.1249C19.4171 13.6596 19.8546 14.0971 20.3893 14.0971C20.924 14.0971 21.3615 13.6596 21.3615 13.1249C21.3615 12.5902 20.926 12.1527 20.3893 12.1527Z" fill="#A4AFC1"/>
<path d="M17.5013 49.0973C18.3067 49.0973 18.9596 48.4444 18.9596 47.639C18.9596 46.8336 18.3067 46.1807 17.5013 46.1807C16.6959 46.1807 16.043 46.8336 16.043 47.639C16.043 48.4444 16.6959 49.0973 17.5013 49.0973Z" fill="#FEB46D"/>
<path d="M21.875 58.2652C21.875 55.8871 20.5683 53.9583 18.9583 53.9583H16.0417C14.4317 53.9583 13.125 55.8871 13.125 58.2652H21.875Z" fill="#FEB46D"/>
<path d="M35.0013 49.0973C35.8067 49.0973 36.4596 48.4444 36.4596 47.639C36.4596 46.8336 35.8067 46.1807 35.0013 46.1807C34.1959 46.1807 33.543 46.8336 33.543 47.639C33.543 48.4444 34.1959 49.0973 35.0013 49.0973Z" fill="#FEB46D"/>
<path d="M39.375 58.2652C39.375 55.8871 38.0683 53.9583 36.4583 53.9583H33.5417C31.9317 53.9583 30.625 55.8871 30.625 58.2652H39.375Z" fill="#FEB46D"/>
<path d="M52.5013 49.0973C53.3067 49.0973 53.9596 48.4444 53.9596 47.639C53.9596 46.8336 53.3067 46.1807 52.5013 46.1807C51.6959 46.1807 51.043 46.8336 51.043 47.639C51.043 48.4444 51.6959 49.0973 52.5013 49.0973Z" fill="#FEB46D"/>
<path d="M56.875 58.2652C56.875 55.8871 55.5683 53.9583 53.9583 53.9583H51.0417C49.4317 53.9583 48.125 55.8871 48.125 58.2652H56.875Z" fill="#FEB46D"/>
<path d="M35.0235 26.8158L29.9252 29.6528L30.8799 23.6756L26.7344 19.46L32.4413 18.5694L34.9769 13.125L37.5494 18.5519L43.2622 19.4036L39.1438 23.6483L40.1413 29.6178L35.0235 26.8158Z" fill="#FEB46D"/>
<path d="M19.4444 54.0302C19.285 53.9913 19.1256 53.9583 18.9583 53.9583H16.0417C14.4317 53.9583 13.125 55.8871 13.125 58.2652H17.0139C17.0139 56.1321 18.0658 54.3744 19.4444 54.0302Z" fill="#FF6600"/>
<path d="M36.9444 54.0302C36.785 53.9913 36.6256 53.9583 36.4583 53.9583H33.5417C31.9317 53.9583 30.625 55.8871 30.625 58.2652H34.5139C34.5139 56.1321 35.5658 54.3744 36.9444 54.0302Z" fill="#FF6600"/>
<path d="M54.4444 54.0302C54.285 53.9913 54.1256 53.9583 53.9583 53.9583H51.0417C49.4317 53.9583 48.125 55.8871 48.125 58.2652H52.0139C52.0139 56.1321 53.0658 54.3744 54.4444 54.0302Z" fill="#FF6600"/>
<path d="M34.1933 27.2767L34.7688 23.6756L30.6233 19.46L36.3302 18.5694L36.9388 17.2628L34.9769 13.125L32.4413 18.5694L26.7344 19.46L30.8799 23.6756L29.9252 29.6528L34.1933 27.2767Z" fill="#FF6600"/>
<path d="M38.9133 26.8159L36.9844 27.8893L40.1422 29.6179L39.7494 27.2729L38.9133 26.8159Z" fill="#FF6600"/>
<path d="M53.9596 41.3194H51.043V37.9167H18.9596V41.3194H16.043V36.4583C16.043 35.6533 16.6963 35 17.5013 35H52.5013C53.3063 35 53.9596 35.6533 53.9596 36.4583V41.3194Z" fill="black"/>
<path d="M33.543 27.2222H36.4596V41.3194H33.543V27.2222Z" fill="black"/>
<path d="M17.4987 50.5555C15.8906 50.5555 14.582 49.2469 14.582 47.6388C14.582 46.0308 15.8906 44.7222 17.4987 44.7222C19.1068 44.7222 20.4154 46.0308 20.4154 47.6388C20.4154 49.2469 19.1068 50.5555 17.4987 50.5555ZM17.4987 47.6369V47.6408L18.957 47.6388L17.4987 47.6369Z" fill="black"/>
<path d="M23.3346 58.3333H20.418V56.875C20.418 56.0719 19.7627 55.4167 18.9596 55.4167H16.043C15.2399 55.4167 14.5846 56.0719 14.5846 56.875V58.3333H11.668V56.875C11.668 54.4639 13.6319 52.5 16.043 52.5H18.9596C21.3707 52.5 23.3346 54.4639 23.3346 56.875V58.3333Z" fill="black"/>
<path d="M34.9987 50.5555C33.3906 50.5555 32.082 49.2469 32.082 47.6388C32.082 46.0308 33.3906 44.7222 34.9987 44.7222C36.6068 44.7222 37.9154 46.0308 37.9154 47.6388C37.9154 49.2469 36.6068 50.5555 34.9987 50.5555ZM34.9987 47.6369V47.6408L36.457 47.6388L34.9987 47.6369Z" fill="black"/>
<path d="M40.8346 58.3333H37.918V56.875C37.918 56.0719 37.2627 55.4167 36.4596 55.4167H33.543C32.7399 55.4167 32.0846 56.0719 32.0846 56.875V58.3333H29.168V56.875C29.168 54.4639 31.1319 52.5 33.543 52.5H36.4596C38.8707 52.5 40.8346 54.4639 40.8346 56.875V58.3333Z" fill="black"/>
<path d="M52.4987 50.5555C50.8906 50.5555 49.582 49.2469 49.582 47.6388C49.582 46.0308 50.8906 44.7222 52.4987 44.7222C54.1068 44.7222 55.4154 46.0308 55.4154 47.6388C55.4154 49.2469 54.1068 50.5555 52.4987 50.5555ZM52.4987 47.6369V47.6408L53.957 47.6388L52.4987 47.6369Z" fill="black"/>
<path d="M58.3346 58.3333H55.418V56.875C55.418 56.0719 54.7627 55.4167 53.9596 55.4167H51.043C50.2399 55.4167 49.5846 56.0719 49.5846 56.875V58.3333H46.668V56.875C46.668 54.4639 48.6319 52.5 51.043 52.5H53.9596C56.3707 52.5 58.3346 54.4639 58.3346 56.875V58.3333Z" fill="black"/>
<path d="M29.9286 31.1112C29.635 31.1112 29.3414 31.0217 29.0925 30.8467C28.6356 30.5279 28.4003 29.9737 28.4878 29.4234L29.3259 24.1734L25.6975 20.4848C25.3145 20.094 25.1784 19.5223 25.3514 19.0031C25.5225 18.482 25.9698 18.1048 26.5123 18.0192L31.4511 17.2492L33.6581 12.5106C33.8953 11.9973 34.4086 11.6687 34.9725 11.6667H34.9784C35.5423 11.6667 36.0556 11.9915 36.2967 12.5009L37.2184 14.4454L35.622 15.2037L33.767 19.1859C33.5628 19.6273 33.1506 19.9365 32.6703 20.0123L29.7711 20.4634L31.9236 22.6529C32.2503 22.9834 32.3981 23.4481 32.3242 23.907L31.8439 26.9209L34.3153 25.5442C34.7567 25.2992 35.2856 25.2973 35.727 25.5384L38.212 26.8995L37.7084 23.8895C37.6325 23.4345 37.7784 22.9659 38.1011 22.6334L40.24 20.4265L37.337 19.9948C36.8567 19.9229 36.4425 19.6156 36.2345 19.1762L35.3536 17.3173L37.9884 16.067L38.5348 17.224L43.4795 17.959C44.02 18.0406 44.4711 18.4159 44.6461 18.9351C44.8231 19.4523 44.6928 20.0259 44.3117 20.4187L40.7067 24.1345L41.5817 29.3787C41.6731 29.929 41.4417 30.4831 40.9867 30.8059C40.5298 31.1287 39.927 31.1656 39.4409 30.8973L35.0289 28.4804L30.6364 30.9265C30.4167 31.0509 30.1717 31.1112 29.9286 31.1112Z" fill="black"/>
</svg>
