<svg width="70" height="70" viewBox="0 0 70 70" fill="none" xmlns="http://www.w3.org/2000/svg">
<path d="M22.4243 67.6704C35.3451 63.9391 46.1524 68.071 52.3785 66.2724C58.6046 64.4738 70.6485 57.118 62.3768 28.4724C54.1051 -0.173156 35.3024 0.705734 28.4521 2.68323C-3.61763 11.9446 -0.459855 74.2796 22.4243 67.6704Z" fill="#EFEFEF"/>
<path d="M17.4414 12.4634L20.1913 9.71352L21.5662 11.0884L18.8163 13.8383L17.4414 12.4634Z" fill="#A4AFC1"/>
<path d="M9.53516 20.3667L12.285 17.6168L13.6599 18.9918L10.9101 21.7416L9.53516 20.3667Z" fill="#A4AFC1"/>
<path d="M9.53516 10.7437L10.9101 9.36872L13.6599 12.1186L12.285 13.4935L9.53516 10.7437Z" fill="#A4AFC1"/>
<path d="M58.819 64.5011C57.211 64.5011 55.9023 63.1924 55.9023 61.5844C55.9023 59.9763 57.211 58.6677 58.819 58.6677C60.4271 58.6677 61.7357 59.9763 61.7357 61.5844C61.7357 63.1924 60.4271 64.5011 58.819 64.5011ZM58.819 60.6122C58.2843 60.6122 57.8468 61.0497 57.8468 61.5844C57.8468 62.1191 58.2843 62.5566 58.819 62.5566C59.3537 62.5566 59.7912 62.1191 59.7912 61.5844C59.7912 61.0497 59.3537 60.6122 58.819 60.6122Z" fill="#A4AFC1"/>
<path d="M35.0009 17.9861C36.3432 17.9861 37.4314 16.8979 37.4314 15.5556C37.4314 14.2132 36.3432 13.125 35.0009 13.125C33.6585 13.125 32.5703 14.2132 32.5703 15.5556C32.5703 16.8979 33.6585 17.9861 35.0009 17.9861Z" fill="#F3F3F1"/>
<path d="M48.7509 23.6814C50.0932 23.6814 51.1814 22.5932 51.1814 21.2509C51.1814 19.9085 50.0932 18.8203 48.7509 18.8203C47.4085 18.8203 46.3203 19.9085 46.3203 21.2509C46.3203 22.5932 47.4085 23.6814 48.7509 23.6814Z" fill="#F3F3F1"/>
<path d="M54.4462 37.4304C55.7885 37.4304 56.8767 36.3423 56.8767 34.9999C56.8767 33.6575 55.7885 32.5693 54.4462 32.5693C53.1038 32.5693 52.0156 33.6575 52.0156 34.9999C52.0156 36.3423 53.1038 37.4304 54.4462 37.4304Z" fill="#F3F3F1"/>
<path d="M48.7509 51.1797C50.0932 51.1797 51.1814 50.0915 51.1814 48.7492C51.1814 47.4068 50.0932 46.3186 48.7509 46.3186C47.4085 46.3186 46.3203 47.4068 46.3203 48.7492C46.3203 50.0915 47.4085 51.1797 48.7509 51.1797Z" fill="#F3F3F1"/>
<path d="M35.0009 56.875C36.3432 56.875 37.4314 55.7868 37.4314 54.4445C37.4314 53.1021 36.3432 52.0139 35.0009 52.0139C33.6585 52.0139 32.5703 53.1021 32.5703 54.4445C32.5703 55.7868 33.6585 56.875 35.0009 56.875Z" fill="#F3F3F1"/>
<path d="M21.2509 51.1797C22.5932 51.1797 23.6814 50.0915 23.6814 48.7492C23.6814 47.4068 22.5932 46.3186 21.2509 46.3186C19.9085 46.3186 18.8203 47.4068 18.8203 48.7492C18.8203 50.0915 19.9085 51.1797 21.2509 51.1797Z" fill="#F3F3F1"/>
<path d="M15.5556 37.4304C16.8979 37.4304 17.9861 36.3423 17.9861 34.9999C17.9861 33.6575 16.8979 32.5693 15.5556 32.5693C14.2132 32.5693 13.125 33.6575 13.125 34.9999C13.125 36.3423 14.2132 37.4304 15.5556 37.4304Z" fill="#F3F3F1"/>
<path d="M21.2509 23.6814C22.5932 23.6814 23.6814 22.5932 23.6814 21.2509C23.6814 19.9085 22.5932 18.8203 21.2509 18.8203C19.9085 18.8203 18.8203 19.9085 18.8203 21.2509C18.8203 22.5932 19.9085 23.6814 21.2509 23.6814Z" fill="#F3F3F1"/>
<path d="M35.0235 40.4269L29.9252 43.2639L30.8799 37.2866L26.7344 33.0711L32.4413 32.1805L34.9769 26.7361L37.5494 32.163L43.2622 33.0147L39.1438 37.2594L40.1413 43.2289L35.0235 40.4269Z" fill="#FEB46D"/>
<path d="M34.1933 40.8878L34.7688 37.2866L30.6233 33.0711L36.3302 32.1805L36.9388 30.8739L34.9769 26.7361L32.4413 32.1805L26.7344 33.0711L30.8799 37.2866L29.9252 43.2639L34.1933 40.8878Z" fill="#FF6600"/>
<path d="M34.9983 19.4445C32.8535 19.4445 31.1094 17.7004 31.1094 15.5556C31.1094 13.4109 32.8535 11.6667 34.9983 11.6667C37.143 11.6667 38.8872 13.4109 38.8872 15.5556C38.8872 17.7004 37.143 19.4445 34.9983 19.4445ZM34.9983 14.5834C34.4635 14.5834 34.026 15.0209 34.026 15.5556C34.026 16.0904 34.4635 16.5279 34.9983 16.5279C35.533 16.5279 35.9705 16.0904 35.9705 15.5556C35.9705 15.0209 35.533 14.5834 34.9983 14.5834Z" fill="black"/>
<path d="M33.543 18.4722H36.4596V21.2527H33.543V18.4722Z" fill="black"/>
<path d="M48.7502 25.1377C47.7547 25.1377 46.7591 24.7585 46.0008 24.0002C44.4841 22.4854 44.4841 20.016 46.0008 18.5013C47.5155 16.9866 49.985 16.9866 51.4997 18.5013C53.0163 20.016 53.0163 22.4854 51.4997 24.0002C50.7433 24.7566 49.7458 25.1377 48.7502 25.1377ZM48.7502 20.2785C48.5013 20.2785 48.2524 20.3738 48.0619 20.5624C47.6827 20.9416 47.6827 21.5579 48.0619 21.9371C48.4411 22.3163 49.0574 22.3163 49.4366 21.9371C49.8158 21.5579 49.8158 20.9416 49.4366 20.5624C49.248 20.3738 48.9991 20.2785 48.7502 20.2785Z" fill="black"/>
<path d="M40.8438 27.0867L45.6464 22.284L47.7088 24.3464L42.9061 29.1491L40.8438 27.0867Z" fill="black"/>
<path d="M54.4436 38.8889C52.2989 38.8889 50.5547 37.1447 50.5547 35C50.5547 32.8553 52.2989 31.1111 54.4436 31.1111C56.5883 31.1111 58.3325 32.8553 58.3325 35C58.3325 37.1447 56.5883 38.8889 54.4436 38.8889ZM54.4436 34.0278C53.9089 34.0278 53.4714 34.4653 53.4714 35C53.4714 35.5347 53.9089 35.9722 54.4436 35.9722C54.9783 35.9722 55.4158 35.5347 55.4158 35C55.4158 34.4653 54.9783 34.0278 54.4436 34.0278Z" fill="black"/>
<path d="M47.6211 33.5417H51.5294V36.4584H47.6211V33.5417Z" fill="black"/>
<path d="M48.7502 52.6362C47.7547 52.6362 46.7591 52.257 46.0008 51.4987C44.4841 49.984 44.4841 47.5145 46.0008 45.9998C47.5155 44.4851 49.985 44.4851 51.4997 45.9998C53.0163 47.5145 53.0163 49.984 51.4997 51.4987C50.7433 52.257 49.7458 52.6362 48.7502 52.6362ZM48.7502 47.777C48.5013 47.777 48.2524 47.8723 48.0619 48.0609C47.6827 48.4401 47.6827 49.0565 48.0619 49.4356C48.4411 49.8148 49.0574 49.8148 49.4366 49.4356C49.8158 49.0565 49.8158 48.4401 49.4366 48.0609C49.248 47.8723 48.9991 47.777 48.7502 47.777Z" fill="black"/>
<path d="M43.9727 46.0452L46.0351 43.9828L47.7056 45.6533L45.6432 47.7157L43.9727 46.0452Z" fill="black"/>
<path d="M34.9983 58.3334C32.8535 58.3334 31.1094 56.5893 31.1094 54.4446C31.1094 52.2998 32.8535 50.5557 34.9983 50.5557C37.143 50.5557 38.8872 52.2998 38.8872 54.4446C38.8872 56.5893 37.143 58.3334 34.9983 58.3334ZM34.9983 53.4723C34.4635 53.4723 34.026 53.9098 34.026 54.4446C34.026 54.9793 34.4635 55.4168 34.9983 55.4168C35.533 55.4168 35.9705 54.9793 35.9705 54.4446C35.9705 53.9098 35.533 53.4723 34.9983 53.4723Z" fill="black"/>
<path d="M33.543 45.6943H36.4596V51.5277H33.543V45.6943Z" fill="black"/>
<path d="M21.2502 52.6362C20.2547 52.6362 19.2591 52.257 18.5008 51.4987C16.9841 49.984 16.9841 47.5145 18.5008 45.9998C20.0155 44.4851 22.4849 44.4851 23.9997 45.9998C25.5163 47.5145 25.5163 49.984 23.9997 51.4987C23.2413 52.257 22.2438 52.6362 21.2502 52.6362ZM21.2502 47.777C21.0013 47.777 20.7524 47.8723 20.5619 48.0609C20.1827 48.4401 20.1827 49.0565 20.5619 49.4356C20.9411 49.8148 21.5574 49.8148 21.9366 49.4356C22.3158 49.0565 22.3158 48.4401 21.9366 48.0609C21.748 47.8723 21.4991 47.777 21.2502 47.777Z" fill="black"/>
<path d="M22.2773 45.6519L24.0469 43.8823L26.1093 45.9447L24.3397 47.7143L22.2773 45.6519Z" fill="black"/>
<path d="M15.5569 38.8889C13.4121 38.8889 11.668 37.1447 11.668 35C11.668 32.8553 13.4121 31.1111 15.5569 31.1111C17.7016 31.1111 19.4457 32.8553 19.4457 35C19.4457 37.1447 17.7016 38.8889 15.5569 38.8889ZM15.5569 34.0278C15.0221 34.0278 14.5846 34.4653 14.5846 35C14.5846 35.5347 15.0221 35.9722 15.5569 35.9722C16.0916 35.9722 16.5291 35.5347 16.5291 35C16.5291 34.4653 16.0916 34.0278 15.5569 34.0278Z" fill="black"/>
<path d="M18.4727 33.5417H22.3227V36.4584H18.4727V33.5417Z" fill="black"/>
<path d="M21.2502 25.1377C20.2547 25.1377 19.2591 24.7585 18.5008 24.0002C16.9841 22.4854 16.9841 20.016 18.5008 18.5013C20.0155 16.9866 22.4849 16.9866 23.9997 18.5013C25.5163 20.016 25.5163 22.4854 23.9997 24.0002C23.2413 24.7566 22.2438 25.1377 21.2502 25.1377ZM21.2502 20.2785C21.0013 20.2785 20.7524 20.3738 20.5619 20.5624C20.1827 20.9416 20.1827 21.5579 20.5619 21.9371C20.9411 22.3163 21.5574 22.3163 21.9366 21.9371C22.3158 21.5579 22.3158 20.9416 21.9366 20.5624C21.748 20.3738 21.4991 20.2785 21.2502 20.2785Z" fill="black"/>
<path d="M22.2773 24.345L24.3397 22.2826L29.1822 27.1251L27.1198 29.1875L22.2773 24.345Z" fill="black"/>
<path d="M29.9286 44.7223C29.635 44.7223 29.3414 44.6328 29.0925 44.4578C28.6356 44.1389 28.4003 43.5848 28.4878 43.0345L29.3259 37.7845L25.6975 34.0959C25.3145 33.7051 25.1784 33.1334 25.3514 32.6142C25.5225 32.0931 25.9698 31.7159 26.5123 31.6303L31.4511 30.8603L33.6581 26.1217C33.8953 25.6084 34.4106 25.2798 34.9745 25.2778H34.9803C35.5442 25.2778 36.0575 25.6026 36.2986 26.112L38.5367 30.837L43.4795 31.572C44.02 31.6537 44.4711 32.0289 44.6461 32.5481C44.8231 33.0653 44.6928 33.6389 44.3117 34.0317L40.7067 37.7476L41.5817 42.9917C41.6731 43.542 41.4417 44.0962 40.9867 44.4189C40.5298 44.7437 39.927 44.7767 39.4409 44.5103L35.0289 42.0934L30.6364 44.5395C30.4167 44.662 30.1717 44.7223 29.9286 44.7223ZM29.7692 34.0726L31.9217 36.262C32.2484 36.5926 32.3961 37.0573 32.3223 37.5162L31.842 40.5301L34.3134 39.1534C34.7548 38.9084 35.2836 38.9064 35.725 39.1476L38.21 40.5087L37.7064 37.4987C37.6306 37.0437 37.7764 36.5751 38.0992 36.2426L40.2381 34.0356L37.335 33.6039C36.8548 33.532 36.4406 33.2248 36.2325 32.7853L34.99 30.1623L33.765 32.7931C33.5609 33.2345 33.1486 33.5437 32.6684 33.6195L29.7692 34.0726Z" fill="black"/>
</svg>
