<svg width="70" height="70" viewBox="0 0 70 70" fill="none" xmlns="http://www.w3.org/2000/svg">
<path d="M15.7773 10.819C12.2676 23.802 3.13068 30.8992 1.43901 37.1565C-0.252654 43.4137 -0.207933 57.5245 28.5737 65.3062C57.3554 73.0879 66.3582 56.5542 68.2171 49.6709C76.9301 17.4476 21.9937 -12.176 15.7773 10.819Z" fill="#EFEFEF"/>
<path d="M20.4164 18.4722V45.6944H16.5276C14.3887 45.6944 12.6387 43.9444 12.6387 41.8055V22.3611C12.6387 20.2222 14.3887 18.4722 16.5276 18.4722H20.4164Z" fill="#FEB46D"/>
<path d="M53.4731 22.3611V41.8055C53.4731 43.9444 51.7231 45.6944 49.5842 45.6944H45.6953V18.4722H49.5842C51.7231 18.4722 53.4731 20.2222 53.4731 22.3611Z" fill="#FEB46D"/>
<path d="M20.416 18.4722H45.6938V45.6944H20.416V18.4722Z" fill="white"/>
<path d="M28.1944 24.3057L26.25 30.139L34.0278 28.1946L28.1944 24.3057Z" fill="#FEB46D"/>
<path d="M20.416 18.4722H24.3049V45.6944H20.416V18.4722Z" fill="#D5DBE1"/>
<path d="M20.4164 45.6944H16.5276C14.3887 45.6944 12.6387 43.9444 12.6387 41.8055V22.3611C12.6387 20.2222 14.3887 18.4722 16.5276 18.4722H20.4164C18.2776 18.4722 16.5276 20.2222 16.5276 22.3611V41.8055C16.5276 43.9444 18.2776 45.6944 20.4164 45.6944Z" fill="#FF6600"/>
<path d="M45.6934 18.4722H49.5822V32.0833H45.6934V18.4722Z" fill="#FF6600"/>
<path d="M30.138 47.1528H16.5269C13.5772 47.1528 11.1797 44.7553 11.1797 41.8056V22.3611C11.1797 19.4114 13.5772 17.0139 16.5269 17.0139H49.5825C52.5322 17.0139 54.9297 19.4114 54.9297 22.3611V28.1945H52.013V22.3611C52.013 21.0214 50.9222 19.9306 49.5825 19.9306H16.5269C15.1872 19.9306 14.0964 21.0214 14.0964 22.3611V41.8056C14.0964 43.1453 15.1872 44.2361 16.5269 44.2361H30.138V47.1528Z" fill="black"/>
<path d="M41.3188 18.4723H38.4021V14.5834C38.4021 14.3151 38.1844 14.0973 37.916 14.0973H28.1938C27.9255 14.0973 27.7077 14.3151 27.7077 14.5834V18.4723H24.791V14.5834C24.791 12.7071 26.3174 11.1807 28.1938 11.1807H37.916C39.7924 11.1807 41.3188 12.7071 41.3188 14.5834V18.4723Z" fill="black"/>
<path d="M18.959 18.4722H21.8757V45.6944H18.959V18.4722Z" fill="black"/>
<path d="M44.2363 18.4722H47.153V25.2777H44.2363V18.4722Z" fill="black"/>
<path d="M26.2499 31.5973C25.8493 31.5973 25.4604 31.432 25.1804 31.1306C24.8168 30.7398 24.6982 30.1836 24.8654 29.6781L26.8099 23.8447C26.9538 23.4131 27.2902 23.0748 27.7218 22.927C28.1496 22.7773 28.6241 22.8395 29.0032 23.0923L34.8366 26.9811C35.3168 27.302 35.5638 27.8756 35.4646 28.4434C35.3654 29.0131 34.9396 29.4681 34.3796 29.61L26.6018 31.5545C26.4871 31.5836 26.3685 31.5973 26.2499 31.5973ZM28.9741 26.5786L28.4724 28.0798L30.4732 27.5781L28.9741 26.5786Z" fill="black"/>
<path d="M52.5007 12.5806C50.8926 12.5806 49.584 11.272 49.584 9.66398C49.584 8.05593 50.8926 6.74731 52.5007 6.74731C54.1087 6.74731 55.4173 8.05593 55.4173 9.66398C55.4173 11.272 54.1087 12.5806 52.5007 12.5806ZM52.5007 8.69176C51.9659 8.69176 51.5284 9.12926 51.5284 9.66398C51.5284 10.1987 51.9659 10.6362 52.5007 10.6362C53.0354 10.6362 53.4729 10.1987 53.4729 9.66398C53.4729 9.12926 53.0354 8.69176 52.5007 8.69176Z" fill="#A4AFC1"/>
<path d="M37 38H54V52H37V38Z" fill="white"/>
<path d="M56.104 39.9373H50.1458C49.5478 39.9373 49.0625 39.452 49.0625 38.854V32.8958C49.0625 32.2978 49.5478 31.8125 50.1458 31.8125H56.104C56.702 31.8125 57.1873 32.2978 57.1873 32.8958V38.854C57.1873 39.452 56.702 39.9373 56.104 39.9373Z" fill="#FEB46D"/>
<path d="M56.104 56.1871H50.1458C49.5478 56.1871 49.0625 55.7018 49.0625 55.1038V49.1456C49.0625 48.5476 49.5478 48.0623 50.1458 48.0623H56.104C56.702 48.0623 57.1873 48.5476 57.1873 49.1456V55.1038C57.1873 55.7018 56.702 56.1871 56.104 56.1871Z" fill="#FEB46D"/>
<path d="M51.5 38.854V32.8958C51.5 32.2978 51.9853 31.8125 52.5833 31.8125H50.1458C49.5478 31.8125 49.0625 32.2978 49.0625 32.8958V38.854C49.0625 39.452 49.5478 39.9373 50.1458 39.9373H52.5833C51.9853 39.9373 51.5 39.452 51.5 38.854Z" fill="#FF6600"/>
<path d="M51.5 55.1038V49.1456C51.5 48.5476 51.9853 48.0623 52.5833 48.0623H50.1458C49.5478 48.0623 49.0625 48.5476 49.0625 49.1456V55.1038C49.0625 55.7018 49.5478 56.1871 50.1458 56.1871H52.5833C51.9853 56.1871 51.5 55.7018 51.5 55.1038Z" fill="#FF6600"/>
<path d="M39.854 40.7498H33.8958C32.8504 40.7498 32 39.8994 32 38.854V32.8958C32 31.8504 32.8504 31 33.8958 31H39.854C40.8994 31 41.7498 31.8504 41.7498 32.8958V38.854C41.7498 39.8994 40.8994 40.7498 39.854 40.7498ZM33.8958 32.625C33.7463 32.625 33.625 32.7463 33.625 32.8958V38.854C33.625 39.0035 33.7463 39.1248 33.8958 39.1248H39.854C40.0035 39.1248 40.1248 39.0035 40.1248 38.854V32.8958C40.1248 32.7463 40.0035 32.625 39.854 32.625H33.8958Z" fill="black"/>
<path d="M56.1021 40.7498H50.1438C49.0984 40.7498 48.248 39.8994 48.248 38.854V32.8958C48.248 31.8504 49.0984 31 50.1438 31H56.1021C57.1475 31 57.9979 31.8504 57.9979 32.8958V38.854C57.9979 39.8994 57.1475 40.7498 56.1021 40.7498ZM50.1438 32.625C49.9943 32.625 49.873 32.7463 49.873 32.8958V38.854C49.873 39.0035 49.9943 39.1248 50.1438 39.1248H56.1021C56.2516 39.1248 56.3729 39.0035 56.3729 38.854V32.8958C56.3729 32.7463 56.2516 32.625 56.1021 32.625H50.1438Z" fill="black"/>
<path d="M39.854 56.9996H33.8958C32.8504 56.9996 32 56.1492 32 55.1038V49.1456C32 48.1002 32.8504 47.2498 33.8958 47.2498H39.854C40.8994 47.2498 41.7498 48.1002 41.7498 49.1456V55.1038C41.7498 56.1492 40.8994 56.9996 39.854 56.9996ZM33.8958 48.8747C33.7463 48.8747 33.625 48.9961 33.625 49.1456V55.1038C33.625 55.2533 33.7463 55.3746 33.8958 55.3746H39.854C40.0035 55.3746 40.1248 55.2533 40.1248 55.1038V49.1456C40.1248 48.9961 40.0035 48.8747 39.854 48.8747H33.8958Z" fill="black"/>
<path d="M56.1021 56.9998H50.1438C49.0984 56.9998 48.248 56.1494 48.248 55.104V49.1458C48.248 48.1004 49.0984 47.25 50.1438 47.25H56.1021C57.1475 47.25 57.9979 48.1004 57.9979 49.1458V55.104C57.9979 56.1494 57.1475 56.9998 56.1021 56.9998ZM50.1438 48.875C49.9943 48.875 49.873 48.9963 49.873 49.1458V55.104C49.873 55.2535 49.9943 55.3748 50.1438 55.3748H56.1021C56.2516 55.3748 56.3729 55.2535 56.3729 55.104V49.1458C56.3729 48.9963 56.2516 48.875 56.1021 48.875H50.1438Z" fill="black"/>
<path d="M36.875 35.0625H48.7914V38H36.875V35.0625Z" fill="black"/>
<path d="M41.2109 51.312H53.1274V54H41.2109V51.312Z" fill="black"/>
<path d="M52 37H55V48H52V37Z" fill="black"/>
<path d="M35 40H38V51.9164H35V40Z" fill="black"/>
</svg>
