<svg width="70" height="70" viewBox="0 0 70 70" fill="none" xmlns="http://www.w3.org/2000/svg">
<path d="M8.1004 16.2882C8.1004 29.7373 1.13281 38.9734 1.13281 45.4549C1.13281 51.9364 4.85966 65.5475 34.6745 65.5475C64.4893 65.5475 68.8643 47.2373 68.8643 40.1077C68.8643 6.72806 8.1004 -7.5312 8.1004 16.2882Z" fill="#EFEFEF"/>
<path d="M59.3073 24.8582C57.6989 24.8582 56.3906 23.5499 56.3906 21.9416C56.3906 20.3332 57.6989 19.0249 59.3073 19.0249C60.9156 19.0249 62.224 20.3332 62.224 21.9416C62.224 23.5499 60.9156 24.8582 59.3073 24.8582ZM59.3073 20.9693C58.7709 20.9693 58.3351 21.4061 58.3351 21.9416C58.3351 22.4771 58.7709 22.9138 59.3073 22.9138C59.8437 22.9138 60.2795 22.4771 60.2795 21.9416C60.2795 21.4061 59.8437 20.9693 59.3073 20.9693Z" fill="#A4AFC1"/>
<path d="M47.528 37.6674C46.8002 38.3952 46.7979 39.5727 47.5227 40.2975L45.7728 38.5476C45.048 37.8228 43.8705 37.8251 43.1428 38.5528C42.4151 39.2805 42.4127 40.4581 43.1376 41.1829L42.2626 40.3079C41.5378 39.5831 40.3603 39.5854 39.6326 40.3132C38.9048 41.0409 38.9025 42.2184 39.6273 42.9432L34.3776 37.6935C33.6514 36.9673 32.4767 36.9696 31.7476 37.6987C31.0185 38.4279 31.0161 39.6026 31.7424 40.3288L41.8043 50.3907C41.8043 50.3907 37.7591 49.1862 35.6657 51.2796C34.3481 52.5972 34.3775 53.505 34.7838 53.9114C35.8885 55.0161 36.75 53.2576 41.7919 55.6489C46.8338 58.0403 50.083 57.8262 52.3141 55.63L54.5101 53.4339C54.4939 53.4501 54.5265 53.4178 54.5101 53.4339C57.636 50.3081 58.547 46.0512 55.4238 42.928C55.4185 42.9227 55.4131 42.9173 55.4077 42.9119L50.158 37.6622C49.4332 36.9374 48.2557 36.9397 47.528 37.6674Z" fill="#FEB46D"/>
<path d="M45.6931 50.3908L35.6312 40.3289C35.1357 39.8333 35.0064 39.1338 35.1887 38.5046L34.3776 37.6936C33.6514 36.9673 32.4767 36.9696 31.7476 37.6988C31.0185 38.4279 31.0161 39.6025 31.7423 40.3289L41.63 50.2165C43.589 49.7798 45.6931 50.3908 45.6931 50.3908Z" fill="#FF6600"/>
<path d="M45.6832 55.649C40.6413 53.2576 39.7798 55.0161 38.675 53.9114C38.2688 53.5051 38.2393 52.5973 39.5569 51.2796C40.0651 50.7714 40.6902 50.4635 41.3426 50.2797C40.2449 50.0386 37.346 49.6017 35.668 51.2796C34.3504 52.5973 34.3799 53.5051 34.7861 53.9114C35.8909 55.0161 36.7524 53.2576 41.7943 55.649C45.1999 57.2642 47.7733 57.6661 49.7819 57.0959C48.5603 56.8327 47.2132 56.3747 45.6832 55.649Z" fill="#FF6600"/>
<path d="M27.2231 34.9999C22.9345 34.9999 19.4453 31.5117 19.4453 27.2221C19.4453 22.9326 22.9345 19.4443 27.2231 19.4443C31.5117 19.4443 35.0009 22.9326 35.0009 27.2221C35.0009 31.5117 31.5117 34.9999 27.2231 34.9999ZM27.2231 21.3888C24.0064 21.3888 21.3898 24.0054 21.3898 27.2221C21.3898 30.4388 24.0064 33.0554 27.2231 33.0554C30.4398 33.0554 33.0564 30.4388 33.0564 27.2221C33.0564 24.0054 30.4398 21.3888 27.2231 21.3888Z" fill="black"/>
<path d="M47.982 58.3221C46.0888 58.3221 43.8956 57.7239 41.3748 56.5276C38.5617 55.1946 37.2097 55.2402 36.3125 55.2839C35.5899 55.3066 34.8389 55.3408 34.0965 54.5984C33.8354 54.3382 32.6514 52.9179 34.9785 50.5917C36.1387 49.4315 37.7319 49.0973 39.1152 49.0764L31.0545 41.0157C30.519 40.4822 30.2247 39.7701 30.2266 39.0124C30.2285 38.2567 30.5247 37.5465 31.0602 37.011C31.5957 36.4755 32.3068 36.1793 33.0625 36.1774H33.0663C33.8211 36.1774 34.5313 36.4717 35.0658 37.0072L38.4145 40.3568C38.5493 40.0891 38.7278 39.8422 38.9452 39.6258C39.7124 38.8567 40.8166 38.6194 41.7879 38.9213C41.9246 38.5358 42.1467 38.1731 42.4553 37.8655C43.5101 36.8078 45.1982 36.7604 46.3081 37.7193C46.441 37.4516 46.6186 37.2028 46.8407 36.9806C47.9478 35.8736 49.7422 35.8717 50.8455 36.9749L56.0949 42.2253C59.3913 45.5199 59.0239 50.2955 55.1977 54.1217C55.1901 54.1293 55.1815 54.1369 55.173 54.1464L53.0016 56.3168C51.6439 57.6536 49.9805 58.3221 47.982 58.3221ZM36.8375 53.3261C37.8999 53.3261 39.531 53.5008 42.2085 54.7693C48.0114 57.5245 50.366 56.1858 51.6326 54.9364L53.8229 52.747C53.8295 52.7394 53.8362 52.7337 53.8428 52.728C56.1604 50.3829 57.7498 46.6288 54.7363 43.6153L49.4707 38.3497C49.127 38.006 48.563 38.0098 48.2155 38.3554C47.869 38.701 47.8661 39.2631 48.207 39.6087L48.2098 39.6106L49.522 40.9227C49.7118 41.1126 49.8068 41.3613 49.8068 41.6101C49.8068 41.8588 49.7118 42.1076 49.522 42.2975C49.1422 42.6772 48.5269 42.6772 48.1472 42.2975L45.0852 39.2346C44.7406 38.8909 44.1766 38.8909 43.8301 39.2403C43.4826 39.5878 43.4807 40.1499 43.8253 40.4954L46.0119 42.6829C46.2018 42.8728 46.2967 43.1216 46.2967 43.3703C46.2967 43.6191 46.2018 43.8678 46.0119 44.0577C45.6321 44.4375 45.0169 44.4375 44.6371 44.0577L41.5752 40.9948C41.2305 40.6512 40.6685 40.6531 40.32 41.0005C40.1501 41.1695 40.057 41.3955 40.057 41.6329C40.057 41.8683 40.1482 42.0905 40.3143 42.2557L42.5018 44.4432C42.6917 44.6331 42.7867 44.8818 42.7867 45.1306C42.7867 45.3793 42.6917 45.6281 42.5018 45.818C42.1221 46.1978 41.5068 46.1978 41.127 45.818L33.6901 38.382C33.523 38.2149 33.3018 38.1219 33.0663 38.1219C32.829 38.1238 32.6049 38.2168 32.435 38.3858C32.265 38.5548 32.172 38.7789 32.171 39.0162C32.171 39.2517 32.2622 39.4739 32.4293 39.641L42.4914 49.7031C42.8056 50.0164 42.8664 50.5044 42.6395 50.8861C42.4126 51.2658 41.9521 51.4462 41.5287 51.3228C41.4926 51.3114 38.01 50.3145 36.3533 51.9665C35.6004 52.7204 35.4893 53.1837 35.5102 53.2862C35.5937 53.3432 35.6089 53.366 36.2365 53.3394C36.414 53.3337 36.6134 53.3261 36.8375 53.3261Z" fill="black"/>
<path d="M27.2235 42.7776C18.6463 42.7776 11.668 35.7993 11.668 27.2221C11.668 18.6449 18.6463 11.6665 27.2235 11.6665C35.8007 11.6665 42.7791 18.6449 42.7791 27.2221V30.1387C42.7791 32.8199 40.5982 34.9998 37.918 34.9998C35.2377 34.9998 33.0569 32.8199 33.0569 30.1387V20.4165C33.0569 19.8791 33.4917 19.4443 34.0291 19.4443C34.5665 19.4443 35.0013 19.8791 35.0013 20.4165V30.1387C35.0013 31.7471 36.3096 33.0554 37.918 33.0554C39.5263 33.0554 40.8346 31.7471 40.8346 30.1387V27.2221C40.8346 19.7177 34.7288 13.6109 27.2235 13.6109C19.7182 13.6109 13.6124 19.7177 13.6124 27.2221C13.6124 34.7264 19.7182 40.8332 27.2235 40.8332C27.7609 40.8332 28.1957 41.268 28.1957 41.8054C28.1957 42.3428 27.7609 42.7776 27.2235 42.7776Z" fill="black"/>
</svg>
