<svg width="70" height="71" viewBox="0 0 70 71" fill="none" xmlns="http://www.w3.org/2000/svg">
<path d="M53.3128 8.3802C39.8669 8.63103 30.5005 1.83714 24.0216 1.95964C17.5428 2.08214 4.00165 6.06048 4.5597 35.8708C5.11776 65.681 23.5064 69.7119 30.6347 69.5797C64.0072 68.9555 77.1283 7.93492 53.3128 8.3802Z" fill="#EFEFEF"/>
<path d="M24.0234 8.02539L26.7733 5.27553L28.1482 6.65046L25.3984 9.40032L24.0234 8.02539Z" fill="#A4AFC1"/>
<path d="M16.1172 15.9302L18.867 13.1803L20.242 14.5552L17.4921 17.3051L16.1172 15.9302Z" fill="#A4AFC1"/>
<path d="M16.1172 6.30566L17.4921 4.93073L20.242 7.68059L18.867 9.05552L16.1172 6.30566Z" fill="#A4AFC1"/>
<path d="M13.1237 63.9642C11.5156 63.9642 10.207 62.6556 10.207 61.0475C10.207 59.4395 11.5156 58.1309 13.1237 58.1309C14.7318 58.1309 16.0404 59.4395 16.0404 61.0475C16.0404 62.6556 14.7318 63.9642 13.1237 63.9642ZM13.1237 60.0753C12.587 60.0753 12.1515 60.5109 12.1515 61.0475C12.1515 61.5842 12.587 62.0197 13.1237 62.0197C13.6604 62.0197 14.0959 61.5842 14.0959 61.0475C14.0959 60.5109 13.6604 60.0753 13.1237 60.0753Z" fill="#A4AFC1"/>
<path d="M47.6406 28.9639L51.0434 32.3666L54.4462 28.9639H47.6406Z" fill="#FEB46D"/>
<path d="M22.3602 42.5751L18.9575 39.1724L15.5547 42.5751H22.3602Z" fill="#FEB46D"/>
<path d="M13.125 30.4221V29.4499C13.125 27.3013 14.8653 25.561 17.0139 25.561H25.7639C27.9125 25.561 29.6528 27.3013 29.6528 29.4499V30.4221H13.125Z" fill="#FEB46D"/>
<path d="M48.6098 47.9223C50.4891 47.9223 52.0126 46.3988 52.0126 44.5195C52.0126 42.6402 50.4891 41.1167 48.6098 41.1167C46.7305 41.1167 45.207 42.6402 45.207 44.5195C45.207 46.3988 46.7305 47.9223 48.6098 47.9223Z" fill="#F3F3F1"/>
<path d="M40.3477 57.6443V56.6721C40.3477 54.5235 42.0879 52.7832 44.2365 52.7832H52.9865C55.1352 52.7832 56.8754 54.5235 56.8754 56.6721V57.6443H40.3477Z" fill="#FEB46D"/>
<path d="M20.9028 25.561H17.0139C14.8653 25.561 13.125 27.3013 13.125 29.4499V30.4221H17.0139V29.4499C17.0139 27.3013 18.7542 25.561 20.9028 25.561Z" fill="#FF6600"/>
<path d="M48.1254 52.7832H44.2365C42.0879 52.7832 40.3477 54.5235 40.3477 56.6721V57.6443H44.2365V56.6721C44.2365 54.5235 45.9768 52.7832 48.1254 52.7832Z" fill="#FF6600"/>
<path d="M21.3872 20.7001C23.2665 20.7001 24.7899 19.1766 24.7899 17.2973C24.7899 15.418 23.2665 13.8945 21.3872 13.8945C19.5079 13.8945 17.9844 15.418 17.9844 17.2973C17.9844 19.1766 19.5079 20.7001 21.3872 20.7001Z" fill="#F3F3F1"/>
<path d="M21.8733 17.2973C21.8733 16.1423 22.4508 15.1254 23.3316 14.5109C22.7794 14.1259 22.1105 13.8945 21.3872 13.8945C19.5088 13.8945 17.9844 15.419 17.9844 17.2973C17.9844 19.1756 19.5088 20.7001 21.3872 20.7001C22.1105 20.7001 22.7794 20.4706 23.3316 20.0837C22.4508 19.4693 21.8733 18.4523 21.8733 17.2973Z" fill="#D5DBE1"/>
<path d="M49.0959 44.5195C49.0959 43.3645 49.6734 42.3475 50.5543 41.7331C50.002 41.3481 49.3331 41.1167 48.6098 41.1167C46.7315 41.1167 45.207 42.6411 45.207 44.5195C45.207 46.3978 46.7315 47.9223 48.6098 47.9223C49.3331 47.9223 50.002 47.6928 50.5543 47.3059C49.6734 46.6914 49.0959 45.6745 49.0959 44.5195Z" fill="#D5DBE1"/>
<path d="M52.5009 32.3668H49.5842V23.6168C49.5842 22.277 48.4934 21.1862 47.1536 21.1862H32.5703V18.2695H47.1536C50.1034 18.2695 52.5009 20.667 52.5009 23.6168V32.3668Z" fill="black"/>
<path d="M51.042 33.825C50.6687 33.825 50.2953 33.6831 50.0115 33.3973L45.5781 28.9639L47.6412 26.9009L51.044 30.3037L54.4467 26.9009L56.5098 28.9639L52.0765 33.3973C51.7887 33.6831 51.4153 33.825 51.042 33.825Z" fill="black"/>
<path d="M33.5417 53.2696H22.8472C19.8975 53.2696 17.5 50.8721 17.5 47.9224V39.1724H20.4167V47.9224C20.4167 49.2621 21.5075 50.3529 22.8472 50.3529H33.5417V53.2696Z" fill="black"/>
<path d="M22.3608 44.638L18.958 41.2353L15.5552 44.638L13.4922 42.575L17.9255 38.1416C18.4952 37.5719 19.4189 37.5719 19.9886 38.1416L24.4219 42.575L22.3608 44.638Z" fill="black"/>
<path d="M21.3885 22.1583C18.709 22.1583 16.5273 19.9766 16.5273 17.2971C16.5273 14.6177 18.709 12.436 21.3885 12.436C24.0679 12.436 26.2496 14.6177 26.2496 17.2971C26.2496 19.9766 24.0679 22.1583 21.3885 22.1583ZM21.3885 15.3527C20.3171 15.3527 19.444 16.2258 19.444 17.2971C19.444 18.3685 20.3171 19.2416 21.3885 19.2416C22.4598 19.2416 23.3329 18.3685 23.3329 17.2971C23.3329 16.2258 22.4598 15.3527 21.3885 15.3527Z" fill="black"/>
<path d="M31.1124 30.4225H28.1957V29.4502C28.1957 28.1105 27.1049 27.0197 25.7652 27.0197H17.0152C15.6755 27.0197 14.5846 28.1105 14.5846 29.4502V30.4225H11.668V29.4502C11.668 26.5005 14.0655 24.103 17.0152 24.103H25.7652C28.7149 24.103 31.1124 26.5005 31.1124 29.4502V30.4225Z" fill="black"/>
<path d="M48.6111 49.3804C45.9317 49.3804 43.75 47.1988 43.75 44.5193C43.75 41.8399 45.9317 39.6582 48.6111 39.6582C51.2906 39.6582 53.4722 41.8399 53.4722 44.5193C53.4722 47.1988 51.2906 49.3804 48.6111 49.3804ZM48.6111 42.5749C47.5397 42.5749 46.6667 43.4479 46.6667 44.5193C46.6667 45.5907 47.5397 46.4638 48.6111 46.4638C49.6825 46.4638 50.5556 45.5907 50.5556 44.5193C50.5556 43.4479 49.6825 42.5749 48.6111 42.5749Z" fill="black"/>
<path d="M58.3351 57.6446H55.4184V56.6724C55.4184 55.3327 54.3276 54.2419 52.9878 54.2419H44.2378C42.8981 54.2419 41.8073 55.3327 41.8073 56.6724V57.6446H38.8906V56.6724C38.8906 53.7227 41.2881 51.3252 44.2378 51.3252H52.9878C55.9376 51.3252 58.3351 53.7227 58.3351 56.6724V57.6446Z" fill="black"/>
</svg>
