<svg width="70" height="70" viewBox="0 0 70 70" fill="none" xmlns="http://www.w3.org/2000/svg">
<path d="M8.10366 53.7113C8.10366 40.2615 1.13672 31.0254 1.13672 24.5446C1.13672 18.0637 4.86227 4.45264 34.6764 4.45264C64.4906 4.45264 68.8656 22.7635 68.8656 29.8918C68.8676 63.2721 8.10366 77.5307 8.10366 53.7113Z" fill="#EFEFEF"/>
<path d="M28.6819 29.6528C33.2459 29.6528 36.9457 25.9529 36.9457 21.3889C36.9457 16.8249 33.2459 13.125 28.6819 13.125C24.1178 13.125 20.418 16.8249 20.418 21.3889C20.418 25.9529 24.1178 29.6528 28.6819 29.6528Z" fill="#FEB46D"/>
<path d="M24.793 21.3889C24.793 17.5875 27.3752 14.4181 30.8694 13.4556C30.1674 13.2631 29.4441 13.125 28.6819 13.125C24.1182 13.125 20.418 16.8253 20.418 21.3889C20.418 25.9525 24.1182 29.6528 28.6819 29.6528C29.4441 29.6528 30.1674 29.5167 30.8694 29.3222C27.3752 28.3597 24.793 25.1903 24.793 21.3889Z" fill="#FF6600"/>
<path d="M30.1406 33.5356H33.0573V35.4801H30.1406V33.5356Z" fill="black"/>
<path d="M35.9727 35.4805H38.8893V36.9388H35.9727V35.4805Z" fill="black"/>
<path d="M49.0959 37.4249V49.0915C49.0959 53.3887 45.6154 56.8693 41.3181 56.8693H30.5459C25.957 56.8693 18.9765 54.4582 18.957 44.2304C18.957 40.7693 21.6987 37.911 25.1598 37.911H25.7626V21.8693C25.7626 20.2554 27.0654 18.9526 28.6793 18.9526C30.2931 18.9526 31.5959 20.2554 31.5959 21.8693V33.536C31.5959 31.9221 32.8987 30.6193 34.5126 30.6193C36.1265 30.6193 37.4293 31.9221 37.4293 33.536V35.4804C37.4293 33.8665 38.732 32.5637 40.3459 32.5637C41.9598 32.5637 43.2626 33.8665 43.2626 35.4804V37.4249C43.2626 35.811 44.5654 34.5082 46.1793 34.5082C47.7931 34.5082 49.0959 35.811 49.0959 37.4249Z" fill="#F3F3F1"/>
<path d="M41.8024 33.5359V35.4803C41.8024 34.7434 42.0824 34.0803 42.5316 33.567C42.308 33.3103 42.0397 33.0964 41.7383 32.9331C41.7791 33.1256 41.8024 33.3278 41.8024 33.5359Z" fill="#D5DBE1"/>
<path d="M47.6384 35.4802V37.4247C47.6384 36.6877 47.9184 36.0247 48.3676 35.5113C48.1439 35.2547 47.8756 35.0408 47.5742 34.8774C47.6151 35.0699 47.6384 35.2722 47.6384 35.4802Z" fill="#D5DBE1"/>
<path d="M23.332 44.2304C23.332 40.7693 26.0737 37.911 29.5348 37.911H30.1376V21.8693C30.1376 21.1324 30.4176 20.4693 30.8668 19.956C30.332 19.3454 29.5562 18.9526 28.6793 18.9526C27.0654 18.9526 25.7626 20.2554 25.7626 21.8693V37.911H25.1598C21.6987 37.911 18.957 40.7693 18.957 44.2304C18.9765 54.4582 25.957 56.8693 30.5459 56.8693H34.9209C30.332 56.8693 23.3515 54.4582 23.332 44.2304Z" fill="#D5DBE1"/>
<path d="M35.9727 33.5361C35.9727 32.7992 36.2527 32.1361 36.7018 31.6228C36.4938 31.3836 36.2488 31.1834 35.9727 31.022V33.5361Z" fill="#D5DBE1"/>
<path d="M9.65885 28.1947C8.0508 28.1947 6.74219 26.8861 6.74219 25.278C6.74219 23.6699 8.0508 22.3613 9.65885 22.3613C11.2669 22.3613 12.5755 23.6699 12.5755 25.278C12.5755 26.8861 11.2669 28.1947 9.65885 28.1947ZM9.65885 24.3058C9.12413 24.3058 8.68663 24.7433 8.68663 25.278C8.68663 25.8127 9.12413 26.2502 9.65885 26.2502C10.1936 26.2502 10.6311 25.8127 10.6311 25.278C10.6311 24.7433 10.1936 24.3058 9.65885 24.3058Z" fill="#A4AFC1"/>
<path d="M58.2734 10.5249L61.0233 7.77504L62.3982 9.14997L59.6484 11.8998L58.2734 10.5249Z" fill="#A4AFC1"/>
<path d="M50.3672 18.4263L53.117 15.6764L54.492 17.0513L51.7421 19.8012L50.3672 18.4263Z" fill="#A4AFC1"/>
<path d="M50.3672 8.80322L51.7421 7.42829L54.492 10.1782L53.117 11.5531L50.3672 8.80322Z" fill="#A4AFC1"/>
<path d="M58.2734 16.71L59.6484 15.335L62.3982 18.0849L61.0233 19.4598L58.2734 16.71Z" fill="#A4AFC1"/>
<path d="M27.2214 43.2639H24.3047V21.875C24.3047 19.4639 26.2686 17.5 28.6797 17.5C31.0908 17.5 33.0547 19.4639 33.0547 21.875V41.3194H30.138V21.875C30.138 21.0719 29.4827 20.4167 28.6797 20.4167C27.8766 20.4167 27.2214 21.0719 27.2214 21.875V43.2639Z" fill="black"/>
<path d="M38.8906 41.3193H35.974V33.5415C35.974 32.7384 35.3187 32.0832 34.5156 32.0832C33.7126 32.0832 33.0573 32.7384 33.0573 33.5415V35.4859H30.1406V33.5415C30.1406 31.1304 32.1045 29.1665 34.5156 29.1665C36.9267 29.1665 38.8906 31.1304 38.8906 33.5415V41.3193Z" fill="black"/>
<path d="M44.7227 41.3197H41.806V35.4863C41.806 34.6833 41.1507 34.028 40.3477 34.028C39.5446 34.028 38.8893 34.6833 38.8893 35.4863V36.9447H35.9727V35.4863C35.9727 33.0752 37.9365 31.1113 40.3477 31.1113C42.7588 31.1113 44.7227 33.0752 44.7227 35.4863V41.3197Z" fill="black"/>
<path d="M41.3175 58.3334H30.5511C24.2589 58.3334 17.5253 54.6293 17.5 44.2284C17.4942 42.1362 18.2992 40.1723 19.7673 38.7004C21.21 37.2537 23.1273 36.4584 25.1631 36.4584H25.762V39.3751H25.1631C23.907 39.3751 22.7228 39.8671 21.8323 40.7596C20.9145 41.6812 20.4128 42.9082 20.4148 44.2207C20.44 54.6098 28.177 55.4168 30.5492 55.4168H41.3156C44.8 55.4168 47.635 52.5818 47.635 49.0973V37.4307C47.635 36.6276 46.9798 35.9723 46.1767 35.9723C45.3736 35.9723 44.7203 36.6276 44.7203 37.4307V38.889H41.8036V37.4307C41.8036 35.0196 43.7675 33.0557 46.1786 33.0557C48.5898 33.0557 50.5536 35.0196 50.5536 37.4307V49.0973C50.5536 54.1898 46.41 58.3334 41.3175 58.3334Z" fill="black"/>
<path d="M36.2354 27.3991L33.9798 25.5538C34.9656 24.3502 35.4848 22.8783 35.4848 21.2994C35.4848 17.5466 32.432 14.4938 28.6793 14.4938C24.9265 14.4938 21.8737 17.5466 21.8737 21.2994C21.8737 22.8783 22.3948 24.3502 23.3787 25.5538L21.1231 27.3991C19.727 25.6938 18.957 23.5277 18.957 21.2974C18.957 15.9366 23.3184 11.5752 28.6793 11.5752C34.0401 11.5752 38.4015 15.9366 38.4015 21.2974C38.4015 23.5277 37.6315 25.6938 36.2354 27.3991Z" fill="black"/>
</svg>
