<svg width="70" height="70" viewBox="0 0 70 70" fill="none" xmlns="http://www.w3.org/2000/svg">
<path d="M61.8977 53.7113C61.8977 40.2615 68.8646 31.0254 68.8646 24.5446C68.8646 18.0637 65.1391 4.45264 35.3249 4.45264C5.51073 4.45264 1.13379 22.7635 1.13379 29.8918C1.13379 63.2721 61.8977 77.5307 61.8977 53.7113Z" fill="#EFEFEF"/>
<path d="M59.3053 11.6668C57.6973 11.6668 56.3887 10.3582 56.3887 8.75016C56.3887 7.14211 57.6973 5.8335 59.3053 5.8335C60.9134 5.8335 62.222 7.14211 62.222 8.75016C62.222 10.3582 60.9134 11.6668 59.3053 11.6668ZM59.3053 7.77794C58.7687 7.77794 58.3331 8.21544 58.3331 8.75016C58.3331 9.28489 58.7687 9.72239 59.3053 9.72239C59.842 9.72239 60.2776 9.28489 60.2776 8.75016C60.2776 8.21544 59.842 7.77794 59.3053 7.77794Z" fill="#A4AFC1"/>
<path d="M35.0003 43.2638C40.6382 43.2638 45.2087 38.6934 45.2087 33.0555C45.2087 27.4176 40.6382 22.8472 35.0003 22.8472C29.3624 22.8472 24.792 27.4176 24.792 33.0555C24.792 38.6934 29.3624 43.2638 35.0003 43.2638Z" fill="#FEB46D"/>
<path d="M29.167 33.0555C29.167 28.1711 32.6028 24.0974 37.1878 23.0941C36.482 22.9405 35.7528 22.8472 35.0003 22.8472C29.3634 22.8472 24.792 27.4166 24.792 33.0555C24.792 38.6924 29.3634 43.2638 35.0003 43.2638C35.7528 43.2638 36.482 43.1705 37.1878 43.0149C32.6028 42.0136 29.167 37.9399 29.167 33.0555Z" fill="#FF6600"/>
<path d="M34.9997 44.722C28.5655 44.722 23.333 39.4895 23.333 33.0553C23.333 26.6212 28.5655 21.3887 34.9997 21.3887C41.4338 21.3887 46.6663 26.6212 46.6663 33.0553C46.6663 39.4895 41.4338 44.722 34.9997 44.722ZM34.9997 24.3053C30.1755 24.3053 26.2497 28.2312 26.2497 33.0553C26.2497 37.8795 30.1755 41.8053 34.9997 41.8053C39.8238 41.8053 43.7497 37.8795 43.7497 33.0553C43.7497 28.2312 39.8238 24.3053 34.9997 24.3053Z" fill="black"/>
<path d="M33.542 36.4585H36.4587V40.8335H33.542V36.4585Z" fill="black"/>
<path d="M33.542 25.2778H36.4587V29.6528H33.542V25.2778Z" fill="black"/>
<path d="M35.2433 38.8888H31.1113V35.9722H35.2433C35.6458 35.9722 35.9724 35.6455 35.9724 35.243C35.9724 34.8405 35.6458 34.5138 35.2433 34.5138H34.7572C32.7466 34.5138 31.1113 32.8786 31.1113 30.868C31.1113 28.8574 32.7466 27.2222 34.7572 27.2222H38.8891V30.1388H34.7572C34.3547 30.1388 34.028 30.4655 34.028 30.868C34.028 31.2705 34.3547 31.5972 34.7572 31.5972H35.2433C37.2538 31.5972 38.8891 33.2324 38.8891 35.243C38.8891 37.2536 37.2538 38.8888 35.2433 38.8888Z" fill="black"/>
<path d="M35 54.5298V51.6131C45.2083 51.6131 53.515 43.3084 53.515 33.0981H56.4317C56.4317 44.9165 46.8183 54.5298 35 54.5298Z" fill="black"/>
<path d="M52.446 26.9615C49.8716 19.559 42.8618 14.5832 35.0005 14.5832C30.783 14.5832 26.8357 15.9637 23.5866 18.5771L21.7588 16.3059C25.531 13.2707 30.1102 11.6665 35.0005 11.6665C44.1024 11.6665 52.2205 17.4279 55.2013 26.0048L52.446 26.9615Z" fill="black"/>
<path d="M27.8678 53.2933C19.3181 50.2989 13.5723 42.1808 13.5723 33.0944C13.5723 28.7642 14.8517 24.6205 17.2706 21.1069L19.672 22.7636C17.5895 25.7853 16.4889 29.3572 16.4889 33.0944C16.4889 40.9461 21.4492 47.9578 28.8323 50.5419L27.8678 53.2933Z" fill="black"/>
<path d="M37.8525 58.9379L33.0166 54.104C32.7425 53.8298 32.5889 53.4604 32.5889 53.0734C32.5889 52.6865 32.7425 52.3151 33.0166 52.0429L37.8525 47.207L39.9155 49.2701L36.1103 53.0754L39.9155 56.8787L37.8525 58.9379Z" fill="black"/>
<path d="M19.0826 28.2275L17.6068 22.715L12.0943 24.1927L11.3398 21.3752L18.2601 19.5202C18.6335 19.4211 19.0301 19.4736 19.3665 19.6661C19.701 19.8605 19.946 20.1794 20.0471 20.5508L21.9001 27.473L19.0826 28.2275Z" fill="black"/>
<path d="M54.0208 29.0363C53.7739 29.0363 53.523 28.974 53.2916 28.8399L47.0869 25.2582L48.5452 22.7324L53.488 25.5849L56.3405 20.644L58.8664 22.1024L55.2847 28.3052C55.0144 28.7738 54.5244 29.0363 54.0208 29.0363Z" fill="black"/>
</svg>
