<svg xmlns="http://www.w3.org/2000/svg" width="545" height="349" viewBox="0 0 545 349" fill="none">
<path d="M512.862 3.41652H32.1383C16.5469 3.41652 3.41652 14.814 3.41652 29.4471V319.553C3.41652 334.186 16.5469 345.583 32.1383 345.583H512.862C528.453 345.583 541.583 334.186 541.583 319.553V29.4471C541.583 14.814 528.453 3.41652 512.862 3.41652Z" stroke="url(#paint0_linear_5788_28623)" stroke-width="5.16695" stroke-miterlimit="10"/>
<defs>
<linearGradient id="paint0_linear_5788_28623" x1="-49.6866" y1="174.492" x2="553.916" y2="174.492" gradientUnits="userSpaceOnUse">
<stop stop-color="#E9EEF7" stop-opacity="0.14"/>
<stop offset="1" stop-color="#F1F6FF" stop-opacity="0"/>
</linearGradient>
</defs>
<g width="491" height="296" viewBox="0 0 491 296" fill="none" xmlns="http://www.w3.org/2000/svg" transform='translate(25 25)'>
<g clip-path="url(#clip0_5788_29002)">
<rect y="296" width="296" height="491" rx="16.08" transform="rotate(-90 0 296)" fill="url(#paint0_linear_5788_29002)"/>
<path d="M257.415 270.889C316.788 270.889 364.919 222.757 364.919 163.384C364.919 104.011 316.788 55.8794 257.415 55.8794C198.041 55.8794 149.91 104.011 149.91 163.384C149.91 222.757 198.041 270.889 257.415 270.889Z" stroke="url(#paint1_linear_5788_29002)" stroke-width="0.314894" stroke-miterlimit="10"/>
<path d="M446.167 71.6805C421.731 66.976 394.821 64.0821 366.408 64.7214C275.416 66.765 233.472 128.138 178.256 153.578V180.467C257.354 157.795 279.063 131.457 368.464 125.971C393.139 124.457 420.195 125.729 446.167 128.264V71.6774V71.6805Z" fill="#E9F3FF"/>
<path d="M-48.0291 103.428C-48.0291 103.428 9.22808 185.59 109.292 182.765C209.356 179.937 242.136 95.716 366.412 92.9229C479.89 90.3723 569.411 144.15 573.008 144.698L566.524 175.56C562.329 175.724 451.827 149.062 368.471 154.176C275.493 159.882 255.733 188.137 168.486 211.373C109.292 227.137 23.3259 225.569 -47.3646 215.051L-48.0259 103.428H-48.0291Z" fill="url(#paint2_linear_5788_29002)"/>
<path d="M-48.0291 124.003C-48.0291 124.003 9.22808 169.54 109.292 167.975C209.356 166.41 242.136 119.73 366.412 118.181C479.89 116.767 569.411 146.572 573.008 146.874L566.524 163.979C562.329 164.071 451.827 149.293 368.471 152.13C275.493 155.291 255.733 170.954 168.486 183.83C109.292 192.565 23.3259 191.696 -47.3646 185.871L-48.0259 124.007L-48.0291 124.003Z" stroke="white" stroke-width="0.314894" stroke-miterlimit="10"/>
<path d="M413.145 119.318V92.2936C398.169 90.6971 382.531 89.9193 366.409 90.2815C300.615 91.7615 260.466 116.062 222.401 139.027V152.823C222.401 152.823 255.916 131.662 301.015 123.084C359.742 111.915 413.145 119.321 413.145 119.321V119.318Z" fill="url(#paint3_linear_5788_29002)"/>
<path d="M408.719 114.298V87.2741C393.742 85.6776 378.105 84.8998 361.982 85.2619C296.188 86.7419 256.039 111.042 217.975 134.007V147.803C217.975 147.803 251.489 126.642 296.588 118.064C355.316 106.895 408.719 114.301 408.719 114.301V114.298Z" stroke="white" stroke-width="0.314894" stroke-miterlimit="10"/>
<path d="M38.6013 226.035C58.6254 226.662 78.5897 226.451 97.7258 225.248V186.015C75.7115 185.199 55.9457 180.319 38.6013 173.344V226.035Z" fill="url(#paint4_linear_5788_29002)"/>
<path d="M240.022 157.533C240.022 157.533 285.062 133.866 366.122 132.707C447.182 131.548 549.525 157.533 549.525 157.533" stroke="url(#paint5_linear_5788_29002)" stroke-width="2.78996" stroke-miterlimit="10"/>
<path d="M117.413 197.358C11.9335 204.421 -53.8635 175.139 -53.8635 175.139V152.422C-53.8635 152.422 -4.65821 194.398 117.413 191.113V197.358Z" fill="#9FBDFF" fill-opacity="0.8"/>
<path d="M508.618 123.317C505.022 122.772 444.663 97.9964 331.163 99.1332C224.13 100.204 202.872 172.62 102.808 175.448C2.74442 178.272 -48.0291 126.337 -48.0291 126.337" stroke="white" stroke-width="0.314894" stroke-miterlimit="10"/>
<path d="M566.521 166.687C562.326 166.851 430.458 133.85 347.103 138.964C254.124 144.67 254.81 187.659 161.995 204.052C121.872 211.141 32.9269 219.249 -55.0859 197.027" stroke="white" stroke-width="0.314894" stroke-miterlimit="10"/>
<path d="M184.325 80.4912H93.5601C91.821 80.4912 90.4111 81.901 90.4111 83.6401V127.281C90.4111 129.02 91.821 130.43 93.5601 130.43H184.325C186.064 130.43 187.474 129.02 187.474 127.281V83.6401C187.474 81.901 186.064 80.4912 184.325 80.4912Z" fill="#E9F3FF"/>
<path d="M129.384 143.562H117.425V200.135H129.384V143.562Z" stroke="url(#paint6_linear_5788_29002)" stroke-width="0.277106" stroke-miterlimit="10"/>
<path d="M146.997 160.802H135.037V200.135H146.997V160.802Z" stroke="url(#paint7_linear_5788_29002)" stroke-width="0.314894" stroke-miterlimit="10"/>
<path d="M375.63 79.8775V83.4673H439.629V79.8775H375.63Z" stroke="url(#paint8_linear_5788_29002)" stroke-width="0.160596" stroke-miterlimit="10"/>
<path d="M400.291 74.7574V78.3472H439.624V74.7574H400.291Z" stroke="url(#paint9_linear_5788_29002)" stroke-width="0.173192" stroke-miterlimit="10"/>
<path d="M383.058 90.1177V93.7075H439.631V90.1177H383.058Z" stroke="url(#paint10_linear_5788_29002)" stroke-width="0.151149" stroke-miterlimit="10"/>
<path d="M389.001 84.9976V88.5874H439.633V84.9976H389.001Z" stroke="url(#paint11_linear_5788_29002)" stroke-width="0.195234" stroke-miterlimit="10"/>
<path d="M116.618 88.1211H103.26V122.8H116.618V88.1211Z" fill="url(#paint12_linear_5788_29002)"/>
<path d="M135.959 101.498H122.601V122.803H135.959V101.498Z" fill="url(#paint13_linear_5788_29002)"/>
<path d="M155.292 96.998H141.934V122.8H155.292V96.998Z" fill="url(#paint14_linear_5788_29002)"/>
<path d="M205.114 106.867C204.25 106.867 203.549 107.567 203.549 108.43C203.549 109.294 204.25 109.994 205.114 109.994H276.157C277.022 109.994 277.722 109.294 277.722 108.43C277.722 107.567 277.022 106.867 276.157 106.867H205.114Z" stroke="url(#paint15_linear_5788_29002)" stroke-width="0.198383" stroke-miterlimit="10"/>
<path d="M205.114 113.363C204.25 113.363 203.549 114.063 203.549 114.926C203.549 115.79 204.25 116.49 205.114 116.49H250.345C251.21 116.49 251.91 115.79 251.91 114.926C251.91 114.063 251.21 113.363 250.345 113.363H205.114Z" stroke="url(#paint16_linear_5788_29002)" stroke-width="0.160596" stroke-miterlimit="10"/>
<path d="M205.114 119.944C204.25 119.944 203.549 120.644 203.549 121.507C203.549 122.371 204.25 123.071 205.114 123.071H258.375C259.24 123.071 259.94 122.371 259.94 121.507C259.94 120.644 259.24 119.944 258.375 119.944H205.114Z" stroke="url(#paint17_linear_5788_29002)" stroke-width="0.173192" stroke-miterlimit="10"/>
<path d="M174.625 103.923H161.267V122.801H174.625V103.923Z" fill="url(#paint18_linear_5788_29002)"/>
<path d="M31.7805 190.726C31.7805 190.726 75.8499 199.49 138.444 191.768" stroke="white" stroke-width="0.314894" stroke-miterlimit="10"/>
<path opacity="0.3" d="M257.403 194.473C274.573 194.473 288.492 180.554 288.492 163.384C288.492 146.214 274.573 132.294 257.403 132.294C240.233 132.294 226.313 146.214 226.313 163.384C226.313 180.554 240.233 194.473 257.403 194.473Z" fill="url(#paint19_linear_5788_29002)"/>
<path d="M257.404 190.723C272.503 190.723 284.743 178.483 284.743 163.384C284.743 148.285 272.503 136.045 257.404 136.045C242.305 136.045 230.065 148.285 230.065 163.384C230.065 178.483 242.305 190.723 257.404 190.723Z" fill="#FEB36F"/>
<path d="M270.795 139.547C262.812 135.075 252.767 134.707 244.171 139.465C230.961 146.777 226.178 163.412 233.489 176.622C237.155 183.244 243.163 187.747 249.905 189.671L270.792 139.547H270.795Z" fill="url(#paint20_linear_5788_29002)"/>
<path d="M242.636 161.485L249.057 153.581H254.476L248.056 161.485H242.636ZM246.752 168.136L256.139 156.573C256.828 155.682 257.6 154.86 258.441 154.123C259.426 153.273 260.582 152.655 261.823 152.322C263.435 151.881 265.135 151.922 266.726 152.444C268.3 152.961 269.673 153.984 270.646 155.37C271.88 157.187 272.4 159.426 272.098 161.627C271.959 162.713 271.613 163.755 271.081 164.703C270.548 165.648 269.843 166.473 269.002 167.134C268.039 167.874 266.927 168.375 265.749 168.598C265.082 168.743 264.405 168.822 263.725 168.831H261.076L256.281 174.751H250.88L258.557 165.286L259.184 164.511H262.752C264.005 164.511 265.331 164.511 266.414 163.781H266.436C266.946 163.415 267.362 162.93 267.658 162.364C267.951 161.797 268.111 161.167 268.127 160.525C268.139 159.882 268.007 159.246 267.74 158.667C267.472 158.087 267.075 157.583 266.581 157.193L266.527 157.152L266.499 157.13L266.461 157.102C265.841 156.648 265.107 156.393 264.348 156.371H264.307C263.819 156.349 263.328 156.399 262.852 156.529C262.188 156.714 261.571 157.048 261.045 157.505C260.406 158.081 259.814 158.714 259.285 159.4L252.149 168.18L246.758 168.139L246.752 168.136Z" fill="white"/>
<path d="M257.405 187.798C270.888 187.798 281.818 176.867 281.818 163.384C281.818 149.901 270.888 138.97 257.405 138.97C243.921 138.97 232.991 149.901 232.991 163.384C232.991 176.867 243.921 187.798 257.405 187.798Z" stroke="white" stroke-width="0.314894" stroke-miterlimit="10"/>
<path d="M364.146 119.755C366.642 119.755 368.665 117.732 368.665 115.237C368.665 112.741 366.642 110.718 364.146 110.718C361.651 110.718 359.627 112.741 359.627 115.237C359.627 117.732 361.651 119.755 364.146 119.755Z" stroke="white" stroke-width="0.255064" stroke-miterlimit="10"/>
<path d="M389.532 119.755C392.028 119.755 394.051 117.732 394.051 115.237C394.051 112.741 392.028 110.718 389.532 110.718C387.037 110.718 385.014 112.741 385.014 115.237C385.014 117.732 387.037 119.755 389.532 119.755Z" stroke="white" stroke-width="0.255064" stroke-miterlimit="10"/>
<path d="M376.835 119.755C379.331 119.755 381.354 117.732 381.354 115.237C381.354 112.741 379.331 110.718 376.835 110.718C374.339 110.718 372.316 112.741 372.316 115.237C372.316 117.732 374.339 119.755 376.835 119.755Z" stroke="white" stroke-width="0.255064" stroke-miterlimit="10"/>
<path d="M326.088 119.755C328.583 119.755 330.606 117.732 330.606 115.237C330.606 112.741 328.583 110.718 326.088 110.718C323.592 110.718 321.569 112.741 321.569 115.237C321.569 117.732 323.592 119.755 326.088 119.755Z" stroke="white" stroke-width="0.255064" stroke-miterlimit="10"/>
<path d="M351.465 119.755C353.961 119.755 355.984 117.732 355.984 115.237C355.984 112.741 353.961 110.718 351.465 110.718C348.97 110.718 346.947 112.741 346.947 115.237C346.947 117.732 348.97 119.755 351.465 119.755Z" stroke="white" stroke-width="0.255064" stroke-miterlimit="10"/>
<path d="M338.785 119.755C341.281 119.755 343.304 117.732 343.304 115.237C343.304 112.741 341.281 110.718 338.785 110.718C336.289 110.718 334.266 112.741 334.266 115.237C334.266 117.732 336.289 119.755 338.785 119.755Z" stroke="white" stroke-width="0.255064" stroke-miterlimit="10"/>
<path d="M257.404 190.723C272.503 190.723 284.743 178.483 284.743 163.384C284.743 148.285 272.503 136.045 257.404 136.045C242.305 136.045 230.065 148.285 230.065 163.384C230.065 178.483 242.305 190.723 257.404 190.723Z" stroke="#ED6921" stroke-width="0.314894" stroke-linecap="round" stroke-linejoin="round"/>
<path opacity="0.43" d="M-19.4221 133.982V194.949C-19.4221 194.949 -13.0707 197.15 4.79636 199.858V152.353C-4.43948 146.329 -12.5291 140.006 -19.4221 133.979V133.982Z" fill="url(#paint21_linear_5788_29002)"/>
<path d="M96.3658 127.839L188.479 127.839C190.218 127.839 191.627 126.429 191.627 124.69V81.0488C191.627 79.3097 190.218 77.8999 188.479 77.8999L96.3658 77.8999C94.6267 77.8999 93.2169 79.3097 93.2169 81.0488V124.69C93.2169 126.429 94.6267 127.839 96.3658 127.839Z" stroke="url(#paint22_linear_5788_29002)" stroke-width="0.314894" stroke-miterlimit="10"/>
<path d="M300.103 89.2671H340.973C342.712 89.2671 344.122 87.8573 344.122 86.1182V42.477C344.122 40.7379 342.712 39.3281 340.973 39.3281L300.103 39.3281C298.364 39.3281 296.954 40.7379 296.954 42.477V86.1182C296.954 87.8573 298.364 89.2671 300.103 89.2671Z" fill="#E9F3FF"/>
<path d="M337.707 224.13H378.577C380.316 224.13 381.726 222.72 381.726 220.981V157.955C381.726 156.216 380.316 154.806 378.577 154.806H337.707C335.967 154.806 334.558 156.216 334.558 157.955V220.981C334.558 222.72 335.967 224.13 337.707 224.13Z" fill="#E9F3FF"/>
<path d="M116.618 88.1211H103.26V122.8H116.618V88.1211Z" stroke="white" stroke-width="0.314894" stroke-miterlimit="10"/>
<path d="M135.959 101.498H122.601V122.803H135.959V101.498Z" stroke="white" stroke-width="0.314894" stroke-miterlimit="10"/>
<path d="M155.292 96.998H141.934V122.8H155.292V96.998Z" stroke="white" stroke-width="0.314894" stroke-miterlimit="10"/>
<path d="M174.625 103.923H161.267V122.801H174.625V103.923Z" stroke="white" stroke-width="0.314894" stroke-miterlimit="10"/>
<path d="M182.318 84.5691L173.086 89.3019L175.57 91.0181C163.941 106.432 144.821 113.775 130.481 117.233C113.993 121.207 100.04 121.072 99.9012 121.072L99.854 124.535C99.9012 124.535 100.043 124.535 100.27 124.535C102.767 124.535 115.718 124.343 131.211 120.618C141.165 118.225 150.076 114.859 157.694 110.614C166.284 105.831 173.24 99.9075 178.426 92.9862L181.166 94.8755L182.318 84.5659V84.5691Z" fill="url(#paint23_linear_5788_29002)"/>
<path opacity="0.77" d="M182.318 84.5691L173.086 89.3019L175.57 91.0181C163.941 106.432 144.821 113.775 130.481 117.233C113.993 121.207 100.04 121.072 99.9012 121.072L99.854 124.535C99.9012 124.535 100.043 124.535 100.27 124.535C102.767 124.535 115.718 124.343 131.211 120.618C141.165 118.225 150.076 114.859 157.694 110.614C166.284 105.831 173.24 99.9075 178.426 92.9862L181.166 94.8755L182.318 84.5659V84.5691Z" stroke="#E8F1FF" stroke-width="0.314894" stroke-miterlimit="10"/>
<path d="M323.64 46.168L337.977 54.4465L323.731 62.7219L309.394 54.4465L323.64 46.168Z" fill="#E9F3FF"/>
<path d="M309.396 54.4463L323.733 62.7217L323.686 79.1969L309.352 70.9184L309.396 54.4463Z" fill="url(#paint24_linear_5788_29002)"/>
<path d="M323.643 62.7217L337.98 54.4463L338.024 70.9184L323.687 79.1969L323.643 62.7217Z" fill="#6A91D6"/>
<path d="M325.28 53.5109C326.174 54.0273 326.181 54.8617 325.289 55.3782C324.398 55.8946 322.959 55.8946 322.065 55.3782C321.171 54.8617 321.167 54.0273 322.055 53.5109C322.943 52.9944 324.386 52.9944 325.28 53.5109Z" fill="#6A91D6"/>
<path d="M312.917 62.8286C313.812 63.3451 314.539 62.9325 314.542 61.9028C314.542 60.8763 313.824 59.6262 312.93 59.1097C312.039 58.5933 311.311 59.009 311.308 60.0324C311.308 61.0589 312.026 62.3091 312.92 62.8255L312.917 62.8286Z" fill="white"/>
<path d="M315.834 68.4561C316.729 68.9725 317.456 68.56 317.459 67.5303C317.459 66.5037 316.741 65.2536 315.847 64.7372C314.956 64.2208 314.228 64.6364 314.225 65.6598C314.225 66.6864 314.943 67.9365 315.838 68.4529L315.834 68.4561Z" fill="white"/>
<path d="M319.241 74.1651C320.135 74.6815 320.862 74.269 320.866 73.2393C320.866 72.2127 320.148 70.9626 319.253 70.4462C318.362 69.9297 317.635 70.3454 317.632 71.3688C317.632 72.3954 318.35 73.6455 319.244 74.1619L319.241 74.1651Z" fill="white"/>
<path d="M327.647 70.4496C328.541 69.9332 329.268 70.3457 329.272 71.3754C329.272 72.4019 328.554 73.6521 327.659 74.1685C326.768 74.6849 326.041 74.2692 326.038 73.2458C326.038 72.2193 326.756 70.9692 327.65 70.4527L327.647 70.4496Z" fill="white"/>
<path d="M333.987 66.4657C334.881 65.9493 335.609 66.3618 335.612 67.3915C335.612 68.418 334.894 69.6682 333.999 70.1846C333.105 70.701 332.381 70.2854 332.378 69.262C332.378 68.2354 333.096 66.9853 333.99 66.4688L333.987 66.4657Z" fill="white"/>
<path d="M327.647 63.0966C328.541 62.5801 329.268 62.9926 329.272 64.0223C329.272 65.0489 328.554 66.299 327.659 66.8155C326.768 67.3319 326.041 66.9162 326.038 65.8928C326.038 64.8663 326.756 63.6161 327.65 63.0997L327.647 63.0966Z" fill="white"/>
<path d="M333.987 59.1132C334.881 58.5967 335.609 59.0092 335.612 60.0389C335.612 61.0655 334.894 62.3156 333.999 62.8321C333.105 63.3485 332.381 62.9328 332.378 61.9094C332.378 60.8829 333.096 59.6327 333.99 59.1163L333.987 59.1132Z" fill="white"/>
<path d="M323.64 46.168L337.977 54.4465L323.731 62.7219L309.394 54.4465L323.64 46.168Z" stroke="url(#paint25_linear_5788_29002)" stroke-width="0.305447" stroke-linecap="round" stroke-linejoin="round"/>
<path d="M309.396 54.4463L323.733 62.7217L323.686 79.1969L309.352 70.9184L309.396 54.4463Z" stroke="url(#paint26_linear_5788_29002)" stroke-width="0.305447" stroke-linecap="round" stroke-linejoin="round"/>
<path d="M323.643 62.7217L337.98 54.4463L338.024 70.9184L323.687 79.1969L323.643 62.7217Z" stroke="url(#paint27_linear_5788_29002)" stroke-width="0.305447" stroke-linecap="round" stroke-linejoin="round"/>
<path d="M303.417 85.939H344.287C346.026 85.939 347.436 84.5291 347.436 82.79V39.1489C347.436 37.4098 346.026 36 344.287 36L303.417 36C301.678 36 300.268 37.4098 300.268 39.1489V82.79C300.268 84.5291 301.678 85.939 303.417 85.939Z" stroke="url(#paint28_linear_5788_29002)" stroke-width="0.314894" stroke-miterlimit="10"/>
<path d="M341.037 220.802H381.907C383.646 220.802 385.056 219.392 385.056 217.653V154.627C385.056 152.888 383.646 151.478 381.907 151.478H341.037C339.298 151.478 337.888 152.888 337.888 154.627V217.653C337.888 219.392 339.298 220.802 341.037 220.802Z" stroke="url(#paint29_linear_5788_29002)" stroke-width="0.314894" stroke-miterlimit="10"/>
<path d="M363.327 194.12H358.217C352.816 194.12 348.439 189.743 348.439 184.343V166.019C348.439 160.619 352.816 156.242 358.217 156.242H363.327" stroke="url(#paint30_linear_5788_29002)" stroke-width="0.277106" stroke-miterlimit="10"/>
<path d="M374.79 166.019C374.79 160.619 370.412 156.242 365.012 156.242C359.612 156.242 355.235 160.619 355.235 166.019V184.343C355.235 189.743 359.612 194.12 365.012 194.12C370.412 194.12 374.79 189.743 374.79 184.343V166.019Z" fill="url(#paint31_linear_5788_29002)"/>
<path d="M365.026 169.298C367.421 169.298 369.362 167.356 369.362 164.962C369.362 162.567 367.421 160.625 365.026 160.625C362.631 160.625 360.69 162.567 360.69 164.962C360.69 167.356 362.631 169.298 365.026 169.298Z" fill="white"/>
<path d="M365.021 190.893C368.722 190.893 371.722 187.893 371.722 184.192C371.722 180.491 368.722 177.491 365.021 177.491C361.321 177.491 358.321 180.491 358.321 184.192C358.321 187.893 361.321 190.893 365.021 190.893Z" stroke="white" stroke-width="0.314894" stroke-miterlimit="10"/>
<path d="M365.023 188.424C367.36 188.424 369.255 186.529 369.255 184.192C369.255 181.855 367.36 179.96 365.023 179.96C362.686 179.96 360.791 181.855 360.791 184.192C360.791 186.529 362.686 188.424 365.023 188.424Z" fill="white"/>
<path d="M361.465 210.631C368.827 210.631 374.795 208.894 374.795 206.751C374.795 204.608 368.827 202.872 361.465 202.872C354.104 202.872 348.136 204.608 348.136 206.751C348.136 208.894 354.104 210.631 361.465 210.631Z" stroke="url(#paint32_linear_5788_29002)" stroke-width="0.38417" stroke-miterlimit="10"/>
<path d="M358.43 194.121V206.751C358.43 207.239 359.791 207.636 361.469 207.636C363.147 207.636 364.508 207.239 364.508 206.751V194.121H358.43Z" fill="url(#paint33_linear_5788_29002)"/>
<path d="M142.094 248.761L257.26 248.761C258.999 248.761 260.409 247.351 260.409 245.612V215.99C260.409 214.251 258.999 212.841 257.26 212.841H142.094C140.355 212.841 138.945 214.251 138.945 215.99V245.612C138.945 247.351 140.355 248.761 142.094 248.761Z" fill="#E9F3FF"/>
<path d="M141.023 220.921H257.581" stroke="white" stroke-width="0.314894" stroke-miterlimit="10"/>
<path d="M141.023 230.592H257.581" stroke="white" stroke-width="0.314894" stroke-miterlimit="10"/>
<path d="M141.023 240.259H257.581" stroke="white" stroke-width="0.314894" stroke-miterlimit="10"/>
<path d="M145.416 245.432L260.582 245.432C262.321 245.432 263.731 244.022 263.731 242.283V212.661C263.731 210.922 262.321 209.512 260.582 209.512H145.416C143.677 209.512 142.267 210.922 142.267 212.661V242.283C142.267 244.022 143.677 245.432 145.416 245.432Z" stroke="url(#paint34_linear_5788_29002)" stroke-width="0.314894" stroke-miterlimit="10"/>
<path d="M175.65 258.239V268.344" stroke="url(#paint35_linear_5788_29002)" stroke-width="0.629787" stroke-miterlimit="10"/>
<path d="M177.963 232.569H173.353C172.536 232.569 171.873 233.232 171.873 234.049V258.117C171.873 258.934 172.536 259.597 173.353 259.597H177.963C178.781 259.597 179.443 258.934 179.443 258.117V234.049C179.443 233.232 178.781 232.569 177.963 232.569Z" fill="url(#paint36_linear_5788_29002)"/>
<path d="M175.65 223.613V233.718" stroke="url(#paint37_linear_5788_29002)" stroke-width="0.629787" stroke-miterlimit="10"/>
<path d="M198.027 254.007V268.344" stroke="url(#paint38_linear_5788_29002)" stroke-width="0.629787" stroke-miterlimit="10"/>
<path d="M198.027 223.613V239.714" stroke="url(#paint39_linear_5788_29002)" stroke-width="0.629787" stroke-miterlimit="10"/>
<path d="M220.412 233.265V256.596" stroke="url(#paint40_linear_5788_29002)" stroke-width="0.629787" stroke-miterlimit="10"/>
<path d="M220.412 203.284V216.61" stroke="url(#paint41_linear_5788_29002)" stroke-width="0.629787" stroke-miterlimit="10"/>
<path d="M189.151 219.753H184.541C183.724 219.753 183.061 220.416 183.061 221.233V245.3C183.061 246.118 183.724 246.78 184.541 246.78H189.151C189.969 246.78 190.631 246.118 190.631 245.3V221.233C190.631 220.416 189.969 219.753 189.151 219.753Z" fill="#FEB36F"/>
<path d="M186.839 210.8V220.902" stroke="#FEB36F" stroke-width="0.629787" stroke-miterlimit="10"/>
<path d="M186.839 241.726V251.831" stroke="#FEB36F" stroke-width="0.629787" stroke-miterlimit="10"/>
<path d="M200.34 237.793H195.73C194.912 237.793 194.25 238.456 194.25 239.273V252.889C194.25 253.707 194.912 254.369 195.73 254.369H200.34C201.157 254.369 201.82 253.707 201.82 252.889V239.273C201.82 238.456 201.157 237.793 200.34 237.793Z" fill="url(#paint42_linear_5788_29002)"/>
<path d="M211.528 223.082H206.918C206.1 223.082 205.438 223.744 205.438 224.562V248.629C205.438 249.446 206.1 250.109 206.918 250.109H211.528C212.345 250.109 213.008 249.446 213.008 248.629V224.562C213.008 223.744 212.345 223.082 211.528 223.082Z" fill="#FEB36F"/>
<path d="M209.223 206.958V226.265" stroke="#FEB36F" stroke-width="0.629787" stroke-miterlimit="10"/>
<path d="M209.223 245.055V269.616" stroke="#FEB36F" stroke-width="0.629787" stroke-miterlimit="10"/>
<path d="M222.716 216.132H218.106C217.289 216.132 216.626 216.794 216.626 217.612V232.1C216.626 232.917 217.289 233.58 218.106 233.58H222.716C223.533 233.58 224.196 232.917 224.196 232.1V217.612C224.196 216.794 223.533 216.132 222.716 216.132Z" fill="url(#paint43_linear_5788_29002)"/>
<path d="M233.904 196.022H229.294C228.477 196.022 227.814 196.685 227.814 197.502V221.57C227.814 222.387 228.477 223.05 229.294 223.05H233.904C234.722 223.05 235.384 222.387 235.384 221.57V197.502C235.384 196.685 234.722 196.022 233.904 196.022Z" fill="#FEB36F"/>
<path d="M231.591 187.067V197.172" stroke="#FEB36F" stroke-width="0.629787" stroke-miterlimit="10"/>
<path d="M231.591 219.753V234.531" stroke="#FEB36F" stroke-width="0.629787" stroke-miterlimit="10"/>
<path d="M185.77 82.538C188.535 82.538 190.777 80.2964 190.777 77.5312C190.777 74.766 188.535 72.5244 185.77 72.5244C183.005 72.5244 180.763 74.766 180.763 77.5312C180.763 80.2964 183.005 82.538 185.77 82.538Z" fill="url(#paint44_linear_5788_29002)"/>
<path d="M184.675 72.5244H185.84C188.605 72.5244 190.847 74.7665 190.847 77.5312C190.847 80.296 188.605 82.538 185.84 82.538H184.675" stroke="#E8F1FF" stroke-width="0.314894" stroke-miterlimit="10"/>
<path d="M184.674 82.538C187.439 82.538 189.681 80.2964 189.681 77.5312C189.681 74.766 187.439 72.5244 184.674 72.5244C181.909 72.5244 179.667 74.766 179.667 77.5312C179.667 80.2964 181.909 82.538 184.674 82.538Z" fill="url(#paint45_linear_5788_29002)"/>
<path d="M187.567 73.4473H188.732" stroke="#E8F1FF" stroke-width="0.314894" stroke-miterlimit="10"/>
<path d="M188.52 74.313H189.688" stroke="#E8F1FF" stroke-width="0.314894" stroke-miterlimit="10"/>
<path d="M189.27 75.5068H190.435" stroke="#E8F1FF" stroke-width="0.314894" stroke-miterlimit="10"/>
<path d="M189.683 76.9897H190.848" stroke="#E8F1FF" stroke-width="0.314894" stroke-miterlimit="10"/>
<path d="M189.607 78.4883H190.776" stroke="#E8F1FF" stroke-width="0.314894" stroke-miterlimit="10"/>
<path d="M189.093 79.8584H190.261" stroke="#E8F1FF" stroke-width="0.314894" stroke-miterlimit="10"/>
<path d="M187.929 81.3066H189.095" stroke="#E8F1FF" stroke-width="0.314894" stroke-miterlimit="10"/>
<path d="M184.674 82.538C187.439 82.538 189.681 80.2964 189.681 77.5312C189.681 74.766 187.439 72.5244 184.674 72.5244C181.909 72.5244 179.667 74.766 179.667 77.5312C179.667 80.2964 181.909 82.538 184.674 82.538Z" stroke="#E8F1FF" stroke-width="0.314894" stroke-miterlimit="10"/>
<path d="M184.67 81.8266C187.043 81.8266 188.966 79.9036 188.966 77.5315C188.966 75.1593 187.043 73.2363 184.67 73.2363C182.298 73.2363 180.375 75.1593 180.375 77.5315C180.375 79.9036 182.298 81.8266 184.67 81.8266Z" stroke="#E8F1FF" stroke-width="0.314894" stroke-miterlimit="10"/>
<path d="M180.725 82.538C183.49 82.538 185.732 80.2964 185.732 77.5312C185.732 74.766 183.49 72.5244 180.725 72.5244C177.96 72.5244 175.718 74.766 175.718 77.5312C175.718 80.2964 177.96 82.538 180.725 82.538Z" fill="url(#paint46_linear_5788_29002)"/>
<path d="M179.63 72.5244H180.795C183.56 72.5244 185.802 74.7665 185.802 77.5312C185.802 80.296 183.56 82.538 180.795 82.538H179.63" stroke="#E8F1FF" stroke-width="0.314894" stroke-miterlimit="10"/>
<path d="M179.629 82.538C182.394 82.538 184.636 80.2964 184.636 77.5312C184.636 74.766 182.394 72.5244 179.629 72.5244C176.864 72.5244 174.622 74.766 174.622 77.5312C174.622 80.2964 176.864 82.538 179.629 82.538Z" fill="url(#paint47_linear_5788_29002)"/>
<path d="M182.522 73.4473H183.687" stroke="#E8F1FF" stroke-width="0.314894" stroke-miterlimit="10"/>
<path d="M183.475 74.313H184.64" stroke="#E8F1FF" stroke-width="0.314894" stroke-miterlimit="10"/>
<path d="M184.225 75.5068H185.394" stroke="#E8F1FF" stroke-width="0.314894" stroke-miterlimit="10"/>
<path d="M184.639 76.9897H185.804" stroke="#E8F1FF" stroke-width="0.314894" stroke-miterlimit="10"/>
<path d="M184.563 78.4883H185.728" stroke="#E8F1FF" stroke-width="0.314894" stroke-miterlimit="10"/>
<path d="M184.057 79.8584H185.222" stroke="#E8F1FF" stroke-width="0.314894" stroke-miterlimit="10"/>
<path d="M182.885 81.3066H184.053" stroke="#E8F1FF" stroke-width="0.314894" stroke-miterlimit="10"/>
<path d="M179.629 82.538C182.394 82.538 184.636 80.2964 184.636 77.5312C184.636 74.766 182.394 72.5244 179.629 72.5244C176.864 72.5244 174.622 74.766 174.622 77.5312C174.622 80.2964 176.864 82.538 179.629 82.538Z" stroke="#E8F1FF" stroke-width="0.314894" stroke-miterlimit="10"/>
<path d="M179.626 81.8266C181.998 81.8266 183.921 79.9036 183.921 77.5315C183.921 75.1593 181.998 73.2363 179.626 73.2363C177.254 73.2363 175.331 75.1593 175.331 77.5315C175.331 79.9036 177.254 81.8266 179.626 81.8266Z" stroke="#E8F1FF" stroke-width="0.314894" stroke-miterlimit="10"/>
<path d="M175.698 82.538C178.463 82.538 180.705 80.2964 180.705 77.5312C180.705 74.766 178.463 72.5244 175.698 72.5244C172.933 72.5244 170.691 74.766 170.691 77.5312C170.691 80.2964 172.933 82.538 175.698 82.538Z" fill="url(#paint48_linear_5788_29002)"/>
<path d="M174.595 72.5244H175.76C178.525 72.5244 180.767 74.7665 180.767 77.5312C180.767 80.296 178.525 82.538 175.76 82.538H174.595" stroke="#E8F1FF" stroke-width="0.314894" stroke-miterlimit="10"/>
<path d="M174.593 82.538C177.359 82.538 179.6 80.2964 179.6 77.5312C179.6 74.766 177.359 72.5244 174.593 72.5244C171.828 72.5244 169.587 74.766 169.587 77.5312C169.587 80.2964 171.828 82.538 174.593 82.538Z" fill="url(#paint49_linear_5788_29002)"/>
<path d="M177.487 73.4473H178.655" stroke="#E8F1FF" stroke-width="0.314894" stroke-miterlimit="10"/>
<path d="M178.439 74.313H179.605" stroke="#E8F1FF" stroke-width="0.314894" stroke-miterlimit="10"/>
<path d="M179.19 75.5068H180.355" stroke="#E8F1FF" stroke-width="0.314894" stroke-miterlimit="10"/>
<path d="M179.603 76.9897H180.771" stroke="#E8F1FF" stroke-width="0.314894" stroke-miterlimit="10"/>
<path d="M179.527 78.4883H180.695" stroke="#E8F1FF" stroke-width="0.314894" stroke-miterlimit="10"/>
<path d="M179.021 79.8584H180.19" stroke="#E8F1FF" stroke-width="0.314894" stroke-miterlimit="10"/>
<path d="M177.849 81.3066H179.014" stroke="#E8F1FF" stroke-width="0.314894" stroke-miterlimit="10"/>
<path d="M174.593 82.538C177.359 82.538 179.6 80.2964 179.6 77.5312C179.6 74.766 177.359 72.5244 174.593 72.5244C171.828 72.5244 169.587 74.766 169.587 77.5312C169.587 80.2964 171.828 82.538 174.593 82.538Z" stroke="#E8F1FF" stroke-width="0.314894" stroke-miterlimit="10"/>
<path d="M174.59 81.8266C176.962 81.8266 178.885 79.9036 178.885 77.5315C178.885 75.1593 176.962 73.2363 174.59 73.2363C172.218 73.2363 170.295 75.1593 170.295 77.5315C170.295 79.9036 172.218 81.8266 174.59 81.8266Z" stroke="#E8F1FF" stroke-width="0.314894" stroke-miterlimit="10"/>
<path d="M170.654 82.538C173.419 82.538 175.661 80.2964 175.661 77.5312C175.661 74.766 173.419 72.5244 170.654 72.5244C167.889 72.5244 165.647 74.766 165.647 77.5312C165.647 80.2964 167.889 82.538 170.654 82.538Z" fill="url(#paint50_linear_5788_29002)"/>
<path d="M169.559 72.5244H170.724C173.489 72.5244 175.731 74.7665 175.731 77.5312C175.731 80.296 173.489 82.538 170.724 82.538H169.559" stroke="#E8F1FF" stroke-width="0.314894" stroke-miterlimit="10"/>
<path d="M169.558 82.538C172.323 82.538 174.565 80.2964 174.565 77.5312C174.565 74.766 172.323 72.5244 169.558 72.5244C166.793 72.5244 164.551 74.766 164.551 77.5312C164.551 80.2964 166.793 82.538 169.558 82.538Z" fill="url(#paint51_linear_5788_29002)"/>
<path d="M172.451 73.4473H173.616" stroke="#E8F1FF" stroke-width="0.314894" stroke-miterlimit="10"/>
<path d="M173.404 74.313H174.572" stroke="#E8F1FF" stroke-width="0.314894" stroke-miterlimit="10"/>
<path d="M174.154 75.5068H175.319" stroke="#E8F1FF" stroke-width="0.314894" stroke-miterlimit="10"/>
<path d="M174.567 76.9897H175.732" stroke="#E8F1FF" stroke-width="0.314894" stroke-miterlimit="10"/>
<path d="M174.491 78.4883H175.657" stroke="#E8F1FF" stroke-width="0.314894" stroke-miterlimit="10"/>
<path d="M173.986 79.8584H175.151" stroke="#E8F1FF" stroke-width="0.314894" stroke-miterlimit="10"/>
<path d="M172.813 81.3066H173.982" stroke="#E8F1FF" stroke-width="0.314894" stroke-miterlimit="10"/>
<path d="M169.558 82.538C172.323 82.538 174.565 80.2964 174.565 77.5312C174.565 74.766 172.323 72.5244 169.558 72.5244C166.793 72.5244 164.551 74.766 164.551 77.5312C164.551 80.2964 166.793 82.538 169.558 82.538Z" stroke="#E8F1FF" stroke-width="0.314894" stroke-miterlimit="10"/>
<path d="M169.554 81.8266C171.927 81.8266 173.85 79.9036 173.85 77.5315C173.85 75.1593 171.927 73.2363 169.554 73.2363C167.182 73.2363 165.259 75.1593 165.259 77.5315C165.259 79.9036 167.182 81.8266 169.554 81.8266Z" stroke="#E8F1FF" stroke-width="0.314894" stroke-miterlimit="10"/>
<path opacity="0.26" d="M189.963 184.044C199.763 184.044 207.707 176.1 207.707 166.3C207.707 156.5 199.763 148.556 189.963 148.556C180.163 148.556 172.219 156.5 172.219 166.3C172.219 176.1 180.163 184.044 189.963 184.044Z" stroke="#4F92FD" stroke-width="0.654979" stroke-miterlimit="10"/>
<path d="M200.946 152.394C208.592 158.418 209.924 169.666 203.9 177.312C197.876 184.957 186.628 186.289 178.982 180.265C177.612 179.188 176.413 177.913 175.414 176.483" stroke="white" stroke-width="5.23668" stroke-miterlimit="10"/>
<path d="M172.342 168.422C171.788 163.752 173.114 159.044 176.027 155.351C180.677 149.446 188.6 147.11 195.714 149.547" stroke="#4F92FD" stroke-width="9.81839" stroke-miterlimit="10"/>
<path d="M257.409 249.265C304.839 249.265 343.29 210.815 343.29 163.384C343.29 115.953 304.839 77.5029 257.409 77.5029C209.978 77.5029 171.528 115.953 171.528 163.384C171.528 210.815 209.978 249.265 257.409 249.265Z" stroke="url(#paint52_linear_5788_29002)" stroke-width="0.251915" stroke-miterlimit="10"/>
<path d="M257.41 224.681C291.264 224.681 318.707 197.237 318.707 163.384C318.707 129.53 291.264 102.086 257.41 102.086C223.557 102.086 196.113 129.53 196.113 163.384C196.113 197.237 223.557 224.681 257.41 224.681Z" stroke="url(#paint53_linear_5788_29002)" stroke-width="0.179489" stroke-miterlimit="10"/>
<path d="M13.7969 198.457V205.092C13.7969 205.092 42.6317 209.157 76.763 208.912V205.955C76.763 205.955 46.5742 206.14 13.7969 198.457Z" fill="url(#paint54_linear_5788_29002)"/>
<path d="M43.0278 221.412C63.0519 222.039 83.0162 221.828 102.152 220.625V181.393C80.1381 180.577 60.3722 175.696 43.0278 168.721V221.412Z" stroke="white" stroke-width="0.314894" stroke-miterlimit="10"/>
<path d="M-14.9788 129.36V190.326C-14.9788 190.326 -8.62735 192.527 9.23972 195.235V147.73C0.00388473 141.707 -8.08574 135.384 -14.9788 129.356V129.36Z" stroke="white" stroke-width="0.314894" stroke-miterlimit="10"/>
<path d="M18.2231 193.831V200.466C18.2231 200.466 47.058 204.531 81.1893 204.286V201.329C81.1893 201.329 51.0004 201.514 18.2231 193.831Z" stroke="white" stroke-width="0.314894" stroke-miterlimit="10"/>
<path d="M406.741 112.922V126.97C406.741 126.97 437.67 128.491 465.147 134.159V122.552C465.147 122.552 438.778 115.593 406.741 112.922Z" fill="url(#paint55_linear_5788_29002)"/>
<path d="M409.531 110.888V124.935C409.531 124.935 440.46 126.456 467.938 132.124V120.517C467.938 120.517 441.569 113.558 409.531 110.888Z" stroke="white" stroke-width="0.314894" stroke-miterlimit="10"/>
<path d="M450.601 141.791C439.467 140.308 433.021 139.66 433.021 139.66V167.014C438.72 166.955 444.625 167.037 450.601 167.222V141.791Z" fill="url(#paint56_linear_5788_29002)"/>
<path d="M453.527 137.953C442.392 136.47 435.947 135.821 435.947 135.821V163.176C441.646 163.116 447.55 163.198 453.527 163.384V137.953Z" stroke="white" stroke-width="0.314894" stroke-miterlimit="10"/>
</g>
<defs>
<linearGradient id="paint0_linear_5788_29002" x1="10.9044" y1="339.12" x2="230.174" y2="395.207" gradientUnits="userSpaceOnUse">
<stop stop-color="#197CE1"/>
<stop offset="1" stop-color="#9FBDFF"/>
</linearGradient>
<linearGradient id="paint1_linear_5788_29002" x1="149.734" y1="163.384" x2="365.096" y2="163.384" gradientUnits="userSpaceOnUse">
<stop stop-color="#197CE1"/>
<stop offset="1" stop-color="#9FBDFF"/>
</linearGradient> 
<linearGradient id="paint2_linear_5788_29002" x1="573.008" y1="157.958" x2="-48.0291" y2="157.958" gradientUnits="userSpaceOnUse">
<stop stop-color="#BFC8FF" stop-opacity="0.8"/>
<stop offset="1" stop-color="#D4E0FF" stop-opacity="0.8"/>
</linearGradient>
<linearGradient id="paint3_linear_5788_29002" x1="222.401" y1="121.506" x2="413.145" y2="121.506" gradientUnits="userSpaceOnUse">
<stop stop-color="#197CE1"/>
<stop offset="1" stop-color="#9FBDFF"/>
</linearGradient>
<linearGradient id="paint4_linear_5788_29002" x1="38.6013" y1="199.861" x2="97.7289" y2="199.861" gradientUnits="userSpaceOnUse">
<stop stop-color="#197CE1"/>
<stop offset="1" stop-color="#9FBDFF"/>
</linearGradient>
<linearGradient id="paint5_linear_5788_29002" x1="239.374" y1="145.079" x2="549.868" y2="145.079" gradientUnits="userSpaceOnUse">
<stop stop-color="#197CE1"/>
<stop offset="1" stop-color="#9FBDFF"/>
</linearGradient>
<linearGradient id="paint6_linear_5788_29002" x1="117.286" y1="171.848" x2="129.523" y2="171.848" gradientUnits="userSpaceOnUse">
<stop stop-color="#197CE1"/>
<stop offset="1" stop-color="#9FBDFF"/>
</linearGradient>
<linearGradient id="paint7_linear_5788_29002" x1="134.88" y1="180.47" x2="147.154" y2="180.47" gradientUnits="userSpaceOnUse">
<stop stop-color="#197CE1"/>
<stop offset="1" stop-color="#9FBDFF"/>
</linearGradient>
<linearGradient id="paint8_linear_5788_29002" x1="407.626" y1="83.5492" x2="407.626" y2="79.7957" gradientUnits="userSpaceOnUse">
<stop stop-color="#197CE1"/>
<stop offset="1" stop-color="#9FBDFF"/>
</linearGradient>
<linearGradient id="paint9_linear_5788_29002" x1="419.959" y1="78.4353" x2="419.959" y2="74.6692" gradientUnits="userSpaceOnUse">
<stop stop-color="#197CE1"/>
<stop offset="1" stop-color="#9FBDFF"/>
</linearGradient>
<linearGradient id="paint10_linear_5788_29002" x1="411.348" y1="93.7831" x2="411.348" y2="90.039" gradientUnits="userSpaceOnUse">
<stop stop-color="#197CE1"/>
<stop offset="1" stop-color="#9FBDFF"/>
</linearGradient>
<linearGradient id="paint11_linear_5788_29002" x1="414.316" y1="88.6882" x2="414.316" y2="84.9" gradientUnits="userSpaceOnUse">
<stop stop-color="#197CE1"/>
<stop offset="1" stop-color="#9FBDFF"/>
</linearGradient>
<linearGradient id="paint12_linear_5788_29002" x1="109.939" y1="88.1211" x2="109.939" y2="122.8" gradientUnits="userSpaceOnUse">
<stop stop-color="#94C8FF"/>
<stop offset="1" stop-color="white" stop-opacity="0"/>
</linearGradient>
<linearGradient id="paint13_linear_5788_29002" x1="129.28" y1="101.498" x2="129.28" y2="-9.6127" gradientUnits="userSpaceOnUse">
<stop stop-color="#94C8FF"/>
<stop offset="1" stop-color="white" stop-opacity="0"/>
</linearGradient>
<linearGradient id="paint14_linear_5788_29002" x1="148.613" y1="96.998" x2="148.613" y2="-9.61238" gradientUnits="userSpaceOnUse">
<stop stop-color="#94C8FF"/>
<stop offset="1" stop-color="white" stop-opacity="0"/>
</linearGradient>
<linearGradient id="paint15_linear_5788_29002" x1="203.448" y1="108.429" x2="277.823" y2="108.429" gradientUnits="userSpaceOnUse">
<stop stop-color="#197CE1"/>
<stop offset="1" stop-color="#9FBDFF"/>
</linearGradient>
<linearGradient id="paint16_linear_5788_29002" x1="203.47" y1="114.925" x2="251.992" y2="114.925" gradientUnits="userSpaceOnUse">
<stop stop-color="#197CE1"/>
<stop offset="1" stop-color="#9FBDFF"/>
</linearGradient>
<linearGradient id="paint17_linear_5788_29002" x1="203.464" y1="121.506" x2="260.028" y2="121.506" gradientUnits="userSpaceOnUse">
<stop stop-color="#197CE1"/>
<stop offset="1" stop-color="#9FBDFF"/>
</linearGradient>
<linearGradient id="paint18_linear_5788_29002" x1="167.946" y1="103.923" x2="167.946" y2="-9.61212" gradientUnits="userSpaceOnUse">
<stop stop-color="#94C8FF"/>
<stop offset="1" stop-color="white" stop-opacity="0"/>
</linearGradient>
<linearGradient id="paint19_linear_5788_29002" x1="226.307" y1="163.384" x2="288.499" y2="163.384" gradientUnits="userSpaceOnUse">
<stop offset="0.32" stop-color="#197DDF"/>
<stop offset="0.39" stop-color="#197DDF" stop-opacity="0.93"/>
<stop offset="0.54" stop-color="#197DDF" stop-opacity="0.73"/>
<stop offset="0.75" stop-color="#197DDF" stop-opacity="0.42"/>
<stop offset="1" stop-color="#197DDF" stop-opacity="0"/>
</linearGradient>
<linearGradient id="paint20_linear_5788_29002" x1="230.066" y1="162.858" x2="270.795" y2="162.858" gradientUnits="userSpaceOnUse">
<stop stop-color="#F37435"/>
<stop offset="1" stop-color="#F9B471"/>
</linearGradient>
<linearGradient id="paint21_linear_5788_29002" x1="-19.4221" y1="166.923" x2="4.79636" y2="166.923" gradientUnits="userSpaceOnUse">
<stop stop-color="#1B44C0"/>
<stop offset="0.31" stop-color="#1A47C1"/>
<stop offset="0.55" stop-color="#1A51C7"/>
<stop offset="0.77" stop-color="#1961D1"/>
<stop offset="0.98" stop-color="#1979DF"/>
<stop offset="1" stop-color="#197CE1"/>
</linearGradient>
<linearGradient id="paint22_linear_5788_29002" x1="191.785" y1="102.868" x2="93.0594" y2="102.868" gradientUnits="userSpaceOnUse">
<stop stop-color="#197CE1"/>
<stop offset="1" stop-color="#9FBDFF"/>
</linearGradient>
<linearGradient id="paint23_linear_5788_29002" x1="128.752" y1="92.2178" x2="156.289" y2="119.755" gradientUnits="userSpaceOnUse">
<stop stop-color="#F37435"/>
<stop offset="1" stop-color="#F9B471"/>
</linearGradient>
<linearGradient id="paint24_linear_5788_29002" x1="309.352" y1="66.8216" x2="323.733" y2="66.8216" gradientUnits="userSpaceOnUse">
<stop stop-color="#BFC8FF" stop-opacity="0.8"/>
<stop offset="1" stop-color="#D4E0FF" stop-opacity="0.8"/>
</linearGradient>
<linearGradient id="paint25_linear_5788_29002" x1="309.243" y1="54.4465" x2="338.128" y2="54.4465" gradientUnits="userSpaceOnUse">
<stop stop-color="#1B44C0"/>
<stop offset="0.19" stop-color="#1A44C0" stop-opacity="0.98"/>
<stop offset="0.33" stop-color="#1A47C2" stop-opacity="0.93"/>
<stop offset="0.47" stop-color="#1A4CC5" stop-opacity="0.85"/>
<stop offset="0.59" stop-color="#1A53C9" stop-opacity="0.72"/>
<stop offset="0.71" stop-color="#1A5CCE" stop-opacity="0.56"/>
<stop offset="0.83" stop-color="#1967D4" stop-opacity="0.37"/>
<stop offset="0.94" stop-color="#1973DC" stop-opacity="0.14"/>
<stop offset="1" stop-color="#197CE1" stop-opacity="0"/>
</linearGradient>
<linearGradient id="paint26_linear_5788_29002" x1="309.198" y1="66.8216" x2="323.888" y2="66.8216" gradientUnits="userSpaceOnUse">
<stop stop-color="#1B44C0"/>
<stop offset="0.19" stop-color="#1A44C0" stop-opacity="0.98"/>
<stop offset="0.33" stop-color="#1A47C2" stop-opacity="0.93"/>
<stop offset="0.47" stop-color="#1A4CC5" stop-opacity="0.85"/>
<stop offset="0.59" stop-color="#1A53C9" stop-opacity="0.72"/>
<stop offset="0.71" stop-color="#1A5CCE" stop-opacity="0.56"/>
<stop offset="0.83" stop-color="#1967D4" stop-opacity="0.37"/>
<stop offset="0.94" stop-color="#1973DC" stop-opacity="0.14"/>
<stop offset="1" stop-color="#197CE1" stop-opacity="0"/>
</linearGradient>
<linearGradient id="paint27_linear_5788_29002" x1="323.489" y1="66.8216" x2="338.179" y2="66.8216" gradientUnits="userSpaceOnUse">
<stop stop-color="#1B44C0"/>
<stop offset="0.19" stop-color="#1A44C0" stop-opacity="0.98"/>
<stop offset="0.33" stop-color="#1A47C2" stop-opacity="0.93"/>
<stop offset="0.47" stop-color="#1A4CC5" stop-opacity="0.85"/>
<stop offset="0.59" stop-color="#1A53C9" stop-opacity="0.72"/>
<stop offset="0.71" stop-color="#1A5CCE" stop-opacity="0.56"/>
<stop offset="0.83" stop-color="#1967D4" stop-opacity="0.37"/>
<stop offset="0.94" stop-color="#1973DC" stop-opacity="0.14"/>
<stop offset="1" stop-color="#197CE1" stop-opacity="0"/>
</linearGradient>
<linearGradient id="paint28_linear_5788_29002" x1="347.593" y1="60.971" x2="300.11" y2="60.971" gradientUnits="userSpaceOnUse">
<stop stop-color="#197CE1"/>
<stop offset="1" stop-color="#9FBDFF"/>
</linearGradient>
<linearGradient id="paint29_linear_5788_29002" x1="385.213" y1="186.138" x2="337.73" y2="186.138" gradientUnits="userSpaceOnUse">
<stop stop-color="#197CE1"/>
<stop offset="1" stop-color="#9FBDFF"/>
</linearGradient>
<linearGradient id="paint30_linear_5788_29002" x1="348.301" y1="175.183" x2="363.327" y2="175.183" gradientUnits="userSpaceOnUse">
<stop stop-color="#197CE1"/>
<stop offset="1" stop-color="#9FBDFF"/>
</linearGradient>
<linearGradient id="paint31_linear_5788_29002" x1="356.157" y1="190.521" x2="373.87" y2="159.841" gradientUnits="userSpaceOnUse">
<stop stop-color="#197CE1"/>
<stop offset="1" stop-color="#9FBDFF"/>
</linearGradient>
<linearGradient id="paint32_linear_5788_29002" x1="347.944" y1="206.751" x2="374.987" y2="206.751" gradientUnits="userSpaceOnUse">
<stop stop-color="#197CE1"/>
<stop offset="1" stop-color="#9FBDFF"/>
</linearGradient>
<linearGradient id="paint33_linear_5788_29002" x1="358.43" y1="200.878" x2="364.508" y2="200.878" gradientUnits="userSpaceOnUse">
<stop stop-color="#197CE1"/>
<stop offset="1" stop-color="#9FBDFF"/>
</linearGradient>
<linearGradient id="paint34_linear_5788_29002" x1="263.888" y1="227.474" x2="142.11" y2="227.474" gradientUnits="userSpaceOnUse">
<stop stop-color="#197CE1"/>
<stop offset="1" stop-color="#9FBDFF"/>
</linearGradient>
<linearGradient id="paint35_linear_5788_29002" x1="-nan" y1="-nan" x2="-nan" y2="-nan" gradientUnits="userSpaceOnUse">
<stop stop-color="#197CE1"/>
<stop offset="1" stop-color="#9FBDFF"/>
</linearGradient>
<linearGradient id="paint36_linear_5788_29002" x1="169.131" y1="234.777" x2="182.186" y2="257.386" gradientUnits="userSpaceOnUse">
<stop stop-color="#197CE1"/>
<stop offset="1" stop-color="#9FBDFF"/>
</linearGradient>
<linearGradient id="paint37_linear_5788_29002" x1="-nan" y1="-nan" x2="-nan" y2="-nan" gradientUnits="userSpaceOnUse">
<stop stop-color="#197CE1"/>
<stop offset="1" stop-color="#9FBDFF"/>
</linearGradient>
<linearGradient id="paint38_linear_5788_29002" x1="-nan" y1="-nan" x2="-nan" y2="-nan" gradientUnits="userSpaceOnUse">
<stop stop-color="#197CE1"/>
<stop offset="1" stop-color="#9FBDFF"/>
</linearGradient>
<linearGradient id="paint39_linear_5788_29002" x1="-nan" y1="-nan" x2="-nan" y2="-nan" gradientUnits="userSpaceOnUse">
<stop stop-color="#197CE1"/>
<stop offset="1" stop-color="#9FBDFF"/>
</linearGradient>
<linearGradient id="paint40_linear_5788_29002" x1="-nan" y1="-nan" x2="-nan" y2="-nan" gradientUnits="userSpaceOnUse">
<stop stop-color="#197CE1"/>
<stop offset="1" stop-color="#9FBDFF"/>
</linearGradient>
<linearGradient id="paint41_linear_5788_29002" x1="-nan" y1="-nan" x2="-nan" y2="-nan" gradientUnits="userSpaceOnUse">
<stop stop-color="#197CE1"/>
<stop offset="1" stop-color="#9FBDFF"/>
</linearGradient>
<linearGradient id="paint42_linear_5788_29002" x1="193.768" y1="238.694" x2="202.298" y2="253.469" gradientUnits="userSpaceOnUse">
<stop stop-color="#197CE1"/>
<stop offset="1" stop-color="#9FBDFF"/>
</linearGradient>
<linearGradient id="paint43_linear_5788_29002" x1="215.958" y1="217.143" x2="224.864" y2="232.569" gradientUnits="userSpaceOnUse">
<stop stop-color="#197CE1"/>
<stop offset="1" stop-color="#9FBDFF"/>
</linearGradient>
<linearGradient id="paint44_linear_5788_29002" x1="182.227" y1="81.0706" x2="189.309" y2="73.9918" gradientUnits="userSpaceOnUse">
<stop stop-color="#4D75D5"/>
<stop offset="0.49" stop-color="#A1B6E8"/>
<stop offset="1" stop-color="white"/>
</linearGradient>
<linearGradient id="paint45_linear_5788_29002" x1="181.131" y1="81.0706" x2="188.213" y2="73.9918" gradientUnits="userSpaceOnUse">
<stop stop-color="#AFCAFF"/>
<stop offset="0.15" stop-color="#A8C4FB"/>
<stop offset="0.36" stop-color="#95B3F3"/>
<stop offset="0.62" stop-color="#7599E4"/>
<stop offset="0.9" stop-color="#4A74D0"/>
<stop offset="1" stop-color="#3A66C9"/>
</linearGradient>
<linearGradient id="paint46_linear_5788_29002" x1="177.186" y1="81.0706" x2="184.264" y2="73.9918" gradientUnits="userSpaceOnUse">
<stop stop-color="#4D75D5"/>
<stop offset="0.49" stop-color="#A1B6E8"/>
<stop offset="1" stop-color="white"/>
</linearGradient>
<linearGradient id="paint47_linear_5788_29002" x1="176.09" y1="-9.61252" x2="183.169" y2="73.9918" gradientUnits="userSpaceOnUse">
<stop stop-color="#AFCAFF"/>
<stop offset="0.15" stop-color="#A8C4FB"/>
<stop offset="0.36" stop-color="#95B3F3"/>
<stop offset="0.62" stop-color="#7599E4"/>
<stop offset="0.9" stop-color="#4A74D0"/>
<stop offset="1" stop-color="#3A66C9"/>
</linearGradient>
<linearGradient id="paint48_linear_5788_29002" x1="172.155" y1="81.0706" x2="179.237" y2="73.9918" gradientUnits="userSpaceOnUse">
<stop stop-color="#4D75D5"/>
<stop offset="0.49" stop-color="#A1B6E8"/>
<stop offset="1" stop-color="white"/>
</linearGradient>
<linearGradient id="paint49_linear_5788_29002" x1="171.054" y1="-9.61252" x2="178.136" y2="73.9918" gradientUnits="userSpaceOnUse">
<stop stop-color="#AFCAFF"/>
<stop offset="0.15" stop-color="#A8C4FB"/>
<stop offset="0.36" stop-color="#95B3F3"/>
<stop offset="0.62" stop-color="#7599E4"/>
<stop offset="0.9" stop-color="#4A74D0"/>
<stop offset="1" stop-color="#3A66C9"/>
</linearGradient>
<linearGradient id="paint50_linear_5788_29002" x1="167.114" y1="81.0706" x2="174.193" y2="73.9918" gradientUnits="userSpaceOnUse">
<stop stop-color="#4D75D5"/>
<stop offset="0.49" stop-color="#A1B6E8"/>
<stop offset="1" stop-color="white"/>
</linearGradient>
<linearGradient id="paint51_linear_5788_29002" x1="166.015" y1="81.0706" x2="173.097" y2="73.9918" gradientUnits="userSpaceOnUse">
<stop stop-color="#AFCAFF"/>
<stop offset="0.15" stop-color="#A8C4FB"/>
<stop offset="0.36" stop-color="#95B3F3"/>
<stop offset="0.62" stop-color="#7599E4"/>
<stop offset="0.9" stop-color="#4A74D0"/>
<stop offset="1" stop-color="#3A66C9"/>
</linearGradient>
<linearGradient id="paint52_linear_5788_29002" x1="171.389" y1="163.384" x2="343.431" y2="163.384" gradientUnits="userSpaceOnUse">
<stop stop-color="#197CE1"/>
<stop offset="1" stop-color="#9FBDFF"/>
</linearGradient>
<linearGradient id="paint53_linear_5788_29002" x1="196.012" y1="163.384" x2="318.808" y2="163.384" gradientUnits="userSpaceOnUse">
<stop stop-color="#197CE1"/>
<stop offset="1" stop-color="#9FBDFF"/>
</linearGradient>
<linearGradient id="paint54_linear_5788_29002" x1="13.7969" y1="203.687" x2="76.763" y2="203.687" gradientUnits="userSpaceOnUse">
<stop stop-color="#F37435"/>
<stop offset="1" stop-color="#F9B471"/>
</linearGradient>
<linearGradient id="paint55_linear_5788_29002" x1="406.741" y1="123.541" x2="465.147" y2="123.541" gradientUnits="userSpaceOnUse">
<stop stop-color="#F37435"/>
<stop offset="1" stop-color="#F9B471"/>
</linearGradient>
<linearGradient id="paint56_linear_5788_29002" x1="450.601" y1="153.443" x2="433.021" y2="153.443" gradientUnits="userSpaceOnUse">
<stop stop-color="#197CE1"/>
<stop offset="1" stop-color="#9FBDFF"/>
</linearGradient>
<clipPath id="clip0_5788_29002">
<rect y="296" width="296" height="491" rx="16.08" transform="rotate(-90 0 296)" fill="white"/>
</clipPath>
</defs>
</g>
</svg>


