<svg width="70" height="70" viewBox="0 0 70 70" fill="none" xmlns="http://www.w3.org/2000/svg">
<path d="M53.7117 8.10269C40.262 8.10269 31.0259 1.13574 24.5451 1.13574C18.0642 1.13574 4.45312 4.8613 4.45312 34.6755C4.45312 64.4896 22.764 68.8646 29.8923 68.8646C63.2726 68.8666 77.5312 8.10269 53.7117 8.10269Z" fill="#EFEFEF"/>
<path d="M14.5827 9.72201C12.9746 9.72201 11.666 8.41339 11.666 6.80534C11.666 5.19728 12.9746 3.88867 14.5827 3.88867C16.1907 3.88867 17.4993 5.19728 17.4993 6.80534C17.4993 8.41339 16.1907 9.72201 14.5827 9.72201ZM14.5827 5.83312C14.046 5.83312 13.6105 6.26867 13.6105 6.80534C13.6105 7.34201 14.046 7.77756 14.5827 7.77756C15.1193 7.77756 15.5549 7.34201 15.5549 6.80534C15.5549 6.26867 15.1193 5.83312 14.5827 5.83312Z" fill="#A4AFC1"/>
<path d="M29.6534 35.486L18.959 25.2777L29.6534 15.0693V22.8471H43.2645C50.7818 22.8471 56.8757 28.941 56.8757 36.4582V39.3749C56.8757 32.931 51.6529 27.7082 45.209 27.7082H29.6534V35.486Z" fill="white"/>
<path d="M40.3472 34.5139L51.0417 44.7222L40.3472 54.9306V47.1528H26.7361C19.2189 47.1528 13.125 41.0589 13.125 33.5417V30.625C13.125 37.0689 18.3478 42.2917 24.7917 42.2917H40.3472V34.5139Z" fill="#FEB46D"/>
<path d="M19.845 41.1794C15.8783 39.3167 13.125 35.2975 13.125 30.625V33.5417C13.125 41.0589 19.2189 47.1528 26.7361 47.1528H31.1111C26.425 47.1528 22.295 44.7844 19.845 41.1794Z" fill="#FF6600"/>
<path d="M23.334 25.2777L29.6534 19.246V15.0693L18.959 25.2777L29.6534 35.486V31.3093L23.334 25.2777Z" fill="#D5DBE1"/>
<path d="M56.875 40.8333C56.07 40.8333 55.4167 40.18 55.4167 39.375C55.4167 33.7458 50.8375 29.1666 45.2083 29.1666H31.1111V35.4861C31.1111 36.0694 30.7631 36.5964 30.2264 36.8258C29.6917 37.0533 29.0675 36.9425 28.6456 36.54L17.9511 26.3316C17.6633 26.0575 17.5 25.6764 17.5 25.2778C17.5 24.8791 17.6633 24.498 17.9511 24.2239L28.6456 14.0155C29.0675 13.6111 29.6897 13.5003 30.2264 13.7297C30.7631 13.9591 31.1111 14.4861 31.1111 15.0694V21.3889H43.2639C51.5725 21.3889 58.3333 28.1497 58.3333 36.4583V39.375C58.3333 40.18 57.68 40.8333 56.875 40.8333ZM21.07 25.2778L28.1944 32.0775V27.7083C28.1944 26.9033 28.8478 26.25 29.6528 26.25H45.2083C47.8139 26.25 50.2444 27.0141 52.29 28.3286C50.0636 25.8591 46.8417 24.3055 43.2639 24.3055H29.6528C28.8478 24.3055 28.1944 23.6522 28.1944 22.8472V18.478L21.07 25.2778Z" fill="black"/>
<path d="M40.3466 56.3887C40.1521 56.3887 39.9577 56.3498 39.773 56.2701C39.2363 56.0407 38.8882 55.5137 38.8882 54.9304V48.6109H26.7355C18.4268 48.6109 11.666 41.8501 11.666 33.5415V30.6248C11.666 29.8198 12.3193 29.1665 13.1243 29.1665C13.9293 29.1665 14.5827 29.8198 14.5827 30.6248C14.5827 36.254 19.1618 40.8332 24.791 40.8332H38.8882V34.5137C38.8882 33.9304 39.2363 33.4035 39.773 33.174C40.3038 32.9426 40.9299 33.0554 41.3538 33.4598L52.0482 43.6682C52.336 43.9423 52.4993 44.3234 52.4993 44.7221C52.4993 45.1207 52.336 45.5018 52.0482 45.7759L41.3538 55.9843C41.0757 56.2487 40.7141 56.3887 40.3466 56.3887ZM17.7093 41.6712C19.9357 44.1407 23.1577 45.6943 26.7355 45.6943H40.3466C41.1516 45.6943 41.8049 46.3476 41.8049 47.1526V51.5218L48.9293 44.7221L41.8049 37.9223V42.2915C41.8049 43.0965 41.1516 43.7498 40.3466 43.7498H24.791C22.1855 43.7498 19.7549 42.9857 17.7093 41.6712Z" fill="black"/>
</svg>
