<svg width="70" height="70" viewBox="0 0 70 70" fill="none" xmlns="http://www.w3.org/2000/svg">
<path d="M15.7773 10.819C12.2676 23.802 3.13068 30.8992 1.43901 37.1565C-0.252654 43.4137 -0.207933 57.5245 28.5737 65.3062C57.3554 73.0879 66.3582 56.5542 68.2171 49.6709C76.9301 17.4476 21.9937 -12.176 15.7773 10.819Z" fill="#EFEFEF"/>
<path d="M47.2698 28.7C46.7448 29.2056 46.5115 29.9445 46.667 30.6639L51.6642 54.3278C51.8004 54.8722 51.6254 55.4556 51.217 55.8639C50.2642 56.8361 48.6503 56.6417 47.9504 55.475L39.3365 39.2195C38.6559 38.0917 37.1003 37.8584 36.1281 38.7722L25.2198 48.8834L27.6698 54.4834C28.642 56.6436 25.7895 58.4656 24.3642 56.5639L20.2031 50.8667C20.0476 50.6722 19.892 50.4778 19.6781 50.3222C19.5226 50.1084 19.3281 49.9528 19.1337 49.7972L13.4365 45.6361C11.5465 44.2186 13.3392 41.3506 15.517 42.3306L21.117 44.7806L31.2281 33.8722C32.142 32.9 31.9087 31.3445 30.7809 30.6639L14.5253 22.05C13.3587 21.35 13.1642 19.7361 14.1365 18.7834C14.5448 18.375 15.1281 18.2 15.6726 18.3361L39.3365 23.3334C40.0559 23.4889 40.7948 23.2556 41.3004 22.7306L43.1865 20.7084L49.7781 13.7278C51.1392 12.2695 54.8726 12.2889 56.292 13.7084C57.0115 14.4278 57.3615 15.7111 57.3615 16.975C57.3615 18.2584 57.0115 19.5222 56.2726 20.2222L49.292 26.8139L47.2698 28.7Z" fill="white"/>
<path d="M54.9694 12.9499C54.4444 13.1055 53.9971 13.3777 53.6666 13.7277L47.0749 20.7082L45.1888 22.7305C44.6832 23.2555 43.9444 23.4888 43.2249 23.3332L41.1055 22.886C41.1832 22.8471 41.2416 22.7888 41.2999 22.7305L43.186 20.7082L49.7777 13.7277C50.8277 12.5999 53.2582 12.3666 54.9694 12.9499Z" fill="#D5DBE1"/>
<path d="M35.1167 33.8721L25.0056 44.7805L22.2445 43.5749L31.2278 33.8721C32.1417 32.8999 31.9084 31.3444 30.7806 30.6638L14.5251 22.0499C13.3584 21.3499 13.1639 19.736 14.1362 18.7833C14.5445 18.3749 15.1278 18.1999 15.6723 18.336L17.9862 18.8221C17.0528 19.7749 17.2667 21.3499 18.4139 22.0499L34.6695 30.6638C35.7973 31.3444 36.0306 32.8999 35.1167 33.8721Z" fill="#D5DBE1"/>
<path d="M27.7667 55.8832C27.6695 56.2332 27.4945 56.5443 27.2417 56.7971C26.95 57.0887 26.6 57.2637 26.2306 57.3221C25.9778 57.3804 25.725 57.3804 25.4917 57.3026C25.0639 57.2054 24.6556 56.9526 24.3639 56.5637L20.2028 50.8665C20.0472 50.6721 19.8917 50.4776 19.6778 50.3221C19.5222 50.1082 19.3278 49.9526 19.1334 49.7971L13.4361 45.6359C13.0472 45.3443 12.7945 44.9359 12.6972 44.5082C12.6389 44.2748 12.6195 44.0221 12.6778 43.7693C12.7361 43.3998 12.9111 43.0498 13.2028 42.7582C13.8056 42.1554 14.7389 41.9804 15.5167 42.3304L16.9361 42.9526C16.7417 43.2054 16.6056 43.4776 16.5667 43.7693C16.5084 44.0221 16.5278 44.2748 16.5861 44.5082C16.6834 44.9359 16.9361 45.3443 17.325 45.6359L23.0222 49.7971C23.2167 49.9526 23.4111 50.1082 23.5667 50.3221C23.7806 50.4776 23.9361 50.6721 24.0917 50.8665L27.7667 55.8832Z" fill="#D5DBE1"/>
<path d="M25.9272 58.8176C25.8436 58.8176 25.7581 58.8137 25.6725 58.8079C24.6828 58.734 23.7767 58.2304 23.1875 57.4293L19.0245 51.7282C18.9078 51.5765 18.7931 51.4598 18.6725 51.3743L12.5689 46.869C11.7814 46.3012 11.272 45.4107 11.1884 44.4307C11.1028 43.439 11.4567 42.459 12.1586 41.7396C13.2028 40.6973 14.7875 40.4018 16.1136 41.0026L20.7492 43.0287L30.1564 32.8807C30.3372 32.6862 30.3392 32.4762 30.3236 32.3673C30.3081 32.2546 30.2478 32.0465 30.0242 31.9123L13.8406 23.3373C12.8256 22.7307 12.2072 21.7759 12.077 20.6773C11.9486 19.5826 12.3259 18.5112 13.1134 17.7412C13.8756 16.9809 14.9917 16.664 16.0281 16.9226L39.6375 21.9062C39.865 21.9568 40.0906 21.8848 40.25 21.7176L48.7161 12.7265C49.6495 11.7446 51.2186 11.1807 53.025 11.1807C54.8042 11.1807 56.3714 11.7251 57.3222 12.6759C58.2906 13.6443 58.8506 15.3087 58.8195 17.1307C58.7884 18.8807 58.2225 20.3973 57.2678 21.2879L50.295 27.8737L48.2922 25.7523L55.2728 19.1607C55.5781 18.8768 55.8853 18.1282 55.9047 17.0782C55.9242 15.9309 55.5859 15.0598 55.2631 14.7371C54.9422 14.4182 54.1275 14.0954 53.027 14.0954C52.0625 14.0954 51.2031 14.3443 50.8395 14.7293L42.3656 23.7282C41.4886 24.6401 40.2461 25.0212 39.0309 24.7568L15.3709 19.7634C15.367 19.7673 15.1609 19.8218 15.157 19.8257C14.9684 20.0104 14.9625 20.2262 14.9761 20.3371C14.9897 20.4518 15.0461 20.6618 15.2756 20.7998L31.4631 29.3768C32.4567 29.9737 33.0692 30.9051 33.215 31.9707C33.3609 33.0323 33.0245 34.0901 32.2895 34.8718L22.1861 45.7723C21.7622 46.2273 21.1011 46.3654 20.5314 46.1165L14.9314 43.6665C14.6981 43.5615 14.4084 43.6159 14.2334 43.789C14.0972 43.929 14.0875 44.0923 14.0953 44.1779C14.1031 44.2712 14.142 44.4073 14.2878 44.5104L20.3875 49.0118C20.7278 49.2548 21.0428 49.5659 21.3597 49.9782L25.5403 55.7026C25.655 55.8582 25.8106 55.8912 25.8922 55.8971C25.9797 55.9009 26.1256 55.8873 26.2481 55.7668C26.4386 55.5821 26.4892 55.2962 26.3861 55.0551L23.942 49.4687C23.6931 48.9009 23.8311 48.2379 24.2861 47.814L29.1667 43.2834L31.152 45.4223L27.0297 49.249L29.0636 53.9001C29.6431 55.2612 29.332 56.8421 28.2936 57.8473C27.6753 58.4657 26.8197 58.8176 25.9272 58.8176Z" fill="black"/>
<path d="M37.4499 11.6783C35.8418 11.6783 34.5332 10.3697 34.5332 8.76164C34.5332 7.15358 35.8418 5.84497 37.4499 5.84497C39.0579 5.84497 40.3665 7.15358 40.3665 8.76164C40.3665 10.3697 39.0579 11.6783 37.4499 11.6783ZM37.4499 7.78942C36.9132 7.78942 36.4776 8.22497 36.4776 8.76164C36.4776 9.2983 36.9132 9.73386 37.4499 9.73386C37.9865 9.73386 38.4221 9.2983 38.4221 8.76164C38.4221 8.22497 37.9865 7.78942 37.4499 7.78942Z" fill="#A4AFC1"/>
<path d="M43.7248 46.9858C48.2888 46.9858 51.9887 43.2859 51.9887 38.7219C51.9887 34.1579 48.2888 30.458 43.7248 30.458C39.1608 30.458 35.4609 34.1579 35.4609 38.7219C35.4609 43.2859 39.1608 46.9858 43.7248 46.9858Z" fill="#FEB46D"/>
<path d="M39.8359 38.7219C39.8359 34.9205 42.4182 31.7511 45.9123 30.7886C45.2104 30.5941 44.487 30.458 43.7248 30.458C39.1612 30.458 35.4609 34.1583 35.4609 38.7219C35.4609 43.2855 39.1612 46.9858 43.7248 46.9858C44.487 46.9858 45.2104 46.8497 45.9123 46.6552C42.4182 45.6927 39.8359 42.5233 39.8359 38.7219Z" fill="#FF6600"/>
<path d="M39.3958 47.4353C36.0669 45.7728 34 42.4322 34 38.7222C34 33.3614 38.3614 29 43.7222 29C47.4342 29 50.7728 31.0669 52.4333 34.3958L49.8239 35.6986C48.6592 33.3653 46.3219 31.9167 43.7222 31.9167C39.9694 31.9167 36.9167 34.9694 36.9167 38.7222C36.9167 41.3219 38.3653 43.6611 40.6986 44.8278L39.3958 47.4353Z" fill="black"/>
<path d="M53.4514 56.7084C58.0154 56.7084 61.7153 53.0086 61.7153 48.4446C61.7153 43.8805 58.0154 40.1807 53.4514 40.1807C48.8874 40.1807 45.1875 43.8805 45.1875 48.4446C45.1875 53.0086 48.8874 56.7084 53.4514 56.7084Z" fill="#F3F3F1"/>
<path d="M49.5625 48.4446C49.5625 44.6432 52.1447 41.4737 55.6389 40.5112C54.9369 40.3187 54.2136 40.1807 53.4514 40.1807C48.8878 40.1807 45.1875 43.8809 45.1875 48.4446C45.1875 53.0082 48.8878 56.7084 53.4514 56.7084C54.2136 56.7084 54.9369 56.5723 55.6389 56.3779C52.1447 55.4154 49.5625 52.2459 49.5625 48.4446Z" fill="#D5DBE1"/>
<path d="M53.441 58.1666C48.0801 58.1666 43.7188 53.8052 43.7188 48.4444C43.7188 43.0836 48.0801 38.7222 53.441 38.7222C58.8018 38.7222 63.1632 43.0836 63.1632 48.4444C63.1632 53.8052 58.8018 58.1666 53.441 58.1666ZM53.441 41.6388C49.6882 41.6388 46.6354 44.6916 46.6354 48.4444C46.6354 52.1972 49.6882 55.2499 53.441 55.2499C57.1937 55.2499 60.2465 52.1972 60.2465 48.4444C60.2465 44.6916 57.1937 41.6388 53.441 41.6388Z" fill="black"/>
</svg>
