<svg width="70" height="70" viewBox="0 0 70 70" fill="none" xmlns="http://www.w3.org/2000/svg">
<path d="M61.8967 16.2886C61.8967 29.7384 68.8636 38.9745 68.8636 45.4553C68.8636 51.9361 65.1381 65.5472 35.3239 65.5472C5.50976 65.5472 1.13281 47.2364 1.13281 40.1081C1.13281 6.7278 61.8967 -7.53081 61.8967 16.2886Z" fill="#EFEFEF"/>
<path d="M61.2507 11.6666C59.6426 11.6666 58.334 10.358 58.334 8.74992C58.334 7.14186 59.6426 5.83325 61.2507 5.83325C62.8587 5.83325 64.1673 7.14186 64.1673 8.74992C64.1673 10.358 62.8587 11.6666 61.2507 11.6666ZM61.2507 7.7777C60.714 7.7777 60.2784 8.21325 60.2784 8.74992C60.2784 9.28659 60.714 9.72214 61.2507 9.72214C61.7873 9.72214 62.2229 9.28659 62.2229 8.74992C62.2229 8.21325 61.7873 7.7777 61.2507 7.7777Z" fill="#A4AFC1"/>
<path d="M52.0332 41.3195C51.8076 42.0972 51.5451 42.875 51.2282 43.6139C50.8354 44.5278 49.8224 46.2778 49.8224 46.2778C46.4682 51.7611 42.4957 56.875 35.0193 56.875C27.506 56.875 23.4013 51.6639 20.0471 46.0639C20.0471 46.0639 19.1663 44.45 18.8104 43.6139C18.4915 42.875 18.229 42.0972 18.0054 41.3195L17.0332 26.7439C17.5815 18.1495 25.5343 17.9939 25.5343 17.9939C25.5343 17.9939 25.5343 13.3661 35.0193 13.1328C42.8768 12.9189 52.4376 17.0995 53.0054 26.7439L52.0332 41.3195Z" fill="white"/>
<path d="M52.9861 41.3194H17.0139C14.8653 41.3194 13.125 39.5791 13.125 37.4305V30.625C13.125 28.4764 14.8653 26.7361 17.0139 26.7361H52.9861C55.1347 26.7361 56.875 28.4764 56.875 30.625V37.4305C56.875 39.5791 55.1347 41.3194 52.9861 41.3194Z" fill="#FEB46D"/>
<path d="M17.5 37.4305V30.625C17.5 28.4764 19.2403 26.7361 21.3889 26.7361H17.0139C14.8653 26.7361 13.125 28.4764 13.125 30.625V37.4305C13.125 39.5791 14.8653 41.3194 17.0139 41.3194H21.3889C19.2403 41.3194 17.5 39.5791 17.5 37.4305Z" fill="#FF6600"/>
<path d="M21.4082 26.7362C21.9624 18.1496 29.9074 17.994 29.9074 17.994C29.9074 17.994 29.9113 13.9496 37.6638 13.234C36.7713 13.1484 35.8826 13.1096 35.0174 13.1329C25.5324 13.3662 25.5324 17.994 25.5324 17.994C25.5324 17.994 17.5874 18.1496 17.0332 26.7362H21.4082Z" fill="#D5DBE1"/>
<path d="M24.4225 46.0638C24.4225 46.0638 23.5417 44.4499 23.1859 43.6138C22.867 42.8749 22.6045 42.0971 22.3809 41.3193H18.0059C18.2314 42.0971 18.4939 42.8749 18.8109 43.6138C19.1667 44.4499 20.0475 46.0638 20.0475 46.0638C23.4017 51.6638 27.5045 56.8749 35.0197 56.8749C35.7897 56.8749 36.5131 56.8088 37.2111 56.7057C31.0628 55.7977 27.4364 51.0941 24.4225 46.0638Z" fill="#D5DBE1"/>
<path d="M18.487 26.8371L15.5762 26.6505C16.0234 19.6427 21.0128 17.1382 24.367 16.6346C25.0534 14.8321 27.342 11.863 34.9817 11.6743C44.1576 11.4138 53.8603 16.4888 54.4592 26.6582L51.5484 26.8293C51.0001 17.5349 41.3692 14.4452 35.0576 14.591C28.8587 14.7446 27.0698 16.9146 26.9901 18.0424C26.9356 18.7949 26.3153 19.4385 25.5609 19.4541C24.8901 19.4716 18.9342 19.8468 18.487 26.8371Z" fill="black"/>
<path d="M35.0194 58.3334C26.8255 58.3334 22.3805 52.7956 18.7968 46.8125C18.7307 46.6939 17.8499 45.0761 17.4688 44.1856C17.1538 43.4545 16.8699 42.6475 16.6035 41.7239L19.4035 40.9131C19.6368 41.72 19.8819 42.4142 20.1482 43.0364C20.4185 43.6723 21.0893 44.9323 21.3246 45.3639C24.9277 51.3761 28.6493 55.4148 35.0155 55.4148C41.263 55.4148 44.8368 51.627 48.576 45.5156C48.8269 45.08 49.591 43.7189 49.8866 43.0364C50.1549 42.4123 50.398 41.7181 50.6293 40.915L53.4313 41.722C53.1649 42.6436 52.883 43.4506 52.5641 44.1895C52.1402 45.1714 51.1252 46.9311 51.0824 47.007C47.4774 52.9045 43.0499 58.3334 35.0194 58.3334Z" fill="black"/>
<path d="M52.9855 42.7778H17.0132C14.0635 42.7778 11.666 40.3803 11.666 37.4306V30.6251C11.666 27.6753 14.0635 25.2778 17.0132 25.2778H52.9855C55.9352 25.2778 58.3327 27.6753 58.3327 30.6251V37.4306C58.3327 40.3803 55.9352 42.7778 52.9855 42.7778ZM17.0132 28.1945C15.6735 28.1945 14.5827 29.2853 14.5827 30.6251V37.4306C14.5827 38.7703 15.6735 39.8612 17.0132 39.8612H52.9855C54.3252 39.8612 55.416 38.7703 55.416 37.4306V30.6251C55.416 29.2853 54.3252 28.1945 52.9855 28.1945H17.0132Z" fill="black"/>
<path d="M35.001 50.5536C33.179 50.5536 31.3571 50.1725 29.9376 49.4122L28.6523 48.7239L30.031 46.1533L31.3162 46.8417C33.3132 47.915 36.6907 47.915 38.6876 46.8417L39.9729 46.1533L41.3515 48.7239L40.0662 49.4122C38.6448 50.1725 36.8229 50.5536 35.001 50.5536Z" fill="black"/>
<path d="M21.3887 32.0833H48.6109V34.9999H21.3887V32.0833Z" fill="black"/>
</svg>
