<svg width="70" height="70" viewBox="0 0 70 70" fill="none" xmlns="http://www.w3.org/2000/svg">
<path d="M53.7117 8.10244C40.262 8.10244 31.0259 1.1355 24.5451 1.1355C18.0642 1.1355 4.45312 4.86105 4.45312 34.6752C4.45312 64.4894 22.764 68.8644 29.8923 68.8644C63.2726 68.8663 77.5312 8.10244 53.7117 8.10244Z" fill="#EFEFEF"/>
<path d="M59.5312 6.8064L62.2811 4.05654L63.656 5.43147L60.9062 8.18133L59.5312 6.8064Z" fill="#A4AFC1"/>
<path d="M60.2109 12.9841L61.5859 11.6092L64.3357 14.3591L62.9608 15.734L60.2109 12.9841Z" fill="#A4AFC1"/>
<path d="M52.3047 5.07983L53.6796 3.7049L56.4295 6.45476L55.0545 7.82969L52.3047 5.07983Z" fill="#A4AFC1"/>
<path d="M52.9861 54.9306H17.0139C14.8653 54.9306 13.125 53.1903 13.125 51.0417V21.875H56.875V51.0417C56.875 53.1903 55.1347 54.9306 52.9861 54.9306Z" fill="white"/>
<path d="M56.875 21.8749H13.125V18.9582C13.125 16.8096 14.8653 15.0693 17.0139 15.0693H52.9861C55.1347 15.0693 56.875 16.8096 56.875 18.9582V21.8749Z" fill="#FEB46D"/>
<path d="M26.2496 43.2638C29.2028 43.2638 31.5968 40.8697 31.5968 37.9166C31.5968 34.9634 29.2028 32.5693 26.2496 32.5693C23.2964 32.5693 20.9023 34.9634 20.9023 37.9166C20.9023 40.8697 23.2964 43.2638 26.2496 43.2638Z" fill="#FEB46D"/>
<path d="M43.7496 43.2638C46.7028 43.2638 49.0968 40.8697 49.0968 37.9166C49.0968 34.9634 46.7028 32.5693 43.7496 32.5693C40.7964 32.5693 38.4023 34.9634 38.4023 37.9166C38.4023 40.8697 40.7964 43.2638 43.7496 43.2638Z" fill="#FEB46D"/>
<path d="M21.3889 15.0693H17.0139C14.8653 15.0693 13.125 16.8096 13.125 18.9582V21.8749H17.5V18.9582C17.5 16.8096 19.2403 15.0693 21.3889 15.0693Z" fill="#FF6600"/>
<path d="M25.2773 37.9166C25.2773 35.7446 26.5782 33.8838 28.4371 33.0477C27.7682 32.7463 27.0312 32.5693 26.2496 32.5693C23.296 32.5693 20.9023 34.9629 20.9023 37.9166C20.9023 40.8702 23.296 43.2638 26.2496 43.2638C27.0312 43.2638 27.7682 43.0868 28.4371 42.7854C26.5782 41.9493 25.2773 40.0885 25.2773 37.9166Z" fill="#FF6600"/>
<path d="M42.7773 37.9166C42.7773 35.7446 44.0782 33.8838 45.9371 33.0477C45.2682 32.7463 44.5312 32.5693 43.7496 32.5693C40.796 32.5693 38.4023 34.9629 38.4023 37.9166C38.4023 40.8702 40.796 43.2638 43.7496 43.2638C44.5312 43.2638 45.2682 43.0868 45.9371 42.7854C44.0782 41.9493 42.7773 40.0885 42.7773 37.9166Z" fill="#FF6600"/>
<path d="M17.5 51.0417V21.875H13.125V51.0417C13.125 53.1903 14.8653 54.9306 17.0139 54.9306H21.3889C19.2403 54.9306 17.5 53.1903 17.5 51.0417Z" fill="#D5DBE1"/>
<path d="M52.9855 56.3889H17.0132C14.0635 56.3889 11.666 53.9914 11.666 51.0416V18.9583C11.666 16.0086 14.0635 13.6111 17.0132 13.6111H52.9855C55.9352 13.6111 58.3327 16.0086 58.3327 18.9583V51.0416C58.3327 53.9914 55.9352 56.3889 52.9855 56.3889ZM17.0132 16.5278C15.6735 16.5278 14.5827 17.6186 14.5827 18.9583V51.0416C14.5827 52.3814 15.6735 53.4722 17.0132 53.4722H52.9855C54.3252 53.4722 55.416 52.3814 55.416 51.0416V18.9583C55.416 17.6186 54.3252 16.5278 52.9855 16.5278H17.0132Z" fill="black"/>
<path d="M13.125 20.4167H56.875V23.3334H13.125V20.4167Z" fill="black"/>
<path d="M26.2509 44.7222C22.4981 44.7222 19.4453 41.6694 19.4453 37.9166C19.4453 34.1639 22.4981 31.1111 26.2509 31.1111C30.0036 31.1111 33.0564 34.1639 33.0564 37.9166C33.0564 41.6694 30.0036 44.7222 26.2509 44.7222ZM26.2509 34.0278C24.1061 34.0278 22.362 35.7719 22.362 37.9166C22.362 40.0614 24.1061 41.8055 26.2509 41.8055C28.3956 41.8055 30.1398 40.0614 30.1398 37.9166C30.1398 35.7719 28.3956 34.0278 26.2509 34.0278Z" fill="black"/>
<path d="M43.7509 44.7222C39.9981 44.7222 36.9453 41.6694 36.9453 37.9166C36.9453 34.1639 39.9981 31.1111 43.7509 31.1111C47.5036 31.1111 50.5564 34.1639 50.5564 37.9166C50.5564 41.6694 47.5036 44.7222 43.7509 44.7222ZM43.7509 34.0278C41.6061 34.0278 39.862 35.7719 39.862 37.9166C39.862 40.0614 41.6061 41.8055 43.7509 41.8055C45.8956 41.8055 47.6398 40.0614 47.6398 37.9166C47.6398 35.7719 45.8956 34.0278 43.7509 34.0278Z" fill="black"/>
<path d="M37.5197 37.7124C35.966 36.7868 34.0333 36.7868 32.4797 37.7124L30.9863 35.206C33.4616 33.7321 36.5358 33.7321 39.0111 35.206L37.5197 37.7124Z" fill="black"/>
<path d="M3.88867 53.4722H66.1109V56.3888H3.88867V53.4722Z" fill="black"/>
</svg>
