<svg width="70" height="70" viewBox="0 0 70 70" fill="none" xmlns="http://www.w3.org/2000/svg">
<path d="M16.2889 8.10269C29.7386 8.10269 38.9747 1.13574 45.4555 1.13574C51.9364 1.13574 65.5475 4.8613 65.5475 34.6755C65.5475 64.4896 47.2367 68.8646 40.1083 68.8646C6.72805 68.8666 -7.53057 8.10269 16.2889 8.10269Z" fill="#F3F3F1"/>
<path d="M61.5391 6.52051L64.2889 3.77065L65.6639 5.14558L62.914 7.89544L61.5391 6.52051Z" fill="#A4AFC1"/>
<path d="M61.8809 13.0522L63.2558 11.6773L66.0056 14.4272L64.6307 15.8021L61.8809 13.0522Z" fill="#A4AFC1"/>
<path d="M53.9766 5.146L55.3515 3.77107L58.1014 6.52093L56.7264 7.89586L53.9766 5.146Z" fill="#A4AFC1"/>
<path d="M56.875 18.9582V21.8749H13.125V18.9582C13.125 16.8193 14.875 15.0693 17.0139 15.0693H52.9861C55.125 15.0693 56.875 16.8193 56.875 18.9582Z" fill="#FEB46D"/>
<path d="M56.875 21.875V51.0417C56.875 53.1806 55.125 54.9306 52.9861 54.9306H17.0139C14.875 54.9306 13.125 53.1806 13.125 51.0417V21.875H56.875Z" fill="#EFEFEF"/>
<path d="M21.3889 15.0693H17.0139C14.875 15.0693 13.125 16.8193 13.125 18.9582V21.8749H17.5V18.9582C17.5 16.8193 19.25 15.0693 21.3889 15.0693Z" fill="#FF6600"/>
<path d="M17.5 51.0417V21.875H13.125V51.0417C13.125 53.1806 14.875 54.9306 17.0139 54.9306H21.3889C19.25 54.9306 17.5 53.1806 17.5 51.0417Z" fill="#D5DBE1"/>
<path d="M22.3611 30.1388H18.9583C18.1533 30.1388 17.5 29.4855 17.5 28.6805C17.5 27.8755 18.1533 27.2222 18.9583 27.2222H22.3611C23.1661 27.2222 23.8194 27.8755 23.8194 28.6805C23.8194 29.4855 23.1661 30.1388 22.3611 30.1388Z" fill="black"/>
<path d="M22.3611 50.5553H18.9583C18.1533 50.5553 17.5 49.902 17.5 49.097C17.5 48.292 18.1533 47.6387 18.9583 47.6387H22.3611C23.1661 47.6387 23.8194 48.292 23.8194 49.097C23.8194 49.902 23.1661 50.5553 22.3611 50.5553Z" fill="black"/>
<path d="M33.5425 35.0002H20.9036C20.0986 35.0002 19.4453 34.3468 19.4453 33.5418C19.4453 32.7368 20.0986 32.0835 20.9036 32.0835H33.5425C34.3475 32.0835 35.0009 32.7368 35.0009 33.5418C35.0009 34.3468 34.3475 35.0002 33.5425 35.0002Z" fill="black"/>
<path d="M51.0414 39.861H22.847C22.042 39.861 21.3887 39.2077 21.3887 38.4027C21.3887 37.5977 22.042 36.9443 22.847 36.9443H51.0414C51.8464 36.9443 52.4998 37.5977 52.4998 38.4027C52.4998 39.2077 51.8464 39.861 51.0414 39.861Z" fill="black"/>
<path d="M33.5425 45.6945H20.9036C20.0986 45.6945 19.4453 45.0412 19.4453 44.2362C19.4453 43.4312 20.0986 42.7778 20.9036 42.7778H33.5425C34.3475 42.7778 35.0009 43.4312 35.0009 44.2362C35.0009 45.0412 34.3475 45.6945 33.5425 45.6945Z" fill="black"/>
<path d="M52.9855 56.3891H17.0132C14.0635 56.3891 11.666 53.9916 11.666 51.0419V18.9586C11.666 16.0088 14.0635 13.6113 17.0132 13.6113H52.9855C55.9352 13.6113 58.3327 16.0088 58.3327 18.9586V51.0419C58.3327 53.9916 55.9352 56.3891 52.9855 56.3891ZM17.0132 16.528C15.6735 16.528 14.5827 17.6188 14.5827 18.9586V51.0419C14.5827 52.3816 15.6735 53.4724 17.0132 53.4724H52.9855C54.3252 53.4724 55.416 52.3816 55.416 51.0419V18.9586C55.416 17.6188 54.3252 16.528 52.9855 16.528H17.0132Z" fill="black"/>
<path d="M56.8744 23.3332H13.1243C12.3193 23.3332 11.666 22.6798 11.666 21.8748C11.666 21.0698 12.3193 20.4165 13.1243 20.4165H56.8744C57.6794 20.4165 58.3327 21.0698 58.3327 21.8748C58.3327 22.6798 57.6794 23.3332 56.8744 23.3332Z" fill="black"/>
</svg>
