<svg width="70" height="70" viewBox="0 0 70 70" fill="none" xmlns="http://www.w3.org/2000/svg">
<path d="M16.2889 8.10269C29.7386 8.10269 38.9747 1.13574 45.4555 1.13574C51.9364 1.13574 65.5475 4.8613 65.5475 34.6755C65.5475 64.4896 47.2367 68.8646 40.1083 68.8646C6.72805 68.8666 -7.53057 8.10269 16.2889 8.10269Z" fill="#EFEFEF"/>
<path d="M52.3105 5.08789L53.6855 3.71296L56.4353 6.46282L55.0604 7.83775L52.3105 5.08789Z" fill="#A4AFC1"/>
<path d="M60.2168 12.9937L61.5917 11.6187L64.3416 14.3686L62.9667 15.7435L60.2168 12.9937Z" fill="#A4AFC1"/>
<path d="M59.875 6.46338L62.6249 3.71352L63.9998 5.08845L61.2499 7.83831L59.875 6.46338Z" fill="#A4AFC1"/>
<path d="M52.9861 52.9862H17.0139C14.8653 52.9862 13.125 51.2459 13.125 49.0973V19.9307H56.875V49.0973C56.875 51.2459 55.1347 52.9862 52.9861 52.9862Z" fill="white"/>
<path d="M56.875 19.9306H13.125V17.0139C13.125 14.8653 14.8653 13.125 17.0139 13.125H52.9861C55.1347 13.125 56.875 14.8653 56.875 17.0139V19.9306Z" fill="#FEB46D"/>
<path d="M35.5821 29.3865L36.8576 28.8071C37.5985 28.4707 38.4676 28.8304 38.7535 29.5926L39.2454 30.9051C39.3873 31.2843 39.6868 31.5837 40.0679 31.7276L41.3804 32.2196C42.1426 32.5054 42.5023 33.3765 42.166 34.1154L41.5865 35.391C41.4193 35.7604 41.4193 36.1843 41.5865 36.5537L42.166 37.8293C42.5023 38.5701 42.1426 39.4393 41.3804 39.7251L40.0679 40.2171C39.6887 40.359 39.3893 40.6585 39.2454 41.0396L38.7535 42.3521C38.4676 43.1143 37.5965 43.474 36.8576 43.1376L35.5821 42.5582C35.2126 42.391 34.7887 42.391 34.4193 42.5582L33.1437 43.1376C32.4029 43.474 31.5337 43.1143 31.2479 42.3521L30.756 41.0396C30.614 40.6604 30.3146 40.361 29.9335 40.2171L28.621 39.7251C27.8587 39.4393 27.499 38.5682 27.8354 37.8293L28.4148 36.5537C28.5821 36.1843 28.5821 35.7604 28.4148 35.391L27.8354 34.1154C27.499 33.3746 27.8587 32.5054 28.621 32.2196L29.9335 31.7276C30.3126 31.5857 30.6121 31.2862 30.756 30.9051L31.2479 29.5926C31.5337 28.8304 32.4048 28.4707 33.1437 28.8071L34.4193 29.3865C34.7887 29.5537 35.2126 29.5537 35.5821 29.3865Z" fill="#FEB46D"/>
<path d="M39.375 40.8525V56.8748L35 52.9859L30.625 56.8748V40.8525H39.375Z" fill="#FEB46D"/>
<path d="M21.3889 13.125H17.0139C14.8653 13.125 13.125 14.8653 13.125 17.0139V19.9306H17.5V17.0139C17.5 14.8653 19.2403 13.125 21.3889 13.125Z" fill="#FF6600"/>
<path d="M35.6229 42.3521L35.131 41.0396C34.989 40.6604 34.6896 40.361 34.3085 40.2171L32.996 39.7251C32.2337 39.4393 31.874 38.5682 32.2104 37.8293L32.7898 36.5537C32.9571 36.1843 32.9571 35.7604 32.7898 35.391L32.2104 34.1154C31.874 33.3746 32.2337 32.5054 32.996 32.2196L34.3085 31.7276C34.6876 31.5857 34.9871 31.2862 35.131 30.9051L35.6229 29.5926C35.6696 29.4701 35.7512 29.3768 35.8232 29.2776L35.5821 29.3865C35.2126 29.5537 34.7887 29.5537 34.4193 29.3865L33.1437 28.8071C32.4029 28.4707 31.5337 28.8304 31.2479 29.5926L30.756 30.9051C30.614 31.2843 30.3146 31.5837 29.9335 31.7276L28.621 32.2196C27.8587 32.5054 27.499 33.3765 27.8354 34.1154L28.4148 35.391C28.5821 35.7604 28.5821 36.1843 28.4148 36.5537L27.8354 37.8293C27.499 38.5701 27.8587 39.4393 28.621 39.7251L29.9335 40.2171C30.3126 40.359 30.6121 40.6585 30.756 41.0396L31.2479 42.3521C31.5337 43.1143 32.4048 43.474 33.1437 43.1376L34.4193 42.5582C34.7887 42.391 35.2126 42.391 35.5821 42.5582L35.8232 42.6671C35.7493 42.5679 35.6676 42.4746 35.6229 42.3521Z" fill="#FF6600"/>
<path d="M35 40.8525H30.625V56.8748L35 52.9859V40.8525Z" fill="#FF6600"/>
<path d="M17.5 49.0973V19.9307H13.125V49.0973C13.125 51.2459 14.8653 52.9862 17.0139 52.9862H21.3889C19.2403 52.9862 17.5 51.2459 17.5 49.0973Z" fill="#D5DBE1"/>
<path d="M32.5623 44.7204C32.1909 44.7204 31.8176 44.6485 31.4676 44.5046C30.7385 44.2032 30.159 43.6043 29.8829 42.8635L29.3909 41.5529L28.1096 41.0921C27.3687 40.8121 26.7718 40.2365 26.4704 39.5073C26.169 38.7782 26.1826 37.946 26.5093 37.2285L27.0907 35.951L26.5112 34.7201C26.1846 33.9987 26.1709 33.1665 26.4723 32.4373C26.7757 31.7082 27.3726 31.1326 28.1115 30.8546L29.4221 30.3626L29.8848 29.0812C30.161 28.3443 30.7365 27.7454 31.4657 27.444C32.1987 27.1426 33.029 27.1562 33.7485 27.481L35.0007 28.0487L36.2548 27.479C36.9743 27.1523 37.8065 27.1387 38.5376 27.4401C39.2668 27.7435 39.8423 28.3404 40.1204 29.0793L40.6123 30.3898L41.8937 30.8526C42.6307 31.1287 43.2296 31.7043 43.5309 32.4335C43.8343 33.1626 43.8207 33.9948 43.494 34.7162L42.9126 35.9937L43.4921 37.2246C43.8187 37.944 43.8323 38.7762 43.5309 39.5054C43.2296 40.2346 42.6326 40.8121 41.8937 41.0901L40.5793 41.5821L40.1184 42.8635C39.8423 43.6023 39.2648 44.2012 38.5337 44.5026C37.8046 44.804 36.9723 44.7904 36.2509 44.4618L34.9773 43.8823L33.7446 44.4618C33.3732 44.6348 32.9668 44.7204 32.5623 44.7204ZM32.539 30.1351L32.119 31.4185C31.8293 32.1923 31.2187 32.8029 30.4429 33.0926L29.1323 33.5846L29.7409 34.7882C30.0812 35.5426 30.0812 36.404 29.7409 37.1565L29.1596 38.434L30.4409 38.854C31.2148 39.1437 31.8254 39.7543 32.1171 40.5282L32.609 41.8407L33.8126 41.2321C34.5671 40.8898 35.4285 40.8918 36.179 41.2301L37.4565 41.8115L37.8765 40.5301C38.1662 39.7562 38.7768 39.1457 39.5526 38.856L40.8651 38.364L40.2546 37.1604C39.9143 36.406 39.9143 35.5446 40.2546 34.794L40.8359 33.5146L39.5526 33.0946C38.7787 32.8048 38.1682 32.1943 37.8784 31.4185L37.3865 30.1079L36.1829 30.7165C35.4323 31.0568 34.5671 31.0568 33.8165 30.7165L32.539 30.1351Z" fill="black"/>
<path d="M39.3743 58.3331C39.0243 58.3331 38.6782 58.2067 38.406 57.9656L34.9993 54.9381L31.5927 57.9656C31.163 58.3448 30.5524 58.44 30.0274 58.2067C29.5024 57.9695 29.166 57.4484 29.166 56.8748V40.8525H32.0827V53.6275L34.031 51.895C34.5832 51.405 35.4155 51.405 35.9677 51.895L37.916 53.6275V40.8525H40.8327V56.8748C40.8327 57.4484 40.4963 57.9695 39.9713 58.2067C39.7788 58.2923 39.5766 58.3331 39.3743 58.3331Z" fill="black"/>
<path d="M52.9855 54.4443H44.7216V51.5276H52.9855C54.3252 51.5276 55.416 50.4368 55.416 49.0971V17.0137C55.416 15.674 54.3252 14.5832 52.9855 14.5832H17.0132C15.6735 14.5832 14.5827 15.674 14.5827 17.0137V49.0971C14.5827 50.4368 15.6735 51.5276 17.0132 51.5276H25.2771V54.4443H17.0132C14.0635 54.4443 11.666 52.0468 11.666 49.0971V17.0137C11.666 14.064 14.0635 11.6665 17.0132 11.6665H52.9855C55.9352 11.6665 58.3327 14.064 58.3327 17.0137V49.0971C58.3327 52.0468 55.9352 54.4443 52.9855 54.4443Z" fill="black"/>
<path d="M13.125 18.4722H56.875V21.3888H13.125V18.4722Z" fill="black"/>
</svg>
