<svg width="70" height="70" viewBox="0 0 70 70" fill="none" xmlns="http://www.w3.org/2000/svg">
<path d="M16.2889 61.8977C29.7386 61.8977 38.9747 68.8646 45.4555 68.8646C51.9364 68.8646 65.5475 65.1391 65.5475 35.3249C65.5475 5.51073 47.2367 1.13379 40.1083 1.13379C6.72805 1.13379 -7.53057 61.8977 16.2889 61.8977Z" fill="#F3F3F1"/>
<path d="M59.793 13.9556L61.1679 12.5806L63.9178 15.3305L62.5428 16.7054L59.793 13.9556Z" fill="#A4AFC1"/>
<path d="M51.8906 6.05225L53.2656 4.67732L56.0154 7.42718L54.6405 8.80211L51.8906 6.05225Z" fill="#A4AFC1"/>
<path d="M59.8008 7.7793L62.5506 5.02944L63.9256 6.40437L61.1757 9.15423L59.8008 7.7793Z" fill="#A4AFC1"/>
<path d="M56.875 20.9026V23.8192H13.125V20.9026C13.125 18.7637 14.875 17.0137 17.0139 17.0137H52.9861C55.125 17.0137 56.875 18.7637 56.875 20.9026Z" fill="#FEB46D"/>
<path d="M56.875 23.8193V52.986C56.875 55.1249 55.125 56.8749 52.9861 56.8749H17.0139C14.875 56.8749 13.125 55.1249 13.125 52.986V23.8193H56.875Z" fill="white"/>
<path d="M27.4297 46.8325H30.3464V51.5556H27.4297V46.8325Z" fill="black"/>
<path d="M29.2933 49.7494H25V46.8328H29.2933C29.5617 46.8328 29.8611 46.5061 29.8611 46.0355C29.8611 45.565 29.5617 45.2364 29.2933 45.2364H28.4844C26.5633 45.2364 25 43.57 25 41.5205C25 39.4711 26.5633 37.8066 28.4844 37.8066H32.7778V40.7233H28.4844C28.2161 40.7233 27.9167 41.05 27.9167 41.5205C27.9167 41.9911 28.2161 42.3197 28.4844 42.3197H29.2933C31.2144 42.3197 32.7778 43.9861 32.7778 46.0355C32.7778 48.085 31.2144 49.7494 29.2933 49.7494Z" fill="black"/>
<path d="M27.4297 36H30.3464V40.7231H27.4297V36Z" fill="black"/>
<path d="M45.6962 35.4861C51.871 35.4861 56.8767 30.4804 56.8767 24.3056C56.8767 18.1307 51.871 13.125 45.6962 13.125C39.5213 13.125 34.5156 18.1307 34.5156 24.3056C34.5156 30.4804 39.5213 35.4861 45.6962 35.4861Z" fill="#EFEFEF"/>
<path d="M21.3889 17.0137H17.0139C14.875 17.0137 13.125 18.7637 13.125 20.9026V23.8192H17.5V20.9026C17.5 18.7637 19.25 17.0137 21.3889 17.0137Z" fill="#FF6600"/>
<path d="M17.5 52.986V23.8193H13.125V52.986C13.125 55.1249 14.875 56.8749 17.0139 56.8749H21.3889C19.25 56.8749 17.5 55.1249 17.5 52.986Z" fill="#D5DBE1"/>
<path d="M38.8906 24.3056C38.8906 18.8806 42.7562 14.3597 47.8837 13.3428C47.1759 13.2008 46.4448 13.125 45.6962 13.125C39.5206 13.125 34.5156 18.13 34.5156 24.3056C34.5156 30.4811 39.5206 35.4861 45.6962 35.4861C46.4448 35.4861 47.1759 35.4103 47.8837 35.2683C42.7562 34.2514 38.8906 29.7306 38.8906 24.3056Z" fill="#D5DBE1"/>
<path d="M45.6936 36.9443C38.7247 36.9443 33.0547 31.2743 33.0547 24.3054C33.0547 17.3365 38.7247 11.6665 45.6936 11.6665C52.6625 11.6665 58.3325 17.3365 58.3325 24.3054C58.3325 31.2743 52.6625 36.9443 45.6936 36.9443ZM45.6936 14.5832C40.3327 14.5832 35.9714 18.9446 35.9714 24.3054C35.9714 29.6662 40.3327 34.0276 45.6936 34.0276C51.0544 34.0276 55.4158 29.6662 55.4158 24.3054C55.4158 18.9446 51.0544 14.5832 45.6936 14.5832Z" fill="black"/>
<path d="M40.832 13.6499H43.7487V34.961H40.832V13.6499Z" fill="black"/>
<path d="M47.6406 13.6499H50.5573V34.961H47.6406V13.6499Z" fill="black"/>
<path d="M35.0391 19.4443H56.3521V22.361H35.0391V19.4443Z" fill="black"/>
<path d="M35.0391 26.25H56.3521V29.1667H35.0391V26.25Z" fill="black"/>
<path d="M52.9874 58.3334H17.0152C14.0655 58.3334 11.668 55.9359 11.668 52.9862V20.9029C11.668 17.9532 14.0655 15.5557 17.0152 15.5557H30.3346C31.1396 15.5557 31.793 16.209 31.793 17.014C31.793 17.819 31.1396 18.4723 30.3346 18.4723H17.0152C15.6755 18.4723 14.5846 19.5632 14.5846 20.9029V52.9862C14.5846 54.3259 15.6755 55.4168 17.0152 55.4168H52.9874C54.3271 55.4168 55.418 54.3259 55.418 52.9862V37.0807C55.418 36.2757 56.0713 35.6223 56.8763 35.6223C57.6813 35.6223 58.3346 36.2757 58.3346 37.0807V52.9862C58.3346 55.9359 55.9371 58.3334 52.9874 58.3334Z" fill="black"/>
<path d="M28.7013 25.278H13.1263C12.3213 25.278 11.668 24.6247 11.668 23.8197C11.668 23.0147 12.3213 22.3613 13.1263 22.3613H28.7013C29.5063 22.3613 30.1596 23.0147 30.1596 23.8197C30.1596 24.6247 29.5063 25.278 28.7013 25.278Z" fill="black"/>
</svg>
