<svg version="1.1" xmlns="http://www.w3.org/2000/svg" xmlns:xlink="http://www.w3.org/1999/xlink" x="0px" y="0px" viewBox="0 0 415 360" style="enable-background:new 0 0 468 360;" xml:space="preserve">
         <style type="text/css">
            .st0 {
               fill: none;
               stroke: #1818A9;
               stroke-width: 5;
            }

            .st1 {
               fill: none;
               stroke: url(#SVGID_1_);
               stroke-width: 10;
            }

            .st2 {
               fill: #1A75E2;
            }

            .st3 {
               fill: none;
               stroke: url(#SVGID_2_);
               stroke-width: 10;
            }

            .st4 {
               fill-opacity: 0.1;
               stroke: #1B2BC3;
               stroke-dasharray: 8, 8;
            }

            .st5 {
               clip-path: url(#SVGID_4_);
            }

            .st6 {
               fill: #F7931A;
            }

            .st7 {
               fill: #FFFFFF;
            }

            .st8 {
               fill: none;
               stroke: #FFFFFF;
               stroke-width: 4.5;
            }

            .st9 {
               fill: #E9E9E9;
            }

            .st10 {
               fill: #343434;
            }

            .st11 {
               fill: #8C8C8C;
            }

            .st12 {
               fill: #3C3C3B;
            }

            .st13 {
               fill: #141414;
            }

            .st14 {
               fill: #393939;
            }

            .st15 {
               fill: #BBA025;
            }

            .st16 {
               fill: #F0EFEB;
            }

            .st17 {
               fill: #0AC18E;
            }

            .st18 {
               fill: #ECECEC;
            }

            .st19 {
               fill: #F0B90B;
            }

            .st20 {
               fill: #FFFFFF;
               stroke: #FFFFFF;
               stroke-width: 4.5;
            }

            .st21 {
               fill: #4055DC;
            }

            .st22 {
               clip-path: url(#SVGID_6_);
            }

            .st23 {
               fill: #26A17B;
            }

            .st24 {
               fill: none;
               stroke: #000000;
               stroke-miterlimit: 10;
            }
         </style>
         <g id="Слой_1">
            <path class="st0" d="M126,109c0,0,34,0,76.5,0c26.3,0,48,19.7,68.5,33.5c15.2,10.2,30.9,24.5,50.2,24.5c32.8,0,93.8,0,93.8,0" />
            <path class="st0" d="M415,199c0,0-34,0-76.5,0c-26.3,0-48,9.5-70.5,24.5c-15.1,10-28.9,28.5-48.2,28.5c-32.8,0-93.8,0-93.8,0" />

            <linearGradient id="SVGID_1_" gradientUnits="userSpaceOnUse" x1="133.774" y1="188.9567" x2="407.217" y2="133.0437" gradientTransform="matrix(1 0 0 -1 0 362)">
               <stop offset="0" style="stop-color:#000099" />
               <stop offset="1" style="stop-color:#0050FF" />
            </linearGradient>
            <path class="st1" d="M103.5,109h135.4c14.1,0,27.9,4.1,39.8,11.8l32.2,20.9c11.8,7.7,25.7,11.8,39.8,11.8H416 M76,183h340
		 M103.5,254h135.8c13.9,0,27.4-3.9,39.1-11.4l32.7-20.7c11.7-7.4,25.3-11.4,39.1-11.4H416" />
            <path class="st2" d="M128.2,183.2c0.1-0.1,0.1-0.4,0-0.5l-2.2-2.2c-0.1-0.1-0.4-0.1-0.5,0c-0.1,0.1-0.1,0.4,0,0.5l2,2l-2,2
		c-0.1,0.1-0.1,0.4,0,0.5c0.1,0.1,0.4,0.1,0.5,0L128.2,183.2z M127,183.4h1v-0.7h-1V183.4z" />
            <path class="st2" d="M139.2,183.2c0.1-0.1,0.1-0.4,0-0.5l-2.2-2.2c-0.1-0.1-0.4-0.1-0.5,0c-0.1,0.1-0.1,0.4,0,0.5l2,2l-2,2
		c-0.1,0.1-0.1,0.4,0,0.5c0.1,0.1,0.4,0.1,0.5,0L139.2,183.2z M137.9,183.4h1v-0.7h-1V183.4z" />
            <path class="st2" d="M150.1,183.2c0.1-0.1,0.1-0.4,0-0.5l-2.2-2.2c-0.1-0.1-0.4-0.1-0.5,0c-0.1,0.1-0.1,0.4,0,0.5l2,2l-2,2
		c-0.1,0.1-0.1,0.4,0,0.5c0.1,0.1,0.4,0.1,0.5,0L150.1,183.2z M148.9,183.4h1v-0.7h-1V183.4z" />
            <path class="st2" d="M162.7,183.2c0.1-0.1,0.1-0.4,0-0.5l-2.2-2.2c-0.1-0.1-0.4-0.1-0.5,0c-0.1,0.1-0.1,0.4,0,0.5l2,2l-2,2
		c-0.1,0.1-0.1,0.4,0,0.5c0.1,0.1,0.4,0.1,0.5,0L162.7,183.2z M161.4,183.4h1v-0.7h-1V183.4z" />
            <path class="st2" d="M173.6,183.2c0.1-0.1,0.1-0.4,0-0.5l-2.2-2.2c-0.1-0.1-0.4-0.1-0.5,0c-0.1,0.1-0.1,0.4,0,0.5l2,2l-2,2
		c-0.1,0.1-0.1,0.4,0,0.5c0.1,0.1,0.4,0.1,0.5,0L173.6,183.2z M172.4,183.4h1v-0.7h-1V183.4z" />
            <path class="st2" d="M186.2,183.2c0.1-0.1,0.1-0.4,0-0.5l-2.2-2.2c-0.1-0.1-0.4-0.1-0.5,0c-0.1,0.1-0.1,0.4,0,0.5l2,2l-2,2
		c-0.1,0.1-0.1,0.4,0,0.5c0.1,0.1,0.4,0.1,0.5,0L186.2,183.2z M185,183.4h1v-0.7h-1V183.4z" />
            <path class="st2" d="M197.1,183.2c0.1-0.1,0.1-0.4,0-0.5l-2.2-2.2c-0.1-0.1-0.4-0.1-0.5,0c-0.1,0.1-0.1,0.4,0,0.5l2,2l-2,2
		c-0.1,0.1-0.1,0.4,0,0.5c0.1,0.1,0.4,0.1,0.5,0L197.1,183.2z M195.9,183.4h1v-0.7h-1V183.4z" />
            <path class="st2" d="M209.7,183.2c0.1-0.1,0.1-0.4,0-0.5l-2.2-2.2c-0.1-0.1-0.4-0.1-0.5,0c-0.1,0.1-0.1,0.4,0,0.5l2,2l-2,2
		c-0.1,0.1-0.1,0.4,0,0.5c0.1,0.1,0.4,0.1,0.5,0L209.7,183.2z M208.5,183.4h1v-0.7h-1V183.4z" />
            <path class="st2" d="M220.6,183.2c0.1-0.1,0.1-0.4,0-0.5l-2.2-2.2c-0.1-0.1-0.4-0.1-0.5,0c-0.1,0.1-0.1,0.4,0,0.5l2,2l-2,2
		c-0.1,0.1-0.1,0.4,0,0.5c0.1,0.1,0.4,0.1,0.5,0L220.6,183.2z M219.4,183.4h1v-0.7h-1V183.4z" />
            <path class="st2" d="M233.2,183.2c0.1-0.1,0.1-0.4,0-0.5l-2.2-2.2c-0.1-0.1-0.4-0.1-0.5,0c-0.1,0.1-0.1,0.4,0,0.5l2,2l-2,2
		c-0.1,0.1-0.1,0.4,0,0.5c0.1,0.1,0.4,0.1,0.5,0L233.2,183.2z M232,183.4h1v-0.7h-1V183.4z" />
            <path class="st2" d="M244.1,183.2c0.1-0.1,0.1-0.4,0-0.5l-2.2-2.2c-0.1-0.1-0.4-0.1-0.5,0c-0.1,0.1-0.1,0.4,0,0.5l2,2l-2,2
		c-0.1,0.1-0.1,0.4,0,0.5c0.1,0.1,0.4,0.1,0.5,0L244.1,183.2z M242.9,183.4h1v-0.7h-1V183.4z" />
            <path class="st2" d="M256.7,183.2c0.1-0.1,0.1-0.4,0-0.5l-2.2-2.2c-0.1-0.1-0.4-0.1-0.5,0c-0.1,0.1-0.1,0.4,0,0.5l2,2l-2,2
		c-0.1,0.1-0.1,0.4,0,0.5c0.1,0.1,0.4,0.1,0.5,0L256.7,183.2z M255.5,183.4h1v-0.7h-1V183.4z" />
            <path class="st2" d="M267.7,183.2c0.1-0.1,0.1-0.4,0-0.5l-2.2-2.2c-0.1-0.1-0.4-0.1-0.5,0c-0.1,0.1-0.1,0.4,0,0.5l2,2l-2,2
		c-0.1,0.1-0.1,0.4,0,0.5c0.1,0.1,0.4,0.1,0.5,0L267.7,183.2z M266.4,183.4h1v-0.7h-1V183.4z" />
            <path class="st2" d="M280.2,183.2c0.1-0.1,0.1-0.4,0-0.5l-2.2-2.2c-0.1-0.1-0.4-0.1-0.5,0c-0.1,0.1-0.1,0.4,0,0.5l2,2l-2,2
		c-0.1,0.1-0.1,0.4,0,0.5c0.1,0.1,0.4,0.1,0.5,0L280.2,183.2z M279,183.4h1v-0.7h-1V183.4z" />
            <path class="st2" d="M291.2,183.2c0.1-0.1,0.1-0.4,0-0.5l-2.2-2.2c-0.1-0.1-0.4-0.1-0.5,0c-0.1,0.1-0.1,0.4,0,0.5l2,2l-2,2
		c-0.1,0.1-0.1,0.4,0,0.5c0.1,0.1,0.4,0.1,0.5,0L291.2,183.2z M289.9,183.4h1v-0.7h-1V183.4z" />
            <path class="st2" d="M303.7,183.2c0.1-0.1,0.1-0.4,0-0.5l-2.2-2.2c-0.1-0.1-0.4-0.1-0.5,0c-0.1,0.1-0.1,0.4,0,0.5l2,2l-2,2
		c-0.1,0.1-0.1,0.4,0,0.5c0.1,0.1,0.4,0.1,0.5,0L303.7,183.2z M302.5,183.4h1v-0.7h-1V183.4z" />
            <path class="st2" d="M314.7,183.2c0.1-0.1,0.1-0.4,0-0.5l-2.2-2.2c-0.1-0.1-0.4-0.1-0.5,0c-0.1,0.1-0.1,0.4,0,0.5l2,2l-2,2
		c-0.1,0.1-0.1,0.4,0,0.5c0.1,0.1,0.4,0.1,0.5,0L314.7,183.2z M313.4,183.4h1v-0.7h-1V183.4z" />
            <path class="st2" d="M327.2,183.2c0.1-0.1,0.1-0.4,0-0.5l-2.2-2.2c-0.1-0.1-0.4-0.1-0.5,0c-0.1,0.1-0.1,0.4,0,0.5l2,2l-2,2
		c-0.1,0.1-0.1,0.4,0,0.5c0.1,0.1,0.4,0.1,0.5,0L327.2,183.2z M326,183.4h1v-0.7h-1V183.4z" />
            <path class="st2" d="M338.2,183.2c0.1-0.1,0.1-0.4,0-0.5l-2.2-2.2c-0.1-0.1-0.4-0.1-0.5,0c-0.1,0.1-0.1,0.4,0,0.5l2,2l-2,2
		c-0.1,0.1-0.1,0.4,0,0.5c0.1,0.1,0.4,0.1,0.5,0L338.2,183.2z M336.9,183.4h1v-0.7h-1V183.4z" />
            <path class="st2" d="M350.7,183.2c0.1-0.1,0.1-0.4,0-0.5l-2.2-2.2c-0.1-0.1-0.4-0.1-0.5,0c-0.1,0.1-0.1,0.4,0,0.5l2,2l-2,2
		c-0.1,0.1-0.1,0.4,0,0.5c0.1,0.1,0.4,0.1,0.5,0L350.7,183.2z M349.5,183.4h1v-0.7h-1V183.4z" />
            <path class="st2" d="M361.7,183.2c0.1-0.1,0.1-0.4,0-0.5l-2.2-2.2c-0.1-0.1-0.4-0.1-0.5,0c-0.1,0.1-0.1,0.4,0,0.5l2,2l-2,2
		c-0.1,0.1-0.1,0.4,0,0.5c0.1,0.1,0.4,0.1,0.5,0L361.7,183.2z M360.4,183.4h1v-0.7h-1V183.4z" />
            <path class="st2" d="M374.2,183.2c0.1-0.1,0.1-0.4,0-0.5l-2.2-2.2c-0.1-0.1-0.4-0.1-0.5,0c-0.1,0.1-0.1,0.4,0,0.5l2,2l-2,2
		c-0.1,0.1-0.1,0.4,0,0.5c0.1,0.1,0.4,0.1,0.5,0L374.2,183.2z M373,183.4h1v-0.7h-1V183.4z" />
            <path class="st2" d="M385.2,183.2c0.1-0.1,0.1-0.4,0-0.5l-2.2-2.2c-0.1-0.1-0.4-0.1-0.5,0c-0.1,0.1-0.1,0.4,0,0.5l2,2l-2,2
		c-0.1,0.1-0.1,0.4,0,0.5c0.1,0.1,0.4,0.1,0.5,0L385.2,183.2z M383.9,183.4h1v-0.7h-1V183.4z" />
            <path class="st2" d="M397.7,183.2c0.1-0.1,0.1-0.4,0-0.5l-2.2-2.2c-0.1-0.1-0.4-0.1-0.5,0c-0.1,0.1-0.1,0.4,0,0.5l2,2l-2,2
		c-0.1,0.1-0.1,0.4,0,0.5c0.1,0.1,0.4,0.1,0.5,0L397.7,183.2z M396.5,183.4h1v-0.7h-1V183.4z" />
            <path class="st2" d="M408.7,183.2c0.1-0.1,0.1-0.4,0-0.5l-2.2-2.2c-0.1-0.1-0.4-0.1-0.5,0c-0.1,0.1-0.1,0.4,0,0.5l2,2l-2,2
		c-0.1,0.1-0.1,0.4,0,0.5c0.1,0.1,0.4,0.1,0.5,0L408.7,183.2z M407.4,183.4h1v-0.7h-1V183.4z" />
            <path class="st2" d="M421.2,183.2c0.1-0.1,0.1-0.4,0-0.5l-2.2-2.2c-0.1-0.1-0.4-0.1-0.5,0c-0.1,0.1-0.1,0.4,0,0.5l2,2l-2,2
		c-0.1,0.1-0.1,0.4,0,0.5c0.1,0.1,0.4,0.1,0.5,0L421.2,183.2z M420,183.4h1v-0.7h-1V183.4z" />
            <path class="st2" d="M109.2,109.2c0.1-0.1,0.1-0.4,0-0.5l-2.2-2.2c-0.1-0.1-0.4-0.1-0.5,0s-0.1,0.4,0,0.5l2,2l-2,2
		c-0.1,0.1-0.1,0.4,0,0.5s0.4,0.1,0.5,0L109.2,109.2z M108,109.3h1v-0.7h-1V109.3z" />
            <path class="st2" d="M120.4,109.2c0.1-0.1,0.1-0.4,0-0.5l-2.2-2.2c-0.1-0.1-0.4-0.1-0.5,0s-0.1,0.4,0,0.5l2,2l-2,2
		c-0.1,0.1-0.1,0.4,0,0.5s0.4,0.1,0.5,0L120.4,109.2z M119.2,109.3h1v-0.7h-1V109.3z" />
            <path class="st2" d="M131.6,109.2c0.1-0.1,0.1-0.4,0-0.5l-2.2-2.2c-0.1-0.1-0.4-0.1-0.5,0c-0.1,0.1-0.1,0.4,0,0.5l2,2l-2,2
		c-0.1,0.1-0.1,0.4,0,0.5c0.1,0.1,0.4,0.1,0.5,0L131.6,109.2z M130.4,109.3h1v-0.7h-1V109.3z" />
            <path class="st2" d="M142.8,109.2c0.1-0.1,0.1-0.4,0-0.5l-2.2-2.2c-0.1-0.1-0.4-0.1-0.5,0c-0.1,0.1-0.1,0.4,0,0.5l2,2l-2,2
		c-0.1,0.1-0.1,0.4,0,0.5c0.1,0.1,0.4,0.1,0.5,0L142.8,109.2z M141.6,109.3h1v-0.7h-1V109.3z" />
            <path class="st2" d="M154,109.2c0.1-0.1,0.1-0.4,0-0.5l-2.2-2.2c-0.1-0.1-0.4-0.1-0.5,0c-0.1,0.1-0.1,0.4,0,0.5l2,2l-2,2
		c-0.1,0.1-0.1,0.4,0,0.5c0.1,0.1,0.4,0.1,0.5,0L154,109.2z M152.8,109.3h1v-0.7h-1V109.3z" />
            <path class="st2" d="M165.2,109.2c0.1-0.1,0.1-0.4,0-0.5l-2.2-2.2c-0.1-0.1-0.4-0.1-0.5,0c-0.1,0.1-0.1,0.4,0,0.5l2,2l-2,2
		c-0.1,0.1-0.1,0.4,0,0.5c0.1,0.1,0.4,0.1,0.5,0L165.2,109.2z M164,109.3h1v-0.7h-1V109.3z" />
            <path class="st2" d="M176.4,109.2c0.1-0.1,0.1-0.4,0-0.5l-2.2-2.2c-0.1-0.1-0.4-0.1-0.5,0c-0.1,0.1-0.1,0.4,0,0.5l2,2l-2,2
		c-0.1,0.1-0.1,0.4,0,0.5c0.1,0.1,0.4,0.1,0.5,0L176.4,109.2z M175.2,109.3h1v-0.7h-1V109.3z" />
            <path class="st2" d="M187.6,109.2c0.1-0.1,0.1-0.4,0-0.5l-2.2-2.2c-0.1-0.1-0.4-0.1-0.5,0c-0.1,0.1-0.1,0.4,0,0.5l2,2l-2,2
		c-0.1,0.1-0.1,0.4,0,0.5c0.1,0.1,0.4,0.1,0.5,0L187.6,109.2z M186.4,109.3h1v-0.7h-1V109.3z" />
            <path class="st2" d="M198.8,109.2c0.1-0.1,0.1-0.4,0-0.5l-2.2-2.2c-0.1-0.1-0.4-0.1-0.5,0c-0.1,0.1-0.1,0.4,0,0.5l2,2l-2,2
		c-0.1,0.1-0.1,0.4,0,0.5c0.1,0.1,0.4,0.1,0.5,0L198.8,109.2z M197.6,109.3h1v-0.7h-1V109.3z" />
            <path class="st2" d="M210,109.2c0.1-0.1,0.1-0.4,0-0.5l-2.2-2.2c-0.1-0.1-0.4-0.1-0.5,0c-0.1,0.1-0.1,0.4,0,0.5l2,2l-2,2
		c-0.1,0.1-0.1,0.4,0,0.5c0.1,0.1,0.4,0.1,0.5,0L210,109.2z M208.8,109.3h1v-0.7h-1V109.3z" />
            <path class="st2" d="M221.2,109.2c0.1-0.1,0.1-0.4,0-0.5l-2.2-2.2c-0.1-0.1-0.4-0.1-0.5,0c-0.1,0.1-0.1,0.4,0,0.5l2,2l-2,2
		c-0.1,0.1-0.1,0.4,0,0.5c0.1,0.1,0.4,0.1,0.5,0L221.2,109.2z M220,109.3h1v-0.7h-1V109.3z" />
            <path class="st2" d="M232.4,109.2c0.1-0.1,0.1-0.4,0-0.5l-2.2-2.2c-0.1-0.1-0.4-0.1-0.5,0c-0.1,0.1-0.1,0.4,0,0.5l2,2l-2,2
		c-0.1,0.1-0.1,0.4,0,0.5c0.1,0.1,0.4,0.1,0.5,0L232.4,109.2z M231.2,109.3h1v-0.7h-1V109.3z" />
            <path class="st2" d="M243.6,109.2c0.1-0.1,0.1-0.4,0-0.5l-2.2-2.2c-0.1-0.1-0.4-0.1-0.5,0c-0.1,0.1-0.1,0.4,0,0.5l2,2l-2,2
		c-0.1,0.1-0.1,0.4,0,0.5c0.1,0.1,0.4,0.1,0.5,0L243.6,109.2z M242.4,109.3h1v-0.7h-1V109.3z" />
            <path class="st2" d="M254.8,109.2c0.1-0.1,0.1-0.4,0-0.5l-2.2-2.2c-0.1-0.1-0.4-0.1-0.5,0c-0.1,0.1-0.1,0.4,0,0.5l2,2l-2,2
		c-0.1,0.1-0.1,0.4,0,0.5c0.1,0.1,0.4,0.1,0.5,0L254.8,109.2z M253.6,109.3h1v-0.7h-1V109.3z" />
            <path class="st2" d="M265.9,113.9c0.2,0,0.3-0.2,0.3-0.4l-0.7-3.1c0-0.2-0.2-0.3-0.4-0.3c-0.2,0-0.3,0.2-0.3,0.4l0.6,2.7l-2.7,0.6
		c-0.2,0-0.3,0.2-0.3,0.4c0,0.2,0.2,0.3,0.4,0.3L265.9,113.9z M264.8,113.3l0.8,0.5l0.4-0.6l-0.8-0.5L264.8,113.3z" />
            <path class="st2" d="M274.9,118.9c0.2,0,0.3-0.2,0.3-0.4l-0.7-3.1c0-0.2-0.2-0.3-0.4-0.3c-0.2,0-0.3,0.2-0.3,0.4l0.6,2.7l-2.7,0.6
		c-0.2,0-0.3,0.2-0.3,0.4c0,0.2,0.2,0.3,0.4,0.3L274.9,118.9z M273.8,118.3l0.8,0.5l0.4-0.6l-0.8-0.5L273.8,118.3z" />
            <path class="st2" d="M283.9,124.9c0.2,0,0.3-0.2,0.3-0.4l-0.7-3.1c0-0.2-0.2-0.3-0.4-0.3c-0.2,0-0.3,0.2-0.3,0.4l0.6,2.7l-2.7,0.6
		c-0.2,0-0.3,0.2-0.3,0.4c0,0.2,0.2,0.3,0.4,0.3L283.9,124.9z M282.8,124.3l0.8,0.5l0.4-0.6l-0.8-0.5L282.8,124.3z" />
            <path class="st2" d="M293.9,129.9c0.2,0,0.3-0.2,0.3-0.4l-0.7-3.1c0-0.2-0.2-0.3-0.4-0.3c-0.2,0-0.3,0.2-0.3,0.4l0.6,2.7l-2.7,0.6
		c-0.2,0-0.3,0.2-0.3,0.4c0,0.2,0.2,0.3,0.4,0.3L293.9,129.9z M292.8,129.3l0.8,0.5l0.4-0.6l-0.8-0.5L292.8,129.3z" />
            <path class="st2" d="M303.9,136.9c0.2,0,0.3-0.2,0.3-0.4l-0.7-3.1c0-0.2-0.2-0.3-0.4-0.3c-0.2,0-0.3,0.2-0.3,0.4l0.6,2.7l-2.7,0.6
		c-0.2,0-0.3,0.2-0.3,0.4c0,0.2,0.2,0.3,0.4,0.3L303.9,136.9z M302.8,136.3l0.8,0.5l0.4-0.6l-0.8-0.5L302.8,136.3z" />
            <path class="st2" d="M312.9,142.9c0.2,0,0.3-0.2,0.3-0.4l-0.7-3.1c0-0.2-0.2-0.3-0.4-0.3c-0.2,0-0.3,0.2-0.3,0.4l0.6,2.7l-2.7,0.6
		c-0.2,0-0.3,0.2-0.3,0.4c0,0.2,0.2,0.3,0.4,0.3L312.9,142.9z M311.8,142.3l0.8,0.5l0.4-0.6l-0.8-0.5L311.8,142.3z" />
            <path class="st2" d="M322.9,148.9c0.2,0,0.3-0.2,0.3-0.4l-0.7-3.1c0-0.2-0.2-0.3-0.4-0.3c-0.2,0-0.3,0.2-0.3,0.4l0.6,2.7l-2.7,0.6
		c-0.2,0-0.3,0.2-0.3,0.4c0,0.2,0.2,0.3,0.4,0.3L322.9,148.9z M321.8,148.3l0.8,0.5l0.4-0.6l-0.8-0.5L321.8,148.3z" />
            <path class="st2" d="M332.3,152.7c0.2,0,0.3-0.2,0.3-0.4l-0.7-3.1c0-0.2-0.2-0.3-0.4-0.3c-0.2,0-0.3,0.2-0.3,0.4l0.6,2.7l-2.7,0.6
		c-0.2,0-0.3,0.2-0.3,0.4c0,0.2,0.2,0.3,0.4,0.3L332.3,152.7z M331.2,152.1l0.8,0.5l0.4-0.6l-0.8-0.5L331.2,152.1z" />
            <path class="st2" d="M343.6,153.7c0.1-0.1,0.1-0.4,0-0.5l-2.2-2.2c-0.1-0.1-0.4-0.1-0.5,0c-0.1,0.1-0.1,0.4,0,0.5l2,2l-2,2
		c-0.1,0.1-0.1,0.4,0,0.5c0.1,0.1,0.4,0.1,0.5,0L343.6,153.7z M342.4,153.9h1v-0.7h-1V153.9z" />
            <path class="st2" d="M354.7,153.7c0.1-0.1,0.1-0.4,0-0.5l-2.2-2.2c-0.1-0.1-0.4-0.1-0.5,0c-0.1,0.1-0.1,0.4,0,0.5l2,2l-2,2
		c-0.1,0.1-0.1,0.4,0,0.5c0.1,0.1,0.4,0.1,0.5,0L354.7,153.7z M353.5,153.9h1v-0.7h-1V153.9z" />
            <path class="st2" d="M365.9,153.7c0.1-0.1,0.1-0.4,0-0.5l-2.2-2.2c-0.1-0.1-0.4-0.1-0.5,0c-0.1,0.1-0.1,0.4,0,0.5l2,2l-2,2
		c-0.1,0.1-0.1,0.4,0,0.5c0.1,0.1,0.4,0.1,0.5,0L365.9,153.7z M364.6,153.9h1v-0.7h-1V153.9z" />
            <path class="st2" d="M377,153.7c0.1-0.1,0.1-0.4,0-0.5l-2.2-2.2c-0.1-0.1-0.4-0.1-0.5,0c-0.1,0.1-0.1,0.4,0,0.5l2,2l-2,2
		c-0.1,0.1-0.1,0.4,0,0.5c0.1,0.1,0.4,0.1,0.5,0L377,153.7z M375.8,153.9h1v-0.7h-1V153.9z" />
            <path class="st2" d="M388.6,153.7c0.1-0.1,0.1-0.4,0-0.5l-2.2-2.2c-0.1-0.1-0.4-0.1-0.5,0c-0.1,0.1-0.1,0.4,0,0.5l2,2l-2,2
		c-0.1,0.1-0.1,0.4,0,0.5c0.1,0.1,0.4,0.1,0.5,0L388.6,153.7z M387.3,153.9h1v-0.7h-1V153.9z" />
            <path class="st2" d="M399.7,153.7c0.1-0.1,0.1-0.4,0-0.5l-2.2-2.2c-0.1-0.1-0.4-0.1-0.5,0c-0.1,0.1-0.1,0.4,0,0.5l2,2l-2,2
		c-0.1,0.1-0.1,0.4,0,0.5c0.1,0.1,0.4,0.1,0.5,0L399.7,153.7z M398.5,153.9h1v-0.7h-1V153.9z" />
            <path class="st2" d="M410.9,153.7c0.1-0.1,0.1-0.4,0-0.5l-2.2-2.2c-0.1-0.1-0.4-0.1-0.5,0c-0.1,0.1-0.1,0.4,0,0.5l2,2l-2,2
		c-0.1,0.1-0.1,0.4,0,0.5c0.1,0.1,0.4,0.1,0.5,0L410.9,153.7z M409.6,153.9h1v-0.7h-1V153.9z" />
            <path class="st2" d="M109.2,254.3c0.1,0.1,0.1,0.4,0,0.5L107,257c-0.1,0.1-0.4,0.1-0.5,0s-0.1-0.4,0-0.5l2-2l-2-2
		c-0.1-0.1-0.1-0.4,0-0.5c0.1-0.1,0.4-0.1,0.5,0L109.2,254.3z M108,254.1h1v0.7h-1V254.1z" />
            <path class="st2" d="M120.4,254.3c0.1,0.1,0.1,0.4,0,0.5l-2.2,2.2c-0.1,0.1-0.4,0.1-0.5,0s-0.1-0.4,0-0.5l2-2l-2-2
		c-0.1-0.1-0.1-0.4,0-0.5c0.1-0.1,0.4-0.1,0.5,0L120.4,254.3z M119.2,254.1h1v0.7h-1V254.1z" />
            <path class="st2" d="M131.6,254.3c0.1,0.1,0.1,0.4,0,0.5l-2.2,2.2c-0.1,0.1-0.4,0.1-0.5,0c-0.1-0.1-0.1-0.4,0-0.5l2-2l-2-2
		c-0.1-0.1-0.1-0.4,0-0.5c0.1-0.1,0.4-0.1,0.5,0L131.6,254.3z M130.4,254.1h1v0.7h-1V254.1z" />
            <path class="st2" d="M142.8,254.3c0.1,0.1,0.1,0.4,0,0.5l-2.2,2.2c-0.1,0.1-0.4,0.1-0.5,0c-0.1-0.1-0.1-0.4,0-0.5l2-2l-2-2
		c-0.1-0.1-0.1-0.4,0-0.5c0.1-0.1,0.4-0.1,0.5,0L142.8,254.3z M141.6,254.1h1v0.7h-1V254.1z" />
            <path class="st2" d="M154,254.3c0.1,0.1,0.1,0.4,0,0.5l-2.2,2.2c-0.1,0.1-0.4,0.1-0.5,0c-0.1-0.1-0.1-0.4,0-0.5l2-2l-2-2
		c-0.1-0.1-0.1-0.4,0-0.5c0.1-0.1,0.4-0.1,0.5,0L154,254.3z M152.8,254.1h1v0.7h-1V254.1z" />
            <path class="st2" d="M165.2,254.3c0.1,0.1,0.1,0.4,0,0.5L163,257c-0.1,0.1-0.4,0.1-0.5,0c-0.1-0.1-0.1-0.4,0-0.5l2-2l-2-2
		c-0.1-0.1-0.1-0.4,0-0.5c0.1-0.1,0.4-0.1,0.5,0L165.2,254.3z M164,254.1h1v0.7h-1V254.1z" />
            <path class="st2" d="M176.4,254.3c0.1,0.1,0.1,0.4,0,0.5l-2.2,2.2c-0.1,0.1-0.4,0.1-0.5,0c-0.1-0.1-0.1-0.4,0-0.5l2-2l-2-2
		c-0.1-0.1-0.1-0.4,0-0.5c0.1-0.1,0.4-0.1,0.5,0L176.4,254.3z M175.2,254.1h1v0.7h-1V254.1z" />
            <path class="st2" d="M187.6,254.3c0.1,0.1,0.1,0.4,0,0.5l-2.2,2.2c-0.1,0.1-0.4,0.1-0.5,0c-0.1-0.1-0.1-0.4,0-0.5l2-2l-2-2
		c-0.1-0.1-0.1-0.4,0-0.5c0.1-0.1,0.4-0.1,0.5,0L187.6,254.3z M186.4,254.1h1v0.7h-1V254.1z" />
            <path class="st2" d="M198.8,254.3c0.1,0.1,0.1,0.4,0,0.5l-2.2,2.2c-0.1,0.1-0.4,0.1-0.5,0c-0.1-0.1-0.1-0.4,0-0.5l2-2l-2-2
		c-0.1-0.1-0.1-0.4,0-0.5c0.1-0.1,0.4-0.1,0.5,0L198.8,254.3z M197.6,254.1h1v0.7h-1V254.1z" />
            <path class="st2" d="M210,254.3c0.1,0.1,0.1,0.4,0,0.5l-2.2,2.2c-0.1,0.1-0.4,0.1-0.5,0c-0.1-0.1-0.1-0.4,0-0.5l2-2l-2-2
		c-0.1-0.1-0.1-0.4,0-0.5c0.1-0.1,0.4-0.1,0.5,0L210,254.3z M208.8,254.1h1v0.7h-1V254.1z" />
            <path class="st2" d="M221.2,254.3c0.1,0.1,0.1,0.4,0,0.5L219,257c-0.1,0.1-0.4,0.1-0.5,0c-0.1-0.1-0.1-0.4,0-0.5l2-2l-2-2
		c-0.1-0.1-0.1-0.4,0-0.5c0.1-0.1,0.4-0.1,0.5,0L221.2,254.3z M220,254.1h1v0.7h-1V254.1z" />
            <path class="st2" d="M232.4,254.3c0.1,0.1,0.1,0.4,0,0.5l-2.2,2.2c-0.1,0.1-0.4,0.1-0.5,0c-0.1-0.1-0.1-0.4,0-0.5l2-2l-2-2
		c-0.1-0.1-0.1-0.4,0-0.5c0.1-0.1,0.4-0.1,0.5,0L232.4,254.3z M231.2,254.1h1v0.7h-1V254.1z" />
            <path class="st2" d="M243.6,254.3c0.1,0.1,0.1,0.4,0,0.5l-2.2,2.2c-0.1,0.1-0.4,0.1-0.5,0c-0.1-0.1-0.1-0.4,0-0.5l2-2l-2-2
		c-0.1-0.1-0.1-0.4,0-0.5c0.1-0.1,0.4-0.1,0.5,0L243.6,254.3z M242.4,254.1h1v0.7h-1V254.1z" />
            <path class="st2" d="M252.2,253.8c0.1,0.1,0.1,0.4,0,0.5l-2.2,2.2c-0.1,0.1-0.4,0.1-0.5,0c-0.1-0.1-0.1-0.4,0-0.5l2-2l-2-2
		c-0.1-0.1-0.1-0.4,0-0.5c0.1-0.1,0.4-0.1,0.5,0L252.2,253.8z M251,253.6h1v0.7h-1V253.6z" />
            <path class="st2" d="M266.9,248.7c0.2,0,0.3,0.2,0.3,0.4l-0.7,3.1c0,0.2-0.2,0.3-0.4,0.3c-0.2,0-0.3-0.2-0.3-0.4l0.6-2.7l-2.7-0.6
		c-0.2,0-0.3-0.2-0.3-0.4c0-0.2,0.2-0.3,0.4-0.3L266.9,248.7z M265.8,249.3l0.8-0.5l0.4,0.6l-0.8,0.5L265.8,249.3z" />
            <path class="st2" d="M274.9,244.6c0.2,0,0.3,0.2,0.3,0.4l-0.7,3.1c0,0.2-0.2,0.3-0.4,0.3c-0.2,0-0.3-0.2-0.3-0.4l0.6-2.7l-2.7-0.6
		c-0.2,0-0.3-0.2-0.3-0.4c0-0.2,0.2-0.3,0.4-0.3L274.9,244.6z M273.8,245.2l0.8-0.5l0.4,0.6l-0.8,0.5L273.8,245.2z" />
            <path class="st2" d="M283.9,238.6c0.2,0,0.3,0.2,0.3,0.4l-0.7,3.1c0,0.2-0.2,0.3-0.4,0.3c-0.2,0-0.3-0.2-0.3-0.4l0.6-2.7l-2.7-0.6
		c-0.2,0-0.3-0.2-0.3-0.4c0-0.2,0.2-0.3,0.4-0.3L283.9,238.6z M282.8,239.2l0.8-0.5l0.4,0.6l-0.8,0.5L282.8,239.2z" />
            <path class="st2" d="M293.9,233.6c0.2,0,0.3,0.2,0.3,0.4l-0.7,3.1c0,0.2-0.2,0.3-0.4,0.3c-0.2,0-0.3-0.2-0.3-0.4l0.6-2.7l-2.7-0.6
		c-0.2,0-0.3-0.2-0.3-0.4c0-0.2,0.2-0.3,0.4-0.3L293.9,233.6z M292.8,234.2l0.8-0.5l0.4,0.6l-0.8,0.5L292.8,234.2z" />
            <path class="st2" d="M303.9,226.6c0.2,0,0.3,0.2,0.3,0.4l-0.7,3.1c0,0.2-0.2,0.3-0.4,0.3c-0.2,0-0.3-0.2-0.3-0.4l0.6-2.7l-2.7-0.6
		c-0.2,0-0.3-0.2-0.3-0.4c0-0.2,0.2-0.3,0.4-0.3L303.9,226.6z M302.8,227.2l0.8-0.5l0.4,0.6l-0.8,0.5L302.8,227.2z" />
            <path class="st2" d="M312.9,220.6c0.2,0,0.3,0.2,0.3,0.4l-0.7,3.1c0,0.2-0.2,0.3-0.4,0.3c-0.2,0-0.3-0.2-0.3-0.4l0.6-2.7l-2.7-0.6
		c-0.2,0-0.3-0.2-0.3-0.4c0-0.2,0.2-0.3,0.4-0.3L312.9,220.6z M311.8,221.2l0.8-0.5l0.4,0.6l-0.8,0.5L311.8,221.2z" />
            <path class="st2" d="M322.9,214.6c0.2,0,0.3,0.2,0.3,0.4l-0.7,3.1c0,0.2-0.2,0.3-0.4,0.3c-0.2,0-0.3-0.2-0.3-0.4l0.6-2.7l-2.7-0.6
		c-0.2,0-0.3-0.2-0.3-0.4c0-0.2,0.2-0.3,0.4-0.3L322.9,214.6z M321.8,215.2l0.8-0.5l0.4,0.6l-0.8,0.5L321.8,215.2z" />
            <path class="st2" d="M332.3,210.8c0.2,0,0.3,0.2,0.3,0.4l-0.7,3.1c0,0.2-0.2,0.3-0.4,0.3c-0.2,0-0.3-0.2-0.3-0.4l0.6-2.7l-2.7-0.6
		c-0.2,0-0.3-0.2-0.3-0.4c0-0.2,0.2-0.3,0.4-0.3L332.3,210.8z M331.2,211.4l0.8-0.5l0.4,0.6l-0.8,0.5L331.2,211.4z" />
            <path class="st2" d="M343.6,209.8c0.1,0.1,0.1,0.4,0,0.5l-2.2,2.2c-0.1,0.1-0.4,0.1-0.5,0c-0.1-0.1-0.1-0.4,0-0.5l2-2l-2-2
		c-0.1-0.1-0.1-0.4,0-0.5c0.1-0.1,0.4-0.1,0.5,0L343.6,209.8z M342.4,209.6h1v0.7h-1V209.6z" />
            <path class="st2" d="M354.7,209.8c0.1,0.1,0.1,0.4,0,0.5l-2.2,2.2c-0.1,0.1-0.4,0.1-0.5,0c-0.1-0.1-0.1-0.4,0-0.5l2-2l-2-2
		c-0.1-0.1-0.1-0.4,0-0.5c0.1-0.1,0.4-0.1,0.5,0L354.7,209.8z M353.5,209.6h1v0.7h-1V209.6z" />
            <path class="st2" d="M365.9,209.8c0.1,0.1,0.1,0.4,0,0.5l-2.2,2.2c-0.1,0.1-0.4,0.1-0.5,0c-0.1-0.1-0.1-0.4,0-0.5l2-2l-2-2
		c-0.1-0.1-0.1-0.4,0-0.5c0.1-0.1,0.4-0.1,0.5,0L365.9,209.8z M364.6,209.6h1v0.7h-1V209.6z" />
            <path class="st2" d="M377,209.8c0.1,0.1,0.1,0.4,0,0.5l-2.2,2.2c-0.1,0.1-0.4,0.1-0.5,0c-0.1-0.1-0.1-0.4,0-0.5l2-2l-2-2
		c-0.1-0.1-0.1-0.4,0-0.5c0.1-0.1,0.4-0.1,0.5,0L377,209.8z M375.8,209.6h1v0.7h-1V209.6z" />
            <path class="st2" d="M388.6,209.8c0.1,0.1,0.1,0.4,0,0.5l-2.2,2.2c-0.1,0.1-0.4,0.1-0.5,0c-0.1-0.1-0.1-0.4,0-0.5l2-2l-2-2
		c-0.1-0.1-0.1-0.4,0-0.5c0.1-0.1,0.4-0.1,0.5,0L388.6,209.8z M387.3,209.6h1v0.7h-1V209.6z" />
            <path class="st2" d="M399.7,209.8c0.1,0.1,0.1,0.4,0,0.5l-2.2,2.2c-0.1,0.1-0.4,0.1-0.5,0c-0.1-0.1-0.1-0.4,0-0.5l2-2l-2-2
		c-0.1-0.1-0.1-0.4,0-0.5c0.1-0.1,0.4-0.1,0.5,0L399.7,209.8z M398.5,209.6h1v0.7h-1V209.6z" />
            <path class="st2" d="M410.9,209.8c0.1,0.1,0.1,0.4,0,0.5l-2.2,2.2c-0.1,0.1-0.4,0.1-0.5,0c-0.1-0.1-0.1-0.4,0-0.5l2-2l-2-2
		c-0.1-0.1-0.1-0.4,0-0.5c0.1-0.1,0.4-0.1,0.5,0L410.9,209.8z M409.6,209.6h1v0.7h-1V209.6z" />

            <linearGradient id="SVGID_2_" gradientUnits="userSpaceOnUse" x1="146.6661" y1="180.0067" x2="413.1871" y2="172.9577" gradientTransform="matrix(1 0 0 -1 0 362)">
               <stop offset="0" style="stop-color:#000099" />
               <stop offset="1" style="stop-color:#0050FF" />
            </linearGradient>
            <path class="st3" d="M130,39h108.5c19.2,0,38.3,8.1,48.5,25l57.5,92c9.1,15,22.7,29.5,41,29.5H419 M413.1,185.5H382
		c-20.8,0-28.5,10-41,29l-45.3,75.7c-5.1,10.2-12.2,19.1-20.8,26.3c-8.2,6.8-18.4,10.5-28.9,10.5H130" />
            <path class="st2" d="M162.2,39.2c0.1-0.1,0.1-0.4,0-0.5l-2.2-2.2c-0.1-0.1-0.4-0.1-0.5,0c-0.1,0.1-0.1,0.4,0,0.5l2,2l-2,2
		c-0.1,0.1-0.1,0.4,0,0.5c0.1,0.1,0.4,0.1,0.5,0L162.2,39.2z M161,39.3h1v-0.7h-1V39.3z" />
            <path class="st2" d="M173.6,39.2c0.1-0.1,0.1-0.4,0-0.5l-2.2-2.2c-0.1-0.1-0.4-0.1-0.5,0c-0.1,0.1-0.1,0.4,0,0.5l2,2l-2,2
		c-0.1,0.1-0.1,0.4,0,0.5c0.1,0.1,0.4,0.1,0.5,0L173.6,39.2z M172.3,39.3h1v-0.7h-1V39.3z" />
            <path class="st2" d="M185.4,39.2c0.1-0.1,0.1-0.4,0-0.5l-2.2-2.2c-0.1-0.1-0.4-0.1-0.5,0c-0.1,0.1-0.1,0.4,0,0.5l2,2l-2,2
		c-0.1,0.1-0.1,0.4,0,0.5c0.1,0.1,0.4,0.1,0.5,0L185.4,39.2z M184.1,39.3h1v-0.7h-1V39.3z" />
            <path class="st2" d="M197.2,39.2c0.1-0.1,0.1-0.4,0-0.5l-2.2-2.2c-0.1-0.1-0.4-0.1-0.5,0c-0.1,0.1-0.1,0.4,0,0.5l2,2l-2,2
		c-0.1,0.1-0.1,0.4,0,0.5c0.1,0.1,0.4,0.1,0.5,0L197.2,39.2z M196,39.3h1v-0.7h-1V39.3z" />
            <path class="st2" d="M209.1,39.2c0.1-0.1,0.1-0.4,0-0.5l-2.2-2.2c-0.1-0.1-0.4-0.1-0.5,0c-0.1,0.1-0.1,0.4,0,0.5l2,2l-2,2
		c-0.1,0.1-0.1,0.4,0,0.5c0.1,0.1,0.4,0.1,0.5,0L209.1,39.2z M207.8,39.3h1v-0.7h-1V39.3z" />
            <path class="st2" d="M220.4,39.2c0.1-0.1,0.1-0.4,0-0.5l-2.2-2.2c-0.1-0.1-0.4-0.1-0.5,0c-0.1,0.1-0.1,0.4,0,0.5l2,2l-2,2
		c-0.1,0.1-0.1,0.4,0,0.5c0.1,0.1,0.4,0.1,0.5,0L220.4,39.2z M219.1,39.3h1v-0.7h-1V39.3z" />
            <path class="st2" d="M232.2,39.2c0.1-0.1,0.1-0.4,0-0.5l-2.2-2.2c-0.1-0.1-0.4-0.1-0.5,0c-0.1,0.1-0.1,0.4,0,0.5l2,2l-2,2
		c-0.1,0.1-0.1,0.4,0,0.5c0.1,0.1,0.4,0.1,0.5,0L232.2,39.2z M231,39.3h1v-0.7h-1V39.3z" />
            <path class="st2" d="M244,39.2c0.1-0.1,0.1-0.4,0-0.5l-2.2-2.2c-0.1-0.1-0.4-0.1-0.5,0c-0.1,0.1-0.1,0.4,0,0.5l2,2l-2,2
		c-0.1,0.1-0.1,0.4,0,0.5c0.1,0.1,0.4,0.1,0.5,0L244,39.2z M242.8,39.3h1v-0.7h-1V39.3z" />
            <path class="st2" d="M255.2,41.2c0.1-0.1,0.1-0.4,0-0.5l-2.2-2.2c-0.1-0.1-0.4-0.1-0.5,0c-0.1,0.1-0.1,0.4,0,0.5l2,2l-2,2
		c-0.1,0.1-0.1,0.4,0,0.5c0.1,0.1,0.4,0.1,0.5,0L255.2,41.2z M254,41.3h1v-0.7h-1V41.3z" />
            <path class="st2" d="M266.1,44.6c0.2-0.1,0.2-0.3,0.2-0.5l-1.4-2.8c-0.1-0.2-0.3-0.2-0.5-0.2c-0.2,0.1-0.2,0.3-0.2,0.5l1.2,2.5
		l-2.5,1.2c-0.2,0.1-0.2,0.3-0.2,0.5c0.1,0.2,0.3,0.2,0.5,0.2L266.1,44.6z M264.9,44.3l0.9,0.3l0.2-0.7l-0.9-0.3L264.9,44.3z" />
            <path class="st2" d="M274,50.2c0.2,0,0.4-0.1,0.4-0.3l0.7-3.1c0-0.2-0.1-0.4-0.3-0.4c-0.2,0-0.4,0.1-0.4,0.3l-0.6,2.7l-2.7-0.6
		c-0.2,0-0.4,0.1-0.4,0.3c0,0.2,0.1,0.4,0.3,0.4L274,50.2z M273.2,49.2l0.5,0.8l0.6-0.4l-0.5-0.8L273.2,49.2z" />
            <path class="st2" d="M281.8,56c0.2,0,0.4-0.1,0.4-0.3l0.7-3.1c0-0.2-0.1-0.4-0.3-0.4c-0.2,0-0.4,0.1-0.4,0.3l-0.6,2.7l-2.7-0.6
		c-0.2,0-0.4,0.1-0.4,0.3c0,0.2,0.1,0.4,0.3,0.4L281.8,56z M281.1,55l0.5,0.8l0.6-0.4l-0.5-0.8L281.1,55z" />
            <path class="st2" d="M288.1,65.9c0.2,0,0.4-0.1,0.4-0.3l0.7-3.1c0-0.2-0.1-0.4-0.3-0.4c-0.2,0-0.4,0.1-0.4,0.3l-0.6,2.7l-2.7-0.6
		c-0.2,0-0.4,0.1-0.4,0.3c0,0.2,0.1,0.4,0.3,0.4L288.1,65.9z M287.3,64.9l0.5,0.8l0.6-0.4l-0.5-0.8L287.3,64.9z" />
            <path class="st2" d="M294.3,75.8c0.2,0,0.4-0.1,0.4-0.3l0.7-3.1c0-0.2-0.1-0.4-0.3-0.4c-0.2,0-0.4,0.1-0.4,0.3l-0.6,2.7l-2.7-0.6
		c-0.2,0-0.4,0.1-0.4,0.3c0,0.2,0.1,0.4,0.3,0.4L294.3,75.8z M293.5,74.8l0.5,0.8l0.6-0.4l-0.5-0.8L293.5,74.8z" />
            <path class="st2" d="M300.5,85.7c0.2,0,0.4-0.1,0.4-0.3l0.7-3.1c0-0.2-0.1-0.4-0.3-0.4c-0.2,0-0.4,0.1-0.4,0.3l-0.6,2.7l-2.7-0.6
		c-0.2,0-0.4,0.1-0.4,0.3c0,0.2,0.1,0.4,0.3,0.4L300.5,85.7z M299.7,84.7l0.5,0.8l0.6-0.4l-0.5-0.8L299.7,84.7z" />
            <path class="st2" d="M306.7,95.5c0.2,0,0.4-0.1,0.4-0.3l0.7-3.1c0-0.2-0.1-0.4-0.3-0.4c-0.2,0-0.4,0.1-0.4,0.3l-0.6,2.7l-2.7-0.6
		c-0.2,0-0.4,0.1-0.4,0.3c0,0.2,0.1,0.4,0.3,0.4L306.7,95.5z M305.9,94.5l0.5,0.8L307,95l-0.5-0.8L305.9,94.5z" />
            <path class="st2" d="M312.9,105.4c0.2,0,0.4-0.1,0.4-0.3l0.7-3.1c0-0.2-0.1-0.4-0.3-0.4c-0.2,0-0.4,0.1-0.4,0.3l-0.6,2.7l-2.7-0.6
		c-0.2,0-0.4,0.1-0.4,0.3c0,0.2,0.1,0.4,0.3,0.4L312.9,105.4z M312.1,104.4l0.5,0.8l0.6-0.4l-0.5-0.8L312.1,104.4z" />
            <path class="st2" d="M319.1,115.3c0.2,0,0.4-0.1,0.4-0.3l0.7-3.1c0-0.2-0.1-0.4-0.3-0.4c-0.2,0-0.4,0.1-0.4,0.3l-0.6,2.7l-2.7-0.6
		c-0.2,0-0.4,0.1-0.4,0.3c0,0.2,0.1,0.4,0.3,0.4L319.1,115.3z M318.3,114.3l0.5,0.8l0.6-0.4l-0.5-0.8L318.3,114.3z" />
            <path class="st2" d="M325.5,125.6c0.2,0,0.4-0.1,0.4-0.3l0.7-3.1c0-0.2-0.1-0.4-0.3-0.4c-0.2,0-0.4,0.1-0.4,0.3l-0.6,2.7l-2.7-0.6
		c-0.2,0-0.4,0.1-0.4,0.3c0,0.2,0.1,0.4,0.3,0.4L325.5,125.6z M324.8,124.6l0.5,0.8l0.6-0.4l-0.5-0.8L324.8,124.6z" />
            <path class="st2" d="M331.7,135.5c0.2,0,0.4-0.1,0.4-0.3l0.7-3.1c0-0.2-0.1-0.4-0.3-0.4c-0.2,0-0.4,0.1-0.4,0.3l-0.6,2.7l-2.7-0.6
		c-0.2,0-0.4,0.1-0.4,0.3c0,0.2,0.1,0.4,0.3,0.4L331.7,135.5z M331,134.5l0.5,0.8l0.6-0.4l-0.5-0.8L331,134.5z" />
            <path class="st2" d="M338,145.3c0.2,0,0.4-0.1,0.4-0.3l0.7-3.1c0-0.2-0.1-0.4-0.3-0.4c-0.2,0-0.4,0.1-0.4,0.3l-0.6,2.7L335,144
		c-0.2,0-0.4,0.1-0.4,0.3c0,0.2,0.1,0.4,0.3,0.4L338,145.3z M337.2,144.3l0.5,0.8l0.6-0.4l-0.5-0.8L337.2,144.3z" />
            <path class="st2" d="M344.2,155.2c0.2,0,0.4-0.1,0.4-0.3l0.7-3.1c0-0.2-0.1-0.4-0.3-0.4c-0.2,0-0.4,0.1-0.4,0.3l-0.6,2.7l-2.7-0.6
		c-0.2,0-0.4,0.1-0.4,0.3c0,0.2,0.1,0.4,0.3,0.4L344.2,155.2z M343.4,154.2l0.5,0.8l0.6-0.4l-0.5-0.8L343.4,154.2z" />
            <path class="st2" d="M351.4,165c0.2,0,0.4-0.1,0.4-0.3l0.1-3.1c0-0.2-0.1-0.4-0.3-0.4c-0.2,0-0.4,0.1-0.4,0.3l-0.1,2.8l-2.8-0.1
		c-0.2,0-0.4,0.1-0.4,0.3c0,0.2,0.1,0.4,0.3,0.4L351.4,165z M350.5,164.2l0.7,0.7l0.5-0.5l-0.7-0.7L350.5,164.2z" />
            <path class="st2" d="M359.4,173.6c0.2,0,0.4-0.1,0.4-0.3l0.1-3.1c0-0.2-0.1-0.4-0.3-0.4c-0.2,0-0.4,0.1-0.4,0.3l-0.1,2.8l-2.8-0.1
		c-0.2,0-0.4,0.1-0.4,0.3c0,0.2,0.1,0.4,0.3,0.4L359.4,173.6z M358.5,172.7l0.7,0.7l0.5-0.5l-0.7-0.7L358.5,172.7z" />
            <path class="st2" d="M367.4,182.1c0.2,0,0.4-0.1,0.4-0.3l0.1-3.1c0-0.2-0.1-0.4-0.3-0.4c-0.2,0-0.4,0.1-0.4,0.3l-0.1,2.8l-2.8-0.1
		c-0.2,0-0.4,0.1-0.4,0.3c0,0.2,0.1,0.4,0.3,0.4L367.4,182.1z M366.5,181.3l0.7,0.7l0.5-0.5l-0.7-0.7L366.5,181.3z" />
            <path class="st2" d="M378.8,183.2c0.1-0.1,0.1-0.4,0-0.5l-2.2-2.2c-0.1-0.1-0.4-0.1-0.5,0c-0.1,0.1-0.1,0.4,0,0.5l2,2l-2,2
		c-0.1,0.1-0.1,0.4,0,0.5c0.1,0.1,0.4,0.1,0.5,0L378.8,183.2z M377.6,183.4h1v-0.7h-1V183.4z" />
            <path class="st2" d="M390.5,183.2c0.1-0.1,0.1-0.4,0-0.5l-2.2-2.2c-0.1-0.1-0.4-0.1-0.5,0c-0.1,0.1-0.1,0.4,0,0.5l2,2l-2,2
		c-0.1,0.1-0.1,0.4,0,0.5c0.1,0.1,0.4,0.1,0.5,0L390.5,183.2z M389.3,183.4h1v-0.7h-1V183.4z" />
            <path class="st2" d="M402.2,183.2c0.1-0.1,0.1-0.4,0-0.5l-2.2-2.2c-0.1-0.1-0.4-0.1-0.5,0c-0.1,0.1-0.1,0.4,0,0.5l2,2l-2,2
		c-0.1,0.1-0.1,0.4,0,0.5c0.1,0.1,0.4,0.1,0.5,0L402.2,183.2z M401,183.4h1v-0.7h-1V183.4z" />
            <path class="st2" d="M414.2,183.2c0.1-0.1,0.1-0.4,0-0.5l-2.2-2.2c-0.1-0.1-0.4-0.1-0.5,0c-0.1,0.1-0.1,0.4,0,0.5l2,2l-2,2
		c-0.1,0.1-0.1,0.4,0,0.5c0.1,0.1,0.4,0.1,0.5,0L414.2,183.2z M412.9,183.4h1v-0.7h-1V183.4z" />
            <path class="st2" d="M162.2,326.8c0.1,0.1,0.1,0.4,0,0.5l-2.2,2.2c-0.1,0.1-0.4,0.1-0.5,0c-0.1-0.1-0.1-0.4,0-0.5l2-2l-2-2
		c-0.1-0.1-0.1-0.4,0-0.5c0.1-0.1,0.4-0.1,0.5,0L162.2,326.8z M161,326.6h1v0.7h-1V326.6z" />
            <path class="st2" d="M173.6,326.8c0.1,0.1,0.1,0.4,0,0.5l-2.2,2.2c-0.1,0.1-0.4,0.1-0.5,0c-0.1-0.1-0.1-0.4,0-0.5l2-2l-2-2
		c-0.1-0.1-0.1-0.4,0-0.5c0.1-0.1,0.4-0.1,0.5,0L173.6,326.8z M172.3,326.6h1v0.7h-1V326.6z" />
            <path class="st2" d="M185.4,326.8c0.1,0.1,0.1,0.4,0,0.5l-2.2,2.2c-0.1,0.1-0.4,0.1-0.5,0c-0.1-0.1-0.1-0.4,0-0.5l2-2l-2-2
		c-0.1-0.1-0.1-0.4,0-0.5c0.1-0.1,0.4-0.1,0.5,0L185.4,326.8z M184.1,326.6h1v0.7h-1V326.6z" />
            <path class="st2" d="M197.2,326.8c0.1,0.1,0.1,0.4,0,0.5l-2.2,2.2c-0.1,0.1-0.4,0.1-0.5,0c-0.1-0.1-0.1-0.4,0-0.5l2-2l-2-2
		c-0.1-0.1-0.1-0.4,0-0.5c0.1-0.1,0.4-0.1,0.5,0L197.2,326.8z M196,326.6h1v0.7h-1V326.6z" />
            <path class="st2" d="M209.1,326.8c0.1,0.1,0.1,0.4,0,0.5l-2.2,2.2c-0.1,0.1-0.4,0.1-0.5,0c-0.1-0.1-0.1-0.4,0-0.5l2-2l-2-2
		c-0.1-0.1-0.1-0.4,0-0.5c0.1-0.1,0.4-0.1,0.5,0L209.1,326.8z M207.8,326.6h1v0.7h-1V326.6z" />
            <path class="st2" d="M220.4,326.8c0.1,0.1,0.1,0.4,0,0.5l-2.2,2.2c-0.1,0.1-0.4,0.1-0.5,0c-0.1-0.1-0.1-0.4,0-0.5l2-2l-2-2
		c-0.1-0.1-0.1-0.4,0-0.5c0.1-0.1,0.4-0.1,0.5,0L220.4,326.8z M219.1,326.6h1v0.7h-1V326.6z" />
            <path class="st2" d="M232.2,326.8c0.1,0.1,0.1,0.4,0,0.5l-2.2,2.2c-0.1,0.1-0.4,0.1-0.5,0c-0.1-0.1-0.1-0.4,0-0.5l2-2l-2-2
		c-0.1-0.1-0.1-0.4,0-0.5c0.1-0.1,0.4-0.1,0.5,0L232.2,326.8z M231,326.6h1v0.7h-1V326.6z" />
            <path class="st2" d="M244,326.8c0.1,0.1,0.1,0.4,0,0.5l-2.2,2.2c-0.1,0.1-0.4,0.1-0.5,0c-0.1-0.1-0.1-0.4,0-0.5l2-2l-2-2
		c-0.1-0.1-0.1-0.4,0-0.5c0.1-0.1,0.4-0.1,0.5,0L244,326.8z M242.8,326.6h1v0.7h-1V326.6z" />
            <path class="st2" d="M255.9,326.8c0.1,0.1,0.1,0.4,0,0.5l-2.2,2.2c-0.1,0.1-0.4,0.1-0.5,0c-0.1-0.1-0.1-0.4,0-0.5l2-2l-2-2
		c-0.1-0.1-0.1-0.4,0-0.5c0.1-0.1,0.4-0.1,0.5,0L255.9,326.8z M254.6,326.6h1v0.7h-1V326.6z" />
            <path class="st2" d="M266.6,322.4c0.2,0.1,0.2,0.3,0.2,0.5l-1.4,2.8c-0.1,0.2-0.3,0.2-0.5,0.2c-0.2-0.1-0.2-0.3-0.2-0.5l1.2-2.5
		l-2.5-1.2c-0.2-0.1-0.2-0.3-0.2-0.5c0.1-0.2,0.3-0.2,0.5-0.2L266.6,322.4z M265.4,322.7l0.9-0.3l0.2,0.7l-0.9,0.3L265.4,322.7z" />
            <path class="st2" d="M274,315.8c0.2,0,0.4,0.1,0.4,0.3l0.7,3.1c0,0.2-0.1,0.4-0.3,0.4c-0.2,0-0.4-0.1-0.4-0.3l-0.6-2.7l-2.7,0.6
		c-0.2,0-0.4-0.1-0.4-0.3c0-0.2,0.1-0.4,0.3-0.4L274,315.8z M273.2,316.8l0.5-0.8l0.6,0.4l-0.5,0.8L273.2,316.8z" />
            <path class="st2" d="M281.8,310c0.2,0,0.4,0.1,0.4,0.3l0.7,3.1c0,0.2-0.1,0.4-0.3,0.4c-0.2,0-0.4-0.1-0.4-0.3l-0.6-2.7l-2.7,0.6
		c-0.2,0-0.4-0.1-0.4-0.3c0-0.2,0.1-0.4,0.3-0.4L281.8,310z M281.1,311l0.5-0.8l0.6,0.4l-0.5,0.8L281.1,311z" />
            <path class="st2" d="M288.1,300.1c0.2,0,0.4,0.1,0.4,0.3l0.7,3.1c0,0.2-0.1,0.4-0.3,0.4c-0.2,0-0.4-0.1-0.4-0.3l-0.6-2.7l-2.7,0.6
		c-0.2,0-0.4-0.1-0.4-0.3c0-0.2,0.1-0.4,0.3-0.4L288.1,300.1z M287.3,301.1l0.5-0.8l0.6,0.4l-0.5,0.8L287.3,301.1z" />
            <path class="st2" d="M294.3,290.2c0.2,0,0.4,0.1,0.4,0.3l0.7,3.1c0,0.2-0.1,0.4-0.3,0.4c-0.2,0-0.4-0.1-0.4-0.3l-0.6-2.7l-2.7,0.6
		c-0.2,0-0.4-0.1-0.4-0.3c0-0.2,0.1-0.4,0.3-0.4L294.3,290.2z M293.5,291.2l0.5-0.8l0.6,0.4l-0.5,0.8L293.5,291.2z" />
            <path class="st2" d="M300.5,280.3c0.2,0,0.4,0.1,0.4,0.3l0.7,3.1c0,0.2-0.1,0.4-0.3,0.4c-0.2,0-0.4-0.1-0.4-0.3l-0.6-2.7l-2.7,0.6
		c-0.2,0-0.4-0.1-0.4-0.3s0.1-0.4,0.3-0.4L300.5,280.3z M299.7,281.3l0.5-0.8l0.6,0.4l-0.5,0.8L299.7,281.3z" />
            <path class="st2" d="M306.7,270.5c0.2,0,0.4,0.1,0.4,0.3l0.7,3.1c0,0.2-0.1,0.4-0.3,0.4c-0.2,0-0.4-0.1-0.4-0.3l-0.6-2.7l-2.7,0.6
		c-0.2,0-0.4-0.1-0.4-0.3c0-0.2,0.1-0.4,0.3-0.4L306.7,270.5z M305.9,271.5l0.5-0.8l0.6,0.4l-0.5,0.8L305.9,271.5z" />
            <path class="st2" d="M312.9,260.6c0.2,0,0.4,0.1,0.4,0.3l0.7,3.1c0,0.2-0.1,0.4-0.3,0.4c-0.2,0-0.4-0.1-0.4-0.3l-0.6-2.7l-2.7,0.6
		c-0.2,0-0.4-0.1-0.4-0.3c0-0.2,0.1-0.4,0.3-0.4L312.9,260.6z M312.1,261.6l0.5-0.8l0.6,0.4l-0.5,0.8L312.1,261.6z" />
            <path class="st2" d="M319.1,250.7c0.2,0,0.4,0.1,0.4,0.3l0.7,3.1c0,0.2-0.1,0.4-0.3,0.4c-0.2,0-0.4-0.1-0.4-0.3l-0.6-2.7l-2.7,0.6
		c-0.2,0-0.4-0.1-0.4-0.3c0-0.2,0.1-0.4,0.3-0.4L319.1,250.7z M318.3,251.7l0.5-0.8l0.6,0.4l-0.5,0.8L318.3,251.7z" />
            <path class="st2" d="M325.5,240.4c0.2,0,0.4,0.1,0.4,0.3l0.7,3.1c0,0.2-0.1,0.4-0.3,0.4c-0.2,0-0.4-0.1-0.4-0.3l-0.6-2.7l-2.7,0.6
		c-0.2,0-0.4-0.1-0.4-0.3c0-0.2,0.1-0.4,0.3-0.4L325.5,240.4z M324.8,241.4l0.5-0.8l0.6,0.4l-0.5,0.8L324.8,241.4z" />
            <path class="st2" d="M331.7,230.5c0.2,0,0.4,0.1,0.4,0.3l0.7,3.1c0,0.2-0.1,0.4-0.3,0.4c-0.2,0-0.4-0.1-0.4-0.3l-0.6-2.7l-2.7,0.6
		c-0.2,0-0.4-0.1-0.4-0.3c0-0.2,0.1-0.4,0.3-0.4L331.7,230.5z M331,231.5l0.5-0.8l0.6,0.4l-0.5,0.8L331,231.5z" />
            <path class="st2" d="M338,220.7c0.2,0,0.4,0.1,0.4,0.3l0.7,3.1c0,0.2-0.1,0.4-0.3,0.4c-0.2,0-0.4-0.1-0.4-0.3l-0.6-2.7L335,222
		c-0.2,0-0.4-0.1-0.4-0.3c0-0.2,0.1-0.4,0.3-0.4L338,220.7z M337.2,221.7l0.5-0.8l0.6,0.4l-0.5,0.8L337.2,221.7z" />
            <path class="st2" d="M344.2,210.8c0.2,0,0.4,0.1,0.4,0.3l0.7,3.1c0,0.2-0.1,0.4-0.3,0.4c-0.2,0-0.4-0.1-0.4-0.3l-0.6-2.7l-2.7,0.6
		c-0.2,0-0.4-0.1-0.4-0.3c0-0.2,0.1-0.4,0.3-0.4L344.2,210.8z M343.4,211.8l0.5-0.8l0.6,0.4l-0.5,0.8L343.4,211.8z" />
            <path class="st2" d="M351.4,201c0.2,0,0.4,0.1,0.4,0.3l0.1,3.1c0,0.2-0.1,0.4-0.3,0.4c-0.2,0-0.4-0.1-0.4-0.3l-0.1-2.8l-2.8,0.1
		c-0.2,0-0.4-0.1-0.4-0.3c0-0.2,0.1-0.4,0.3-0.4L351.4,201z M350.5,201.8l0.7-0.7l0.5,0.5l-0.7,0.7L350.5,201.8z" />
            <path class="st2" d="M359.4,192.4c0.2,0,0.4,0.1,0.4,0.3l0.1,3.1c0,0.2-0.1,0.4-0.3,0.4c-0.2,0-0.4-0.1-0.4-0.3l-0.1-2.8l-2.8,0.1
		c-0.2,0-0.4-0.1-0.4-0.3c0-0.2,0.1-0.4,0.3-0.4L359.4,192.4z M358.5,193.3l0.7-0.7l0.5,0.5l-0.7,0.7L358.5,193.3z" />
            <path class="st2" d="M367.4,183.9c0.2,0,0.4,0.1,0.4,0.3l0.1,3.1c0,0.2-0.1,0.4-0.3,0.4c-0.2,0-0.4-0.1-0.4-0.3l-0.1-2.8l-2.8,0.1
		c-0.2,0-0.4-0.1-0.4-0.3c0-0.2,0.1-0.4,0.3-0.4L367.4,183.9z M366.5,184.7l0.7-0.7l0.5,0.5l-0.7,0.7L366.5,184.7z" />
            <path class="st2" d="M378.8,182.8c0.1,0.1,0.1,0.4,0,0.5l-2.2,2.2c-0.1,0.1-0.4,0.1-0.5,0c-0.1-0.1-0.1-0.4,0-0.5l2-2l-2-2
		c-0.1-0.1-0.1-0.4,0-0.5c0.1-0.1,0.4-0.1,0.5,0L378.8,182.8z M377.6,182.6h1v0.7h-1V182.6z" />
            <path class="st2" d="M390.5,182.8c0.1,0.1,0.1,0.4,0,0.5l-2.2,2.2c-0.1,0.1-0.4,0.1-0.5,0c-0.1-0.1-0.1-0.4,0-0.5l2-2l-2-2
		c-0.1-0.1-0.1-0.4,0-0.5c0.1-0.1,0.4-0.1,0.5,0L390.5,182.8z M389.3,182.6h1v0.7h-1V182.6z" />
            <path class="st2" d="M402.2,182.8c0.1,0.1,0.1,0.4,0,0.5l-2.2,2.2c-0.1,0.1-0.4,0.1-0.5,0c-0.1-0.1-0.1-0.4,0-0.5l2-2l-2-2
		c-0.1-0.1-0.1-0.4,0-0.5c0.1-0.1,0.4-0.1,0.5,0L402.2,182.8z M401,182.6h1v0.7h-1V182.6z" />
            <path class="st2" d="M414.2,182.8c0.1,0.1,0.1,0.4,0,0.5l-2.2,2.2c-0.1,0.1-0.4,0.1-0.5,0c-0.1-0.1-0.1-0.4,0-0.5l2-2l-2-2
		c-0.1-0.1-0.1-0.4,0-0.5c0.1-0.1,0.4-0.1,0.5,0L414.2,182.8z M412.9,182.6h1v0.7h-1V182.6z" />
            <circle class="st4" cx="122" cy="40" r="39.5" />
            <circle class="st4" cx="82" cy="110" r="39.5" />
            <circle class="st4" cx="163" cy="110" r="39.5" />
            <circle class="st4" cx="122" cy="181" r="39.5" />
            <circle class="st4" cx="40" cy="180" r="39.5" />
            <circle class="st4" cx="204" cy="180" r="39.5" />
            <circle class="st4" cx="82" cy="250" r="39.5" />
            <circle class="st4" cx="163" cy="250" r="39.5" />
            <circle class="st4" cx="122" cy="320" r="39.5" />


            <g class="circle_1" width="32" height="32" viewBox="0 0 32 32" fill="none" xmlns="http://www.w3.org/2000/svg">
               <g filter="url(#filter0_d_4752_16629)">
                  <circle cx="16" cy="16" r="2" fill="#FF6600" />
                  <circle cx="16" cy="16" r="2.5" stroke="#0C319B" />
               </g>
               <defs>
                  <filter id="filter0_d_4752_16629" x="0" y="0" width="32" height="32" filterUnits="userSpaceOnUse" color-interpolation-filters="sRGB">
                     <feFlood flood-opacity="0" result="BackgroundImageFix" />
                     <feColorMatrix in="SourceAlpha" type="matrix" values="0 0 0 0 0 0 0 0 0 0 0 0 0 0 0 0 0 0 127 0" result="hardAlpha" />
                     <feMorphology radius="3" operator="dilate" in="SourceAlpha" result="effect1_dropShadow_4752_16629" />
                     <feOffset />
                     <feGaussianBlur stdDeviation="5" />
                     <feComposite in2="hardAlpha" operator="out" />
                     <feColorMatrix type="matrix" values="0 0 0 0 1 0 0 0 0 0.492647 0 0 0 0 0 0 0 0 0.69 0" />
                     <feBlend mode="normal" in2="BackgroundImageFix" result="effect1_dropShadow_4752_16629" />
                     <feBlend mode="normal" in="SourceGraphic" in2="effect1_dropShadow_4752_16629" result="shape" />
                  </filter>
               </defs>
            </g>
            <g class="circle_2" width="32" height="32" viewBox="0 0 32 32" fill="none" xmlns="http://www.w3.org/2000/svg">
               <g filter="url(#filter0_d_4752_16629)">
                  <circle cx="16" cy="16" r="2" fill="#FF6600" />
                  <circle cx="16" cy="16" r="2.5" stroke="#0C319B" />
               </g>
               <defs>
                  <filter id="filter0_d_4752_16629" x="0" y="0" width="32" height="32" filterUnits="userSpaceOnUse" color-interpolation-filters="sRGB">
                     <feFlood flood-opacity="0" result="BackgroundImageFix" />
                     <feColorMatrix in="SourceAlpha" type="matrix" values="0 0 0 0 0 0 0 0 0 0 0 0 0 0 0 0 0 0 127 0" result="hardAlpha" />
                     <feMorphology radius="3" operator="dilate" in="SourceAlpha" result="effect1_dropShadow_4752_16629" />
                     <feOffset />
                     <feGaussianBlur stdDeviation="5" />
                     <feComposite in2="hardAlpha" operator="out" />
                     <feColorMatrix type="matrix" values="0 0 0 0 1 0 0 0 0 0.492647 0 0 0 0 0 0 0 0 0.69 0" />
                     <feBlend mode="normal" in2="BackgroundImageFix" result="effect1_dropShadow_4752_16629" />
                     <feBlend mode="normal" in="SourceGraphic" in2="effect1_dropShadow_4752_16629" result="shape" />
                  </filter>
               </defs>
            </g>
            <g class="circle_3" width="32" height="32" viewBox="0 0 32 32" fill="none" xmlns="http://www.w3.org/2000/svg">
               <g filter="url(#filter0_d_4752_16629)">
                  <circle cx="16" cy="16" r="2" fill="#FF6600" />
                  <circle cx="16" cy="16" r="2.5" stroke="#0C319B" />
               </g>
               <defs>
                  <filter id="filter0_d_4752_16629" x="0" y="0" width="32" height="32" filterUnits="userSpaceOnUse" color-interpolation-filters="sRGB">
                     <feFlood flood-opacity="0" result="BackgroundImageFix" />
                     <feColorMatrix in="SourceAlpha" type="matrix" values="0 0 0 0 0 0 0 0 0 0 0 0 0 0 0 0 0 0 127 0" result="hardAlpha" />
                     <feMorphology radius="3" operator="dilate" in="SourceAlpha" result="effect1_dropShadow_4752_16629" />
                     <feOffset />
                     <feGaussianBlur stdDeviation="5" />
                     <feComposite in2="hardAlpha" operator="out" />
                     <feColorMatrix type="matrix" values="0 0 0 0 1 0 0 0 0 0.492647 0 0 0 0 0 0 0 0 0.69 0" />
                     <feBlend mode="normal" in2="BackgroundImageFix" result="effect1_dropShadow_4752_16629" />
                     <feBlend mode="normal" in="SourceGraphic" in2="effect1_dropShadow_4752_16629" result="shape" />
                  </filter>
               </defs>
            </g>
            <g class="circle_4" width="32" height="32" viewBox="0 0 32 32" fill="none" xmlns="http://www.w3.org/2000/svg">
               <g filter="url(#filter0_d_4752_16629)">
                  <circle cx="16" cy="16" r="2" fill="#FF6600" />
                  <circle cx="16" cy="16" r="2.5" stroke="#0C319B" />
               </g>
               <defs>
                  <filter id="filter0_d_4752_16629" x="0" y="0" width="32" height="32" filterUnits="userSpaceOnUse" color-interpolation-filters="sRGB">
                     <feFlood flood-opacity="0" result="BackgroundImageFix" />
                     <feColorMatrix in="SourceAlpha" type="matrix" values="0 0 0 0 0 0 0 0 0 0 0 0 0 0 0 0 0 0 127 0" result="hardAlpha" />
                     <feMorphology radius="3" operator="dilate" in="SourceAlpha" result="effect1_dropShadow_4752_16629" />
                     <feOffset />
                     <feGaussianBlur stdDeviation="5" />
                     <feComposite in2="hardAlpha" operator="out" />
                     <feColorMatrix type="matrix" values="0 0 0 0 1 0 0 0 0 0.492647 0 0 0 0 0 0 0 0 0.69 0" />
                     <feBlend mode="normal" in2="BackgroundImageFix" result="effect1_dropShadow_4752_16629" />
                     <feBlend mode="normal" in="SourceGraphic" in2="effect1_dropShadow_4752_16629" result="shape" />
                  </filter>
               </defs>
            </g>
            <g class="circle_5" width="32" height="32" viewBox="0 0 32 32" fill="none" xmlns="http://www.w3.org/2000/svg">
               <g filter="url(#filter0_d_4752_16629)">
                  <circle cx="16" cy="16" r="2" fill="#FF6600" />
                  <circle cx="16" cy="16" r="2.5" stroke="#0C319B" />
               </g>
               <defs>
                  <filter id="filter0_d_4752_16629" x="0" y="0" width="32" height="32" filterUnits="userSpaceOnUse" color-interpolation-filters="sRGB">
                     <feFlood flood-opacity="0" result="BackgroundImageFix" />
                     <feColorMatrix in="SourceAlpha" type="matrix" values="0 0 0 0 0 0 0 0 0 0 0 0 0 0 0 0 0 0 127 0" result="hardAlpha" />
                     <feMorphology radius="3" operator="dilate" in="SourceAlpha" result="effect1_dropShadow_4752_16629" />
                     <feOffset />
                     <feGaussianBlur stdDeviation="5" />
                     <feComposite in2="hardAlpha" operator="out" />
                     <feColorMatrix type="matrix" values="0 0 0 0 1 0 0 0 0 0.492647 0 0 0 0 0 0 0 0 0.69 0" />
                     <feBlend mode="normal" in2="BackgroundImageFix" result="effect1_dropShadow_4752_16629" />
                     <feBlend mode="normal" in="SourceGraphic" in2="effect1_dropShadow_4752_16629" result="shape" />
                  </filter>
               </defs>
            </g>

            <g>
               <defs>
                  <path id="SVGID_3_" d="M122,14.3L122,14.3c14.2,0,25.7,11.5,25.7,25.7v0c0,14.2-11.5,25.7-25.7,25.7h0
				c-14.2,0-25.7-11.5-25.7-25.7v0C96.3,25.8,107.8,14.3,122,14.3z" />
               </defs>
               <clipPath id="SVGID_4_">
                  <use xlink:href="#SVGID_3_" style="overflow:visible;" />
               </clipPath>
               <g class="st5">
                  <path class="st6" d="M146.9,46.2c-3.4,13.8-17.4,22.2-31.1,18.7C102,61.5,93.6,47.6,97.1,33.8c3.4-13.8,17.4-22.2,31.1-18.7
				c13.7,3.4,22.2,17.2,18.8,30.9C147,46,146.9,46.1,146.9,46.2z" />
                  <path class="rotate_item st7" d="M133.4,36.1c0.4-3.4-2.2-5.2-5.6-6.4l1.1-4.5l-3-0.8l-1.1,4.5c-0.7-0.4-1.5-0.4-2.2-0.7l1.1-4.5l-2.6-0.7
				l-1.1,4.9c-0.7,0-1.1-0.4-1.9-0.4l-3.7-1.1l-0.8,3c0.6,0.1,1.3,0.2,1.9,0.4c1.1,0.4,1.5,1.1,1.5,1.5l-1.5,5.6l-1.9,7.5
				c0,0.4-0.4,0.7-1.1,0.7l-1.9-0.4l-1.5,3l3.7,0.7c0.6,0.1,1.3,0.2,1.9,0.4l-1.1,4.5l3,0.7l1.1-4.5c0.7,0.4,1.5,0.4,2.2,0.7
				l-1.5,4.5l3,0.7l1.1-4.5c4.9,0.7,8.2,0.4,9.7-3.7c1.2-2.4,0.3-5.3-2.1-6.5c-0.2-0.1-0.4-0.2-0.5-0.2
				C131.7,39.9,133.2,38.2,133.4,36.1z M127,45.1c-1.1,3.7-6.7,1.9-8.6,1.1l1.5-6.4C121.8,40.6,127.8,41.7,127,45.1z M127.8,36.1
				c-0.7,3.4-5.6,1.5-7.1,1.1l1.5-5.6C123.7,31.9,128.5,32.7,127.8,36.1z" />
               </g>
            </g>
            <path class="st8" d="M122,12.3L122,12.3c15.3,0,27.8,12.4,27.8,27.8l0,0c0,15.3-12.4,27.8-27.8,27.8l0,0
		c-15.3,0-27.8-12.4-27.8-27.8l0,0C94.3,24.7,106.7,12.3,122,12.3z" />
            <path class="st9" d="M83,135.7c14.2,0,25.7-11.5,25.7-25.7c0-14.2-11.5-25.7-25.7-25.7c-14.2,0-25.7,11.5-25.7,25.7
		C57.3,124.2,68.8,135.7,83,135.7z" />
		<g class="rotate_item">
		<path class="st10" d="M83,90.7l-0.3,0.8v25.6l0.3,0.3l11.9-7.1L83,90.7z" />
            <path class="st11" d="M83,90.7l-11.9,19.6l11.9,7.1V105V90.7z" />
            <path class="st12" d="M83,119.6l-0.2,0.2v9l0.2,0.5l11.9-16.7L83,119.6z" />
            <path class="st11" d="M83,129.3v-9.6l-11.9-7.1L83,129.3z" />
            <path class="st13" d="M83,117.4l11.9-7.1L83,105V117.4z" />
            <path class="st14" d="M71.1,110.3l11.9,7.1V105L71.1,110.3z" />
		</g>
            
            <path class="st8" d="M83,82.3L83,82.3c15.3,0,27.8,12.4,27.8,27.8l0,0c0,15.3-12.4,27.8-27.8,27.8l0,0c-15.3,0-27.8-12.4-27.8-27.8
		l0,0C55.3,94.7,67.7,82.3,83,82.3z" />
            <path class="st7" d="M163,80L163,80c16.6,0,30,13.4,30,30l0,0c0,16.6-13.4,30-30,30l0,0c-16.6,0-30-13.4-30-30l0,0
		C133,93.4,146.4,80,163,80z" />
            <path class="st15" d="M188.7,110c0,14.2-11.5,25.7-25.7,25.7c-5.8,0-11.4-2-16-5.6c-1.2-1-2.3-2-3.3-3.2c-4.1-4.7-6.4-10.7-6.4-17
		s2.3-12.3,6.4-17c1-1.2,2.1-2.2,3.3-3.2c4.5-3.6,10.2-5.6,16-5.6C177.2,84.3,188.7,95.8,188.7,110z" />
            <path class="rotate_item st16" d="M184,110c0-17.5-11.7-20.1-15.9-20.1H147c-1.2,1-2.3,2-3.3,3.2v6.7h5.3v20.5h-5.3v6.7c1,1.2,2.1,2.2,3.3,3.2
		h21.1C172.3,130.1,184,127.5,184,110z M160.7,120.2V99.8h4.5c1.2,0,6.1,2.3,6.1,10.2s-5,10.2-6.1,10.2H160.7z" />
            <path class="st17" d="M204.5,206.5c14.4,0,26-11.6,26-26c0-14.4-11.6-26-26-26c-14.4,0-26,11.6-26,26
		C178.5,194.9,190.1,206.5,204.5,206.5z" />
            <path class="rotate_item st7" d="M212.6,171.8c-1.3-3-4.3-3.6-8-3l-1.2-4.6l-2.8,0.7l1.2,4.6c-0.7,0.2-1.5,0.3-2.2,0.6l-1.2-4.5l-2.8,0.7
		l1.2,4.6c-0.6,0.2-5.6,1.5-5.6,1.5l0.8,3c0,0,2-0.6,2-0.5c1.1-0.3,1.7,0.3,1.9,0.8l3.2,12.6c0,0.4,0,1-0.8,1.2c0,0-2,0.5-2,0.5
		l0.3,3.5c0,0,5-1.3,5.6-1.4l1.2,4.6l2.8-0.7l-1.2-4.7c0.8-0.2,1.5-0.4,2.2-0.6l1.2,4.6l2.8-0.7l-1.2-4.6c4.3-1,7.3-3.8,6.7-7.9
		c-0.4-2.5-3.1-4.5-5.4-4.8C212.8,175.9,213.5,174.1,212.6,171.8z M211.3,182.7c0.6,4.1-5.1,4.6-7,5.1l-1.6-6.1
		C204.5,181.2,210.3,179.1,211.3,182.7z M207.9,174.4c0.6,3.6-4.3,4.1-5.9,4.5l-1.5-5.6C202.1,172.9,206.7,171,207.9,174.4z" />
            <path class="st8" d="M204,152.3L204,152.3c15.3,0,27.8,12.4,27.8,27.8l0,0c0,15.3-12.4,27.8-27.8,27.8l0,0
		c-15.3,0-27.8-12.4-27.8-27.8l0,0C176.3,164.7,188.7,152.3,204,152.3z" />
            <path class="st7" d="M122,150L122,150c16.6,0,30,13.4,30,30l0,0c0,16.6-13.4,30-30,30l0,0c-16.6,0-30-13.4-30-30l0,0
		C92,163.4,105.4,150,122,150z" />
            <path class="st18" d="M146.9,186.2c-3.4,13.8-17.4,22.2-31.1,18.7c-13.8-3.4-22.2-17.4-18.7-31.1c3.4-13.8,17.4-22.2,31.1-18.7
		c13.7,3.4,22.2,17.2,18.8,30.9C147,186,146.9,186.1,146.9,186.2z" />
		<g class="rotate_item">
		  <path d="M132.2,167.1h4.3l-9,9.2c-3.3,3.3-8.6,3.3-11.8,0l-9-9.2h4.3l6.9,7c2.1,2.1,5.4,2.1,7.5,0L132.2,167.1z" />
        <path d="M110.9,192.9h-4.3l9.1-9.3c3.3-3.3,8.6-3.3,11.8,0l9.1,9.3h-4.3l-6.9-7.1c-2.1-2.1-5.4-2.1-7.5,0L110.9,192.9z" />
      </g>
            <path class="st19" d="M40.2,154.5c14.2,0,25.7,11.5,25.7,25.7c0,14.2-11.5,25.7-25.7,25.7s-25.7-11.5-25.7-25.7
		C14.5,166,26,154.5,40.2,154.5z" />
<g class="rotate_item">
 <path class="st7" d="M28.6,180.2l0,6.8l5.8,3.4v4l-9.2-5.4v-10.8L28.6,180.2z M28.6,173.4v4l-3.4-2v-4l3.4-2l3.4,2L28.6,173.4z
		 M36.8,171.4l3.4-2l3.4,2l-3.4,2L36.8,171.4z" />
            <path class="st7" d="M31.1,185.6v-4l3.4,2v4L31.1,185.6z M36.8,191.8l3.4,2l3.4-2v4l-3.4,2l-3.4-2V191.8z M48.4,171.4l3.4-2l3.4,2
		v4l-3.4,2v-4L48.4,171.4z M51.8,187l0-6.8l3.4-2V189l-9.2,5.4v-4L51.8,187z" />
            <path class="st7" d="M49.4,185.6l-3.4,2v-4l3.4-2V185.6z" />
            <path class="st7" d="M49.4,174.8l0,4l-5.8,3.4v6.8l-3.4,2l-3.4-2v-6.8l-5.8-3.4v-4l3.4-2l5.8,3.4l5.8-3.4L49.4,174.8L49.4,174.8z
		 M31.1,168l9.1-5.4l9.2,5.4l-3.4,2l-5.8-3.4l-5.8,3.4L31.1,168z" />
           
</g>
            <path class="st8" d="M40,152.3L40,152.3c15.3,0,27.8,12.4,27.8,27.8l0,0c0,15.3-12.4,27.8-27.8,27.8l0,0
		c-15.3,0-27.8-12.4-27.8-27.8l0,0C12.3,164.7,24.7,152.3,40,152.3z" />
            <path class="st7" d="M83,220L83,220c16.6,0,30,13.4,30,30l0,0c0,16.6-13.4,30-30,30l0,0c-16.6,0-30-13.4-30-30l0,0
		C53,233.4,66.4,220,83,220z" />
            <path d="M83,275.7c14.2,0,25.7-11.5,25.7-25.7c0-14.2-11.5-25.7-25.7-25.7S57.3,235.8,57.3,250C57.3,264.2,68.8,275.7,83,275.7z" />
            <path class="rotate_item st7" d="M99.9,242.4c-1.5-1-3-2.1-4.5-3.2c0,0-0.1-0.1-0.1-0.1c-0.2-0.1-0.4-0.3-0.6-0.3l0,0c-4.1-1-8.2-2-12.2-3
		c-3.6-0.9-7.3-1.8-10.9-2.7c-0.1,0-0.2-0.1-0.3-0.1c-0.3-0.1-0.7-0.2-1.1-0.1c-0.1,0-0.2,0.1-0.3,0.1l-0.1,0.1
		c-0.2,0.2-0.2,0.3-0.3,0.5l0,0.1v0.4l0,0.1c2.3,6.4,4.7,13,6.9,19.3c1.8,4.9,3.6,9.9,5.4,14.9c0.1,0.3,0.4,0.6,0.8,0.6h0.1
		c0.4,0,0.7-0.2,0.8-0.5l6.7-9.7c1.6-2.4,3.3-4.7,4.9-7.1c0.7-1,1.3-1.9,2-2.9c1.1-1.6,2.2-3.3,3.3-4.9l0.1-0.1v-0.1
		C100.4,243.3,100.4,242.7,99.9,242.4L99.9,242.4z M92.1,245.9c-1.6,0.8-3.2,1.7-4.8,2.5c0.9-1,1.9-2,2.8-3c1.2-1.3,2.4-2.6,3.6-3.9
		l0,0c0.1-0.1,0.2-0.3,0.4-0.4c0.1-0.1,0.2-0.2,0.3-0.3c0.6,0.4,1.3,0.9,1.9,1.3c0.4,0.3,0.9,0.6,1.3,0.9
		C95.7,244,93.9,245,92.1,245.9z M88,245.5c-1.2,1.3-2.5,2.6-3.7,4c-2.4-2.9-4.9-5.9-7.2-8.7c-1.1-1.3-2.2-2.6-3.2-3.9l0,0
		c-0.2-0.3-0.5-0.6-0.7-0.9c-0.2-0.2-0.3-0.4-0.5-0.6c1,0.3,2,0.5,2.9,0.7c0.9,0.2,1.7,0.4,2.6,0.6c4.9,1.2,9.8,2.4,14.7,3.6
		C91.3,242.1,89.6,243.8,88,245.5z M83.8,262c0.1-0.9,0.2-1.8,0.3-2.7c0.1-0.7,0.2-1.5,0.2-2.1c0.1-1.1,0.2-2.3,0.3-3.4l0-0.2
		c0.1-0.7,0.2-1.5,0.2-2.2c0.1-0.1,0.2-0.1,0.3-0.1c0.1-0.1,0.3-0.1,0.4-0.2c1.9-1,3.9-2,5.9-3.1c1.9-1,3.9-2.1,5.9-3.1
		c-1.8,2.6-3.6,5.3-5.4,7.8c-1.5,2.2-3.1,4.5-4.6,6.7c-0.6,0.9-1.2,1.8-1.8,2.7c-0.7,1-1.4,2-2,3C83.6,264,83.7,263,83.8,262
		L83.8,262z M72,237.4c-0.1-0.3-0.2-0.6-0.3-0.9c2.3,2.7,4.6,5.5,6.8,8.2c1.2,1.4,2.3,2.8,3.5,4.2c0.2,0.3,0.5,0.5,0.7,0.8
		c0.3,0.3,0.6,0.7,0.9,1.1c-0.1,0.9-0.2,1.7-0.3,2.6c-0.1,0.6-0.1,1.2-0.2,1.8v0c0,0.4-0.1,0.8-0.1,1.1c-0.1,0.5-0.2,1.7-0.2,1.7
		l0,0.1c-0.2,1.7-0.3,3.4-0.5,5.1c-0.1,0.7-0.1,1.4-0.2,2.1c0-0.1-0.1-0.3-0.1-0.4c-0.1-0.3-0.3-0.7-0.4-1l-0.9-2.5
		C77.8,253.3,74.9,245.4,72,237.4z" />
            <circle class="st20" cx="162.8" cy="249.8" r="27.5" />
            <path class="rotate_item st21" d="M162.8,224.5c-5,0-9.9,1.5-14,4.3c-4.2,2.8-7.4,6.7-9.3,11.3c-1.9,4.6-2.4,9.7-1.4,14.6
		c1,4.9,3.4,9.4,6.9,12.9c3.5,3.5,8,5.9,12.9,6.9c4.9,1,10,0.5,14.6-1.4c4.6-1.9,8.6-5.1,11.3-9.3c2.8-4.2,4.3-9,4.3-14
		c0-6.7-2.7-13.1-7.4-17.9C175.9,227.2,169.5,224.5,162.8,224.5L162.8,224.5z M163.1,250.5l-2.5,9h14.1c0.2,0,0.4,0.1,0.5,0.2
		c0.1,0.1,0.2,0.3,0.2,0.5l0,0l-1.1,4c0,0.2-0.1,0.4-0.2,0.5c-0.1,0.1-0.3,0.2-0.5,0.2h-22l3.6-12.3l-4,1.4l0.7-2.9l4-1.1l5.1-17
		c0-0.2,0.1-0.4,0.2-0.5c0.1-0.1,0.3-0.2,0.5-0.2h5.4c0.7,0,1.1,0,1.1,0.7l-4.3,14.4l4-1.1l-0.7,2.9L163.1,250.5z" />
            <g>
               <defs>
                  <path id="SVGID_5_" d="M122,290L122,290c16.6,0,30,13.4,30,30l0,0c0,16.6-13.4,30-30,30l0,0c-16.6,0-30-13.4-30-30l0,0
				C92,303.4,105.4,290,122,290z" />
               </defs>
               <clipPath id="SVGID_6_">
                  <use xlink:href="#SVGID_5_" style="overflow:visible;" />
               </clipPath>
               <g class="st22">
                  <path class="st7" d="M122,290L122,290c16.6,0,30,13.4,30,30l0,0c0,16.6-13.4,30-30,30l0,0c-16.6,0-30-13.4-30-30l0,0
				C92,303.4,105.4,290,122,290z" />
                  <path class="st23" d="M122,345.7c14.2,0,25.7-11.5,25.7-25.7s-11.5-25.7-25.7-25.7S96.3,305.8,96.3,320S107.8,345.7,122,345.7z" />
                  <path class="rotate_item st7" d="M125.1,322.2L125.1,322.2c-0.2,0-1.1,0.1-3.1,0.1c-1.6,0-2.8,0-3.2-0.1v0c-6.2-0.3-10.9-1.4-10.9-2.7
				c0-1.3,4.7-2.4,10.9-2.7v4.2c0.4,0,1.6,0.1,3.2,0.1c1.9,0,2.9-0.1,3.1-0.1v-4.2c6.2,0.3,10.9,1.4,10.9,2.7
				C136,320.9,131.3,321.9,125.1,322.2L125.1,322.2z M125.1,316.5v-3.8h8.7v-5.8h-23.7v5.8h8.7v3.8c-7.1,0.3-12.4,1.7-12.4,3.4
				c0,1.7,5.3,3.1,12.4,3.4v12.2h6.3v-12.2c7.1-0.3,12.4-1.7,12.4-3.4C137.5,318.2,132.1,316.8,125.1,316.5" />
               </g>
            </g>
         </g>
         <g id="Слой_2">

            <!-- 
                <path class="st24" d="M71,183L420,183" />  
            <path class="st24" d="M421.2,183.2l-23.8,0.1c-29.6-0.4-33.2-1.9-45.6-16.2C350.7,167.6,281.8,56,281.8,56
		c-8.4-7.9-25.4-17.7-37.8-17.3l-111-0.3" />
            <path class="st24" d="M97.6,109l134.8-0.2c16.6,1.4,30.6,4.4,41.4,9.5l48,30c8,3.8,17.2,4.9,28.8,5.2H416" />
            <path class="st24" d="M102,253.6l140.4,1.2c12.3-1.3,23.1-4.1,31.8-9.1l49-30.8c4.5-2.5,13.3-3.7,21.4-4l71.4-0.6" />
            <path class="st24" d="M136.6,326.6L246,327c12.2,0,29.6-8.1,35.1-15.2l69.4-110c7.4-10.7,16.7-16,37.3-16.9l33-0.2" />
        -->
         </g>
      </svg>