<svg width="18" height="18" viewBox="0 0 18 18" fill="none" xmlns="http://www.w3.org/2000/svg">
<path d="M16.5 11.25C16.5 14.1525 14.1525 16.5 11.25 16.5L12.0375 15.1875" stroke="#0D4FE8" stroke-width="1.5" stroke-linecap="round" stroke-linejoin="round"/>
<path d="M1.5 6.75C1.5 3.8475 3.8475 1.5 6.75 1.5L5.9625 2.8125" stroke="#0D4FE8" stroke-width="1.5" stroke-linecap="round" stroke-linejoin="round"/>
<path d="M10.275 3.33751L13.26 5.0625L16.215 3.34502" stroke="#0D4FE8" stroke-width="1.5" stroke-linecap="round" stroke-linejoin="round"/>
<path d="M13.26 8.11501V5.05499" stroke="#0D4FE8" stroke-width="1.5" stroke-linecap="round" stroke-linejoin="round"/>
<path d="M12.555 1.6575L10.755 2.65497C10.35 2.87997 10.0125 3.44996 10.0125 3.91496V5.81999C10.0125 6.28499 10.3425 6.85499 10.755 7.07999L12.555 8.0775C12.9375 8.295 13.5675 8.295 13.9575 8.0775L15.7575 7.07999C16.1625 6.85499 16.5 6.28499 16.5 5.81999V3.91496C16.5 3.44996 16.17 2.87997 15.7575 2.65497L13.9575 1.6575C13.575 1.4475 12.945 1.4475 12.555 1.6575Z" stroke="#0D4FE8" stroke-width="1.5" stroke-linecap="round" stroke-linejoin="round"/>
<path d="M1.76251 11.5875L4.74001 13.3125L7.70251 11.595" stroke="#0D4FE8" stroke-width="1.5" stroke-linecap="round" stroke-linejoin="round"/>
<path d="M4.74002 16.365V13.305" stroke="#0D4FE8" stroke-width="1.5" stroke-linecap="round" stroke-linejoin="round"/>
<path d="M4.0425 9.9075L2.2425 10.905C1.8375 11.13 1.5 11.7 1.5 12.165V14.07C1.5 14.535 1.83 15.105 2.2425 15.33L4.0425 16.3275C4.425 16.545 5.055 16.545 5.445 16.3275L7.245 15.33C7.65 15.105 7.9875 14.535 7.9875 14.07V12.165C7.9875 11.7 7.6575 11.13 7.245 10.905L5.445 9.9075C5.055 9.6975 4.425 9.6975 4.0425 9.9075Z" stroke="#0D4FE8" stroke-width="1.5" stroke-linecap="round" stroke-linejoin="round"/>
</svg>
