<svg width="49" height="48" viewBox="0 0 49 48" fill="none" xmlns="http://www.w3.org/2000/svg">
<path d="M36.6667 14.32C36.5467 14.3 36.4067 14.3 36.2867 14.32C33.5267 14.22 31.3267 11.96 31.3267 9.16C31.3267 6.3 33.6267 4 36.4867 4C39.3467 4 41.6467 6.32 41.6467 9.16C41.6267 11.96 39.4267 14.22 36.6667 14.32Z" stroke="#0D4FE8" stroke-width="1.5" stroke-linecap="round" stroke-linejoin="round"/>
<path d="M34.6067 28.88C37.3467 29.34 40.3667 28.86 42.4867 27.44C45.3067 25.56 45.3067 22.48 42.4867 20.6C40.3467 19.18 37.2867 18.7 34.5467 19.18" stroke="#0D4FE8" stroke-width="1.5" stroke-linecap="round" stroke-linejoin="round"/>
<path d="M12.6067 14.32C12.7267 14.3 12.8666 14.3 12.9866 14.32C15.7466 14.22 17.9466 11.96 17.9466 9.16C17.9466 6.3 15.6467 4 12.7867 4C9.92665 4 7.62665 6.32 7.62665 9.16C7.64665 11.96 9.84665 14.22 12.6067 14.32Z" stroke="#0D4FE8" stroke-width="1.5" stroke-linecap="round" stroke-linejoin="round"/>
<path d="M14.6667 28.88C11.9267 29.34 8.90666 28.86 6.78666 27.44C3.96666 25.56 3.96666 22.48 6.78666 20.6C8.92666 19.18 11.9867 18.7 14.7267 19.18" stroke="#0D4FE8" stroke-width="1.5" stroke-linecap="round" stroke-linejoin="round"/>
<path d="M24.6667 29.26C24.5467 29.24 24.4067 29.24 24.2867 29.26C21.5267 29.16 19.3267 26.9 19.3267 24.1C19.3267 21.24 21.6267 18.94 24.4867 18.94C27.3467 18.94 29.6467 21.26 29.6467 24.1C29.6267 26.9 27.4267 29.18 24.6667 29.26Z" stroke="#0D4FE8" stroke-width="1.5" stroke-linecap="round" stroke-linejoin="round"/>
<path d="M18.8467 35.56C16.0267 37.44 16.0267 40.52 18.8467 42.4C22.0467 44.54 27.2867 44.54 30.4867 42.4C33.3067 40.52 33.3067 37.44 30.4867 35.56C27.3067 33.44 22.0467 33.44 18.8467 35.56Z" stroke="#0D4FE8" stroke-width="1.5" stroke-linecap="round" stroke-linejoin="round"/>
</svg>
