<svg width="48" height="48" viewBox="0 0 48 48" fill="none" xmlns="http://www.w3.org/2000/svg">
<path d="M24 44C35.0457 44 44 35.0457 44 24C44 12.9543 35.0457 4 24 4C12.9543 4 4 12.9543 4 24C4 35.0457 12.9543 44 24 44Z" stroke="#0D4FE8" stroke-width="1.5" stroke-linecap="round" stroke-linejoin="round"/>
<path d="M16 6H18C14.1 17.68 14.1 30.32 18 42H16" stroke="#0D4FE8" stroke-width="1.5" stroke-linecap="round" stroke-linejoin="round"/>
<path d="M30 6C33.9 17.68 33.9 30.32 30 42" stroke="#0D4FE8" stroke-width="1.5" stroke-linecap="round" stroke-linejoin="round"/>
<path d="M6 32V30C17.68 33.9 30.32 33.9 42 30V32" stroke="#0D4FE8" stroke-width="1.5" stroke-linecap="round" stroke-linejoin="round"/>
<path d="M6 18C17.68 14.1 30.32 14.1 42 18" stroke="#0D4FE8" stroke-width="1.5" stroke-linecap="round" stroke-linejoin="round"/>
</svg>
