<svg width="49" height="48" viewBox="0 0 49 48" fill="none" xmlns="http://www.w3.org/2000/svg">
<path d="M44.3333 40.14V24.36C44.3333 13.16 35.3333 4 24.3333 4C13.3333 4 4.33331 13.16 4.33331 24.36V40.14C4.33331 42.66 5.83328 43.34 7.67328 41.66L9.67328 39.84C10.4133 39.16 11.6133 39.16 12.3533 39.84L16.3533 43.5C17.0933 44.18 18.2933 44.18 19.0333 43.5L23.0333 39.84C23.7733 39.16 24.9733 39.16 25.7133 39.84L29.7133 43.5C30.4533 44.18 31.6534 44.18 32.3934 43.5L36.3934 39.84C37.1334 39.16 38.3333 39.16 39.0733 39.84L41.0733 41.66C42.8333 43.34 44.3333 42.66 44.3333 40.14Z" stroke="#0D4FE8" stroke-width="1.5" stroke-linecap="round" stroke-linejoin="round"/>
<path d="M16.3333 28C21.0733 31.56 27.5933 31.56 32.3333 28" stroke="#0D4FE8" stroke-width="1.5" stroke-linecap="round" stroke-linejoin="round"/>
<path d="M24.3333 22C26.5425 22 28.3333 20.2091 28.3333 18C28.3333 15.7909 26.5425 14 24.3333 14C22.1242 14 20.3333 15.7909 20.3333 18C20.3333 20.2091 22.1242 22 24.3333 22Z" stroke="#0D4FE8" stroke-width="1.5" stroke-linecap="round" stroke-linejoin="round"/>
</svg>
