<svg width="70" height="70" viewBox="0 0 70 70" fill="none" xmlns="http://www.w3.org/2000/svg">
<path d="M2.06691 29.8626C9.17386 41.2804 8.13941 52.8032 11.5655 58.306C14.9916 63.8088 25.3477 73.3949 50.6586 57.639C75.9694 41.8832 70.0077 24.0274 66.2414 17.9743C48.6014 -10.364 -10.5195 9.64042 2.06691 29.8626Z" fill="#EFEFEF"/>
<path d="M41.8058 45.2082C50.1284 45.2082 56.8752 38.4614 56.8752 30.1388C56.8752 21.8162 50.1284 15.0693 41.8058 15.0693C33.4831 15.0693 26.7363 21.8162 26.7363 30.1388C26.7363 38.4614 33.4831 45.2082 41.8058 45.2082Z" fill="white"/>
<path d="M32.1613 30.1388C32.1613 22.7441 37.493 16.6054 44.5183 15.326C43.6374 15.1646 42.7333 15.0693 41.8058 15.0693C33.4835 15.0693 26.7363 21.8166 26.7363 30.1388C26.7363 38.461 33.4835 45.2082 41.8058 45.2082C42.7333 45.2082 43.6374 45.1129 44.5183 44.9516C37.493 43.6721 32.1613 37.5335 32.1613 30.1388Z" fill="#D5DBE1"/>
<path d="M13.3828 16.3896L14.7577 15.0147L17.5076 17.7646L16.1327 19.1395L13.3828 16.3896Z" fill="#A4AFC1"/>
<path d="M5.47656 8.48779L6.85149 7.11286L9.60135 9.86272L8.22642 11.2377L5.47656 8.48779Z" fill="#A4AFC1"/>
<path d="M13.7266 9.85889L16.4764 7.10903L17.8514 8.48396L15.1015 11.2338L13.7266 9.85889Z" fill="#A4AFC1"/>
<path d="M5.82031 17.7651L8.57017 15.0153L9.9451 16.3902L7.19524 19.1401L5.82031 17.7651Z" fill="#A4AFC1"/>
<path d="M59.7643 55.3524C58.1563 55.3524 56.8477 54.0438 56.8477 52.4357C56.8477 50.8277 58.1563 49.519 59.7643 49.519C61.3724 49.519 62.681 50.8277 62.681 52.4357C62.681 54.0438 61.3724 55.3524 59.7643 55.3524ZM59.7643 51.4635C59.2296 51.4635 58.7921 51.901 58.7921 52.4357C58.7921 52.9704 59.2296 53.4079 59.7643 53.4079C60.299 53.4079 60.7365 52.9704 60.7365 52.4357C60.7365 51.901 60.299 51.4635 59.7643 51.4635Z" fill="#A4AFC1"/>
<path d="M28.1938 54.4447C37.3218 54.4447 44.7216 47.045 44.7216 37.9169C44.7216 28.7889 37.3218 21.3892 28.1938 21.3892C19.0658 21.3892 11.666 28.7889 11.666 37.9169C11.666 47.045 19.0658 54.4447 28.1938 54.4447Z" fill="#FEB46D"/>
<path d="M17.616 37.9169C17.616 29.8067 23.463 23.0731 31.1688 21.6711C30.2024 21.4942 29.2107 21.3892 28.1938 21.3892C19.0666 21.3892 11.666 28.7897 11.666 37.9169C11.666 47.0442 19.0666 54.4447 28.1938 54.4447C29.2107 54.4447 30.2024 54.3397 31.1688 54.1628C23.463 52.7608 17.616 46.0272 17.616 37.9169Z" fill="#FF6600"/>
<path d="M28.1938 54.4447C19.0821 54.4447 11.666 47.0306 11.666 37.9169C11.666 28.8033 19.0821 21.3892 28.1938 21.3892C37.3055 21.3892 44.7216 28.8033 44.7216 37.9169C44.7216 47.0306 37.3074 54.4447 28.1938 54.4447ZM28.1938 24.3058C20.6902 24.3058 14.5827 30.4133 14.5827 37.9169C14.5827 45.4205 20.6902 51.5281 28.1938 51.5281C35.6974 51.5281 41.8049 45.4205 41.8049 37.9169C41.8049 30.4133 35.6994 24.3058 28.1938 24.3058Z" fill="black"/>
<path d="M48.2476 45.3641L47.1081 42.6788C52.1559 40.5361 55.4168 35.6147 55.4168 30.1391C55.4168 22.6355 49.3093 16.528 41.8056 16.528C38.8656 16.528 36.0598 17.4516 33.6856 19.1977L31.957 16.8508C34.8329 14.7313 38.2395 13.6113 41.8056 13.6113C50.9193 13.6113 58.3334 21.0255 58.3334 30.1391C58.3334 36.7891 54.3745 42.7644 48.2476 45.3641Z" fill="black"/>
<path d="M28.932 44.7224H24.7904V41.8058H28.932C29.597 41.8058 30.1376 41.2652 30.1376 40.6002C30.1376 39.9158 29.597 39.3752 28.932 39.3752H27.4543C25.1812 39.3752 23.332 37.526 23.332 35.253C23.332 32.9605 25.1812 31.1113 27.4543 31.1113H31.5959V34.028H27.4543C26.7893 34.028 26.2487 34.5686 26.2487 35.2336C26.2487 35.918 26.7893 36.4586 27.4543 36.4586H28.932C31.2051 36.4586 33.0543 38.3077 33.0543 40.5808C33.0543 42.8733 31.2051 44.7224 28.932 44.7224Z" fill="black"/>
<path d="M26.7344 29.6528H29.651V32.5695H26.7344V29.6528Z" fill="black"/>
<path d="M26.7344 43.2642H29.651V46.1808H26.7344V43.2642Z" fill="black"/>
</svg>
