<svg width="66" height="66" viewBox="0 0 66 66" fill="none" xmlns="http://www.w3.org/2000/svg">
<path d="M50.2644 7.17582C37.5869 7.41232 28.7558 1.00665 22.6471 1.12215C16.5384 1.23765 3.77111 4.98865 4.29727 33.0955C4.82344 61.2023 22.1613 65.0028 28.8823 64.8782C60.3478 64.2897 72.7191 6.75598 50.2644 7.17582Z" fill="#EFEFEF"/>
<path d="M12.3191 17.2603L14.9118 14.6675L16.2082 15.9639L13.6155 18.5566L12.3191 17.2603Z" fill="#A4AFC1"/>
<path d="M4.86597 24.7119L7.45869 22.1192L8.75505 23.4156L6.16233 26.0083L4.86597 24.7119Z" fill="#A4AFC1"/>
<path d="M4.87012 15.6318L6.16648 14.3355L8.7592 16.9282L7.46284 18.2246L4.87012 15.6318Z" fill="#A4AFC1"/>
<path d="M48.2605 59.0938C46.7443 59.0938 45.5105 57.8599 45.5105 56.3438C45.5105 54.8276 46.7443 53.5938 48.2605 53.5938C49.7767 53.5938 51.0105 54.8276 51.0105 56.3438C51.0105 57.8599 49.7767 59.0938 48.2605 59.0938ZM48.2605 55.4271C47.7545 55.4271 47.3438 55.8396 47.3438 56.3438C47.3438 56.8479 47.7545 57.2604 48.2605 57.2604C48.7665 57.2604 49.1772 56.8479 49.1772 56.3438C49.1772 55.8396 48.7665 55.4271 48.2605 55.4271Z" fill="#A4AFC1"/>
<path d="M39.0316 33.4952L33.7883 28.2518L30.1913 24.6585L29.1884 23.6557C28.2039 22.6712 26.7079 22.354 25.4063 22.882L16.9583 26.3837V37.4167H17.8749C20.1849 37.4167 22.4106 38.2765 24.1211 39.8275L28.1819 43.5125C29.1371 44.4402 30.6606 44.4292 31.6029 43.4887L31.6268 43.4648C32.5746 42.517 32.5764 40.9807 31.6323 40.0292L32.0631 40.46C33.0146 41.4115 34.5564 41.4115 35.5079 40.46C36.4594 39.5085 36.4594 37.9667 35.5079 37.0152L33.7149 35.2222H33.7168L35.5134 37.0188C36.4668 37.9722 38.0068 37.9722 38.9601 37.0188L39.0334 36.9455C39.9666 35.9885 39.9666 34.4485 39.0316 33.4952Z" fill="#FEB46D"/>
<path d="M49.0418 25.7804L39.0978 21.714C38.1646 21.3254 37.1086 21.362 36.2066 21.8149L30.1456 24.849C28.7193 25.564 28.4113 27.4652 29.5388 28.5927C30.2519 29.3059 31.3428 29.4819 32.2448 29.0272L37.6293 26.3139L34.8151 29.2784L39.0318 33.495V36.9417L43.0944 38.0105L45.7473 37.4147L49.0418 35.2147V25.7804Z" fill="#F3F3F1"/>
<path d="M49.0417 23.375H53.6251V38.9583H49.0417V23.375Z" fill="#F3F3F1"/>
<path d="M12.375 23.375H16.9583V38.9583H12.375V23.375Z" fill="#FEB46D"/>
<path d="M35.2991 40.0273C35.4091 40.1373 35.4622 40.2767 35.5466 40.4013C35.5686 40.3775 35.5759 40.3482 35.5979 40.3243L35.2991 40.0273Z" fill="#FF6600"/>
<path d="M27.7878 39.8271C26.0773 38.2743 23.8516 37.4163 21.5416 37.4163H20.6249V26.3833L28.4771 23.1291C27.5568 22.5901 26.4256 22.4691 25.4063 22.8816L16.9583 26.3833V37.4163H17.8749C20.1849 37.4163 22.4106 38.2761 24.1211 39.8271L28.1819 43.5121C29.1371 44.4398 30.6606 44.4288 31.6029 43.4883L31.6268 43.4644C31.6543 43.4369 31.6634 43.3984 31.6909 43.3691L27.7878 39.8271Z" fill="#FF6600"/>
<path d="M39.0978 21.714C38.1646 21.3254 37.1086 21.362 36.2066 21.8149L35.9683 21.934L45.3751 25.7822V35.2165L42.0806 37.4165L41.4078 37.5669L43.0963 38.0105L45.7491 37.4147L49.0436 35.2147V25.7804L39.0978 21.714Z" fill="#D5DBE1"/>
<path d="M37.2038 39.0905C36.2321 39.0905 35.2715 38.7202 34.5381 37.9868L32.7415 36.1902L34.6866 34.245L36.4833 36.0417C36.8976 36.4542 37.5723 36.4542 37.9848 36.0417C38.4596 35.5577 38.4596 34.8738 38.049 34.454L32.8166 29.2235L34.7618 27.2783L40.0051 32.5198C41.4663 34.0103 41.4663 36.4212 40.0143 37.9025C39.2186 38.6982 38.2048 39.0905 37.2038 39.0905Z" fill="black"/>
<path d="M16.4353 25.1206L19.9631 23.6583L21.0154 26.197L17.4876 27.6593L16.4353 25.1206Z" fill="black"/>
<path d="M29.2198 25.6302L28.2169 24.6274C27.6101 24.0187 26.7099 23.8336 25.9216 24.1544L23.7601 25.0491L22.7078 22.5099L24.8803 21.6097C26.7008 20.8709 28.7743 21.2926 30.1621 22.6822L31.1631 23.6851L29.2198 25.6302Z" fill="black"/>
<path d="M31.1906 30.6553C30.2299 30.6553 29.2803 30.2795 28.5653 29.5645C27.7109 28.7102 27.3333 27.5387 27.5258 26.3452C27.7183 25.1535 28.4479 24.1598 29.5278 23.619L35.5888 20.5848C36.8538 19.9542 38.3259 19.9028 39.6258 20.4455L49.5606 24.51L48.5193 27.0565L38.5753 22.9883C38.0033 22.7482 37.3634 22.7738 36.8189 23.0452L30.7598 26.0793C30.4793 26.2187 30.2904 26.4772 30.2391 26.787C30.1896 27.095 30.2868 27.3993 30.5086 27.6212C30.8038 27.9163 31.2529 27.986 31.6233 27.8008L37.0096 25.0893L38.2471 27.546L32.8626 30.2575C32.3309 30.5233 31.7589 30.6553 31.1906 30.6553Z" fill="black"/>
<path d="M33.7847 42.546C32.7672 42.546 31.8102 42.1481 31.0897 41.4295L28.853 39.1928L30.7982 37.2476L33.0349 39.4843C33.4364 39.8858 34.1349 39.8858 34.5345 39.4843C34.7362 39.2845 34.8462 39.0168 34.8462 38.7345C34.8462 38.4521 34.7362 38.1845 34.5345 37.9846L32.7397 36.1898L34.6849 34.2446L36.4815 36.0395C37.202 36.7618 37.598 37.717 37.598 38.7345C37.598 39.7538 37.202 40.709 36.4815 41.4295C35.761 42.1481 34.804 42.546 33.7847 42.546Z" fill="black"/>
<path d="M29.8705 45.5655C28.9117 45.5655 27.9565 45.2099 27.2232 44.4949L23.199 40.8447C21.7379 39.5192 19.8459 38.7896 17.8769 38.7896H16.9602V36.0396H17.8769C20.5315 36.0396 23.078 37.0222 25.047 38.8079L29.106 42.4929C29.5552 42.9292 30.2244 42.9255 30.6314 42.5167C30.8569 42.2912 30.9669 42.0235 30.9669 41.7412C30.9669 41.4589 30.8569 41.1912 30.657 40.9914L28.8604 39.1947L30.8055 37.2496L32.6022 39.0462C33.3227 39.7667 33.7187 40.7219 33.7187 41.7412C33.7187 42.7605 33.3227 43.7157 32.6022 44.4362C31.8432 45.1897 30.855 45.5655 29.8705 45.5655Z" fill="black"/>
<path d="M43.7781 39.3817C43.2574 39.3817 42.7349 39.2955 42.2308 39.1232L38.9546 38.003L39.8438 35.3997L43.1199 36.5198C43.8294 36.7655 44.6196 36.6078 45.1824 36.1147L48.0479 33.1318L50.0279 35.0403L47.0763 38.1038C46.1211 38.949 44.9514 39.3817 43.7781 39.3817Z" fill="black"/>
<path d="M53.6251 40.3333H49.0417C48.2827 40.3333 47.6667 39.7173 47.6667 38.9583V23.375C47.6667 22.616 48.2827 22 49.0417 22H53.6251C54.3841 22 55.0001 22.616 55.0001 23.375V38.9583C55.0001 39.7173 54.3841 40.3333 53.6251 40.3333ZM50.4167 37.5833H52.2501V24.75H50.4167V37.5833Z" fill="black"/>
<path d="M16.9583 40.3333H12.375C11.616 40.3333 11 39.7173 11 38.9583V23.375C11 22.616 11.616 22 12.375 22H16.9583C17.7173 22 18.3333 22.616 18.3333 23.375V38.9583C18.3333 39.7173 17.7173 40.3333 16.9583 40.3333ZM13.75 37.5833H15.5833V24.75H13.75V37.5833Z" fill="black"/>
</svg>
