<svg width="48" height="48" viewBox="0 0 48 48" fill="none" xmlns="http://www.w3.org/2000/svg">
<path fill-rule="evenodd" clip-rule="evenodd" d="M23.9375 2.4375C12.0289 2.4375 2.375 12.0914 2.375 24C2.375 35.9087 12.0289 45.5625 23.9375 45.5625C35.8462 45.5625 45.5 35.9087 45.5 24C45.5 12.0914 35.8462 2.4375 23.9375 2.4375ZM0.5 24C0.5 11.0558 10.9933 0.5625 23.9375 0.5625C36.8818 0.5625 47.375 11.0558 47.375 24C47.375 36.9443 36.8818 47.4375 23.9375 47.4375C10.9933 47.4375 0.5 36.9443 0.5 24Z" fill="#161616"/>
<path fill-rule="evenodd" clip-rule="evenodd" d="M13.8995 15.837C14.2657 15.471 14.8593 15.471 15.2255 15.837L22.7255 23.337C23.0915 23.7032 23.0915 24.2968 22.7255 24.663L15.2255 32.163C14.8593 32.529 14.2657 32.529 13.8995 32.163C13.5335 31.7968 13.5335 31.2032 13.8995 30.837L20.7367 24L13.8995 17.163C13.5335 16.7968 13.5335 16.2032 13.8995 15.837Z" fill="#161616"/>
<path fill-rule="evenodd" clip-rule="evenodd" d="M27.0245 15.837C27.3907 15.471 27.9843 15.471 28.3505 15.837L35.8505 23.337C36.2165 23.7032 36.2165 24.2968 35.8505 24.663L28.3505 32.163C27.9843 32.529 27.3907 32.529 27.0245 32.163C26.6585 31.7968 26.6585 31.2032 27.0245 30.837L33.8617 24L27.0245 17.163C26.6585 16.7968 26.6585 16.2032 27.0245 15.837Z" fill="#161616"/>
</svg>
