<svg width="70" height="70" viewBox="0 0 70 70" fill="none" xmlns="http://www.w3.org/2000/svg">
<path d="M8.10366 16.2889C8.10366 29.7386 1.13672 38.9747 1.13672 45.4555C1.13672 51.9364 4.86228 65.5475 34.6764 65.5475C64.4906 65.5475 68.8656 47.2367 68.8656 40.1083C68.8676 6.72805 8.10366 -7.53057 8.10366 16.2889Z" fill="#EFEFEF"/>
<path d="M15.9167 14.8333C14.3086 14.8333 13 13.5247 13 11.9167C13 10.3086 14.3086 9 15.9167 9C17.5247 9 18.8333 10.3086 18.8333 11.9167C18.8333 13.5247 17.5247 14.8333 15.9167 14.8333ZM15.9167 10.9444C15.3819 10.9444 14.9444 11.3819 14.9444 11.9167C14.9444 12.4514 15.3819 12.8889 15.9167 12.8889C16.4514 12.8889 16.8889 12.4514 16.8889 11.9167C16.8889 11.3819 16.4514 10.9444 15.9167 10.9444Z" fill="#A4AFC1"/>
<path d="M52.013 46.6668C49.4891 46.6668 46.5589 47.8879 43.7491 48.7493V47.9112C43.7491 46.064 42.4464 44.4695 40.638 44.1001L21.913 40.2695L19.0547 50.8279C22.788 52.5779 32.3158 56.8751 36.9436 56.8751C42.7769 56.8751 56.8741 49.0973 56.8741 49.0973C56.8741 49.0973 55.9019 46.6668 52.013 46.6668Z" fill="#F3F3F1"/>
<path d="M13.125 36.4585V52.9863H18.4722L22.3611 38.6246C22.3611 38.6246 19.5261 36.4585 13.125 36.4585Z" fill="#FEB46D"/>
<path d="M23.4297 50.8279L26.0586 41.1173L21.913 40.2695L19.0547 50.8279C22.788 52.5779 32.3158 56.8751 36.9436 56.8751C37.5561 56.8751 38.2736 56.774 39.0397 56.6204C34.06 55.6831 26.6264 52.327 23.4297 50.8279Z" fill="#D5DBE1"/>
<path d="M13.125 36.4585V52.9863H17.5V36.8474C16.2828 36.6199 14.8419 36.4585 13.125 36.4585Z" fill="#FF6600"/>
<path d="M39.8996 16.2663C39.8996 15.766 40.0287 15.3051 40.2288 14.8812C39.7021 13.762 38.583 12.9746 37.2663 12.9746C35.4493 12.9746 33.9746 14.4493 33.9746 16.2663C33.9746 18.0833 35.4493 19.558 37.2663 19.558C38.583 19.558 39.7021 18.7706 40.2288 17.6514C40.0287 17.2275 39.8996 16.7666 39.8996 16.2663Z" fill="#FF6600"/>
<path d="M55.7004 32.0671C55.7004 31.5667 55.8295 31.1059 56.0296 30.6819C55.5029 29.5628 54.3838 28.7754 53.0671 28.7754C51.2501 28.7754 49.7754 30.2501 49.7754 32.0671C49.7754 33.8841 51.2501 35.3588 53.0671 35.3588C54.3838 35.3588 55.5029 34.5714 56.0296 33.4522C55.8295 33.0282 55.7004 32.5674 55.7004 32.0671Z" fill="#FF6600"/>
<path d="M37.2667 21.5334C34.3621 21.5334 32 19.1713 32 16.2667C32 13.3621 34.3621 11 37.2667 11C40.1713 11 42.5334 13.3621 42.5334 16.2667C42.5334 19.1713 40.1713 21.5334 37.2667 21.5334ZM37.2667 14.95C36.5425 14.95 35.95 15.5425 35.95 16.2667C35.95 16.9909 36.5425 17.5834 37.2667 17.5834C37.9909 17.5834 38.5834 16.9909 38.5834 16.2667C38.5834 15.5425 37.9909 14.95 37.2667 14.95Z" fill="black"/>
<path d="M53.0675 37.3332C50.1629 37.3332 47.8008 34.9711 47.8008 32.0665C47.8008 29.1619 50.1629 26.7998 53.0675 26.7998C55.9721 26.7998 58.3342 29.1619 58.3342 32.0665C58.3342 34.9711 55.9721 37.3332 53.0675 37.3332ZM53.0675 30.7498C52.3433 30.7498 51.7508 31.3423 51.7508 32.0665C51.7508 32.7907 52.3433 33.3832 53.0675 33.3832C53.7916 33.3832 54.3842 32.7907 54.3842 32.0665C54.3842 31.3423 53.7916 30.7498 53.0675 30.7498Z" fill="black"/>
<path d="M35.041 34.1572L52.1725 11.7848L55.3088 14.1864L38.1773 36.5588L35.041 34.1572Z" fill="black"/>
<path d="M18.4716 54.4444H13.1243C12.3193 54.4444 11.666 53.7911 11.666 52.9861V36.4583C11.666 35.6533 12.3193 35 13.1243 35C19.9416 35 23.1149 37.3664 23.2452 37.4675C23.7157 37.8272 23.9238 38.4358 23.7682 39.0075L19.8793 53.3692C19.7082 54.0031 19.1307 54.4444 18.4716 54.4444ZM14.5827 51.5278H17.3555L20.6571 39.3342C19.6402 38.8539 17.653 38.1383 14.5827 37.9594V51.5278Z" fill="black"/>
<path d="M36.9447 58.333C32.5483 58.333 24.4536 54.9691 18.4355 52.1458L19.6742 49.5072C27.6833 53.2638 33.9794 55.4163 36.9447 55.4163C40.888 55.4163 49.8403 51.158 54.5322 48.7002C53.9917 48.3911 53.1867 48.1247 52.0142 48.1247C50.3069 48.1247 48.1953 48.8266 46.1555 49.5091C43.8942 50.2636 41.5569 51.0413 39.3753 51.0413C35.2783 51.0413 29.8689 49.0911 29.6414 49.0094L30.6369 46.2677C30.6875 46.2872 35.7936 48.1247 39.3753 48.1247C41.0825 48.1247 43.1942 47.4227 45.2339 46.7402C47.4953 45.9858 49.8325 45.208 52.0142 45.208C56.8344 45.208 58.1742 48.4183 58.2286 48.5563C58.5028 49.2408 58.2228 50.0186 57.5792 50.3744C56.9919 50.6991 43.0833 58.333 36.9447 58.333Z" fill="black"/>
<path d="M45.2091 48.7862H42.2925V47.9112C42.2925 46.762 41.4739 45.7606 40.348 45.5273L21.6211 41.6967L22.2064 38.8403L40.9333 42.6709C43.4105 43.1784 45.2091 45.3814 45.2091 47.9092V48.7862Z" fill="black"/>
</svg>
