<svg width="70" height="70" viewBox="0 0 70 70" fill="none" xmlns="http://www.w3.org/2000/svg">
<path d="M53.7117 8.10269C40.262 8.10269 31.0259 1.13574 24.5451 1.13574C18.0642 1.13574 4.45312 4.8613 4.45312 34.6755C4.45312 64.4896 22.764 68.8646 29.8923 68.8646C63.2726 68.8666 77.5312 8.10269 53.7117 8.10269Z" fill="#F3F3F1"/>
<path d="M54.2559 7.03223L55.6308 5.6573L58.3806 8.40716L57.0057 9.78209L54.2559 7.03223Z" fill="#A4AFC1"/>
<path d="M62.1611 14.9385L63.5361 13.5635L66.2859 16.3134L64.911 17.6883L62.1611 14.9385Z" fill="#A4AFC1"/>
<path d="M61.8164 8.40771L64.5663 5.65786L65.9412 7.03279L63.1913 9.78264L61.8164 8.40771Z" fill="#A4AFC1"/>
<path d="M56.875 20.9026V23.8192H13.125V20.9026C13.125 18.7637 14.875 17.0137 17.0139 17.0137H52.9861C55.125 17.0137 56.875 18.7637 56.875 20.9026Z" fill="#FEB46D"/>
<path d="M56.875 23.8193V52.986C56.875 55.1249 55.125 56.8749 52.9861 56.8749H17.0139C14.875 56.8749 13.125 55.1249 13.125 52.986V23.8193H56.875Z" fill="white"/>
<path d="M45.6942 35.4861C51.8691 35.4861 56.8748 30.4804 56.8748 24.3056C56.8748 18.1307 51.8691 13.125 45.6942 13.125C39.5194 13.125 34.5137 18.1307 34.5137 24.3056C34.5137 30.4804 39.5194 35.4861 45.6942 35.4861Z" fill="white"/>
<path d="M48.0939 23.6575H43.1562V19.3193H48.0939C49.2881 19.3193 50.2551 20.2864 50.2551 21.4805V21.4963C50.2551 22.6905 49.2881 23.6575 48.0939 23.6575Z" fill="#FEB46D"/>
<path d="M48.8827 27.9959H43.1562V23.6577H48.8827C50.0768 23.6577 51.0439 24.6247 51.0439 25.8189V25.8347C51.0439 27.0289 50.0768 27.9959 48.8827 27.9959Z" fill="#FEB46D"/>
<path d="M43.1562 19.3193H46.7057V23.6575H43.1562V19.3193Z" fill="#FF6600"/>
<path d="M43.1562 23.6577H46.7057V27.9959H43.1562V23.6577Z" fill="#FF6600"/>
<path d="M48.0934 24.8407H43.1558C42.5027 24.8407 41.9727 24.3107 41.9727 23.6576V19.3194C41.9727 18.6663 42.5027 18.1362 43.1558 18.1362H48.0934C49.9376 18.1362 51.4378 19.6365 51.4378 21.4806C51.4378 23.3405 49.9376 24.8407 48.0934 24.8407ZM44.3389 22.4744H48.0934C48.633 22.4744 49.0715 22.0359 49.0715 21.4964C49.0715 20.9411 48.633 20.5025 48.0934 20.5025H44.3389V22.4744Z" fill="black"/>
<path d="M48.8822 29.1791H43.1558C42.5027 29.1791 41.9727 28.649 41.9727 27.9959V23.6578C41.9727 23.0047 42.5027 22.4746 43.1558 22.4746H48.8822C50.7263 22.4746 52.2266 23.9748 52.2266 25.819C52.2266 27.6789 50.7263 29.1791 48.8822 29.1791ZM44.3389 26.8128H48.8822C49.4217 26.8128 49.8603 26.3742 49.8603 25.8347C49.8603 25.2794 49.4217 24.8409 48.8822 24.8409H44.3389V26.8128Z" fill="black"/>
<path d="M43.5498 16.9531H45.9161V19.3194H43.5498V16.9531Z" fill="black"/>
<path d="M46.7051 16.9531H49.0714V19.3194H46.7051V16.9531Z" fill="black"/>
<path d="M46.7051 27.9956H49.0714V30.3619H46.7051V27.9956Z" fill="black"/>
<path d="M43.5498 27.9956H45.9161V30.3619H43.5498V27.9956Z" fill="black"/>
<path d="M21.3889 17.0137H17.0139C14.875 17.0137 13.125 18.7637 13.125 20.9026V23.8192H17.5V20.9026C17.5 18.7637 19.25 17.0137 21.3889 17.0137Z" fill="#FF6600"/>
<path d="M17.5 52.986V23.8193H13.125V52.986C13.125 55.1249 14.875 56.8749 17.0139 56.8749H21.3889C19.25 56.8749 17.5 55.1249 17.5 52.986Z" fill="#D5DBE1"/>
<path d="M38.8887 24.3056C38.8887 18.8806 42.7542 14.3597 47.8817 13.3428C47.1739 13.2008 46.4428 13.125 45.6942 13.125C39.5187 13.125 34.5137 18.13 34.5137 24.3056C34.5137 30.4811 39.5187 35.4861 45.6942 35.4861C46.4428 35.4861 47.1739 35.4103 47.8817 35.2683C42.7542 34.2514 38.8887 29.7306 38.8887 24.3056Z" fill="#D5DBE1"/>
<path d="M45.6946 36.9443C38.7257 36.9443 33.0557 31.2743 33.0557 24.3054C33.0557 17.3365 38.7257 11.6665 45.6946 11.6665C52.6634 11.6665 58.3334 17.3365 58.3334 24.3054C58.3334 31.2743 52.6634 36.9443 45.6946 36.9443ZM45.6946 14.5832C40.3337 14.5832 35.9723 18.9446 35.9723 24.3054C35.9723 29.6662 40.3337 34.0276 45.6946 34.0276C51.0554 34.0276 55.4168 29.6662 55.4168 24.3054C55.4168 18.9446 51.0554 14.5832 45.6946 14.5832Z" fill="black"/>
<path d="M52.9864 58.3334H17.0142C14.0645 58.3334 11.667 55.9359 11.667 52.9862V20.9029C11.667 17.9532 14.0645 15.5557 17.0142 15.5557H30.3142C31.1192 15.5557 31.7725 16.209 31.7725 17.014C31.7725 17.819 31.1192 18.4723 30.3142 18.4723H17.0142C15.6745 18.4723 14.5837 19.5632 14.5837 20.9029V52.9862C14.5837 54.3259 15.6745 55.4168 17.0142 55.4168H52.9864C54.3262 55.4168 55.417 54.3259 55.417 52.9862V37.1001C55.417 36.2951 56.0703 35.6418 56.8753 35.6418C57.6803 35.6418 58.3337 36.2951 58.3337 37.1001V52.9862C58.3337 55.9359 55.9362 58.3334 52.9864 58.3334Z" fill="black"/>
<path d="M28.7003 25.278H13.1253C12.3203 25.278 11.667 24.6247 11.667 23.8197C11.667 23.0147 12.3203 22.3613 13.1253 22.3613H28.7003C29.5053 22.3613 30.1587 23.0147 30.1587 23.8197C30.1587 24.6247 29.5053 25.278 28.7003 25.278Z" fill="black"/>
<path d="M38.4031 49.5833C38.0667 49.5833 37.7303 49.4667 37.4542 49.2314C36.8437 48.7064 36.7717 47.7867 37.2967 47.1742L39.3987 44.7222L37.2948 42.2683C36.7698 41.6578 36.8417 40.7361 37.4523 40.2111C38.0648 39.6861 38.9845 39.76 39.5095 40.3686L42.4262 43.7714C42.8948 44.3178 42.8948 45.1228 42.4262 45.6711L39.5095 49.0739C39.2217 49.4103 38.8134 49.5833 38.4031 49.5833Z" fill="black"/>
<path d="M25.7642 49.5835C25.3539 49.5835 24.9455 49.4105 24.6558 49.0741L21.7392 45.6713C21.2705 45.1249 21.2705 44.3199 21.7392 43.7716L24.6558 40.3688C25.1789 39.7582 26.1005 39.6863 26.713 40.2113C27.3236 40.7363 27.3955 41.656 26.8705 42.2685L24.7686 44.7224L26.8725 47.1763C27.3975 47.7868 27.3255 48.7085 26.715 49.2335C26.4389 49.4668 26.1005 49.5835 25.7642 49.5835Z" fill="black"/>
<path d="M30.6253 52.5002C30.5164 52.5002 30.4075 52.4886 30.2967 52.4613C29.5111 52.2805 29.0231 51.4988 29.202 50.7133L32.1186 38.0744C32.2995 37.2908 33.0831 36.7969 33.8667 36.9816C34.6522 37.1625 35.1403 37.9441 34.9614 38.7297L32.0447 51.3686C31.8911 52.0452 31.2903 52.5002 30.6253 52.5002Z" fill="black"/>
</svg>
