<svg width="70" height="70" viewBox="0 0 70 70" fill="none" xmlns="http://www.w3.org/2000/svg">
<path d="M16.2884 8.10268C29.7381 8.10268 38.9742 1.13574 45.4551 1.13574C51.9359 1.13574 65.547 4.8613 65.547 34.6755C65.547 64.4896 47.2362 68.8646 40.1078 68.8646C6.72756 68.8666 -7.53106 8.10268 16.2884 8.10268Z" fill="#EFEFEF"/>
<path d="M55.372 43.4642L52.5195 48.4089C51.4734 50.2347 49.1342 50.8433 47.3259 49.7972L44.4345 48.1231C43.5789 48.7511 42.6456 49.2839 41.6578 49.7214V53.0697C41.6578 55.1619 39.9467 56.875 37.8525 56.875H32.1456C30.0534 56.875 28.3403 55.1639 28.3403 53.0697V49.7214C27.3506 49.2839 26.4192 48.7511 25.5637 48.1231L22.6723 49.7972C20.8659 50.8433 18.5248 50.2347 17.4787 48.4089L14.6262 43.4642C13.58 41.6383 14.2081 39.3167 16.0145 38.2706L18.9059 36.5964C18.8495 36.0636 18.8495 33.9325 18.9059 33.3997L16.0145 31.7256C14.2081 30.6794 13.58 28.3578 14.6262 26.5319L17.4787 21.5872C18.5248 19.7614 20.8639 19.1528 22.6723 20.1989L25.5637 21.8731C26.4192 21.245 27.3525 20.7122 28.3403 20.2747V16.9303C28.3403 14.8381 30.0514 13.125 32.1456 13.125H37.8525C39.9448 13.125 41.6578 14.8361 41.6578 16.9303V20.2786C42.6475 20.7161 43.5789 21.2489 44.4345 21.8769L47.3259 20.2028C49.1323 19.1567 51.4734 19.7653 52.5195 21.5911L55.372 26.5358C56.4181 28.3617 55.79 30.6833 53.9837 31.7294L51.0923 33.4036C51.1487 33.9364 51.1681 34.4692 51.1681 35.0019C51.1681 35.5347 51.1487 36.0675 51.0923 36.6003L53.9837 38.2744C55.79 39.3186 56.4181 41.6383 55.372 43.4642Z" fill="white"/>
<path d="M29.9408 21.875C30.7963 21.2469 31.7297 20.7142 32.7174 20.2767V16.9283C32.7174 14.8361 34.4286 13.125 36.5208 13.125H32.1458C30.0536 13.125 28.3424 14.8361 28.3424 16.9283V20.2767C28.1286 20.37 27.9302 20.4867 27.7222 20.5897L29.9408 21.875Z" fill="#D5DBE1"/>
<path d="M21.8556 48.4107L19.0031 43.466C17.957 41.6402 18.585 39.3185 20.3914 38.2724L23.2828 36.5982C23.2264 36.0654 23.2264 33.9343 23.2828 33.4016L20.3914 31.7274C18.585 30.6813 17.957 28.3596 19.0031 26.5338L21.8556 21.5891C22.1434 21.0874 22.5342 20.6868 22.9795 20.3777L22.6723 20.2007C20.8659 19.1546 18.5248 19.7632 17.4787 21.5891L14.6262 26.5338C13.58 28.3596 14.2081 30.6813 16.0145 31.7274L18.9059 33.4016C18.8495 33.9343 18.8495 36.0654 18.9059 36.5982L16.0145 38.2724C14.2081 39.3185 13.58 41.6402 14.6262 43.466L17.4787 48.4107C18.5248 50.2366 20.8639 50.8452 22.6723 49.7991L22.9795 49.6221C22.5342 49.3129 22.1434 48.9124 21.8556 48.4107Z" fill="#D5DBE1"/>
<path d="M32.7174 53.0697V49.7214C31.7277 49.2839 30.7963 48.7511 29.9408 48.123L27.7222 49.4064C27.9302 49.5094 28.1286 49.6261 28.3424 49.7194V53.0678C28.3424 55.16 30.0536 56.873 32.1458 56.873H36.5208C34.4305 56.875 32.7174 55.1639 32.7174 53.0697Z" fill="#D5DBE1"/>
<path d="M34.9998 45.2087C40.6377 45.2087 45.2082 40.6382 45.2082 35.0003C45.2082 29.3624 40.6377 24.792 34.9998 24.792C29.3619 24.792 24.7915 29.3624 24.7915 35.0003C24.7915 40.6382 29.3619 45.2087 34.9998 45.2087Z" fill="#FEB46D"/>
<path d="M29.1665 35.0003C29.1665 30.1159 32.6023 26.0423 37.1873 25.0389C36.4815 24.8853 35.7523 24.792 34.9998 24.792C29.3629 24.792 24.7915 29.3614 24.7915 35.0003C24.7915 40.6373 29.3629 45.2087 34.9998 45.2087C35.7523 45.2087 36.4815 45.1153 37.1873 44.9598C32.6023 43.9584 29.1665 39.8848 29.1665 35.0003Z" fill="#FF6600"/>
<path d="M57.7627 11.2017L60.5126 8.4518L61.8875 9.82673L59.1376 12.5766L57.7627 11.2017Z" fill="#A4AFC1"/>
<path d="M49.8584 9.48047L51.2333 8.10554L53.9832 10.8554L52.6083 12.2303L49.8584 9.48047Z" fill="#A4AFC1"/>
<path d="M57.771 17.4058L59.1459 16.0308L61.8958 18.7807L60.5209 20.1556L57.771 17.4058Z" fill="#A4AFC1"/>
<path d="M37.8524 58.3332H32.1455C29.2444 58.3332 26.8819 55.9707 26.8819 53.0696V50.6429C26.4035 50.3979 25.9427 50.1315 25.4974 49.8476L23.4033 51.0609C22.1822 51.7668 20.7549 51.9515 19.3958 51.5859C18.0385 51.2204 16.9088 50.3512 16.2127 49.1359L13.3622 44.1932C11.9194 41.6771 12.7827 38.4571 15.2813 37.0104L17.4144 35.7776C17.4047 35.2857 17.4047 34.714 17.4144 34.2221L15.2852 32.9912C12.7866 31.5446 11.9233 28.3246 13.3641 25.8104L16.2185 20.8598C16.9127 19.6484 18.0424 18.7793 19.4016 18.4137C20.7666 18.0462 22.1899 18.2329 23.4072 18.9387L25.5013 20.1521C25.9446 19.8682 26.4074 19.6037 26.8858 19.3587V16.9282C26.8838 14.0271 29.2463 11.6665 32.1474 11.6665H37.8544C40.7555 11.6665 43.116 14.0271 43.116 16.9282V19.3568C43.5944 19.6018 44.0571 19.8682 44.5005 20.1521L46.5966 18.9368C47.8138 18.2309 49.2313 18.0443 50.6002 18.4118C51.9555 18.7773 53.0871 19.6465 53.7852 20.8618L56.6377 25.8046C58.0785 28.3207 57.2172 31.5407 54.7185 32.9893L52.6146 34.2046C52.6263 34.4709 52.6302 34.7334 52.6302 34.9979C52.6302 35.2623 52.6263 35.5248 52.6146 35.7893L54.7185 37.0065C57.2172 38.4551 58.0805 41.6751 56.6396 44.1854C56.6396 44.1873 56.6396 44.1873 56.6377 44.1893L53.7833 49.1359C53.091 50.3473 51.9594 51.2165 50.6021 51.584C49.2391 51.9476 47.8177 51.7648 46.5966 51.0571L44.5005 49.8437C44.0552 50.1276 43.5944 50.394 43.116 50.639V53.0657C43.116 55.9707 40.7555 58.3332 37.8524 58.3332ZM25.5655 46.6665C25.8688 46.6665 26.1721 46.7618 26.4269 46.9504C27.1871 47.5065 28.0272 47.9907 28.9294 48.3873C29.4563 48.6207 29.7985 49.1457 29.7985 49.7232V53.0715C29.7985 54.3665 30.8505 55.4184 32.1455 55.4184H37.8524C39.1455 55.4184 40.1974 54.3665 40.1974 53.0715V49.7232C40.1974 49.1457 40.5397 48.6226 41.0666 48.3873C41.9669 47.9907 42.8088 47.5065 43.571 46.9484C44.0377 46.6082 44.6599 46.5751 45.1635 46.8629L48.0549 48.5351C48.5974 48.8501 49.2294 48.9357 49.8399 48.7684C50.4427 48.6071 50.9405 48.2221 51.2516 47.6834L54.106 42.7368C54.7477 41.6148 54.3666 40.1779 53.2524 39.5343L50.361 37.8601C49.8613 37.5704 49.5813 37.0143 49.6416 36.4426C49.6922 35.9623 49.7096 35.4821 49.7096 35.0018C49.7096 34.5196 49.6922 34.0393 49.6416 33.559C49.5813 32.9854 49.8633 32.4293 50.361 32.1415L53.2524 30.4693C54.3666 29.8257 54.7496 28.3868 54.106 27.2648L51.2535 22.3221C50.9424 21.7815 50.4408 21.3946 49.838 21.2332C49.2352 21.0718 48.5955 21.1515 48.0549 21.4665L45.1655 23.1387C44.6619 23.4246 44.0377 23.3954 43.573 23.0512C42.8185 22.499 41.9747 22.0129 41.0666 21.6104C40.5397 21.3771 40.1994 20.854 40.1994 20.2765V16.9282C40.1994 15.6351 39.1474 14.5832 37.8544 14.5832H32.1474C30.8524 14.5832 29.8005 15.6351 29.8005 16.9282V20.2765C29.8005 20.854 29.4602 21.3751 28.9333 21.6104C28.0233 22.0148 27.1813 22.499 26.4308 23.0512C25.9622 23.3973 25.338 23.4265 24.8363 23.1387L21.9449 21.4646C21.4044 21.1515 20.7666 21.0679 20.1599 21.2312C19.5552 21.3926 19.0555 21.7776 18.7463 22.3162L15.8919 27.2668C15.2522 28.3848 15.6333 29.8237 16.7474 30.4673L19.6388 32.1396C20.1366 32.4273 20.4185 32.9854 20.3583 33.5571C20.3116 33.9887 20.3116 36.0109 20.3583 36.4407C20.4185 37.0143 20.1385 37.5684 19.6388 37.8582L16.7474 39.5323C15.6333 40.1759 15.2483 41.6129 15.8938 42.7348L18.7444 47.6776C19.0535 48.2182 19.5552 48.6051 20.158 48.7665C20.7705 48.9279 21.4024 48.8462 21.9449 48.5332L24.8363 46.8609C25.0619 46.7326 25.3146 46.6665 25.5655 46.6665Z" fill="black"/>
<path d="M35.0002 46.6663C28.566 46.6663 23.3335 41.4338 23.3335 34.9997C23.3335 28.5655 28.566 23.333 35.0002 23.333C41.4343 23.333 46.6668 28.5655 46.6668 34.9997C46.6668 41.4338 41.4324 46.6663 35.0002 46.6663ZM35.0002 26.2497C30.176 26.2497 26.2502 30.1755 26.2502 34.9997C26.2502 39.8238 30.176 43.7497 35.0002 43.7497C39.8243 43.7497 43.7502 39.8238 43.7502 34.9997C43.7502 30.1755 39.8243 26.2497 35.0002 26.2497Z" fill="black"/>
<path d="M37.3701 39.4353L33.9673 36.0326C33.6951 35.7584 33.5415 35.3889 33.5415 35.0001V29.6528H36.4582V34.3953L39.4332 37.3703L37.3701 39.4353Z" fill="black"/>
</svg>
