<svg width="70" height="70" viewBox="0 0 70 70" fill="none" xmlns="http://www.w3.org/2000/svg">
<path d="M26.0759 67.6611C38.322 62.1019 49.6134 64.6297 55.5148 61.9522C61.4161 59.2728 72.27 50.2544 59.9481 23.1061C47.6261 -4.04223 29.1461 -0.462506 22.6536 2.48527C-7.74193 16.2792 4.38557 77.5039 26.0759 67.6611Z" fill="#EFEFEF"/>
<path d="M36.9436 29.6528C41.5076 29.6528 45.2075 25.9529 45.2075 21.3889C45.2075 16.8249 41.5076 13.125 36.9436 13.125C32.3796 13.125 28.6797 16.8249 28.6797 21.3889C28.6797 25.9529 32.3796 29.6528 36.9436 29.6528Z" fill="#FEB46D"/>
<path d="M33.0547 21.3889C33.0547 17.5875 35.6369 14.4181 39.1311 13.4556C38.4291 13.2611 37.7058 13.125 36.9436 13.125C32.38 13.125 28.6797 16.8253 28.6797 21.3889C28.6797 25.9525 32.38 29.6528 36.9436 29.6528C37.7058 29.6528 38.4291 29.5167 39.1311 29.3222C35.6369 28.3597 33.0547 25.1903 33.0547 21.3889Z" fill="#FF6600"/>
<path d="M46.6662 39.3754C51.2302 39.3754 54.9301 35.6756 54.9301 31.1115C54.9301 26.5475 51.2302 22.8477 46.6662 22.8477C42.1022 22.8477 38.4023 26.5475 38.4023 31.1115C38.4023 35.6756 42.1022 39.3754 46.6662 39.3754Z" fill="#F3F3F1"/>
<path d="M42.7773 31.1115C42.7773 27.3102 45.3596 24.1407 48.8537 23.1782C48.1518 22.9857 47.4285 22.8477 46.6662 22.8477C42.1026 22.8477 38.4023 26.5479 38.4023 31.1115C38.4023 35.6752 42.1026 39.3754 46.6662 39.3754C47.4285 39.3754 48.1518 39.2393 48.8537 39.0449C45.3596 38.0824 42.7773 34.9129 42.7773 31.1115Z" fill="#D5DBE1"/>
<path d="M22.3611 38.6304L21.9139 40.2637L19.0556 50.8221L18.4722 52.9804H13.125V36.4526C19.5417 36.4526 22.3611 38.6304 22.3611 38.6304Z" fill="#FEB46D"/>
<path d="M13.125 36.4526V52.9804H17.5V36.8415C16.2828 36.6121 14.8419 36.4526 13.125 36.4526Z" fill="#FF6600"/>
<path d="M56.8741 49.0914C56.8741 49.0914 42.7769 56.8692 36.9436 56.8692C32.3158 56.8692 22.788 52.572 19.0547 50.822L21.913 40.2637L40.638 44.0942C42.4463 44.4637 43.7491 46.0581 43.7491 47.9053V48.7609C46.5491 47.8859 49.4852 46.6609 52.013 46.6609C55.9019 46.6609 56.8741 49.0914 56.8741 49.0914Z" fill="#F3F3F1"/>
<path d="M23.4297 51.7942L26.288 41.2359L41.3477 44.3159C41.1202 44.2226 40.885 44.1448 40.638 44.0942L21.913 40.2637L19.0547 50.822C22.5333 52.4534 31.0402 56.2917 35.9286 56.807C31.3455 55.4226 26.008 53.0017 23.4297 51.7942Z" fill="#D5DBE1"/>
<path d="M6.93555 23.6689L9.68541 20.9191L11.0603 22.294L8.31048 25.0439L6.93555 23.6689Z" fill="#A4AFC1"/>
<path d="M14.8398 15.7656L17.5897 13.0158L18.9646 14.3907L16.2148 17.1406L14.8398 15.7656Z" fill="#A4AFC1"/>
<path d="M14.8398 22.6279L16.2148 21.253L18.9646 24.0029L17.5897 25.3778L14.8398 22.6279Z" fill="#A4AFC1"/>
<path d="M6.93555 14.7319L8.31048 13.357L11.0603 16.1069L9.68541 17.4818L6.93555 14.7319Z" fill="#A4AFC1"/>
<path d="M58.3346 63.1947C56.7266 63.1947 55.418 61.886 55.418 60.278C55.418 58.6699 56.7266 57.3613 58.3346 57.3613C59.9427 57.3613 61.2513 58.6699 61.2513 60.278C61.2513 61.886 59.9427 63.1947 58.3346 63.1947ZM58.3346 59.3058C57.7999 59.3058 57.3624 59.7433 57.3624 60.278C57.3624 60.8127 57.7999 61.2502 58.3346 61.2502C58.8693 61.2502 59.3068 60.8127 59.3068 60.278C59.3068 59.7433 58.8693 59.3058 58.3346 59.3058Z" fill="#A4AFC1"/>
<path d="M46.6656 40.8336C41.3047 40.8336 36.9434 36.4722 36.9434 31.1114C36.9434 25.7505 41.3047 21.3892 46.6656 21.3892C52.0264 21.3892 56.3878 25.7505 56.3878 31.1114C56.3878 36.4722 52.0264 40.8336 46.6656 40.8336ZM46.6656 24.3058C42.9128 24.3058 39.86 27.3586 39.86 31.1114C39.86 34.8642 42.9128 37.9169 46.6656 37.9169C50.4184 37.9169 53.4711 34.8642 53.4711 31.1114C53.4711 27.3586 50.4184 24.3058 46.6656 24.3058Z" fill="black"/>
<path d="M32.6185 30.1023C29.2896 28.4398 27.2227 25.0992 27.2227 21.3892C27.2227 16.0284 31.584 11.667 36.9449 11.667C40.6568 11.667 43.9954 13.7339 45.656 17.0628L43.0465 18.3656C41.8818 16.0323 39.5446 14.5837 36.9449 14.5837C33.1921 14.5837 30.1393 17.6364 30.1393 21.3892C30.1393 23.9889 31.5879 26.3281 33.9213 27.4948L32.6185 30.1023Z" fill="black"/>
<path d="M18.4716 54.4449H13.1243C12.3193 54.4449 11.666 53.7916 11.666 52.9866V36.4588C11.666 35.6538 12.3193 35.0005 13.1243 35.0005C19.9416 35.0005 23.1149 37.3669 23.2452 37.468C23.7157 37.8277 23.9238 38.4363 23.7682 39.008L19.8793 53.3697C19.7082 54.0035 19.1307 54.4449 18.4716 54.4449ZM14.5827 51.5283H17.3555L20.6571 39.3347C19.6402 38.8544 17.653 38.1388 14.5827 37.9599V51.5283Z" fill="black"/>
<path d="M36.9426 58.334C32.2584 58.334 23.3101 54.4451 18.3945 52.1293L19.637 49.4907C27.6287 53.259 33.9365 55.4193 36.9426 55.4193C40.8859 55.4193 49.8381 51.1609 54.5301 48.7032C53.9895 48.394 53.1845 48.1276 52.012 48.1276C50.3048 48.1276 48.1931 48.8295 46.1534 49.512C43.892 50.2665 41.5548 51.0443 39.3731 51.0443C35.2762 51.0443 29.8668 49.094 29.6393 49.0123L30.6348 46.2707C30.6854 46.2901 35.7915 48.1276 39.3731 48.1276C41.0804 48.1276 43.192 47.4257 45.2318 46.7432C47.4931 45.9887 49.8304 45.2109 52.012 45.2109C56.8323 45.2109 58.172 48.4212 58.2265 48.5593C58.5006 49.2437 58.2206 50.0215 57.577 50.3773C56.9898 50.7001 43.0812 58.334 36.9426 58.334Z" fill="black"/>
<path d="M45.2072 48.7867H42.2905V47.9116C42.2905 46.7605 41.4739 45.7592 40.348 45.5297L21.6191 41.6953L22.2044 38.8389L40.9314 42.6714C43.4086 43.175 45.2072 45.38 45.2072 47.9097V48.7867Z" fill="black"/>
</svg>
