<svg width="40" height="41" viewBox="0 0 40 41" fill="none" xmlns="http://www.w3.org/2000/svg">
<rect y="0.634277" width="40" height="40" rx="20" fill="white"/>
<g clip-path="url(#clip0_6750_29429)">
<g clip-path="url(#clip1_6750_29429)">
<path d="M20.5833 19.2822V27.6022H19.0312V18.6982L20.5833 19.2822Z" fill="black"/>
<path d="M14.3848 18.5063C14.3848 16.3783 15.5448 15.2183 16.9048 15.2183C18.2648 15.2183 18.4568 15.4103 20.0008 16.1863C21.5448 16.9623 21.9368 17.1543 22.7128 17.1543C23.4888 17.1543 23.8728 16.5703 23.8728 15.4103H25.2248C25.4168 17.7303 24.0648 18.6983 22.7048 18.6983C21.3448 18.6983 20.9608 18.5063 19.6088 17.7303C18.2568 16.9543 17.8648 16.7623 17.0888 16.7623C16.3128 16.7623 15.9288 17.3463 15.7368 18.6983L14.3848 18.5063Z" fill="black"/>
<path d="M20 32.6343C13.384 32.6343 8 27.2503 8 20.6343C8 14.0183 13.384 8.63428 20 8.63428C26.616 8.63428 32 14.0183 32 20.6343C32 27.2503 26.616 32.6343 20 32.6343ZM20 9.41028C13.808 9.41028 8.776 14.4423 8.776 20.6343C8.776 26.8263 13.808 31.8583 20 31.8583C26.192 31.8583 31.224 26.8263 31.224 20.6343C31.224 14.4423 26.192 9.41028 20 9.41028Z" fill="black"/>
</g>
</g>
<defs>
<clipPath id="clip0_6750_29429">
<rect width="24" height="24" fill="white" transform="translate(8 8.63428)"/>
</clipPath>
<clipPath id="clip1_6750_29429">
<rect width="24" height="24" fill="white" transform="translate(8 8.63428)"/>
</clipPath>
</defs>
</svg>
