<svg width="1800" height="810" viewBox="0 0 1800 810" fill="none" xmlns="http://www.w3.org/2000/svg">
<g filter="url(#filter0_ddddd_7501_39911)">
<path d="M0 0H1800V810H0V0Z" fill="#1843BF"/>
</g>
<g opacity="0.5">
<path d="M677.612 -335.865L316.935 288.847L217.973 231.712L-155 877.721" stroke="url(#paint0_linear_7501_39911)" stroke-width="6" stroke-linecap="round"/>
<g opacity="0.3">
<path d="M452.567 545.033C450.94 547.85 447.396 548.879 444.525 547.41L444.254 547.253L336.286 484.917C333.376 483.237 332.374 479.515 334.056 476.602L427.68 314.439C429.359 311.531 433.082 310.53 435.997 312.213L543.965 374.548C546.875 376.228 547.877 379.95 546.195 382.864L452.567 545.033ZM231.059 928.696C229.432 931.513 225.888 932.541 223.017 931.072L222.746 930.916L114.778 868.58C111.868 866.9 110.866 863.178 112.548 860.264L206.173 698.102C207.852 695.194 211.574 694.192 214.489 695.875L322.458 758.211C325.367 759.891 326.37 763.613 324.688 766.527L231.059 928.696ZM564.503 351.154C562.876 353.971 559.332 354.999 556.461 353.53L556.19 353.374L448.222 291.038C445.312 289.358 444.31 285.636 445.992 282.722L539.617 120.56C541.296 117.652 545.018 116.65 547.933 118.333L655.902 180.669C658.811 182.349 659.814 186.071 658.132 188.985L564.503 351.154ZM342.995 734.816C341.369 737.634 337.824 738.662 334.953 737.192L334.683 737.036L226.714 674.701C223.805 673.021 222.802 669.299 224.484 666.385L318.109 504.223C319.788 501.315 323.51 500.313 326.426 501.996L434.394 564.331C437.304 566.011 438.306 569.734 436.624 572.647L342.995 734.816Z" stroke="url(#paint1_linear_7501_39911)" stroke-width="2"/>
<path d="M897.702 -225.962C896.075 -223.145 892.531 -222.116 889.66 -223.586L889.389 -223.742L781.421 -286.078C778.511 -287.758 777.508 -291.48 779.191 -294.393L872.815 -456.556C874.494 -459.464 878.216 -460.466 881.132 -458.782L989.1 -396.447C992.01 -394.767 993.012 -391.045 991.33 -388.131L897.702 -225.962ZM676.194 157.701C674.567 160.518 671.023 161.546 668.152 160.077L667.881 159.92L559.913 97.5849C557.003 95.9049 556.001 92.1828 557.683 89.2692L651.307 -72.8932C652.986 -75.8013 656.709 -76.803 659.624 -75.1198L767.592 -12.7843C770.502 -11.1043 771.505 -7.38223 769.822 -4.46859L676.194 157.701ZM1009.64 -419.841C1008.01 -417.024 1004.47 -415.996 1001.6 -417.465L1001.33 -417.621L893.357 -479.957C890.447 -481.637 889.445 -485.359 891.127 -488.273L984.751 -650.435C986.43 -653.343 990.153 -654.345 993.068 -652.662L1101.04 -590.326C1103.95 -588.646 1104.95 -584.924 1103.27 -582.01L1009.64 -419.841ZM788.13 -36.1788C786.504 -33.3612 782.959 -32.3331 780.088 -33.8026L779.817 -33.9589L671.849 -96.2944C668.939 -97.9744 667.937 -101.696 669.619 -104.61L763.244 -266.772C764.923 -269.681 768.645 -270.682 771.56 -268.999L879.529 -206.664C882.438 -204.984 883.441 -201.262 881.759 -198.348L788.13 -36.1788Z" stroke="url(#paint2_linear_7501_39911)" stroke-width="2"/>
<path d="M1264.23 1013.65C1262.61 1016.47 1259.06 1017.49 1256.19 1016.03L1255.92 1015.87L1147.95 953.534C1145.04 951.854 1144.04 948.132 1145.72 945.218L1239.35 783.056C1241.03 780.147 1244.75 779.146 1247.66 780.829L1355.63 843.164C1358.54 844.844 1359.54 848.567 1357.86 851.48L1264.23 1013.65ZM1042.73 1397.31C1041.1 1400.13 1037.55 1401.16 1034.68 1399.69L1034.41 1399.53L926.445 1337.2C923.535 1335.52 922.533 1331.79 924.215 1328.88L1017.84 1166.72C1019.52 1163.81 1023.24 1162.81 1026.16 1164.49L1134.12 1226.83C1137.03 1228.51 1138.04 1232.23 1136.35 1235.14L1042.73 1397.31ZM1376.17 819.77C1374.54 822.588 1371 823.616 1368.13 822.146L1367.86 821.99L1259.89 759.654C1256.98 757.974 1255.98 754.252 1257.66 751.339L1351.28 589.176C1352.96 586.268 1356.68 585.266 1359.6 586.95L1467.57 649.285C1470.48 650.965 1471.48 654.687 1469.8 657.601L1376.17 819.77ZM1154.66 1203.43C1153.04 1206.25 1149.49 1207.28 1146.62 1205.81L1146.35 1205.65L1038.38 1143.32C1035.47 1141.64 1034.47 1137.91 1036.15 1135L1129.78 972.839C1131.45 969.931 1135.18 968.929 1138.09 970.612L1246.06 1032.95C1248.97 1034.63 1249.97 1038.35 1248.29 1041.26L1154.66 1203.43Z" stroke="url(#paint3_linear_7501_39911)" stroke-width="2"/>
<path d="M1709.37 242.654C1707.74 245.472 1704.2 246.5 1701.33 245.031L1701.06 244.874L1593.09 182.539C1590.18 180.859 1589.18 177.136 1590.86 174.223L1684.48 12.0605C1686.16 9.15237 1689.88 8.15061 1692.8 9.83384L1800.77 72.1693C1803.68 73.8493 1804.68 77.5714 1803 80.4851L1709.37 242.654ZM1487.86 626.317C1486.23 629.134 1482.69 630.162 1479.82 628.693L1479.55 628.537L1371.58 566.201C1368.67 564.521 1367.67 560.799 1369.35 557.885L1462.97 395.723C1464.65 392.815 1468.38 391.813 1471.29 393.496L1579.26 455.832C1582.17 457.512 1583.17 461.234 1581.49 464.148L1487.86 626.317ZM1821.3 48.7749C1819.68 51.5925 1816.13 52.6205 1813.26 51.151L1812.99 50.9947L1705.02 -11.3408C1702.11 -13.0208 1701.11 -16.7428 1702.79 -19.6565L1796.42 -181.819C1798.1 -184.727 1801.82 -185.729 1804.74 -184.045L1912.7 -121.71C1915.61 -120.03 1916.62 -116.308 1914.93 -113.394L1821.3 48.7749ZM1599.8 432.437C1598.17 435.255 1594.63 436.283 1591.76 434.814L1591.48 434.657L1483.52 372.322C1480.61 370.642 1479.6 366.92 1481.29 364.006L1574.91 201.844C1576.59 198.936 1580.31 197.934 1583.23 199.617L1691.2 261.953C1694.11 263.633 1695.11 267.355 1693.43 270.268L1599.8 432.437Z" stroke="url(#paint4_linear_7501_39911)" stroke-width="2"/>
<path d="M46.7339 310.725C45.1073 313.543 41.5629 314.571 38.6923 313.102L38.4211 312.945L-69.5471 250.61C-72.4569 248.93 -73.4593 245.208 -71.7771 242.294L21.8474 80.1318C23.5264 77.2237 27.2486 76.2219 30.164 77.9051L138.132 140.241C141.042 141.921 142.044 145.643 140.362 148.556L46.7339 310.725ZM-174.774 694.388C-176.401 697.206 -179.945 698.234 -182.816 696.764L-183.087 696.608L-291.055 634.272C-293.965 632.592 -294.967 628.87 -293.285 625.957L-199.66 463.794C-197.981 460.886 -194.259 459.884 -191.344 461.568L-83.3755 523.903C-80.4656 525.583 -79.4632 529.305 -81.1454 532.219L-174.774 694.388ZM158.67 116.846C157.043 119.664 153.499 120.692 150.628 119.222L150.357 119.066L42.3892 56.7305C39.4793 55.0505 38.477 51.3285 40.1592 48.4148L133.784 -113.748C135.463 -116.656 139.185 -117.657 142.1 -115.974L250.069 -53.6387C252.978 -51.9587 253.981 -48.2366 252.299 -45.3229L158.67 116.846ZM-62.8375 500.509C-64.4643 503.326 -68.009 504.354 -70.8796 502.885L-71.1503 502.729L-179.119 440.393C-182.028 438.713 -183.031 434.991 -181.349 432.077L-87.7241 269.915C-86.045 267.007 -82.3228 266.005 -79.4074 267.688L28.5608 330.024C31.4707 331.704 32.4731 335.426 30.7908 338.34L-62.8375 500.509Z" stroke="url(#paint5_linear_7501_39911)" stroke-width="2"/>
<path d="M858.401 779.341C856.774 782.158 853.23 783.186 850.359 781.717L850.088 781.561L742.12 719.225C739.21 717.545 738.208 713.823 739.89 710.909L833.514 548.747C835.193 545.839 838.916 544.837 841.831 546.52L949.799 608.856C952.709 610.536 953.711 614.258 952.029 617.172L858.401 779.341ZM636.893 1163C635.266 1165.82 631.722 1166.85 628.851 1165.38L628.58 1165.22L520.612 1102.89C517.702 1101.21 516.7 1097.49 518.382 1094.57L612.007 932.41C613.686 929.501 617.408 928.5 620.323 930.183L728.292 992.518C731.201 994.198 732.204 997.921 730.522 1000.83L636.893 1163ZM970.337 585.461C968.71 588.279 965.166 589.307 962.295 587.838L962.024 587.681L854.056 525.346C851.146 523.666 850.144 519.944 851.826 517.03L945.451 354.868C947.13 351.96 950.852 350.958 953.767 352.641L1061.74 414.977C1064.65 416.657 1065.65 420.379 1063.97 423.292L970.337 585.461ZM748.829 969.124C747.203 971.942 743.658 972.97 740.787 971.5L740.517 971.344L632.548 909.008C629.639 907.328 628.636 903.606 630.318 900.693L723.943 738.53C725.622 735.622 729.344 734.62 732.26 736.304L840.228 798.639C843.138 800.319 844.14 804.041 842.458 806.955L748.829 969.124Z" stroke="url(#paint6_linear_7501_39911)" stroke-width="2"/>
<path d="M1303.54 8.34656C1301.91 11.164 1298.36 12.1921 1295.49 10.723L1295.22 10.5664L1187.25 -51.7691C1184.34 -53.4491 1183.34 -57.1711 1185.02 -60.0848L1278.65 -222.247C1280.33 -225.155 1284.05 -226.157 1286.97 -224.474L1394.93 -162.138C1397.84 -160.458 1398.85 -156.736 1397.16 -153.823L1303.54 8.34656ZM1082.03 392.009C1080.4 394.827 1076.86 395.855 1073.99 394.385L1073.72 394.229L965.747 331.894C962.837 330.214 961.835 326.491 963.517 323.578L1057.14 161.415C1058.82 158.507 1062.54 157.506 1065.46 159.189L1173.43 221.524C1176.34 223.204 1177.34 226.926 1175.66 229.84L1082.03 392.009ZM1415.47 -185.533C1413.85 -182.715 1410.3 -181.687 1407.43 -183.157L1407.16 -183.313L1299.19 -245.648C1296.28 -247.328 1295.28 -251.05 1296.96 -253.964L1390.59 -416.126C1392.26 -419.035 1395.99 -420.036 1398.9 -418.353L1506.87 -356.018C1509.78 -354.338 1510.78 -350.616 1509.1 -347.702L1415.47 -185.533ZM1193.96 198.13C1192.34 200.947 1188.79 201.976 1185.92 200.506L1185.65 200.35L1077.68 138.014C1074.77 136.334 1073.77 132.612 1075.45 129.698L1169.08 -32.4639C1170.76 -35.372 1174.48 -36.3737 1177.39 -34.6905L1285.36 27.645C1288.27 29.325 1289.27 33.047 1287.59 35.9607L1193.96 198.13Z" stroke="url(#paint7_linear_7501_39911)" stroke-width="2"/>
<path d="M604.947 593.516C603.32 596.334 599.776 597.362 596.906 595.893L596.634 595.736L488.666 533.401C485.756 531.721 484.754 527.999 486.436 525.085L580.06 362.923C581.739 360.015 585.461 359.013 588.377 360.696L696.345 423.032C699.255 424.712 700.257 428.434 698.575 431.347L604.947 593.516ZM383.439 977.179C381.813 979.996 378.269 981.024 375.398 979.556L375.126 979.399L267.158 917.063C264.248 915.383 263.246 911.661 264.928 908.748L358.553 746.585C360.232 743.677 363.954 742.675 366.869 744.359L474.837 806.694C477.747 808.374 478.75 812.096 477.067 815.01L383.439 977.179ZM716.883 399.637C715.256 402.455 711.712 403.483 708.841 402.013L708.57 401.857L600.602 339.522C597.692 337.842 596.69 334.119 598.372 331.206L691.997 169.043C693.676 166.135 697.398 165.134 700.313 166.817L808.281 229.152C811.191 230.832 812.194 234.554 810.511 237.468L716.883 399.637ZM495.375 783.3C493.749 786.117 490.204 787.145 487.333 785.676L487.063 785.52L379.094 723.184C376.185 721.504 375.182 717.782 376.864 714.868L470.489 552.706C472.168 549.798 475.89 548.796 478.806 550.479L586.774 612.815C589.684 614.495 590.686 618.217 589.004 621.131L495.375 783.3Z" stroke="url(#paint8_linear_7501_39911)" stroke-width="2"/>
<path d="M1050.08 -177.48C1048.45 -174.662 1044.91 -173.634 1042.04 -175.103L1041.77 -175.26L933.8 -237.595C930.89 -239.275 929.887 -242.997 931.57 -245.911L1025.19 -408.073C1026.87 -410.981 1030.6 -411.983 1033.51 -410.3L1141.48 -347.964C1144.39 -346.284 1145.39 -342.562 1143.71 -339.649L1050.08 -177.48ZM828.573 206.183C826.946 209 823.402 210.028 820.532 208.56L820.26 208.403L712.292 146.067C709.382 144.387 708.38 140.665 710.062 137.752L803.686 -24.4108C805.365 -27.3189 809.088 -28.3206 812.003 -26.6374L919.971 35.6981C922.881 37.3781 923.883 41.1001 922.201 44.0138L828.573 206.183ZM1162.02 -371.359C1160.39 -368.541 1156.85 -367.513 1153.97 -368.983L1153.7 -369.139L1045.74 -431.475C1042.83 -433.155 1041.82 -436.877 1043.51 -439.79L1137.13 -601.953C1138.81 -604.861 1142.53 -605.862 1145.45 -604.179L1253.42 -541.844C1256.33 -540.164 1257.33 -536.442 1255.65 -533.528L1162.02 -371.359ZM940.509 12.3036C938.882 15.1212 935.338 16.1493 932.467 14.6798L932.196 14.5235L824.228 -47.812C821.318 -49.492 820.316 -53.214 821.998 -56.1277L915.623 -218.29C917.302 -221.198 921.024 -222.2 923.939 -220.517L1031.91 -158.181C1034.82 -156.501 1035.82 -152.779 1034.14 -149.865L940.509 12.3036Z" stroke="url(#paint9_linear_7501_39911)" stroke-width="2"/>
<path d="M1416.61 1062.13C1414.99 1064.95 1411.44 1065.98 1408.57 1064.51L1408.3 1064.35L1300.33 1002.02C1297.42 1000.34 1296.42 996.614 1298.1 993.7L1391.73 831.538C1393.41 828.63 1397.13 827.628 1400.04 829.311L1508.01 891.647C1510.92 893.327 1511.92 897.049 1510.24 899.963L1416.61 1062.13ZM1195.11 1445.79C1193.48 1448.61 1189.93 1449.64 1187.06 1448.17L1186.79 1448.01L1078.82 1385.68C1075.91 1384 1074.91 1380.28 1076.59 1377.36L1170.22 1215.2C1171.9 1212.29 1175.62 1211.29 1178.54 1212.97L1286.5 1275.31C1289.41 1276.99 1290.42 1280.71 1288.73 1283.63L1195.11 1445.79ZM1528.55 868.252C1526.92 871.07 1523.38 872.098 1520.51 870.629L1520.24 870.472L1412.27 808.137C1409.36 806.457 1408.36 802.735 1410.04 799.821L1503.66 637.659C1505.34 634.751 1509.06 633.749 1511.98 635.432L1619.95 697.768C1622.86 699.448 1623.86 703.17 1622.18 706.083L1528.55 868.252ZM1307.04 1251.91C1305.41 1254.73 1301.87 1255.76 1299 1254.29L1298.73 1254.13L1190.76 1191.8C1187.85 1190.12 1186.85 1186.4 1188.53 1183.48L1282.15 1021.32C1283.83 1018.41 1287.56 1017.41 1290.47 1019.09L1398.44 1081.43C1401.35 1083.11 1402.35 1086.83 1400.67 1089.75L1307.04 1251.91Z" stroke="url(#paint10_linear_7501_39911)" stroke-width="2"/>
<path d="M1861.75 291.137C1860.12 293.954 1856.58 294.982 1853.71 293.513L1853.43 293.356L1745.47 231.021C1742.56 229.341 1741.55 225.619 1743.24 222.705L1836.86 60.5429C1838.54 57.6348 1842.26 56.633 1845.18 58.3162L1953.14 120.652C1956.05 122.332 1957.06 126.054 1955.37 128.967L1861.75 291.137ZM1640.24 674.799C1638.61 677.616 1635.07 678.645 1632.2 677.176L1631.93 677.019L1523.96 614.684C1521.05 613.004 1520.05 609.281 1521.73 606.368L1615.35 444.205C1617.03 441.297 1620.75 440.296 1623.67 441.979L1731.64 504.314C1734.55 505.994 1735.55 509.716 1733.87 512.63L1640.24 674.799ZM1973.68 97.2573C1972.06 100.075 1968.51 101.103 1965.64 99.6334L1965.37 99.4771L1857.4 37.1417C1854.49 35.4617 1853.49 31.7396 1855.17 28.8259L1948.8 -133.336C1950.48 -136.245 1954.2 -137.246 1957.11 -135.563L2065.08 -73.2276C2067.99 -71.5476 2068.99 -67.8255 2067.31 -64.9118L1973.68 97.2573ZM1752.18 480.92C1750.55 483.737 1747 484.766 1744.13 483.296L1743.86 483.14L1635.89 420.804C1632.98 419.124 1631.98 415.402 1633.66 412.488L1727.29 250.326C1728.97 247.418 1732.69 246.416 1735.61 248.099L1843.57 310.435C1846.48 312.115 1847.49 315.837 1845.8 318.751L1752.18 480.92Z" stroke="url(#paint11_linear_7501_39911)" stroke-width="2"/>
<path d="M199.113 359.208C197.486 362.025 193.942 363.053 191.071 361.584L190.8 361.428L82.8318 299.092C79.922 297.412 78.9196 293.69 80.6018 290.776L174.226 128.614C175.905 125.706 179.628 124.704 182.543 126.388L290.511 188.723C293.421 190.403 294.423 194.125 292.741 197.039L199.113 359.208ZM-22.3949 742.871C-24.0217 745.688 -27.5663 746.716 -30.437 745.247L-30.7077 745.09L-138.676 682.755C-141.586 681.075 -142.588 677.353 -140.906 674.439L-47.2814 512.277C-45.6024 509.369 -41.8802 508.367 -38.9648 510.05L69.0035 572.386C71.9133 574.066 72.9157 577.788 71.2335 580.701L-22.3949 742.871ZM311.049 165.329C309.422 168.146 305.878 169.174 303.007 167.705L302.736 167.548L194.768 105.213C191.858 103.533 190.856 99.8109 192.538 96.8972L286.163 -65.2651C287.842 -68.1732 291.564 -69.175 294.479 -67.4918L402.447 -5.15628C405.357 -3.47627 406.36 0.245812 404.677 3.1595L311.049 165.329ZM89.5414 548.991C87.9146 551.809 84.3699 552.837 81.4993 551.367L81.2286 551.211L-26.7396 488.876C-29.6495 487.196 -30.6518 483.473 -28.9696 480.56L64.6548 318.397C66.3339 315.489 70.0561 314.488 72.9715 316.171L180.94 378.506C183.85 380.186 184.852 383.908 183.17 386.822L89.5414 548.991Z" stroke="url(#paint12_linear_7501_39911)" stroke-width="2"/>
<path d="M1010.78 827.824C1009.15 830.642 1005.61 831.67 1002.74 830.201L1002.47 830.044L894.499 767.708C891.589 766.028 890.587 762.306 892.269 759.393L985.893 597.23C987.572 594.322 991.294 593.321 994.21 595.004L1102.18 657.339C1105.09 659.019 1106.09 662.741 1104.41 665.655L1010.78 827.824ZM789.272 1211.49C787.645 1214.3 784.101 1215.33 781.23 1213.86L780.959 1213.71L672.991 1151.37C670.081 1149.69 669.079 1145.97 670.761 1143.06L764.386 980.893C766.065 977.985 769.787 976.983 772.702 978.666L880.67 1041C883.58 1042.68 884.583 1046.4 882.9 1049.32L789.272 1211.49ZM1122.72 633.945C1121.09 636.762 1117.54 637.79 1114.67 636.321L1114.4 636.165L1006.44 573.829C1003.53 572.149 1002.52 568.427 1004.21 565.513L1097.83 403.351C1099.51 400.443 1103.23 399.441 1106.15 401.124L1214.11 463.46C1217.02 465.14 1218.03 468.862 1216.34 471.776L1122.72 633.945ZM901.208 1017.61C899.582 1020.42 896.037 1021.45 893.166 1019.98L892.896 1019.83L784.927 957.492C782.018 955.812 781.015 952.09 782.697 949.176L876.322 787.014C878.001 784.106 881.723 783.104 884.639 784.787L992.607 847.123C995.517 848.803 996.519 852.525 994.837 855.438L901.208 1017.61Z" stroke="url(#paint13_linear_7501_39911)" stroke-width="2"/>
<path d="M1455.91 56.829C1454.29 59.6464 1450.74 60.6746 1447.87 59.2054L1447.6 59.0488L1339.63 -3.28664C1336.72 -4.96665 1335.72 -8.68873 1337.4 -11.6024L1431.03 -173.765C1432.71 -176.673 1436.43 -177.675 1439.34 -175.991L1547.31 -113.656C1550.22 -111.976 1551.22 -108.254 1549.54 -105.34L1455.91 56.829ZM1234.41 440.492C1232.78 443.309 1229.23 444.337 1226.36 442.868L1226.09 442.711L1118.12 380.376C1115.22 378.696 1114.21 374.974 1115.89 372.06L1209.52 209.898C1211.2 206.99 1214.92 205.988 1217.84 207.671L1325.8 270.007C1328.71 271.687 1329.72 275.409 1328.03 278.322L1234.41 440.492ZM1567.85 -137.05C1566.22 -134.233 1562.68 -133.205 1559.81 -134.674L1559.54 -134.83L1451.57 -197.166C1448.66 -198.846 1447.66 -202.568 1449.34 -205.482L1542.96 -367.644C1544.64 -370.552 1548.36 -371.554 1551.28 -369.871L1659.25 -307.535C1662.16 -305.855 1663.16 -302.133 1661.48 -299.219L1567.85 -137.05ZM1346.34 246.612C1344.72 249.43 1341.17 250.458 1338.3 248.988L1338.03 248.832L1230.06 186.497C1227.15 184.817 1226.15 181.095 1227.83 178.181L1321.46 16.0186C1323.13 13.1104 1326.86 12.1087 1329.77 13.7919L1437.74 76.1274C1440.65 77.8074 1441.65 81.5295 1439.97 84.4432L1346.34 246.612Z" stroke="url(#paint14_linear_7501_39911)" stroke-width="2"/>
<path d="M671.82 790.098C670.193 792.915 666.649 793.943 663.778 792.474L663.507 792.317L555.539 729.982C552.629 728.302 551.627 724.58 553.309 721.666L646.933 559.504C648.612 556.596 652.335 555.594 655.25 557.277L763.218 619.613C766.128 621.293 767.13 625.015 765.448 627.928L671.82 790.098ZM450.312 1173.76C448.685 1176.58 445.141 1177.61 442.27 1176.14L441.999 1175.98L334.031 1113.64C331.121 1111.96 330.119 1108.24 331.801 1105.33L425.426 943.166C427.105 940.258 430.827 939.257 433.742 940.94L541.71 1003.28C544.62 1004.96 545.623 1008.68 543.941 1011.59L450.312 1173.76ZM783.756 596.218C782.129 599.036 778.585 600.064 775.714 598.594L775.443 598.438L667.475 536.103C664.565 534.423 663.563 530.701 665.245 527.787L758.87 365.625C760.549 362.716 764.271 361.715 767.186 363.398L875.154 425.733C878.064 427.413 879.067 431.135 877.384 434.049L783.756 596.218ZM562.248 979.881C560.622 982.698 557.077 983.726 554.206 982.257L553.936 982.101L445.967 919.765C443.058 918.085 442.055 914.363 443.737 911.449L537.362 749.287C539.041 746.379 542.763 745.377 545.679 747.06L653.647 809.396C656.557 811.076 657.559 814.798 655.877 817.712L562.248 979.881Z" stroke="url(#paint15_linear_7501_39911)" stroke-width="2"/>
<path d="M1116.95 19.1024C1115.33 21.9198 1111.78 22.948 1108.91 21.4788L1108.64 21.3223L1000.67 -41.0132C997.764 -42.6932 996.761 -46.4153 998.444 -49.329L1092.07 -211.491C1093.75 -214.399 1097.47 -215.401 1100.38 -213.718L1208.35 -151.382C1211.26 -149.702 1212.27 -145.98 1210.58 -143.067L1116.95 19.1024ZM895.447 402.765C893.82 405.583 890.275 406.611 887.405 405.141L887.134 404.985L779.166 342.649C776.256 340.969 775.254 337.247 776.936 334.334L870.56 172.171C872.239 169.263 875.962 168.261 878.877 169.945L986.845 232.28C989.755 233.96 990.757 237.682 989.075 240.596L895.447 402.765ZM1228.89 -174.777C1227.26 -171.959 1223.72 -170.931 1220.85 -172.401L1220.58 -172.557L1112.61 -234.893C1109.7 -236.573 1108.7 -240.295 1110.38 -243.208L1204 -405.371C1205.68 -408.279 1209.41 -409.28 1212.32 -407.597L1320.29 -345.262C1323.2 -343.582 1324.2 -339.86 1322.52 -336.946L1228.89 -174.777ZM1007.38 208.886C1005.76 211.703 1002.21 212.731 999.341 211.262L999.07 211.106L891.102 148.77C888.192 147.09 887.19 143.368 888.872 140.454L982.497 -21.708C984.176 -24.6162 987.898 -25.6179 990.813 -23.9347L1098.78 38.4008C1101.69 40.0808 1102.69 43.8029 1101.01 46.7166L1007.38 208.886Z" stroke="url(#paint16_linear_7501_39911)" stroke-width="2"/>
<path d="M1928.62 487.719C1926.99 490.536 1923.45 491.564 1920.58 490.095L1920.31 489.938L1812.34 427.603C1809.43 425.923 1808.43 422.201 1810.11 419.287L1903.74 257.125C1905.41 254.217 1909.14 253.215 1912.05 254.898L2020.02 317.234C2022.93 318.914 2023.93 322.636 2022.25 325.55L1928.62 487.719ZM1707.11 871.381C1705.49 874.199 1701.94 875.227 1699.07 873.757L1698.8 873.601L1590.83 811.266C1587.92 809.586 1586.92 805.863 1588.6 802.95L1682.23 640.787C1683.91 637.879 1687.63 636.878 1690.54 638.561L1798.51 700.896C1801.42 702.576 1802.42 706.298 1800.74 709.212L1707.11 871.381ZM2040.56 293.839C2038.93 296.657 2035.39 297.685 2032.52 296.215L2032.25 296.059L1924.28 233.724C1921.37 232.044 1920.36 228.322 1922.05 225.408L2015.67 63.2456C2017.35 60.3375 2021.07 59.3358 2023.99 61.019L2131.96 123.354C2134.87 125.034 2135.87 128.757 2134.19 131.67L2040.56 293.839ZM1819.05 677.502C1817.42 680.319 1813.88 681.348 1811.01 679.878L1810.74 679.722L1702.77 617.386C1699.86 615.706 1698.86 611.984 1700.54 609.071L1794.16 446.908C1795.84 444 1799.56 442.998 1802.48 444.682L1910.45 507.017C1913.36 508.697 1914.36 512.419 1912.68 515.333L1819.05 677.502Z" stroke="url(#paint17_linear_7501_39911)" stroke-width="2"/>
<path d="M265.987 555.79C264.36 558.607 260.816 559.635 257.945 558.166L257.674 558.01L149.706 495.674C146.796 493.994 145.794 490.272 147.476 487.359L241.1 325.196C242.779 322.288 246.502 321.286 249.417 322.97L357.385 385.305C360.295 386.985 361.297 390.707 359.615 393.621L265.987 555.79ZM44.4791 939.453C42.8524 942.27 39.3077 943.298 36.437 941.829L36.1664 941.672L-71.8019 879.337C-74.7117 877.657 -75.7141 873.935 -74.0319 871.021L19.5926 708.859C21.2716 705.951 24.9938 704.949 27.9093 706.632L135.877 768.968C138.787 770.648 139.79 774.37 138.108 777.283L44.4791 939.453ZM377.923 361.911C376.296 364.728 372.752 365.756 369.881 364.287L369.61 364.13L261.642 301.795C258.732 300.115 257.73 296.393 259.412 293.479L353.037 131.317C354.716 128.409 358.438 127.407 361.353 129.09L469.321 191.426C472.231 193.106 473.234 196.828 471.551 199.742L377.923 361.911ZM156.415 745.573C154.789 748.391 151.244 749.419 148.373 747.949L148.103 747.793L40.1344 685.458C37.2246 683.778 36.2222 680.055 37.9044 677.142L131.529 514.979C133.208 512.071 136.93 511.07 139.846 512.753L247.814 575.088C250.724 576.768 251.726 580.49 250.044 583.404L156.415 745.573Z" stroke="url(#paint18_linear_7501_39911)" stroke-width="2"/>
<path d="M711.122 -215.205C709.495 -212.388 705.951 -211.36 703.08 -212.829L702.809 -212.985L594.841 -275.321C591.931 -277.001 590.928 -280.723 592.611 -283.637L686.235 -445.799C687.914 -448.707 691.636 -449.709 694.552 -448.026L802.52 -385.69C805.43 -384.01 806.432 -380.288 804.75 -377.374L711.122 -215.205ZM489.614 168.457C487.987 171.275 484.442 172.303 481.572 170.834L481.301 170.677L373.333 108.342C370.423 106.662 369.421 102.94 371.103 100.026L464.727 -62.1364C466.406 -65.0444 470.129 -66.0462 473.044 -64.363L581.012 -2.02747C583.922 -0.347459 584.924 3.37461 583.242 6.28825L489.614 168.457ZM823.058 -409.084C821.431 -406.267 817.886 -405.239 815.016 -406.708L814.745 -406.865L706.777 -469.2C703.867 -470.88 702.865 -474.602 704.547 -477.516L798.171 -639.678C799.85 -642.586 803.573 -643.588 806.488 -641.905L914.456 -579.569C917.366 -577.889 918.368 -574.167 916.686 -571.254L823.058 -409.084ZM601.55 -25.422C599.923 -22.6044 596.379 -21.5763 593.508 -23.0458L593.237 -23.2021L485.269 -85.5375C482.359 -87.2176 481.357 -90.9396 483.039 -93.8533L576.664 -256.016C578.343 -258.924 582.065 -259.925 584.98 -258.242L692.949 -195.907C695.858 -194.227 696.861 -190.505 695.179 -187.591L601.55 -25.422Z" stroke="url(#paint19_linear_7501_39911)" stroke-width="2"/>
<path d="M1077.65 1024.41C1076.03 1027.22 1072.48 1028.25 1069.61 1026.78L1069.34 1026.63L961.372 964.291C958.462 962.61 957.46 958.888 959.142 955.975L1052.77 793.812C1054.45 790.904 1058.17 789.903 1061.08 791.586L1169.05 853.921C1171.96 855.601 1172.96 859.323 1171.28 862.237L1077.65 1024.41ZM856.145 1408.07C854.518 1410.89 850.974 1411.91 848.103 1410.44L847.832 1410.29L739.864 1347.95C736.954 1346.27 735.952 1342.55 737.634 1339.64L831.259 1177.47C832.938 1174.57 836.66 1173.57 839.575 1175.25L947.543 1237.58C950.453 1239.26 951.456 1242.99 949.774 1245.9L856.145 1408.07ZM1189.59 830.527C1187.96 833.344 1184.42 834.372 1181.55 832.903L1181.28 832.747L1073.31 770.411C1070.4 768.731 1069.4 765.009 1071.08 762.095L1164.7 599.933C1166.38 597.025 1170.1 596.023 1173.02 597.706L1280.99 660.042C1283.9 661.722 1284.9 665.444 1283.22 668.358L1189.59 830.527ZM968.081 1214.19C966.455 1217.01 962.91 1218.04 960.039 1216.57L959.769 1216.41L851.8 1154.07C848.891 1152.39 847.888 1148.67 849.57 1145.76L943.195 983.596C944.874 980.688 948.596 979.686 951.512 981.369L1059.48 1043.7C1062.39 1045.38 1063.39 1049.11 1061.71 1052.02L968.081 1214.19Z" stroke="url(#paint20_linear_7501_39911)" stroke-width="2"/>
<path d="M1522.79 253.411C1521.16 256.228 1517.62 257.257 1514.75 255.787L1514.47 255.631L1406.51 193.295C1403.6 191.615 1402.59 187.893 1404.28 184.98L1497.9 22.8173C1499.58 19.9092 1503.3 18.9075 1506.22 20.5907L1614.19 82.9262C1617.1 84.6062 1618.1 88.3282 1616.42 91.2419L1522.79 253.411ZM1301.28 637.074C1299.65 639.891 1296.11 640.919 1293.24 639.45L1292.97 639.293L1185 576.958C1182.09 575.278 1181.09 571.556 1182.77 568.642L1276.39 406.48C1278.07 403.572 1281.79 402.57 1284.71 404.253L1392.68 466.589C1395.59 468.269 1396.59 471.991 1394.91 474.904L1301.28 637.074ZM1634.72 59.5317C1633.1 62.3493 1629.55 63.3774 1626.68 61.9078L1626.41 61.7516L1518.44 -0.583919C1515.53 -2.26393 1514.53 -5.986 1516.21 -8.89969L1609.84 -171.062C1611.52 -173.97 1615.24 -174.972 1618.15 -173.289L1726.12 -110.953C1729.03 -109.273 1730.03 -105.551 1728.35 -102.637L1634.72 59.5317ZM1413.22 443.194C1411.59 446.012 1408.04 447.04 1405.17 445.57L1404.9 445.414L1296.94 383.079C1294.03 381.399 1293.02 377.677 1294.71 374.763L1388.33 212.601C1390.01 209.692 1393.73 208.691 1396.65 210.374L1504.61 272.709C1507.52 274.389 1508.53 278.111 1506.84 281.025L1413.22 443.194Z" stroke="url(#paint21_linear_7501_39911)" stroke-width="2"/>
</g>
<path d="M758.411 -76.9999L311.818 696.522L621.099 875.086L159.281 1674.98" stroke="url(#paint22_linear_7501_39911)" stroke-width="6" stroke-linecap="round"/>
<path d="M1736.33 144L1443.16 651.78L1646.19 768.998L1343.03 1294.09" stroke="url(#paint23_linear_7501_39911)" stroke-width="6" stroke-linecap="round"/>
<path d="M1097.79 657.385L990.674 842.922L1064.86 885.753L954.087 1077.62" stroke="url(#paint24_linear_7501_39911)" stroke-width="6" stroke-linecap="round"/>
<path d="M1477.87 -90.9998L1177.06 430.016L1275.28 486.722L964.219 1025.5" stroke="url(#paint25_linear_7501_39911)" stroke-width="6" stroke-linecap="round"/>
</g>
<defs>
<filter id="filter0_ddddd_7501_39911" x="-83" y="-16" width="1966" height="1116" filterUnits="userSpaceOnUse" color-interpolation-filters="sRGB">
<feFlood flood-opacity="0" result="BackgroundImageFix"/>
<feColorMatrix in="SourceAlpha" type="matrix" values="0 0 0 0 0 0 0 0 0 0 0 0 0 0 0 0 0 0 127 0" result="hardAlpha"/>
<feOffset/>
<feColorMatrix type="matrix" values="0 0 0 0 0.682353 0 0 0 0 0.760784 0 0 0 0 0.835294 0 0 0 0.11 0"/>
<feBlend mode="normal" in2="BackgroundImageFix" result="effect1_dropShadow_7501_39911"/>
<feColorMatrix in="SourceAlpha" type="matrix" values="0 0 0 0 0 0 0 0 0 0 0 0 0 0 0 0 0 0 127 0" result="hardAlpha"/>
<feOffset dy="13"/>
<feGaussianBlur stdDeviation="14.5"/>
<feColorMatrix type="matrix" values="0 0 0 0 0.682353 0 0 0 0 0.760784 0 0 0 0 0.835294 0 0 0 0.11 0"/>
<feBlend mode="normal" in2="effect1_dropShadow_7501_39911" result="effect2_dropShadow_7501_39911"/>
<feColorMatrix in="SourceAlpha" type="matrix" values="0 0 0 0 0 0 0 0 0 0 0 0 0 0 0 0 0 0 127 0" result="hardAlpha"/>
<feOffset dy="52"/>
<feGaussianBlur stdDeviation="26"/>
<feColorMatrix type="matrix" values="0 0 0 0 0.682353 0 0 0 0 0.760784 0 0 0 0 0.835294 0 0 0 0.1 0"/>
<feBlend mode="normal" in2="effect2_dropShadow_7501_39911" result="effect3_dropShadow_7501_39911"/>
<feColorMatrix in="SourceAlpha" type="matrix" values="0 0 0 0 0 0 0 0 0 0 0 0 0 0 0 0 0 0 127 0" result="hardAlpha"/>
<feOffset dy="117"/>
<feGaussianBlur stdDeviation="35"/>
<feColorMatrix type="matrix" values="0 0 0 0 0.682353 0 0 0 0 0.760784 0 0 0 0 0.835294 0 0 0 0.06 0"/>
<feBlend mode="normal" in2="effect3_dropShadow_7501_39911" result="effect4_dropShadow_7501_39911"/>
<feColorMatrix in="SourceAlpha" type="matrix" values="0 0 0 0 0 0 0 0 0 0 0 0 0 0 0 0 0 0 127 0" result="hardAlpha"/>
<feOffset dy="207"/>
<feGaussianBlur stdDeviation="41.5"/>
<feColorMatrix type="matrix" values="0 0 0 0 0.682353 0 0 0 0 0.760784 0 0 0 0 0.835294 0 0 0 0.02 0"/>
<feBlend mode="normal" in2="effect4_dropShadow_7501_39911" result="effect5_dropShadow_7501_39911"/>
<feBlend mode="normal" in="SourceGraphic" in2="effect5_dropShadow_7501_39911" result="shape"/>
</filter>
<linearGradient id="paint0_linear_7501_39911" x1="181.817" y1="667.05" x2="-116.432" y2="109.746" gradientUnits="userSpaceOnUse">
<stop stop-color="#97A7FF"/>
<stop offset="1" stop-color="#0129FF" stop-opacity="0"/>
</linearGradient>
<linearGradient id="paint1_linear_7501_39911" x1="-53.5878" y1="1097.92" x2="713.874" y2="225.693" gradientUnits="userSpaceOnUse">
<stop stop-color="#0129FF"/>
<stop offset="1" stop-color="white" stop-opacity="0"/>
</linearGradient>
<linearGradient id="paint2_linear_7501_39911" x1="391.547" y1="326.923" x2="1159.01" y2="-545.302" gradientUnits="userSpaceOnUse">
<stop stop-color="#0129FF"/>
<stop offset="1" stop-color="white" stop-opacity="0"/>
</linearGradient>
<linearGradient id="paint3_linear_7501_39911" x1="758.079" y1="1566.53" x2="1525.54" y2="694.309" gradientUnits="userSpaceOnUse">
<stop stop-color="#0129FF"/>
<stop offset="1" stop-color="white" stop-opacity="0"/>
</linearGradient>
<linearGradient id="paint4_linear_7501_39911" x1="1203.21" y1="795.539" x2="1970.68" y2="-76.6862" gradientUnits="userSpaceOnUse">
<stop stop-color="#0129FF"/>
<stop offset="1" stop-color="white" stop-opacity="0"/>
</linearGradient>
<linearGradient id="paint5_linear_7501_39911" x1="-323.968" y1="559.863" x2="621.323" y2="-252.685" gradientUnits="userSpaceOnUse">
<stop stop-color="white" stop-opacity="0"/>
<stop offset="1" stop-color="#0129FF"/>
</linearGradient>
<linearGradient id="paint6_linear_7501_39911" x1="487.699" y1="1028.48" x2="1432.99" y2="215.931" gradientUnits="userSpaceOnUse">
<stop stop-color="white" stop-opacity="0"/>
<stop offset="1" stop-color="#0129FF"/>
</linearGradient>
<linearGradient id="paint7_linear_7501_39911" x1="932.834" y1="257.484" x2="1878.12" y2="-555.064" gradientUnits="userSpaceOnUse">
<stop stop-color="white" stop-opacity="0"/>
<stop offset="1" stop-color="#0129FF"/>
</linearGradient>
<linearGradient id="paint8_linear_7501_39911" x1="98.7921" y1="1146.4" x2="866.254" y2="274.176" gradientUnits="userSpaceOnUse">
<stop stop-color="#0129FF"/>
<stop offset="1" stop-color="white" stop-opacity="0"/>
</linearGradient>
<linearGradient id="paint9_linear_7501_39911" x1="543.926" y1="375.405" x2="1311.39" y2="-496.82" gradientUnits="userSpaceOnUse">
<stop stop-color="#0129FF"/>
<stop offset="1" stop-color="white" stop-opacity="0"/>
</linearGradient>
<linearGradient id="paint10_linear_7501_39911" x1="910.458" y1="1615.02" x2="1677.92" y2="742.791" gradientUnits="userSpaceOnUse">
<stop stop-color="#0129FF"/>
<stop offset="1" stop-color="white" stop-opacity="0"/>
</linearGradient>
<linearGradient id="paint11_linear_7501_39911" x1="1355.59" y1="844.022" x2="2123.05" y2="-28.2038" gradientUnits="userSpaceOnUse">
<stop stop-color="#0129FF"/>
<stop offset="1" stop-color="white" stop-opacity="0"/>
</linearGradient>
<linearGradient id="paint12_linear_7501_39911" x1="380.743" y1="-18.2504" x2="-145.451" y2="769.483" gradientUnits="userSpaceOnUse">
<stop stop-color="#0129FF"/>
<stop offset="1" stop-color="white" stop-opacity="0"/>
</linearGradient>
<linearGradient id="paint13_linear_7501_39911" x1="1192.41" y1="450.366" x2="666.216" y2="1238.1" gradientUnits="userSpaceOnUse">
<stop stop-color="#506BFF"/>
<stop offset="1" stop-color="white" stop-opacity="0"/>
</linearGradient>
<linearGradient id="paint14_linear_7501_39911" x1="1637.54" y1="-320.629" x2="1111.35" y2="467.104" gradientUnits="userSpaceOnUse">
<stop stop-color="#0129FF"/>
<stop offset="1" stop-color="white" stop-opacity="0"/>
</linearGradient>
<linearGradient id="paint15_linear_7501_39911" x1="165.665" y1="1342.98" x2="933.127" y2="470.757" gradientUnits="userSpaceOnUse">
<stop stop-color="#0129FF"/>
<stop offset="1" stop-color="white" stop-opacity="0"/>
</linearGradient>
<linearGradient id="paint16_linear_7501_39911" x1="610.8" y1="571.988" x2="1378.26" y2="-300.238" gradientUnits="userSpaceOnUse">
<stop stop-color="#0129FF"/>
<stop offset="1" stop-color="white" stop-opacity="0"/>
</linearGradient>
<linearGradient id="paint17_linear_7501_39911" x1="1422.47" y1="1040.6" x2="2189.93" y2="168.378" gradientUnits="userSpaceOnUse">
<stop stop-color="#0129FF"/>
<stop offset="1" stop-color="white" stop-opacity="0"/>
</linearGradient>
<linearGradient id="paint18_linear_7501_39911" x1="-240.168" y1="1108.68" x2="527.294" y2="236.45" gradientUnits="userSpaceOnUse">
<stop stop-color="#0129FF"/>
<stop offset="1" stop-color="white" stop-opacity="0"/>
</linearGradient>
<linearGradient id="paint19_linear_7501_39911" x1="204.967" y1="337.68" x2="972.429" y2="-534.546" gradientUnits="userSpaceOnUse">
<stop stop-color="#0129FF"/>
<stop offset="1" stop-color="white" stop-opacity="0"/>
</linearGradient>
<linearGradient id="paint20_linear_7501_39911" x1="571.498" y1="1577.29" x2="1338.96" y2="705.066" gradientUnits="userSpaceOnUse">
<stop stop-color="#0129FF"/>
<stop offset="1" stop-color="white" stop-opacity="0"/>
</linearGradient>
<linearGradient id="paint21_linear_7501_39911" x1="1016.63" y1="806.296" x2="1784.1" y2="-65.9294" gradientUnits="userSpaceOnUse">
<stop stop-color="#0129FF"/>
<stop offset="1" stop-color="white" stop-opacity="0"/>
</linearGradient>
<linearGradient id="paint22_linear_7501_39911" x1="-127.891" y1="1007.54" x2="981.714" y2="430.699" gradientUnits="userSpaceOnUse">
<stop stop-color="#97A7FF"/>
<stop offset="1" stop-color="#0129FF" stop-opacity="0"/>
</linearGradient>
<linearGradient id="paint23_linear_7501_39911" x1="1154.51" y1="855.949" x2="1882.92" y2="477.28" gradientUnits="userSpaceOnUse">
<stop stop-color="#97A7FF"/>
<stop offset="1" stop-color="#0129FF" stop-opacity="0"/>
</linearGradient>
<linearGradient id="paint24_linear_7501_39911" x1="885.206" y1="917.524" x2="1151.36" y2="779.162" gradientUnits="userSpaceOnUse">
<stop stop-color="#0129FF"/>
<stop offset="1" stop-color="#0129FF" stop-opacity="0"/>
</linearGradient>
<linearGradient id="paint25_linear_7501_39911" x1="950.349" y1="679.608" x2="1540.45" y2="612.681" gradientUnits="userSpaceOnUse">
<stop stop-color="#97A7FF"/>
<stop offset="1" stop-color="#0129FF" stop-opacity="0"/>
</linearGradient>
</defs>
</svg>
