<svg width="51" height="50" viewBox="0 0 51 50" fill="none" xmlns="http://www.w3.org/2000/svg">
<path d="M3.02468 5.75292C3.35594 3.99232 4.75351 2.62792 6.52226 2.3338C21.3703 -0.135236 30.6229 -0.0812501 44.4702 2.31586C46.2198 2.61873 47.6003 3.97343 47.9326 5.71666C50.7919 20.713 50.5873 30.0758 47.9234 44.2753C47.594 46.0312 46.2079 47.3978 44.448 47.6993C30.1256 50.1528 20.8676 50.0523 6.5485 47.6832C4.76813 47.3886 3.3624 46.0105 3.03612 44.2367C0.359794 29.6877 0.286935 20.3036 3.02468 5.75292Z" fill="white" stroke="#E4E4E4"/>
<g clip-path="url(#clip0_5962_8409)">
<path d="M40.5 25C40.5 16.7148 33.7852 10 25.5 10C17.2148 10 10.5 16.7148 10.5 25C10.5 33.2852 17.2148 40 25.5 40C25.5879 40 25.6758 40 25.7637 39.9941V28.3223H22.541V24.5664H25.7637V21.8008C25.7637 18.5957 27.7207 16.8496 30.5801 16.8496C31.9512 16.8496 33.1289 16.9492 33.4688 16.9961V20.3477H31.5C29.9473 20.3477 29.6426 21.0859 29.6426 22.1699V24.5605H33.3633L32.877 28.3164H29.6426V39.4199C35.9121 37.6211 40.5 31.8496 40.5 25Z" fill="#286FDA"/>
</g>
<defs>
<clipPath id="clip0_5962_8409">
<rect width="30" height="30" fill="white" transform="translate(10.5 10)"/>
</clipPath>
</defs>
</svg>
