<svg width="51" height="50" viewBox="0 0 51 50" fill="none" xmlns="http://www.w3.org/2000/svg">
<path d="M3.02468 5.75292C3.35594 3.99232 4.75351 2.62792 6.52226 2.3338C21.3703 -0.135236 30.6229 -0.0812501 44.4702 2.31586C46.2198 2.61873 47.6003 3.97343 47.9326 5.71666C50.7919 20.713 50.5873 30.0758 47.9234 44.2753C47.594 46.0312 46.2079 47.3978 44.448 47.6993C30.1256 50.1528 20.8676 50.0523 6.5485 47.6832C4.76813 47.3886 3.3624 46.0105 3.03612 44.2367C0.359794 29.6877 0.286935 20.3036 3.02468 5.75292Z" fill="white" stroke="#E4E4E4"/>
<path fill-rule="evenodd" clip-rule="evenodd" d="M26.905 28.9111C26.905 28.9111 31.0507 17.672 32.3028 14.2789C32.4063 13.998 32.595 13.7552 32.8432 13.5837C33.0914 13.4122 33.3871 13.3203 33.6901 13.3203H38.6124C38.7584 13.3203 38.9011 13.3631 39.0225 13.4431C39.1439 13.5232 39.2385 13.6369 39.2944 13.77C39.3503 13.9031 39.3649 14.0495 39.3364 14.1908C39.3079 14.3321 39.2376 14.4619 39.1344 14.5638L37.4415 16.2341V33.7166L39.1344 35.3869C39.2376 35.4887 39.3079 35.6185 39.3364 35.7598C39.3649 35.9011 39.3503 36.0475 39.2944 36.1806C39.2385 36.3137 39.1439 36.4275 39.0225 36.5075C38.9011 36.5875 38.7584 36.6303 38.6124 36.6303H30.364C30.218 36.6303 30.0753 36.5875 29.9539 36.5075C29.8325 36.4275 29.7379 36.3137 29.6821 36.1806C29.6262 36.0475 29.6116 35.9011 29.64 35.7598C29.6685 35.6185 29.7388 35.4887 29.842 35.3869L31.535 33.7166V20.6193C31.535 20.6193 27.0047 32.9 25.8795 35.9507C25.8059 36.1499 25.672 36.3219 25.496 36.4435C25.3199 36.5651 25.1102 36.6303 24.8954 36.6303H24.8946C24.6731 36.6304 24.4563 36.5675 24.2701 36.4492C24.0839 36.3308 23.9362 36.1621 23.8447 35.9631L16.7688 20.6047V30.8028C16.7688 30.8028 18.6825 33.8244 19.7545 35.5158C19.8243 35.6261 19.863 35.7528 19.8665 35.8828C19.8699 36.0127 19.8381 36.1413 19.7742 36.255C19.7103 36.3687 19.6167 36.4635 19.5031 36.5295C19.3896 36.5955 19.2602 36.6303 19.1284 36.6303H12.3389C12.2018 36.6303 12.0674 36.5926 11.9507 36.5215C11.8341 36.4504 11.7399 36.3486 11.6785 36.2276C11.6172 36.1066 11.5913 35.9712 11.6036 35.8365C11.6159 35.7017 11.666 35.573 11.7482 35.4648C13.041 33.7639 15.2921 30.8028 15.2921 30.8028V17.6909C15.2921 17.6909 13.7026 15.8094 12.6099 14.5149C12.5201 14.4086 12.4629 14.2792 12.4449 14.1419C12.427 14.0047 12.449 13.8652 12.5085 13.7398C12.568 13.6145 12.6625 13.5084 12.7809 13.4341C12.8992 13.3598 13.0366 13.3204 13.1769 13.3203H18.7711C19.0546 13.3203 19.3321 13.4008 19.5705 13.5522C19.8089 13.7036 19.9981 13.9195 20.1155 14.174C21.6173 17.4338 26.905 28.9111 26.905 28.9111Z" fill="#161616"/>
</svg>
