<svg width="51" height="50" viewBox="0 0 51 50" fill="none" xmlns="http://www.w3.org/2000/svg">
<path d="M3.02468 5.75292C3.35594 3.99232 4.75351 2.62792 6.52226 2.3338C21.3703 -0.135236 30.6229 -0.0812501 44.4702 2.31586C46.2198 2.61873 47.6003 3.97343 47.9326 5.71666C50.7919 20.713 50.5873 30.0758 47.9234 44.2753C47.594 46.0312 46.2079 47.3978 44.448 47.6993C30.1256 50.1528 20.8676 50.0523 6.5485 47.6832C4.76813 47.3886 3.3624 46.0105 3.03612 44.2367C0.359794 29.6877 0.286935 20.3036 3.02468 5.75292Z" fill="white" stroke="#E4E4E4"/>
<path d="M25.5 40C33.7843 40 40.5 33.2843 40.5 25C40.5 16.7157 33.7843 10 25.5 10C17.2157 10 10.5 16.7157 10.5 25C10.5 33.2843 17.2157 40 25.5 40Z" fill="#FF4500"/>
<path d="M35.5064 24.9997C35.5064 23.7825 34.5219 22.8159 33.3226 22.8159C32.7319 22.8159 32.195 23.0486 31.8012 23.4245C30.2976 22.3505 28.2391 21.6524 25.9479 21.5629L26.9503 16.8732L30.2081 17.5713C30.2439 18.3947 30.9241 19.0569 31.7654 19.0569C32.6245 19.0569 33.3226 18.3589 33.3226 17.4997C33.3226 16.6405 32.6245 15.9424 31.7654 15.9424C31.1568 15.9424 30.6198 16.3004 30.3692 16.8195L26.7355 16.0498C26.6281 16.0319 26.5207 16.0498 26.4491 16.1035C26.3596 16.1572 26.3059 16.2467 26.288 16.3541L25.1782 21.5808C22.8513 21.6524 20.757 22.3505 19.2355 23.4424C18.8417 23.0665 18.3047 22.8338 17.714 22.8338C16.4969 22.8338 15.5303 23.8183 15.5303 25.0176C15.5303 25.9125 16.0673 26.6643 16.8191 27.0044C16.7833 27.2192 16.7654 27.434 16.7654 27.6667C16.7654 31.0319 20.6854 33.7705 25.5183 33.7705C30.3513 33.7705 34.2713 31.0498 34.2713 27.6667C34.2713 27.4519 34.2534 27.2192 34.2176 27.0044C34.9694 26.6643 35.5064 25.8947 35.5064 24.9997ZM20.5064 26.5569C20.5064 25.6978 21.2045 24.9997 22.0637 24.9997C22.9229 24.9997 23.621 25.6978 23.621 26.5569C23.621 27.4161 22.9229 28.1142 22.0637 28.1142C21.2045 28.1321 20.5064 27.4161 20.5064 26.5569ZM29.2236 30.6918C28.1496 31.7658 26.109 31.8374 25.5183 31.8374C24.9097 31.8374 22.8692 31.7479 21.8131 30.6918C21.652 30.5307 21.652 30.2801 21.8131 30.119C21.9742 29.9579 22.2248 29.9579 22.3859 30.119C23.0661 30.7992 24.4981 31.0319 25.5183 31.0319C26.5386 31.0319 27.9885 30.7992 28.6508 30.119C28.8119 29.9579 29.0625 29.9579 29.2236 30.119C29.3668 30.2801 29.3668 30.5307 29.2236 30.6918ZM28.9372 28.1321C28.078 28.1321 27.3799 27.434 27.3799 26.5748C27.3799 25.7157 28.078 25.0176 28.9372 25.0176C29.7964 25.0176 30.4945 25.7157 30.4945 26.5748C30.4945 27.4161 29.7964 28.1321 28.9372 28.1321Z" fill="white"/>
</svg>
