<svg width="51" height="50" viewBox="0 0 51 50" fill="none" xmlns="http://www.w3.org/2000/svg">
<path d="M3.02468 5.75292C3.35594 3.99232 4.75351 2.62792 6.52226 2.3338C21.3703 -0.135236 30.6229 -0.0812501 44.4702 2.31586C46.2198 2.61873 47.6003 3.97343 47.9326 5.71666C50.7919 20.713 50.5873 30.0758 47.9234 44.2753C47.594 46.0312 46.2079 47.3978 44.448 47.6993C30.1256 50.1528 20.8676 50.0523 6.5485 47.6832C4.76813 47.3886 3.3624 46.0105 3.03612 44.2367C0.359794 29.6877 0.286935 20.3036 3.02468 5.75292Z" fill="white" stroke="#E4E4E4"/>
<path fill-rule="evenodd" clip-rule="evenodd" d="M37.0401 13.1694C37.3955 13.018 37.7835 12.9668 38.1645 13.021C38.5454 13.0753 38.9055 13.2331 39.2078 13.4782C39.5102 13.7233 39.744 14.047 39.8852 14.4161C40.0265 14.7851 40.0701 15.1863 40.0117 15.5785C39.1691 21.233 37.6243 31.5945 36.8042 37.0946C36.7475 37.4751 36.5965 37.8342 36.366 38.137C36.1355 38.4398 35.8331 38.6761 35.4882 38.823C35.1433 38.97 34.7674 39.0226 34.397 38.9759C34.0266 38.9291 33.6742 38.7845 33.3737 38.5561C30.4728 36.3507 26.1236 33.0441 23.9155 31.3647C23.7451 31.2351 23.6043 31.0685 23.5031 30.8766C23.402 30.6848 23.3429 30.4723 23.33 30.2543C23.3171 30.0363 23.3508 29.818 23.4286 29.6148C23.5064 29.4117 23.6265 29.2287 23.7804 29.0787C25.8038 27.1068 29.8337 23.1795 32.6064 20.4772C32.6717 20.4132 32.7115 20.3262 32.7179 20.2335C32.7244 20.1408 32.697 20.0489 32.6413 19.9759C32.5855 19.9029 32.5053 19.854 32.4164 19.8388C32.3275 19.8236 32.2363 19.8432 32.1607 19.8938C28.6056 22.2864 23.1609 25.9504 20.4923 27.7462C19.9923 28.0828 19.4302 28.3092 18.8414 28.4113C18.2526 28.5133 17.6497 28.4888 17.0705 28.3394C15.6011 27.9603 13.4816 27.4135 11.5955 26.927C11.3002 26.8509 11.0357 26.6805 10.8397 26.4403C10.6437 26.2 10.5262 25.902 10.5039 25.5887C10.4816 25.2755 10.5556 24.963 10.7155 24.6957C10.8754 24.4284 11.1129 24.22 11.3942 24.1001C17.9601 21.3016 30.8093 15.8254 37.0401 13.1694Z" fill="#32B4FF"/>
</svg>
