<svg width="51" height="50" viewBox="0 0 51 50" fill="none" xmlns="http://www.w3.org/2000/svg">
<path d="M3.02468 5.75292C3.35594 3.99232 4.75351 2.62792 6.52226 2.3338C21.3703 -0.135236 30.6229 -0.0812501 44.4702 2.31586C46.2198 2.61873 47.6003 3.97343 47.9326 5.71666C50.7919 20.713 50.5873 30.0758 47.9234 44.2753C47.594 46.0312 46.2079 47.3978 44.448 47.6993C30.1256 50.1528 20.8676 50.0523 6.5485 47.6832C4.76813 47.3886 3.3624 46.0105 3.03612 44.2367C0.359794 29.6877 0.286935 20.3036 3.02468 5.75292Z" fill="white" stroke="#E4E4E4"/>
<path d="M33.4078 39.2023L17.6184 39.2173C14.1447 39.2205 11.3002 36.3815 11.2963 32.9078L11.2813 17.1184C11.2781 13.6447 14.117 10.8002 17.5907 10.7963L33.3802 10.7813C36.8539 10.7781 39.6984 13.617 39.7023 17.0907L39.7173 32.8802C39.7213 36.3547 36.8815 39.1991 33.4078 39.2023Z" fill="url(#paint0_radial_5962_8385)"/>
<path d="M33.4078 39.2023L17.6184 39.2173C14.1447 39.2205 11.3002 36.3815 11.2963 32.9078L11.2813 17.1184C11.2781 13.6447 14.117 10.8002 17.5907 10.7963L33.3802 10.7813C36.8539 10.7781 39.6984 13.617 39.7023 17.0907L39.7173 32.8802C39.7213 36.3547 36.8815 39.1991 33.4078 39.2023Z" fill="url(#paint1_radial_5962_8385)"/>
<path d="M25.4999 30.5263C22.4534 30.5263 19.9736 28.0473 19.9736 24.9999C19.9736 21.9526 22.4534 19.4736 25.4999 19.4736C28.5465 19.4736 31.0263 21.9526 31.0263 24.9999C31.0263 28.0473 28.5465 30.5263 25.4999 30.5263ZM25.4999 21.0526C23.3234 21.0526 21.5526 22.8234 21.5526 24.9999C21.5526 27.1765 23.3234 28.9473 25.4999 28.9473C27.6765 28.9473 29.4473 27.1765 29.4473 24.9999C29.4473 22.8234 27.6765 21.0526 25.4999 21.0526Z" fill="white"/>
<path d="M31.4215 20.263C32.0755 20.263 32.6057 19.7328 32.6057 19.0787C32.6057 18.4247 32.0755 17.8945 31.4215 17.8945C30.7675 17.8945 30.2373 18.4247 30.2373 19.0787C30.2373 19.7328 30.7675 20.263 31.4215 20.263Z" fill="white"/>
<path d="M30.2363 35.2636H20.7626C17.7161 35.2636 15.2363 32.7847 15.2363 29.7373V20.2636C15.2363 17.2163 17.7161 14.7373 20.7626 14.7373H30.2363C33.2829 14.7373 35.7626 17.2163 35.7626 20.2636V29.7373C35.7626 32.7847 33.2829 35.2636 30.2363 35.2636ZM20.7626 16.3163C18.5861 16.3163 16.8153 18.087 16.8153 20.2636V29.7373C16.8153 31.9139 18.5861 33.6847 20.7626 33.6847H30.2363C32.4129 33.6847 34.1837 31.9139 34.1837 29.7373V20.2636C34.1837 18.087 32.4129 16.3163 30.2363 16.3163H20.7626Z" fill="white"/>
<defs>
<radialGradient id="paint0_radial_5962_8385" cx="0" cy="0" r="1" gradientUnits="userSpaceOnUse" gradientTransform="translate(21.8523 39.2378) scale(35.4466 35.4466)">
<stop stop-color="#FFDD55"/>
<stop offset="0.328" stop-color="#FF543F"/>
<stop offset="0.348" stop-color="#FC5245"/>
<stop offset="0.504" stop-color="#E64771"/>
<stop offset="0.643" stop-color="#D53E91"/>
<stop offset="0.761" stop-color="#CC39A4"/>
<stop offset="0.841" stop-color="#C837AB"/>
</radialGradient>
<radialGradient id="paint1_radial_5962_8385" cx="0" cy="0" r="1" gradientUnits="userSpaceOnUse" gradientTransform="translate(15.857 10.4262) scale(23.5366 15.6824)">
<stop stop-color="#4168C9"/>
<stop offset="0.999" stop-color="#4168C9" stop-opacity="0"/>
</radialGradient>
</defs>
</svg>
