<svg width="51" height="50" viewBox="0 0 51 50" fill="none" xmlns="http://www.w3.org/2000/svg">
<path d="M3.02468 5.75292C3.35594 3.99232 4.75351 2.62792 6.52226 2.3338C21.3703 -0.135236 30.6229 -0.0812501 44.4702 2.31586C46.2198 2.61873 47.6003 3.97343 47.9326 5.71666C50.7919 20.713 50.5873 30.0758 47.9234 44.2753C47.594 46.0312 46.2079 47.3978 44.448 47.6993C30.1256 50.1528 20.8676 50.0523 6.5485 47.6832C4.76813 47.3886 3.3624 46.0105 3.03612 44.2367C0.359794 29.6877 0.286935 20.3036 3.02468 5.75292Z" fill="white" stroke="#E4E4E4"/>
<path d="M39.798 17.7564C39.198 15.9049 37.212 14.782 35.385 14.5261C28.8135 13.8246 22.1865 13.8246 15.615 14.5261C13.788 14.782 11.802 15.9049 11.202 17.7564C10.266 22.5395 10.266 27.4597 11.202 32.2429C11.802 34.0943 13.788 35.2173 15.615 35.4762C22.1866 36.1746 28.8134 36.1746 35.385 35.4762C37.212 35.2173 39.198 34.0943 39.798 32.2429C40.734 27.4597 40.734 22.5395 39.798 17.7564ZM21.9 30.7677V19.2315L31.272 24.9996L21.9 30.7677Z" fill="#FF3B2E"/>
</svg>
