<svg width="330" height="61" viewBox="0 0 330 61" fill="none" xmlns="http://www.w3.org/2000/svg">
<rect x="1" y="1.93945" width="328" height="58" rx="9" fill="white"/>
<path d="M22.232 23.7755C22.232 24.2315 22.288 24.6475 22.4 25.0235C22.512 25.3915 22.672 25.7075 22.88 25.9715C23.096 26.2275 23.356 26.4275 23.66 26.5715C23.964 26.7155 24.308 26.7875 24.692 26.7875C25.068 26.7875 25.408 26.7155 25.712 26.5715C26.016 26.4275 26.272 26.2275 26.48 25.9715C26.696 25.7075 26.86 25.3915 26.972 25.0235C27.084 24.6475 27.14 24.2315 27.14 23.7755C27.14 23.3195 27.084 22.9075 26.972 22.5395C26.86 22.1635 26.696 21.8475 26.48 21.5915C26.272 21.3275 26.016 21.1235 25.712 20.9795C25.408 20.8355 25.068 20.7635 24.692 20.7635C24.308 20.7635 23.964 20.8355 23.66 20.9795C23.356 21.1235 23.096 21.3275 22.88 21.5915C22.672 21.8555 22.512 22.1715 22.4 22.5395C22.288 22.9075 22.232 23.3195 22.232 23.7755ZM28.724 23.7755C28.724 24.4875 28.616 25.1155 28.4 25.6595C28.192 26.2035 27.904 26.6595 27.536 27.0275C27.176 27.3875 26.752 27.6595 26.264 27.8435C25.776 28.0275 25.256 28.1195 24.704 28.1195C24.152 28.1195 23.628 28.0275 23.132 27.8435C22.644 27.6595 22.216 27.3875 21.848 27.0275C21.488 26.6595 21.2 26.2035 20.984 25.6595C20.768 25.1155 20.66 24.4875 20.66 23.7755C20.66 23.0635 20.768 22.4395 20.984 21.9035C21.2 21.3595 21.492 20.9035 21.86 20.5355C22.236 20.1675 22.668 19.8915 23.156 19.7075C23.644 19.5235 24.16 19.4315 24.704 19.4315C25.248 19.4315 25.764 19.5235 26.252 19.7075C26.74 19.8915 27.164 20.1675 27.524 20.5355C27.892 20.9035 28.184 21.3595 28.4 21.9035C28.616 22.4395 28.724 23.0635 28.724 23.7755ZM35.5307 21.6635V27.9395H34.0787V22.8755H31.7627V27.9395H30.3107V21.6635H35.5307ZM39.8371 22.8635C39.8291 23.2155 39.8171 23.5835 39.8011 23.9675C39.7851 24.3435 39.7451 24.7155 39.6811 25.0835C39.6251 25.4515 39.5331 25.8035 39.4051 26.1395C39.2771 26.4755 39.0971 26.7795 38.8651 27.0515C38.6411 27.3155 38.3571 27.5395 38.0131 27.7235C37.6771 27.8995 37.2651 28.0115 36.7771 28.0595L36.5731 26.8475C36.9811 26.7675 37.2971 26.6395 37.5211 26.4635C37.7451 26.2795 37.9171 26.0475 38.0371 25.7675C38.1331 25.5595 38.2051 25.3235 38.2531 25.0595C38.3091 24.7955 38.3491 24.5195 38.3731 24.2315C38.4051 23.9355 38.4251 23.6355 38.4331 23.3315C38.4411 23.0275 38.4451 22.7315 38.4451 22.4435V21.6635H42.8851V27.9395H41.4331V22.8635H39.8371ZM46.9445 26.9195C47.3925 26.9195 47.7325 26.8955 47.9645 26.8475V25.2395C47.8845 25.2155 47.7685 25.1915 47.6165 25.1675C47.4645 25.1435 47.2965 25.1315 47.1125 25.1315C46.9525 25.1315 46.7885 25.1435 46.6205 25.1675C46.4605 25.1915 46.3125 25.2355 46.1765 25.2995C46.0485 25.3635 45.9445 25.4555 45.8645 25.5755C45.7845 25.6875 45.7445 25.8315 45.7445 26.0075C45.7445 26.3515 45.8525 26.5915 46.0685 26.7275C46.2845 26.8555 46.5765 26.9195 46.9445 26.9195ZM46.8245 21.5075C47.3045 21.5075 47.7085 21.5675 48.0365 21.6875C48.3645 21.8075 48.6245 21.9755 48.8165 22.1915C49.0165 22.4075 49.1565 22.6715 49.2365 22.9835C49.3245 23.2875 49.3685 23.6235 49.3685 23.9915V27.7955C49.1445 27.8435 48.8045 27.8995 48.3485 27.9635C47.9005 28.0355 47.3925 28.0715 46.8245 28.0715C46.4485 28.0715 46.1045 28.0355 45.7925 27.9635C45.4805 27.8915 45.2125 27.7755 44.9885 27.6155C44.7725 27.4555 44.6005 27.2475 44.4725 26.9915C44.3525 26.7355 44.2925 26.4195 44.2925 26.0435C44.2925 25.6835 44.3605 25.3795 44.4965 25.1315C44.6405 24.8835 44.8325 24.6835 45.0725 24.5315C45.3125 24.3715 45.5885 24.2595 45.9005 24.1955C46.2205 24.1235 46.5525 24.0875 46.8965 24.0875C47.0565 24.0875 47.2245 24.0995 47.4005 24.1235C47.5765 24.1395 47.7645 24.1715 47.9645 24.2195V23.9795C47.9645 23.8115 47.9445 23.6515 47.9045 23.4995C47.8645 23.3475 47.7925 23.2155 47.6885 23.1035C47.5925 22.9835 47.4605 22.8915 47.2925 22.8275C47.1325 22.7635 46.9285 22.7315 46.6805 22.7315C46.3445 22.7315 46.0365 22.7555 45.7565 22.8035C45.4765 22.8515 45.2485 22.9075 45.0725 22.9715L44.8925 21.7955C45.0765 21.7315 45.3445 21.6675 45.6965 21.6035C46.0485 21.5395 46.4245 21.5075 46.8245 21.5075ZM55.8747 22.8755H53.8467V27.9395H52.3947V22.8755H50.3787V21.6635H55.8747V22.8755ZM62.4552 21.6635V27.9395H61.0152C61.0152 27.4835 61.0152 27.0315 61.0152 26.5835C61.0232 26.1355 61.0272 25.7195 61.0272 25.3355C61.0352 24.9515 61.0392 24.6195 61.0392 24.3395C61.0472 24.0515 61.0512 23.8395 61.0512 23.7035C60.8112 24.0155 60.5632 24.3595 60.3072 24.7355C60.0512 25.1115 59.7952 25.4875 59.5392 25.8635C59.2912 26.2395 59.0552 26.6075 58.8312 26.9675C58.6072 27.3275 58.4112 27.6515 58.2432 27.9395H56.9592V21.6635H58.3872C58.3872 22.1275 58.3832 22.5715 58.3752 22.9955C58.3752 23.4115 58.3752 23.7915 58.3752 24.1355C58.3752 24.4795 58.3712 24.7795 58.3632 25.0355C58.3632 25.2915 58.3632 25.4875 58.3632 25.6235C58.5872 25.2795 58.8192 24.9275 59.0592 24.5675C59.2992 24.1995 59.5392 23.8435 59.7792 23.4995C60.0272 23.1475 60.2712 22.8155 60.5112 22.5035C60.7512 22.1915 60.9832 21.9115 61.2072 21.6635H62.4552ZM69.0348 22.8755H67.0068V27.9395H65.5548V22.8755H63.5388V21.6635H69.0348V22.8755ZM71.5713 23.9795C71.6913 23.9475 71.8673 23.9195 72.0993 23.8955C72.3313 23.8715 72.5633 23.8595 72.7953 23.8595C73.1553 23.8595 73.4913 23.8995 73.8033 23.9795C74.1233 24.0595 74.3993 24.1875 74.6313 24.3635C74.8633 24.5315 75.0473 24.7515 75.1833 25.0235C75.3193 25.2875 75.3873 25.6035 75.3873 25.9715C75.3873 26.3475 75.3233 26.6675 75.1953 26.9315C75.0673 27.1955 74.8833 27.4115 74.6433 27.5795C74.4033 27.7475 74.1153 27.8715 73.7793 27.9515C73.4513 28.0315 73.0833 28.0715 72.6753 28.0715C72.2033 28.0715 71.7633 28.0475 71.3553 27.9995C70.9473 27.9515 70.5353 27.8795 70.1193 27.7835V21.6635H71.5713V23.9795ZM72.6393 26.9315C73.0473 26.9315 73.3633 26.8555 73.5873 26.7035C73.8193 26.5435 73.9353 26.2915 73.9353 25.9475C73.9353 25.7715 73.8953 25.6235 73.8153 25.5035C73.7433 25.3835 73.6433 25.2875 73.5153 25.2155C73.3953 25.1355 73.2513 25.0795 73.0833 25.0475C72.9153 25.0155 72.7393 24.9995 72.5553 24.9995C72.3873 24.9995 72.2113 25.0075 72.0273 25.0235C71.8433 25.0315 71.6913 25.0515 71.5713 25.0835V26.8715C71.6753 26.8875 71.8273 26.9035 72.0273 26.9195C72.2353 26.9275 72.4393 26.9315 72.6393 26.9315ZM79.158 24.8075C79.158 24.3435 79.23 23.9115 79.374 23.5115C79.518 23.1035 79.722 22.7515 79.986 22.4555C80.258 22.1595 80.586 21.9275 80.97 21.7595C81.354 21.5915 81.786 21.5075 82.266 21.5075C82.858 21.5075 83.418 21.6155 83.946 21.8315L83.634 23.0195C83.466 22.9475 83.274 22.8875 83.058 22.8395C82.85 22.7915 82.626 22.7675 82.386 22.7675C81.818 22.7675 81.386 22.9475 81.09 23.3075C80.794 23.6595 80.646 24.1595 80.646 24.8075C80.646 25.4315 80.786 25.9275 81.066 26.2955C81.346 26.6555 81.818 26.8355 82.482 26.8355C82.73 26.8355 82.974 26.8115 83.214 26.7635C83.454 26.7155 83.662 26.6555 83.838 26.5835L84.042 27.7835C83.882 27.8635 83.638 27.9355 83.31 27.9995C82.99 28.0635 82.658 28.0955 82.314 28.0955C81.778 28.0955 81.31 28.0155 80.91 27.8555C80.518 27.6875 80.19 27.4595 79.926 27.1715C79.67 26.8755 79.478 26.5275 79.35 26.1275C79.222 25.7195 79.158 25.2795 79.158 24.8075ZM26.144 35.6635V41.9395H24.692V36.8755H22.376V41.9395H20.924V35.6635H26.144ZM33.6664 38.7955C33.6664 39.2915 33.5944 39.7435 33.4504 40.1515C33.3064 40.5595 33.1024 40.9075 32.8384 41.1955C32.5744 41.4835 32.2544 41.7075 31.8784 41.8675C31.5104 42.0275 31.1024 42.1075 30.6544 42.1075C30.2064 42.1075 29.7984 42.0275 29.4304 41.8675C29.0624 41.7075 28.7464 41.4835 28.4824 41.1955C28.2184 40.9075 28.0104 40.5595 27.8584 40.1515C27.7144 39.7435 27.6424 39.2915 27.6424 38.7955C27.6424 38.2995 27.7144 37.8515 27.8584 37.4515C28.0104 37.0435 28.2184 36.6955 28.4824 36.4075C28.7544 36.1195 29.0744 35.8995 29.4424 35.7475C29.8104 35.5875 30.2144 35.5075 30.6544 35.5075C31.0944 35.5075 31.4984 35.5875 31.8664 35.7475C32.2424 35.8995 32.5624 36.1195 32.8264 36.4075C33.0904 36.6955 33.2944 37.0435 33.4384 37.4515C33.5904 37.8515 33.6664 38.2995 33.6664 38.7955ZM32.1784 38.7955C32.1784 38.1715 32.0424 37.6795 31.7704 37.3195C31.5064 36.9515 31.1344 36.7675 30.6544 36.7675C30.1744 36.7675 29.7984 36.9515 29.5264 37.3195C29.2624 37.6795 29.1304 38.1715 29.1304 38.7955C29.1304 39.4275 29.2624 39.9275 29.5264 40.2955C29.7984 40.6635 30.1744 40.8475 30.6544 40.8475C31.1344 40.8475 31.5064 40.6635 31.7704 40.2955C32.0424 39.9275 32.1784 39.4275 32.1784 38.7955ZM36.6263 37.8235C36.6023 38.1595 36.5783 38.5115 36.5543 38.8795C36.5303 39.2395 36.5103 39.5995 36.4943 39.9595C36.4783 40.3195 36.4623 40.6675 36.4463 41.0035C36.4303 41.3395 36.4183 41.6515 36.4103 41.9395H35.0063C35.0223 41.4755 35.0463 40.9755 35.0783 40.4395C35.1103 39.8955 35.1463 39.3475 35.1863 38.7955C35.2343 38.2355 35.2823 37.6875 35.3303 37.1515C35.3783 36.6155 35.4303 36.1195 35.4863 35.6635H36.7463C37.0503 36.1515 37.3583 36.7275 37.6703 37.3915C37.9823 38.0475 38.3303 38.7955 38.7143 39.6355C39.1143 38.7795 39.4783 38.0075 39.8063 37.3195C40.1343 36.6235 40.4263 36.0715 40.6823 35.6635H41.9543C42.0103 36.1195 42.0623 36.6155 42.1103 37.1515C42.1663 37.6875 42.2143 38.2355 42.2543 38.7955C42.2943 39.3475 42.3303 39.8955 42.3623 40.4395C42.3943 40.9755 42.4183 41.4755 42.4343 41.9395H40.9943C40.9783 41.2835 40.9503 40.6075 40.9103 39.9115C40.8783 39.2075 40.8383 38.5115 40.7903 37.8235C40.6703 38.0635 40.5383 38.3315 40.3943 38.6275C40.2583 38.9235 40.1223 39.2235 39.9863 39.5275C39.8503 39.8315 39.7183 40.1275 39.5903 40.4155C39.4623 40.6955 39.3503 40.9435 39.2543 41.1595H38.1743C38.0783 40.9435 37.9623 40.6915 37.8263 40.4035C37.6983 40.1155 37.5663 39.8195 37.4303 39.5155C37.2943 39.2115 37.1543 38.9155 37.0103 38.6275C36.8743 38.3315 36.7463 38.0635 36.6263 37.8235ZM49.8031 38.7955C49.8031 39.2915 49.7311 39.7435 49.5871 40.1515C49.4431 40.5595 49.2391 40.9075 48.9751 41.1955C48.7111 41.4835 48.3911 41.7075 48.0151 41.8675C47.6471 42.0275 47.2391 42.1075 46.7911 42.1075C46.3431 42.1075 45.9351 42.0275 45.5671 41.8675C45.1991 41.7075 44.8831 41.4835 44.6191 41.1955C44.3551 40.9075 44.1471 40.5595 43.9951 40.1515C43.8511 39.7435 43.7791 39.2915 43.7791 38.7955C43.7791 38.2995 43.8511 37.8515 43.9951 37.4515C44.1471 37.0435 44.3551 36.6955 44.6191 36.4075C44.8911 36.1195 45.2111 35.8995 45.5791 35.7475C45.9471 35.5875 46.3511 35.5075 46.7911 35.5075C47.2311 35.5075 47.6351 35.5875 48.0031 35.7475C48.3791 35.8995 48.6991 36.1195 48.9631 36.4075C49.2271 36.6955 49.4311 37.0435 49.5751 37.4515C49.7271 37.8515 49.8031 38.2995 49.8031 38.7955ZM48.3151 38.7955C48.3151 38.1715 48.1791 37.6795 47.9071 37.3195C47.6431 36.9515 47.2711 36.7675 46.7911 36.7675C46.3111 36.7675 45.9351 36.9515 45.6631 37.3195C45.3991 37.6795 45.2671 38.1715 45.2671 38.7955C45.2671 39.4275 45.3991 39.9275 45.6631 40.2955C45.9351 40.6635 46.3111 40.8475 46.7911 40.8475C47.2711 40.8475 47.6431 40.6635 47.9071 40.2955C48.1791 39.9275 48.3151 39.4275 48.3151 38.7955ZM51.299 41.9395V35.6635H52.751V40.7515H54.719V35.6635H56.171V40.7515H58.139V35.6635H59.591V40.7515H60.551V43.7155H59.255V41.9395H51.299ZM63.1455 37.9795C63.2655 37.9475 63.4415 37.9195 63.6735 37.8955C63.9055 37.8715 64.1375 37.8595 64.3695 37.8595C64.7295 37.8595 65.0655 37.8995 65.3775 37.9795C65.6975 38.0595 65.9735 38.1875 66.2055 38.3635C66.4375 38.5315 66.6215 38.7515 66.7575 39.0235C66.8935 39.2875 66.9615 39.6035 66.9615 39.9715C66.9615 40.3475 66.8975 40.6675 66.7695 40.9315C66.6415 41.1955 66.4575 41.4115 66.2175 41.5795C65.9775 41.7475 65.6895 41.8715 65.3535 41.9515C65.0255 42.0315 64.6575 42.0715 64.2495 42.0715C63.7775 42.0715 63.3375 42.0475 62.9295 41.9995C62.5215 41.9515 62.1095 41.8795 61.6935 41.7835V35.6635H63.1455V37.9795ZM64.2135 40.9315C64.6215 40.9315 64.9375 40.8555 65.1615 40.7035C65.3935 40.5435 65.5095 40.2915 65.5095 39.9475C65.5095 39.7715 65.4695 39.6235 65.3895 39.5035C65.3175 39.3835 65.2175 39.2875 65.0895 39.2155C64.9695 39.1355 64.8255 39.0795 64.6575 39.0475C64.4895 39.0155 64.3135 38.9995 64.1295 38.9995C63.9615 38.9995 63.7855 39.0075 63.6015 39.0235C63.4175 39.0315 63.2655 39.0515 63.1455 39.0835V40.8715C63.2495 40.8875 63.4015 40.9035 63.6015 40.9195C63.8095 40.9275 64.0135 40.9315 64.2135 40.9315ZM73.9555 42.1075C73.5715 42.1075 73.2115 42.0435 72.8755 41.9155C72.5475 41.7795 72.2555 41.5915 71.9995 41.3515C71.7435 41.1035 71.5315 40.8075 71.3635 40.4635C71.2035 40.1195 71.0995 39.7355 71.0515 39.3115H69.7315V41.9395H68.2795V35.6635H69.7315V38.1355H71.0755C71.1315 37.7355 71.2435 37.3755 71.4115 37.0555C71.5875 36.7275 71.7995 36.4515 72.0475 36.2275C72.3035 35.9955 72.5915 35.8195 72.9115 35.6995C73.2395 35.5715 73.5875 35.5075 73.9555 35.5075C74.3715 35.5075 74.7595 35.5875 75.1195 35.7475C75.4795 35.8995 75.7915 36.1195 76.0555 36.4075C76.3195 36.6955 76.5235 37.0435 76.6675 37.4515C76.8195 37.8515 76.8955 38.2995 76.8955 38.7955C76.8955 39.2995 76.8195 39.7555 76.6675 40.1635C76.5235 40.5715 76.3195 40.9195 76.0555 41.2075C75.7915 41.4955 75.4795 41.7195 75.1195 41.8795C74.7595 42.0315 74.3715 42.1075 73.9555 42.1075ZM73.9555 36.7675C73.5075 36.7675 73.1515 36.9515 72.8875 37.3195C72.6315 37.6795 72.5035 38.1715 72.5035 38.7955C72.5035 39.4195 72.6315 39.9195 72.8875 40.2955C73.1515 40.6635 73.5075 40.8475 73.9555 40.8475C74.4035 40.8475 74.7555 40.6635 75.0115 40.2955C75.2755 39.9195 75.4075 39.4195 75.4075 38.7955C75.4075 38.1715 75.2755 37.6795 75.0115 37.3195C74.7555 36.9515 74.4035 36.7675 73.9555 36.7675Z" fill="#1843BF"/>
<g clip-path="url(#clip0_4875_8450)">
<path d="M130 28.4327L139.367 17.9992H147.275L137.908 28.4327H130ZM136.007 37.2102L149.706 21.9486C150.714 20.7725 151.839 19.6893 153.066 18.7137C154.504 17.5901 156.188 16.779 157.999 16.3383C160.351 15.7555 162.832 15.8124 165.151 16.5025C167.448 17.1824 169.453 18.5361 170.87 20.365C172.672 22.7622 173.429 25.716 172.987 28.621C172.784 30.0528 172.28 31.4324 171.505 32.6797C170.729 33.9271 169.698 35.0174 168.471 35.8873C167.067 36.8647 165.442 37.5255 163.723 37.8186C162.751 38.0108 161.762 38.1143 160.768 38.1276H156.904L149.906 45.9395H142.024L153.225 33.4443L154.14 32.4207H159.345C161.174 32.4207 163.106 32.4207 164.689 31.4551H164.72C165.462 30.973 166.073 30.3325 166.501 29.586C166.93 28.8395 167.164 28.0082 167.184 27.1603C167.205 26.3124 167.011 25.472 166.619 24.708C166.228 23.9439 165.649 23.2779 164.93 22.7645L164.853 22.7114L164.812 22.6825L164.756 22.6438C163.851 22.0453 162.779 21.7096 161.673 21.6782H161.611C160.897 21.6472 160.181 21.7172 159.489 21.8858C158.521 22.1297 157.621 22.5697 156.853 23.1749C155.918 23.9343 155.058 24.7714 154.284 25.6759L143.874 37.2633L136.007 37.2102Z" fill="#FF6600"/>
<path fill-rule="evenodd" clip-rule="evenodd" d="M234.911 35.6785C233.011 37.7361 229.281 37.2182 226.701 37.2788C224.975 37.2788 222.138 36.621 222.525 34.5261C222.525 34.4095 222.708 33.341 222.713 33.2571H225.883C226.815 33.2571 226.552 33.5183 226.438 34.2835C226.349 35.1793 227.51 35.4966 228.284 35.4826C229.181 35.4826 230.377 35.6039 231.116 35.016C231.271 34.9091 231.395 34.7681 231.478 34.6054C231.587 34.4841 231.815 32.6692 231.86 32.4872V32.4639C231.771 30.7749 228.71 31.3675 227.554 31.2648C226.61 31.2837 225.674 31.1002 224.816 30.7283C224.072 30.3737 223.328 29.6925 223.422 28.862C223.422 28.8294 223.596 27.0611 223.596 27.0331C223.657 26.7536 223.776 26.4882 223.946 26.252C224.117 26.0158 224.335 25.8135 224.588 25.6567C226.498 24.1824 229.638 24.523 231.944 24.495C233.015 24.4619 234.075 24.7142 235 25.2228C235.106 25.2895 235.209 25.3611 235.307 25.4375C235.536 25.6092 235.731 25.8177 235.883 26.0533C236.013 26.2497 236.088 26.4743 236.099 26.7056C236.11 26.9368 236.058 27.1669 235.947 27.3737H232.748C232.073 27.3737 232.252 27.299 231.919 26.8511C231.725 26.6457 231.483 26.4856 231.212 26.3836C230.941 26.2815 230.648 26.2404 230.357 26.2633C229.454 26.2353 228.343 26.2633 227.723 26.9678C227.44 27.1731 227.42 27.8683 227.361 28.1762C227.222 29.044 228.075 29.3006 229.162 29.2819C230.496 29.3099 232.535 29.142 233.785 29.6039L233.933 29.6552C233.933 29.6552 235.248 30.2571 235.61 30.8496C236.106 31.4701 235.412 33.9756 235.382 34.7734C235.312 35.1173 235.15 35.4386 234.911 35.7065V35.6785ZM201.954 30.6583C201.677 30.7572 201.392 30.8336 201.101 30.8869C199.732 31.2228 197.539 30.593 196.949 32.2073C196.949 32.4359 196.612 34.3908 196.686 34.5774C196.885 35.2959 197.817 35.5106 198.522 35.5106C198.78 35.5106 200.253 35.5106 200.506 35.5106C200.843 35.4777 201.171 35.3859 201.473 35.2399C201.662 35.1564 201.831 35.0373 201.969 34.89C202.101 34.7506 202.188 34.5793 202.222 34.3955C202.257 34.1342 202.758 30.4857 202.773 30.369C202.535 30.4017 202.172 30.5603 201.954 30.6303V30.6583ZM207.172 26.9771L205.719 36.9196V37.0735C204.623 37.3156 203.49 37.3803 202.371 37.2648C201.984 37.2135 201.81 37.0922 201.939 36.537C200.375 37.1626 198.673 37.4235 196.979 37.2975C195.995 37.31 195.02 37.1139 194.127 36.7236C193.383 36.3784 192.639 35.7158 192.748 34.8574C192.748 34.8574 193.209 32.058 193.204 32.058C193.221 31.9124 193.252 31.7686 193.298 31.6288C193.325 31.5472 193.358 31.4676 193.398 31.3908C193.439 31.3097 193.487 31.2317 193.541 31.1575C193.583 31.0993 193.628 31.0433 193.675 30.9896C193.91 30.7147 194.189 30.4768 194.504 30.2851C195.071 29.9376 195.696 29.6835 196.354 29.5339C197.49 29.2073 199.861 29.3566 201.056 29.3239C201.65 29.3376 202.231 29.1598 202.703 28.82C202.864 28.7055 202.992 28.5547 203.075 28.3815C203.149 28.1208 203.206 27.8558 203.244 27.5883C203.259 27.456 203.244 27.3222 203.199 27.1958C203.155 27.0695 203.082 26.9535 202.986 26.8558C202.351 26.1653 201.116 26.3426 200.253 26.3239C199.903 26.3222 199.557 26.3823 199.231 26.5012C198.333 26.7765 198.452 27.467 197.554 27.3784H194.305V27.2944C194.318 27.1367 194.346 26.9805 194.39 26.8278C194.627 26.2695 195.059 25.8038 195.615 25.5074C196.756 24.857 198.07 24.5238 199.405 24.5463C200.66 24.5883 203.685 24.4017 204.861 24.7516C205.345 24.8673 205.806 25.0564 206.225 25.3115C206.712 25.5849 207.067 26.0245 207.217 26.5386C207.226 26.6768 207.211 26.8154 207.172 26.9491V26.9771ZM289.851 30.663C289.571 30.757 289.284 30.8333 288.993 30.8916C287.599 31.2228 285.426 30.6116 284.841 32.2166C284.841 32.4452 284.509 34.4001 284.578 34.5821C284.782 35.3053 285.714 35.5152 286.414 35.5152C286.676 35.5152 288.15 35.5152 288.398 35.5152C288.743 35.4863 289.08 35.396 289.39 35.2493C289.577 35.1632 289.745 35.0445 289.886 34.8994C290.018 34.759 290.104 34.5856 290.134 34.4001C290.173 34.1389 290.669 30.495 290.689 30.3737C290.426 30.4017 290.064 30.565 289.851 30.635V30.663ZM295.069 26.9771L293.626 36.8916V37.0502C292.529 37.2896 291.397 37.3543 290.278 37.2415C289.886 37.1902 289.712 37.0689 289.841 36.5137C288.276 37.1365 286.575 37.3957 284.881 37.2695C283.895 37.2831 282.919 37.0886 282.024 36.7003C281.28 36.3504 280.536 35.6925 280.65 34.834L281.106 32.0347C281.126 31.8891 281.159 31.7455 281.205 31.6054C281.23 31.5233 281.263 31.4436 281.304 31.3675C281.347 31.2852 281.395 31.2057 281.448 31.1295L281.582 30.9569C281.822 30.6865 282.1 30.4493 282.411 30.2524C282.98 29.9055 283.607 29.65 284.266 29.4966C285.402 29.1746 287.773 29.3193 288.968 29.2913C289.561 29.2991 290.14 29.1219 290.615 28.7874C290.771 28.6693 290.897 28.5193 290.982 28.3488C291.061 28.0876 291.117 27.8208 291.151 27.551C291.165 27.4183 291.149 27.2843 291.104 27.1579C291.058 27.0316 290.985 26.9158 290.888 26.8185C290.258 26.1326 289.023 26.3053 288.16 26.2866C287.81 26.2856 287.463 26.3474 287.138 26.4686C286.24 26.7392 286.359 27.4297 285.456 27.341H282.212V27.2571C282.227 27.0996 282.255 26.9436 282.296 26.7905C282.532 26.2314 282.965 25.7653 283.522 25.4701C284.662 24.8176 285.976 24.4827 287.311 24.5043C288.561 24.551 291.592 24.3597 292.768 24.7143C293.252 24.8289 293.713 25.0181 294.132 25.2742C294.539 25.5131 294.859 25.863 295.049 26.2773C295.08 26.3493 295.102 26.4245 295.114 26.5012C295.126 26.6518 295.111 26.8032 295.069 26.9491V26.9771ZM186.26 26.2913C185.114 26.2913 183.417 26.184 183.14 27.495L182.093 34.3022C182.078 34.3949 182.078 34.4893 182.093 34.5821C182.125 34.7138 182.185 34.8378 182.27 34.9462C182.356 35.0547 182.464 35.1452 182.589 35.212C182.983 35.4214 183.432 35.5232 183.884 35.5059C184.777 35.5059 185.952 35.6225 186.691 35.0393C186.846 34.9325 186.97 34.7915 187.053 34.6288C187.093 34.5432 187.123 34.4541 187.143 34.3628L188.189 27.537V27.4857C188.279 26.5012 187.043 26.2633 186.26 26.2633V26.2913ZM188.928 24.5603C189.595 24.6321 190.242 24.8171 190.838 25.1062C191.035 25.2075 191.223 25.3246 191.399 25.4561C191.55 25.5713 191.687 25.7028 191.805 25.848C191.968 26.0407 192.081 26.2657 192.138 26.5059C192.296 26.6505 190.972 34.7594 190.932 35.0207C190.893 35.1379 190.843 35.2519 190.784 35.3613C190.144 36.3737 189.018 36.8029 187.872 37.0922C186.156 37.4561 183.269 37.4841 181.8 36.551C181.8 36.7096 181.165 40.6101 181.126 40.876C180.767 41.0511 180.371 41.1509 179.967 41.1686C179.563 41.1863 179.16 41.1215 178.785 40.9787C177.644 40.5121 177.42 39.5277 177.579 38.3333L179.623 24.8543V24.7003C180.511 24.5713 181.408 24.5074 182.306 24.509C182.956 24.5417 183.581 24.509 183.472 25.3208C185.134 24.4157 187.093 24.3877 188.928 24.5323V24.5603ZM274.102 26.2959C272.956 26.2959 271.265 26.1886 270.982 27.4997L269.935 34.3115C269.923 34.4029 269.923 34.4954 269.935 34.5868C269.967 34.7188 270.028 34.8433 270.113 34.9525C270.199 35.0616 270.307 35.1531 270.431 35.2213C270.827 35.4268 271.275 35.5269 271.726 35.5106C272.619 35.5106 273.799 35.6319 274.534 35.044C274.688 34.9354 274.813 34.7928 274.896 34.6288C274.938 34.5443 274.968 34.4548 274.985 34.3628L276.032 27.537V27.4857C276.121 26.5059 274.891 26.2679 274.102 26.2679V26.2959ZM276.771 24.565C277.438 24.6364 278.085 24.8231 278.68 25.1155C278.877 25.2153 279.065 25.3308 279.241 25.4608C279.394 25.5764 279.53 25.7097 279.648 25.8574C279.809 26.0506 279.923 26.2754 279.98 26.5152C280.139 26.6599 278.814 34.7687 278.775 35.0347C278.737 35.1512 278.688 35.2637 278.626 35.3706C277.986 36.383 276.865 36.8123 275.714 37.1015C274.721 37.2938 273.705 37.3628 272.693 37.3068C271.622 37.3329 270.565 37.0742 269.643 36.5603C269.618 36.7143 269.008 40.6148 268.968 40.8854C268.608 41.0592 268.213 41.1584 267.809 41.1761C267.405 41.1938 267.002 41.1297 266.627 40.988C265.486 40.5214 265.263 39.5417 265.421 38.3426L267.465 24.8683L267.49 24.7143C268.378 24.5837 269.275 24.5182 270.173 24.5183C270.823 24.551 271.448 24.5183 271.339 25.3348C272.976 24.4204 274.935 24.397 276.761 24.537L276.771 24.565ZM299.181 37.2368C298.283 37.1559 297.426 36.8462 296.701 36.341C296.549 36.2271 296.412 36.0954 296.294 35.9491C296.132 35.7564 296.018 35.5315 295.962 35.2913C295.769 35.3939 296.895 28.6754 296.88 28.5634C297.029 27.5697 297.311 25.7361 297.46 24.7376C298.101 24.5932 298.761 24.5382 299.419 24.5743C299.642 24.5838 299.862 24.6215 300.074 24.6863C300.163 24.7148 300.249 24.7491 300.332 24.7889C300.477 24.8643 300.607 24.9639 300.714 25.0829C300.77 25.1435 300.82 25.2091 300.863 25.2788C301.083 25.69 301.141 26.161 301.027 26.6085C300.724 29.1606 300.302 31.6987 299.915 34.2368C300.035 35.8651 302.822 35.6365 303.983 35.3053C304.294 35.2013 304.571 35.0228 304.787 34.7874C304.911 34.6404 304.985 34.4615 305 34.2742C305.456 31.3068 306.017 27.691 306.463 24.7563C307.104 24.6116 307.764 24.5566 308.422 24.593C308.634 24.6083 308.842 24.6491 309.042 24.7143C309.131 24.7428 309.217 24.7771 309.3 24.8169C309.446 24.8923 309.575 24.9919 309.682 25.1109C309.738 25.1723 309.787 25.2378 309.831 25.3068C310.043 25.7271 310.097 26.2023 309.985 26.6552L308.794 35.002C308.665 36.3061 308.313 37.582 307.753 38.7812C307.019 40.0596 305.461 40.6474 304.023 40.9227C302.921 41.1746 301.384 41.058 300.253 41.0393C299.658 41.002 298.169 41.0393 297.599 40.9227C297.455 40.8994 297.321 40.876 297.202 40.848C296.573 40.7513 296.007 40.4301 295.623 39.9514C295.239 39.4727 295.065 38.8731 295.139 38.2773L298.477 38.3006C299.231 38.3006 298.799 38.5152 299.092 38.9211C299.876 39.6116 301.572 39.2757 302.505 39.1171C303.75 38.8745 304.489 37.6148 304.648 36.4484C304.06 36.7421 303.435 36.9647 302.788 37.1109C301.596 37.2981 300.383 37.3311 299.181 37.2088V37.2368ZM261.483 24.579C261.771 24.6112 262.057 24.6642 262.336 24.7376C262.639 24.8142 262.935 24.9157 263.219 25.0409C263.369 25.1069 263.513 25.1833 263.651 25.2695C263.757 25.3354 263.86 25.407 263.958 25.4841L264.028 25.5401C264.147 25.6525 264.259 25.7709 264.365 25.8947C264.424 25.9647 264.474 26.044 264.524 26.114C264.568 26.1858 264.606 26.2607 264.638 26.3379C264.668 26.4121 264.691 26.4886 264.707 26.5665C264.725 26.6433 264.735 26.7214 264.737 26.7998C264.266 30.3317 263.656 33.8496 263.14 37.3721C263.016 37.4095 262.877 37.4515 262.768 37.4748C262.34 37.5764 261.895 37.597 261.458 37.5354C261.291 37.5094 261.125 37.4736 260.962 37.4281C260.726 37.3509 260.504 37.2374 260.307 37.0922C260.157 36.9786 260.025 36.845 259.915 36.6956C259.859 36.6203 259.809 36.5407 259.767 36.4577C259.589 36.0782 259.537 35.657 259.618 35.2493C260.001 32.7112 260.388 30.1731 260.779 27.635C260.776 27.6258 260.776 27.6162 260.779 27.607C260.789 27.5201 260.789 27.4325 260.779 27.3457C260.735 27.1714 260.645 27.0106 260.516 26.8791C260.376 26.7342 260.208 26.6168 260.02 26.5339C259.912 26.4839 259.799 26.4448 259.682 26.4172C259.217 26.3239 258.738 26.3144 258.269 26.3892C258.037 26.431 257.811 26.4951 257.594 26.5805C257.315 26.6901 257.073 26.8692 256.895 27.0984C256.111 30.4297 255.863 33.9289 255.273 37.3208H251.399C251.895 34.0922 252.361 30.8683 252.857 27.6443C252.869 27.556 252.869 27.4666 252.857 27.3784C252.841 27.2912 252.813 27.2065 252.773 27.1264C252.683 26.9596 252.55 26.8167 252.386 26.7112C252.303 26.6523 252.213 26.6022 252.118 26.5619C251.797 26.4265 251.448 26.3596 251.096 26.3659C250.722 26.3234 250.343 26.36 249.986 26.473C249.629 26.586 249.303 26.7726 249.033 27.0191C248.165 30.3317 248.04 33.8823 247.406 37.2835H243.408C244.049 33.0938 244.687 28.9056 245.322 24.719C246.336 24.6024 247.359 24.5743 248.378 24.635C248.839 24.677 249.206 24.8123 249.33 25.2742C249.651 25.1174 249.983 24.9803 250.322 24.8636C250.562 24.7842 250.808 24.7187 251.056 24.6676C251.945 24.4852 252.861 24.4583 253.76 24.5883C253.923 24.6116 254.092 24.6443 254.256 24.6816C254.419 24.719 254.578 24.7703 254.727 24.8216C254.876 24.8729 255.025 24.9289 255.159 24.9849C255.616 25.1827 256.032 25.4579 256.384 25.7967C257.136 25.2355 258.018 24.8488 258.958 24.6676C259.488 24.5604 260.028 24.5072 260.57 24.509C260.88 24.5036 261.19 24.5176 261.498 24.551L261.483 24.579ZM239.563 24.579C240.054 24.4933 240.554 24.4666 241.051 24.4997C241.262 24.5175 241.47 24.5582 241.671 24.621C241.761 24.649 241.847 24.6849 241.929 24.7283C242.075 24.8006 242.205 24.8988 242.311 25.0176C242.366 25.079 242.416 25.1445 242.46 25.2135C242.504 25.287 242.542 25.3634 242.574 25.4421C242.946 26.3333 241.984 30.4857 241.934 31.4841L241.111 37.1062L241.081 37.2835H237.182L237.217 37.0502L238.169 30.747L239.072 24.8076V24.663L239.563 24.579ZM220.218 35.7065C218.313 37.7687 214.588 37.2462 212.004 37.3068C210.283 37.3068 207.44 36.6536 207.832 34.5541C207.832 34.4375 208.011 33.369 208.016 33.285H211.185C212.118 33.285 211.855 33.5463 211.746 34.3068C211.652 35.2073 212.817 35.5246 213.591 35.5106C214.484 35.5106 215.679 35.6319 216.423 35.044C216.575 34.9344 216.699 34.7941 216.786 34.6334C216.895 34.5121 217.123 32.6972 217.167 32.5152V32.4919C217.058 30.7936 214.028 31.4001 212.857 31.2928C211.913 31.3116 210.976 31.1282 210.119 30.7563C209.375 30.397 208.631 29.7158 208.73 28.89C208.73 28.8574 208.899 27.0938 208.899 27.0611C208.96 26.7816 209.079 26.5161 209.249 26.28C209.419 26.0438 209.637 25.8415 209.891 25.6847C211.088 24.8971 212.522 24.4901 213.983 24.523C215.833 24.5883 218.695 24.2057 220.302 25.2555C220.412 25.3208 220.521 25.3955 220.615 25.4655C220.843 25.6382 221.037 25.8484 221.185 26.086C221.315 26.2816 221.39 26.5051 221.402 26.7354C221.414 26.9656 221.363 27.195 221.255 27.4017H218.055C217.381 27.4017 217.535 27.327 217.227 26.8791C217.032 26.6739 216.789 26.514 216.517 26.412C216.245 26.31 215.951 26.2687 215.66 26.2913C214.762 26.2633 213.646 26.2913 213.031 26.9958C212.748 27.2057 212.728 27.8962 212.668 28.2042C212.53 29.072 213.383 29.3286 214.469 29.3099C215.803 29.3379 217.842 29.17 219.097 29.6319L219.241 29.6832C219.928 29.8985 220.518 30.3239 220.917 30.8916C221.414 31.5121 220.714 34.0129 220.684 34.8107C220.605 35.1303 220.443 35.4266 220.213 35.6739L220.218 35.7065Z" fill="#000099"/>
<path fill-rule="evenodd" clip-rule="evenodd" d="M243.144 22.7638H239.275L239.662 20.207H243.521L243.144 22.7638Z" fill="#FF6600"/>
</g>
<rect x="1" y="1.93945" width="328" height="58" rx="9" stroke="#1843BF" stroke-width="2"/>
<defs>
<clipPath id="clip0_4875_8450">
<rect width="180" height="30" fill="white" transform="translate(130 15.9395)"/>
</clipPath>
</defs>
</svg>
