<svg width="330" height="131" viewBox="0 0 330 131" fill="none" xmlns="http://www.w3.org/2000/svg">
<rect x="1" y="1.93945" width="328" height="128" rx="9" fill="#1843BF"/>
<path d="M34 61.2602L51.3827 41.7843H66.0574L48.6747 61.2602H34ZM45.1467 77.6449L70.5676 49.1565C72.4387 46.9611 74.5268 44.9392 76.8037 43.1181C79.472 41.0207 82.5978 39.5065 85.9575 38.684C90.3232 37.596 94.9261 37.7023 99.2305 38.9904C103.493 40.2597 107.212 42.7866 109.843 46.2004C113.186 50.6753 114.591 56.189 113.772 61.6117C113.394 64.2844 112.459 66.8596 111.02 69.188C109.581 71.5164 107.668 73.5515 105.39 75.1755C102.785 76.9999 99.7702 78.2334 96.5797 78.7805C94.7761 79.1392 92.9399 79.3324 91.097 79.3573H83.9265L70.9395 93.9395H56.3124L77.0992 70.6152L78.7965 68.7045H88.4557C91.8503 68.7045 95.4355 68.7045 98.3723 66.902H98.4296C99.8076 66.0021 100.94 64.8064 101.735 63.4129C102.53 62.0194 102.965 60.4678 103.003 58.8851C103.041 57.3023 102.682 55.7336 101.955 54.3073C101.228 52.8811 100.154 51.6379 98.8205 50.6796L98.6775 50.5805L98.6012 50.5264L98.4963 50.4543C96.8171 49.3371 94.8278 48.7103 92.7752 48.6518H92.6607C91.3349 48.5939 90.0074 48.7245 88.7227 49.0393C86.926 49.4945 85.2564 50.3159 83.8311 51.4457C82.0967 52.8632 80.501 54.4257 79.0635 56.1141L59.7451 77.744L45.1467 77.6449Z" fill="white"/>
<path d="M126.976 50.4348C126.976 51.0428 127.051 51.5975 127.2 52.0988C127.349 52.5895 127.563 53.0108 127.84 53.3628C128.128 53.7041 128.475 53.9708 128.88 54.1628C129.285 54.3548 129.744 54.4508 130.256 54.4508C130.757 54.4508 131.211 54.3548 131.616 54.1628C132.021 53.9708 132.363 53.7041 132.64 53.3628C132.928 53.0108 133.147 52.5895 133.296 52.0988C133.445 51.5975 133.52 51.0428 133.52 50.4348C133.52 49.8268 133.445 49.2775 133.296 48.7868C133.147 48.2855 132.928 47.8641 132.64 47.5228C132.363 47.1708 132.021 46.8988 131.616 46.7068C131.211 46.5148 130.757 46.4188 130.256 46.4188C129.744 46.4188 129.285 46.5148 128.88 46.7068C128.475 46.8988 128.128 47.1708 127.84 47.5228C127.563 47.8748 127.349 48.2961 127.2 48.7868C127.051 49.2775 126.976 49.8268 126.976 50.4348ZM135.632 50.4348C135.632 51.3841 135.488 52.2215 135.2 52.9468C134.923 53.6721 134.539 54.2801 134.048 54.7708C133.568 55.2508 133.003 55.6135 132.352 55.8588C131.701 56.1041 131.008 56.2268 130.272 56.2268C129.536 56.2268 128.837 56.1041 128.176 55.8588C127.525 55.6135 126.955 55.2508 126.464 54.7708C125.984 54.2801 125.6 53.6721 125.312 52.9468C125.024 52.2215 124.88 51.3841 124.88 50.4348C124.88 49.4855 125.024 48.6535 125.312 47.9388C125.6 47.2135 125.989 46.6055 126.48 46.1148C126.981 45.6241 127.557 45.2561 128.208 45.0108C128.859 44.7655 129.547 44.6428 130.272 44.6428C130.997 44.6428 131.685 44.7655 132.336 45.0108C132.987 45.2561 133.552 45.6241 134.032 46.1148C134.523 46.6055 134.912 47.2135 135.2 47.9388C135.488 48.6535 135.632 49.4855 135.632 50.4348ZM145.028 47.6188V55.9868H143.092V49.2348H140.004V55.9868H138.068V47.6188H145.028ZM151.089 49.2188C151.079 49.6881 151.063 50.1788 151.041 50.6908C151.02 51.1921 150.967 51.6881 150.881 52.1788C150.807 52.6695 150.684 53.1388 150.513 53.5868C150.343 54.0348 150.103 54.4401 149.793 54.8028C149.495 55.1548 149.116 55.4535 148.657 55.6988C148.209 55.9335 147.66 56.0828 147.009 56.1468L146.737 54.5308C147.281 54.4241 147.703 54.2535 148.001 54.0188C148.3 53.7735 148.529 53.4641 148.689 53.0908C148.817 52.8135 148.913 52.4988 148.977 52.1468C149.052 51.7948 149.105 51.4268 149.137 51.0428C149.18 50.6481 149.207 50.2481 149.217 49.8428C149.228 49.4375 149.233 49.0428 149.233 48.6588V47.6188H155.153V55.9868H153.217V49.2188H151.089ZM160.886 54.6268C161.483 54.6268 161.937 54.5948 162.246 54.5308V52.3868C162.139 52.3548 161.985 52.3228 161.782 52.2908C161.579 52.2588 161.355 52.2428 161.11 52.2428C160.897 52.2428 160.678 52.2588 160.454 52.2908C160.241 52.3228 160.043 52.3815 159.862 52.4668C159.691 52.5521 159.553 52.6748 159.446 52.8348C159.339 52.9841 159.286 53.1761 159.286 53.4108C159.286 53.8695 159.43 54.1895 159.718 54.3708C160.006 54.5415 160.395 54.6268 160.886 54.6268ZM160.726 47.4108C161.366 47.4108 161.905 47.4908 162.342 47.6508C162.779 47.8108 163.126 48.0348 163.382 48.3228C163.649 48.6108 163.835 48.9628 163.942 49.3788C164.059 49.7841 164.118 50.2321 164.118 50.7228V55.7948C163.819 55.8588 163.366 55.9335 162.758 56.0188C162.161 56.1148 161.483 56.1628 160.726 56.1628C160.225 56.1628 159.766 56.1148 159.35 56.0188C158.934 55.9228 158.577 55.7681 158.278 55.5548C157.99 55.3415 157.761 55.0641 157.59 54.7228C157.43 54.3815 157.35 53.9601 157.35 53.4588C157.35 52.9788 157.441 52.5735 157.622 52.2428C157.814 51.9121 158.07 51.6455 158.39 51.4428C158.71 51.2295 159.078 51.0801 159.494 50.9948C159.921 50.8988 160.363 50.8508 160.822 50.8508C161.035 50.8508 161.259 50.8668 161.494 50.8988C161.729 50.9201 161.979 50.9628 162.246 51.0268V50.7068C162.246 50.4828 162.219 50.2695 162.166 50.0668C162.113 49.8641 162.017 49.6881 161.878 49.5388C161.75 49.3788 161.574 49.2561 161.35 49.1708C161.137 49.0855 160.865 49.0428 160.534 49.0428C160.086 49.0428 159.675 49.0748 159.302 49.1388C158.929 49.2028 158.625 49.2775 158.39 49.3628L158.15 47.7948C158.395 47.7095 158.753 47.6241 159.222 47.5388C159.691 47.4535 160.193 47.4108 160.726 47.4108ZM173.113 49.2348H170.409V55.9868H168.473V49.2348H165.785V47.6188H173.113V49.2348ZM182.207 47.6188V55.9868H180.287C180.287 55.3788 180.287 54.7761 180.287 54.1788C180.298 53.5815 180.303 53.0268 180.303 52.5148C180.314 52.0028 180.319 51.5601 180.319 51.1868C180.33 50.8028 180.335 50.5201 180.335 50.3388C180.015 50.7548 179.684 51.2135 179.343 51.7148C179.002 52.2161 178.66 52.7175 178.319 53.2188C177.988 53.7201 177.674 54.2108 177.375 54.6908C177.076 55.1708 176.815 55.6028 176.591 55.9868H174.879V47.6188H176.783C176.783 48.2375 176.778 48.8295 176.767 49.3948C176.767 49.9495 176.767 50.4561 176.767 50.9148C176.767 51.3735 176.762 51.7735 176.751 52.1148C176.751 52.4561 176.751 52.7175 176.751 52.8988C177.05 52.4401 177.359 51.9708 177.679 51.4908C177.999 51.0001 178.319 50.5255 178.639 50.0668C178.97 49.5975 179.295 49.1548 179.615 48.7388C179.935 48.3228 180.244 47.9495 180.543 47.6188H182.207ZM191.3 49.2348H188.596V55.9868H186.66V49.2348H183.972V47.6188H191.3V49.2348ZM195.002 50.7068C195.162 50.6641 195.396 50.6268 195.706 50.5948C196.015 50.5628 196.324 50.5468 196.634 50.5468C197.114 50.5468 197.562 50.6001 197.978 50.7068C198.404 50.8135 198.772 50.9841 199.082 51.2188C199.391 51.4428 199.636 51.7361 199.818 52.0988C199.999 52.4508 200.09 52.8721 200.09 53.3628C200.09 53.8641 200.004 54.2908 199.834 54.6428C199.663 54.9948 199.418 55.2828 199.098 55.5068C198.778 55.7308 198.394 55.8961 197.946 56.0028C197.508 56.1095 197.018 56.1628 196.474 56.1628C195.844 56.1628 195.258 56.1308 194.714 56.0668C194.17 56.0028 193.62 55.9068 193.066 55.7788V47.6188H195.002V50.7068ZM196.426 54.6428C196.97 54.6428 197.391 54.5415 197.69 54.3388C197.999 54.1255 198.154 53.7895 198.154 53.3308C198.154 53.0961 198.1 52.8988 197.994 52.7388C197.898 52.5788 197.764 52.4508 197.594 52.3548C197.434 52.2481 197.242 52.1735 197.018 52.1308C196.794 52.0881 196.559 52.0668 196.314 52.0668C196.09 52.0668 195.855 52.0775 195.61 52.0988C195.364 52.1095 195.162 52.1361 195.002 52.1788V54.5628C195.14 54.5841 195.343 54.6055 195.61 54.6268C195.887 54.6375 196.159 54.6428 196.426 54.6428ZM205.757 51.8108C205.757 51.1921 205.853 50.6161 206.045 50.0828C206.237 49.5388 206.509 49.0695 206.861 48.6748C207.224 48.2801 207.661 47.9708 208.173 47.7468C208.685 47.5228 209.261 47.4108 209.901 47.4108C210.691 47.4108 211.437 47.5548 212.141 47.8428L211.725 49.4268C211.501 49.3308 211.245 49.2508 210.957 49.1868C210.68 49.1228 210.381 49.0908 210.061 49.0908C209.304 49.0908 208.728 49.3308 208.333 49.8108C207.939 50.2801 207.741 50.9468 207.741 51.8108C207.741 52.6428 207.928 53.3041 208.301 53.7948C208.675 54.2748 209.304 54.5148 210.189 54.5148C210.52 54.5148 210.845 54.4828 211.165 54.4188C211.485 54.3548 211.763 54.2748 211.997 54.1788L212.269 55.7788C212.056 55.8855 211.731 55.9815 211.293 56.0668C210.867 56.1521 210.424 56.1948 209.965 56.1948C209.251 56.1948 208.627 56.0881 208.093 55.8748C207.571 55.6508 207.133 55.3468 206.781 54.9628C206.44 54.5681 206.184 54.1041 206.013 53.5708C205.843 53.0268 205.757 52.4401 205.757 51.8108ZM225.103 47.6188V55.9868H223.167V49.2348H220.079V55.9868H218.143V47.6188H225.103ZM235.452 51.7948C235.452 52.4561 235.356 53.0588 235.164 53.6028C234.972 54.1468 234.7 54.6108 234.348 54.9948C233.996 55.3788 233.57 55.6775 233.068 55.8908C232.578 56.1041 232.034 56.2108 231.436 56.2108C230.839 56.2108 230.295 56.1041 229.804 55.8908C229.314 55.6775 228.892 55.3788 228.54 54.9948C228.188 54.6108 227.911 54.1468 227.708 53.6028C227.516 53.0588 227.42 52.4561 227.42 51.7948C227.42 51.1335 227.516 50.5361 227.708 50.0028C227.911 49.4588 228.188 48.9948 228.54 48.6108C228.903 48.2268 229.33 47.9335 229.82 47.7308C230.311 47.5175 230.85 47.4108 231.436 47.4108C232.023 47.4108 232.562 47.5175 233.052 47.7308C233.554 47.9335 233.98 48.2268 234.332 48.6108C234.684 48.9948 234.956 49.4588 235.148 50.0028C235.351 50.5361 235.452 51.1335 235.452 51.7948ZM233.468 51.7948C233.468 50.9628 233.287 50.3068 232.924 49.8268C232.572 49.3361 232.076 49.0908 231.436 49.0908C230.796 49.0908 230.295 49.3361 229.932 49.8268C229.58 50.3068 229.404 50.9628 229.404 51.7948C229.404 52.6375 229.58 53.3041 229.932 53.7948C230.295 54.2855 230.796 54.5308 231.436 54.5308C232.076 54.5308 232.572 54.2855 232.924 53.7948C233.287 53.3041 233.468 52.6375 233.468 51.7948ZM239.719 50.4988C239.687 50.9468 239.655 51.4161 239.623 51.9068C239.591 52.3868 239.564 52.8668 239.543 53.3468C239.522 53.8268 239.5 54.2908 239.479 54.7388C239.458 55.1868 239.442 55.6028 239.431 55.9868H237.559C237.58 55.3681 237.612 54.7015 237.655 53.9868C237.698 53.2615 237.746 52.5308 237.799 51.7948C237.863 51.0481 237.927 50.3175 237.991 49.6028C238.055 48.8881 238.124 48.2268 238.199 47.6188H239.879C240.284 48.2695 240.695 49.0375 241.111 49.9228C241.527 50.7975 241.991 51.7948 242.503 52.9148C243.036 51.7735 243.522 50.7441 243.959 49.8268C244.396 48.8988 244.786 48.1628 245.127 47.6188H246.823C246.898 48.2268 246.967 48.8881 247.031 49.6028C247.106 50.3175 247.17 51.0481 247.223 51.7948C247.276 52.5308 247.324 53.2615 247.367 53.9868C247.41 54.7015 247.442 55.3681 247.463 55.9868H245.543C245.522 55.1121 245.484 54.2108 245.431 53.2828C245.388 52.3441 245.335 51.4161 245.271 50.4988C245.111 50.8188 244.935 51.1761 244.743 51.5708C244.562 51.9655 244.38 52.3655 244.199 52.7708C244.018 53.1761 243.842 53.5708 243.671 53.9548C243.5 54.3281 243.351 54.6588 243.223 54.9468H241.783C241.655 54.6588 241.5 54.3228 241.319 53.9388C241.148 53.5548 240.972 53.1601 240.791 52.7548C240.61 52.3495 240.423 51.9548 240.231 51.5708C240.05 51.1761 239.879 50.8188 239.719 50.4988ZM257.608 51.7948C257.608 52.4561 257.512 53.0588 257.32 53.6028C257.128 54.1468 256.856 54.6108 256.504 54.9948C256.152 55.3788 255.725 55.6775 255.224 55.8908C254.733 56.1041 254.189 56.2108 253.592 56.2108C252.995 56.2108 252.451 56.1041 251.96 55.8908C251.469 55.6775 251.048 55.3788 250.696 54.9948C250.344 54.6108 250.067 54.1468 249.864 53.6028C249.672 53.0588 249.576 52.4561 249.576 51.7948C249.576 51.1335 249.672 50.5361 249.864 50.0028C250.067 49.4588 250.344 48.9948 250.696 48.6108C251.059 48.2268 251.485 47.9335 251.976 47.7308C252.467 47.5175 253.005 47.4108 253.592 47.4108C254.179 47.4108 254.717 47.5175 255.208 47.7308C255.709 47.9335 256.136 48.2268 256.488 48.6108C256.84 48.9948 257.112 49.4588 257.304 50.0028C257.507 50.5361 257.608 51.1335 257.608 51.7948ZM255.624 51.7948C255.624 50.9628 255.443 50.3068 255.08 49.8268C254.728 49.3361 254.232 49.0908 253.592 49.0908C252.952 49.0908 252.451 49.3361 252.088 49.8268C251.736 50.3068 251.56 50.9628 251.56 51.7948C251.56 52.6375 251.736 53.3041 252.088 53.7948C252.451 54.2855 252.952 54.5308 253.592 54.5308C254.232 54.5308 254.728 54.2855 255.08 53.7948C255.443 53.3041 255.624 52.6375 255.624 51.7948ZM259.923 55.9868V47.6188H261.859V54.4028H264.483V47.6188H266.419V54.4028H269.043V47.6188H270.979V54.4028H272.259V58.3548H270.531V55.9868H259.923ZM276.038 50.7068C276.198 50.6641 276.433 50.6268 276.742 50.5948C277.051 50.5628 277.361 50.5468 277.67 50.5468C278.15 50.5468 278.598 50.6001 279.014 50.7068C279.441 50.8135 279.809 50.9841 280.118 51.2188C280.427 51.4428 280.673 51.7361 280.854 52.0988C281.035 52.4508 281.126 52.8721 281.126 53.3628C281.126 53.8641 281.041 54.2908 280.87 54.6428C280.699 54.9948 280.454 55.2828 280.134 55.5068C279.814 55.7308 279.43 55.8961 278.982 56.0028C278.545 56.1095 278.054 56.1628 277.51 56.1628C276.881 56.1628 276.294 56.1308 275.75 56.0668C275.206 56.0028 274.657 55.9068 274.102 55.7788V47.6188H276.038V50.7068ZM277.462 54.6428C278.006 54.6428 278.427 54.5415 278.726 54.3388C279.035 54.1255 279.19 53.7895 279.19 53.3308C279.19 53.0961 279.137 52.8988 279.03 52.7388C278.934 52.5788 278.801 52.4508 278.63 52.3548C278.47 52.2481 278.278 52.1735 278.054 52.1308C277.83 52.0881 277.595 52.0668 277.35 52.0668C277.126 52.0668 276.891 52.0775 276.646 52.0988C276.401 52.1095 276.198 52.1361 276.038 52.1788V54.5628C276.177 54.5841 276.379 54.6055 276.646 54.6268C276.923 54.6375 277.195 54.6428 277.462 54.6428ZM290.771 56.2108C290.259 56.2108 289.779 56.1255 289.331 55.9548C288.894 55.7735 288.505 55.5228 288.163 55.2028C287.822 54.8721 287.539 54.4775 287.315 54.0188C287.102 53.5601 286.963 53.0481 286.899 52.4828H285.139V55.9868H283.203V47.6188H285.139V50.9148H286.931C287.006 50.3815 287.155 49.9015 287.379 49.4748C287.614 49.0375 287.897 48.6695 288.227 48.3708C288.569 48.0615 288.953 47.8268 289.379 47.6668C289.817 47.4961 290.281 47.4108 290.771 47.4108C291.326 47.4108 291.843 47.5175 292.323 47.7308C292.803 47.9335 293.219 48.2268 293.571 48.6108C293.923 48.9948 294.195 49.4588 294.387 50.0028C294.59 50.5361 294.691 51.1335 294.691 51.7948C294.691 52.4668 294.59 53.0748 294.387 53.6188C294.195 54.1628 293.923 54.6268 293.571 55.0108C293.219 55.3948 292.803 55.6935 292.323 55.9068C291.843 56.1095 291.326 56.2108 290.771 56.2108ZM290.771 49.0908C290.174 49.0908 289.699 49.3361 289.347 49.8268C289.006 50.3068 288.835 50.9628 288.835 51.7948C288.835 52.6268 289.006 53.2935 289.347 53.7948C289.699 54.2855 290.174 54.5308 290.771 54.5308C291.369 54.5308 291.838 54.2855 292.179 53.7948C292.531 53.2935 292.707 52.6268 292.707 51.7948C292.707 50.9628 292.531 50.3068 292.179 49.8268C291.838 49.3361 291.369 49.0908 290.771 49.0908Z" fill="white"/>
<path fill-rule="evenodd" clip-rule="evenodd" d="M197.611 83.8356C195.174 86.4753 190.388 85.8109 187.079 85.8887C184.864 85.8887 181.224 85.0447 181.721 82.3572C181.721 82.2075 181.956 80.8368 181.963 80.729H186.029C187.225 80.729 186.888 81.0642 186.742 82.0459C186.627 83.1952 188.116 83.6022 189.109 83.5842C190.261 83.5842 191.795 83.7399 192.743 82.9857C192.941 82.8486 193.101 82.6677 193.207 82.4589V82.4589C193.347 82.3033 193.64 79.9748 193.697 79.7414V79.7115C193.583 77.5446 189.656 78.3048 188.174 78.1731C186.962 78.1973 185.761 77.9619 184.661 77.4848V77.4848C183.706 77.0299 182.752 76.1559 182.873 75.0905C182.873 75.0486 183.095 72.78 183.095 72.7441C183.174 72.3855 183.326 72.0449 183.545 71.7419C183.763 71.4389 184.043 71.1794 184.368 70.9783V70.9783C186.818 69.0868 190.846 69.5238 193.806 69.4878C195.18 69.4453 196.539 69.769 197.726 70.4216V70.4216C197.862 70.5071 197.994 70.599 198.12 70.697V70.697C198.414 70.9173 198.664 71.1848 198.858 71.4871V71.4871C199.026 71.739 199.121 72.0272 199.136 72.3239C199.15 72.6206 199.083 72.9158 198.941 73.181H194.836C193.971 73.181 194.2 73.0853 193.774 72.5106C193.525 72.2471 193.214 72.0417 192.866 71.9108C192.518 71.7799 192.143 71.727 191.769 71.7564C190.611 71.7205 189.185 71.7564 188.39 72.6603C188.027 72.9237 188.002 73.8155 187.925 74.2106C187.747 75.3239 188.842 75.6532 190.235 75.6292C191.947 75.6651 194.563 75.4496 196.166 76.0422L196.357 76.1081C196.357 76.1081 198.044 76.8802 198.508 77.6404C199.145 78.4365 198.254 81.6508 198.216 82.6744C198.126 83.1156 197.918 83.5278 197.611 83.8715V83.8356ZM155.33 77.395C154.975 77.5218 154.609 77.62 154.235 77.6883V77.6883C152.479 78.1193 149.666 77.3112 148.909 79.3823C148.909 79.6756 148.476 82.1836 148.572 82.423C148.826 83.3448 150.023 83.6201 150.926 83.6201C151.257 83.6201 153.147 83.6201 153.472 83.6201C153.905 83.578 154.326 83.4603 154.713 83.273C154.955 83.1658 155.172 83.013 155.349 82.824V82.824C155.518 82.6452 155.631 82.4254 155.674 82.1896C155.718 81.8544 156.361 77.1735 156.38 77.0239C156.075 77.0658 155.61 77.2693 155.33 77.3591V77.395ZM162.025 72.6723L160.16 85.4278V85.6254C158.753 85.9359 157.301 86.0189 155.865 85.8708C155.368 85.8049 155.145 85.6493 155.311 84.937C153.304 85.7396 151.121 86.0744 148.947 85.9127C147.684 85.9288 146.433 85.6771 145.288 85.1764V85.1764C144.333 84.7335 143.379 83.8835 143.519 82.7821C143.519 82.7821 144.111 79.1907 144.104 79.1907C144.126 79.0039 144.166 78.8195 144.225 78.64V78.64C144.259 78.5354 144.302 78.4333 144.352 78.3347V78.3347C144.406 78.2307 144.467 78.1306 144.537 78.0355V78.0355C144.59 77.9608 144.648 77.8889 144.709 77.82C145.01 77.4673 145.368 77.1622 145.772 76.9161V76.9161C146.499 76.4703 147.302 76.1444 148.145 75.9524C149.603 75.5334 152.645 75.725 154.178 75.6831C154.94 75.7006 155.686 75.4725 156.291 75.0366V75.0366C156.498 74.8896 156.662 74.6962 156.768 74.474V74.474C156.864 74.1395 156.936 73.7996 156.985 73.4564V73.4564C157.004 73.2866 156.984 73.1149 156.927 72.9528C156.87 72.7907 156.777 72.642 156.654 72.5166C155.839 71.6307 154.255 71.8582 153.147 71.8343C152.699 71.832 152.254 71.9091 151.836 72.0617V72.0617C150.684 72.4149 150.837 73.3008 149.685 73.187H145.517V73.0793C145.533 72.877 145.569 72.6766 145.625 72.4807V72.4807C145.929 71.7645 146.484 71.167 147.197 70.7867C148.662 69.9523 150.347 69.5248 152.059 69.5537C153.669 69.6076 157.551 69.3681 159.059 69.8171C159.68 69.9655 160.271 70.2081 160.809 70.5354C161.433 70.8861 161.889 71.4501 162.082 72.1096V72.1096C162.093 72.2869 162.074 72.4648 162.025 72.6363V72.6723ZM268.096 77.401C267.737 77.5216 267.369 77.6196 266.996 77.6943V77.6943C265.207 78.1193 262.42 77.3351 261.669 79.3942C261.669 79.6875 261.243 82.1955 261.332 82.429C261.593 83.3568 262.789 83.6261 263.686 83.6261C264.024 83.6261 265.914 83.6261 266.232 83.6261C266.675 83.589 267.107 83.4732 267.505 83.2849V83.2849C267.745 83.1746 267.961 83.0222 268.141 82.836V82.836C268.311 82.6559 268.421 82.4335 268.459 82.1956C268.51 81.8603 269.146 77.1855 269.172 77.0299C268.835 77.0658 268.37 77.2753 268.096 77.3651V77.401ZM274.791 72.6723L272.939 85.3919V85.5954C271.532 85.9026 270.08 85.9855 268.644 85.8409C268.141 85.775 267.918 85.6194 268.084 84.9071C266.076 85.7061 263.893 86.0387 261.72 85.8768C260.455 85.8942 259.203 85.6446 258.054 85.1465V85.1465C257.1 84.6976 256.145 83.8536 256.292 82.7522L256.877 79.1608C256.902 78.9741 256.945 78.7898 257.004 78.6101V78.6101C257.036 78.5047 257.079 78.4025 257.132 78.3048V78.3048C257.186 78.1993 257.248 78.0973 257.316 77.9996L257.488 77.7781C257.795 77.4312 258.153 77.1269 258.551 76.8742V76.8742C259.281 76.4291 260.086 76.1015 260.931 75.9045V75.9045C262.388 75.4915 265.43 75.6771 266.964 75.6412C267.725 75.6512 268.468 75.4239 269.076 74.9947C269.277 74.8432 269.438 74.6508 269.547 74.4321V74.4321C269.649 74.0969 269.721 73.7546 269.764 73.4085V73.4085C269.782 73.2383 269.762 73.0663 269.703 72.9042C269.645 72.7421 269.551 72.5936 269.426 72.4687C268.618 71.5888 267.034 71.8103 265.926 71.7864C265.478 71.7851 265.033 71.8644 264.615 72.0198V72.0198C263.464 72.367 263.616 73.2529 262.458 73.1391H258.296V73.0314C258.315 72.8295 258.351 72.6293 258.404 72.4328V72.4328C258.707 71.7156 259.262 71.1176 259.976 70.7389V70.7389C261.44 69.9017 263.126 69.472 264.838 69.4998C266.442 69.5597 270.33 69.3143 271.838 69.7692C272.46 69.9162 273.051 70.1589 273.588 70.4875V70.4875C274.111 70.7939 274.521 71.2429 274.766 71.7744V71.7744C274.805 71.8668 274.833 71.9632 274.848 72.0617C274.863 72.2549 274.844 72.4491 274.791 72.6363V72.6723ZM135.195 71.7924C133.725 71.7924 131.549 71.6547 131.192 73.3367L129.849 82.0698C129.83 82.1889 129.83 82.31 129.849 82.429C129.89 82.5979 129.967 82.757 130.077 82.8961C130.187 83.0353 130.326 83.1514 130.486 83.2371V83.2371C130.991 83.5058 131.567 83.6364 132.147 83.6142C133.292 83.6142 134.8 83.7638 135.749 83.0156C135.947 82.8785 136.107 82.6976 136.213 82.4888V82.4888C136.264 82.3791 136.302 82.2648 136.328 82.1477L137.671 73.3905V73.3247C137.785 72.0617 136.2 71.7564 135.195 71.7564V71.7924ZM138.619 69.5716C139.474 69.6638 140.304 69.9011 141.069 70.272V70.272C141.322 70.402 141.562 70.5522 141.788 70.7209V70.7209C141.982 70.8687 142.157 71.0374 142.31 71.2237C142.518 71.4709 142.664 71.7596 142.736 72.0677V72.0677C142.94 72.2533 141.241 82.6564 141.19 82.9916C141.139 83.1421 141.075 83.2883 140.999 83.4286V83.4286C140.178 84.7275 138.733 85.2782 137.263 85.6493C135.061 86.1162 131.358 86.1521 129.474 84.955C129.474 85.1585 128.659 90.1625 128.608 90.5037C128.148 90.7283 127.64 90.8564 127.122 90.8791C126.603 90.9018 126.086 90.8187 125.605 90.6354V90.6354C124.141 90.0368 123.855 88.7739 124.058 87.2415L126.68 69.9488V69.7512C127.819 69.5858 128.97 69.5037 130.123 69.5058C130.957 69.5477 131.759 69.5058 131.619 70.5473C133.75 69.3861 136.264 69.3502 138.619 69.5357V69.5716ZM247.891 71.7983C246.421 71.7983 244.251 71.6607 243.889 73.3427L242.546 82.0818C242.53 82.1991 242.53 82.3177 242.546 82.435V82.435C242.587 82.6044 242.665 82.7641 242.774 82.9042C242.884 83.0442 243.023 83.1616 243.182 83.249V83.249C243.69 83.5127 244.264 83.6411 244.843 83.6201C245.989 83.6201 247.503 83.7758 248.445 83.0216C248.644 82.8822 248.803 82.6994 248.91 82.4888V82.4888C248.964 82.3805 249.002 82.2657 249.024 82.1477L250.367 73.3905V73.3247C250.481 72.0677 248.903 71.7624 247.891 71.7624V71.7983ZM251.315 69.5776C252.171 69.6693 253.002 69.9087 253.765 70.284C254.018 70.4119 254.259 70.5601 254.484 70.7269C254.68 70.8753 254.856 71.0462 255.006 71.2357V71.2357C255.213 71.4836 255.359 71.7719 255.432 72.0797V72.0797C255.636 72.2652 253.937 82.6684 253.886 83.0096C253.838 83.1591 253.774 83.3035 253.695 83.4406C252.874 84.7395 251.436 85.2902 249.96 85.6613C248.686 85.908 247.383 85.9965 246.084 85.9247C244.71 85.9582 243.353 85.6262 242.17 84.9669C242.139 85.1645 241.356 90.1685 241.305 90.5157C240.843 90.7388 240.336 90.866 239.818 90.8887C239.3 90.9114 238.783 90.8291 238.301 90.6474V90.6474C236.838 90.0488 236.551 88.7918 236.755 87.2535L239.377 69.9667L239.408 69.7692C240.547 69.6017 241.698 69.5177 242.851 69.5178C243.685 69.5597 244.487 69.5178 244.347 70.5653C246.447 69.3921 248.961 69.3621 251.302 69.5417L251.315 69.5776ZM280.067 85.8349C278.915 85.731 277.815 85.3337 276.885 84.6856V84.6856C276.689 84.5394 276.514 84.3705 276.363 84.1828V84.1828C276.155 83.9356 276.009 83.647 275.937 83.3388V83.3388C275.688 83.4705 277.133 74.8511 277.114 74.7074C277.305 73.4324 277.668 71.0801 277.859 69.7991C278.681 69.6139 279.528 69.5433 280.372 69.5896V69.5896C280.658 69.6018 280.94 69.6501 281.212 69.7333V69.7333C281.326 69.7699 281.436 69.8139 281.543 69.865V69.865C281.729 69.9617 281.895 70.0895 282.033 70.2421V70.2421C282.105 70.3198 282.169 70.404 282.224 70.4935V70.4935C282.506 71.021 282.58 71.6252 282.434 72.1994C282.046 75.4736 281.505 78.7298 281.009 81.986C281.161 84.0751 284.738 83.7818 286.227 83.3568C286.626 83.2233 286.981 82.9943 287.258 82.6924V82.6924C287.417 82.5038 287.513 82.2743 287.531 82.0339C288.117 78.227 288.836 73.5881 289.409 69.823C290.231 69.6375 291.078 69.5669 291.922 69.6136V69.6136C292.194 69.6332 292.461 69.6855 292.718 69.7692V69.7692C292.831 69.8058 292.942 69.8498 293.049 69.9009C293.235 69.9976 293.401 70.1254 293.539 70.278V70.278C293.61 70.3568 293.674 70.4409 293.73 70.5294C294.001 71.0686 294.071 71.6782 293.927 72.2592L292.4 82.9677C292.233 84.6407 291.782 86.2777 291.063 87.8161C290.122 89.4562 288.123 90.2104 286.278 90.5636C284.865 90.8868 282.892 90.7372 281.441 90.7132C280.678 90.6654 278.769 90.7132 278.037 90.5636C277.852 90.5337 277.68 90.5037 277.528 90.4678C276.72 90.3436 275.995 89.9317 275.502 89.3175C275.009 88.7033 274.786 87.9341 274.88 87.1697L279.163 87.1996C280.13 87.1996 279.577 87.475 279.952 87.9957C280.958 88.8816 283.134 88.4506 284.33 88.2471C285.928 87.9359 286.876 86.3197 287.08 84.8233C286.325 85.2001 285.524 85.4857 284.693 85.6733V85.6733C283.164 85.9135 281.608 85.9558 280.067 85.799V85.8349ZM231.702 69.5956C232.072 69.6369 232.438 69.7049 232.796 69.7991C233.185 69.8973 233.565 70.0275 233.929 70.1882V70.1882C234.121 70.2729 234.306 70.3709 234.483 70.4815V70.4815C234.62 70.566 234.752 70.6579 234.877 70.7568V70.7568L234.967 70.8287C235.119 70.9729 235.264 71.1248 235.399 71.2836C235.476 71.3734 235.539 71.4751 235.603 71.5649C235.659 71.657 235.708 71.7531 235.749 71.8522C235.788 71.9474 235.818 72.0455 235.838 72.1455C235.861 72.244 235.874 72.3441 235.877 72.4448C235.272 76.976 234.489 81.4892 233.827 86.0085C233.668 86.0563 233.49 86.1102 233.35 86.1401C232.801 86.2704 232.23 86.2969 231.67 86.2179C231.455 86.1846 231.243 86.1386 231.034 86.0803V86.0803C230.73 85.9812 230.446 85.8356 230.194 85.6493C230.001 85.5036 229.831 85.3322 229.691 85.1405V85.1405C229.619 85.0439 229.555 84.9418 229.5 84.8352V84.8352C229.272 84.3484 229.205 83.808 229.309 83.2849V83.2849C229.801 80.0287 230.298 76.7725 230.798 73.5162C230.795 73.5044 230.795 73.4921 230.798 73.4803V73.4803C230.811 73.3689 230.811 73.2565 230.798 73.1451C230.743 72.9214 230.627 72.7152 230.461 72.5466V72.5466C230.282 72.3606 230.066 72.21 229.825 72.1036C229.686 72.0395 229.541 71.9893 229.392 71.954V71.954C228.795 71.8342 228.18 71.822 227.578 71.9181V71.9181C227.281 71.9716 226.991 72.0539 226.713 72.1635C226.355 72.3041 226.045 72.5338 225.815 72.8279C224.81 77.1017 224.492 81.591 223.734 85.9426H218.764C219.401 81.8005 219.999 77.6643 220.635 73.5282C220.651 73.415 220.651 73.3003 220.635 73.187C220.615 73.0752 220.578 72.9665 220.527 72.8638C220.412 72.6497 220.241 72.4665 220.031 72.3311C219.924 72.2555 219.809 72.1913 219.687 72.1395C219.275 71.9658 218.827 71.88 218.376 71.8881C217.896 71.8336 217.41 71.8806 216.952 72.0255C216.494 72.1705 216.076 72.4099 215.729 72.7261V72.7261C214.615 76.976 214.456 81.5311 213.641 85.8947H208.512C209.335 80.5195 210.154 75.1464 210.969 69.7752C212.269 69.6256 213.581 69.5895 214.889 69.6674C215.481 69.7213 215.952 69.8949 216.111 70.4875C216.522 70.2864 216.948 70.1105 217.383 69.9607C217.692 69.8588 218.006 69.7749 218.325 69.7093C219.465 69.4753 220.641 69.4408 221.793 69.6076C222.003 69.6375 222.22 69.6794 222.43 69.7273C222.64 69.7752 222.844 69.841 223.034 69.9068C223.225 69.9727 223.416 70.0445 223.588 70.1164C224.175 70.3701 224.708 70.7232 225.16 71.1579C226.125 70.4379 227.256 69.9417 228.463 69.7093C229.142 69.5717 229.836 69.5035 230.531 69.5058C230.928 69.4989 231.326 69.5169 231.721 69.5597L231.702 69.5956ZM203.58 69.5956C204.21 69.4856 204.851 69.4514 205.489 69.4938V69.4938C205.76 69.5167 206.027 69.5689 206.285 69.6495V69.6495C206.4 69.6854 206.51 69.7315 206.616 69.7871C206.803 69.8798 206.97 70.0059 207.106 70.1583V70.1583C207.177 70.2371 207.24 70.3211 207.297 70.4097V70.4097C207.353 70.5039 207.402 70.6019 207.443 70.7029V70.7029C207.92 71.8462 206.686 77.1735 206.622 78.4545L205.566 85.6673L205.528 85.8947H200.526L200.57 85.5954L201.792 77.5087L202.95 69.8889V69.7033L203.58 69.5956ZM178.762 83.8715C176.318 86.5172 171.539 85.8468 168.223 85.9247C166.015 85.9247 162.368 85.0866 162.871 82.3931C162.871 82.2434 163.1 80.8727 163.107 80.765H167.173C168.369 80.765 168.032 81.1002 167.892 82.0758C167.771 83.2311 169.267 83.6381 170.259 83.6201C171.405 83.6201 172.939 83.7758 173.893 83.0216C174.088 82.881 174.247 82.701 174.358 82.4948V82.4948C174.498 82.3392 174.791 80.0108 174.848 79.7773V79.7474C174.708 77.5686 170.82 78.3467 169.318 78.2091C168.106 78.2332 166.905 77.9978 165.805 77.5207C164.85 77.0598 163.896 76.1859 164.023 75.1264C164.023 75.0845 164.239 72.8219 164.239 72.78C164.318 72.4214 164.47 72.0809 164.689 71.7779C164.907 71.4749 165.187 71.2154 165.512 71.0142V71.0142C167.049 70.0038 168.888 69.4815 170.762 69.5238C173.136 69.6076 176.808 69.1167 178.87 70.4635C179.01 70.5473 179.15 70.6431 179.271 70.7329C179.564 70.9545 179.812 71.2242 180.002 71.529V71.529C180.169 71.7799 180.265 72.0667 180.28 72.3621C180.296 72.6575 180.231 72.9518 180.092 73.217H175.987C175.121 73.217 175.319 73.1212 174.924 72.5466C174.674 72.2833 174.362 72.0781 174.013 71.9473C173.664 71.8164 173.288 71.7634 172.913 71.7924C171.761 71.7564 170.329 71.7924 169.54 72.6962C169.178 72.9656 169.152 73.8514 169.076 74.2465C168.898 75.3598 169.992 75.6891 171.386 75.6651C173.098 75.701 175.713 75.4856 177.323 76.0781L177.508 76.144C178.389 76.4202 179.146 76.966 179.659 77.6943V77.6943C180.295 78.4904 179.398 81.6987 179.36 82.7223C179.257 83.1323 179.05 83.5125 178.755 83.8297L178.762 83.8715Z" fill="white"/>
<path fill-rule="evenodd" clip-rule="evenodd" d="M208.175 67.267H203.211L203.708 63.9868H208.659L208.175 67.267Z" fill="white"/>
<rect x="1" y="1.93945" width="328" height="128" rx="9" stroke="#1843BF" stroke-width="2"/>
</svg>
