<svg width="68" height="50" viewBox="0 0 68 50" fill="none" xmlns="http://www.w3.org/2000/svg">
<path d="M0.833008 20.8951L15.3559 3.64624H27.6182L13.0953 20.9012H0.833008V20.8951ZM10.1452 35.4087L31.3898 10.1722C32.9548 8.22532 34.6997 6.43614 36.6005 4.82285C38.8311 2.96696 41.4395 1.62053 44.2517 0.892729C47.8974 -0.0716073 51.747 0.0254328 55.3448 1.16565C58.9065 2.28768 62.0126 4.53173 64.2132 7.55211C67.0074 11.5186 68.1827 16.4009 67.4931 21.2044C67.1753 23.5698 66.3958 25.8563 65.1966 27.9184C63.9913 29.9805 62.3963 31.7818 60.4895 33.2253C58.3129 34.8386 55.7945 35.9363 53.1262 36.4215C51.6211 36.7369 50.0861 36.9128 48.545 36.931H42.5548L31.7016 49.8495H19.4753L36.8464 29.186L38.2675 27.4938H46.3384C49.1746 27.4938 52.1728 27.4938 54.6252 25.8987H54.6732C55.8245 25.1042 56.7719 24.0429 57.4375 22.8056C58.103 21.5683 58.4628 20.1976 58.4988 18.7966C58.5288 17.3956 58.229 16.0067 57.6233 14.7391C57.0177 13.4776 56.1183 12.3738 55.003 11.5247L54.8831 11.4398L54.8171 11.3913L54.7272 11.3245C53.324 10.3359 51.6631 9.77796 49.9482 9.72944H49.8522C48.7429 9.68092 47.6336 9.79616 46.5603 10.0751C45.0612 10.4754 43.6641 11.2032 42.4709 12.21C41.0198 13.4655 39.6886 14.8483 38.4894 16.3464L22.3475 35.5118L10.1512 35.4269L10.1452 35.4087Z" fill="#000099"/>
</svg>
