<svg width="68" height="50" viewBox="0 0 68 50" fill="none" xmlns="http://www.w3.org/2000/svg">
<path d="M0.166504 20.8951L14.6894 3.64624H26.9517L12.4288 20.9012H0.166504V20.8951ZM9.47865 35.4087L30.7233 10.1722C32.2883 8.22532 34.0332 6.43614 35.934 4.82285C38.1646 2.96696 40.773 1.62053 43.5852 0.892729C47.2309 -0.0716073 51.0805 0.0254328 54.6783 1.16565C58.24 2.28768 61.3461 4.53173 63.5467 7.55211C66.3409 11.5186 67.5162 16.4009 66.8266 21.2044C66.5088 23.5698 65.7293 25.8563 64.5301 27.9184C63.3248 29.9805 61.7298 31.7818 59.823 33.2253C57.6464 34.8386 55.128 35.9363 52.4597 36.4215C50.9546 36.7369 49.4196 36.9128 47.8785 36.931H41.8883L31.0351 49.8495H18.8088L36.1799 29.186L37.601 27.4938H45.6719C48.5081 27.4938 51.5063 27.4938 53.9587 25.8987H54.0067C55.158 25.1042 56.1054 24.0429 56.771 22.8056C57.4365 21.5683 57.7963 20.1976 57.8323 18.7966C57.8623 17.3956 57.5625 16.0067 56.9568 14.7391C56.3512 13.4776 55.4518 12.3738 54.3365 11.5247L54.2166 11.4398L54.1506 11.3913L54.0607 11.3245C52.6575 10.3359 50.9966 9.77796 49.2817 9.72944H49.1857C48.0764 9.68092 46.9671 9.79616 45.8938 10.0751C44.3947 10.4754 42.9976 11.2032 41.8044 12.21C40.3533 13.4655 39.0221 14.8483 37.8229 16.3464L21.681 35.5118L9.48465 35.4269L9.47865 35.4087Z" fill="#FF6600"/>
</svg>
