<svg width="281" height="49" viewBox="0 0 281 49" fill="none" xmlns="http://www.w3.org/2000/svg">
<g clip-path="url(#clip0_4875_8212)">
<path d="M0.666504 20.3003L15.2327 3.59896H27.5316L12.9654 20.3062H0.666504V20.3003ZM10.0065 34.3532L31.3145 9.91776C32.8842 8.03269 34.6343 6.30031 36.5408 4.73822C38.7781 2.94124 41.3942 1.63755 44.2148 0.932851C47.8714 -0.000875115 51.7325 0.0930847 55.341 1.19711C58.9134 2.28352 62.0287 4.45635 64.2359 7.38085C67.0385 11.2215 68.2172 15.9488 67.5256 20.5998C67.2069 22.8901 66.425 25.104 65.2222 27.1007C64.0134 29.0973 62.4136 30.8414 60.5011 32.2391C58.318 33.8012 55.792 34.8641 53.1158 35.3339C51.6062 35.6393 50.0666 35.8096 48.521 35.8272H42.5128L31.6273 48.3356H19.3644L36.7874 28.328L38.2127 26.6896H46.3078C49.1524 26.6896 52.1595 26.6896 54.6193 25.1451H54.6674C55.8221 24.3758 56.7724 23.3481 57.4399 22.1502C58.1075 20.9522 58.4683 19.625 58.5044 18.2684C58.5345 16.9119 58.2338 15.5671 57.6264 14.3397C57.0189 13.1183 56.1168 12.0495 54.9982 11.2273L54.8779 11.1451L54.8117 11.0981L54.7215 11.0335C53.3142 10.0763 51.6483 9.53605 49.9283 9.48907H49.832C48.7194 9.44209 47.6068 9.55367 46.5303 9.8238C45.0268 10.2114 43.6255 10.9161 42.4286 11.8909C40.9732 13.1065 39.6381 14.4455 38.4353 15.896L22.2452 34.453L10.0125 34.3708L10.0065 34.3532Z" fill="#FF6600"/>
<path fill-rule="evenodd" clip-rule="evenodd" d="M163.824 25.0692C160.871 28.3636 155.067 27.5356 151.056 27.6296C148.374 27.6296 143.959 26.5784 144.561 23.2193C144.561 23.0314 144.843 21.3225 144.855 21.1875H149.787C151.236 21.1875 150.828 21.6044 150.653 22.8318C150.515 24.2646 152.319 24.7756 153.522 24.7521C154.917 24.7521 156.775 24.9459 157.924 24.0063C158.165 23.836 158.357 23.6069 158.49 23.3485C158.658 23.1547 159.013 20.2479 159.085 19.9542V19.919C158.947 17.2118 154.183 18.1631 152.391 17.9987C150.924 18.0281 149.468 17.7344 148.133 17.1413C146.978 16.5717 145.818 15.4853 145.968 14.1522C145.968 14.0994 146.239 11.2688 146.239 11.2218C146.335 10.7755 146.521 10.3468 146.786 9.971C147.051 9.59516 147.387 9.2663 147.784 9.01966C150.755 6.65892 155.639 7.20506 159.223 7.15808C160.889 7.10523 162.537 7.51043 163.974 8.32083C164.143 8.42654 164.299 8.54399 164.456 8.66731C164.81 8.94331 165.117 9.27805 165.352 9.65389C165.556 9.971 165.67 10.3292 165.688 10.6992C165.706 11.0692 165.622 11.4391 165.454 11.768H160.48C159.434 11.768 159.71 11.6505 159.193 10.9341C158.892 10.6052 158.514 10.3468 158.093 10.1883C157.672 10.0239 157.215 9.95926 156.763 9.99449C155.362 9.94751 153.63 9.99449 152.668 11.122C152.229 11.4509 152.199 12.5666 152.103 13.0541C151.886 14.4458 153.215 14.8569 154.905 14.8276C156.98 14.8745 160.149 14.6044 162.092 15.3443L162.327 15.4265C162.327 15.4265 164.371 16.3896 164.937 17.341C165.706 18.3334 164.63 22.3443 164.582 23.6245C164.474 24.1766 164.221 24.6875 163.848 25.1162V25.0692H163.824ZM112.572 17.0297C112.139 17.1883 111.7 17.3116 111.242 17.3938C109.113 17.9341 105.703 16.924 104.783 19.5079C104.783 19.872 104.26 23.0021 104.374 23.3016C104.681 24.4526 106.13 24.7932 107.231 24.7932H110.316C110.84 24.7403 111.351 24.5935 111.82 24.3586C112.115 24.2235 112.379 24.0356 112.59 23.8007C112.794 23.5776 112.932 23.3016 112.981 23.0079C113.035 22.591 113.811 16.7479 113.835 16.5599C113.462 16.6128 112.902 16.8653 112.56 16.9769V17.0239L112.572 17.0297ZM120.685 11.1338L118.423 27.0541V27.3007C116.715 27.6883 114.959 27.794 113.215 27.6061C112.614 27.5239 112.343 27.3301 112.542 26.4433C110.106 27.4475 107.46 27.8645 104.825 27.6589C103.292 27.6766 101.776 27.3653 100.387 26.7428C99.2323 26.1908 98.0715 25.1279 98.2399 23.7537C98.2399 23.7537 98.9556 19.273 98.9496 19.273C98.9737 19.0381 99.0218 18.8091 99.0939 18.5859C99.136 18.4567 99.1842 18.3276 99.2503 18.2042C99.3165 18.075 99.3886 17.9517 99.4728 17.8284C99.539 17.7344 99.6051 17.6463 99.6833 17.5583C100.05 17.1178 100.483 16.7361 100.97 16.4307C101.854 15.8729 102.823 15.4677 103.845 15.2269C105.613 14.7042 109.3 14.945 111.158 14.8921C112.084 14.9156 112.987 14.6279 113.72 14.0876C113.973 13.9056 114.171 13.6648 114.298 13.3829C114.412 12.966 114.502 12.5432 114.562 12.1145C114.586 11.9031 114.562 11.6858 114.49 11.4861C114.418 11.2864 114.31 11.0985 114.159 10.94C113.173 9.83593 111.249 10.1178 109.907 10.0885C109.366 10.0885 108.825 10.1824 108.32 10.3703C106.924 10.8108 107.111 11.9148 105.709 11.7739H100.658V11.6388C100.676 11.3863 100.718 11.1338 100.79 10.893C101.157 10.0004 101.83 9.25456 102.696 8.77888C104.471 7.73945 106.515 7.20506 108.59 7.24029C110.545 7.30489 115.248 7.01127 117.076 7.56915C117.828 7.75707 118.544 8.05657 119.199 8.46764C119.957 8.90808 120.51 9.60691 120.745 10.4349C120.757 10.6581 120.733 10.8812 120.673 11.0926V11.1396L120.685 11.1338ZM249.267 17.0356C248.834 17.1883 248.383 17.3057 247.932 17.3997C245.767 17.9282 242.387 16.9534 241.473 19.5197C241.473 19.8838 240.955 23.0138 241.064 23.3074C241.382 24.4643 242.832 24.799 243.92 24.799H247.006C247.541 24.7521 248.064 24.6111 248.551 24.3703C248.846 24.2353 249.104 24.0415 249.321 23.8125C249.525 23.5893 249.658 23.3074 249.706 23.0138C249.766 22.5969 250.542 16.7596 250.572 16.5658C250.163 16.6128 249.598 16.8712 249.267 16.9828V17.0297V17.0356ZM257.38 11.1338L255.137 27.0071V27.2596C253.429 27.6413 251.672 27.747 249.928 27.565C249.321 27.4828 249.05 27.289 249.249 26.4022C246.813 27.4006 244.167 27.8116 241.533 27.612C239.999 27.6355 238.483 27.3242 237.088 26.7017C235.934 26.1438 234.773 25.0868 234.953 23.7126L235.663 19.2319C235.693 18.997 235.747 18.768 235.819 18.5448C235.855 18.4156 235.909 18.2864 235.976 18.1631C236.042 18.0339 236.114 17.9047 236.198 17.7814L236.409 17.5054C236.782 17.0708 237.215 16.695 237.696 16.3779C238.58 15.82 239.554 15.4148 240.582 15.1682C242.351 14.6514 246.037 14.8863 247.896 14.8393C248.816 14.851 249.718 14.5692 250.458 14.0348C250.698 13.8468 250.897 13.6061 251.029 13.3301C251.149 12.9131 251.239 12.4844 251.294 12.0499C251.318 11.8385 251.294 11.6212 251.221 11.4215C251.149 11.2218 251.035 11.0339 250.885 10.8754C249.904 9.77721 247.986 10.0532 246.645 10.0239C246.103 10.0239 245.562 10.1237 245.057 10.3175C243.662 10.752 243.848 11.8561 242.441 11.7151H237.395V11.5801C237.419 11.3275 237.461 11.0809 237.527 10.8343C237.894 9.94164 238.568 9.18996 239.434 8.72016C241.208 7.67486 243.253 7.14046 245.328 7.1757C247.27 7.25204 251.985 6.94667 253.814 7.51043C254.565 7.69247 255.281 7.99784 255.937 8.40892C256.568 8.79063 257.067 9.35439 257.362 10.018C257.41 10.1354 257.446 10.2529 257.464 10.3762C257.482 10.617 257.464 10.8577 257.392 11.0926V11.1396L257.38 11.1338ZM88.1602 10.0356C86.3801 10.0356 83.7399 9.8653 83.3068 11.9618L81.677 22.8611C81.653 23.0079 81.653 23.1606 81.677 23.3074C81.7251 23.5188 81.8214 23.7185 81.9537 23.8888C82.086 24.065 82.2544 24.2059 82.4468 24.3116C83.0603 24.6464 83.7579 24.8108 84.4616 24.7814C85.8508 24.7814 87.6791 24.9693 88.8278 24.0356C89.0684 23.8653 89.2608 23.6363 89.3931 23.3779C89.4533 23.2428 89.5014 23.096 89.5315 22.9492L91.1613 12.0205V11.9383C91.2996 10.3645 89.3811 9.98275 88.1602 9.98275V10.0297V10.0356ZM92.31 7.26378C93.3444 7.38123 94.3548 7.67486 95.281 8.13878C95.5877 8.30321 95.8764 8.49113 96.153 8.69667C96.3876 8.87872 96.5981 9.09013 96.7845 9.32503C97.0371 9.63627 97.2115 9.99449 97.3017 10.3762C97.5483 10.6052 95.4915 23.5893 95.4253 24.0121C95.3652 24.2 95.287 24.3821 95.1908 24.5583C94.1984 26.1791 92.4423 26.8662 90.6621 27.3301C87.9918 27.9115 83.5053 27.9584 81.2199 26.461C81.2199 26.7135 80.2336 32.9618 80.1735 33.3846C79.6142 33.6665 79.0007 33.8251 78.3692 33.8544C77.7438 33.8838 77.1123 33.7781 76.5289 33.5491C74.7547 32.8032 74.4059 31.2235 74.6525 29.315L77.828 7.73358V7.48694C79.2112 7.2814 80.6065 7.1757 82.0018 7.18157C83.0121 7.23442 83.9864 7.18157 83.812 8.47939C86.3981 7.02888 89.4413 6.98778 92.298 7.2168V7.26378H92.31ZM224.771 10.0415C222.991 10.0415 220.357 9.87117 219.918 11.9676L218.288 22.8729C218.27 23.0197 218.27 23.1665 218.288 23.3133C218.336 23.5247 218.432 23.7244 218.565 23.9005C218.697 24.0767 218.865 24.2235 219.058 24.3292C219.671 24.6581 220.369 24.8167 221.073 24.7932C222.462 24.7932 224.296 24.987 225.439 24.0474C225.679 23.8712 225.872 23.648 226.004 23.3838C226.07 23.2487 226.118 23.1078 226.143 22.9551L227.772 12.0264V11.9442C227.911 10.3762 225.998 9.99449 224.771 9.99449V10.0415ZM228.921 7.26965C229.961 7.38123 230.966 7.68073 231.892 8.15053C232.199 8.30909 232.487 8.49701 232.764 8.70254C233.005 8.89046 233.215 9.10187 233.396 9.33677C233.648 9.64801 233.823 10.0062 233.913 10.3879C234.159 10.617 232.102 23.6011 232.036 24.0297C231.976 24.2177 231.898 24.3938 231.802 24.57C230.809 26.1908 229.065 26.8779 227.273 27.3418C225.728 27.6472 224.152 27.7588 222.576 27.6707C220.91 27.7118 219.268 27.3007 217.831 26.4727C217.795 26.7193 216.845 32.9677 216.785 33.3964C216.225 33.6724 215.612 33.8309 214.98 33.8603C214.355 33.8897 213.723 33.784 213.14 33.5608C211.366 32.815 211.017 31.247 211.264 29.3267L214.445 7.7512L214.481 7.50455C215.864 7.29315 217.26 7.19331 218.655 7.19331C219.665 7.24616 220.64 7.19331 220.465 8.50288C223.009 7.04063 226.058 6.99952 228.897 7.22267L228.915 7.26965H228.921ZM263.773 27.5591C262.378 27.4299 261.043 26.9308 259.918 26.1262C259.683 25.9442 259.467 25.7328 259.286 25.4979C259.034 25.1866 258.859 24.8284 258.769 24.4467C258.468 24.6111 260.219 13.8527 260.195 13.6765C260.429 12.0851 260.868 9.14885 261.097 7.55153C262.095 7.32251 263.117 7.23442 264.146 7.28727C264.495 7.30489 264.837 7.36361 265.162 7.46932C265.301 7.5163 265.433 7.56915 265.565 7.63375C265.794 7.75707 265.992 7.91563 266.161 8.10355C266.251 8.20338 266.323 8.30321 266.395 8.41479C266.738 9.07251 266.828 9.83006 266.648 10.5465C266.179 14.6338 265.523 18.6975 264.922 22.7613C265.108 25.3687 269.444 25.0046 271.248 24.4702C271.73 24.3058 272.163 24.018 272.499 23.6422C272.692 23.4073 272.806 23.1195 272.83 22.82C273.54 18.0692 274.412 12.2789 275.104 7.5809C276.102 7.35187 277.124 7.26378 278.153 7.31663C278.484 7.34012 278.808 7.40472 279.115 7.51043C279.253 7.55741 279.386 7.61026 279.518 7.67486C279.74 7.79818 279.945 7.95674 280.113 8.14466C280.198 8.24449 280.276 8.35019 280.348 8.4559C280.679 9.13123 280.763 9.88879 280.588 10.617L278.736 23.9828C278.532 26.0734 277.984 28.1111 277.118 30.0314C275.976 32.0809 273.552 33.0205 271.315 33.461C269.601 33.8662 267.213 33.6782 265.451 33.6489C264.525 33.5902 262.209 33.6489 261.325 33.461C261.103 33.4257 260.892 33.3846 260.706 33.3435C259.725 33.1908 258.847 32.6741 258.252 31.9106C257.657 31.1472 257.386 30.1841 257.5 29.2328L262.69 29.268C263.863 29.268 263.19 29.6145 263.647 30.2605C264.867 31.3645 267.502 30.8301 268.957 30.5717C270.894 30.1841 272.042 28.164 272.289 26.2965C271.375 26.7663 270.4 27.1245 269.396 27.3594C267.544 27.6589 265.655 27.7118 263.785 27.518V27.565L263.773 27.5591ZM205.147 7.29902C205.598 7.35187 206.037 7.43408 206.476 7.55153C206.945 7.67486 207.408 7.83929 207.848 8.03895C208.082 8.14466 208.305 8.26798 208.521 8.40305C208.689 8.50875 208.846 8.62033 209.002 8.74952L209.11 8.83761C209.297 9.01966 209.471 9.20758 209.634 9.40724C209.724 9.51882 209.802 9.64801 209.88 9.75959C209.946 9.87704 210.007 9.99449 210.055 10.1178C210.103 10.2353 210.139 10.3586 210.163 10.4819C210.187 10.6052 210.205 10.7286 210.211 10.8577C209.477 16.513 208.527 22.1447 207.727 27.7881C207.535 27.8469 207.318 27.9173 207.15 27.9526C206.482 28.117 205.791 28.1464 205.111 28.0524C204.852 28.0113 204.594 27.9526 204.341 27.8821C203.974 27.7588 203.632 27.5767 203.325 27.3418C203.09 27.1598 202.886 26.9484 202.717 26.7076C202.627 26.5843 202.549 26.461 202.483 26.3259C202.206 25.721 202.128 25.0457 202.248 24.3938C202.844 20.3301 203.445 16.2663 204.053 12.2025C204.053 12.1849 204.053 12.1732 204.053 12.1556C204.071 12.0146 204.071 11.8737 204.053 11.7386C203.986 11.4567 203.842 11.2042 203.644 10.9928C203.427 10.7579 203.162 10.57 202.874 10.4408C202.705 10.3586 202.531 10.2999 202.351 10.2529C201.629 10.1061 200.883 10.0885 200.149 10.2059C199.789 10.2705 199.44 10.3762 199.103 10.5113C198.67 10.6874 198.291 10.9752 198.014 11.3393C196.794 16.6715 196.409 22.2739 195.494 27.7059H189.468C190.238 22.5381 190.966 17.3762 191.736 12.2143C191.754 12.0734 191.754 11.9324 191.736 11.7856C191.712 11.6447 191.669 11.5096 191.603 11.3804C191.465 11.1161 191.255 10.8871 191.002 10.7168C190.876 10.6228 190.731 10.5406 190.587 10.476C190.088 10.2588 189.546 10.153 188.999 10.1648C188.416 10.0943 187.826 10.153 187.273 10.3351C186.72 10.5171 186.209 10.8166 185.788 11.2101C184.44 16.513 184.248 22.1975 183.256 27.6472H177.037C178.035 20.9408 179.028 14.2344 180.014 7.52804C181.59 7.34013 183.184 7.29902 184.765 7.39298C185.481 7.45757 186.052 7.67486 186.245 8.41479C186.744 8.16227 187.261 7.94499 187.784 7.75707C188.157 7.62788 188.542 7.52217 188.927 7.44583C190.31 7.15221 191.736 7.1111 193.131 7.31663C193.384 7.35187 193.648 7.40472 193.901 7.46345C194.153 7.52217 194.4 7.60439 194.634 7.6866C194.869 7.76882 195.098 7.8569 195.308 7.95086C196.018 8.26798 196.667 8.70842 197.215 9.24868C198.387 8.35019 199.758 7.73358 201.22 7.43996C202.044 7.26965 202.886 7.18157 203.728 7.18744C204.209 7.18157 204.69 7.19919 205.171 7.25204L205.147 7.29902ZM171.059 7.29902C171.823 7.16395 172.599 7.11697 173.375 7.16982C173.705 7.19918 174.024 7.26378 174.337 7.36361C174.475 7.41059 174.607 7.46345 174.74 7.53392C174.968 7.65137 175.167 7.80405 175.335 7.99784C175.419 8.09768 175.497 8.20338 175.564 8.30909C175.63 8.42654 175.69 8.54986 175.744 8.67318C176.321 10.1002 174.824 16.7479 174.752 18.3452L173.471 27.3477L173.423 27.6296H167.36L167.414 27.2537L168.894 17.1589L170.295 7.65137V7.42234L171.059 7.28727V7.29902ZM140.976 25.1162C138.011 28.4165 132.22 27.5826 128.202 27.6766C125.526 27.6766 121.106 26.6313 121.713 23.2663C121.713 23.0784 121.99 21.3695 121.996 21.2344H126.927C128.377 21.2344 127.968 21.6514 127.799 22.8729C127.655 24.3175 129.465 24.8225 130.668 24.799C132.057 24.799 133.916 24.9928 135.07 24.0532C135.305 23.8771 135.497 23.6539 135.636 23.3955C135.804 23.2017 136.159 20.2948 136.231 20.0012V19.966C136.063 17.247 131.348 18.216 129.525 18.0457C128.058 18.075 126.603 17.7814 125.267 17.1883C124.113 16.6128 122.952 15.5205 123.108 14.1992C123.108 14.1463 123.373 11.3217 123.373 11.2688C123.469 10.8225 123.656 10.3938 123.92 10.018C124.185 9.64214 124.522 9.31328 124.919 9.06664C126.783 7.80405 129.008 7.15221 131.282 7.20506C134.156 7.31076 138.613 6.69415 141.109 8.37956C141.277 8.48526 141.445 8.60271 141.596 8.71429C141.951 8.99029 142.251 9.32503 142.486 9.70674C142.69 10.018 142.805 10.3762 142.823 10.7462C142.841 11.1161 142.763 11.4802 142.594 11.815H137.62C136.574 11.815 136.809 11.6975 136.333 10.9811C136.027 10.6522 135.654 10.3938 135.227 10.2353C134.806 10.0708 134.349 10.0062 133.892 10.0415C132.496 9.99449 130.758 10.0415 129.802 11.169C129.363 11.5037 129.333 12.6136 129.237 13.101C129.02 14.4928 130.349 14.9039 132.039 14.8745C134.114 14.9215 137.284 14.6514 139.238 15.3913L139.461 15.4735C140.531 15.82 141.445 16.5012 142.071 17.4056C142.841 18.398 141.752 22.4031 141.71 23.6833C141.584 24.1942 141.337 24.6698 140.976 25.0633V25.1162Z" fill="#000099"/>
<path fill-rule="evenodd" clip-rule="evenodd" d="M176.628 4.39195H170.608L171.209 0.298828H177.211L176.628 4.39195Z" fill="#FF6600"/>
<path d="M76.655 40.2261H80.2574V41.6355H76.7572C76.5768 41.6355 76.4384 41.6825 76.3422 41.7764C76.246 41.8704 76.1979 41.9878 76.1979 42.1229C76.1979 42.2403 76.234 42.346 76.3121 42.44C76.3903 42.534 76.4986 42.5986 76.6369 42.6338L79.1328 43.2034C79.65 43.3209 80.0409 43.5558 80.3115 43.9081C80.5822 44.2546 80.7205 44.6481 80.7205 45.0826C80.7205 45.6229 80.5341 46.0868 80.1552 46.4803C79.7883 46.8679 79.2711 47.0617 78.6095 47.0617H74.8567V45.6464H78.5554C78.7298 45.6464 78.8682 45.5935 78.9704 45.482C79.0847 45.3704 79.1388 45.2471 79.1388 45.1061C79.1388 44.8301 78.9824 44.6539 78.6697 44.5835L76.1618 44.0021C75.6506 43.8788 75.2657 43.6497 74.989 43.3091C74.7184 42.9627 74.5801 42.5751 74.5801 42.1581C74.5801 41.6355 74.7605 41.1833 75.1214 40.8016C75.4882 40.4199 75.9994 40.2319 76.6489 40.2319L76.655 40.2261Z" fill="#1A75E2"/>
<path d="M81.791 47.0617V40.2261H83.2765V47.0617H81.791Z" fill="#1A75E2"/>
<path d="M92.6706 40.2261V47.0617H91.1851V42.3695L89.1885 47.0617H88.2382L86.2536 42.3872V47.0617H84.7681V40.2261H86.8249L88.7254 44.7773L90.6258 40.2261H92.6646H92.6706Z" fill="#1A75E2"/>
<path d="M97.6745 40.2261C98.3661 40.2261 98.9435 40.4492 99.4066 40.9014C99.8757 41.3418 100.104 41.8997 100.104 42.5751C100.104 43.2504 99.8697 43.8259 99.3946 44.2664C98.9255 44.7009 98.3541 44.9182 97.6685 44.9182H95.6417V47.0617H94.1562V40.2261H97.6685H97.6745ZM95.6478 43.544H97.5603C97.861 43.544 98.1075 43.4559 98.3 43.2798C98.5045 43.1036 98.6007 42.8687 98.6007 42.5751C98.6007 42.3049 98.4985 42.0759 98.3 41.8997C98.1015 41.7236 97.8489 41.6355 97.5603 41.6355H95.6478V43.544Z" fill="#1A75E2"/>
<path d="M101.103 47.0617V40.2261H102.594V45.6464H106.191V47.0617H101.103Z" fill="#1A75E2"/>
<path d="M112.475 47.0617H107.117V40.2261H112.475V41.6355H108.596V42.9098H112.024V44.2546H108.596V45.6523H112.475V47.0617Z" fill="#1A75E2"/>
<path d="M114.045 45.5288H115.56L114.538 48.4651H113.275L114.051 45.5288H114.045Z" fill="#1A75E2"/>
<path d="M124.419 44.2956H125.953C125.838 45.1412 125.46 45.8342 124.816 46.3862C124.173 46.9323 123.373 47.2025 122.41 47.2025C121.34 47.2025 120.468 46.8619 119.8 46.1806C119.133 45.4936 118.796 44.6479 118.796 43.6496C118.796 42.6513 119.133 41.7939 119.8 41.1068C120.468 40.4139 121.34 40.0674 122.41 40.0674C123.343 40.0674 124.13 40.3375 124.774 40.8719C125.423 41.4122 125.808 42.0875 125.935 42.9097H124.389C124.269 42.481 124.034 42.1404 123.679 41.882C123.331 41.6177 122.904 41.4885 122.404 41.4944C121.779 41.5003 121.274 41.7117 120.889 42.1286C120.504 42.5338 120.311 43.0389 120.311 43.6379C120.311 44.2369 120.504 44.7419 120.889 45.1588C121.274 45.5758 121.785 45.7813 122.422 45.7813C122.934 45.7813 123.361 45.6463 123.715 45.3761C124.076 45.106 124.311 44.7419 124.413 44.2956H124.419Z" fill="#1A75E2"/>
<path d="M133.043 46.1806C132.37 46.8619 131.48 47.2025 130.379 47.2025C129.279 47.2025 128.389 46.8619 127.703 46.1806C127.029 45.4936 126.687 44.6479 126.687 43.6496C126.687 42.6513 127.029 41.8056 127.709 41.1068C128.395 40.4139 129.279 40.0674 130.373 40.0674C131.468 40.0674 132.358 40.4139 133.037 41.1068C133.723 41.7998 134.06 42.6454 134.06 43.6496C134.06 44.6538 133.717 45.4936 133.037 46.1806H133.043ZM128.803 45.1588C129.2 45.5758 129.724 45.7813 130.379 45.7813C131.035 45.7813 131.558 45.5758 131.955 45.1588C132.352 44.7419 132.55 44.2369 132.55 43.6379C132.55 43.0389 132.352 42.5338 131.955 42.1169C131.558 41.6999 131.035 41.4944 130.379 41.4944C129.724 41.4944 129.2 41.6999 128.803 42.1169C128.407 42.5338 128.208 43.0389 128.208 43.6379C128.208 44.2369 128.407 44.736 128.803 45.1588Z" fill="#1A75E2"/>
<path d="M140.218 44.7127V40.2261H141.704V47.0617H140.218L136.634 42.2991V47.0617H135.148V40.2261H136.838L140.212 44.7127H140.218Z" fill="#1A75E2"/>
<path d="M146.172 45.2764L148.283 40.2261H149.871L146.954 47.0617H145.336L142.432 40.2261H144.043L146.172 45.2764Z" fill="#1A75E2"/>
<path d="M155.891 47.0617H150.533V40.2261H155.891V41.6355H152.012V42.9098H155.44V44.2546H152.012V45.6523H155.891V47.0617Z" fill="#1A75E2"/>
<path d="M162.194 44.7127V40.2261H163.679V47.0617H162.194L158.61 42.2991V47.0617H157.124V40.2261H158.814L162.188 44.7127H162.194Z" fill="#1A75E2"/>
<path d="M165.165 47.0617V40.2261H166.651V47.0617H165.165Z" fill="#1A75E2"/>
<path d="M173.507 47.0617H168.148V40.2261H173.507V41.6355H169.627V42.9098H173.055V44.2546H169.627V45.6523H173.507V47.0617Z" fill="#1A75E2"/>
<path d="M179.809 44.7127V40.2261H181.295V47.0617H179.809L176.225 42.2991V47.0617H174.739V40.2261H176.429L179.803 44.7127H179.809Z" fill="#1A75E2"/>
<path d="M182.245 40.2261H188.434V41.6355H186.082V47.0617H184.591V41.6355H182.251V40.2261H182.245Z" fill="#1A75E2"/>
<path d="M188.632 45.5288H190.148L189.125 48.4651H187.862L188.638 45.5288H188.632Z" fill="#1A75E2"/>
<path d="M195.428 47.0617H193.942V40.2261H197.527C198.248 40.2261 198.832 40.3905 199.271 40.7252C199.716 41.06 199.938 41.5298 199.938 42.1346C199.938 42.7395 199.71 43.2445 199.247 43.5734V43.6028C199.818 43.7437 200.101 44.1724 200.101 44.8771V47.0617H198.615V45.1414C198.615 44.8712 198.471 44.7361 198.176 44.7361H195.416V47.0617H195.428ZM195.428 41.6355V43.4207H197.413C197.725 43.4207 197.978 43.3444 198.164 43.1858C198.357 43.0214 198.459 42.8041 198.459 42.5222C198.459 42.2403 198.363 42.0348 198.164 41.8821C197.972 41.7177 197.719 41.6355 197.425 41.6355H195.428Z" fill="#1A75E2"/>
<path d="M206.765 47.0617H201.406V40.2261H206.765V41.6355H202.886V42.9098H206.314V44.2546H202.886V45.6523H206.765V47.0617Z" fill="#1A75E2"/>
<path d="M208.003 47.0617V40.2261H209.495V45.6464H213.091V47.0617H208.003Z" fill="#1A75E2"/>
<path d="M214.012 47.0617V40.2261H215.497V47.0617H214.012Z" fill="#1A75E2"/>
<path d="M223.7 47.0617H222.016L221.433 45.6112H218.498L217.921 47.0617H216.291L219.166 40.2261H220.814L223.7 47.0617ZM219.96 41.9702L219.009 44.3368H220.91L219.96 41.9702Z" fill="#1A75E2"/>
<path d="M229.275 43.4618V43.5146C229.6 43.638 229.865 43.8318 230.069 44.1078C230.274 44.3779 230.37 44.7126 230.37 45.1002C230.37 45.664 230.166 46.1338 229.751 46.5096C229.348 46.8855 228.842 47.0734 228.247 47.0734H224.434V40.2378H228.121C228.704 40.2378 229.191 40.4081 229.582 40.7487C229.973 41.0834 230.166 41.518 230.166 42.0524C230.166 42.3578 230.087 42.6396 229.925 42.8863C229.763 43.1388 229.546 43.3326 229.269 43.4677L229.275 43.4618ZM227.886 41.5532H225.92V42.992H227.874C228.103 42.992 228.289 42.9215 228.44 42.7806C228.584 42.6396 228.656 42.4693 228.656 42.2697C228.656 42.07 228.584 41.9056 228.44 41.7705C228.295 41.6296 228.109 41.5591 227.886 41.5591V41.5532ZM225.92 45.7462H228.043C228.277 45.7462 228.476 45.6698 228.626 45.523C228.776 45.3645 228.854 45.1824 228.854 44.971C228.854 44.7596 228.776 44.5952 228.614 44.4484C228.464 44.3074 228.265 44.237 228.019 44.237H225.92V45.7462Z" fill="#1A75E2"/>
<path d="M231.489 47.0617V40.2261H232.98V45.6464H236.577V47.0617H231.489Z" fill="#1A75E2"/>
<path d="M242.862 47.0617H237.503V40.2261H242.862V41.6355H238.982V42.9098H242.41V44.2546H238.982V45.6523H242.862V47.0617Z" fill="#1A75E2"/>
</g>
<defs>
<clipPath id="clip0_4875_8212">
<rect width="280" height="48.172" fill="white" transform="translate(0.666504 0.298828)"/>
</clipPath>
</defs>
</svg>
