<svg width="68" height="50" viewBox="0 0 68 50" fill="none" xmlns="http://www.w3.org/2000/svg">
<path d="M0.5 20.8951L15.0229 3.64624H27.2852L12.7623 20.9012H0.5V20.8951ZM9.81215 35.4087L31.0568 10.1722C32.6218 8.22532 34.3667 6.43614 36.2675 4.82285C38.4981 2.96696 41.1065 1.62053 43.9187 0.892729C47.5644 -0.0716073 51.414 0.0254328 55.0118 1.16565C58.5735 2.28768 61.6796 4.53173 63.8802 7.55211C66.6744 11.5186 67.8497 16.4009 67.1601 21.2044C66.8423 23.5698 66.0628 25.8563 64.8636 27.9184C63.6583 29.9805 62.0633 31.7818 60.1565 33.2253C57.9799 34.8386 55.4615 35.9363 52.7932 36.4215C51.2881 36.7369 49.7531 36.9128 48.212 36.931H42.2218L31.3686 49.8495H19.1423L36.5134 29.186L37.9345 27.4938H46.0054C48.8416 27.4938 51.8398 27.4938 54.2922 25.8987H54.3402C55.4915 25.1042 56.4389 24.0429 57.1044 22.8056C57.77 21.5683 58.1298 20.1976 58.1658 18.7966C58.1958 17.3956 57.8959 16.0067 57.2903 14.7391C56.6847 13.4776 55.7853 12.3738 54.67 11.5247L54.5501 11.4398L54.4841 11.3913L54.3941 11.3245C52.991 10.3359 51.3301 9.77796 49.6152 9.72944H49.5192C48.4099 9.68092 47.3006 9.79616 46.2273 10.0751C44.7282 10.4754 43.3311 11.2032 42.1378 12.21C40.6868 13.4655 39.3556 14.8483 38.1563 16.3464L22.0145 35.5118L9.81815 35.4269L9.81215 35.4087Z" fill="white"/>
</svg>
