<svg width="281" height="49" viewBox="0 0 281 49" fill="none" xmlns="http://www.w3.org/2000/svg">
<g clip-path="url(#clip0_4875_8238)">
<path d="M0.333008 20.3003L14.8992 3.59896H27.1981L12.6319 20.3062H0.333008V20.3003ZM9.67296 34.3532L30.981 9.91776C32.5507 8.03269 34.3008 6.30031 36.2073 4.73822C38.4446 2.94124 41.0607 1.63755 43.8813 0.932851C47.5379 -0.000875115 51.399 0.0930847 55.0075 1.19711C58.5799 2.28352 61.6952 4.45635 63.9024 7.38085C66.705 11.2215 67.8838 15.9488 67.1921 20.5998C66.8734 22.8901 66.0915 25.104 64.8887 27.1007C63.6799 29.0973 62.0801 30.8414 60.1676 32.2391C57.9845 33.8012 55.4585 34.8641 52.7823 35.3339C51.2727 35.6393 49.7331 35.8096 48.1875 35.8272H42.1793L31.2938 48.3356H19.0309L36.4539 28.328L37.8792 26.6896H45.9743C48.8189 26.6896 51.826 26.6896 54.2858 25.1451H54.3339C55.4886 24.3758 56.4389 23.3481 57.1064 22.1502C57.774 20.9522 58.1348 19.625 58.1709 18.2684C58.201 16.9119 57.9003 15.5671 57.2929 14.3397C56.6854 13.1183 55.7833 12.0495 54.6647 11.2273L54.5444 11.1451L54.4782 11.0981L54.388 11.0335C52.9807 10.0763 51.3148 9.53605 49.5948 9.48907H49.4985C48.3859 9.44209 47.2733 9.55367 46.1968 9.8238C44.6933 10.2114 43.292 10.9161 42.0951 11.8909C40.6397 13.1065 39.3046 14.4455 38.1018 15.896L21.9117 34.453L9.67897 34.3708L9.67296 34.3532Z" fill="#000099"/>
<path fill-rule="evenodd" clip-rule="evenodd" d="M163.491 25.0692C160.538 28.3636 154.734 27.5356 150.723 27.6296C148.04 27.6296 143.626 26.5784 144.227 23.2193C144.227 23.0314 144.51 21.3225 144.522 21.1875H149.454C150.903 21.1875 150.494 21.6044 150.32 22.8318C150.181 24.2646 151.986 24.7756 153.188 24.7521C154.584 24.7521 156.442 24.9459 157.591 24.0063C157.831 23.836 158.024 23.6069 158.156 23.3485C158.324 23.1547 158.679 20.2479 158.751 19.9542V19.919C158.613 17.2118 153.85 18.1631 152.058 17.9987C150.59 18.0281 149.135 17.7344 147.8 17.1413C146.645 16.5717 145.484 15.4853 145.635 14.1522C145.635 14.0994 145.905 11.2688 145.905 11.2218C146.001 10.7755 146.188 10.3468 146.453 9.971C146.717 9.59516 147.054 9.2663 147.451 9.01966C150.422 6.65892 155.305 7.20506 158.89 7.15808C160.556 7.10523 162.204 7.51043 163.641 8.32083C163.809 8.42654 163.966 8.54399 164.122 8.66731C164.477 8.94331 164.784 9.27805 165.018 9.65389C165.223 9.971 165.337 10.3292 165.355 10.6992C165.373 11.0692 165.289 11.4391 165.12 11.768H160.147C159.1 11.768 159.377 11.6505 158.86 10.9341C158.559 10.6052 158.18 10.3468 157.759 10.1883C157.338 10.0239 156.881 9.95926 156.43 9.99449C155.029 9.94751 153.297 9.99449 152.334 11.122C151.895 11.4509 151.865 12.5666 151.769 13.0541C151.552 14.4458 152.882 14.8569 154.572 14.8276C156.646 14.8745 159.816 14.6044 161.758 15.3443L161.993 15.4265C161.993 15.4265 164.038 16.3896 164.603 17.341C165.373 18.3334 164.296 22.3443 164.248 23.6245C164.14 24.1766 163.887 24.6875 163.515 25.1162V25.0692H163.491ZM112.238 17.0297C111.805 17.1883 111.366 17.3116 110.909 17.3938C108.78 17.9341 105.37 16.924 104.45 19.5079C104.45 19.872 103.927 23.0021 104.041 23.3016C104.348 24.4526 105.797 24.7932 106.898 24.7932H109.983C110.506 24.7403 111.017 24.5935 111.486 24.3586C111.781 24.2235 112.046 24.0356 112.256 23.8007C112.461 23.5776 112.599 23.3016 112.647 23.0079C112.701 22.591 113.477 16.7479 113.501 16.5599C113.128 16.6128 112.569 16.8653 112.226 16.9769V17.0239L112.238 17.0297ZM120.351 11.1338L118.09 27.0541V27.3007C116.382 27.6883 114.626 27.794 112.882 27.6061C112.28 27.5239 112.01 27.3301 112.208 26.4433C109.772 27.4475 107.126 27.8645 104.492 27.6589C102.958 27.6766 101.443 27.3653 100.053 26.7428C98.8988 26.1908 97.738 25.1279 97.9064 23.7537C97.9064 23.7537 98.6221 19.273 98.6161 19.273C98.6402 19.0381 98.6883 18.8091 98.7604 18.5859C98.8025 18.4567 98.8507 18.3276 98.9168 18.2042C98.983 18.075 99.0551 17.9517 99.1393 17.8284C99.2055 17.7344 99.2716 17.6463 99.3498 17.5583C99.7167 17.1178 100.15 16.7361 100.637 16.4307C101.521 15.8729 102.489 15.4677 103.512 15.2269C105.28 14.7042 108.966 14.945 110.825 14.8921C111.751 14.9156 112.653 14.6279 113.387 14.0876C113.639 13.9056 113.838 13.6648 113.964 13.3829C114.078 12.966 114.169 12.5432 114.229 12.1145C114.253 11.9031 114.229 11.6858 114.157 11.4861C114.084 11.2864 113.976 11.0985 113.826 10.94C112.84 9.83593 110.915 10.1178 109.574 10.0885C109.033 10.0885 108.491 10.1824 107.986 10.3703C106.591 10.8108 106.777 11.9148 105.376 11.7739H100.324V11.6388C100.342 11.3863 100.384 11.1338 100.456 10.893C100.823 10.0004 101.497 9.25456 102.363 8.77888C104.137 7.73945 106.182 7.20506 108.257 7.24029C110.211 7.30489 114.914 7.01127 116.743 7.56915C117.494 7.75707 118.21 8.05657 118.866 8.46764C119.623 8.90808 120.177 9.60691 120.411 10.4349C120.423 10.6581 120.399 10.8812 120.339 11.0926V11.1396L120.351 11.1338ZM248.933 17.0356C248.5 17.1883 248.049 17.3057 247.598 17.3997C245.433 17.9282 242.053 16.9534 241.139 19.5197C241.139 19.8838 240.622 23.0138 240.73 23.3074C241.049 24.4643 242.498 24.799 243.587 24.799H246.672C247.207 24.7521 247.731 24.6111 248.218 24.3703C248.512 24.2353 248.771 24.0415 248.987 23.8125C249.192 23.5893 249.324 23.3074 249.372 23.0138C249.433 22.5969 250.208 16.7596 250.238 16.5658C249.829 16.6128 249.264 16.8712 248.933 16.9828V17.0297V17.0356ZM257.046 11.1338L254.803 27.0071V27.2596C253.095 27.6413 251.339 27.747 249.595 27.565C248.987 27.4828 248.717 27.289 248.915 26.4022C246.48 27.4006 243.833 27.8116 241.199 27.612C239.666 27.6355 238.15 27.3242 236.755 26.7017C235.6 26.1438 234.439 25.0868 234.62 23.7126L235.329 19.2319C235.359 18.997 235.414 18.768 235.486 18.5448C235.522 18.4156 235.576 18.2864 235.642 18.1631C235.708 18.0339 235.78 17.9047 235.865 17.7814L236.075 17.5054C236.448 17.0708 236.881 16.695 237.362 16.3779C238.246 15.82 239.221 15.4148 240.249 15.1682C242.017 14.6514 245.704 14.8863 247.562 14.8393C248.482 14.851 249.384 14.5692 250.124 14.0348C250.365 13.8468 250.563 13.6061 250.695 13.3301C250.816 12.9131 250.906 12.4844 250.96 12.0499C250.984 11.8385 250.96 11.6212 250.888 11.4215C250.816 11.2218 250.701 11.0339 250.551 10.8754C249.571 9.77721 247.652 10.0532 246.311 10.0239C245.77 10.0239 245.229 10.1237 244.723 10.3175C243.328 10.752 243.515 11.8561 242.107 11.7151H237.061V11.5801C237.085 11.3275 237.128 11.0809 237.194 10.8343C237.561 9.94164 238.234 9.18996 239.1 8.72016C240.874 7.67486 242.919 7.14046 244.994 7.1757C246.937 7.25204 251.652 6.94667 253.48 7.51043C254.232 7.69247 254.947 7.99784 255.603 8.40892C256.235 8.79063 256.734 9.35439 257.028 10.018C257.076 10.1354 257.113 10.2529 257.131 10.3762C257.149 10.617 257.131 10.8577 257.058 11.0926V11.1396L257.046 11.1338ZM87.8267 10.0356C86.0466 10.0356 83.4064 9.8653 82.9733 11.9618L81.3435 22.8611C81.3195 23.0079 81.3195 23.1606 81.3435 23.3074C81.3916 23.5188 81.4879 23.7185 81.6202 23.8888C81.7525 24.065 81.9209 24.2059 82.1133 24.3116C82.7268 24.6464 83.4244 24.8108 84.1281 24.7814C85.5173 24.7814 87.3456 24.9693 88.4943 24.0356C88.7349 23.8653 88.9273 23.6363 89.0596 23.3779C89.1198 23.2428 89.1679 23.096 89.198 22.9492L90.8278 12.0205V11.9383C90.9661 10.3645 89.0476 9.98275 87.8267 9.98275V10.0297V10.0356ZM91.9765 7.26378C93.0109 7.38123 94.0213 7.67486 94.9475 8.13878C95.2542 8.30321 95.5429 8.49113 95.8195 8.69667C96.0541 8.87872 96.2646 9.09013 96.451 9.32503C96.7036 9.63627 96.878 9.99449 96.9682 10.3762C97.2148 10.6052 95.158 23.5893 95.0918 24.0121C95.0317 24.2 94.9535 24.3821 94.8573 24.5583C93.8649 26.1791 92.1088 26.8662 90.3286 27.3301C87.6584 27.9115 83.1718 27.9584 80.8864 26.461C80.8864 26.7135 79.9001 32.9618 79.84 33.3846C79.2807 33.6665 78.6672 33.8251 78.0357 33.8544C77.4103 33.8838 76.7788 33.7781 76.1954 33.5491C74.4212 32.8032 74.0724 31.2235 74.319 29.315L77.4945 7.73358V7.48694C78.8777 7.2814 80.273 7.1757 81.6683 7.18157C82.6787 7.23442 83.6529 7.18157 83.4785 8.47939C86.0646 7.02888 89.1078 6.98778 91.9645 7.2168V7.26378H91.9765ZM224.438 10.0415C222.658 10.0415 220.023 9.87117 219.584 11.9676L217.955 22.8729C217.937 23.0197 217.937 23.1665 217.955 23.3133C218.003 23.5247 218.099 23.7244 218.231 23.9005C218.363 24.0767 218.532 24.2235 218.724 24.3292C219.338 24.6581 220.035 24.8167 220.739 24.7932C222.128 24.7932 223.963 24.987 225.105 24.0474C225.346 23.8712 225.538 23.648 225.671 23.3838C225.737 23.2487 225.785 23.1078 225.809 22.9551L227.439 12.0264V11.9442C227.577 10.3762 225.665 9.99449 224.438 9.99449V10.0415ZM228.588 7.26965C229.628 7.38123 230.632 7.68073 231.559 8.15053C231.865 8.30909 232.154 8.49701 232.431 8.70254C232.671 8.89046 232.882 9.10187 233.062 9.33677C233.315 9.64801 233.489 10.0062 233.579 10.3879C233.826 10.617 231.769 23.6011 231.703 24.0297C231.643 24.2177 231.565 24.3938 231.468 24.57C230.476 26.1908 228.732 26.8779 226.94 27.3418C225.394 27.6472 223.818 27.7588 222.243 27.6707C220.577 27.7118 218.935 27.3007 217.497 26.4727C217.461 26.7193 216.511 32.9677 216.451 33.3964C215.892 33.6724 215.278 33.8309 214.647 33.8603C214.021 33.8897 213.39 33.784 212.806 33.5608C211.032 32.815 210.683 31.247 210.93 29.3267L214.112 7.7512L214.148 7.50455C215.531 7.29315 216.926 7.19331 218.321 7.19331C219.332 7.24616 220.306 7.19331 220.132 8.50288C222.676 7.04063 225.725 6.99952 228.563 7.22267L228.582 7.26965H228.588ZM263.439 27.5591C262.044 27.4299 260.709 26.9308 259.584 26.1262C259.35 25.9442 259.133 25.7328 258.953 25.4979C258.7 25.1866 258.526 24.8284 258.436 24.4467C258.135 24.6111 259.885 13.8527 259.861 13.6765C260.096 12.0851 260.535 9.14885 260.763 7.55153C261.761 7.32251 262.784 7.23442 263.812 7.28727C264.161 7.30489 264.504 7.36361 264.829 7.46932C264.967 7.5163 265.099 7.56915 265.232 7.63375C265.46 7.75707 265.659 7.91563 265.827 8.10355C265.917 8.20338 265.989 8.30321 266.062 8.41479C266.404 9.07251 266.495 9.83006 266.314 10.5465C265.845 14.6338 265.19 18.6975 264.588 22.7613C264.775 25.3687 269.111 25.0046 270.915 24.4702C271.396 24.3058 271.829 24.018 272.166 23.6422C272.358 23.4073 272.473 23.1195 272.497 22.82C273.206 18.0692 274.078 12.2789 274.77 7.5809C275.768 7.35187 276.791 7.26378 277.819 7.31663C278.15 7.34012 278.475 7.40472 278.781 7.51043C278.92 7.55741 279.052 7.61026 279.184 7.67486C279.407 7.79818 279.611 7.95674 279.78 8.14466C279.864 8.24449 279.942 8.35019 280.014 8.4559C280.345 9.13123 280.429 9.88879 280.255 10.617L278.403 23.9828C278.198 26.0734 277.651 28.1111 276.785 30.0314C275.642 32.0809 273.218 33.0205 270.981 33.461C269.267 33.8662 266.88 33.6782 265.117 33.6489C264.191 33.5902 261.876 33.6489 260.992 33.461C260.769 33.4257 260.559 33.3846 260.372 33.3435C259.392 33.1908 258.514 32.6741 257.918 31.9106C257.323 31.1472 257.052 30.1841 257.167 29.2328L262.357 29.268C263.53 29.268 262.856 29.6145 263.313 30.2605C264.534 31.3645 267.168 30.8301 268.624 30.5717C270.56 30.1841 271.709 28.164 271.955 26.2965C271.041 26.7663 270.067 27.1245 269.063 27.3594C267.21 27.6589 265.322 27.7118 263.451 27.518V27.565L263.439 27.5591ZM204.814 7.29902C205.265 7.35187 205.704 7.43408 206.143 7.55153C206.612 7.67486 207.075 7.83929 207.514 8.03895C207.749 8.14466 207.971 8.26798 208.188 8.40305C208.356 8.50875 208.512 8.62033 208.669 8.74952L208.777 8.83761C208.963 9.01966 209.138 9.20758 209.3 9.40724C209.39 9.51882 209.469 9.64801 209.547 9.75959C209.613 9.87704 209.673 9.99449 209.721 10.1178C209.769 10.2353 209.805 10.3586 209.829 10.4819C209.854 10.6052 209.872 10.7286 209.878 10.8577C209.144 16.513 208.194 22.1447 207.394 27.7881C207.201 27.8469 206.985 27.9173 206.816 27.9526C206.149 28.117 205.457 28.1464 204.778 28.0524C204.519 28.0113 204.26 27.9526 204.008 27.8821C203.641 27.7588 203.298 27.5767 202.991 27.3418C202.757 27.1598 202.552 26.9484 202.384 26.7076C202.294 26.5843 202.216 26.461 202.149 26.3259C201.873 25.721 201.795 25.0457 201.915 24.3938C202.51 20.3301 203.112 16.2663 203.719 12.2025C203.719 12.1849 203.719 12.1732 203.719 12.1556C203.737 12.0146 203.737 11.8737 203.719 11.7386C203.653 11.4567 203.509 11.2042 203.31 10.9928C203.094 10.7579 202.829 10.57 202.54 10.4408C202.372 10.3586 202.198 10.2999 202.017 10.2529C201.295 10.1061 200.55 10.0885 199.816 10.2059C199.455 10.2705 199.106 10.3762 198.769 10.5113C198.336 10.6874 197.958 10.9752 197.681 11.3393C196.46 16.6715 196.075 22.2739 195.161 27.7059H189.135C189.905 22.5381 190.632 17.3762 191.402 12.2143C191.42 12.0734 191.42 11.9324 191.402 11.7856C191.378 11.6447 191.336 11.5096 191.27 11.3804C191.132 11.1161 190.921 10.8871 190.668 10.7168C190.542 10.6228 190.398 10.5406 190.253 10.476C189.754 10.2588 189.213 10.153 188.666 10.1648C188.082 10.0943 187.493 10.153 186.94 10.3351C186.386 10.5171 185.875 10.8166 185.454 11.2101C184.107 16.513 183.915 22.1975 182.922 27.6472H176.704C177.702 20.9408 178.694 14.2344 179.681 7.52804C181.256 7.34013 182.85 7.29902 184.432 7.39298C185.147 7.45757 185.719 7.67486 185.911 8.41479C186.41 8.16227 186.928 7.94499 187.451 7.75707C187.824 7.62788 188.209 7.52217 188.594 7.44583C189.977 7.15221 191.402 7.1111 192.797 7.31663C193.05 7.35187 193.315 7.40472 193.567 7.46345C193.82 7.52217 194.066 7.60439 194.301 7.6866C194.535 7.76882 194.764 7.8569 194.975 7.95086C195.684 8.26798 196.334 8.70842 196.881 9.24868C198.054 8.35019 199.425 7.73358 200.886 7.43996C201.71 7.26965 202.552 7.18157 203.394 7.18744C203.875 7.18157 204.357 7.19919 204.838 7.25204L204.814 7.29902ZM170.726 7.29902C171.489 7.16395 172.265 7.11697 173.041 7.16982C173.372 7.19918 173.691 7.26378 174.003 7.36361C174.142 7.41059 174.274 7.46345 174.406 7.53392C174.635 7.65137 174.833 7.80405 175.002 7.99784C175.086 8.09768 175.164 8.20338 175.23 8.30909C175.296 8.42654 175.356 8.54986 175.411 8.67318C175.988 10.1002 174.49 16.7479 174.418 18.3452L173.137 27.3477L173.089 27.6296H167.027L167.081 27.2537L168.56 17.1589L169.962 7.65137V7.42234L170.726 7.28727V7.29902ZM140.643 25.1162C137.678 28.4165 131.886 27.5826 127.869 27.6766C125.193 27.6766 120.772 26.6313 121.38 23.2663C121.38 23.0784 121.656 21.3695 121.662 21.2344H126.594C128.043 21.2344 127.634 21.6514 127.466 22.8729C127.322 24.3175 129.132 24.8225 130.335 24.799C131.724 24.799 133.582 24.9928 134.737 24.0532C134.972 23.8771 135.164 23.6539 135.302 23.3955C135.471 23.2017 135.826 20.2948 135.898 20.0012V19.966C135.729 17.247 131.014 18.216 129.192 18.0457C127.725 18.075 126.269 17.7814 124.934 17.1883C123.779 16.6128 122.619 15.5205 122.775 14.1992C122.775 14.1463 123.039 11.3217 123.039 11.2688C123.136 10.8225 123.322 10.3938 123.587 10.018C123.851 9.64214 124.188 9.31328 124.585 9.06664C126.45 7.80405 128.675 7.15221 130.948 7.20506C133.823 7.31076 138.279 6.69415 140.775 8.37956C140.944 8.48526 141.112 8.60271 141.262 8.71429C141.617 8.99029 141.918 9.32503 142.152 9.70674C142.357 10.018 142.471 10.3762 142.489 10.7462C142.507 11.1161 142.429 11.4802 142.261 11.815H137.287C136.241 11.815 136.475 11.6975 136 10.9811C135.693 10.6522 135.32 10.3938 134.893 10.2353C134.472 10.0708 134.015 10.0062 133.558 10.0415C132.163 9.99449 130.425 10.0415 129.469 11.169C129.03 11.5037 129 12.6136 128.903 13.101C128.687 14.4928 130.016 14.9039 131.706 14.8745C133.781 14.9215 136.95 14.6514 138.905 15.3913L139.127 15.4735C140.198 15.82 141.112 16.5012 141.737 17.4056C142.507 18.398 141.419 22.4031 141.377 23.6833C141.25 24.1942 141.004 24.6698 140.643 25.0633V25.1162Z" fill="#000099"/>
<path fill-rule="evenodd" clip-rule="evenodd" d="M176.295 4.39195H170.274L170.876 0.298828H176.878L176.295 4.39195Z" fill="#000099"/>
<path d="M76.3215 40.2261H79.9239V41.6355H76.4237C76.2433 41.6355 76.1049 41.6825 76.0087 41.7764C75.9125 41.8704 75.8644 41.9878 75.8644 42.1229C75.8644 42.2403 75.9005 42.346 75.9786 42.44C76.0568 42.534 76.1651 42.5986 76.3034 42.6338L78.7993 43.2034C79.3165 43.3209 79.7074 43.5558 79.978 43.9081C80.2487 44.2546 80.387 44.6481 80.387 45.0826C80.387 45.6229 80.2006 46.0868 79.8217 46.4803C79.4548 46.8679 78.9376 47.0617 78.2761 47.0617H74.5232V45.6464H78.2219C78.3963 45.6464 78.5347 45.5935 78.6369 45.482C78.7512 45.3704 78.8053 45.2471 78.8053 45.1061C78.8053 44.8301 78.6489 44.6539 78.3362 44.5835L75.8283 44.0021C75.3171 43.8788 74.9322 43.6497 74.6555 43.3091C74.3849 42.9627 74.2466 42.5751 74.2466 42.1581C74.2466 41.6355 74.427 41.1833 74.7879 40.8016C75.1547 40.4199 75.6659 40.2319 76.3154 40.2319L76.3215 40.2261Z" fill="#000099"/>
<path d="M81.4575 47.0617V40.2261H82.943V47.0617H81.4575Z" fill="#000099"/>
<path d="M92.3371 40.2261V47.0617H90.8516V42.3695L88.855 47.0617H87.9047L85.9201 42.3872V47.0617H84.4346V40.2261H86.4914L88.3919 44.7773L90.2923 40.2261H92.3311H92.3371Z" fill="#000099"/>
<path d="M97.341 40.2261C98.0326 40.2261 98.61 40.4492 99.0731 40.9014C99.5422 41.3418 99.7707 41.8997 99.7707 42.5751C99.7707 43.2504 99.5362 43.8259 99.0611 44.2664C98.592 44.7009 98.0206 44.9182 97.335 44.9182H95.3082V47.0617H93.8228V40.2261H97.335H97.341ZM95.3143 43.544H97.2268C97.5275 43.544 97.774 43.4559 97.9665 43.2798C98.171 43.1036 98.2672 42.8687 98.2672 42.5751C98.2672 42.3049 98.165 42.0759 97.9665 41.8997C97.768 41.7236 97.5154 41.6355 97.2268 41.6355H95.3143V43.544Z" fill="#000099"/>
<path d="M100.769 47.0617V40.2261H102.261V45.6464H105.857V47.0617H100.769Z" fill="#000099"/>
<path d="M112.142 47.0617H106.783V40.2261H112.142V41.6355H108.263V42.9098H111.691V44.2546H108.263V45.6523H112.142V47.0617Z" fill="#000099"/>
<path d="M113.711 45.5288H115.227L114.204 48.4651H112.941L113.717 45.5288H113.711Z" fill="#000099"/>
<path d="M124.086 44.2956H125.619C125.505 45.1412 125.126 45.8342 124.483 46.3862C123.839 46.9323 123.039 47.2025 122.077 47.2025C121.006 47.2025 120.134 46.8619 119.467 46.1806C118.799 45.4936 118.462 44.6479 118.462 43.6496C118.462 42.6513 118.799 41.7939 119.467 41.1068C120.134 40.4139 121.006 40.0674 122.077 40.0674C123.009 40.0674 123.797 40.3375 124.44 40.8719C125.09 41.4122 125.475 42.0875 125.601 42.9097H124.056C123.935 42.481 123.701 42.1404 123.346 41.882C122.997 41.6177 122.57 41.4885 122.071 41.4944C121.445 41.5003 120.94 41.7117 120.555 42.1286C120.17 42.5338 119.978 43.0389 119.978 43.6379C119.978 44.2369 120.17 44.7419 120.555 45.1588C120.94 45.5758 121.451 45.7813 122.089 45.7813C122.6 45.7813 123.027 45.6463 123.382 45.3761C123.743 45.106 123.977 44.7419 124.08 44.2956H124.086Z" fill="#000099"/>
<path d="M132.71 46.1806C132.036 46.8619 131.146 47.2025 130.046 47.2025C128.945 47.2025 128.055 46.8619 127.369 46.1806C126.696 45.4936 126.353 44.6479 126.353 43.6496C126.353 42.6513 126.696 41.8056 127.375 41.1068C128.061 40.4139 128.945 40.0674 130.04 40.0674C131.134 40.0674 132.024 40.4139 132.704 41.1068C133.39 41.7998 133.726 42.6454 133.726 43.6496C133.726 44.6538 133.384 45.4936 132.704 46.1806H132.71ZM128.47 45.1588C128.867 45.5758 129.39 45.7813 130.046 45.7813C130.701 45.7813 131.224 45.5758 131.621 45.1588C132.018 44.7419 132.217 44.2369 132.217 43.6379C132.217 43.0389 132.018 42.5338 131.621 42.1169C131.224 41.6999 130.701 41.4944 130.046 41.4944C129.39 41.4944 128.867 41.6999 128.47 42.1169C128.073 42.5338 127.875 43.0389 127.875 43.6379C127.875 44.2369 128.073 44.736 128.47 45.1588Z" fill="#000099"/>
<path d="M139.885 44.7127V40.2261H141.37V47.0617H139.885L136.3 42.2991V47.0617H134.815V40.2261H136.505L139.879 44.7127H139.885Z" fill="#000099"/>
<path d="M145.839 45.2764L147.95 40.2261H149.538L146.621 47.0617H145.003L142.098 40.2261H143.71L145.839 45.2764Z" fill="#000099"/>
<path d="M155.558 47.0617H150.199V40.2261H155.558V41.6355H151.679V42.9098H155.107V44.2546H151.679V45.6523H155.558V47.0617Z" fill="#000099"/>
<path d="M161.86 44.7127V40.2261H163.346V47.0617H161.86L158.276 42.2991V47.0617H156.791V40.2261H158.48L161.854 44.7127H161.86Z" fill="#000099"/>
<path d="M164.832 47.0617V40.2261H166.317V47.0617H164.832Z" fill="#000099"/>
<path d="M173.173 47.0617H167.814V40.2261H173.173V41.6355H169.294V42.9098H172.722V44.2546H169.294V45.6523H173.173V47.0617Z" fill="#000099"/>
<path d="M179.476 44.7127V40.2261H180.961V47.0617H179.476L175.891 42.2991V47.0617H174.406V40.2261H176.096L179.47 44.7127H179.476Z" fill="#000099"/>
<path d="M181.912 40.2261H188.1V41.6355H185.749V47.0617H184.257V41.6355H181.918V40.2261H181.912Z" fill="#000099"/>
<path d="M188.299 45.5288H189.814L188.792 48.4651H187.529L188.305 45.5288H188.299Z" fill="#000099"/>
<path d="M195.094 47.0617H193.609V40.2261H197.193C197.915 40.2261 198.498 40.3905 198.937 40.7252C199.382 41.06 199.605 41.5298 199.605 42.1346C199.605 42.7395 199.376 43.2445 198.913 43.5734V43.6028C199.485 43.7437 199.767 44.1724 199.767 44.8771V47.0617H198.282V45.1414C198.282 44.8712 198.138 44.7361 197.843 44.7361H195.082V47.0617H195.094ZM195.094 41.6355V43.4207H197.079C197.392 43.4207 197.644 43.3444 197.831 43.1858C198.023 43.0214 198.126 42.8041 198.126 42.5222C198.126 42.2403 198.029 42.0348 197.831 41.8821C197.638 41.7177 197.386 41.6355 197.091 41.6355H195.094Z" fill="#000099"/>
<path d="M206.431 47.0617H201.073V40.2261H206.431V41.6355H202.552V42.9098H205.98V44.2546H202.552V45.6523H206.431V47.0617Z" fill="#000099"/>
<path d="M207.67 47.0617V40.2261H209.161V45.6464H212.758V47.0617H207.67Z" fill="#000099"/>
<path d="M213.678 47.0617V40.2261H215.164V47.0617H213.678Z" fill="#000099"/>
<path d="M223.367 47.0617H221.683L221.1 45.6112H218.165L217.587 47.0617H215.958L218.832 40.2261H220.48L223.367 47.0617ZM219.626 41.9702L218.676 44.3368H220.576L219.626 41.9702Z" fill="#000099"/>
<path d="M228.942 43.4618V43.5146C229.267 43.638 229.531 43.8318 229.736 44.1078C229.94 44.3779 230.037 44.7126 230.037 45.1002C230.037 45.664 229.832 46.1338 229.417 46.5096C229.014 46.8855 228.509 47.0734 227.914 47.0734H224.101V40.2378H227.787C228.371 40.2378 228.858 40.4081 229.249 40.7487C229.64 41.0834 229.832 41.518 229.832 42.0524C229.832 42.3578 229.754 42.6396 229.592 42.8863C229.429 43.1388 229.213 43.3326 228.936 43.4677L228.942 43.4618ZM227.553 41.5532H225.586V42.992H227.541C227.769 42.992 227.956 42.9215 228.106 42.7806C228.25 42.6396 228.323 42.4693 228.323 42.2697C228.323 42.07 228.25 41.9056 228.106 41.7705C227.962 41.6296 227.775 41.5591 227.553 41.5591V41.5532ZM225.586 45.7462H227.709C227.944 45.7462 228.142 45.6698 228.292 45.523C228.443 45.3645 228.521 45.1824 228.521 44.971C228.521 44.7596 228.443 44.5952 228.28 44.4484C228.13 44.3074 227.932 44.237 227.685 44.237H225.586V45.7462Z" fill="#000099"/>
<path d="M231.155 47.0617V40.2261H232.647V45.6464H236.243V47.0617H231.155Z" fill="#000099"/>
<path d="M242.528 47.0617H237.169V40.2261H242.528V41.6355H238.649V42.9098H242.077V44.2546H238.649V45.6523H242.528V47.0617Z" fill="#000099"/>
</g>
<defs>
<clipPath id="clip0_4875_8238">
<rect width="280" height="48.172" fill="white" transform="translate(0.333008 0.298828)"/>
</clipPath>
</defs>
</svg>
