<svg width="280" height="49" viewBox="0 0 280 49" fill="none" xmlns="http://www.w3.org/2000/svg">
<g clip-path="url(#clip0_4875_8225)">
<path d="M0 20.3003L14.5662 3.59896H26.8651L12.2989 20.3062H0V20.3003ZM9.33995 34.3532L30.648 9.91776C32.2177 8.03269 33.9678 6.30031 35.8743 4.73822C38.1116 2.94124 40.7277 1.63755 43.5483 0.932851C47.2049 -0.000875115 51.066 0.0930847 54.6745 1.19711C58.2469 2.28352 61.3622 4.45635 63.5694 7.38085C66.372 11.2215 67.5507 15.9488 66.8591 20.5998C66.5404 22.8901 65.7585 25.104 64.5557 27.1007C63.3469 29.0973 61.7471 30.8414 59.8346 32.2391C57.6515 33.8012 55.1255 34.8641 52.4493 35.3339C50.9397 35.6393 49.4001 35.8096 47.8545 35.8272H41.8463L30.9608 48.3356H18.6979L36.1209 28.328L37.5462 26.6896H45.6413C48.4859 26.6896 51.493 26.6896 53.9528 25.1451H54.0009C55.1556 24.3758 56.1059 23.3481 56.7734 22.1502C57.441 20.9522 57.8018 19.625 57.8379 18.2684C57.868 16.9119 57.5673 15.5671 56.9599 14.3397C56.3524 13.1183 55.4503 12.0495 54.3317 11.2273L54.2114 11.1451L54.1452 11.0981L54.055 11.0335C52.6477 10.0763 50.9818 9.53605 49.2618 9.48907H49.1655C48.0529 9.44209 46.9403 9.55367 45.8638 9.8238C44.3602 10.2114 42.959 10.9161 41.7621 11.8909C40.3067 13.1065 38.9716 14.4455 37.7688 15.896L21.5787 34.453L9.34596 34.3708L9.33995 34.3532Z" fill="white"/>
<path fill-rule="evenodd" clip-rule="evenodd" d="M163.158 25.0692C160.205 28.3636 154.401 27.5356 150.39 27.6296C147.707 27.6296 143.293 26.5784 143.894 23.2193C143.894 23.0314 144.177 21.3225 144.189 21.1875H149.121C150.57 21.1875 150.161 21.6044 149.987 22.8318C149.848 24.2646 151.653 24.7756 152.855 24.7521C154.251 24.7521 156.109 24.9459 157.258 24.0063C157.498 23.836 157.691 23.6069 157.823 23.3485C157.991 23.1547 158.346 20.2479 158.418 19.9542V19.919C158.28 17.2118 153.517 18.1631 151.725 17.9987C150.257 18.0281 148.802 17.7344 147.467 17.1413C146.312 16.5717 145.151 15.4853 145.302 14.1522C145.302 14.0994 145.572 11.2688 145.572 11.2218C145.668 10.7755 145.855 10.3468 146.12 9.971C146.384 9.59516 146.721 9.2663 147.118 9.01966C150.089 6.65892 154.972 7.20506 158.557 7.15808C160.223 7.10523 161.871 7.51043 163.308 8.32083C163.476 8.42654 163.633 8.54399 163.789 8.66731C164.144 8.94331 164.451 9.27805 164.685 9.65389C164.89 9.971 165.004 10.3292 165.022 10.6992C165.04 11.0692 164.956 11.4391 164.787 11.768H159.814C158.767 11.768 159.044 11.6505 158.527 10.9341C158.226 10.6052 157.847 10.3468 157.426 10.1883C157.005 10.0239 156.548 9.95926 156.097 9.99449C154.696 9.94751 152.964 9.99449 152.001 11.122C151.562 11.4509 151.532 12.5666 151.436 13.0541C151.219 14.4458 152.549 14.8569 154.239 14.8276C156.313 14.8745 159.483 14.6044 161.425 15.3443L161.66 15.4265C161.66 15.4265 163.705 16.3896 164.27 17.341C165.04 18.3334 163.963 22.3443 163.915 23.6245C163.807 24.1766 163.554 24.6875 163.182 25.1162V25.0692H163.158ZM111.905 17.0297C111.472 17.1883 111.033 17.3116 110.576 17.3938C108.447 17.9341 105.037 16.924 104.117 19.5079C104.117 19.872 103.594 23.0021 103.708 23.3016C104.015 24.4526 105.464 24.7932 106.565 24.7932H109.65C110.173 24.7403 110.684 24.5935 111.153 24.3586C111.448 24.2235 111.713 24.0356 111.923 23.8007C112.128 23.5776 112.266 23.3016 112.314 23.0079C112.368 22.591 113.144 16.7479 113.168 16.5599C112.795 16.6128 112.236 16.8653 111.893 16.9769V17.0239L111.905 17.0297ZM120.018 11.1338L117.757 27.0541V27.3007C116.049 27.6883 114.293 27.794 112.549 27.6061C111.947 27.5239 111.677 27.3301 111.875 26.4433C109.439 27.4475 106.793 27.8645 104.159 27.6589C102.625 27.6766 101.11 27.3653 99.7205 26.7428C98.5658 26.1908 97.405 25.1279 97.5734 23.7537C97.5734 23.7537 98.2891 19.273 98.2831 19.273C98.3072 19.0381 98.3553 18.8091 98.4274 18.5859C98.4695 18.4567 98.5176 18.3276 98.5838 18.2042C98.65 18.075 98.7221 17.9517 98.8063 17.8284C98.8725 17.7344 98.9386 17.6463 99.0168 17.5583C99.3837 17.1178 99.8167 16.7361 100.304 16.4307C101.188 15.8729 102.156 15.4677 103.179 15.2269C104.947 14.7042 108.633 14.945 110.492 14.8921C111.418 14.9156 112.32 14.6279 113.054 14.0876C113.306 13.9056 113.505 13.6648 113.631 13.3829C113.745 12.966 113.836 12.5432 113.896 12.1145C113.92 11.9031 113.896 11.6858 113.824 11.4861C113.751 11.2864 113.643 11.0985 113.493 10.94C112.507 9.83593 110.582 10.1178 109.241 10.0885C108.7 10.0885 108.158 10.1824 107.653 10.3703C106.258 10.8108 106.444 11.9148 105.043 11.7739H99.9911V11.6388C100.009 11.3863 100.051 11.1338 100.123 10.893C100.49 10.0004 101.164 9.25456 102.03 8.77888C103.804 7.73945 105.849 7.20506 107.924 7.24029C109.878 7.30489 114.581 7.01127 116.41 7.56915C117.161 7.75707 117.877 8.05657 118.533 8.46764C119.29 8.90808 119.844 9.60691 120.078 10.4349C120.09 10.6581 120.066 10.8812 120.006 11.0926V11.1396L120.018 11.1338ZM248.6 17.0356C248.167 17.1883 247.716 17.3057 247.265 17.3997C245.1 17.9282 241.72 16.9534 240.806 19.5197C240.806 19.8838 240.289 23.0138 240.397 23.3074C240.716 24.4643 242.165 24.799 243.254 24.799H246.339C246.874 24.7521 247.398 24.6111 247.885 24.3703C248.179 24.2353 248.438 24.0415 248.654 23.8125C248.859 23.5893 248.991 23.3074 249.039 23.0138C249.1 22.5969 249.875 16.7596 249.905 16.5658C249.496 16.6128 248.931 16.8712 248.6 16.9828V17.0297V17.0356ZM256.713 11.1338L254.47 27.0071V27.2596C252.762 27.6413 251.006 27.747 249.262 27.565C248.654 27.4828 248.384 27.289 248.582 26.4022C246.147 27.4006 243.5 27.8116 240.866 27.612C239.333 27.6355 237.817 27.3242 236.422 26.7017C235.267 26.1438 234.106 25.0868 234.287 23.7126L234.996 19.2319C235.026 18.997 235.081 18.768 235.153 18.5448C235.189 18.4156 235.243 18.2864 235.309 18.1631C235.375 18.0339 235.447 17.9047 235.532 17.7814L235.742 17.5054C236.115 17.0708 236.548 16.695 237.029 16.3779C237.913 15.82 238.888 15.4148 239.916 15.1682C241.684 14.6514 245.371 14.8863 247.229 14.8393C248.149 14.851 249.051 14.5692 249.791 14.0348C250.032 13.8468 250.23 13.6061 250.362 13.3301C250.483 12.9131 250.573 12.4844 250.627 12.0499C250.651 11.8385 250.627 11.6212 250.555 11.4215C250.483 11.2218 250.368 11.0339 250.218 10.8754C249.238 9.77721 247.319 10.0532 245.978 10.0239C245.437 10.0239 244.896 10.1237 244.39 10.3175C242.995 10.752 243.182 11.8561 241.774 11.7151H236.728V11.5801C236.752 11.3275 236.795 11.0809 236.861 10.8343C237.228 9.94164 237.901 9.18996 238.767 8.72016C240.541 7.67486 242.586 7.14046 244.661 7.1757C246.604 7.25204 251.319 6.94667 253.147 7.51043C253.899 7.69247 254.614 7.99784 255.27 8.40892C255.902 8.79063 256.401 9.35439 256.695 10.018C256.743 10.1354 256.78 10.2529 256.798 10.3762C256.816 10.617 256.798 10.8577 256.725 11.0926V11.1396L256.713 11.1338ZM87.4937 10.0356C85.7136 10.0356 83.0734 9.8653 82.6403 11.9618L81.0105 22.8611C80.9864 23.0079 80.9864 23.1606 81.0105 23.3074C81.0586 23.5188 81.1548 23.7185 81.2872 23.8888C81.4195 24.065 81.5879 24.2059 81.7803 24.3116C82.3938 24.6464 83.0914 24.8108 83.7951 24.7814C85.1843 24.7814 87.0126 24.9693 88.1613 24.0356C88.4019 23.8653 88.5943 23.6363 88.7266 23.3779C88.7868 23.2428 88.8349 23.096 88.865 22.9492L90.4948 12.0205V11.9383C90.6331 10.3645 88.7146 9.98275 87.4937 9.98275V10.0297V10.0356ZM91.6435 7.26378C92.6779 7.38123 93.6883 7.67486 94.6145 8.13878C94.9212 8.30321 95.2099 8.49113 95.4865 8.69667C95.7211 8.87872 95.9316 9.09013 96.118 9.32503C96.3706 9.63627 96.545 9.99449 96.6352 10.3762C96.8818 10.6052 94.825 23.5893 94.7588 24.0121C94.6987 24.2 94.6205 24.3821 94.5243 24.5583C93.5319 26.1791 91.7758 26.8662 89.9956 27.3301C87.3253 27.9115 82.8388 27.9584 80.5534 26.461C80.5534 26.7135 79.5671 32.9618 79.507 33.3846C78.9477 33.6665 78.3342 33.8251 77.7027 33.8544C77.0773 33.8838 76.4458 33.7781 75.8624 33.5491C74.0882 32.8032 73.7394 31.2235 73.986 29.315L77.1615 7.73358V7.48694C78.5447 7.2814 79.94 7.1757 81.3353 7.18157C82.3456 7.23442 83.3199 7.18157 83.1455 8.47939C85.7316 7.02888 88.7748 6.98778 91.6315 7.2168V7.26378H91.6435ZM224.105 10.0415C222.325 10.0415 219.69 9.87117 219.251 11.9676L217.622 22.8729C217.604 23.0197 217.604 23.1665 217.622 23.3133C217.67 23.5247 217.766 23.7244 217.898 23.9005C218.03 24.0767 218.199 24.2235 218.391 24.3292C219.005 24.6581 219.702 24.8167 220.406 24.7932C221.795 24.7932 223.63 24.987 224.772 24.0474C225.013 23.8712 225.205 23.648 225.338 23.3838C225.404 23.2487 225.452 23.1078 225.476 22.9551L227.106 12.0264V11.9442C227.244 10.3762 225.332 9.99449 224.105 9.99449V10.0415ZM228.255 7.26965C229.295 7.38123 230.299 7.68073 231.226 8.15053C231.532 8.30909 231.821 8.49701 232.098 8.70254C232.338 8.89046 232.549 9.10187 232.729 9.33677C232.982 9.64801 233.156 10.0062 233.246 10.3879C233.493 10.617 231.436 23.6011 231.37 24.0297C231.31 24.2177 231.232 24.3938 231.135 24.57C230.143 26.1908 228.399 26.8779 226.607 27.3418C225.061 27.6472 223.485 27.7588 221.91 27.6707C220.244 27.7118 218.602 27.3007 217.164 26.4727C217.128 26.7193 216.178 32.9677 216.118 33.3964C215.559 33.6724 214.945 33.8309 214.314 33.8603C213.688 33.8897 213.057 33.784 212.473 33.5608C210.699 32.815 210.35 31.247 210.597 29.3267L213.779 7.7512L213.815 7.50455C215.198 7.29315 216.593 7.19331 217.988 7.19331C218.999 7.24616 219.973 7.19331 219.799 8.50288C222.343 7.04063 225.392 6.99952 228.23 7.22267L228.249 7.26965H228.255ZM263.106 27.5591C261.711 27.4299 260.376 26.9308 259.251 26.1262C259.017 25.9442 258.8 25.7328 258.62 25.4979C258.367 25.1866 258.193 24.8284 258.103 24.4467C257.802 24.6111 259.552 13.8527 259.528 13.6765C259.763 12.0851 260.202 9.14885 260.43 7.55153C261.428 7.32251 262.451 7.23442 263.479 7.28727C263.828 7.30489 264.171 7.36361 264.496 7.46932C264.634 7.5163 264.766 7.56915 264.899 7.63375C265.127 7.75707 265.326 7.91563 265.494 8.10355C265.584 8.20338 265.656 8.30321 265.729 8.41479C266.071 9.07251 266.162 9.83006 265.981 10.5465C265.512 14.6338 264.857 18.6975 264.255 22.7613C264.442 25.3687 268.778 25.0046 270.582 24.4702C271.063 24.3058 271.496 24.018 271.833 23.6422C272.025 23.4073 272.14 23.1195 272.164 22.82C272.873 18.0692 273.745 12.2789 274.437 7.5809C275.435 7.35187 276.458 7.26378 277.486 7.31663C277.817 7.34012 278.142 7.40472 278.448 7.51043C278.587 7.55741 278.719 7.61026 278.851 7.67486C279.074 7.79818 279.278 7.95674 279.447 8.14466C279.531 8.24449 279.609 8.35019 279.681 8.4559C280.012 9.13123 280.096 9.88879 279.922 10.617L278.07 23.9828C277.865 26.0734 277.318 28.1111 276.452 30.0314C275.309 32.0809 272.885 33.0205 270.648 33.461C268.934 33.8662 266.546 33.6782 264.784 33.6489C263.858 33.5902 261.543 33.6489 260.659 33.461C260.436 33.4257 260.226 33.3846 260.039 33.3435C259.059 33.1908 258.181 32.6741 257.585 31.9106C256.99 31.1472 256.719 30.1841 256.834 29.2328L262.024 29.268C263.197 29.268 262.523 29.6145 262.98 30.2605C264.201 31.3645 266.835 30.8301 268.291 30.5717C270.227 30.1841 271.376 28.164 271.622 26.2965C270.708 26.7663 269.734 27.1245 268.73 27.3594C266.877 27.6589 264.989 27.7118 263.118 27.518V27.565L263.106 27.5591ZM204.481 7.29902C204.932 7.35187 205.371 7.43408 205.81 7.55153C206.279 7.67486 206.742 7.83929 207.181 8.03895C207.416 8.14466 207.638 8.26798 207.855 8.40305C208.023 8.50875 208.179 8.62033 208.336 8.74952L208.444 8.83761C208.63 9.01966 208.805 9.20758 208.967 9.40724C209.057 9.51882 209.136 9.64801 209.214 9.75959C209.28 9.87704 209.34 9.99449 209.388 10.1178C209.436 10.2353 209.472 10.3586 209.496 10.4819C209.52 10.6052 209.539 10.7286 209.545 10.8577C208.811 16.513 207.861 22.1447 207.061 27.7881C206.868 27.8469 206.652 27.9173 206.483 27.9526C205.816 28.117 205.124 28.1464 204.445 28.0524C204.186 28.0113 203.927 27.9526 203.675 27.8821C203.308 27.7588 202.965 27.5767 202.658 27.3418C202.424 27.1598 202.219 26.9484 202.051 26.7076C201.961 26.5843 201.883 26.461 201.816 26.3259C201.54 25.721 201.462 25.0457 201.582 24.3938C202.177 20.3301 202.779 16.2663 203.386 12.2025C203.386 12.1849 203.386 12.1732 203.386 12.1556C203.404 12.0146 203.404 11.8737 203.386 11.7386C203.32 11.4567 203.176 11.2042 202.977 10.9928C202.761 10.7579 202.496 10.57 202.207 10.4408C202.039 10.3586 201.865 10.2999 201.684 10.2529C200.962 10.1061 200.217 10.0885 199.483 10.2059C199.122 10.2705 198.773 10.3762 198.436 10.5113C198.003 10.6874 197.625 10.9752 197.348 11.3393C196.127 16.6715 195.742 22.2739 194.828 27.7059H188.802C189.572 22.5381 190.299 17.3762 191.069 12.2143C191.087 12.0734 191.087 11.9324 191.069 11.7856C191.045 11.6447 191.003 11.5096 190.937 11.3804C190.799 11.1161 190.588 10.8871 190.335 10.7168C190.209 10.6228 190.065 10.5406 189.92 10.476C189.421 10.2588 188.88 10.153 188.333 10.1648C187.749 10.0943 187.16 10.153 186.607 10.3351C186.053 10.5171 185.542 10.8166 185.121 11.2101C183.774 16.513 183.582 22.1975 182.589 27.6472H176.371C177.369 20.9408 178.361 14.2344 179.348 7.52804C180.923 7.34013 182.517 7.29902 184.099 7.39298C184.814 7.45757 185.386 7.67486 185.578 8.41479C186.077 8.16227 186.595 7.94499 187.118 7.75707C187.491 7.62788 187.876 7.52217 188.261 7.44583C189.644 7.15221 191.069 7.1111 192.464 7.31663C192.717 7.35187 192.982 7.40472 193.234 7.46345C193.487 7.52217 193.733 7.60439 193.968 7.6866C194.202 7.76882 194.431 7.8569 194.642 7.95086C195.351 8.26798 196.001 8.70842 196.548 9.24868C197.721 8.35019 199.092 7.73358 200.553 7.43996C201.377 7.26965 202.219 7.18157 203.061 7.18744C203.542 7.18157 204.024 7.19919 204.505 7.25204L204.481 7.29902ZM170.393 7.29902C171.156 7.16395 171.932 7.11697 172.708 7.16982C173.039 7.19918 173.358 7.26378 173.67 7.36361C173.809 7.41059 173.941 7.46345 174.073 7.53392C174.302 7.65137 174.5 7.80405 174.669 7.99784C174.753 8.09768 174.831 8.20338 174.897 8.30909C174.963 8.42654 175.023 8.54986 175.078 8.67318C175.655 10.1002 174.157 16.7479 174.085 18.3452L172.804 27.3477L172.756 27.6296H166.694L166.748 27.2537L168.227 17.1589L169.629 7.65137V7.42234L170.393 7.28727V7.29902ZM140.31 25.1162C137.345 28.4165 131.553 27.5826 127.536 27.6766C124.86 27.6766 120.439 26.6313 121.047 23.2663C121.047 23.0784 121.323 21.3695 121.329 21.2344H126.261C127.71 21.2344 127.301 21.6514 127.133 22.8729C126.989 24.3175 128.799 24.8225 130.002 24.799C131.391 24.799 133.249 24.9928 134.404 24.0532C134.639 23.8771 134.831 23.6539 134.969 23.3955C135.138 23.2017 135.493 20.2948 135.565 20.0012V19.966C135.396 17.247 130.681 18.216 128.859 18.0457C127.391 18.075 125.936 17.7814 124.601 17.1883C123.446 16.6128 122.285 15.5205 122.442 14.1992C122.442 14.1463 122.706 11.3217 122.706 11.2688C122.803 10.8225 122.989 10.3938 123.254 10.018C123.518 9.64214 123.855 9.31328 124.252 9.06664C126.117 7.80405 128.342 7.15221 130.615 7.20506C133.49 7.31076 137.946 6.69415 140.442 8.37956C140.611 8.48526 140.779 8.60271 140.929 8.71429C141.284 8.99029 141.585 9.32503 141.819 9.70674C142.024 10.018 142.138 10.3762 142.156 10.7462C142.174 11.1161 142.096 11.4802 141.928 11.815H136.954C135.908 11.815 136.142 11.6975 135.667 10.9811C135.36 10.6522 134.987 10.3938 134.56 10.2353C134.139 10.0708 133.682 10.0062 133.225 10.0415C131.83 9.99449 130.092 10.0415 129.136 11.169C128.697 11.5037 128.666 12.6136 128.57 13.101C128.354 14.4928 129.683 14.9039 131.373 14.8745C133.448 14.9215 136.617 14.6514 138.572 15.3913L138.794 15.4735C139.865 15.82 140.779 16.5012 141.404 17.4056C142.174 18.398 141.086 22.4031 141.044 23.6833C140.917 24.1942 140.671 24.6698 140.31 25.0633V25.1162Z" fill="white"/>
<path fill-rule="evenodd" clip-rule="evenodd" d="M175.962 4.39195H169.941L170.543 0.298828H176.545L175.962 4.39195Z" fill="white"/>
<path d="M75.9884 40.2261H79.5909V41.6355H76.0907C75.9103 41.6355 75.7719 41.6825 75.6757 41.7764C75.5795 41.8704 75.5314 41.9878 75.5314 42.1229C75.5314 42.2403 75.5675 42.346 75.6456 42.44C75.7238 42.534 75.8321 42.5986 75.9704 42.6338L78.4663 43.2034C78.9835 43.3209 79.3744 43.5558 79.645 43.9081C79.9157 44.2546 80.054 44.6481 80.054 45.0826C80.054 45.6229 79.8676 46.0868 79.4887 46.4803C79.1218 46.8679 78.6046 47.0617 77.943 47.0617H74.1902V45.6464H77.8889C78.0633 45.6464 78.2016 45.5935 78.3039 45.482C78.4182 45.3704 78.4723 45.2471 78.4723 45.1061C78.4723 44.8301 78.3159 44.6539 78.0032 44.5835L75.4953 44.0021C74.9841 43.8788 74.5992 43.6497 74.3225 43.3091C74.0519 42.9627 73.9136 42.5751 73.9136 42.1581C73.9136 41.6355 74.094 41.1833 74.4548 40.8016C74.8217 40.4199 75.3329 40.2319 75.9824 40.2319L75.9884 40.2261Z" fill="white"/>
<path d="M81.1245 47.0617V40.2261H82.61V47.0617H81.1245Z" fill="white"/>
<path d="M92.0041 40.2261V47.0617H90.5186V42.3695L88.522 47.0617H87.5717L85.5871 42.3872V47.0617H84.1016V40.2261H86.1584L88.0589 44.7773L89.9593 40.2261H91.9981H92.0041Z" fill="white"/>
<path d="M97.008 40.2261C97.6996 40.2261 98.277 40.4492 98.7401 40.9014C99.2092 41.3418 99.4377 41.8997 99.4377 42.5751C99.4377 43.2504 99.2032 43.8259 98.7281 44.2664C98.259 44.7009 97.6876 44.9182 97.002 44.9182H94.9752V47.0617H93.4897V40.2261H97.002H97.008ZM94.9812 43.544H96.8937C97.1945 43.544 97.441 43.4559 97.6335 43.2798C97.838 43.1036 97.9342 42.8687 97.9342 42.5751C97.9342 42.3049 97.8319 42.0759 97.6335 41.8997C97.435 41.7236 97.1824 41.6355 96.8937 41.6355H94.9812V43.544Z" fill="white"/>
<path d="M100.436 47.0617V40.2261H101.928V45.6464H105.524V47.0617H100.436Z" fill="white"/>
<path d="M111.809 47.0617H106.45V40.2261H111.809V41.6355H107.93V42.9098H111.358V44.2546H107.93V45.6523H111.809V47.0617Z" fill="white"/>
<path d="M113.378 45.5288H114.894L113.871 48.4651H112.608L113.384 45.5288H113.378Z" fill="white"/>
<path d="M123.753 44.2956H125.286C125.172 45.1412 124.793 45.8342 124.15 46.3862C123.506 46.9323 122.706 47.2025 121.744 47.2025C120.673 47.2025 119.801 46.8619 119.134 46.1806C118.466 45.4936 118.129 44.6479 118.129 43.6496C118.129 42.6513 118.466 41.7939 119.134 41.1068C119.801 40.4139 120.673 40.0674 121.744 40.0674C122.676 40.0674 123.464 40.3375 124.107 40.8719C124.757 41.4122 125.142 42.0875 125.268 42.9097H123.723C123.602 42.481 123.368 42.1404 123.013 41.882C122.664 41.6177 122.237 41.4885 121.738 41.4944C121.112 41.5003 120.607 41.7117 120.222 42.1286C119.837 42.5338 119.645 43.0389 119.645 43.6379C119.645 44.2369 119.837 44.7419 120.222 45.1588C120.607 45.5758 121.118 45.7813 121.756 45.7813C122.267 45.7813 122.694 45.6463 123.049 45.3761C123.41 45.106 123.644 44.7419 123.747 44.2956H123.753Z" fill="white"/>
<path d="M132.377 46.1806C131.703 46.8619 130.813 47.2025 129.713 47.2025C128.612 47.2025 127.722 46.8619 127.036 46.1806C126.363 45.4936 126.02 44.6479 126.02 43.6496C126.02 42.6513 126.363 41.8056 127.042 41.1068C127.728 40.4139 128.612 40.0674 129.707 40.0674C130.801 40.0674 131.691 40.4139 132.371 41.1068C133.057 41.7998 133.393 42.6454 133.393 43.6496C133.393 44.6538 133.051 45.4936 132.371 46.1806H132.377ZM128.137 45.1588C128.534 45.5758 129.057 45.7813 129.713 45.7813C130.368 45.7813 130.891 45.5758 131.288 45.1588C131.685 44.7419 131.884 44.2369 131.884 43.6379C131.884 43.0389 131.685 42.5338 131.288 42.1169C130.891 41.6999 130.368 41.4944 129.713 41.4944C129.057 41.4944 128.534 41.6999 128.137 42.1169C127.74 42.5338 127.542 43.0389 127.542 43.6379C127.542 44.2369 127.74 44.736 128.137 45.1588Z" fill="white"/>
<path d="M139.552 44.7127V40.2261H141.037V47.0617H139.552L135.967 42.2991V47.0617H134.482V40.2261H136.172L139.546 44.7127H139.552Z" fill="white"/>
<path d="M145.506 45.2764L147.617 40.2261H149.205L146.288 47.0617H144.67L141.765 40.2261H143.377L145.506 45.2764Z" fill="white"/>
<path d="M155.225 47.0617H149.866V40.2261H155.225V41.6355H151.346V42.9098H154.774V44.2546H151.346V45.6523H155.225V47.0617Z" fill="white"/>
<path d="M161.527 44.7127V40.2261H163.013V47.0617H161.527L157.943 42.2991V47.0617H156.458V40.2261H158.147L161.521 44.7127H161.527Z" fill="white"/>
<path d="M164.499 47.0617V40.2261H165.984V47.0617H164.499Z" fill="white"/>
<path d="M172.84 47.0617H167.481V40.2261H172.84V41.6355H168.961V42.9098H172.389V44.2546H168.961V45.6523H172.84V47.0617Z" fill="white"/>
<path d="M179.143 44.7127V40.2261H180.628V47.0617H179.143L175.558 42.2991V47.0617H174.073V40.2261H175.763L179.137 44.7127H179.143Z" fill="white"/>
<path d="M181.579 40.2261H187.767V41.6355H185.416V47.0617H183.924V41.6355H181.585V40.2261H181.579Z" fill="white"/>
<path d="M187.966 45.5288H189.481L188.459 48.4651H187.196L187.972 45.5288H187.966Z" fill="white"/>
<path d="M194.761 47.0617H193.276V40.2261H196.86C197.582 40.2261 198.165 40.3905 198.604 40.7252C199.049 41.06 199.272 41.5298 199.272 42.1346C199.272 42.7395 199.043 43.2445 198.58 43.5734V43.6028C199.152 43.7437 199.434 44.1724 199.434 44.8771V47.0617H197.949V45.1414C197.949 44.8712 197.805 44.7361 197.51 44.7361H194.749V47.0617H194.761ZM194.761 41.6355V43.4207H196.746C197.059 43.4207 197.311 43.3444 197.498 43.1858C197.69 43.0214 197.792 42.8041 197.792 42.5222C197.792 42.2403 197.696 42.0348 197.498 41.8821C197.305 41.7177 197.053 41.6355 196.758 41.6355H194.761Z" fill="white"/>
<path d="M206.098 47.0617H200.74V40.2261H206.098V41.6355H202.219V42.9098H205.647V44.2546H202.219V45.6523H206.098V47.0617Z" fill="white"/>
<path d="M207.337 47.0617V40.2261H208.828V45.6464H212.425V47.0617H207.337Z" fill="white"/>
<path d="M213.345 47.0617V40.2261H214.831V47.0617H213.345Z" fill="white"/>
<path d="M223.034 47.0617H221.35L220.767 45.6112H217.832L217.254 47.0617H215.625L218.499 40.2261H220.147L223.034 47.0617ZM219.293 41.9702L218.343 44.3368H220.243L219.293 41.9702Z" fill="white"/>
<path d="M228.609 43.4618V43.5146C228.934 43.638 229.198 43.8318 229.403 44.1078C229.607 44.3779 229.704 44.7126 229.704 45.1002C229.704 45.664 229.499 46.1338 229.084 46.5096C228.681 46.8855 228.176 47.0734 227.581 47.0734H223.768V40.2378H227.454C228.038 40.2378 228.525 40.4081 228.916 40.7487C229.307 41.0834 229.499 41.518 229.499 42.0524C229.499 42.3578 229.421 42.6396 229.258 42.8863C229.096 43.1388 228.88 43.3326 228.603 43.4677L228.609 43.4618ZM227.22 41.5532H225.253V42.992H227.208C227.436 42.992 227.623 42.9215 227.773 42.7806C227.917 42.6396 227.99 42.4693 227.99 42.2697C227.99 42.07 227.917 41.9056 227.773 41.7705C227.629 41.6296 227.442 41.5591 227.22 41.5591V41.5532ZM225.253 45.7462H227.376C227.611 45.7462 227.809 45.6698 227.959 45.523C228.11 45.3645 228.188 45.1824 228.188 44.971C228.188 44.7596 228.11 44.5952 227.947 44.4484C227.797 44.3074 227.599 44.237 227.352 44.237H225.253V45.7462Z" fill="white"/>
<path d="M230.822 47.0617V40.2261H232.314V45.6464H235.91V47.0617H230.822Z" fill="white"/>
<path d="M242.195 47.0617H236.836V40.2261H242.195V41.6355H238.316V42.9098H241.744V44.2546H238.316V45.6523H242.195V47.0617Z" fill="white"/>
</g>
<defs>
<clipPath id="clip0_4875_8225">
<rect width="280" height="48.172" fill="white" transform="translate(0 0.298828)"/>
</clipPath>
</defs>
</svg>
