<svg width="25" height="26" viewBox="0 0 25 26" fill="none" xmlns="http://www.w3.org/2000/svg">
<rect y="0.5" width="25" height="25" rx="5" fill="white"/>
<path d="M17.4349 17.92C17.3148 18.0401 17.1648 18.0852 17.0148 18.0852C16.8648 18.0852 16.7148 18.0255 16.5947 17.92L12.5001 13.8248L8.40499 17.92C8.28487 18.0401 8.13487 18.0999 7.98487 18.0999C7.83487 18.0999 7.68487 18.0401 7.56475 17.9346C7.33975 17.7096 7.33975 17.3346 7.56475 17.1096L11.675 12.9999L7.56535 8.90478C7.34035 8.67978 7.34035 8.30478 7.56535 8.07978C7.79035 7.85478 8.16535 7.85478 8.39035 8.07978L12.5 12.1749L16.5952 8.06523C16.8202 7.84023 17.1952 7.84023 17.4202 8.06523C17.6452 8.29023 17.6452 8.66523 17.4202 8.89023L13.325 12.9999L17.4347 17.0951C17.6597 17.3201 17.6597 17.6951 17.4347 17.9201L17.4349 17.92Z" fill="#203451"/>
</svg>
