<svg width="21" height="21" viewBox="0 0 21 21" fill="none" xmlns="http://www.w3.org/2000/svg">
<g clip-path="url(#clip0_4915_8473)">
<path fill-rule="evenodd" clip-rule="evenodd" d="M10.4998 18.5832C15.1022 18.5832 18.8332 14.8522 18.8332 10.2498C18.8332 5.64746 15.1022 1.9165 10.4998 1.9165C5.89746 1.9165 2.1665 5.64746 2.1665 10.2498C2.1665 14.8522 5.89746 18.5832 10.4998 18.5832ZM14.4629 8.29561C14.7643 7.94782 14.7268 7.42152 14.3789 7.1201C14.0312 6.81867 13.5048 6.85626 13.2034 7.20406L9.49984 11.4774L7.79625 9.51175C7.49482 9.16392 6.96852 9.12634 6.62073 9.42775C6.27293 9.72917 6.23534 10.2555 6.53676 10.6033L8.87009 13.2956C9.02842 13.4783 9.25817 13.5832 9.49984 13.5832C9.7415 13.5832 9.97125 13.4783 10.1296 13.2956L14.4629 8.29561Z" fill="#16C784"/>
</g>
<defs>
<clipPath id="clip0_4915_8473">
<rect width="20" height="20" fill="white" transform="translate(0.5 0.25)"/>
</clipPath>
</defs>
</svg>
