<svg width="8" height="6" viewBox="0 0 8 6" fill="none" xmlns="http://www.w3.org/2000/svg">
<path d="M0 0H3.41797C4.08984 0 4.58724 0.164062 4.91016 0.492187C5.23568 0.820312 5.39974 1.30208 5.40234 1.9375V4.03906H4.21484V1.9375C4.21224 1.61979 4.14453 1.38542 4.01172 1.23438C3.87891 1.08333 3.65885 1.00781 3.35156 1.00781H1.1875V6H0V0ZM2.10547 6V1.96094H3.29297V4.99219H5.45703C5.75911 4.99219 5.97786 4.91927 6.11328 4.77344C6.2513 4.625 6.32031 4.38802 6.32031 4.0625V0.0664063H7.50781V4.0625C7.50781 4.69792 7.34505 5.17969 7.01953 5.50781C6.69401 5.83594 6.19661 6 5.52734 6H2.10547Z" fill="#58667E"/>
</svg>
