<svg width="40" height="40" viewBox="0 0 40 40" fill="none" xmlns="http://www.w3.org/2000/svg">
<g clip-path="url(#clip0_4817_7887)">
<path d="M35.3699 30.6927C35.3699 23.0071 39.351 17.7294 39.351 14.026C39.351 10.3227 37.2222 2.54492 20.1855 2.54492C3.14882 2.54492 0.647705 13.0083 0.647705 17.0816C0.647705 36.156 35.3699 44.3038 35.3699 30.6927Z" fill="#EFEFEF"/>
<path d="M38.3334 11.1107C37.4145 11.1107 36.6667 10.3629 36.6667 9.44401C36.6667 8.52512 37.4145 7.77734 38.3334 7.77734C39.2523 7.77734 40.0001 8.52512 40.0001 9.44401C40.0001 10.3629 39.2523 11.1107 38.3334 11.1107ZM38.3334 8.88845C38.0279 8.88845 37.7779 9.13845 37.7779 9.44401C37.7779 9.74957 38.0279 9.99957 38.3334 9.99957C38.639 9.99957 38.889 9.74957 38.889 9.44401C38.889 9.13845 38.639 8.88845 38.3334 8.88845Z" fill="#A4AFC1"/>
<path d="M30.2778 31.3889H9.72222C8.49444 31.3889 7.5 30.3944 7.5 29.1667V12.5H32.5V29.1667C32.5 30.3944 31.5056 31.3889 30.2778 31.3889Z" fill="white"/>
<path d="M7.5 12.5002H32.5V10.8336C32.5 9.60577 31.5056 8.61133 30.2778 8.61133H9.72222C8.49444 8.61133 7.5 9.60577 7.5 10.8336V12.5002Z" fill="#FEB46D"/>
<path d="M12.2222 8.61133H9.72222C8.49444 8.61133 7.5 9.60577 7.5 10.8336V12.5002H10V10.8336C10 9.60577 10.9944 8.61133 12.2222 8.61133Z" fill="#FF6600"/>
<path d="M10 29.1667V12.5H7.5V29.1667C7.5 30.3944 8.49444 31.3889 9.72222 31.3889H12.2222C10.9944 31.3889 10 30.3944 10 29.1667Z" fill="#D5DBE1"/>
<path d="M16.6666 25.5553H14.9999V21.1109C14.9999 20.8053 14.7499 20.5553 14.4444 20.5553C14.1388 20.5553 13.8888 20.8053 13.8888 21.1109V25.5553H12.2222V21.1109C12.2222 19.8853 13.2188 18.8887 14.4444 18.8887C15.6699 18.8887 16.6666 19.8853 16.6666 21.1109V25.5553Z" fill="black"/>
<path d="M13.0557 21.667H15.8334V23.3337H13.0557V21.667Z" fill="black"/>
<path d="M25.5557 18.8887H27.2223V25.5553H25.5557V18.8887Z" fill="black"/>
<path d="M20.5556 25.5553H18.8889V19.722C18.8889 19.262 19.2622 18.8887 19.7222 18.8887H21.1111C22.3367 18.8887 23.3334 19.8853 23.3334 21.1109C23.3334 22.3364 22.3367 23.3331 21.1111 23.3331H20.5556V25.5553ZM20.5556 21.6664H21.1111C21.4167 21.6664 21.6667 21.4164 21.6667 21.1109C21.6667 20.8053 21.4167 20.5553 21.1111 20.5553H20.5556V21.6664Z" fill="black"/>
<path d="M30.2779 32.2218H9.7223C8.03675 32.2218 6.66675 30.8518 6.66675 29.1662V10.8329C6.66675 9.14734 8.03675 7.77734 9.7223 7.77734H30.2779C31.9634 7.77734 33.3334 9.14734 33.3334 10.8329V29.1662C33.3334 30.8518 31.9634 32.2218 30.2779 32.2218ZM9.7223 9.44401C8.95675 9.44401 8.33341 10.0673 8.33341 10.8329V29.1662C8.33341 29.9318 8.95675 30.5551 9.7223 30.5551H30.2779C31.0434 30.5551 31.6667 29.9318 31.6667 29.1662V10.8329C31.6667 10.0673 31.0434 9.44401 30.2779 9.44401H9.7223Z" fill="black"/>
<path d="M7.5 11.667H32.5V13.3337H7.5V11.667Z" fill="black"/>
</g>
<defs>
<clipPath id="clip0_4817_7887">
<rect width="40" height="40" fill="white"/>
</clipPath>
</defs>
</svg>
