<svg width="40" height="40" viewBox="0 0 40 40" fill="none" xmlns="http://www.w3.org/2000/svg">
<path d="M4.63004 30.6927C4.63004 23.0071 0.648926 17.7294 0.648926 14.026C0.648926 10.3227 2.77782 2.54492 19.8145 2.54492C36.8512 2.54492 39.3512 13.0083 39.3512 17.0816C39.3523 36.156 4.63004 44.3038 4.63004 30.6927Z" fill="#EFEFEF"/>
<path d="M7.20142 5.7334L8.77276 4.16205L9.55844 4.94772L7.98709 6.51907L7.20142 5.7334Z" fill="#A4AFC1"/>
<path d="M2.68384 10.249L4.25519 8.67767L5.04086 9.46335L3.46951 11.0347L2.68384 10.249Z" fill="#A4AFC1"/>
<path d="M2.68384 4.75293L3.46951 3.96726L5.04086 5.5386L4.25519 6.32428L2.68384 4.75293Z" fill="#A4AFC1"/>
<path d="M36.6623 27.1956C35.7434 27.1956 34.9956 26.4479 34.9956 25.529C34.9956 24.6101 35.7434 23.8623 36.6623 23.8623C37.5812 23.8623 38.3289 24.6101 38.3289 25.529C38.3289 26.4479 37.5812 27.1956 36.6623 27.1956ZM36.6623 24.9734C36.3567 24.9734 36.1067 25.2234 36.1067 25.529C36.1067 25.8345 36.3567 26.0845 36.6623 26.0845C36.9678 26.0845 37.2178 25.8345 37.2178 25.529C37.2178 25.2234 36.9678 24.9734 36.6623 24.9734Z" fill="#A4AFC1"/>
<path d="M21.9445 14.7222H28.4934C28.9323 14.7222 29.3612 14.8522 29.7256 15.0956L32.4989 16.9444V8.61111C32.4989 7.99778 32.0012 7.5 31.3878 7.5H21.9434C21.3301 7.5 20.8323 7.99778 20.8323 8.61111V13.6111C20.8334 14.2244 21.3312 14.7222 21.9445 14.7222Z" fill="#F3F3F1"/>
<path d="M12.7778 25.833C14.1585 25.833 15.2778 24.7137 15.2778 23.333C15.2778 21.9523 14.1585 20.833 12.7778 20.833C11.3971 20.833 10.2778 21.9523 10.2778 23.333C10.2778 24.7137 11.3971 25.833 12.7778 25.833Z" fill="#F3F3F1"/>
<path d="M7.5 32.5002V30.8336C7.5 29.6058 8.49444 28.6113 9.72222 28.6113H15.8333C17.0611 28.6113 18.0556 29.6058 18.0556 30.8336V32.5002H7.5Z" fill="#FEB46D"/>
<path d="M27.2222 25.833C28.6029 25.833 29.7222 24.7137 29.7222 23.333C29.7222 21.9523 28.6029 20.833 27.2222 20.833C25.8415 20.833 24.7222 21.9523 24.7222 23.333C24.7222 24.7137 25.8415 25.833 27.2222 25.833Z" fill="#F3F3F1"/>
<path d="M21.9443 32.5002V30.8336C21.9443 29.6058 22.9388 28.6113 24.1666 28.6113H30.2777C31.5054 28.6113 32.4999 29.6058 32.4999 30.8336V32.5002H21.9443Z" fill="#FEB46D"/>
<path d="M20.2778 16.9449H11.5067C11.0678 16.9449 10.6389 17.0749 10.2744 17.3182L7.5 19.1671V10.8338C7.5 10.2204 7.99778 9.72266 8.61111 9.72266H20.2778C20.8911 9.72266 21.3889 10.2204 21.3889 10.8338V15.8338C21.3889 16.4471 20.8911 16.9449 20.2778 16.9449Z" fill="#FEB46D"/>
<path d="M9.72222 10.8338C9.72222 10.2204 10.22 9.72266 10.8333 9.72266H8.61111C7.99778 9.72266 7.5 10.2204 7.5 10.8338V19.1671L9.72222 17.686V10.8338Z" fill="#FF6600"/>
<path d="M23.0555 13.6111V8.61111C23.0555 7.99778 23.5533 7.5 24.1666 7.5H21.9444C21.331 7.5 20.8333 7.99778 20.8333 8.61111V13.6111C20.8333 14.2244 21.331 14.7222 21.9444 14.7222H24.1666C23.5533 14.7222 23.0555 14.2244 23.0555 13.6111Z" fill="#D5DBE1"/>
<path d="M31.9488 15.096C31.5833 14.8527 31.1544 14.7227 30.7166 14.7227H28.4944C28.9333 14.7227 29.3622 14.8527 29.7266 15.096L32.4999 16.9449V15.4638L31.9488 15.096Z" fill="#D5DBE1"/>
<path d="M12.5001 23.333C12.5001 22.353 13.0689 21.5141 13.8889 21.1041C13.5534 20.9363 13.1789 20.833 12.7778 20.833C11.3967 20.833 10.2778 21.9519 10.2778 23.333C10.2778 24.7141 11.3967 25.833 12.7778 25.833C13.1789 25.833 13.5534 25.7297 13.8889 25.5619C13.0689 25.1519 12.5001 24.3119 12.5001 23.333Z" fill="#D5DBE1"/>
<path d="M26.9444 23.333C26.9444 22.353 27.5133 21.5141 28.3333 21.1041C27.9977 20.9363 27.6233 20.833 27.2222 20.833C25.8411 20.833 24.7222 21.9519 24.7222 23.333C24.7222 24.7141 25.8411 25.833 27.2222 25.833C27.6233 25.833 27.9977 25.7297 28.3333 25.5619C27.5133 25.1519 26.9444 24.3119 26.9444 23.333Z" fill="#D5DBE1"/>
<path d="M11.9444 28.6113H9.72222C8.49444 28.6113 7.5 29.6058 7.5 30.8336V32.5002H9.72222V30.8336C9.72222 29.6058 10.7167 28.6113 11.9444 28.6113Z" fill="#FF6600"/>
<path d="M26.3888 28.6113H24.1666C22.9388 28.6113 21.9443 29.6058 21.9443 30.8336V32.5002H24.1666V30.8336C24.1666 29.6058 25.161 28.6113 26.3888 28.6113Z" fill="#FF6600"/>
<path d="M32.5 17.7781C32.3378 17.7781 32.1778 17.7314 32.0378 17.6381L29.2644 15.7892C29.0356 15.6359 28.7689 15.5559 28.4944 15.5559H21.9444C20.8722 15.5559 20 14.6837 20 13.6114V8.61144C20 7.53921 20.8722 6.66699 21.9444 6.66699H31.3889C32.4611 6.66699 33.3333 7.53921 33.3333 8.61144V16.9448C33.3333 17.2514 33.1644 17.5337 32.8933 17.6792C32.77 17.7459 32.6344 17.7781 32.5 17.7781ZM21.9444 8.33366C21.7911 8.33366 21.6667 8.4581 21.6667 8.61144V13.6114C21.6667 13.7648 21.7911 13.8892 21.9444 13.8892H28.4944C29.1 13.8892 29.6856 14.067 30.1889 14.4025L31.6667 15.3881V8.61144C31.6667 8.4581 31.5422 8.33366 31.3889 8.33366H21.9444Z" fill="black"/>
<path d="M7.50008 19.9998C7.36453 19.9998 7.23008 19.9676 7.10675 19.9009C6.83564 19.7553 6.66675 19.4731 6.66675 19.1665V10.8331C6.66675 9.76089 7.53897 8.88867 8.61119 8.88867H16.9445V10.5553H8.61119C8.46008 10.5553 8.33341 10.682 8.33341 10.8331V17.6131L9.81675 16.6276C10.3056 16.292 10.8956 16.1109 11.5112 16.1109H20.2779V17.7776H11.5112C11.2367 17.7776 10.9667 17.8598 10.7479 18.0087L7.96008 19.8609C7.8223 19.9531 7.66119 19.9998 7.50008 19.9998Z" fill="black"/>
<path d="M12.7777 26.6667C10.9399 26.6667 9.44434 25.1711 9.44434 23.3333C9.44434 21.4956 10.9399 20 12.7777 20C14.6154 20 16.111 21.4956 16.111 23.3333C16.111 25.1711 14.6154 26.6667 12.7777 26.6667ZM12.7777 21.6667C11.8588 21.6667 11.111 22.4144 11.111 23.3333C11.111 24.2522 11.8588 25 12.7777 25C13.6966 25 14.4443 24.2522 14.4443 23.3333C14.4443 22.4144 13.6966 21.6667 12.7777 21.6667Z" fill="black"/>
<path d="M18.889 32.4996H17.2223V30.8329C17.2223 30.0673 16.599 29.444 15.8334 29.444H9.7223C8.95675 29.444 8.33341 30.0673 8.33341 30.8329V32.4996H6.66675V30.8329C6.66675 29.1473 8.03675 27.7773 9.7223 27.7773H15.8334C17.519 27.7773 18.889 29.1473 18.889 30.8329V32.4996Z" fill="black"/>
<path d="M27.2222 26.6667C25.3845 26.6667 23.8889 25.1711 23.8889 23.3333C23.8889 21.4956 25.3845 20 27.2222 20C29.06 20 30.5556 21.4956 30.5556 23.3333C30.5556 25.1711 29.06 26.6667 27.2222 26.6667ZM27.2222 21.6667C26.3034 21.6667 25.5556 22.4144 25.5556 23.3333C25.5556 24.2522 26.3034 25 27.2222 25C28.1411 25 28.8889 24.2522 28.8889 23.3333C28.8889 22.4144 28.1411 21.6667 27.2222 21.6667Z" fill="black"/>
<path d="M33.3333 32.4996H31.6666V30.8329C31.6666 30.0673 31.0433 29.444 30.2778 29.444H24.1666C23.4011 29.444 22.7778 30.0673 22.7778 30.8329V32.4996H21.1111V30.8329C21.1111 29.1473 22.4811 27.7773 24.1666 27.7773H30.2778C31.9633 27.7773 33.3333 29.1473 33.3333 30.8329V32.4996Z" fill="black"/>
</svg>
