<svg width="40" height="40" viewBox="0 0 40 40" fill="none" xmlns="http://www.w3.org/2000/svg">
<path d="M4.63004 9.30821C4.63004 16.9938 0.648926 22.2715 0.648926 25.9749C0.648926 29.6782 2.77782 37.456 19.8145 37.456C36.8512 37.456 39.3512 26.9927 39.3512 22.9193C39.3523 3.84488 4.63004 -4.3029 4.63004 9.30821Z" fill="#EFEFEF"/>
<path d="M36.111 6.66634C35.1921 6.66634 34.4443 5.91856 34.4443 4.99967C34.4443 4.08079 35.1921 3.33301 36.111 3.33301C37.0299 3.33301 37.7777 4.08079 37.7777 4.99967C37.7777 5.91856 37.0299 6.66634 36.111 6.66634ZM36.111 4.44412C35.8054 4.44412 35.5554 4.69412 35.5554 4.99967C35.5554 5.30523 35.8054 5.55523 36.111 5.55523C36.4166 5.55523 36.6666 5.30523 36.6666 4.99967C36.6666 4.69412 36.4166 4.44412 36.111 4.44412Z" fill="#A4AFC1"/>
<path d="M21.3889 7.5H9.72222C8.5 7.5 7.5 8.5 7.5 9.72222V26.9444C7.5 28.1667 8.5 29.1667 9.72222 29.1667H21.3889C22.6111 29.1667 23.6111 28.1667 23.6111 26.9444V9.72222C23.6111 8.49444 22.6167 7.5 21.3889 7.5Z" fill="#F3F3F1"/>
<path d="M10.8333 26.3887H20.2777V32.4998H10.8333V26.3887Z" fill="#FEB46D"/>
<path d="M26.1111 20.2778C29.6395 20.2778 32.4999 17.4174 32.4999 13.8889C32.4999 10.3604 29.6395 7.5 26.1111 7.5C22.5826 7.5 19.7222 10.3604 19.7222 13.8889C19.7222 17.4174 22.5826 20.2778 26.1111 20.2778Z" fill="#FEB46D"/>
<path d="M19.0933 14.7219H11.9444C11.331 14.7219 10.8333 14.2241 10.8333 13.6108V11.9441C10.8333 11.3308 11.331 10.833 11.9444 10.833H19.0544C19.6577 10.833 20.151 11.3141 20.1655 11.9175L20.2055 13.5841C20.2188 14.2086 19.7177 14.7219 19.0933 14.7219Z" fill="#FEB46D"/>
<path d="M10 26.9444V9.72222C10 8.5 11 7.5 12.2222 7.5H9.72222C8.5 7.5 7.5 8.5 7.5 9.72222V26.9444C7.5 28.1667 8.5 29.1667 9.72222 29.1667H12.2222C11 29.1667 10 28.1667 10 26.9444Z" fill="#D5DBE1"/>
<path d="M10.8333 26.3887H13.3333V32.4998H10.8333V26.3887Z" fill="#FF6600"/>
<path d="M22.2222 13.8889C22.2222 10.7889 24.4311 8.20556 27.3611 7.62444C26.9566 7.54333 26.5388 7.5 26.1111 7.5C22.5822 7.5 19.7222 10.36 19.7222 13.8889C19.7222 17.4178 22.5822 20.2778 26.1111 20.2778C26.5388 20.2778 26.9566 20.2344 27.3611 20.1533C24.4311 19.5722 22.2222 16.9889 22.2222 13.8889Z" fill="#FF6600"/>
<path d="M13.3333 13.6108V11.9441C13.3333 11.3308 13.831 10.833 14.4444 10.833H11.9444C11.331 10.833 10.8333 11.3308 10.8333 11.9441V13.6108C10.8333 14.2241 11.331 14.7219 11.9444 14.7219H14.4444C13.831 14.7219 13.3333 14.2241 13.3333 13.6108Z" fill="#FF6600"/>
<path d="M25.2778 15.6348H26.9445V18.3337H25.2778V15.6348Z" fill="black"/>
<path d="M26.3422 17.301H23.8889V15.6343H26.3422C26.4956 15.6343 26.6667 15.4477 26.6667 15.1788C26.6667 14.9099 26.4956 14.7221 26.3422 14.7221H25.88C24.7822 14.7221 23.8889 13.7699 23.8889 12.5988C23.8889 11.4277 24.7822 10.4766 25.88 10.4766H28.3334V12.1432H25.88C25.7267 12.1432 25.5556 12.3299 25.5556 12.5988C25.5556 12.8677 25.7267 13.0555 25.88 13.0555H26.3422C27.44 13.0555 28.3334 14.0077 28.3334 15.1788C28.3334 16.3499 27.44 17.301 26.3422 17.301Z" fill="black"/>
<path d="M25.2778 9.44434H26.9445V12.1432H25.2778V9.44434Z" fill="black"/>
<path d="M26.1111 21.1114C22.1289 21.1114 18.8889 17.8714 18.8889 13.8892C18.8889 9.90699 22.1289 6.66699 26.1111 6.66699C30.0934 6.66699 33.3334 9.90699 33.3334 13.8892C33.3334 17.8714 30.0934 21.1114 26.1111 21.1114ZM26.1111 8.33366C23.0478 8.33366 20.5556 10.8259 20.5556 13.8892C20.5556 16.9525 23.0478 19.4448 26.1111 19.4448C29.1745 19.4448 31.6667 16.9525 31.6667 13.8892C31.6667 10.8259 29.1745 8.33366 26.1111 8.33366Z" fill="black"/>
<path d="M21.3889 29.9998H20.2778V28.3331H21.3889C22.1545 28.3331 22.7778 27.7098 22.7778 26.9442V24.2354H24.4445V26.9442C24.4445 28.6298 23.0745 29.9998 21.3889 29.9998Z" fill="black"/>
<path d="M10.8334 30.0003H9.7223C8.03675 30.0003 6.66675 28.6303 6.66675 26.9448V9.72255C6.66675 8.03699 8.03675 6.66699 9.7223 6.66699H18.0556V8.33366H9.7223C8.95675 8.33366 8.33341 8.95699 8.33341 9.72255V26.9448C8.33341 27.7103 8.95675 28.3337 9.7223 28.3337H10.8334V30.0003Z" fill="black"/>
<path d="M16.3422 15.5556H11.9444C10.8722 15.5556 10 14.6833 10 13.6111V11.9444C10 10.8722 10.8722 10 11.9444 10H17.3611V11.6667H11.9444C11.7911 11.6667 11.6667 11.7911 11.6667 11.9444V13.6111C11.6667 13.7644 11.7911 13.8889 11.9444 13.8889H16.3422V15.5556Z" fill="black"/>
<path d="M11.1111 19.9996C11.7248 19.9996 12.2222 19.5021 12.2222 18.8885C12.2222 18.2748 11.7248 17.7773 11.1111 17.7773C10.4975 17.7773 10 18.2748 10 18.8885C10 19.5021 10.4975 19.9996 11.1111 19.9996Z" fill="black"/>
<path d="M15.5554 19.9996C16.1691 19.9996 16.6666 19.5021 16.6666 18.8885C16.6666 18.2748 16.1691 17.7773 15.5554 17.7773C14.9418 17.7773 14.4443 18.2748 14.4443 18.8885C14.4443 19.5021 14.9418 19.9996 15.5554 19.9996Z" fill="black"/>
<path d="M11.1111 24.4449C11.7248 24.4449 12.2222 23.9474 12.2222 23.3338C12.2222 22.7201 11.7248 22.2227 11.1111 22.2227C10.4975 22.2227 10 22.7201 10 23.3338C10 23.9474 10.4975 24.4449 11.1111 24.4449Z" fill="black"/>
<path d="M15.5554 24.4449C16.1691 24.4449 16.6666 23.9474 16.6666 23.3338C16.6666 22.7201 16.1691 22.2227 15.5554 22.2227C14.9418 22.2227 14.4443 22.7201 14.4443 23.3338C14.4443 23.9474 14.9418 24.4449 15.5554 24.4449Z" fill="black"/>
<path d="M20 24.4449C20.6137 24.4449 21.1111 23.9474 21.1111 23.3338C21.1111 22.7201 20.6137 22.2227 20 22.2227C19.3864 22.2227 18.8889 22.7201 18.8889 23.3338C18.8889 23.9474 19.3864 24.4449 20 24.4449Z" fill="black"/>
<path d="M20.2778 33.3334H10.8333C10.3733 33.3334 10 32.9601 10 32.5001V26.389C10 25.929 10.3733 25.5557 10.8333 25.5557H20.2778C20.7378 25.5557 21.1111 25.929 21.1111 26.389V32.5001C21.1111 32.9601 20.7378 33.3334 20.2778 33.3334ZM11.6667 31.6668H19.4444V27.2223H11.6667V31.6668Z" fill="black"/>
<path d="M8.88892 25.5557H22.2222V27.2223H8.88892V25.5557Z" fill="black"/>
</svg>
