<svg width="40" height="40" viewBox="0 0 40 40" fill="none" xmlns="http://www.w3.org/2000/svg">
<path d="M9.30772 35.3697C16.9933 35.3697 22.2711 39.3508 25.9744 39.3508C29.6777 39.3508 37.4555 37.2219 37.4555 20.1852C37.4555 3.14857 26.9922 0.647461 22.9188 0.647461C3.84439 0.647461 -4.30339 35.3697 9.30772 35.3697Z" fill="#EFEFEF"/>
<path d="M31.0032 2.90723L31.7888 2.12155L33.3602 3.6929L32.5745 4.47858L31.0032 2.90723Z" fill="#A4AFC1"/>
<path d="M35.5203 7.42578L36.3059 6.64011L37.8773 8.21146L37.0916 8.99713L35.5203 7.42578Z" fill="#A4AFC1"/>
<path d="M35.3237 3.69336L36.8951 2.12201L37.6808 2.90769L36.1094 4.47903L35.3237 3.69336Z" fill="#A4AFC1"/>
<path d="M30.2778 31.3889H9.72222C8.49444 31.3889 7.5 30.3944 7.5 29.1667V12.5H32.5V29.1667C32.5 30.3944 31.5056 31.3889 30.2778 31.3889Z" fill="#F3F3F1"/>
<path d="M32.5 12.5002H7.5V10.8336C7.5 9.60577 8.49444 8.61133 9.72222 8.61133H30.2778C31.5056 8.61133 32.5 9.60577 32.5 10.8336V12.5002Z" fill="#FEB46D"/>
<path d="M12.2222 8.61133H9.72222C8.49444 8.61133 7.5 9.60577 7.5 10.8336V12.5002H10V10.8336C10 9.60577 10.9944 8.61133 12.2222 8.61133Z" fill="#FF6600"/>
<path d="M10 29.1667V12.5H7.5V29.1667C7.5 30.3944 8.49444 31.3889 9.72222 31.3889H12.2222C10.9944 31.3889 10 30.3944 10 29.1667Z" fill="#D5DBE1"/>
<path d="M21.1111 20.0003H19.4444V18.3337H11.6667V20.0003H10V17.5003C10 17.0403 10.3733 16.667 10.8333 16.667H20.2778C20.7378 16.667 21.1111 17.0403 21.1111 17.5003V20.0003Z" fill="black"/>
<path d="M14.7222 18.0557H16.3888V26.389H14.7222V18.0557Z" fill="black"/>
<path d="M13.3333 26.1113H17.7777V27.778H13.3333V26.1113Z" fill="black"/>
<path d="M23.3333 16.667H29.9999V18.3337H23.3333V16.667Z" fill="black"/>
<path d="M23.3333 21.1113H29.9999V22.778H23.3333V21.1113Z" fill="black"/>
<path d="M23.3333 25.5557H29.9999V27.2223H23.3333V25.5557Z" fill="black"/>
<path d="M30.2779 32.2218H9.7223C8.03675 32.2218 6.66675 30.8518 6.66675 29.1662V10.8329C6.66675 9.14734 8.03675 7.77734 9.7223 7.77734H30.2779C31.9634 7.77734 33.3334 9.14734 33.3334 10.8329V29.1662C33.3334 30.8518 31.9634 32.2218 30.2779 32.2218ZM9.7223 9.44401C8.95675 9.44401 8.33341 10.0673 8.33341 10.8329V29.1662C8.33341 29.9318 8.95675 30.5551 9.7223 30.5551H30.2779C31.0434 30.5551 31.6667 29.9318 31.6667 29.1662V10.8329C31.6667 10.0673 31.0434 9.44401 30.2779 9.44401H9.7223Z" fill="black"/>
<path d="M7.5 11.667H32.5V13.3337H7.5V11.667Z" fill="black"/>
<path d="M2.22217 30.5557H37.7777V32.2223H2.22217V30.5557Z" fill="black"/>
</svg>
