<svg width="40" height="40" viewBox="0 0 40 40" fill="none" xmlns="http://www.w3.org/2000/svg">
<path d="M4.62967 9.30715C4.62967 16.9923 0.648193 22.2701 0.648193 25.9738C0.648193 29.6775 2.77782 37.4553 19.8149 37.4553C36.8519 37.4553 39.3519 26.9923 39.3519 22.9183C39.3519 3.84418 4.62967 -4.30396 4.62967 9.30715Z" fill="#EFEFEF"/>
<path d="M33.8888 14.2044C32.9698 14.2044 32.2222 13.4568 32.2222 12.5378C32.2222 11.6187 32.9698 10.8711 33.8888 10.8711C34.8079 10.8711 35.5555 11.6187 35.5555 12.5378C35.5555 13.4568 34.8079 14.2044 33.8888 14.2044ZM33.8888 11.9822C33.5823 11.9822 33.3333 12.2318 33.3333 12.5378C33.3333 12.8438 33.5823 13.0933 33.8888 13.0933C34.1954 13.0933 34.4444 12.8438 34.4444 12.5378C34.4444 12.2318 34.1954 11.9822 33.8888 11.9822Z" fill="#A4AFC1"/>
<path d="M27.1596 21.5247C26.7437 21.9405 26.7424 22.6134 27.1566 23.0276L26.1566 22.0276C25.7425 21.6134 25.0696 21.6148 24.6537 22.0306C24.2379 22.4464 24.2366 23.1193 24.6508 23.5335L24.1508 23.0335C23.7366 22.6193 23.0637 22.6207 22.6479 23.0365C22.2321 23.4523 22.2307 24.1252 22.6449 24.5394L19.6451 21.5396C19.2301 21.1246 18.5588 21.1259 18.1422 21.5426C17.7256 21.9592 17.7242 22.6305 18.1392 23.0455L23.8889 28.7951C23.8889 28.7951 21.5774 28.1068 20.3811 29.303C19.6282 30.056 19.645 30.5747 19.8772 30.8069C20.5084 31.4382 21.0007 30.4333 23.8818 31.7998C26.7629 33.1663 28.6196 33.0439 29.8945 31.789L31.1494 30.5341C31.1401 30.5434 31.1587 30.5249 31.1494 30.5341C32.9356 28.7479 33.4562 26.3154 31.6715 24.5307C31.6684 24.5277 31.6654 24.5246 31.6623 24.5215L28.6625 21.5217C28.2483 21.1075 27.5754 21.1088 27.1596 21.5247Z" fill="#FEB46D"/>
<path d="M26.1111 28.7944L20.3614 23.0448C20.0783 22.7616 20.0044 22.3619 20.1085 22.0024L19.6451 21.5389C19.2301 21.1239 18.5589 21.1252 18.1422 21.5419C17.7256 21.9585 17.7242 22.6297 18.1392 23.0448L23.7893 28.6949C24.9088 28.4453 26.1111 28.7944 26.1111 28.7944Z" fill="#FF6600"/>
<path d="M26.1041 31.7998C23.2231 30.4333 22.7308 31.4382 22.0995 30.8069C21.8673 30.5747 21.8505 30.056 22.6034 29.303C22.8938 29.0126 23.251 28.8367 23.6238 28.7317C22.9966 28.5939 21.3401 28.3442 20.3812 29.303C19.6283 30.056 19.6451 30.5747 19.8773 30.8069C20.5086 31.4382 21.0008 30.4333 23.8819 31.7998C25.828 32.7228 27.2985 32.9525 28.4463 32.6267C27.7482 32.4763 26.9784 32.2145 26.1041 31.7998Z" fill="#FF6600"/>
<path d="M15.5555 20.0002C13.1049 20.0002 11.1111 18.0069 11.1111 15.5558C11.1111 13.1046 13.1049 11.1113 15.5555 11.1113C18.0062 11.1113 20 13.1046 20 15.5558C20 18.0069 18.0062 20.0002 15.5555 20.0002ZM15.5555 12.2224C13.7174 12.2224 12.2222 13.7177 12.2222 15.5558C12.2222 17.3939 13.7174 18.8891 15.5555 18.8891C17.3936 18.8891 18.8889 17.3939 18.8889 15.5558C18.8889 13.7177 17.3936 12.2224 15.5555 12.2224Z" fill="black"/>
<path d="M27.4191 33.3266C26.3373 33.3266 25.0841 32.9848 23.6436 32.3012C22.0361 31.5395 21.2635 31.5655 20.7508 31.5905C20.338 31.6035 19.9088 31.623 19.4846 31.1988C19.3354 31.0501 18.6588 30.2385 19.9886 28.9093C20.6516 28.2463 21.5619 28.0553 22.3524 28.0434L17.7463 23.4373C17.4403 23.1324 17.2721 22.7255 17.2732 22.2925C17.2743 21.8607 17.4436 21.4549 17.7495 21.1489C18.0555 20.8429 18.4619 20.6736 18.8937 20.6725H18.8959C19.3272 20.6725 19.7331 20.8407 20.0385 21.1467L21.952 23.0608C22.0291 22.9078 22.1311 22.7667 22.2553 22.643C22.6937 22.2036 23.3246 22.0679 23.8796 22.2405C23.9578 22.0202 24.0847 21.8129 24.261 21.6372C24.8638 21.0328 25.8284 21.0056 26.4627 21.5536C26.5386 21.4006 26.6401 21.2585 26.767 21.1315C27.3996 20.4989 28.425 20.4978 29.0554 21.1283L32.0551 24.1285C33.9388 26.0111 33.7288 28.74 31.5424 30.9264C31.5381 30.9308 31.5332 30.9351 31.5283 30.9405L30.2875 32.1808C29.5117 32.9447 28.5612 33.3266 27.4191 33.3266ZM21.0509 30.4718C21.658 30.4718 22.59 30.5716 24.12 31.2964C27.436 32.8709 28.7814 32.1059 29.5052 31.3919L30.7568 30.1408C30.7606 30.1365 30.7644 30.1332 30.7682 30.13C32.0925 28.7899 33.0007 26.6447 31.2787 24.9227L28.2698 21.9138C28.0734 21.7174 27.7512 21.7196 27.5526 21.9171C27.3546 22.1146 27.353 22.4358 27.5477 22.6332L27.5493 22.6343L28.2991 23.3841C28.4076 23.4926 28.4619 23.6348 28.4619 23.7769C28.4619 23.9191 28.4076 24.0612 28.2991 24.1697C28.0821 24.3867 27.7306 24.3867 27.5135 24.1697L25.7639 22.4195C25.5669 22.2231 25.2447 22.2231 25.0466 22.4227C24.8481 22.6213 24.847 22.9425 25.0439 23.14L26.2934 24.39C26.4019 24.4985 26.4561 24.6406 26.4561 24.7828C26.4561 24.9249 26.4019 25.0671 26.2934 25.1756C26.0764 25.3926 25.7248 25.3926 25.5078 25.1756L23.7581 23.4253C23.5612 23.229 23.24 23.23 23.0409 23.4286C22.9438 23.5252 22.8906 23.6543 22.8906 23.7899C22.8906 23.9245 22.9427 24.0514 23.0376 24.1458L24.2876 25.3958C24.3961 25.5043 24.4504 25.6465 24.4504 25.7886C24.4504 25.9308 24.3961 26.0729 24.2876 26.1814C24.0706 26.3984 23.7191 26.3984 23.502 26.1814L19.2524 21.9323C19.1569 21.8368 19.0305 21.7836 18.8959 21.7836C18.7603 21.7847 18.6322 21.8379 18.5351 21.9345C18.438 22.031 18.3849 22.1591 18.3843 22.2947C18.3843 22.4293 18.4364 22.5562 18.5319 22.6517L24.2817 28.4015C24.4612 28.5805 24.496 28.8594 24.3663 29.0775C24.2366 29.2945 23.9735 29.3976 23.7315 29.327C23.7109 29.3205 21.7209 28.7509 20.7742 29.6949C20.3439 30.1257 20.2805 30.3904 20.2924 30.449C20.3401 30.4816 20.3488 30.4946 20.7074 30.4794C20.8089 30.4761 20.9228 30.4718 21.0509 30.4718Z" fill="black"/>
<path d="M15.5556 24.4448C10.6544 24.4448 6.66675 20.4571 6.66675 15.5559C6.66675 10.6546 10.6544 6.66699 15.5556 6.66699C20.4569 6.66699 24.4445 10.6546 24.4445 15.5559V17.2225C24.4445 18.7547 23.1983 20.0003 21.6667 20.0003C20.1352 20.0003 18.889 18.7547 18.889 17.2225V11.667C18.889 11.3599 19.1375 11.1114 19.4445 11.1114C19.7516 11.1114 20.0001 11.3599 20.0001 11.667V17.2225C20.0001 18.1416 20.7477 18.8892 21.6667 18.8892C22.5858 18.8892 23.3334 18.1416 23.3334 17.2225V15.5559C23.3334 11.2677 19.8444 7.7781 15.5556 7.7781C11.2669 7.7781 7.77786 11.2677 7.77786 15.5559C7.77786 19.8441 11.2669 23.3337 15.5556 23.3337C15.8627 23.3337 16.1112 23.5821 16.1112 23.8892C16.1112 24.1963 15.8627 24.4448 15.5556 24.4448Z" fill="black"/>
</svg>
