<svg width="40" height="40" viewBox="0 0 40 40" fill="none" xmlns="http://www.w3.org/2000/svg">
<path d="M38.7823 22.669C34.5801 16.2345 35.0267 9.63897 33.0012 6.53786C30.9756 3.43675 24.9389 -1.90992 10.6756 7.40675C-3.58772 16.7234 0.0400598 26.8512 2.26895 30.2612C12.7001 46.2312 46.2256 34.0645 38.7823 22.669Z" fill="#EFEFEF"/>
<path d="M32.769 33.7817L33.5547 32.9961L35.1261 34.5674L34.3404 35.3531L32.769 33.7817Z" fill="#A4AFC1"/>
<path d="M32.9644 30.0684L34.5357 28.497L35.3214 29.2827L33.75 30.854L32.9644 30.0684Z" fill="#A4AFC1"/>
<path d="M28.4485 34.5845L30.0198 33.0131L30.8055 33.7988L29.2342 35.3701L28.4485 34.5845Z" fill="#A4AFC1"/>
<path d="M6.66667 6.90755C5.74778 6.90755 5 6.15977 5 5.24089C5 4.322 5.74778 3.57422 6.66667 3.57422C7.58556 3.57422 8.33333 4.322 8.33333 5.24089C8.33333 6.15977 7.58556 6.90755 6.66667 6.90755ZM6.66667 4.68533C6.36111 4.68533 6.11111 4.93533 6.11111 5.24089C6.11111 5.54644 6.36111 5.79644 6.66667 5.79644C6.97222 5.79644 7.22222 5.54644 7.22222 5.24089C7.22222 4.93533 6.97222 4.68533 6.66667 4.68533Z" fill="#A4AFC1"/>
<path d="M25.8333 8.61133H9.72222C8.49444 8.61133 7.5 9.60577 7.5 10.8336C7.5 12.0613 8.49444 13.0558 9.72222 13.0558H26.9444V9.72244C26.9444 9.10911 26.4467 8.61133 25.8333 8.61133Z" fill="#FEB46D"/>
<path d="M32.4999 24.167H28.3333C26.9521 24.167 25.8333 23.0481 25.8333 21.667C25.8333 20.2859 26.9521 19.167 28.3333 19.167H32.4999V24.167Z" fill="#FEB46D"/>
<path d="M29.1667 13.0557H26.9444H9.72222C8.49444 13.0557 7.5 12.0613 7.5 10.8335V28.0557C7.5 29.2779 8.5 30.2779 9.72222 30.2779H29.1667C29.7778 30.2779 30.2778 29.7779 30.2778 29.1668V24.1668H28.3333C26.9522 24.1668 25.8333 23.0479 25.8333 21.6668C25.8333 20.2857 26.9522 19.1668 28.3333 19.1668H30.2778V14.6768V14.1668C30.2778 13.5557 29.7778 13.0557 29.1667 13.0557ZM16.6667 26.9446L14.1667 22.2224L16.6667 17.5002L19.1667 22.2224L16.6667 26.9446Z" fill="#F3F3F1"/>
<path d="M16.6667 17.5L14.1667 22.2222L16.6667 26.9444L19.1667 22.2222L16.6667 17.5Z" fill="#FEB46D"/>
<path d="M10 10.8336C10 9.60577 10.9944 8.61133 12.2222 8.61133H9.72222C8.49444 8.61133 7.5 9.60577 7.5 10.8336C7.5 12.0613 8.49444 13.0558 9.72222 13.0558H12.2222C10.9944 13.0558 10 12.0613 10 10.8336Z" fill="#FF6600"/>
<path d="M28.3333 21.667C28.3333 20.2859 29.4521 19.167 30.8333 19.167H28.3333C26.9521 19.167 25.8333 20.2859 25.8333 21.667C25.8333 23.0481 26.9521 24.167 28.3333 24.167H30.8333C29.4521 24.167 28.3333 23.0481 28.3333 21.667Z" fill="#FF6600"/>
<path d="M19.1667 26.9444L21.6667 22.2222L19.1667 17.5L17.9167 19.8611L19.1667 22.2222L17.9167 24.5833L19.1667 26.9444Z" fill="#D5DBE1"/>
<path d="M10 28.0557V13.0557H9.72222C8.49444 13.0557 7.5 12.0613 7.5 10.8335V28.0557C7.5 29.2779 8.5 30.2779 9.72222 30.2779H12.2222C11 30.2779 10 29.2779 10 28.0557Z" fill="#D5DBE1"/>
<path d="M16.6667 22.2222L17.9167 19.8611L16.6667 17.5L14.1667 22.2222L16.6667 26.9444L17.9167 24.5833L16.6667 22.2222Z" fill="#FF6600"/>
<path d="M29.1667 31.1113H9.7223C8.03675 31.1113 6.66675 29.7413 6.66675 28.0557V10.8335H8.33341V28.0557C8.33341 28.8213 8.95675 29.4446 9.7223 29.4446H29.1667C29.3179 29.4446 29.4445 29.3179 29.4445 29.1668V24.1668H31.1112V29.1668C31.1112 30.2391 30.239 31.1113 29.1667 31.1113Z" fill="black"/>
<path d="M32.5 25.0002H28.3333C26.4956 25.0002 25 23.5046 25 21.6668C25 19.8291 26.4956 18.3335 28.3333 18.3335H32.5C32.96 18.3335 33.3333 18.7068 33.3333 19.1668V24.1668C33.3333 24.6268 32.96 25.0002 32.5 25.0002ZM28.3333 20.0002C27.4144 20.0002 26.6667 20.7479 26.6667 21.6668C26.6667 22.5857 27.4144 23.3335 28.3333 23.3335H31.6667V20.0002H28.3333Z" fill="black"/>
<path d="M31.1112 19.1667H29.4445V14.1667C29.4445 14.0156 29.3179 13.8889 29.1667 13.8889H9.7223C8.03675 13.8889 6.66675 12.5189 6.66675 10.8334C6.66675 9.14783 8.03675 7.77783 9.7223 7.77783H25.8334C26.9056 7.77783 27.7779 8.65005 27.7779 9.72228V12.2223H29.1667C30.239 12.2223 31.1112 13.0945 31.1112 14.1667V19.1667ZM9.7223 9.4445C8.95675 9.4445 8.33341 10.0678 8.33341 10.8334C8.33341 11.5989 8.95675 12.2223 9.7223 12.2223H26.1112V9.72228C26.1112 9.56894 25.9867 9.4445 25.8334 9.4445H9.7223Z" fill="black"/>
<path d="M16.6668 27.7778C16.3591 27.7778 16.0746 27.6078 15.9302 27.3345L13.4302 22.6123C13.3013 22.3689 13.3013 22.0767 13.4302 21.8334L15.9302 17.1112C16.2191 16.5645 17.1146 16.5645 17.4035 17.1112L19.9035 21.8334C20.0324 22.0767 20.0324 22.3689 19.9035 22.6123L17.4035 27.3345C17.2591 27.6078 16.9746 27.7778 16.6668 27.7778ZM15.1102 22.2223L16.6668 25.1634L18.2235 22.2223L16.6668 19.2812L15.1102 22.2223Z" fill="black"/>
</svg>
