<svg width="40" height="40" viewBox="0 0 40 40" fill="none" xmlns="http://www.w3.org/2000/svg">
<path d="M35.3699 9.30821C35.3699 16.9938 39.351 22.2715 39.351 25.9749C39.351 29.6782 37.2222 37.456 20.1855 37.456C3.14882 37.456 0.647705 26.9927 0.647705 22.9193C0.647705 3.84488 35.3699 -4.3029 35.3699 9.30821Z" fill="#EFEFEF"/>
<path d="M31.0032 20.6895L31.7888 19.9038L33.3602 21.4751L32.5745 22.2608L31.0032 20.6895Z" fill="#A4AFC1"/>
<path d="M35.519 25.208L36.3047 24.4223L37.8761 25.9937L37.0904 26.7794L35.519 25.208Z" fill="#A4AFC1"/>
<path d="M35.3228 21.4688L36.8941 19.8974L37.6798 20.6831L36.1084 22.2544L35.3228 21.4688Z" fill="#A4AFC1"/>
<path d="M25.8333 9.72222C25.8333 8.5 24.8333 7.5 23.6111 7.5H9.72222C8.5 7.5 7.5 8.5 7.5 9.72222V15.5556H25.8333V9.72222Z" fill="#F3F3F1"/>
<path d="M7.5 15.5557H25.8333V24.1668H7.5V15.5557Z" fill="#FEB46D"/>
<path d="M25.8333 30.2781V24.167H7.5V30.2781C7.5 31.5059 8.49444 32.5003 9.72222 32.5003H23.6111C24.8389 32.5003 25.8333 31.5059 25.8333 30.2781Z" fill="#F3F3F1"/>
<path d="M31.3889 32.4998H24.5989C24.3211 32.4998 24.0534 32.3953 23.8478 32.2076L21.7267 30.2631C21.2467 29.8231 21.2467 29.0653 21.7267 28.6253L23.8478 26.6809C24.0523 26.4931 24.3211 26.3887 24.5989 26.3887H31.3889C32.0023 26.3887 32.5 26.8864 32.5 27.4998V31.3887C32.5 32.002 32.0023 32.4998 31.3889 32.4998Z" fill="#FEB46D"/>
<path d="M12.2222 7.5H9.72222C8.5 7.5 7.5 8.5 7.5 9.72222V15.5556H10V9.72222C10 8.5 11 7.5 12.2222 7.5Z" fill="#D5DBE1"/>
<path d="M10 30.2781V24.167H7.5V30.2781C7.5 31.5059 8.49444 32.5003 9.72222 32.5003H12.2222C10.9944 32.5003 10 31.5059 10 30.2781Z" fill="#D5DBE1"/>
<path d="M7.5 15.5557H10V24.1668H7.5V15.5557Z" fill="#FF6600"/>
<path d="M24.2267 30.2631C23.7467 29.8231 23.7467 29.0653 24.2267 28.6253L26.3478 26.6809C26.5523 26.4931 26.8211 26.3887 27.0989 26.3887H24.5989C24.3211 26.3887 24.0534 26.4931 23.8478 26.6809L21.7267 28.6253C21.2467 29.0653 21.2467 29.8231 21.7267 30.2631L23.8478 32.2076C24.0523 32.3953 24.3211 32.4998 24.5989 32.4998H27.0989C26.8211 32.4998 26.5534 32.3953 26.3478 32.2076L24.2267 30.2631Z" fill="#FF6600"/>
<path d="M31.389 33.3334H24.599C24.1112 33.3334 23.6446 33.1523 23.2846 32.8223L21.1634 30.8779C20.7623 30.5112 20.5334 29.9879 20.5334 29.4446C20.5334 28.9012 20.7634 28.3779 21.1634 28.0112L23.2846 26.0668C23.6446 25.7368 24.1112 25.5557 24.599 25.5557H31.389C32.4612 25.5557 33.3334 26.4279 33.3334 27.5001V31.389C33.3334 32.4612 32.4612 33.3334 31.389 33.3334ZM24.599 27.2223C24.529 27.2223 24.4623 27.2479 24.4123 27.2946L22.2901 29.239C22.2112 29.3112 22.2001 29.399 22.2001 29.4446C22.2001 29.4901 22.2112 29.5779 22.2901 29.6501L24.4112 31.5946C24.4623 31.6412 24.529 31.6668 24.599 31.6668H31.389C31.5423 31.6668 31.6668 31.5423 31.6668 31.389V27.5001C31.6668 27.3468 31.5423 27.2223 31.389 27.2223H24.599Z" fill="black"/>
<path d="M19.4445 33.3337H9.7223C8.03675 33.3337 6.66675 31.9637 6.66675 30.2781V9.72255C6.66675 8.03699 8.03675 6.66699 9.7223 6.66699H23.6112C25.2967 6.66699 26.6667 8.03699 26.6667 9.72255V23.3337H25.0001V9.72255C25.0001 8.95699 24.3767 8.33366 23.6112 8.33366H9.7223C8.95675 8.33366 8.33341 8.95699 8.33341 9.72255V30.2781C8.33341 31.0437 8.95675 31.667 9.7223 31.667H19.4445V33.3337Z" fill="black"/>
<path d="M7.5 15H25.8333V16.6667H7.5V15Z" fill="black"/>
<path d="M7.22217 23.333H21.6666V24.9997H7.22217V23.333Z" fill="black"/>
<path d="M21.1111 13.3336C21.7248 13.3336 22.2222 12.8361 22.2222 12.2224C22.2222 11.6088 21.7248 11.1113 21.1111 11.1113C20.4975 11.1113 20 11.6088 20 12.2224C20 12.8361 20.4975 13.3336 21.1111 13.3336Z" fill="black"/>
<path d="M16.6668 13.3336C17.2804 13.3336 17.7779 12.8361 17.7779 12.2224C17.7779 11.6088 17.2804 11.1113 16.6668 11.1113C16.0531 11.1113 15.5557 11.6088 15.5557 12.2224C15.5557 12.8361 16.0531 13.3336 16.6668 13.3336Z" fill="black"/>
<path d="M12.2222 13.3336C12.8358 13.3336 13.3333 12.8361 13.3333 12.2224C13.3333 11.6088 12.8358 11.1113 12.2222 11.1113C11.6085 11.1113 11.1111 11.6088 11.1111 12.2224C11.1111 12.8361 11.6085 13.3336 12.2222 13.3336Z" fill="black"/>
</svg>
