<svg width="40" height="40" viewBox="0 0 40 40" fill="none" xmlns="http://www.w3.org/2000/svg">
<path d="M30.6922 35.3697C23.0067 35.3697 17.7289 39.3508 14.0255 39.3508C10.3222 39.3508 2.54443 37.2219 2.54443 20.1852C2.54443 3.14857 13.0078 0.647461 17.0811 0.647461C36.1555 0.647461 44.3033 35.3697 30.6922 35.3697Z" fill="#EFEFEF"/>
<path d="M35.1953 4.23535L36.7667 2.664L37.5523 3.44968L35.981 5.02103L35.1953 4.23535Z" fill="#A4AFC1"/>
<path d="M35.5881 7.77051L36.3738 6.98483L37.9452 8.55618L37.1595 9.34186L35.5881 7.77051Z" fill="#A4AFC1"/>
<path d="M31.0706 3.25195L31.8562 2.46628L33.4276 4.03763L32.6419 4.8233L31.0706 3.25195Z" fill="#A4AFC1"/>
<path d="M20.0001 25.8332C20.0001 25.8332 25.8334 23.2543 25.8334 18.0954C25.8334 16.0321 25.8334 13.7299 25.8334 13.7299L20.0001 11.9443L14.1667 13.7299V18.0954C14.1667 23.2543 20.0001 25.8332 20.0001 25.8332Z" fill="#FEB46D"/>
<path d="M16.6667 18.0954C16.6667 14.9999 16.6667 13.7299 16.6667 13.7299L21.2501 12.3266L20.0001 11.9443L14.1667 13.7299V18.0954C14.1667 23.2543 20.0001 25.8332 20.0001 25.8332C20.0001 25.8332 20.5234 25.5988 21.2501 25.141C19.5367 24.0621 16.6667 21.7166 16.6667 18.0954Z" fill="#FF6600"/>
<path d="M19.9999 26.6667C19.8844 26.6667 19.7699 26.6434 19.6621 26.5956C19.4044 26.4812 13.3333 23.7312 13.3333 18.0956V13.7301C13.3333 13.3634 13.5721 13.0401 13.9221 12.9334L19.7555 11.1479C19.9144 11.0979 20.0855 11.0979 20.2433 11.1479L26.0766 12.9334C26.4266 13.0401 26.6655 13.3634 26.6655 13.7301V18.0956C26.6655 23.7312 20.5944 26.4812 20.3366 26.5945C20.2299 26.6434 20.1155 26.6667 19.9999 26.6667ZM14.9999 14.3467V18.0956C14.9999 21.9779 18.8244 24.2856 19.9988 24.9034C21.1721 24.2834 24.9999 21.9634 24.9999 18.0956V14.3467L19.9999 12.8156L14.9999 14.3467Z" fill="black"/>
<path d="M20 31.1598V29.4931C25.8333 29.4931 30.5789 24.7475 30.5789 18.9131H32.2456C32.2456 25.6664 26.7522 31.1598 20 31.1598Z" fill="black"/>
<path d="M29.9689 15.407C28.4978 11.177 24.4922 8.33366 20 8.33366C17.59 8.33366 15.3356 9.12255 13.4778 10.6159L12.4333 9.3181C14.59 7.58366 17.2056 6.66699 20 6.66699C25.2022 6.66699 29.8389 9.95921 31.5422 14.8603L29.9689 15.407Z" fill="black"/>
<path d="M15.9245 30.4537C11.0389 28.7426 7.75562 24.1037 7.75562 18.9115C7.75562 16.436 8.48562 14.0682 9.86895 12.0615L11.2401 13.0082C10.0523 14.7337 9.42228 16.776 9.42228 18.9115C9.42228 23.3982 12.2567 27.4049 16.4756 28.8815L15.9245 30.4537Z" fill="black"/>
<path d="M21.6311 33.6789L18.8677 30.9167C18.7111 30.76 18.6233 30.5489 18.6233 30.3278C18.6233 30.1067 18.7111 29.8945 18.8677 29.7389L21.6311 26.9756L22.81 28.1545L20.6355 30.3289L22.81 32.5023L21.6311 33.6789Z" fill="black"/>
<path d="M10.9044 16.1303L10.06 12.9803L6.91001 13.8248L6.47778 12.2148L10.4333 11.1548C10.8878 11.0348 11.3367 11.3014 11.4544 11.7436L12.5144 15.6992L10.9044 16.1303Z" fill="black"/>
<path d="M30.8677 16.5924C30.7266 16.5924 30.5833 16.5569 30.4522 16.4802L26.9077 14.4335L27.741 12.9902L30.5644 14.6202L32.1955 11.7969L33.6388 12.6302L31.591 16.1747C31.4366 16.4424 31.1566 16.5924 30.8677 16.5924Z" fill="black"/>
<path d="M19.4445 21.1111C19.2234 21.1111 19.0112 21.0233 18.8556 20.8666L16.3223 18.3333L17.5012 17.1544L19.4234 19.0755L23.0123 15.21L24.2334 16.3444L20.0556 20.8444C19.9012 21.0088 19.6867 21.1055 19.46 21.11C19.4545 21.1111 19.45 21.1111 19.4445 21.1111Z" fill="black"/>
</svg>
