<svg width="40" height="40" viewBox="0 0 40 40" fill="none" xmlns="http://www.w3.org/2000/svg">
<path d="M4.63004 9.30821C4.63004 16.9938 0.648926 22.2715 0.648926 25.9749C0.648926 29.6782 2.77782 37.456 19.8145 37.456C36.8512 37.456 39.3512 26.9927 39.3512 22.9193C39.3523 3.84488 4.63004 -4.3029 4.63004 9.30821Z" fill="#EFEFEF"/>
<path d="M29.5833 3.61133H30.6944V5.83355H29.5833V3.61133Z" fill="#A4AFC1"/>
<path d="M32.0833 6.94434H34.3055V8.05545H32.0833V6.94434Z" fill="#A4AFC1"/>
<path d="M30.2777 26.9446H9.72217V14.1668C9.72217 13.5534 10.2199 13.0557 10.8333 13.0557H29.1666C29.7799 13.0557 30.2777 13.5534 30.2777 14.1668V26.9446Z" fill="#F3F3F1"/>
<path d="M24.7223 17.4996H15.2779C14.6645 17.4996 14.1667 17.0018 14.1667 16.3885V11.3885C14.1667 10.7751 14.6645 10.2773 15.2779 10.2773H24.7223C25.3356 10.2773 25.8334 10.7751 25.8334 11.3885V16.3885C25.8334 17.0018 25.3356 17.4996 24.7223 17.4996Z" fill="#FEB46D"/>
<path d="M13.3333 13.0557H10.8333C10.2199 13.0557 9.72217 13.5534 9.72217 14.1668V26.9446H12.2222V14.1668C12.2222 13.5534 12.7199 13.0557 13.3333 13.0557Z" fill="#D5DBE1"/>
<path d="M16.6667 16.3885V11.3885C16.6667 10.7751 17.1645 10.2773 17.7779 10.2773H15.2779C14.6645 10.2773 14.1667 10.7751 14.1667 11.3885V16.3885C14.1667 17.0018 14.6645 17.4996 15.2779 17.4996H17.7779C17.1645 17.4996 16.6667 17.0018 16.6667 16.3885Z" fill="#FF6600"/>
<path d="M24.7221 18.3332H15.2777C14.2055 18.3332 13.3333 17.461 13.3333 16.3888V11.3888C13.3333 10.3166 14.2055 9.44434 15.2777 9.44434H24.7221C25.7944 9.44434 26.6666 10.3166 26.6666 11.3888V16.3888C26.6666 17.461 25.7944 18.3332 24.7221 18.3332ZM15.2777 11.111C15.1244 11.111 14.9999 11.2354 14.9999 11.3888V16.3888C14.9999 16.5421 15.1244 16.6666 15.2777 16.6666H24.7221C24.8755 16.6666 24.9999 16.5421 24.9999 16.3888V11.3888C24.9999 11.2354 24.8755 11.111 24.7221 11.111H15.2777Z" fill="black"/>
<path d="M23.3334 10.2781H21.6667V8.61144C21.6667 8.4581 21.5423 8.33366 21.389 8.33366H18.6112C18.4579 8.33366 18.3334 8.4581 18.3334 8.61144V10.2781H16.6667V8.61144C16.6667 7.53921 17.539 6.66699 18.6112 6.66699H21.389C22.4612 6.66699 23.3334 7.53921 23.3334 8.61144V10.2781Z" fill="black"/>
<path d="M19.9999 15.0001C19.8777 15.0001 19.7555 14.9734 19.6422 14.9189L13.8088 12.1412L14.5255 10.6367L19.9999 13.2434L25.4755 10.6367L26.1922 12.1412L20.3588 14.9189C20.2444 14.9734 20.1222 15.0001 19.9999 15.0001Z" fill="black"/>
<path d="M5.92676 26.2051H34.0723V27.6829H5.92676V26.2051Z" fill="black"/>
<path d="M29.4443 13.0557H31.111V26.9446H29.4443V13.0557Z" fill="black"/>
<path d="M8.88892 13.0557H10.5556V26.9446H8.88892V13.0557Z" fill="black"/>
</svg>
