<svg width="40" height="40" viewBox="0 0 40 40" fill="none" xmlns="http://www.w3.org/2000/svg">
<path d="M4.63004 30.6922C4.63004 23.0067 0.648926 17.7289 0.648926 14.0255C0.648926 10.3222 2.77782 2.54443 19.8145 2.54443C36.8512 2.54443 39.3512 13.0078 39.3512 17.0811C39.3523 36.1555 4.63004 44.3033 4.63004 30.6922Z" fill="#EFEFEF"/>
<path d="M26.1112 23.0554C27.7988 23.0554 29.1668 21.6874 29.1668 19.9999C29.1668 18.3124 27.7988 16.9443 26.1112 16.9443C24.4237 16.9443 23.0557 18.3124 23.0557 19.9999C23.0557 21.6874 24.4237 23.0554 26.1112 23.0554Z" fill="#FEB46D"/>
<path d="M25.5557 19.9999C25.5557 18.7588 26.299 17.6954 27.3612 17.2177C26.979 17.0454 26.5579 16.9443 26.1112 16.9443C24.4234 16.9443 23.0557 18.3121 23.0557 19.9999C23.0557 21.6877 24.4234 23.0554 26.1112 23.0554C26.5579 23.0554 26.979 22.9543 27.3612 22.7821C26.299 22.3043 25.5557 21.241 25.5557 19.9999Z" fill="#FF6600"/>
<path d="M20.8333 6.6665H21.3888V8.33317H20.8333V6.6665Z" fill="black"/>
<path d="M9.72217 6.6665H10.2777V8.33317H9.72217V6.6665Z" fill="black"/>
<path d="M20.8334 7.5C19.9112 7.5 19.1667 8.24444 19.1667 9.16667C19.1667 9.77778 18.6667 10.2778 18.0556 10.2778H13.0556C12.4445 10.2778 11.9445 9.77778 11.9445 9.16667C11.9445 8.24444 11.2001 7.5 10.2778 7.5H20.8334Z" fill="#FEB46D"/>
<path d="M23.6111 9.67778V30.3222C23.6111 31.5222 22.6444 32.5 21.4667 32.5H9.64444C8.46667 32.5 7.5 31.5222 7.5 30.3222V9.67778C7.5 8.47778 8.46667 7.5 9.64444 7.5H10.2778C11.2 7.5 11.9444 8.24444 11.9444 9.16667C11.9444 9.77778 12.4444 10.2778 13.0556 10.2778H18.0556C18.6667 10.2778 19.1667 9.77778 19.1667 9.16667C19.1667 8.24444 19.9111 7.5 20.8333 7.5H21.4667C22.6444 7.5 23.6111 8.47778 23.6111 9.67778Z" fill="#F3F3F1"/>
<path d="M10 30.3222V9.67778C10 8.84111 10.4756 8.12111 11.1589 7.75667C10.9033 7.59667 10.6022 7.5 10.2778 7.5H9.64444C8.46667 7.5 7.5 8.47778 7.5 9.67778V30.3222C7.5 31.5222 8.46667 32.5 9.64444 32.5H12.1444C10.9667 32.5 10 31.5222 10 30.3222Z" fill="#D5DBE1"/>
<path d="M30.6779 6.90755C29.759 6.90755 29.0112 6.15977 29.0112 5.24089C29.0112 4.322 29.759 3.57422 30.6779 3.57422C31.5968 3.57422 32.3446 4.322 32.3446 5.24089C32.3446 6.15977 31.5979 6.90755 30.6779 6.90755ZM30.6779 4.68533C30.3723 4.68533 30.1223 4.93422 30.1223 5.24089C30.1223 5.54755 30.3723 5.79644 30.6779 5.79644C30.9835 5.79644 31.2335 5.54755 31.2335 5.24089C31.2335 4.93422 30.9846 4.68533 30.6779 4.68533Z" fill="#A4AFC1"/>
<path d="M28.4436 29.2959L29.2293 28.5102L30.8006 30.0816L30.015 30.8672L28.4436 29.2959Z" fill="#A4AFC1"/>
<path d="M32.9597 33.7998L33.7454 33.0141L35.3167 34.5855L34.5311 35.3712L32.9597 33.7998Z" fill="#A4AFC1"/>
<path d="M28.2456 34.584L29.817 33.0126L30.6026 33.7983L29.0313 35.3697L28.2456 34.584Z" fill="#A4AFC1"/>
<path d="M32.7642 30.0674L34.3355 28.496L35.1212 29.2817L33.5498 30.8531L32.7642 30.0674Z" fill="#A4AFC1"/>
<path d="M26.1111 23.8891C23.9666 23.8891 22.2222 22.1447 22.2222 20.0002C22.2222 17.8558 23.9666 16.1113 26.1111 16.1113C28.2555 16.1113 29.9999 17.8558 29.9999 20.0002C29.9999 22.1447 28.2555 23.8891 26.1111 23.8891ZM26.1111 17.778C24.8855 17.778 23.8888 18.7747 23.8888 20.0002C23.8888 21.2258 24.8855 22.2224 26.1111 22.2224C27.3366 22.2224 28.3333 21.2258 28.3333 20.0002C28.3333 18.7747 27.3366 17.778 26.1111 17.778Z" fill="black"/>
<path d="M25.2778 23.0557H26.9445V25.2779H25.2778V23.0557Z" fill="black"/>
<path d="M25.2778 14.7222H26.9445V16.9444H25.2778V14.7222Z" fill="black"/>
<path d="M28.3379 17.7578L30.2614 16.6473L31.0947 18.0906L29.1712 19.2011L28.3379 17.7578Z" fill="black"/>
<path d="M21.1262 21.9131L23.0497 20.8025L23.883 22.2459L21.9596 23.3564L21.1262 21.9131Z" fill="black"/>
<path d="M21.1233 18.0791L21.9566 16.6358L23.8801 17.7463L23.0468 19.1897L21.1233 18.0791Z" fill="black"/>
<path d="M28.332 22.2319L29.1654 20.7886L31.0888 21.8992L30.2555 23.3425L28.332 22.2319Z" fill="black"/>
<path d="M18.0555 11.1109H13.0555C11.9833 11.1109 11.1111 10.2387 11.1111 9.1665C11.1111 8.7065 10.7366 8.33317 10.2777 8.33317H9.72217V6.6665H10.2777C11.6555 6.6665 12.7777 7.78762 12.7777 9.1665C12.7777 9.31984 12.9022 9.44428 13.0555 9.44428H18.0555C18.2088 9.44428 18.3333 9.31984 18.3333 9.1665C18.3333 7.78762 19.4555 6.6665 20.8333 6.6665H21.3888V8.33317H20.8333C20.3744 8.33317 19.9999 8.7065 19.9999 9.1665C19.9999 10.2387 19.1277 11.1109 18.0555 11.1109Z" fill="black"/>
<path d="M21.4623 33.3332H9.64897C8.00453 33.3332 6.66675 31.9843 6.66675 30.3254V9.67428C6.66675 8.01539 8.00453 6.6665 9.64897 6.6665H21.4634C23.1067 6.6665 24.4445 8.01539 24.4445 9.67428V13.5665H22.7779V9.67428C22.7779 8.93428 22.1879 8.33317 21.4623 8.33317H9.64897C8.92341 8.33317 8.33341 8.93428 8.33341 9.67428V30.3265C8.33341 31.0665 8.92341 31.6676 9.64897 31.6676H21.4634C22.1879 31.6676 22.779 31.0665 22.779 30.3265V26.4332H24.4445V30.3254C24.4445 31.9843 23.1067 33.3332 21.4623 33.3332Z" fill="black"/>
</svg>
