<svg width="18" height="18" viewBox="0 0 18 18" fill="none" xmlns="http://www.w3.org/2000/svg">
<g clip-path="url(#clip0_18_3565)">
<path d="M17.5737 15.3957L13.4354 11.2571C14.1385 10.1377 14.5466 8.81464 14.5466 7.39474C14.5466 3.37765 11.2901 0.121582 7.27316 0.121582C3.25622 0.121582 0 3.37765 0 7.39474C0 11.412 3.25607 14.6678 7.27316 14.6678C8.81839 14.6678 10.2497 14.1847 11.4274 13.3638L15.5165 17.4531C15.8006 17.737 16.1731 17.8784 16.5451 17.8784C16.9176 17.8784 17.2896 17.737 17.5742 17.4531C18.142 16.8847 18.142 15.964 17.5737 15.3957ZM7.27316 12.3114C4.55808 12.3114 2.35685 10.1103 2.35685 7.39505C2.35685 4.67981 4.55808 2.47859 7.27316 2.47859C9.9884 2.47859 12.1895 4.67981 12.1895 7.39505C12.1895 10.1103 9.9884 12.3114 7.27316 12.3114Z" fill="#9FA8B1"/>
</g>
<defs>
<clipPath id="clip0_18_3565">
<rect width="18" height="18" fill="white"/>
</clipPath>
</defs>
</svg>
