<svg width="775" height="271" viewBox="0 0 775 271" fill="none" xmlns="http://www.w3.org/2000/svg">
<line y1="0.5" x2="773.995" y2="0.5" stroke="#CCD7E2"/>
<line y1="54.5" x2="773.995" y2="54.5" stroke="#CCD7E2"/>
<line y1="108.5" x2="773.995" y2="108.5" stroke="#CCD7E2"/>
<line y1="162.5" x2="773.995" y2="162.5" stroke="#CCD7E2"/>
<line y1="216.5" x2="773.995" y2="216.5" stroke="#CCD7E2"/>
<line y1="270.5" x2="773.995" y2="270.5" stroke="#CCD7E2"/>
<line x1="0.939453" y1="1" x2="0.939466" y2="271" stroke="#CCD7E2"/>
<path d="M16.1347 244.817L0 271H775V100.394L748.753 117.717L730.662 238.533L718.053 161.287L686.256 62.0736L644.591 90.9454L624.855 152.363L595.696 189.634L574.967 117.717L542.074 50L498.764 70.9976L461.485 141.34L418.176 90.9454L407.211 70.9976L373.77 125.591L333.75 189.634L322.647 220.424L299.212 259.374L281.669 215.881L268.511 180.185L259.845 215.881L241.278 227.955L220.268 259.374L189.568 231.097L175.862 238.533L155.03 252.881L145.162 259.479L135.842 242.057L123.756 263.651L112.304 237.695L99.4719 227.955L88.1579 238.533L76.154 231.097L64.1502 259.374L52.1463 247.54L39.8665 252.881L28.1386 239.894L16.1347 244.817Z" fill="url(#paint0_linear_4937_11889)"/>
<path d="M2 270L17.51 243.747L27.3792 239.471L39.1113 252.429L51.3955 247.099L63.4036 258.907L75.4117 230.693L87.4198 238.112L98.7379 227.558L111.574 237.276L123.03 263.174L135.121 241.629L144.444 259.012L154.315 252.429L175.155 238.112L188.866 230.693L219.577 258.907L240.594 227.558L259.168 215.511L267.837 179.895L280.999 215.511L298.549 258.907L321.992 220.044L333.099 189.323L373.133 125.423L406.587 70.9508L417.555 90.854L460.88 141.136L498.172 70.9508L541.497 50L574.402 117.566L595.138 189.323L624.308 152.135L644.051 90.854L685.73 62.0467L717.538 161.039L730.152 238.112L748.25 117.566L774 99.7581" stroke="#33CC66" stroke-width="2"/>
<line x1="280" y1="271" x2="280" y2="55" stroke="#C6D6E6" stroke-width="2" stroke-dasharray="4 4"/>
<path d="M279.994 218C283.305 218 285.987 215.312 285.987 212C285.987 208.688 283.305 206 279.994 206C276.682 206 274 208.688 274 212C274 215.312 276.682 218 279.994 218Z" fill="#33CC66" stroke="white" stroke-width="2"/>
<defs>
<linearGradient id="paint0_linear_4937_11889" x1="387.5" y1="50" x2="387.5" y2="344.492" gradientUnits="userSpaceOnUse">
<stop stop-color="#B4EEC8"/>
<stop offset="1" stop-color="white" stop-opacity="0"/>
</linearGradient>
</defs>
</svg>
