<svg width="36" height="36" viewBox="0 0 36 36" fill="none" xmlns="http://www.w3.org/2000/svg">
<path d="M17.9998 35.1427C27.4675 35.1427 35.1426 27.4675 35.1426 17.9998C35.1426 8.53205 27.4675 0.856934 17.9998 0.856934C8.53205 0.856934 0.856934 8.53205 0.856934 17.9998C0.856934 27.4675 8.53205 35.1427 17.9998 35.1427Z" fill="#F4F4F4"/>
<g clip-path="url(#clip0_4120_106159)">
<path d="M18.028 10C18.936 11.421 19.812 12.8596 20.711 14.2852C20.841 14.4702 20.879 14.6922 20.876 14.9096C20.876 16.6211 20.876 18.3317 20.876 20.0422C19.642 19.6379 18.267 19.5676 17.015 19.9469C16.345 20.1375 15.74 20.4752 15.167 20.8415C15.169 18.8294 15.169 16.8163 15.167 14.8032C15.167 14.6561 15.172 14.5035 15.27 14.3795C16.193 12.9225 17.113 11.4626 18.028 10Z" fill="#020041"/>
<path d="M8 25.9647C9.684 23.2772 11.373 20.5925 13.068 17.9087C13.1 20.5971 13.08 23.2874 13.079 25.9758C11.387 25.9619 9.693 25.9758 8 25.9647Z" fill="#020041"/>
<path d="M22.948 17.9229C24.663 20.5974 26.312 23.3089 28 25.9992C26.314 26.0047 24.629 25.9899 22.944 25.9992C22.938 23.3061 22.929 20.614 22.948 17.9229Z" fill="#020041"/>
<path d="M18.0848 21.5004C19.0318 21.3514 20.0178 21.5475 20.8418 21.9971C20.8658 23.3284 20.8248 24.6606 20.8808 25.99C19.0458 25.9964 17.2098 25.9844 15.3748 25.9779C15.1838 25.2749 15.0948 24.5255 15.3088 23.8169C15.6488 22.6364 16.7788 21.6882 18.0848 21.5004Z" fill="#020041"/>
</g>
<defs>
<clipPath id="clip0_4120_106159">
<rect width="20" height="16" fill="white" transform="translate(8 10)"/>
</clipPath>
</defs>
</svg>
