<svg width="34" height="34" viewBox="0 0 34 34" fill="none" xmlns="http://www.w3.org/2000/svg">
<g clip-path="url(#clip0_4244_105033)">
<path d="M27.4849 5.83252H6.49219V24.9123H27.4849V5.83252Z" fill="white"/>
<path fill-rule="evenodd" clip-rule="evenodd" d="M33.9886 16.9999C33.9886 26.3763 26.3826 33.9772 16.9999 33.9772C7.61732 33.9772 0.0112305 26.3763 0.0112305 16.9999C0.0112305 7.6235 7.61732 0.0224609 16.9999 0.0224609C26.3826 0.0224609 33.9886 7.6235 33.9886 16.9999ZM12.1858 23.756H8.88878C8.19598 23.756 7.85376 23.756 7.6451 23.6226C7.41972 23.4766 7.28201 23.2347 7.26531 22.9677C7.25278 22.7218 7.42391 22.4214 7.76613 21.8208L15.9069 7.4811C16.2533 6.87217 16.4286 6.56771 16.6498 6.45511C16.8877 6.33416 17.1715 6.33416 17.4093 6.45511C17.6305 6.56771 17.8058 6.87217 18.1522 7.4811L19.8258 10.4006L19.8343 10.4155C20.2085 11.0687 20.3982 11.4 20.481 11.7477C20.5728 12.1272 20.5728 12.5276 20.481 12.9072C20.3975 13.2575 20.2097 13.5912 19.83 14.2543L15.5538 21.8083L15.5427 21.8276C15.1661 22.4863 14.9753 22.8201 14.7108 23.0719C14.4228 23.3473 14.0764 23.5473 13.6966 23.6601C13.3502 23.756 12.9621 23.756 12.1858 23.756ZM20.5119 23.756H25.2362C25.9331 23.756 26.2838 23.756 26.4925 23.6186C26.7179 23.4725 26.8597 23.2263 26.8724 22.9596C26.8844 22.7215 26.717 22.4328 26.3889 21.8672C26.3776 21.8479 26.3663 21.8283 26.3548 21.8084L23.9884 17.7628L23.9614 17.7173C23.6289 17.1553 23.4611 16.8715 23.2455 16.7619C23.0077 16.6409 22.7279 16.6409 22.4901 16.7619C22.2731 16.8745 22.0978 17.1706 21.7514 17.767L19.3934 21.8126L19.3853 21.8265C19.0401 22.4219 18.8676 22.7195 18.8801 22.9636C18.8968 23.2306 19.0345 23.4766 19.2598 23.6226C19.4644 23.756 19.8149 23.756 20.5119 23.756Z" fill="#E84142"/>
</g>
<defs>
<clipPath id="clip0_4244_105033">
<rect width="34" height="34" fill="white"/>
</clipPath>
</defs>
</svg>
