<svg width="35" height="35" viewBox="0 0 35 35" fill="none" xmlns="http://www.w3.org/2000/svg">
<path d="M17.34 34.68C26.9166 34.68 34.68 26.9166 34.68 17.34C34.68 7.76338 26.9166 0 17.34 0C7.76338 0 0 7.76338 0 17.34C0 26.9166 7.76338 34.68 17.34 34.68Z" fill="#0AC18E"/>
<path d="M22.749 11.5172C21.8776 9.54114 19.8752 9.11864 17.4238 9.52794L16.636 6.47363L14.7788 6.95334L15.5534 9.99885C15.0649 10.1221 14.5632 10.2277 14.0659 10.3685L13.2913 7.34063L11.434 7.82034L12.2218 10.8746C11.8213 10.9891 8.47217 11.8473 8.47217 11.8473L8.98269 13.8365C8.98269 13.8365 10.347 13.4536 10.3338 13.4844C11.0908 13.2864 11.4473 13.6649 11.6145 14.0214L13.7798 22.3921C13.8062 22.6342 13.7622 23.0479 13.2429 23.1887C13.2737 23.2063 11.8918 23.5364 11.8918 23.5364L12.0942 25.8557C12.0942 25.8557 15.4126 25.0063 15.8483 24.8963L16.6448 27.9858L18.5021 27.5061L17.7055 24.3946C18.216 24.2757 18.7133 24.1525 19.1974 24.0249L19.9896 27.1188L21.8468 26.6391L21.0503 23.554C23.9109 22.8586 25.931 21.0542 25.5173 18.2948C25.2532 16.6312 23.4356 15.2669 21.9261 15.1128C22.8547 14.2898 23.3256 13.0884 22.749 11.5172ZM21.8556 18.8009C22.2253 21.5339 18.4273 21.8684 17.173 22.1985L16.0815 18.1099C17.3402 17.7798 21.2307 16.3935 21.8556 18.8009ZM19.5671 13.2336C19.9588 15.663 16.7109 15.9446 15.6634 16.2131L14.6688 12.503C15.7206 12.2434 18.7705 10.9847 19.5671 13.2336Z" fill="white"/>
</svg>
