<svg width="30" height="30" viewBox="0 0 30 30" fill="none" xmlns="http://www.w3.org/2000/svg">
<path d="M20.552 8.65332H14.103C13.6434 8.65332 13.2695 9.02313 13.2695 9.47767V11.4125H14.0304V9.47767C14.0304 9.43806 14.063 9.40583 14.103 9.40583H20.552C20.592 9.40583 20.6246 9.43806 20.6246 9.47767V15.8557C20.6246 15.8954 20.592 15.9276 20.552 15.9276H18.6567V16.6801H20.552C21.0116 16.6801 21.3855 16.3103 21.3855 15.8557V9.47767C21.3854 9.02313 21.0116 8.65332 20.552 8.65332Z" fill="#1843BF" stroke="#1843BF"/>
<path d="M16.4797 12.7422H10.0308C9.57118 12.7422 9.19727 13.112 9.19727 13.5666V19.9446C9.19729 20.3992 9.57118 20.769 10.0308 20.769H16.4797C16.9393 20.769 17.3133 20.3992 17.3133 19.9446V13.5666C17.3133 13.112 16.9393 12.7422 16.4797 12.7422ZM16.4798 20.0165H10.0308C9.99073 20.0165 9.95814 19.9843 9.95814 19.9446V13.5666C9.95814 13.5269 9.99073 13.4947 10.0308 13.4947H16.4797C16.5198 13.4947 16.5524 13.5269 16.5524 13.5666V19.9446H16.5524C16.5524 19.9843 16.5198 20.0165 16.4798 20.0165Z" fill="#1843BF" stroke="#1843BF"/>
<rect x="0.5" y="0.5" width="29" height="29" rx="2.5" stroke="#C6D6E6"/>
</svg>
