<svg width="40" height="40" viewBox="0 0 40 40" fill="none" xmlns="http://www.w3.org/2000/svg">
<rect width="40" height="40" rx="20" fill="white"/>
<path d="M37.1431 20.0001C37.1431 29.4688 29.469 37.1429 20.0002 37.1429C16.133 37.1502 12.3783 35.842 9.3529 33.4331C8.55136 32.7966 7.80742 32.0907 7.12968 31.3237C4.37623 28.1941 2.85742 24.1685 2.85742 20.0001C2.85742 15.8316 4.37623 11.806 7.12968 8.6764C7.80742 7.9094 8.55136 7.20355 9.3529 6.56703C12.3783 4.15816 16.133 2.84991 20.0002 2.85721C29.469 2.85721 37.1431 10.5313 37.1431 20.0001Z" fill="#BBA025"/>
<path d="M34.0022 19.9999C34.0022 8.32806 26.174 6.56689 23.4218 6.56689H9.35261C8.55107 7.20341 7.80713 7.90926 7.12939 8.67627V13.1696H10.6517V26.8303H7.12939V31.3236C7.80713 32.0906 8.55107 32.7964 9.35261 33.433H23.4285C26.1807 33.433 34.0022 31.6718 34.0022 19.9999ZM18.4664 26.8303V13.1696H21.4397C22.2098 13.1696 25.5111 14.7098 25.5111 19.9999C25.5111 25.2901 22.2098 26.8303 21.4397 26.8303H18.4664Z" fill="#F0EFEB"/>
</svg>
