<svg width="36" height="36" viewBox="0 0 36 36" fill="none" xmlns="http://www.w3.org/2000/svg">
<path d="M17.9998 35.1427C27.4675 35.1427 35.1426 27.4675 35.1426 17.9998C35.1426 8.53205 27.4675 0.856934 17.9998 0.856934C8.53205 0.856934 0.856934 8.53205 0.856934 17.9998C0.856934 27.4675 8.53205 35.1427 17.9998 35.1427Z" fill="#292939"/>
<path d="M21.2887 10L10 25.8924H13.4659L24.8131 10H21.2887Z" fill="white"/>
<path d="M13.8271 10L17.1486 14.683L15.4157 17.2373L10.2891 10H13.8271Z" fill="url(#paint0_linear_4120_106158)"/>
<path d="M21.6253 25.8935L17.9429 20.7139L19.6758 18.2305L25.0912 25.8935H21.6253Z" fill="url(#paint1_linear_4120_106158)"/>
<defs>
<linearGradient id="paint0_linear_4120_106158" x1="13.0329" y1="10.9934" x2="17.6894" y2="16.714" gradientUnits="userSpaceOnUse">
<stop stop-color="white"/>
<stop offset="1" stop-color="white" stop-opacity="0.55"/>
</linearGradient>
<linearGradient id="paint1_linear_4120_106158" x1="22.4196" y1="24.6873" x2="16.7089" y2="16.8528" gradientUnits="userSpaceOnUse">
<stop stop-color="#6966FF"/>
<stop offset="1" stop-color="#6966FF" stop-opacity="0.36"/>
</linearGradient>
</defs>
</svg>
