<svg width="36" height="36" viewBox="0 0 36 36" fill="none" xmlns="http://www.w3.org/2000/svg">
<path d="M17.9974 35.1372C27.4636 35.1372 35.1374 27.4633 35.1374 17.9972C35.1374 8.53102 27.4636 0.857178 17.9974 0.857178C8.53126 0.857178 0.857422 8.53102 0.857422 17.9972C0.857422 27.4633 8.53126 35.1372 17.9974 35.1372Z" fill="#E9E9E9"/>
<path d="M17.9999 5.14282L17.7856 5.67854V22.7143L17.9999 22.9285L25.9285 18.2143L17.9999 5.14282Z" fill="#343434"/>
<path d="M17.9999 5.14282L10.0713 18.2143L17.9999 22.9285V14.6785V5.14282Z" fill="#8C8C8C"/>
<path d="M17.9997 24.4286L17.8926 24.5358V30.5358L17.9997 30.8572L25.9283 19.7144L17.9997 24.4286Z" fill="#3C3C3B"/>
<path d="M17.9999 30.8572V24.4286L10.0713 19.7144L17.9999 30.8572Z" fill="#8C8C8C"/>
<path d="M18 22.9285L25.9286 18.2142L18 14.6785V22.9285Z" fill="#141414"/>
<path d="M10.0713 18.2142L17.9999 22.9285V14.6785L10.0713 18.2142Z" fill="#393939"/>
</svg>
