<svg width="34" height="34" viewBox="0 0 34 34" fill="none" xmlns="http://www.w3.org/2000/svg">
<g clip-path="url(#clip0_4244_106391)">
<path d="M17 34C26.3888 34 34 26.3888 34 17C34 7.61116 26.3888 0 17 0C7.61116 0 0 7.61116 0 17C0 26.3888 7.61116 34 17 34Z" fill="#00EF8B"/>
<path d="M24.4459 14.3481H19.6519V19.1421H24.4459V14.3481Z" fill="white"/>
<path d="M14.858 20.9441C14.858 21.9301 14.042 22.7461 13.056 22.7461C12.07 22.7461 11.254 21.9301 11.254 20.9441C11.254 19.9581 12.07 19.1421 13.056 19.1421H14.858V14.3481H13.056C9.41796 14.3481 6.45996 17.3061 6.45996 20.9441C6.45996 24.5821 9.41796 27.5401 13.056 27.5401C16.694 27.5401 19.652 24.5821 19.652 20.9441V19.1421H14.858V20.9441Z" fill="white"/>
<path d="M21.4539 11.9341H26.8599V7.14014H21.4539C17.8159 7.14014 14.8579 10.0981 14.8579 13.7361V14.3481H19.6519V13.7361C19.6519 12.7501 20.4679 11.9341 21.4539 11.9341Z" fill="white"/>
<path d="M19.6519 14.3481H14.8579V19.1421H19.6519V14.3481Z" fill="#16FF99"/>
</g>
<defs>
<clipPath id="clip0_4244_106391">
<rect width="34" height="34" fill="white"/>
</clipPath>
</defs>
</svg>
