<svg width="36" height="36" viewBox="0 0 36 36" fill="none" xmlns="http://www.w3.org/2000/svg">
<path d="M17.9998 35.1427C27.4675 35.1427 35.1426 27.4675 35.1426 17.9998C35.1426 8.53205 27.4675 0.856934 17.9998 0.856934C8.53205 0.856934 0.856934 8.53205 0.856934 17.9998C0.856934 27.4675 8.53205 35.1427 17.9998 35.1427Z" fill="#282828"/>
<path fill-rule="evenodd" clip-rule="evenodd" d="M12.8667 10H9.93333V14.4H7V17.3333H9.93333V18.0667H7V21H9.93333V25.4H12.8667V21L23.1333 21V25.4H26.0667V21H29V18.0667H26.0667V17.3333H29V14.4H26.0667V10H23.1333V14.4H12.8667V10ZM23.1333 18.0667V17.3333H12.8667V18.0667L23.1333 18.0667Z" fill="white"/>
</svg>
