<svg width="194" height="194" viewBox="0 0 194 194" fill="none" xmlns="http://www.w3.org/2000/svg">
<rect x="0.5" y="0.0761719" width="193.5" height="193.5" rx="96.75" fill="white"/>
<path d="M97.2518 179.754C143.052 179.754 180.18 142.625 180.18 96.8253C180.18 51.0251 143.052 13.8967 97.2518 13.8967C51.4516 13.8967 14.3232 51.0251 14.3232 96.8253C14.3232 142.625 51.4516 179.754 97.2518 179.754Z" fill="#D91111"/>
<path d="M151.739 72.2721C147.035 68.9821 142.005 65.4747 137.083 61.9944C136.975 61.9128 136.866 61.8312 136.73 61.7497C136.186 61.3418 135.561 60.9068 134.799 60.6621L134.745 60.6349C121.585 57.4537 108.208 54.1909 95.2656 51.0369C83.5196 48.182 71.8009 45.3271 60.0549 42.4722C59.7558 42.3906 59.4568 42.309 59.1305 42.2275C58.0701 41.9284 56.8465 41.6021 55.5414 41.7652C55.1608 41.8196 54.8345 41.9556 54.5354 42.1459L54.2091 42.4178C53.6925 42.9072 53.4206 43.5326 53.2847 43.886L53.2031 44.1036V45.3543L53.2575 45.5446C60.6803 66.3447 68.2934 87.4439 75.6346 107.863C81.2901 123.579 87.163 139.866 92.9001 155.853C93.2535 156.941 94.2596 157.648 95.5103 157.756H95.7822C96.9513 157.756 97.9845 157.186 98.5011 156.261L120.035 124.857C125.283 117.217 130.531 109.549 135.778 101.909C137.926 98.782 140.074 95.628 142.222 92.5012C145.757 87.3352 149.4 82.006 153.016 76.8128L153.207 76.5409V76.2146C153.288 75.263 153.316 73.3053 151.739 72.2721ZM126.507 83.7189C121.449 86.3563 116.283 89.0753 111.09 91.7671C114.108 88.5315 117.153 85.2688 120.171 82.0332C123.951 77.9547 127.893 73.7403 131.754 69.6075L131.836 69.5259C132.162 69.0909 132.57 68.683 133.005 68.248C133.304 67.9489 133.63 67.6498 133.929 67.2964C135.941 68.683 137.981 70.0969 139.938 71.4836C141.352 72.4896 142.793 73.4956 144.261 74.5016C138.28 77.5469 132.298 80.6737 126.507 83.7189ZM113.51 82.4138C109.622 86.6282 105.598 90.9514 101.601 95.2202C93.8517 85.8126 85.9395 76.269 78.272 67.0517C74.7917 62.8644 71.2843 58.65 67.804 54.4628L67.7768 54.4356C66.9883 53.5384 66.227 52.5596 65.4657 51.6351C64.9763 51.0097 64.4597 50.4116 63.9431 49.7862C67.0971 50.6019 70.2782 51.3632 73.4051 52.0973C76.1512 52.7499 79.0061 53.4296 81.8067 54.1366C97.5767 57.9703 113.374 61.8041 129.144 65.6378C123.896 71.2389 118.622 76.9215 113.51 82.4138ZM99.8334 135.407C100.133 132.552 100.459 129.615 100.731 126.733C100.975 124.422 101.22 122.056 101.465 119.8C101.845 116.183 102.253 112.431 102.58 108.761L102.661 108.108C102.933 105.77 103.205 103.35 103.368 100.93C103.667 100.767 103.993 100.604 104.347 100.468C104.755 100.277 105.163 100.114 105.57 99.8696C111.851 96.5797 118.132 93.2897 124.44 90.027C130.721 86.7642 137.165 83.3927 143.554 80.0483C137.736 88.4771 131.89 96.9875 126.235 105.28C121.368 112.377 116.365 119.691 111.389 126.896C109.431 129.778 107.392 132.715 105.462 135.543C103.287 138.697 101.057 141.932 98.8818 145.168C99.1537 141.905 99.48 138.615 99.8334 135.407ZM61.931 56.203C61.5775 55.2241 61.1969 54.2181 60.8706 53.2665C68.2118 62.1303 75.6074 71.0485 82.8127 79.6949C86.5377 84.1812 90.2627 88.6403 93.9877 93.1538C94.7218 93.9967 95.4559 94.8939 96.1628 95.764C97.0873 96.8788 98.0117 98.0479 99.0177 99.1627C98.6915 101.963 98.4196 104.791 98.1205 107.51C97.9302 109.413 97.7398 111.316 97.5223 113.247V113.274C97.4407 114.498 97.2776 115.721 97.1417 116.918C96.9513 118.576 96.5163 122.328 96.5163 122.328L96.4891 122.519C95.9997 128.011 95.4015 133.558 94.8305 138.941C94.5858 141.171 94.3683 143.455 94.1236 145.739C93.9877 145.331 93.8245 144.923 93.6886 144.542C93.2807 143.455 92.8729 142.313 92.4922 141.198L89.5829 133.123C80.3656 107.483 71.1483 81.87 61.931 56.203Z" fill="white"/>
</svg>
