<svg width="34" height="34" viewBox="0 0 34 34" fill="none" xmlns="http://www.w3.org/2000/svg">
<path d="M16.8409 0C13.5101 0 10.2541 0.987715 7.48467 2.83822C4.7152 4.68872 2.5566 7.31893 1.28196 10.3962C0.00730706 13.4735 -0.326213 16.8596 0.323597 20.1264C0.973408 23.3932 2.5774 26.394 4.93265 28.7492C7.28789 31.1045 10.2886 32.7084 13.5554 33.3583C16.8223 34.0081 20.2084 33.6745 23.2857 32.3999C26.3629 31.1252 28.9931 28.9667 30.8436 26.1972C32.6941 23.4277 33.6819 20.1717 33.6819 16.8409C33.6819 12.3744 31.9075 8.0909 28.7492 4.93261C25.591 1.77433 21.3074 0 16.8409 0ZM17.0815 17.3221L15.3974 23.3367H24.7802C24.9042 23.3476 25.0204 23.4017 25.1084 23.4897C25.1964 23.5777 25.2506 23.6939 25.2614 23.8178L24.5397 26.4643C24.5288 26.5883 24.4747 26.7045 24.3867 26.7925C24.2987 26.8805 24.1824 26.9346 24.0585 26.9455H9.38281L11.7887 18.7656L9.14221 19.728L9.62341 17.8032L12.2699 17.0815L15.638 5.77401C15.6489 5.65004 15.703 5.53389 15.791 5.4459C15.879 5.3579 15.9952 5.30373 16.1192 5.29289H19.728C20.2092 5.29289 20.4497 5.29284 20.4497 5.77401L17.5627 15.3974L20.2091 14.6757L19.728 16.6003L17.0815 17.3221Z" fill="#4055DC"/>
</svg>
