<svg width="34" height="34" viewBox="0 0 34 34" fill="none" xmlns="http://www.w3.org/2000/svg">
<rect width="34" height="34" rx="17" fill="black"/>
<path d="M23.828 8.07333L19.4462 14.5833C19.1432 15.0267 19.7259 15.5633 20.1454 15.19L24.4573 11.4333C24.5738 11.34 24.737 11.41 24.737 11.5733V23.31C24.737 23.4733 24.5272 23.5433 24.434 23.4267L11.3818 7.79333C10.9623 7.28 10.3563 7 9.68036 7H9.21421C8.00222 7 7 8.00333 7 9.24V25.76C7 26.9967 8.00222 28 9.23751 28C10.0067 28 10.7292 27.6033 11.1487 26.9267L15.5305 20.4167C15.8335 19.9733 15.2508 19.4367 14.8313 19.81L10.5194 23.5433C10.4029 23.6367 10.2397 23.5667 10.2397 23.4033V11.69C10.2397 11.5267 10.4495 11.4567 10.5427 11.5733L23.5949 27.2067C24.0144 27.72 24.6437 28 25.2963 28H25.7625C26.9978 28 28 26.9967 28 25.76V9.24C28 8.00333 26.9978 7 25.7625 7C24.97 7 24.2475 7.39667 23.828 8.07333Z" fill="white"/>
</svg>
