<svg width="36" height="36" viewBox="0 0 36 36" fill="none" xmlns="http://www.w3.org/2000/svg">
<path d="M18.0003 35.1426C27.468 35.1426 35.1431 27.4675 35.1431 17.9998C35.1431 8.53205 27.468 0.856934 18.0003 0.856934C8.53254 0.856934 0.857422 8.53205 0.857422 17.9998C0.857422 27.4675 8.53254 35.1426 18.0003 35.1426Z" fill="black"/>
<path d="M29.2636 12.9242C28.2912 12.2441 27.2514 11.5191 26.2341 10.7996C26.2116 10.7828 26.1891 10.7659 26.161 10.749C26.0486 10.6647 25.9194 10.5748 25.762 10.5242L25.7507 10.5186C23.0304 9.86098 20.265 9.18651 17.5896 8.53452C15.1615 7.94436 12.739 7.35419 10.3109 6.76403C10.2491 6.74717 10.1873 6.7303 10.1198 6.71344C9.90062 6.65162 9.64769 6.58417 9.3779 6.61789C9.29922 6.62913 9.23177 6.65724 9.16994 6.69658L9.10249 6.75279C8.9957 6.85396 8.9395 6.98323 8.91139 7.0563L8.89453 7.10126V7.35981L8.90577 7.39916C10.4402 11.6989 12.014 16.0605 13.5315 20.2816C14.7006 23.5303 15.9147 26.8971 17.1006 30.202C17.1737 30.4268 17.3816 30.5729 17.6402 30.5954H17.6964C17.9381 30.5954 18.1517 30.4774 18.2585 30.2863L22.71 23.7945C23.7948 22.2151 24.8795 20.6301 25.9643 19.0507C26.4083 18.4043 26.8524 17.7523 27.2964 17.106C28.0271 16.038 28.7802 14.9364 29.5278 13.8629L29.5671 13.8067V13.7392C29.584 13.5425 29.5896 13.1378 29.2636 12.9242ZM24.0477 15.2905C23.0023 15.8357 21.9343 16.3978 20.8608 16.9542C21.4847 16.2853 22.1142 15.6109 22.7381 14.942C23.5194 14.0989 24.3343 13.2277 25.1325 12.3734L25.1493 12.3565C25.2168 12.2666 25.3011 12.1823 25.391 12.0924C25.4528 12.0305 25.5203 11.9687 25.5821 11.8956C25.998 12.1823 26.4196 12.4746 26.8243 12.7612C27.1165 12.9692 27.4144 13.1771 27.7179 13.3851C26.4814 14.0146 25.2449 14.661 24.0477 15.2905ZM21.361 15.0207C20.5573 15.8919 19.7254 16.7856 18.8992 17.668C17.2973 15.7233 15.6617 13.7504 14.0767 11.8451C13.3573 10.9795 12.6322 10.1083 11.9128 9.24272L11.9072 9.2371C11.7442 9.05162 11.5868 8.84927 11.4294 8.65817C11.3283 8.5289 11.2215 8.40525 11.1147 8.27597C11.7667 8.44459 12.4243 8.60197 13.0706 8.75372C13.6383 8.88862 14.2285 9.02913 14.8074 9.17527C18.0674 9.96778 21.3329 10.7603 24.5929 11.5528C23.5081 12.7106 22.4177 13.8853 21.361 15.0207ZM18.5339 25.9753C18.5957 25.3851 18.6631 24.7781 18.7194 24.1823C18.7699 23.7045 18.8205 23.2156 18.8711 22.749C18.9498 22.0015 19.0341 21.2259 19.1016 20.4671L19.1184 20.3322C19.1746 19.8488 19.2308 19.3486 19.2646 18.8483C19.3264 18.8146 19.3938 18.7809 19.4669 18.7528C19.5512 18.7134 19.6355 18.6797 19.7198 18.6291C21.0182 17.949 22.3165 17.2689 23.6205 16.5945C24.9189 15.92 26.251 15.223 27.5718 14.5317C26.369 16.2741 25.1606 18.0334 23.9915 19.7476C22.9854 21.2146 21.9512 22.7266 20.9226 24.216C20.5179 24.8118 20.0964 25.4188 19.6973 26.0034C19.2477 26.6554 18.7868 27.3242 18.3372 27.9931C18.3934 27.3186 18.4608 26.6385 18.5339 25.9753ZM10.6987 9.60244C10.6257 9.40009 10.547 9.19213 10.4795 8.99541C11.9971 10.8277 13.5259 12.6713 15.0154 14.4586C15.7854 15.386 16.5554 16.3078 17.3254 17.2408C17.4772 17.4151 17.629 17.6006 17.7751 17.7804C17.9662 18.0109 18.1573 18.2526 18.3653 18.483C18.2978 19.0619 18.2416 19.6465 18.1798 20.2085C18.1404 20.602 18.1011 20.9954 18.0561 21.3945V21.4001C18.0393 21.653 18.0055 21.906 17.9774 22.1533C17.9381 22.4961 17.8482 23.2718 17.8482 23.2718L17.8425 23.3111C17.7414 24.4465 17.6177 25.5931 17.4997 26.706C17.4491 27.1668 17.4041 27.639 17.3535 28.1111C17.3254 28.0268 17.2917 27.9425 17.2636 27.8638C17.1793 27.639 17.095 27.4029 17.0163 27.1725L16.4149 25.5031C14.5095 20.2029 12.6041 14.9083 10.6987 9.60244Z" fill="white"/>
</svg>
