<svg width="21" height="21" viewBox="0 0 21 21" fill="none" xmlns="http://www.w3.org/2000/svg">
<rect x="0.5" y="1" width="20" height="20" rx="10" fill="white"/>
<path d="M10.5714 19.6429C15.3053 19.6429 19.1429 15.8053 19.1429 11.0714C19.1429 6.33756 15.3053 2.5 10.5714 2.5C5.83756 2.5 2 6.33756 2 11.0714C2 15.8053 5.83756 19.6429 10.5714 19.6429Z" fill="#26A17B"/>
<path fill-rule="evenodd" clip-rule="evenodd" d="M11.6011 11.8123V11.8112C11.5421 11.8155 11.2384 11.8337 10.5607 11.8337C10.0196 11.8337 9.63875 11.8176 9.50482 11.8112V11.8128C7.42196 11.7212 5.86732 11.3585 5.86732 10.9246C5.86732 10.4912 7.42196 10.1285 9.50482 10.0353V11.4518C9.64089 11.4614 10.0309 11.4844 10.5698 11.4844C11.2164 11.4844 11.5405 11.4576 11.6011 11.4523V10.0364C13.6796 10.1291 15.2305 10.4918 15.2305 10.9246C15.2305 11.3585 13.6796 11.7201 11.6011 11.8123V11.8123ZM11.6011 9.88908V8.62158H14.5014V6.68872H6.60446V8.62158H9.50482V9.88854C7.14768 9.99676 5.375 10.4639 5.375 11.0232C5.375 11.5825 7.14768 12.0491 9.50482 12.1578V16.2196H11.6011V12.1568C13.9545 12.0485 15.7229 11.5819 15.7229 11.0232C15.7229 10.4644 13.9545 9.99783 11.6011 9.88908" fill="white"/>
<g clip-path="url(#clip0_4332_14001)">
<path d="M16.5 8C18.1569 8 19.5 6.65685 19.5 5C19.5 3.34315 18.1569 2 16.5 2C14.8431 2 13.5 3.34315 13.5 5C13.5 6.65685 14.8431 8 16.5 8Z" fill="#E9E9E9"/>
<path d="M16.5004 2.75L16.4629 2.84375V5.825L16.5004 5.8625L17.8879 5.0375L16.5004 2.75Z" fill="#343434"/>
<path d="M16.5008 2.75L15.1133 5.0375L16.5008 5.8625V4.41875V2.75Z" fill="#8C8C8C"/>
<path d="M16.5012 6.12505L16.4824 6.1438V7.1938L16.5012 7.25005L17.8887 5.30005L16.5012 6.12505Z" fill="#3C3C3B"/>
<path d="M16.5008 7.25005V6.12505L15.1133 5.30005L16.5008 7.25005Z" fill="#8C8C8C"/>
<path d="M16.501 5.86245L17.8885 5.03745L16.501 4.4187V5.86245Z" fill="#141414"/>
<path d="M15.1133 5.03745L16.5008 5.86245V4.4187L15.1133 5.03745Z" fill="#393939"/>
</g>
<rect x="12.75" y="1.25" width="7.5" height="7.5" rx="3.75" stroke="white" stroke-width="1.5"/>
<defs>
<clipPath id="clip0_4332_14001">
<rect x="13.5" y="2" width="6" height="6" rx="3" fill="white"/>
</clipPath>
</defs>
</svg>
