<svg width="21" height="21" viewBox="0 0 21 21" fill="none" xmlns="http://www.w3.org/2000/svg">
<rect x="0.5" y="1" width="20" height="20" rx="10" fill="white"/>
<path d="M10.5 19.5C15.2104 19.5 19 15.7104 19 11C19 6.28956 15.2104 2.5 10.5 2.5C5.78956 2.5 2 6.28956 2 11C2 15.7104 5.78956 19.5 10.5 19.5Z" fill="#2775CA"/>
<path d="M12.8376 12.3458C12.8376 11.1062 12.0939 10.6812 10.6064 10.5042C9.54385 10.3625 9.33135 10.0792 9.33135 9.5833C9.33135 9.08741 9.68555 8.76875 10.3939 8.76875C11.0314 8.76875 11.3855 8.98125 11.5626 9.5125C11.598 9.61875 11.7043 9.68955 11.8105 9.68955H12.3772C12.5189 9.68955 12.6251 9.5833 12.6251 9.44169V9.40625C12.4834 8.62705 11.8459 8.025 11.0314 7.95419V7.10419C11.0314 6.9625 10.9251 6.85625 10.748 6.8208H10.2168C10.0751 6.8208 9.96885 6.92705 9.93341 7.10419V7.91875C8.87091 8.06044 8.19805 8.76875 8.19805 9.65419C8.19805 10.8229 8.90635 11.2833 10.3939 11.4604C11.3855 11.6375 11.7043 11.85 11.7043 12.4167C11.7043 12.9834 11.2084 13.3729 10.5355 13.3729C9.61466 13.3729 9.29591 12.9833 9.18966 12.4521C9.1543 12.3104 9.04805 12.2396 8.9418 12.2396H8.33966C8.19805 12.2396 8.0918 12.3458 8.0918 12.4875V12.5229C8.23341 13.4083 8.8001 14.0458 9.96885 14.2229V15.0729C9.96885 15.2146 10.0751 15.3208 10.2522 15.3562H10.7834C10.9251 15.3562 11.0314 15.25 11.0668 15.0729V14.2229C12.1293 14.0458 12.8376 13.3021 12.8376 12.3458Z" fill="white"/>
<path d="M8.69347 16.0646C5.93096 15.073 4.51427 11.9918 5.54141 9.26461C6.07266 7.77711 7.24141 6.6438 8.69347 6.11255C8.83516 6.04175 8.90597 5.9355 8.90597 5.75836V5.26255C8.90597 5.12086 8.83516 5.01461 8.69347 4.97925C8.65802 4.97925 8.58722 4.97925 8.55177 5.01461C5.18721 6.07711 3.34552 9.65425 4.40802 13.0188C5.04552 15.0021 6.56846 16.5251 8.55177 17.1626C8.69347 17.2334 8.83516 17.1626 8.87052 17.0209C8.90597 16.9855 8.90597 16.9501 8.90597 16.8793V16.3834C8.90597 16.2771 8.79972 16.1355 8.69347 16.0646ZM12.4477 5.01461C12.306 4.9438 12.1643 5.01461 12.1289 5.1563C12.0935 5.19175 12.0935 5.22711 12.0935 5.298V5.7938C12.0935 5.9355 12.1997 6.07711 12.306 6.148C15.0685 7.13961 16.4852 10.2209 15.458 12.948C14.9268 14.4355 13.758 15.5688 12.306 16.1001C12.1643 16.1709 12.0935 16.2771 12.0935 16.4543V16.9501C12.0935 17.0918 12.1643 17.198 12.306 17.2334C12.3414 17.2334 12.4122 17.2334 12.4477 17.198C15.8122 16.1355 17.6539 12.5584 16.5914 9.19381C15.9539 7.17505 14.3955 5.65211 12.4477 5.01461Z" fill="white"/>
<g clip-path="url(#clip0_4332_3220)">
<path d="M16.5 8C18.1569 8 19.5 6.65685 19.5 5C19.5 3.34315 18.1569 2 16.5 2C14.8431 2 13.5 3.34315 13.5 5C13.5 6.65685 14.8431 8 16.5 8Z" fill="#F3BA2F"/>
<path d="M15.7717 4.70075L16.5 3.9725L17.2286 4.70113L17.6524 4.27737L16.5 3.125L15.348 4.277L15.7717 4.70075ZM14.625 5L15.0487 4.57625L15.4725 5L15.0487 5.42375L14.625 5ZM15.7717 5.29925L16.5 6.0275L17.2286 5.29887L17.6524 5.72244L16.5 6.875L15.348 5.723L15.3474 5.72244L15.7717 5.29925ZM17.5275 5L17.9512 4.57625L18.375 5L17.9512 5.42375L17.5275 5ZM16.9297 4.99962H16.9301V5L16.5 5.43013L16.0704 5.00075L16.0697 5L16.0704 4.99944L16.1456 4.92406L16.1822 4.8875L16.5 4.56988L16.9299 4.99981L16.9297 4.99962Z" fill="white"/>
</g>
<rect x="12.75" y="1.25" width="7.5" height="7.5" rx="3.75" stroke="white" stroke-width="1.5"/>
<defs>
<clipPath id="clip0_4332_3220">
<rect x="13.5" y="2" width="6" height="6" rx="3" fill="white"/>
</clipPath>
</defs>
</svg>
