<svg width="28" height="28" viewBox="0 0 28 28" fill="none" xmlns="http://www.w3.org/2000/svg">
<rect width="28" height="28" rx="14" fill="white"/>
<path d="M25.6419 16.8924C24.0452 23.3283 17.5442 27.2387 11.1083 25.6419C4.67248 24.0452 0.762097 17.5279 2.35884 11.1083C3.95558 4.67248 10.4566 0.762097 16.8762 2.35884C23.2794 3.92299 27.2224 10.3751 25.6582 16.7784C25.6582 16.811 25.6419 16.8599 25.6419 16.8924Z" fill="#ECECEC"/>
<path d="M18.7493 8H20.7733L16.5601 12.3141C15.0347 13.8761 12.5615 13.8761 11.0394 12.3141L6.82617 8H8.85023L12.0498 11.2772C13.0172 12.2652 14.5823 12.2652 15.5465 11.2772L18.7493 8Z" fill="black"/>
<path d="M8.82484 20.0003H6.80078L11.0404 15.6568C12.5659 14.0949 15.039 14.0949 16.5645 15.6568L20.8008 20.0003H18.7767L15.5508 16.697C14.5833 15.709 13.0182 15.709 12.0541 16.697L8.82484 20.0003Z" fill="black"/>
</svg>
