<svg width="50" height="50" viewBox="0 0 50 50" fill="none" xmlns="http://www.w3.org/2000/svg">
<path d="M2.52468 5.75292C2.85594 3.99232 4.25351 2.62792 6.02226 2.3338C20.8703 -0.135236 30.1229 -0.0812501 43.9702 2.31586C45.7198 2.61873 47.1003 3.97343 47.4326 5.71666C50.2919 20.713 50.0873 30.0758 47.4234 44.2753C47.094 46.0312 45.7079 47.3978 43.948 47.6993C29.6256 50.1528 20.3676 50.0523 6.0485 47.6832C4.26813 47.3886 2.8624 46.0105 2.53612 44.2367C-0.140206 29.6877 -0.213065 20.3036 2.52468 5.75292Z" fill="white" stroke="#E4E4E4"/>
<path d="M35.4129 15.2848C33.4709 14.3762 31.3945 13.7158 29.2236 13.3398C28.957 13.8219 28.6455 14.4702 28.4308 14.9859C26.1231 14.6389 23.8367 14.6389 21.5714 14.9859C21.3567 14.4702 21.0382 13.8219 20.7692 13.3398C18.596 13.7158 16.5172 14.3786 14.5752 15.2896C10.6583 21.2086 9.59649 26.9806 10.1274 32.6706C12.7253 34.6107 15.243 35.7892 17.7182 36.5604C18.3294 35.7193 18.8744 34.8252 19.344 33.8828C18.4497 33.543 17.5932 33.1237 16.7838 32.6369C16.9985 32.4778 17.2086 32.3115 17.4115 32.1404C22.3477 34.4492 27.7111 34.4492 32.5884 32.1404C32.7937 32.3115 33.0037 32.4778 33.2161 32.6369C32.4044 33.1261 31.5455 33.5454 30.6512 33.8853C31.1207 34.8252 31.6635 35.7217 32.2769 36.5628C34.7545 35.7916 37.2746 34.6131 39.8725 32.6706C40.4954 26.0744 38.8083 20.3554 35.4129 15.2848ZM20.0165 29.1713C18.5347 29.1713 17.3194 27.7879 17.3194 26.1033C17.3194 24.4187 18.5087 23.033 20.0165 23.033C21.5243 23.033 22.7394 24.4163 22.7135 26.1033C22.7158 27.7879 21.5243 29.1713 20.0165 29.1713ZM29.9834 29.1713C28.5016 29.1713 27.2864 27.7879 27.2864 26.1033C27.2864 24.4187 28.4756 23.033 29.9834 23.033C31.4912 23.033 32.7064 24.4163 32.6805 26.1033C32.6805 27.7879 31.4912 29.1713 29.9834 29.1713Z" fill="#5865F2"/>
</svg>
