<svg width="50" height="50" viewBox="0 0 50 50" fill="none" xmlns="http://www.w3.org/2000/svg">
<path d="M2.52468 5.75292C2.85594 3.99232 4.25351 2.62792 6.02226 2.3338C20.8703 -0.135236 30.1229 -0.0812501 43.9702 2.31586C45.7198 2.61873 47.1003 3.97343 47.4326 5.71666C50.2919 20.713 50.0873 30.0758 47.4234 44.2753C47.094 46.0312 45.7079 47.3978 43.948 47.6993C29.6256 50.1528 20.3676 50.0523 6.0485 47.6832C4.26813 47.3886 2.8624 46.0105 2.53612 44.2367C-0.140206 29.6877 -0.213065 20.3036 2.52468 5.75292Z" fill="white" stroke="#E4E4E4"/>
<g clip-path="url(#clip0_4485_2824)">
<path d="M40 25C40 16.7148 33.2852 10 25 10C16.7148 10 10 16.7148 10 25C10 33.2852 16.7148 40 25 40C25.0879 40 25.1758 40 25.2637 39.9941V28.3223H22.041V24.5664H25.2637V21.8008C25.2637 18.5957 27.2207 16.8496 30.0801 16.8496C31.4512 16.8496 32.6289 16.9492 32.9688 16.9961V20.3477H31C29.4473 20.3477 29.1426 21.0859 29.1426 22.1699V24.5605H32.8633L32.377 28.3164H29.1426V39.4199C35.4121 37.6211 40 31.8496 40 25Z" fill="#286FDA"/>
</g>
<defs>
<clipPath id="clip0_4485_2824">
<rect width="30" height="30" fill="white" transform="translate(10 10)"/>
</clipPath>
</defs>
</svg>
