<svg width="50" height="50" viewBox="0 0 50 50" fill="none" xmlns="http://www.w3.org/2000/svg">
<path d="M2.52468 5.75292C2.85594 3.99232 4.25351 2.62792 6.02226 2.3338C20.8703 -0.135236 30.1229 -0.0812501 43.9702 2.31586C45.7198 2.61873 47.1003 3.97343 47.4326 5.71666C50.2919 20.713 50.0873 30.0758 47.4234 44.2753C47.094 46.0312 45.7079 47.3978 43.948 47.6993C29.6256 50.1528 20.3676 50.0523 6.0485 47.6832C4.26813 47.3886 2.8624 46.0105 2.53612 44.2367C-0.140206 29.6877 -0.213065 20.3036 2.52468 5.75292Z" fill="white" stroke="#E4E4E4"/>
<path fill-rule="evenodd" clip-rule="evenodd" d="M20.9271 38.6311C20.9272 38.8573 20.8714 39.08 20.7648 39.2793C20.6582 39.4785 20.5041 39.6482 20.3163 39.7729C20.1284 39.8977 19.9127 39.9738 19.6885 39.9943C19.4642 40.0149 19.2384 39.9793 19.0312 39.8907C15.868 38.5125 13.2741 36.0818 11.6859 33.0076C10.0978 29.9335 9.61249 26.4036 10.3116 23.0121C11.0108 19.6207 12.8517 16.5747 15.5246 14.3869C18.1975 12.1991 21.5391 11.003 24.987 11C28.4349 10.997 31.7786 12.1873 34.4552 14.3704C37.1319 16.5536 38.9781 19.5964 39.6831 22.9866C40.3881 26.3769 39.9088 29.9076 38.326 32.9845C36.7432 36.0614 34.1534 38.4966 30.9926 39.8803C30.7871 39.9681 30.5631 40.0034 30.3407 39.9831C30.1183 39.9627 29.9043 39.8873 29.718 39.7635C29.5317 39.6398 29.3788 39.4716 29.273 39.274C29.1673 39.0763 29.1119 38.8555 29.1119 38.6311C29.1012 37.0147 29.1012 34.9697 29.1012 34.9697C29.1012 33.8808 28.6706 32.8366 27.9041 32.0667C27.819 31.9812 27.7306 31.8999 27.639 31.8229C27.6146 31.8025 27.5971 31.775 27.5888 31.7443C27.5806 31.7135 27.5819 31.681 27.5927 31.651C27.6035 31.6211 27.6232 31.5952 27.6492 31.5769C27.6752 31.5586 27.7061 31.5488 27.7378 31.5488L27.7389 31.5485C29.5455 31.5485 31.2781 30.8276 32.5555 29.5444C33.833 28.2612 34.5506 26.5208 34.5506 24.7061C34.553 23.2207 34.0719 21.7752 33.1807 20.5899C33.4127 19.5489 33.3903 18.467 33.1154 17.4367L32.9996 17.0023C32.9528 16.827 32.8387 16.6776 32.6822 16.5869C32.5258 16.4961 32.3398 16.4715 32.1653 16.5185L31.7329 16.6348C30.7782 16.8918 29.8935 17.3616 29.1445 18.0094C28.6822 17.9122 28.2111 17.8633 27.7389 17.8636H22.2894C21.8173 17.8634 21.3463 17.9122 20.8842 18.0094C20.1352 17.3617 19.2504 16.8918 18.2957 16.6349L17.8633 16.5186C17.6888 16.4716 17.5029 16.4962 17.3464 16.5869C17.19 16.6777 17.0758 16.8271 17.0291 17.0024L16.9133 17.4367C16.6384 18.4671 16.616 19.549 16.8479 20.5899C15.9567 21.7752 15.4755 23.2206 15.4777 24.7061C15.4777 26.5208 16.1954 28.2612 17.4728 29.5444C18.7503 30.8276 20.4829 31.5485 22.2894 31.5485H22.2905C22.3221 31.5486 22.353 31.5585 22.3788 31.5769C22.4047 31.5952 22.4244 31.6211 22.4351 31.651C22.4459 31.6809 22.4473 31.7134 22.439 31.7441C22.4308 31.7748 22.4134 31.8023 22.3892 31.8227C22.2978 31.8999 22.2094 31.9812 22.1242 32.0667C21.5241 32.6695 21.1257 33.4449 20.9842 34.2854H20.2459C19.6114 34.2854 18.9856 34.137 18.4181 33.852C17.8506 33.567 17.357 33.1531 16.9763 32.6433C16.7226 32.3035 16.3933 32.0272 16.0151 31.8373C15.637 31.6473 15.22 31.5485 14.7972 31.5485C14.6165 31.5485 14.4426 31.6206 14.3148 31.7489C14.1871 31.8772 14.1153 32.0512 14.1153 32.2327C14.1153 32.4142 14.1871 32.5882 14.3148 32.7165C14.4426 32.8449 14.6159 32.917 14.7965 32.917C15.0042 32.917 15.2084 32.971 15.3892 33.0738C15.57 33.1766 15.7211 33.3247 15.828 33.5036L15.9337 33.6806C16.4179 34.4912 17.1029 35.162 17.9218 35.6277C18.7408 36.0935 19.6658 36.3382 20.6069 36.3382H20.9271V38.6311Z" fill="#161616"/>
</svg>
