<svg width="50" height="50" viewBox="0 0 50 50" fill="none" xmlns="http://www.w3.org/2000/svg">
<path d="M2.52468 5.75292C2.85594 3.99232 4.25351 2.62792 6.02226 2.3338C20.8703 -0.135236 30.1229 -0.0812501 43.9702 2.31586C45.7198 2.61873 47.1003 3.97343 47.4326 5.71666C50.2919 20.713 50.0873 30.0758 47.4234 44.2753C47.094 46.0312 45.7079 47.3978 43.948 47.6993C29.6256 50.1528 20.3676 50.0523 6.0485 47.6832C4.26813 47.3886 2.8624 46.0105 2.53612 44.2367C-0.140206 29.6877 -0.213065 20.3036 2.52468 5.75292Z" fill="white" stroke="#E4E4E4"/>
<g clip-path="url(#clip0_5671_16634)">
<path d="M32.9081 39.2028L17.1186 39.2178C13.6449 39.2209 10.8004 36.382 10.7965 32.9083L10.7815 17.1188C10.7783 13.6452 13.6173 10.8007 17.091 10.7967L32.8804 10.7817C36.3541 10.7786 39.1986 13.6175 39.2026 17.0912L39.2175 32.8807C39.2215 36.3552 36.3818 39.1996 32.9081 39.2028Z" fill="url(#paint0_radial_5671_16634)"/>
<path d="M32.9081 39.2028L17.1186 39.2178C13.6449 39.2209 10.8004 36.382 10.7965 32.9083L10.7815 17.1188C10.7783 13.6452 13.6173 10.8007 17.091 10.7967L32.8804 10.7817C36.3541 10.7786 39.1986 13.6175 39.2026 17.0912L39.2175 32.8807C39.2215 36.3552 36.3818 39.1996 32.9081 39.2028Z" fill="url(#paint1_radial_5671_16634)"/>
<path d="M24.9999 30.5263C21.9534 30.5263 19.4736 28.0473 19.4736 24.9999C19.4736 21.9526 21.9534 19.4736 24.9999 19.4736C28.0465 19.4736 30.5263 21.9526 30.5263 24.9999C30.5263 28.0473 28.0465 30.5263 24.9999 30.5263ZM24.9999 21.0526C22.8234 21.0526 21.0526 22.8234 21.0526 24.9999C21.0526 27.1765 22.8234 28.9473 24.9999 28.9473C27.1765 28.9473 28.9473 27.1765 28.9473 24.9999C28.9473 22.8234 27.1765 21.0526 24.9999 21.0526Z" fill="white"/>
<path d="M30.921 20.263C31.575 20.263 32.1052 19.7328 32.1052 19.0787C32.1052 18.4247 31.575 17.8945 30.921 17.8945C30.267 17.8945 29.7368 18.4247 29.7368 19.0787C29.7368 19.7328 30.267 20.263 30.921 20.263Z" fill="white"/>
<path d="M29.7368 35.2631H20.2631C17.2166 35.2631 14.7368 32.7842 14.7368 29.7368V20.2631C14.7368 17.2158 17.2166 14.7368 20.2631 14.7368H29.7368C32.7834 14.7368 35.2631 17.2158 35.2631 20.2631V29.7368C35.2631 32.7842 32.7834 35.2631 29.7368 35.2631ZM20.2631 16.3158C18.0866 16.3158 16.3158 18.0866 16.3158 20.2631V29.7368C16.3158 31.9134 18.0866 33.6842 20.2631 33.6842H29.7368C31.9134 33.6842 33.6842 31.9134 33.6842 29.7368V20.2631C33.6842 18.0866 31.9134 16.3158 29.7368 16.3158H20.2631Z" fill="white"/>
</g>
<defs>
<radialGradient id="paint0_radial_5671_16634" cx="0" cy="0" r="1" gradientUnits="userSpaceOnUse" gradientTransform="translate(21.3525 39.2383) scale(35.4466 35.4466)">
<stop stop-color="#FFDD55"/>
<stop offset="0.328" stop-color="#FF543F"/>
<stop offset="0.348" stop-color="#FC5245"/>
<stop offset="0.504" stop-color="#E64771"/>
<stop offset="0.643" stop-color="#D53E91"/>
<stop offset="0.761" stop-color="#CC39A4"/>
<stop offset="0.841" stop-color="#C837AB"/>
</radialGradient>
<radialGradient id="paint1_radial_5671_16634" cx="0" cy="0" r="1" gradientUnits="userSpaceOnUse" gradientTransform="translate(15.3573 10.4267) scale(23.5366 15.6824)">
<stop stop-color="#4168C9"/>
<stop offset="0.999" stop-color="#4168C9" stop-opacity="0"/>
</radialGradient>
<clipPath id="clip0_5671_16634">
<rect width="30" height="30" fill="white" transform="translate(10 10)"/>
</clipPath>
</defs>
</svg>
