<svg width="50" height="50" viewBox="0 0 50 50" fill="none" xmlns="http://www.w3.org/2000/svg">
<path d="M2.52468 5.75292C2.85594 3.99232 4.25351 2.62792 6.02226 2.3338C20.8703 -0.135236 30.1229 -0.0812501 43.9702 2.31586C45.7198 2.61873 47.1003 3.97343 47.4326 5.71666C50.2919 20.713 50.0873 30.0758 47.4234 44.2753C47.094 46.0312 45.7079 47.3978 43.948 47.6993C29.6256 50.1528 20.3676 50.0523 6.0485 47.6832C4.26813 47.3886 2.8624 46.0105 2.53612 44.2367C-0.140206 29.6877 -0.213065 20.3036 2.52468 5.75292Z" fill="white" stroke="#E4E4E4"/>
<g clip-path="url(#clip0_5671_17481)">
<path d="M40 35.8333C40 38.135 38.135 40 35.8333 40H14.1667C11.8658 40 10 38.135 10 35.8333V14.1667C10 11.865 11.8658 10 14.1667 10H35.8333C38.135 10 40 11.865 40 14.1667V35.8333Z" fill="#0288D1"/>
<path d="M15 20.8333H19.1667V35H15V20.8333ZM17.0708 19.1667H17.0475C15.8042 19.1667 15 18.24 15 17.0825C15 15.9 15.8292 15 17.095 15C18.3625 15 19.1433 15.9 19.1667 17.0825C19.1667 18.2392 18.3625 19.1667 17.0708 19.1667ZM35 35H30.8333V27.4175C30.8333 25.5858 29.8125 24.3358 28.1733 24.3358C26.9225 24.3358 26.2458 25.1792 25.9175 25.9942C25.7975 26.2858 25.8333 27.0925 25.8333 27.5V35H21.6667V20.8333H25.8333V23.0133C26.4342 22.0833 27.375 20.8333 29.7817 20.8333C32.7633 20.8333 34.9992 22.7083 34.9992 26.895L35 35Z" fill="white"/>
</g>
<defs>
<clipPath id="clip0_5671_17481">
<rect width="30" height="30" fill="white" transform="translate(10 10)"/>
</clipPath>
</defs>
</svg>
