<svg width="170" height="42" viewBox="0 0 170 42" fill="none" xmlns="http://www.w3.org/2000/svg">
<g clip-path="url(#clip0_5962_8373)">
<path d="M44.7488 14.9551H61.9188V18.1618H55.1584V36.2387H51.4527V18.1618H44.7207L44.7488 14.9551ZM61.1833 20.8294H64.3512V23.8091H64.4077C64.5209 23.3834 64.719 22.9861 65.0019 22.5888C65.2848 22.1915 65.6241 21.8226 66.0483 21.5105C66.4444 21.1699 66.897 20.9145 67.4063 20.7159C67.8869 20.5172 68.3963 20.4037 68.9053 20.4037C69.3014 20.4037 69.5843 20.4321 69.7256 20.4321C69.8672 20.4605 70.0368 20.4888 70.1781 20.4888V23.7524C69.952 23.6956 69.6975 23.6672 69.4427 23.6388C69.1882 23.6105 68.962 23.5821 68.7072 23.5821C68.1417 23.5821 67.604 23.6956 67.095 23.9226C66.586 24.1497 66.1615 24.4902 65.7657 24.9159C65.398 25.3699 65.0867 25.9091 64.8603 26.5618C64.6341 27.2145 64.5209 27.9807 64.5209 28.8321V36.1537H61.1265L61.1833 20.8294ZM85.7356 36.2387H82.398V34.0819H82.3412C81.917 34.8767 81.2948 35.4725 80.4745 35.9552C79.6542 36.4376 78.8055 36.6646 77.9569 36.6646C75.9485 36.6646 74.4776 36.1819 73.5725 35.1605C72.6674 34.1673 72.2148 32.6348 72.2148 30.6199V20.8294H75.6092V30.2794C75.6092 31.6415 75.8637 32.6064 76.4011 33.1455C76.9104 33.7131 77.6459 33.997 78.5791 33.997C79.2865 33.997 79.8803 33.8834 80.3613 33.6564C80.8422 33.4293 81.238 33.1455 81.5209 32.7767C81.8322 32.4077 82.0303 31.9537 82.1715 31.4429C82.3128 30.9321 82.3696 30.3645 82.3696 29.7686V20.8294H85.764V36.2387H85.7356ZM91.506 31.301C91.6192 32.2943 91.987 32.9752 92.6373 33.4011C93.2879 33.7984 94.0801 33.997 94.9852 33.997C95.2962 33.997 95.6639 33.9684 96.06 33.912C96.4562 33.8552 96.8519 33.7699 97.1916 33.6281C97.5593 33.4861 97.8422 33.2876 98.0683 33.0037C98.2948 32.7199 98.4077 32.3794 98.3796 31.9537C98.3512 31.528 98.21 31.1591 97.8987 30.8753C97.5874 30.5915 97.2197 30.3929 96.7671 30.1943C96.3145 30.024 95.7771 29.8821 95.1833 29.7686C94.5891 29.655 93.9953 29.5132 93.3727 29.3713C92.7505 29.2294 92.1283 29.0591 91.5344 28.8605C90.9402 28.6618 90.4312 28.4064 89.9503 28.0375C89.4977 27.697 89.1016 27.2713 88.8471 26.7321C88.5642 26.1929 88.4229 25.5686 88.4229 24.774C88.4229 23.9226 88.6206 23.2415 89.0451 22.674C89.4409 22.1064 89.9787 21.6524 90.6009 21.3118C91.2231 20.9713 91.9302 20.7159 92.694 20.574C93.4579 20.4321 94.193 20.3753 94.872 20.3753C95.6639 20.3753 96.4278 20.4605 97.1348 20.6308C97.8422 20.801 98.5209 21.0564 99.0867 21.4537C99.6805 21.8226 100.161 22.3334 100.529 22.9294C100.925 23.5253 101.151 24.2632 101.265 25.1145H97.729C97.5593 24.2915 97.1916 23.7524 96.6258 23.4686C96.0317 23.1848 95.381 23.0429 94.6175 23.0429C94.3911 23.0429 94.0801 23.0713 93.7688 23.0997C93.4295 23.1564 93.1466 23.2132 92.8353 23.3267C92.5524 23.4402 92.2979 23.6105 92.0999 23.8091C91.9021 24.0078 91.7889 24.2915 91.7889 24.6321C91.7889 25.0577 91.9302 25.3699 92.2131 25.6253C92.496 25.8807 92.8637 26.0794 93.3447 26.278C93.7972 26.4483 94.3346 26.5902 94.9285 26.7037C95.5226 26.8172 96.1449 26.9591 96.7671 27.101C97.3897 27.2429 97.9835 27.4132 98.5777 27.6118C99.1715 27.8105 99.7089 28.0659 100.161 28.4348C100.614 28.7753 101.01 29.201 101.293 29.7118C101.576 30.2226 101.717 30.8753 101.717 31.6132C101.717 32.5213 101.519 33.2876 101.095 33.9402C100.671 34.5646 100.133 35.1037 99.4828 35.5011C98.8322 35.8984 98.0684 36.1819 97.2764 36.3808C96.4562 36.5511 95.6639 36.6646 94.872 36.6646C93.9104 36.6646 93.005 36.5511 92.1847 36.324C91.3644 36.097 90.6289 35.7564 90.0351 35.3308C89.4409 34.8767 88.9603 34.3376 88.6206 33.6564C88.2813 33.0037 88.0832 32.2091 88.0552 31.2726H91.4776V31.301H91.506ZM102.679 20.8294H105.253V16.1753H108.647V20.801H111.702V23.3267H108.647V31.5564C108.647 31.9253 108.676 32.2091 108.704 32.4929C108.732 32.7483 108.817 32.9752 108.902 33.1455C109.015 33.3158 109.185 33.4578 109.383 33.5428C109.609 33.6281 109.892 33.6849 110.288 33.6849C110.514 33.6849 110.769 33.6849 110.995 33.6564C111.221 33.6281 111.476 33.5996 111.702 33.5428V36.1819C111.335 36.2387 110.967 36.2673 110.599 36.2955C110.231 36.3522 109.892 36.3522 109.496 36.3522C108.591 36.3522 107.884 36.2673 107.346 36.097C106.809 35.9267 106.384 35.6714 106.073 35.359C105.762 35.0184 105.564 34.6214 105.451 34.1387C105.338 33.6564 105.281 33.0605 105.253 32.4361V23.355H102.679V20.7726V20.8294ZM114.078 20.8294H117.275V22.9294H117.331C117.812 22.0213 118.463 21.397 119.311 20.9997C120.16 20.6024 121.065 20.4037 122.083 20.4037C123.3 20.4037 124.346 20.6024 125.252 21.0564C126.157 21.4821 126.892 22.0497 127.486 22.8159C128.08 23.5537 128.533 24.4334 128.816 25.4267C129.098 26.4199 129.268 27.4983 129.268 28.605C129.268 29.655 129.127 30.6483 128.872 31.6132C128.589 32.578 128.193 33.4579 127.656 34.1955C127.118 34.9334 126.44 35.5293 125.591 35.9834C124.742 36.4376 123.781 36.6646 122.649 36.6646C122.168 36.6646 121.659 36.6079 121.178 36.5225C120.697 36.4376 120.217 36.2955 119.764 36.097C119.311 35.8984 118.887 35.6428 118.519 35.3308C118.123 35.0184 117.812 34.6496 117.558 34.2522H117.501V41.9428H114.107V20.8294H114.078ZM125.93 28.5483C125.93 27.8672 125.845 27.1861 125.647 26.5334C125.478 25.8807 125.195 25.3132 124.827 24.8023C124.459 24.2915 124.007 23.8943 123.498 23.5821C122.96 23.2699 122.338 23.128 121.659 23.128C120.245 23.128 119.17 23.6105 118.434 24.6037C117.727 25.597 117.36 26.9308 117.36 28.5767C117.36 29.3713 117.444 30.0807 117.642 30.7334C117.84 31.3861 118.095 31.9537 118.491 32.4361C118.859 32.9184 119.311 33.2876 119.849 33.5714C120.386 33.8552 120.98 33.997 121.687 33.997C122.479 33.997 123.102 33.8267 123.639 33.5146C124.176 33.2022 124.601 32.7767 124.969 32.2943C125.308 31.7834 125.562 31.2159 125.704 30.5632C125.845 29.8821 125.93 29.2294 125.93 28.5483ZM131.899 14.9551H135.293V18.1618H131.899V14.9551ZM131.899 20.8294H135.293V36.2387H131.899V20.8294ZM138.32 14.9551H141.714V36.2387H138.32V14.9551ZM152.067 36.6646C150.851 36.6646 149.747 36.4658 148.785 36.0402C147.824 35.6146 147.032 35.0752 146.353 34.3658C145.702 33.6564 145.193 32.7767 144.854 31.7834C144.514 30.7902 144.316 29.6834 144.316 28.5199C144.316 27.3564 144.486 26.278 144.854 25.2848C145.193 24.2915 145.702 23.4402 146.353 22.7024C147.004 21.9929 147.824 21.4253 148.785 21.028C149.747 20.6307 150.851 20.4037 152.067 20.4037C153.283 20.4037 154.386 20.6024 155.348 21.028C156.31 21.4253 157.102 21.9929 157.781 22.7024C158.431 23.4118 158.94 24.2915 159.28 25.2848C159.619 26.278 159.817 27.3564 159.817 28.5199C159.817 29.7118 159.647 30.7902 159.28 31.7834C158.912 32.7767 158.431 33.6281 157.781 34.3658C157.13 35.0752 156.31 35.6428 155.348 36.0402C154.386 36.4376 153.311 36.6646 152.067 36.6646ZM152.067 33.9684C152.802 33.9684 153.481 33.7984 154.018 33.4861C154.584 33.174 155.008 32.7483 155.376 32.2375C155.744 31.7267 155.998 31.1307 156.168 30.5064C156.338 29.8537 156.423 29.201 156.423 28.5199C156.423 27.8672 156.338 27.2145 156.168 26.5618C155.998 25.9091 155.744 25.3415 155.376 24.8307C155.008 24.3199 154.556 23.9226 154.018 23.6105C153.453 23.2983 152.802 23.128 152.067 23.128C151.331 23.128 150.652 23.2983 150.115 23.6105C149.549 23.9226 149.125 24.3483 148.757 24.8307C148.389 25.3415 148.135 25.9091 147.965 26.5618C147.796 27.2145 147.711 27.8672 147.711 28.5199C147.711 29.201 147.796 29.8537 147.965 30.5064C148.135 31.1591 148.389 31.7267 148.757 32.2375C149.125 32.7483 149.577 33.174 150.115 33.4861C150.681 33.8267 151.331 33.9684 152.067 33.9684ZM160.835 20.8294H163.409V16.1753H166.804V20.801H169.859V23.3267H166.804V31.5564C166.804 31.9253 166.832 32.2091 166.86 32.4929C166.889 32.7483 166.973 32.9752 167.058 33.1455C167.172 33.3158 167.341 33.4578 167.539 33.5428C167.765 33.6281 168.048 33.6849 168.444 33.6849C168.671 33.6849 168.925 33.6849 169.151 33.6564C169.378 33.6281 169.632 33.5996 169.859 33.5428V36.1819C169.491 36.2387 169.123 36.2673 168.756 36.2955C168.388 36.3522 168.048 36.3522 167.652 36.3522C166.747 36.3522 166.04 36.2673 165.503 36.097C164.965 35.9267 164.541 35.6714 164.23 35.359C163.919 35.0184 163.721 34.6214 163.607 34.1387C163.494 33.6564 163.438 33.0605 163.409 32.4361V23.355H160.835V20.7726V20.8294Z" fill="#14171A"/>
<path d="M40.7889 14.9551H25.2597L20.4794 0.141602L15.6707 14.9551L0.141602 14.9267L12.7007 24.0929L7.89201 38.9065L20.4511 29.7402L33.0101 38.9065L28.2298 24.0929L40.7889 14.9551Z" fill="#00B67A"/>
<path d="M29.3048 27.4415L28.2299 24.0928L20.4795 29.7401L29.3048 27.4415Z" fill="#005128"/>
</g>
<defs>
<clipPath id="clip0_5962_8373">
<rect width="170" height="42" fill="white"/>
</clipPath>
</defs>
</svg>
