<svg width="50" height="50" viewBox="0 0 50 50" fill="none" xmlns="http://www.w3.org/2000/svg">
<path d="M2.52468 5.75292C2.85594 3.99232 4.25351 2.62792 6.02226 2.3338C20.8703 -0.135236 30.1229 -0.0812501 43.9702 2.31586C45.7198 2.61873 47.1003 3.97343 47.4326 5.71666C50.2919 20.713 50.0873 30.0758 47.4234 44.2753C47.094 46.0312 45.7079 47.3978 43.948 47.6993C29.6256 50.1528 20.3676 50.0523 6.0485 47.6832C4.26813 47.3886 2.8624 46.0105 2.53612 44.2367C-0.140206 29.6877 -0.213065 20.3036 2.52468 5.75292Z" fill="white" stroke="#E4E4E4"/>
<path d="M39.298 17.7564C38.698 15.9049 36.712 14.782 34.885 14.5261C28.3135 13.8246 21.6865 13.8246 15.115 14.5261C13.288 14.782 11.302 15.9049 10.702 17.7564C9.76599 22.5395 9.76599 27.4597 10.702 32.2429C11.302 34.0943 13.288 35.2173 15.115 35.4762C21.6866 36.1746 28.3134 36.1746 34.885 35.4762C36.712 35.2173 38.698 34.0943 39.298 32.2429C40.234 27.4597 40.234 22.5395 39.298 17.7564ZM21.4 30.7677V19.2315L30.772 24.9996L21.4 30.7677Z" fill="#FF3B2E"/>
</svg>
