<svg width="140" height="141" viewBox="0 0 140 141" fill="none" xmlns="http://www.w3.org/2000/svg">
<g clip-path="url(#clip0_6750_29549)">
<path d="M137.116 37.027C135.502 31.0296 130.773 26.3021 124.777 24.6872C113.821 21.689 69.9986 21.689 69.9986 21.689C69.9986 21.689 26.1773 21.689 15.2216 24.5729C9.34063 26.1868 4.49675 31.0307 2.88283 37.027C0 47.9816 0 70.7003 0 70.7003C0 70.7003 0 93.5333 2.88283 104.374C4.49781 110.37 9.22527 115.098 15.2227 116.713C26.2926 119.712 69.9997 119.712 69.9997 119.712C69.9997 119.712 113.821 119.712 124.777 116.828C130.774 115.214 135.502 110.485 137.117 104.489C139.999 93.5333 139.999 70.8157 139.999 70.8157C139.999 70.8157 140.115 47.9816 137.116 37.027Z" fill="#FF0000"/>
<path d="M56.0469 91.6887L92.4876 70.7003L56.0469 49.7119V91.6887Z" fill="white"/>
</g>
<defs>
<clipPath id="clip0_6750_29549">
<rect width="140" height="140" fill="white" transform="translate(0 0.634277)"/>
</clipPath>
</defs>
</svg>
